<svg xmlns="http://www.w3.org/2000/svg" viewBox="0 0 1042.49 881.53"><title>camioneta_back</title><g id="Capa_2" data-name="Capa 2"><g id="Capa_1-2" data-name="Capa 1"><path d="M932.77,270.35c1.91,3.43,3.67,6.47,5.32,9.57,2.38,4.5,4.66,9.05,7,13.54a20,20,0,0,1,1.56,5.36c.73,3.35,1.49,6.69,2.11,10.06a3.56,3.56,0,0,0,3.53,3.23,17.84,17.84,0,0,1,11,5.9,12.67,12.67,0,0,1,3.75,8,2.88,2.88,0,0,0,.78,2.25c1.82,1.68,2.63,4,3.35,6.24,1.83,5.75-.07,10.79-5.23,13.93a30.5,30.5,0,0,1-3.64,1.76c-2.25,1-2.35,1.07-1.68,3.48,1.33,4.8,2.72,9.59,4.1,14.38,3.87,13.37,7.7,26.74,11.67,40.08a25,25,0,0,1,.63,9.87c-.56,5.38-.52,10.78-.88,16.17-.72,10.77-1,21.57-1.52,32.35-.59,12-1.18,24-1.9,36.07-.21,3.51-.85,7-1.38,10.49a5.1,5.1,0,0,0,.39,3.31c3.24,6.29,4.41,13.16,5.49,20A243.36,243.36,0,0,1,979.72,574c0,38.64-.23,77.28.25,115.92q.53,42.84.17,85.68c-.14,18.58-.08,37.17-.47,55.76-.2,9.82-1.41,19.49-5.55,28.53-5.27,11.5-13.86,19-26.56,21.29a27.59,27.59,0,0,1-5,.29c-22.64,0-45.29-.08-67.93,0-14.45.07-25.89-5.75-34.82-16.9a61.58,61.58,0,0,1-5.65-8.57,18.64,18.64,0,0,1-2.41-9.21c-.09-16.82-.42-33.64-.75-50.46-.18-9.44-.22-18.89-.44-28.33,0-.62-.05-1.25-.07-1.87,0-1.05-.6-1.47-1.6-1.44-.62,0-1.24,0-1.87,0q-39.42,0-78.84,0c-2.56,0-5-.3-7.09-1.83a11.9,11.9,0,0,0-7.36-2c-52.67,0-105.33.35-158,0-88.28-.65-176.57-.06-264.86-.36-3,0-5.75.32-8.23,2.12s-5.08,2.09-8,2.09q-37.71-.09-75.41,0c-5.05,0-4.88,0-5.09,4.94-.54,13.07-.18,26.16-.67,39.22-.44,11.73-.41,23.46-.49,35.19a26.93,26.93,0,0,1-4.18,14.71c-4.46,7.06-9.9,13.06-17.16,17.29a39.4,39.4,0,0,1-20.24,5.36q-34.42,0-68.87,0c-12.86,0-22.43-5.88-29.29-16.46-4.39-6.76-6.31-14.4-7.49-22.27a93.17,93.17,0,0,1-.68-11.8c-1.07-48.29-.41-96.59-.54-144.88-.08-28.67-.16-57.34.25-86,.2-13.91-.17-27.84.43-41.73.55-13.08,1.78-26.12,6-38.65a6.48,6.48,0,0,0,.25-3.06c-.47-3.18-.9-6.37-1.36-9.56-.81-5.66-.75-11.38-1.13-17.08-.43-6.31-.54-12.65-.87-19-.53-10.57-1.14-21.14-1.7-31.71-.42-8-.77-16-1.24-23.94a23.34,23.34,0,0,1,1-8q7.68-26.49,15.25-53c.14-.5.26-1,.43-1.5.46-1.37-.06-2.08-1.41-2.55a16.78,16.78,0,0,1-6.63-3.95,10.67,10.67,0,0,1-3-10.85c.71-2.6,1.6-5.18,3.55-7.17a3.14,3.14,0,0,0,.9-1.89,17,17,0,0,1,13.38-14.19,4.13,4.13,0,0,1,.92-.16c2.71,0,3.75-1.57,4.17-4,.53-3.07,1.32-6.09,1.89-9.15a26.38,26.38,0,0,1,2.36-7.05c3.09-6.12,6.26-12.2,9.69-18.14a10.79,10.79,0,0,0,1.61-3.4c-1.13-.72-2.3-.43-3.39-.43q-19.79,0-39.58,0c-2.08,0-4.12.16-5.57-1.94-.65-.95-2-.93-3.17-1L35,265.6c-3.73-.23-7.46-.47-11.19-.69a12.31,12.31,0,0,1-4.5-1.15,38.46,38.46,0,0,1-13.22-9.69C1.45,248.58-.74,242.29.22,235a224.25,224.25,0,0,1,6.17-31.46C8.38,196.45,17,190,24.32,190c21,0,42,0,63-.05,2.55,0,4.27.7,5.62,2.94a38.45,38.45,0,0,1,3,6.46c3.24,8.65,6.46,17.32,9.74,26,.66,1.74,1.6,3.38,2.32,5.1a3.51,3.51,0,0,0,3.71,2.21c4.78,0,9.56-.06,14.33.08,1.92.06,2.19-1.16,2.57-2.47q2.52-8.83,5-17.68c6.83-23.75,13.91-47.42,21.41-71,7-21.87,14.19-43.65,22.52-65,4.25-10.93,8.64-21.82,14.71-31.9a104.72,104.72,0,0,1,18.09-22.93,39.6,39.6,0,0,1,8.05-5.84A21.09,21.09,0,0,1,231,13.32c3.91.41,7.88.28,11.82.39,3,.08,5.81.53,7.67,3.29.75,1.11,1.95,1.07,3.1,1q4.81-.34,9.62-.74l36.62-3.06c11.48-1,23-2,34.44-2.87,9.31-.75,18.63-1.38,27.95-2.1,9.52-.72,19-1.51,28.55-2.23,6.73-.51,13.46-1,20.2-1.42,11.39-.78,22.77-1.6,34.17-2.33,8.59-.55,17.2-1,25.8-1.46Q488.71.89,506.44.12c7.69-.34,15.37.11,23,.49,13.26.66,26.52,1.52,39.78,2.31,7.77.45,15.55.87,23.32,1.38,11.28.75,22.57,1.57,33.86,2.33,7.14.48,14.29.9,21.44,1.39,10.87.76,21.74,1.56,32.61,2.33,6.93.49,13.87.91,20.81,1.41,10.66.75,21.33,1.55,32,2.31,6.62.48,13.25.93,19.88,1.41l32,2.36c1.66.12,3.32.15,5,.23a4.17,4.17,0,0,0,3.18-1,9.6,9.6,0,0,1,6.37-2.1c5-.18,10-.16,14.94-.49,4.13-.28,7.93,1.33,11.44,3.52,5.45,3.41,9.81,8,13.86,12.87a127.87,127.87,0,0,1,10.17,14.17c1.2,1.92,2.12,4,4,5.51a3.45,3.45,0,0,1,.92,1.6c3.39,9.6,7.9,18.74,11.47,28.27,7.84,20.92,14.93,42.08,21.68,63.37,9,28.41,17.4,57,25.55,85.67.9,3.14.89,3.12,4.19,3.1,4.15,0,8.31-.09,12.46,0a4.18,4.18,0,0,0,4.39-2.66c2.31-4.68,3.89-9.63,5.75-14.47,2.28-5.91,4.48-11.85,6.68-17.79a33.68,33.68,0,0,1,2.72-5.23,4.83,4.83,0,0,1,4.9-2.52c3.11.14,6.23,0,9.35,0,17.66,0,35.32.16,53-.1,5.86-.08,10.2,2.26,14.06,6.15a20.37,20.37,0,0,1,5.73,10.14c2.14,9.63,4.16,19.27,5.39,29.08a23.53,23.53,0,0,1-5.43,18.28,37.52,37.52,0,0,1-14.45,10.57,10.53,10.53,0,0,1-3.63.81l-23.31,1.44c-3.63.22-7.25.45-10.88.69-1.25.09-2.59.22-3.36,1.34-1.14,1.65-2.78,1.58-4.45,1.58q-19.17,0-38.33,0A17.82,17.82,0,0,0,932.77,270.35ZM125.13,872a2.2,2.2,0,0,1-3.26.54,15.1,15.1,0,0,0-1.35-.77c-3.1-1.56-4.11-.88-3.92,2.64.11,2.05.31,2.33,2.37,2.38,3.32.06,6.64,0,10,0,1.14,0,2.28,0,3.42,0,.58,0,1.32.12,1.44-.77a.79.79,0,0,0-.19-.57c-.46-.45-1-.2-1.41,0a6.75,6.75,0,0,1-2.65.84c-3.45.15-5.22.35-4.39-4.3a9.26,9.26,0,0,1,3.64-.64,5,5,0,0,0,4.4-2.76,10.55,10.55,0,0,1-5.26,1.09C126.25,869.58,125.47,870.53,125.13,872ZM360.85,474.16a13.27,13.27,0,0,0-1.82-3.08c-2.89-4.72-5.35-9.57-6.11-15.19-1.32-9.87-2.8-19.73-4.31-29.58-3.83-24.94-7.47-49.9-11.6-74.79-1-5.8-1.12-4.9-5.84-4.9q-67.64,0-135.26,0c-1.14,0-2.28,0-3.42-.07a1.93,1.93,0,0,1-2.07-2.18c0-1.44.39-2.48,2-2.59,1.35-.09,2.7-.12,4.05-.12H329.84c1.15,0,2.29,0,3.43-.07a1.66,1.66,0,0,0,1.7-2.09c-.06-.52-.16-1-.25-1.54-1.13-6.34-2.15-12.7-3.71-18.95a10.44,10.44,0,0,1,1.58-8.61,22.18,22.18,0,0,1,6.23-6c5.64-3.86,11.93-6.31,18.37-8.36,3.64-1.17,7.25-2.45,11.21-2.45q153.48.06,307,0a18.16,18.16,0,0,1,4.64.47,97.86,97.86,0,0,1,20.13,7.41A39.31,39.31,0,0,1,708.4,307c4,3.53,5.52,7.78,4.21,13.14s-2.25,10.77-3.22,16.19-.88,5.3,4.45,5.3H846.61c1.14,0,2.29,0,3.42.06,1.85.17,2.42.85,2.38,2.56a2.1,2.1,0,0,1-2.33,2.3c-1.14,0-2.29.05-3.43.05q-67,0-134,0c-5.37,0-4.91-.56-5.79,4.88q-3,18.6-5.88,37.23c-3.1,20.42-6.34,40.83-9.09,61.3-1.21,9.11-4,17.36-9.51,24.66-.23.3-.58.62,0,1.16,12.2-.77,24.53-1.43,36.84-2.36,13.66-1,27.31-2.26,40.95-3.54,13.13-1.22,26.25-2.5,39.35-4q24.45-2.73,48.82-6.15c4.81-.67,4.82-.62,4.82-5.54V327.78q0-28.66,0-57.34c0-5.82.28-5.55-5.67-5.55H194.87c-5.77,0-5.51-.16-5.51,5.4V453.84c0,.83,0,1.67,0,2.5.13,2.34.37,2.62,2.71,2.93,3.91.51,7.83,1,11.75,1.46,14,1.59,28,3.26,42.08,4.72,12,1.24,24,2.29,36,3.33,14.17,1.22,28.34,2.44,42.52,3.49,11.59.87,23.2,1.49,34.81,2.22A1.77,1.77,0,0,0,360.85,474.16ZM521.26,259.92H846.61c1,0,2.08,0,3.12,0,2.41-.11,2.77-.53,2.49-2.79-.05-.41-.18-.81-.25-1.22q-5.49-31.77-11-63.53-10.18-58.79-20.41-117.54c-1-5.43-.26-4.87-5.81-4.85-50.38.16-100.75,0-151.13.35-65.23.43-130.47.16-195.71.16q-112,0-224.07-.1C238,70.37,232,70,226.12,70c-3.32,0-3.36,0-4,3.33-.85,4.7-1.62,9.41-2.44,14.11q-6,34.68-12.07,69.36-7.08,40.82-14.13,81.63c-1.06,6.14-2.15,12.28-3.19,18.42-.42,2.52,0,3,2.46,3.07,1.14.06,2.29,0,3.43,0ZM954.67,583.78a13.35,13.35,0,0,0,1.11-4.24q5.22-31.65,10.39-63.3a150.65,150.65,0,0,0,2.21-20.11c0-2.07-.61-3.25-2.6-4-7-2.59-14-5.3-21.2-7.27a30.1,30.1,0,0,0-7.38-1.06c-13.91-.28-27.83-.07-41.75-.06-6.23,0-12.46.09-18.69.14-4.56,0-4.81.3-4.79,4.72l.06,10a87.12,87.12,0,0,1-1.37,17.67,39.57,39.57,0,0,0-.73,8q0,12.78,0,25.55c0,.83,0,1.67,0,2.49-.14,2.69-.5,3.06-3.11,3.16-1.25,0-2.5,0-3.74,0H180c-1.25,0-2.49,0-3.74-.06a1.86,1.86,0,0,1-2-2c0-.93-.06-1.86-.06-2.8q0-13.71,0-27.42a15.85,15.85,0,0,0-.2-3.72c-2-8-2.22-16.23-2.19-24.44,0-2.7.07-5.4,0-8.1,0-2.18-.6-2.76-2.69-3a11.63,11.63,0,0,0-1.56-.06c-19.21-.06-38.43-.08-57.64-.18a45.16,45.16,0,0,0-14.68,2.39q-8,2.65-15.83,5.67a12.64,12.64,0,0,1-3,.85c-1.38.16-1.27-1.65-2.46-2.32.06,4,.12,7.58.37,11.2.46,6.62,1.8,13.11,2.73,19.66.81,5.65,1.73,11.28,2.67,16.92q3.66,22.11,7.4,44.23c.46,2.7.68,2.82,3.18,1.59,5.13-2.52,10.28-5,15.32-7.68a18.83,18.83,0,0,1,9.22-2.21q119.82.09,239.63.05c17.24,0,34.48,0,51.72,0a5.1,5.1,0,0,0,4.89-2.5,13.55,13.55,0,0,1,12.65-6.51c13.59.63,27.19.36,40.79.61,14.94.27,29.9,0,44.85-.18,36-.42,72.08-.24,108.12-.36A14.35,14.35,0,0,1,630,571.58c1.29,1.84,2.68,2.73,4.89,2.5,1-.1,2.07,0,3.11,0q143,0,286.05,0a31.36,31.36,0,0,1,8,1C939.84,577.06,947.5,579.31,954.67,583.78ZM519.53,346.61H378.38c-.93,0-1.87,0-2.8,0-2.39.09-2.48.2-2.21,2.55a9.26,9.26,0,0,0,.13.92q7.2,41.58,14.43,83.16c1,5.59-.17,5.64,6.85,5.64q125.88,0,251.76,0c.94,0,1.88,0,2.81,0,2.74-.1,3.15-.46,3.56-3.24.69-4.72,1.36-9.45,2.05-14.17,3.44-23.31,6.94-46.61,10.28-69.94.69-4.82,1.74-4.92-4.24-4.92ZM186.63,493.5a4.15,4.15,0,0,0-.12.87c.53,9.75,1.16,19.48,2.33,29.17.61,5.07.49,5.09,5.61,5.09H847.92c5.13,0,5.12,0,5.68-5,1-8.66,1.93-17.33,2.1-26.06.09-4.39.17-4.39-4.11-4.39H188.77C188.07,493.18,187.31,493,186.63,493.5ZM522.16,729.89H825.38c4.52,0,4.58,0,4.52-4.39-.13-8.09-.33-16.19-.5-24.28,0-1,0-2.08-.08-3.12-.13-2-.42-2.27-2.43-2.42-.62,0-1.25,0-1.87,0-61.08-.2-122.15.14-183.22-.39-47.37-.41-94.74-.12-142.1-.14q-22.76,0-45.5-.1c-63.57-.19-127.13.35-190.7-.44-14.43-.18-28.87,0-43.31,0-.83,0-1.67,0-2.5,0a1.9,1.9,0,0,0-2.19,2c-.11,1.76-.38,3.52-.41,5.28q-.14,11.05-.17,22.12c0,6.06-.78,5.89,5.89,5.88ZM781.93,579h-143c-1,0-2.08,0-3.11,0-2.06.14-2.33.42-2.47,2.38,0,.62,0,1.25,0,1.87q0,23.07,0,46.12c0,4.31,0,4.29,4.23,4.32,31.05.23,62.09.13,93.14.53,38.53.49,77.06.1,115.59.69,11.52.17,23.05,0,34.58.09,5.09,0,10.26-.45,15.25.28,13,1.92,26.1,4,38.22,9.61,1.26.59,2,.25,2.44-.93.71-1.73,1.46-3.44,2.09-5.2,5.56-15.45,9.55-31.38,14.12-47.13a3.38,3.38,0,0,0-1.34-4.07,26.83,26.83,0,0,0-6.58-3.5,66.6,66.6,0,0,0-25.71-5.2C873.54,579.16,827.73,579,781.93,579Zm-523.09,0h-28q-58.11,0-116.23,0a15.47,15.47,0,0,0-7.46,1.73c-5.34,2.79-10.77,5.4-16.14,8.12-3.15,1.59-3.58,2.58-2.66,5.94q5.06,18.32,10.8,36.43c1.7,5.34,3.44,10.67,5.61,15.85.92,2.18,1.14,2.26,2.89,1.15,8.89-5.62,18.67-9,28.84-11.38a218.15,218.15,0,0,1,50.66-5.49c36.35.09,72.69,0,109,.46s72.9-.13,109.35.64c2,0,2.34-.26,2.47-2.27.06-.82,0-1.66,0-2.49V584.07c0-5,0-5-5.2-5Zm264.38,89.84q173.88,0,347.78,0a53.47,53.47,0,0,1,19.74,3.78q11.78,4.57,23,10.24c5.7,2.87,5.71,2.86,9-2.62,5.22-8.65,8-18.21,10.4-27.91a2.69,2.69,0,0,0-1.73-3.49,58.5,58.5,0,0,0-7.56-2.88,145.31,145.31,0,0,0-43.6-6.24c-7.58.07-15.16,0-22.75,0-2.74,0-2.92,0-3.21,2.59-.59,5.17-5,9.47-11.28,9.35-13.92-.28-27.84-.13-41.76-.14l-170.77-.1q-12.78,0-25.56-.07c-53.7-.21-107.39,0-161.1-.28-50-.3-100.12-.51-150.19.23-22.53.34-45.08.09-67.62.13-9.45,0-18.91,0-28.36.18-3.36,0-5.56-1.32-6.82-4.34a22.89,22.89,0,0,1-1.19-3.53,42.7,42.7,0,0,1-1-5.51c-.18-1.73-1-2.36-2.66-2.22s-3.31.35-5,.36a203.87,203.87,0,0,0-22.36,1.45c-11.69,1.36-23.2,3.52-34.31,7.52a68.39,68.39,0,0,0-14,6.72c-2.47,1.6-2.56,1.83-1.7,4.55a101.37,101.37,0,0,0,7.85,18.64,48.26,48.26,0,0,0,5.11,7.43c.91,1.11,1.66,1.3,2.85.44a37.64,37.64,0,0,1,9.84-4.61c9.81-3.47,19.89-6,30-8.52a38.32,38.32,0,0,1,9.55-1.12Q348.54,668.9,523.22,668.87Zm.29,5q-173.28,0-346.55,0a61.8,61.8,0,0,0-16.91,2.06c-9,2.51-18.1,4.71-26.82,8.12-1.55.6-3.06,1.29-4.55,2a1.83,1.83,0,0,0-1.21,2.25,1.9,1.9,0,0,0,2,1.56c.83,0,1.66,0,2.49,0l86,.07q26.33,0,52.66.09c63.47.2,126.93-.27,190.4.41,31.26.34,62.53.09,93.8.12q64.2,0,128.39.11c51.73.11,103.46-.27,155.18.4,23.89.3,47.79.05,71.68.05a17.23,17.23,0,0,0,2.49-.1,2.41,2.41,0,0,0,2.07-1.68c.28-1.12-.88-1.26-1.56-1.59-9-4.32-18-8.61-27.43-11.87a38,38,0,0,0-12.52-2.05Q698.35,673.88,523.51,673.84Zm-1.33-332.2h163c1.15,0,2.29,0,3.43,0a2.5,2.5,0,0,0,2.85-2.26c.93-5.53,2.05-11,3.26-16.49a6.27,6.27,0,0,0-1.81-6,25.14,25.14,0,0,0-6.5-4.76,85.87,85.87,0,0,0-14.71-5.93,28.26,28.26,0,0,0-8.57-1.28q-62.94.06-125.88,0H380.79a19.14,19.14,0,0,0-5,.26,81.54,81.54,0,0,0-19.7,7.64,24,24,0,0,0-4.95,3.75,6.83,6.83,0,0,0-2,6.82c1,4.35,1.86,8.73,2.68,13.11,1,5.52.81,5.11,6.08,5.11ZM628.64,606.73q0-11.06,0-22.11c0-5.59,0-5.59-5.72-5.59h-205c-.93,0-1.87,0-2.8,0-2,.15-2.31.43-2.45,2.41-.05.62,0,1.25,0,1.87v45.18c0,.62,0,1.24,0,1.86,0,1.42.62,2.13,2.06,2.1.62,0,1.24,0,1.87,0,19.62,0,39.25.06,58.88.17q32.85.17,65.71.46l.93,0c27.72.29,55.45-.25,83.16.57,3.2.09,3.35-.11,3.36-3.32C628.66,622.52,628.64,614.63,628.64,606.73ZM520.93,550.85H849.36c3.7,0,3.74-.07,3.76-3.91,0-2.6,0-5.2,0-7.79,0-5.93.28-5.55-5.64-5.55H195c-.83,0-1.66,0-2.49,0-2.75.09-3.08.36-3.13,3-.06,3.32,0,6.64,0,10,0,4.22,0,4.22,4.39,4.23H520.93Zm1.2-107H375.06c-1,0-2.08,0-3.12,0-2.77.09-3,.47-2.75,3.13.6,6.32,3.27,11.77,7.07,16.7,3,3.93,6.72,7.07,11.67,8.4a29.87,29.87,0,0,0,7.71.87q126.5,0,253,0c.73,0,1.46,0,2.18,0a19,19,0,0,0,11-3.71A31.69,31.69,0,0,0,674.25,449c.91-5.13.8-5.16-4.44-5.16ZM520.75,65.52v-.07h45.49q53,0,106-.09c45.49,0,91-.12,136.48,0,6.47,0,12.6-.49,18.26-3.81.45-.26,1-.4,1.43-.63,2.47-1.21,2.61-1.57,1.16-4C826.08,51.1,821.21,46.6,816,42.37a3.94,3.94,0,0,0-3.2-.71c-7,.74-14,1.55-21.07,2.06-8.85.64-17.57,1.62-25.53,6-.63.34-1.36.51-2,.84a12.57,12.57,0,0,1-6.33,1.27c-9.86-.2-19.72-.19-29.58-.4-17.34-.35-34.69-.17-52-.24-6.85,0-13.71.06-20.56-.23-9.24-.4-18.48-.09-27.71-.29a2.63,2.63,0,0,0-2.68,1.71c-1.11,2.46-2.27,4.9-3.4,7.35-2.57,5.52-1.78,5.1-7.77,5.1H450c-6.75,0-13.51-.08-20.26,0a6.65,6.65,0,0,1-5.86-2.77c-3-3.84-6.28-7.47-9.3-11.3a4.91,4.91,0,0,0-4.26-2c-26.48-.06-53-.18-79.44-.57-15-.22-29.91-.31-44.87-.17a42.52,42.52,0,0,1-16.12-2.74c-6.89-2.69-13.91-4.91-21.48-4.24a3.18,3.18,0,0,1-.62,0,117.56,117.56,0,0,0-19.59.1,9.25,9.25,0,0,0-5.06,2.12c-5.26,4.17-9.38,9.39-13.7,14.44-.69.79-.82,1.47.24,2,5.92,2.75,11.63,5.83,18.53,5.77,15.78-.15,31.57.09,47.36.09Q398.13,65.54,520.75,65.52Zm-.14,423H850.28c1,0,2.07,0,3.11,0,2.43-.09,2.76-.28,2.66-2.72-.26-6.32-.4-12.66-1.63-18.9-.59-3-.6-3-3.66-2.58-11.53,1.52-23,3.11-34.59,4.5-11.95,1.44-23.92,2.74-35.9,4s-24.16,2.41-36.26,3.47c-9.2.81-18.42,1.35-27.63,2.09-12.52,1-25,1.87-37.59,2.39a8.61,8.61,0,0,0-4.41,1.26,28.69,28.69,0,0,1-15.71,4.25q-136.78,0-273.58,0c-6.1,0-11.73-1.38-16.7-5a9.65,9.65,0,0,0-5.51-1.76q-12.6-.63-25.18-1.48c-10.14-.7-20.28-1.48-30.42-2.27-8.59-.66-17.18-1.33-25.76-2.09-10-.9-20-1.88-30.06-2.87-9-.88-18-1.76-27-2.78-10.93-1.25-21.84-2.65-32.76-4-2.68-.32-3.12,0-3.61,2.53a124.36,124.36,0,0,0-1.74,19.83c0,.1,0,.21,0,.31-.18,1.57.62,2,2,1.85a7.37,7.37,0,0,1,.94,0ZM211.62,47l.49.39c1.81-1.84,3.66-3.66,5.43-5.54a17.68,17.68,0,0,1,13.93-5.75c6.85.14,13.71.06,20.56.18a34.94,34.94,0,0,1,12.2,2.12c3.78,1.45,7.68,2.57,11.51,3.87a14.85,14.85,0,0,0,4.58.8c9.65.2,19.31.25,29,.36,29.59.33,59.19.18,88.78.72,3.43.06,6.86.07,10.29,0s3.42-.18,3.48-3.58v-.32c.06-4.86.06-4.87,4.76-4.87H623.5c.62,0,1.25,0,1.87,0,2.49.12,2.77.39,2.87,3,0,1.45,0,2.91,0,4.36.06,3,.18,3.17,3.16,3.23h1.24c21,.32,42,.06,62.93.53,20.76.46,41.54.22,62.31.33a14.25,14.25,0,0,0,6-1.29c3.22-1.44,6.52-2.71,9.77-4.09a14.74,14.74,0,0,1,4.5-1.13c4.85-.45,9.7-1,14.55-1.51l20.76-2.09a5.78,5.78,0,0,1,4.39,1.09c6.57,5,12.44,10.69,16.48,18,.28.51.36,1.24,1.15,1.36.06-.07.19-.15.18-.21a2.76,2.76,0,0,0-.15-.91A37.66,37.66,0,0,0,819,37.29a8.67,8.67,0,0,0-4.48-1.09c-4,0-8.1,0-12.15,0-1.25,0-2.65.25-3.7-.22-2.8-1.25-5.69-.88-8.57-1-4.57-.28-9.11-.78-13.29-2.9a11.24,11.24,0,0,1-6.45-8.27c-.14-.77,0-1.73-1.37-2.22-1,2-3.1,2.28-5,3-3.31,1.21-6.67,2.31-10,3.59a23.1,23.1,0,0,1-8.52,1.43q-165.15,0-330.3,0-55.63,0-111.25,0a18.08,18.08,0,0,1-4.64-.32c-6.93-1.84-13.87-3.62-20.79-5.47-1.06-.29-2.18-.47-2.74-1.77-.63-1.45-2-.62-3-.63s-1.31.82-1.42,1.7c-.69,5.59-4.36,8.5-9.3,10.15A36.56,36.56,0,0,1,250.34,35c-7.16,0-14.33,0-21.5,0a9.12,9.12,0,0,0-4.24.75A33.82,33.82,0,0,0,211.62,47ZM779.55,646.84v.06h61.7a25.88,25.88,0,0,0,3.74-.13,4.81,4.81,0,0,0,4.14-3.32c.87-2.54.06-3.67-2.65-3.78h-1.24c-22.64-.31-45.28-.14-67.92-.47-36.45-.53-72.9-.15-109.36-.66-34-.48-67.92-.14-101.88-.6-37.9-.52-75.81-.13-113.72-.64-36-.49-72.07-.25-108.11-.59-49-.47-98.05-.16-147.07-.72-.72,0-1.45,0-2.18,0-1.19,0-1.7.62-1.51,1.8a33.76,33.76,0,0,0,1.07,5.81c1,2.84,1.47,3.15,4.47,3.25,4.37.14,8.71-.4,13.07-.41q44.88-.12,89.75-.17,78.06,0,156.12.1c87.67.15,175.33-.39,263,.43C740.49,647,760,646.84,779.55,646.84ZM213.15,66.6,209,64.54c-3.57-1.76-3.62-1.77-4.93,2q-18.17,52.07-36.3,104.13-11.24,32.22-22.45,64.43c-.86,2.47-2.43,5-.35,7.6a1.06,1.06,0,0,1,.09.6c0,4.68,0,9.35,0,14a1.92,1.92,0,0,1-2.16,2.1c-4.89,0-9.77,0-14.65,0a1.81,1.81,0,0,1-2-1.89c0-.55.27-1.28-.7-1.7a108,108,0,0,0-9,12.59c-3.15,5-6.17,10.12-8.86,15.39-.93,1.84-.75,2.11,1.33,2.15,3,.05,6,0,9,0,3.3,0,3.3,0,4.46-3.09a57.36,57.36,0,0,1,6.56-13c4.61-6.53,10.55-10.25,18.91-10,8.92.31,17.86.09,26.8.06,3,0,3.3-.32,3.81-3.31q2.49-14.58,5-29.17,5.47-32.4,10.92-64.8,6.09-36.07,12.21-72.16c1.17-7,2.38-13.92,3.53-20.88C210.49,67.85,211,66.48,213.15,66.6ZM69.87,412.86c0,.49,0,.69,0,.9q.9,17.57,1.79,35.12c.12,2.18.28,4.35.51,6.52.19,1.85.54,2.06,2.48,1.54s4-1.2,6-1.78a202.93,202.93,0,0,1,23.57-5.75c1.53-.25,3.39.47,4.51-.64,1.29-1.28.2-3.16.19-4.76q0-33-.13-66a61.39,61.39,0,0,1,2.46-17.2,15.13,15.13,0,0,0,.59-3c.5-8.28.89-16.58,1.45-24.86q.48-7.29,1.36-14.56a190.88,190.88,0,0,1,4.61-25.09c.64-2.44.5-2.57-2.19-2.61s-5.19,0-7.79,0c-5.65,0-6.68.77-8.24,6.2-.17.6-.26,1.22-.38,1.83-2.14,11.12-5.06,22.05-8,33-7,26.17-14.54,52.18-22.16,78.18A9.42,9.42,0,0,0,69.87,412.86ZM931,290.63v0c-1.66,0-3.33,0-5,0-2.93.06-3.18.32-2.51,3.06,4,16.21,5.38,32.75,6.28,49.35.43,8.08.57,16.17,2.85,24a19.4,19.4,0,0,1,.47,2.76c.86,5.78.55,11.61.55,17.42,0,19.93.21,39.87-.43,59.8-.06,1.86.12,2.19,2.1,2.18a37.11,37.11,0,0,1,8.35.85c4,.91,8.09,1.85,12.1,2.92,3.82,1,7.59,2.18,11.37,3.3,3,.88,3,.9,3.18-2.36.43-8.08.82-16.17,1.24-24.25.25-4.87.45-9.75.84-14.61a13.87,13.87,0,0,0-.44-5.21c-4.13-14.15-8.34-28.28-12.31-42.48-6.46-23.09-13.27-46.1-18-69.63a23.72,23.72,0,0,0-2.44-5.69,2.55,2.55,0,0,0-2.56-1.43ZM880.7,259.92h0c4.36,0,8.72,0,13.08,0,2.6,0,3.35-.81,3.42-3.37.08-2.8,0-5.61,0-8.41s-.55-5.41,1-7.9c.39-.62,0-1.41-.21-2.11-.51-1.47-1-2.95-1.52-4.42q-17.29-49.2-34.59-98.4-11.66-33.19-23.27-66.41c-.55-1.57-1.17-3.11-1.7-4.69-.39-1.15-1.06-1.34-2.15-1-2.58.9-3,1.68-2.5,4.79q3,18,6,35.92,5.76,34.54,11.53,69.09t11.56,69.08c.76,4.5,1.47,9,2.32,13.5.73,3.89,1.28,4.3,5.12,4.32S876.76,259.92,880.7,259.92ZM56.87,194.62c-8.62,0-17.24.14-25.85-.06a28,28,0,0,0-13.46,3.2,4.93,4.93,0,0,0-2.8,3.09c-1,3.27-2.25,6.47-3.24,9.75a61.92,61.92,0,0,0-2.93,23,20.46,20.46,0,0,0,1.57,6.64c1.89,4.28,5.05,7.06,9.79,7.71a61.94,61.94,0,0,0,6.51.57c9.55.28,19.1.21,28.65,0a43.6,43.6,0,0,0,21.39-5.8,96,96,0,0,0,21.75-18,3.39,3.39,0,0,0,.68-4q-4.28-11.19-8.43-22.44c-1-2.65-2.57-3.85-5.6-3.79C75.56,194.74,66.21,194.62,56.87,194.62Zm928.72,0c-9.34,0-18.68.12-28-.07-3-.06-4.62,1.14-5.6,3.79q-4.14,11.25-8.43,22.44a3.37,3.37,0,0,0,.7,4c6.42,6.83,13.25,13.18,21.48,17.81,4.64,2.61,9.45,4.93,14.82,5.39a278.35,278.35,0,0,0,40.43.23c6.54-.4,10.7-4.58,12.15-10.25,1.38-5.42,1-10.92.33-16.39-.93-7.15-3.41-13.89-5.74-20.66a4.21,4.21,0,0,0-2-2.64c-3.9-2-7.84-3.69-12.39-3.64C1004.07,194.69,994.83,194.62,985.59,194.62ZM728.66,755.85c-.31-1.08-1.18-1.33-1.82-1.8a30.62,30.62,0,0,1-6.34-5.49c-1.55-2-3.41-2.37-5.73-2.35-7.37,0-14.75-.06-22.12-.06-58.69,0-117.37,0-176.06-.46-15.68-.13-31.37-.06-47.05-.07l-139.61-.1c-.83,0-1.67,0-2.5,0a3.48,3.48,0,0,0-3.19,1.56c-1.81,2.61-4.4,4.39-6.85,6.3a7.86,7.86,0,0,0-2.7,2.46Zm-205.82-21H220.9c-1.14,0-2.29,0-3.43,0-2.25.14-3.05,1.08-3,3.42.05,1.76.41,2,3,2.09H219l32.72.1c50.78.19,101.57-.09,152.35.38,48.4.44,96.8.14,145.2.25,52,.12,104.07-.28,156.1.42,17.23.23,34.48,0,51.72,0l68.86,0c4,0,4.13-.12,4-3.93-.09-2.85-.09-2.85-3-2.85ZM172.53,405v43.63c0,.93,0,1.87,0,2.8-.14,2.36-.49,2.73-2.72,2.92-.83.07-1.66,0-2.49,0-6.55,0-13.09.08-19.64,0-13.28-.19-26.58.51-39.86-.42a10.92,10.92,0,0,0-2.49.12c-10.61,1.66-20.82,4.82-31,8.07a2.12,2.12,0,0,0-1.68,2.51c.39,7.16.64,14.32,1,21.47.11,2.45.45,2.65,2.89,1.75q6-2.19,12-4.47A71.66,71.66,0,0,1,114,478.72c15.79-.08,31.57.13,47.35.48,2.91.06,5.82,0,8.72.05,1.57,0,2.31-.67,2.3-2.23,0-.83,0-1.66.1-2.49.5-6.83.91-13.67,1.55-20.49.44-4.63.58-4.61,5.33-4.63,5,0,5,0,5-4.93q0-41.76,0-83.52c0-.73,0-1.46,0-2.19-.13-2.23-.4-2.56-2.54-2.63s-4.57-.07-6.85,0c-2,.07-2.28.38-2.42,2.4-.06.83,0,1.67,0,2.5ZM970,525.32a1.85,1.85,0,0,0-.74,1.5c-1.92,11.78-3.63,23.6-5.81,35.34-2.12,11.49-3.17,23.18-6.9,34.41-3.27,9.84-5.66,20-8.69,29.91-2.47,8.13-4.69,16.39-9.21,23.74a5,5,0,0,0-.54,1.45,128.77,128.77,0,0,1-6.25,20.87c-.26.65-.77,1.45-.2,2.06,1.57,1.66,1.17,3.69,1.17,5.62q0,96.75,0,193.52c0,.52,0,1,0,1.55,0,1,.44,1.5,1.49,1.53,1.76,0,2.31-.49,2.35-2.8.1-6.85.24-13.7.34-20.54.38-28.14.24-56.29.6-84.43.42-33.54.29-67.09.73-100.63,0-.52,0-1,0-1.56,0-1.87,0-3.74.1-5.61.06-1.44,1-1.92,2.3-1.91s2.22.48,2.25,1.95,0,3.12.05,4.67c.06,2.57.27,2.74,2.9,2.91,9.1.62,18.28.34,27.27,2.3,1.34.3,2-.15,1.94-1.55,0-2.7,0-5.41,0-8.11s-.13-2.92-2.69-3.8c-1-.33-2-.61-3-.87-7.13-1.9-14.38-3.26-21.63-4.61-.81-.15-1.63-.31-2.43-.54-1.46-.42-1.45-1.56-1.24-2.76s.8-1.9,2.13-1.69c1,.16,2.06.26,3.08.46,7.83,1.58,15.73,2.9,23.41,5.16,2.09.61,2.31.43,2.34-1.81.05-2.81-.11-5.62.05-8.41.13-2.47-.84-3.91-3.16-4.64-4-1.24-7.88-2.63-11.85-3.86-3.37-1-6.8-1.9-10.18-2.91-2-.6-2.25-1.33-1.58-3.23a1.86,1.86,0,0,1,2.68-1.28c.69.21,1.42.33,2.12.53,6.5,1.79,13,3.62,19.36,5.89,2.07.73,2.45.5,2.49-1.59.07-3.42,0-6.85,0-10.28,0-.71.07-1.45-1-1.6-2.93-.39-5.39-2.07-8.13-3-3.14-1.08-6.25-2.27-9.33-3.51-1.85-.75-2-1.35-1.34-3.09s1.17-1.94,3.19-1.2c4.49,1.63,8.94,3.36,13.4,5.08,3.21,1.24,3.27,1.26,3.22-2.21-.08-6.85-.3-13.7-.37-20.55q-.09-9.34,0-18.69c.13-13-.43-26-2.71-38.78A39.16,39.16,0,0,0,970,525.32ZM521.87,481.26H616q22,0,43.94,0a19.59,19.59,0,0,0,9.36-1.89c9.24-4.81,14.62-12.81,16.52-22.62,2.67-13.75,4.24-27.7,6.35-41.56q4.19-27.56,8.47-55.1c.58-3.79,1.21-7.58,1.86-11.37.22-1.3-.2-2-1.56-2.07s-2.69,0-4,0a2.07,2.07,0,0,0-2.17,1.83c-.15.71-.28,1.43-.4,2.14-2.84,17.84-5.73,35.67-8.5,53.52-2.2,14.16-4.46,28.31-6.29,42.51a40.39,40.39,0,0,1-9.18,21.11c-5.15,6.21-11.72,9.83-20,9.83H393.26a22.44,22.44,0,0,1-12.16-3.34c-9-5.63-14.17-13.94-16.1-24.16-1.65-8.66-2.64-17.44-4-26.17q-4.25-27.71-8.55-55.4c-1-6.36-2.06-12.71-3.13-19-.42-2.44-.82-2.74-3.25-2.86-.41,0-.83,0-1.24,0-3.8,0-3.83,0-3.22,3.87,2.34,15,4.76,29.94,7.05,44.92,2.68,17.55,5.25,35.11,7.88,52.67.84,5.63,1.35,11.32,4.11,16.52,5.62,10.58,13.23,17,26.27,16.83C431.91,481,476.89,481.26,521.87,481.26Zm-237-461,.1.31c3.71,1,7.44,1.92,11.12,3a36.8,36.8,0,0,0,10.45,1.35q187.44,0,374.88,0h64.51c3.51,0,9.95-2,13.19-4.14-10.63-.58-21-1.45-31.52-1.44q-210.83.22-421.63,0c-1.76,0-3.52-.17-5.29-.25a20.52,20.52,0,0,0-2.48,0C293.77,19.41,289.32,19.82,284.88,20.22ZM901.15,454.37H872.8c-2.67,0-2.85.17-2.59,2.82q.91,9.15,1.24,18.32c.12,3.37.59,3.76,3.9,3.72,7.36-.08,14.73-.16,22.1-.36,11.62-.32,23.26-.16,34.88-.06a54.69,54.69,0,0,1,18.95,3.12c4.86,1.83,9.77,3.5,14.67,5.23,2.67,1,2.84.85,3-1.9.34-7.05.62-14.11,1-21.15a2.11,2.11,0,0,0-1.67-2.53c-2.48-.74-4.95-1.54-7.45-2.23-4.51-1.24-9.06-2.3-13.53-3.65s-9.2-1.12-13.61-2.67a.44.44,0,0,0-.56.12c-1.51,1.87-3.63,1.19-5.51,1.2C918.8,454.41,910,454.37,901.15,454.37ZM167.56,401.75q0-22,0-43.92c0-3.39-.2-3.57-3.5-3.58H121.7c-3.27,0-3.24.08-4.42,3.18-2.8,7.39-3.72,15.08-3.8,22.91q-.27,27.87.4,55.73c.09,3.53,0,7.06.12,10.59.08,2.35.44,2.61,2.8,2.73.83,0,1.67,0,2.5,0h35.19c3.43,0,6.86,0,10.28,0,2.31-.05,2.64-.45,2.77-2.77.05-.83,0-1.66,0-2.49Q167.58,422.93,167.56,401.75Zm707.36-.32v29.9c0,5.09,0,10.18,0,15.27,0,2.32.45,2.65,2.75,2.79.52,0,1,0,1.56,0q22.43,0,44.85,0c.83,0,1.66,0,2.49-.06a1.72,1.72,0,0,0,1.8-1.75c.05-.62.11-1.24.12-1.86.11-8.3.21-16.6.4-24.9.31-13.6.16-27.2.05-40.8a63.78,63.78,0,0,0-3.68-22.3c-1.3-3.43-1.22-3.48-4.83-3.48H879.05c-.52,0-1,0-1.56,0-2.14.13-2.42.41-2.55,2.63-.05.83,0,1.66,0,2.5ZM520.78,59.84h78.53c7.45,0,7.45,0,10.66-6.78.09-.19.21-.36.29-.55.61-1.5.44-1.8-1.19-1.95-.42,0-.84,0-1.25,0-11-.18-22-.19-33-.37-27.2-.45-54.41-.12-81.62-.67-17.66-.35-35.32-.2-53-.27-2.59,0-5.19,0-7.79,0-1.84.05-2.11.47-1.31,2,1.17,2.32,2.48,4.56,3.71,6.85a2.89,2.89,0,0,0,2.76,1.67c1,0,2.08,0,3.11,0ZM680.72,346.61h-5.6c-4.45,0-4.46,0-5,4.35,0,.1,0,.21,0,.31q-3.6,24.62-7.21,49.24-2.58,17.53-5.14,35.08c-.4,2.75,0,3.23,3,3.27,3.94.05,7.89,0,11.83,0,3.13,0,3.25-.09,3.74-3.25,1.18-7.48,2.27-15,3.42-22.45q3.59-23.37,7.21-46.72c.86-5.54,1.86-11.05,2.73-16.58.49-3.09.35-3.22-2.69-3.26C684.87,346.59,682.79,346.61,680.72,346.61ZM362.18,14v.23H665.4c-9.61-.9-19.22-1.59-28.83-2.24-7.77-.52-15.54-1-23.31-1.49C602.08,9.78,590.9,9,579.72,8.27c-8.5-.54-17-1-25.49-1.47C544,6.23,533.72,5.54,523.45,5.17c-11.83-.43-23.66-.09-35.49.53-6,.32-12,.48-18,.84-12.33.73-24.65,1.55-37,2.34-7.05.45-14.09.89-21.13,1.39q-16.15,1.15-32.29,2.38C373.75,13.08,368,13.56,362.18,14ZM918.32,818c0-.32,0-.67-.09-.9-1-1.7-.29-2.62,1.26-3.43,1.85-1,3.59-2,5.78-2.12,2.34-.12,2.56-.47,2.63-2.89.06-2,.06-3.95,0-5.92-.08-2.73-1.09-3.51-3.75-2.79a35.28,35.28,0,0,0-3.44,1.44c-1.51.58-2-.63-2.58-1.59s-.59-2,.59-2.62c2.09-1.12,4.1-2.37,6.63-2.47,2.2-.08,2.47-.45,2.53-2.66.07-2.7.08-5.4,0-8.1-.07-1.86-.68-2.3-2.55-2.33-1.64,0-3,.8-4.37,1.48s-2.08-.16-2.68-1.24-.8-2.15.57-2.88c2.11-1.12,4.1-2.5,6.65-2.38,1.71.08,2.43-.82,2.42-2.48,0-3.22.05-6.44,0-9.66,0-2.33-.89-3-3.13-2.46a23.75,23.75,0,0,0-3.41,1.48c-1.75.74-2.15.61-3-.94s-.82-2.15.65-3.08c1.93-1.22,3.88-2.32,6.33-2.31,2.25,0,2.51-.34,2.57-2.55.08-2.8.08-5.61,0-8.41-.07-2.07-.64-2.46-2.72-2.39-1.55.06-2.72,1-4,1.62a1.81,1.81,0,0,1-2.79-.92c-.87-1.64-.88-2.34.47-3.16,1.95-1.18,3.91-2.27,6.36-2.26s2.65-.33,2.69-2.76q.09-5.76,0-11.52c0-2.71-1.1-3.48-3.77-2.76A21,21,0,0,0,921,723.4c-1.63.76-2.22-.42-2.86-1.52s-.55-2,.62-2.61c2-1,3.92-2.29,6.33-2.43,2.59-.15,2.78-.42,2.82-3q.09-4.83,0-9.66c0-2.6-.9-3.21-3.54-2.87-1.38.17-2.49,1-3.75,1.47s-1.75-.26-2.2-1.15-1.22-2,0-2.75a13.44,13.44,0,0,1,5.28-2.55c4.23-.66,4.23-.66,4.24-4.81,0-.84,0-1.67,0-2.5,0-2.22,0-4.43,0-6.65l-.7-.19c-2.54,4.38-6.2,7.74-9.68,11.28-1.36,1.37-2.72,2.53-4.83,2.35a1.7,1.7,0,0,0-2,1.17,6.13,6.13,0,0,0,5.14,8.4c.52.08,1,0,1.56.08,1.88.19,2.43.8,2.37,2.49s-1,2.05-2.43,2.17a13.28,13.28,0,0,1-6.67-1.47c0,4.91,0,9.43,0,14,0,.93.73,1.42,1.41,1.93a9.68,9.68,0,0,0,5.89,1.63c1.5,0,1.82,1.14,1.78,2.4s-.43,2.07-1.76,2.11a13.46,13.46,0,0,1-5.23-.42c-1.83-.65-2.12-.47-2.15,1.27-.07,3.74,0,7.48,0,11.22a2.93,2.93,0,0,0,1.71,2.71,10.72,10.72,0,0,0,5.34,1.44c1.56,0,2.16,1,2.14,2.47a2.12,2.12,0,0,1-2.27,2.37,9.34,9.34,0,0,1-5.15-.84c-1.17-.62-1.76-.2-1.76,1.11,0,3.42,0,6.85,0,10.28a2.83,2.83,0,0,0,1.71,2.7,10.79,10.79,0,0,0,5.29,1.61c1.68,0,2.2.74,2.18,2.32s-.56,2.13-2.32,2.25a8.82,8.82,0,0,1-5.14-.87c-1.2-.68-1.73-.16-1.73,1.11,0,3.43,0,6.85,0,10.28a2.9,2.9,0,0,0,1.7,2.73,11.17,11.17,0,0,0,5.3,1.57c1.68,0,2.21.77,2.17,2.35s-.56,2.12-2.32,2.21a9.64,9.64,0,0,1-4.89-.6c-1.35-.65-2-.08-2,1.31,0,2.49,0,5,0,7.48a2.71,2.71,0,0,0,1.58,2.47,9.71,9.71,0,0,0,5,1.59c2.06,0,2.6.61,2.61,2.23s-.59,2.3-2.81,2.37a9.36,9.36,0,0,1-4.58-.66c-1.2-.58-1.76,0-1.77,1.23q0,3.27,0,6.54a2.09,2.09,0,0,0,1,1.86C913.64,817.65,915.67,818.91,918.32,818ZM116.6,684.39c0,3.46,0,6.35,0,9.23,0,2.23.28,2.56,2.54,2.56a12.19,12.19,0,0,1,6.13,2c1.8,1,2,1.55,1.11,3.2s-1.41,1.92-3.2,1a8.25,8.25,0,0,0-4.12-1.2c-1.92.09-2.41.45-2.45,2.39q-.11,5.29,0,10.59c0,2.23.25,2.54,2.51,2.63a13.55,13.55,0,0,1,6.37,2.3c1.55.91,1.66,1.49.85,3s-1.37,1.76-3,1.06c-1.33-.57-2.55-1.37-4.09-1.37-2.1,0-2.61.37-2.64,2.48q-.11,6.23,0,12.46c0,2,.31,2.37,2.44,2.29,2.45-.09,4.43.94,6.39,2.11,1.63,1,1.75,1.47,1,3s-1.41,1.85-3.22,1.06c-1.32-.57-2.51-1.44-4.06-1.43-2,0-2.48.29-2.53,2.22q-.11,4.37,0,8.72c0,2.1.28,2.47,2.33,2.41,2.46-.07,4.42,1,6.41,2.12,1.78,1,1.9,1.51,1,3.21s-1.32,1.82-3.2.92c-1.3-.63-2.49-1.49-4-1.51-2,0-2.46.3-2.5,2.24q-.11,5,0,10c0,2.17.28,2.48,2.61,2.49a11.8,11.8,0,0,1,6.33,2.32c1.52,1,1.6,1.49.76,3.06s-1.32,1.76-3,1a10.07,10.07,0,0,0-4.41-1.36c-1.51,0-2.34.61-2.33,2.22,0,2.8,0,5.61,0,8.41,0,2.07.27,2.41,2.33,2.48a13.39,13.39,0,0,1,6.39,2.22c1.67,1,1.81,1.45,1.08,3-.81,1.68-1.43,1.94-3.19,1.15a9.56,9.56,0,0,0-4.1-1.31c-1.95,0-2.44.4-2.51,2.31-.08,2.38,0,4.77,0,7.16,0,1.53.63,2.4,2.2,2.35,2.53-.08,4.58,1.15,6.68,2.29,1.13.61,1.84,1.34,1.14,2.73-.27.55-.52,1.19.3,1.56,2.33,1,6.76-1.51,6.89-4,.1-1.87.08-3.74,0-5.61-.07-2-.29-2.25-2.17-1.6a11,11,0,0,1-4.3.41c-1.87-.08-2.29-.54-2.34-2.16s.39-2.18,2.12-2.42a9.38,9.38,0,0,0,2.46-.25c1.74-.73,4.06-1,4.19-3.55s.06-5.19,0-7.78c0-1.5-.82-1.78-2.05-1.17a9.51,9.51,0,0,1-4.29.53c-1.41,0-2.42-.38-2.46-2.07s.38-2.32,2.3-2.55a8.9,8.9,0,0,0,2.16-.21c1.76-.74,4.11-1.1,4.25-3.53.21-3.52.09-7.06.06-10.59,0-1-.61-1.57-1.66-1.11a9.71,9.71,0,0,1-4.88.65c-1.76-.15-2.2-.67-2.24-2.31s.66-2.3,2.23-2.3a4.86,4.86,0,0,0,1.84-.17c1.85-.79,4.45-1,4.63-3.55.28-4,.07-8,.07-11.88-1.15-.49-1.74.05-2.4.31a9.78,9.78,0,0,1-4.29.47,1.94,1.94,0,0,1-2.09-2.16c0-1.41.32-2.5,1.94-2.63a11.31,11.31,0,0,0,5.08-1.25,3,3,0,0,0,1.81-2.67c0-3.84,0-7.68,0-11.53,0-1.46-.69-1.82-2-1.22a9.36,9.36,0,0,1-4.6.43c-1.78-.1-2.19-.63-2.23-2.28s.72-2.34,2.25-2.3a9,9,0,0,0,5-1.39,2.78,2.78,0,0,0,1.55-2.5c0-3.84,0-7.68,0-11.52,0-1.2-.62-1.77-1.82-1.22a10.37,10.37,0,0,1-5.2.55c-1.5-.12-1.8-1.14-1.77-2.42s.43-2,1.75-2.11c.62,0,1.25,0,1.87-.1,3.61-.48,5.2-2.29,5.22-6,0-.93,0-1.87,0-2.8a1.86,1.86,0,0,0-2.12-2.09c-1.56,0-3.12,0-4.68,0-2.62-.07-2.64-.09-3.51-2.57A4.73,4.73,0,0,0,122,689.3C120.14,688.06,118.74,686.37,116.6,684.39ZM521.82,298.55q-76.19,0-152.36,0a25.93,25.93,0,0,0-7.69,1,97.76,97.76,0,0,0-14.55,5.5c-3.36,1.65-6.68,3.4-9.28,6.19-1.84,2-3.05,4.13-2.31,7,1.57,6.13,2.61,12.39,3.72,18.62.88,5,1,5.05,6,4.8,2.3-.12,2.57-.3,2.17-2.61-.85-4.81-1.62-9.64-2.86-14.35-1.36-5.11.46-8.93,4-12.25a27,27,0,0,1,3.75-2.79c7.08-4.55,15-7.1,23.05-9.16a12.69,12.69,0,0,1,3.09-.19H665.22a15,15,0,0,1,3.71.31,86.42,86.42,0,0,1,19,7,33.25,33.25,0,0,1,7.24,4.83c3.74,3.39,5.45,7.36,4,12.55-1.1,4-1.71,8.12-2.5,12.19-.83,4.24-.46,4.65,3.94,4.52h.31c2.5-.12,2.75-.31,3.23-2.82,1.29-6.83,2.31-13.72,4-20.47a6.73,6.73,0,0,0-1.8-6.6,25.85,25.85,0,0,0-4-3.48,50.08,50.08,0,0,0-9.94-5.14,57.6,57.6,0,0,0-22.34-4.68C620.69,298.65,571.25,298.55,521.82,298.55Zm-146,140.32h5.3c2.29-.17,2.76-.65,2.44-2.91-.4-2.88-.95-5.73-1.45-8.59Q377,397.63,371.8,367.89c-1.05-6-2.08-12.06-3.16-18.08-.54-3-.81-3.16-3.9-3.19-2.59,0-5.19-.05-7.78,0-2.81.06-3.2.55-2.73,3.43,1.27,7.89,2.6,15.76,3.84,23.65q3.33,21.36,6.59,42.73c1,6.56,2,13.13,3,19.68.41,2.57.55,2.67,3.19,2.74C372.5,438.91,374.16,438.87,375.82,438.87ZM318.16,746c-.83-.82-1.81-.52-2.7-.52-25.1-.15-50.21.26-75.32-.39-7.57-.19-15.15-.05-22.72,0-2.77,0-3,.23-3,3s-.06,5.4-.08,8.1c0,3.27.22,3.59,3.49,3.59H296a7.09,7.09,0,0,0,3.61-.73,126.74,126.74,0,0,0,16.72-10.79C317.05,747.67,318.05,747.16,318.16,746Zm407.45.59c.24.89.84,1.17,1.31,1.56,4.41,3.66,9.4,6.45,14.24,9.47a14.89,14.89,0,0,0,8.24,2.24c25.42-.07,50.85,0,76.28,0,.83,0,1.66,0,2.49,0,2-.14,2.46-.51,2.23-2.45a71.64,71.64,0,0,1-.27-7.46c-.07-3.35-.25-3.52-3.54-3.57H826l-97.14,0A6.75,6.75,0,0,0,725.61,746.58ZM147.75,699.31c0,4.47,0,8.72,0,13,0,3.59,1.16,4.27,4.54,2.66a9.75,9.75,0,0,0,1.07-.64c1.31-.84,2.1-.14,2.8.92s1,2-.23,3c-1.78,1.3-3.54,2.55-5.92,2.42-1.53-.08-2.27.67-2.26,2.25,0,3.84,0,7.69,0,11.53,0,1.84.55,2.21,2.22,2.17a6.57,6.57,0,0,0,3.37-1.48c1.36-.86,2.08-.12,2.78.94s1.1,2-.2,2.94c-1.7,1.19-3.33,2.36-5.62,2.34s-2.53.26-2.57,2.81c-.05,2.91,0,5.81,0,8.72,0,3.19,1.43,4,4.35,2.53a9.94,9.94,0,0,0,1.32-.81c1.35-1,2.06-.13,2.74.91s1.1,2-.17,3c-1.77,1.33-3.58,2.47-6,2.24-1.29-.13-2.26.31-2.26,1.86,0,3.22,0,6.44,0,9.66,0,1.5.89,1.93,2.23,1.93a6.85,6.85,0,0,0,3.42-1.39c1.34-.8,2.1-.06,2.81,1s.92,2.06-.32,2.93c-1.88,1.32-3.7,2.75-6.21,2.46-1.54-.19-2,.6-2,2,0,3.11,0,6.23,0,9.34s1,3.85,3.93,2.71c.57-.22,1.07-.63,1.63-.9,1.49-.69,2-.44,3,1.1a1.84,1.84,0,0,1-.59,2.89c-1.62,1.13-3.2,2.2-5.34,2.29-2.47.1-2.56.31-2.62,2.8-.05,2,0,3.95,0,5.92,0,3.19,1,3.86,3.91,2.75.58-.22,1.08-.62,1.65-.88,1.48-.69,2-.44,3,1.09a1.85,1.85,0,0,1-.58,2.9c-1.63,1.13-3.22,2.17-5.35,2.25-2.44.09-2.55.32-2.61,2.82-.05,1.55,0,3.11,0,4.67,0,3.17,1,3.85,3.93,2.73.57-.22,1.08-.62,1.64-.88,1.47-.69,2-.43,3,1.11a1.85,1.85,0,0,1-.59,2.89,9.83,9.83,0,0,1-5.36,2.24c-2.42.09-2.53.34-2.6,2.83a14.59,14.59,0,0,0,0,1.87c.15,1.67.72,2.09,2.43,2,1.33,0,2.3-.89,3.4-1.44,1.29-.63,1.92.2,2.53,1.09s1.14,1.85,0,2.74c-1.63,1.29-3.26,2.53-5.51,2.61-2.88.12-2.87.19-2.89,2.93,0,.31,0,.62,0,.94.07,2.81,1.38,3.64,4,2.5a8.7,8.7,0,0,0,1.6-1c1.28-.94,2.06-.33,2.77.78,1,1.6,1,2.12-.3,3.16a8.5,8.5,0,0,1-5.68,2.16c-2.1-.07-2.28.28-2.37,2.34,0,.62,0,1.24,0,1.87,0,1.2.78,1.54,1.86,1.59,1.35,0,2.34-.71,3.43-1.32,1.66-.93,2.1-.81,3.08.63s1,2.09-.63,3.34a9.23,9.23,0,0,1-6,2.12c-1.59,0-1.9.9-1.77,3.26.08,1.43.69,2.07,2.11,2.08a6.55,6.55,0,0,0,3.21-1c1.72-.91,2.23-.67,3.26.92.93,1.41.3,2.22-.84,3.09a8.65,8.65,0,0,1-6.36,2c-.52-.05-1.12,0-1.17.72a.9.9,0,0,0,1,1c2.28,0,4.57,0,6.85,0,1,0,1.47-.66,1.53-1.62,0-.62,0-1.24,0-1.86q0-87.88,0-175.77c0-.78.26-1.63-.38-2.41-.55.73-.34,1.85-1.47,2.18C153,698,150.71,699.29,147.75,699.31ZM873.38,322.75h.38v-2.45q0-20.4,0-40.81c0-3.63.33-4,3.89-4,6.65,0,13.3.1,19.94,0a10.38,10.38,0,0,1,9.61,5.19A53.13,53.13,0,0,1,913,293.72c.83,2.56,1.89,5.12,1.92,7.84.1,7.58.07,15.16,0,22.74,0,2.32-.46,2.68-2.74,2.88-.72.06-1.45,0-2.18,0H877c-3.24,0-3.4.16-3,3.28,0,.41.17.81.21,1.23.16,1.67,1.11,2.33,2.74,2.22.82-.05,1.66,0,2.49,0l34.56-.4c2,0,3.95,0,5.92,0,.73,0,1.46,0,2.18-.06a1.91,1.91,0,0,0,2.06-2.18,26,26,0,0,0-.07-2.8c-.61-5.57-1.14-11.16-1.91-16.7a132.59,132.59,0,0,0-7.24-29.91c-2.08-5.34-4.53-10.49-8.73-14.59a14,14,0,0,0-6.4-3.69c-.71-.18-1.47-.47-2.07.12-1.35,1.34-3,1.15-4.69,1.15-7.27,0-14.54,0-21.81,0-2.71,0-3.1.45-2.93,3.13s.49,5.58.74,8.38q1.49,16.27,3,32.55C872.44,313.56,872.93,318.16,873.38,322.75Zm-704.31-1.47c.5-5.32,1-10.23,1.43-15.13q1.16-12.24,2.29-24.49c.45-4.75.92-9.5,1.32-14.25.16-1.94-.25-2.32-2.26-2.5-.41,0-.83,0-1.24,0-8.31,0-16.62.08-24.92,0a13.16,13.16,0,0,0-9.54,3.87,27,27,0,0,0-4.42,5.61c-3.56,5.82-5.73,12.2-7.51,18.73a186.54,186.54,0,0,0-5.06,27.85,75.77,75.77,0,0,0-.84,10.54c.06,2.05.37,2.36,2.32,2.52.62,0,1.24,0,1.87,0q20.25,0,40.49.09c5.75,0,4.57.21,5.46-5.43.18-1.1-.38-1.52-1.42-1.48-.62,0-1.25,0-1.87,0q-16.51,0-33,0c-4.55,0-4.63-.11-4.64-4.78,0-5.61,0-11.22,0-16.82-.05-9.37,3.4-17.63,8.15-25.44a9.51,9.51,0,0,1,8.9-4.69c6.54.1,13.08,0,19.62,0,4.37,0,4.53.17,4.54,4.58q0,18.84,0,37.69A8.63,8.63,0,0,0,169.07,321.28ZM869.73,450a4.32,4.32,0,0,0,.22-2.18q0-43.89,0-87.77c0-.63,0-1.25,0-1.87a1.85,1.85,0,0,0-2.15-2.05c-2.49,0-5,0-7.47,0a1.89,1.89,0,0,0-2.16,2.06c0,.51,0,1,0,1.55q0,42.94,0,85.9c0,3.51.24,3.67,3.69,3.78C864.45,449.5,867.14,449,869.73,450ZM107,666.27l-.59.14c0,.72,0,1.43,0,2.15.37,22.83.08,45.66.53,68.5.56,28.32,0,56.66.67,85,.28,11.42.08,22.84.11,34.26,0,6.13.08,12.25.11,18.37,0,1.38.53,2.13,2,2.14s2.09-.67,2.07-2.08c0-1,0-2.07,0-3.11V702.52q0-11.37,0-22.74a8.49,8.49,0,0,0-.39-3.68C110,672.81,108.51,669.54,107,666.27ZM873.58,802.19l.64-.42c0-2,0-3.92,0-5.88,0-8.1,0-16.2-.07-24.3,0-2.6-.1-2.69-2.52-2.87a29.26,29.26,0,0,1-6.67-1.48,198.14,198.14,0,0,1-19.66-7.83c-2.47-1.09-4.91-2.24-7.38-3.33s-2.73-1-2.73,1.89c0,2.7.13,5.4,0,8.1-.1,2.2.83,3.37,2.8,4.25,8.17,3.61,16.35,7.17,24.74,10.24a92.79,92.79,0,0,0,8.92,2.75,2.92,2.92,0,0,1,2.11,3.31c-.32,1.6-1.64,1.38-2.73,1.27a27.31,27.31,0,0,1-5.73-1.43c-9-3-17.64-6.73-26.29-10.53-1.08-.48-2.11-1.29-3.72-.91a26.14,26.14,0,0,1,.34,6.87,4.28,4.28,0,0,0,2.84,4.59c5.08,2.38,10,5,15.11,7.39a106.93,106.93,0,0,0,15,6.06C870.33,800.45,872.31,800.38,873.58,802.19ZM521,40H429.67c-.93,0-1.87,0-2.8,0-1.2,0-1.35.63-1,1.65.73,1.91,2.06,2.57,4.1,2.57,11.73.05,23.46.14,35.19.36,25.33.46,50.66.13,76,.62,23,.45,46.1.23,69.16.3a15.73,15.73,0,0,0,2.48-.11c1.2-.19,3.73-3.18,3.43-4.4-.47-1.92-2.24-.76-3.41-1a12.92,12.92,0,0,0-2.49,0ZM905.64,238l-.61-2.23c-6-21.41-12.6-42.62-19.5-63.74-9.18-28.14-19-56-29.38-83.77-3.41-9.15-7-18.23-10.47-27.35-.46-1.22-.94-2-2.47-1.41-1.91.76-2.24,1.14-1.72,2.94.43,1.49,1,3,1.49,4.43l36.84,104.92q11,31.45,22.07,62.9c.48,1.37,1,2.73,1.57,4.07a1.07,1.07,0,0,0,1.51.66C905.53,239.22,905.72,238.77,905.64,238ZM163.76,301.58c0-5.7,0-11.41,0-17.12,0-3.82-.17-4-4.1-4-4.87,0-9.76.13-14.63-.06A6.44,6.44,0,0,0,138.7,284a50.25,50.25,0,0,0-4.83,11.44c-.75,2.57-1.74,5.1-1.71,7.87.05,5.19,0,10.38,0,15.57,0,3.14.18,3.31,3.4,3.32q12.3,0,24.6,0c3.31,0,3.55-.25,3.57-3.53C163.78,313,163.76,307.29,163.76,301.58Zm715-.32c0,5.92,0,11.83,0,17.75,0,2.9.32,3.21,3.23,3.23q12.62,0,25.22,0c2.9,0,3.09-.24,3.11-3.3,0-4.46,0-8.93,0-13.39-.07-8.14-3.07-15.37-7.06-22.27a5.39,5.39,0,0,0-5.15-2.83c-5.29.1-10.59,0-15.88,0-3.21,0-3.46.31-3.48,3.66C878.71,289.84,878.73,295.55,878.73,301.26ZM5.19,241.19a2.11,2.11,0,0,0-.11.6,5.89,5.89,0,0,0,.19.91c1.82,6.9,6.59,11.34,12.45,14.87a16.35,16.35,0,0,0,7.58,2.56c7.66.45,15.31,1,23,1.55,3.42.23,6.83.43,10.25.64a2.8,2.8,0,0,0,3-1.24c1.34-2.28,3.53-3.43,5.84-4.45,8.35-3.71,16.91-6.9,25.37-10.34a12.71,12.71,0,0,1,4.9-.71h21.79c5.13,0,5.13,0,6.31-5.11.6-2.58.41-2.84-2.28-2.94-.72,0-1.45,0-2.18,0-3.84,0-7.68-.1-11.52,0-2.36.08-4-.62-4.85-2.94a37.8,37.8,0,0,0-2.06-4.19c-1.13-2.16-1.23-2.2-3-.37a99.64,99.64,0,0,1-14.29,12.47c-7.36,5.24-15.22,9.48-24.38,10.3a231.71,231.71,0,0,1-40.72,0c-6.59-.56-11.37-4.16-14.32-10.12C5.84,242.21,5.78,241.55,5.19,241.19ZM941,228.34A32.57,32.57,0,0,0,937.4,235a4,4,0,0,1-4.16,2.55c-4.25-.09-8.51,0-12.76,0-4.5,0-4.56.09-3.35,4.3,0,.1.06.2.09.3,1,3.38,1,3.44,4.47,3.45q11.52,0,23,0a12.11,12.11,0,0,1,4.6.56c9,3.65,18.22,7,27.08,11.09a8.62,8.62,0,0,1,4.1,3.22,3.61,3.61,0,0,0,3.91,1.88c.92-.1,1.86-.05,2.79-.12,9.11-.6,18.22-1.19,27.32-1.85,2.27-.16,4.62-.1,6.73-1a30.65,30.65,0,0,0,13.06-10.26,15.62,15.62,0,0,0,2.91-7.79,5.67,5.67,0,0,0-.8,1.33c-3.19,6.59-8.56,10-15.77,10.45-5.27.34-10.57.43-15.85.62-6.86.24-13.69-.38-20.53-.56A39.55,39.55,0,0,1,971,250.29C963.5,247.4,957,243,951,237.85A109.62,109.62,0,0,1,941,228.34ZM73.47,530.63a5.69,5.69,0,0,0-.49,1,183.21,183.21,0,0,0-3.1,30c-.22,12.34-.15,24.69-.19,37,0,4.57,0,9.14,0,13.7,0,2.44.34,2.63,2.48,1.8q6.11-2.34,12.19-4.71c2.7-1.05,2.78-1.22,2-4.17q-2-7-3.91-14.09c-.27-1-.78-2.05-.06-3,.89-1.15.58-2.32.37-3.56q-4-23.92-8-47.87A24.67,24.67,0,0,0,73.47,530.63Zm552.21,43a10.63,10.63,0,0,0-8.85-3.78c-13.28.24-26.56.12-39.85.37-20.54.39-41.11.08-61.66.18q-40.65.2-81.29-.1c-3.63,0-7.25-.38-10.88-.45a8.05,8.05,0,0,0-7.41,3.67C418.17,574.19,622,574.33,625.68,573.62ZM148,694.51c-2.46,0-4.42,0-6.38,0-2.84,0-2.84,0-2.84,3V870.74c0,1.35.06,2.7,0,4s.41,2.11,1.93,2.05c1.82-.07,2.22-.33,2.36-2.1.08-1,0-2.07,0-3.11v-171c0-4.45,0-4.45,4.18-5.41C147.35,695.17,147.42,695.06,148,694.51Zm-11.11-456.8c-.2.88-.25,1.52.49,1.83.92.37,1.34-.28,1.66-1a18.21,18.21,0,0,0,.65-1.74q15.36-44.1,30.7-88.21l28.86-82.9c.45-1.28.86-2.56,1.27-3.84a1.38,1.38,0,0,0-.89-2c-.94-.34-1.32.29-1.63,1-.22.47-.4,1-.59,1.44q-1.77,4.48-3.53,9c-11.9,30.23-23,60.76-33.46,91.5q-11.19,32.87-21,66.16C138.55,232,137.7,235,136.91,237.71ZM901.72,786.33h0v84.72c0,1.25,0,2.49,0,3.74s.12,2,1.62,2.05c1.84,0,2.47-.29,2.65-1.79a17.43,17.43,0,0,0,0-2.17V699.7a17.23,17.23,0,0,0-.1-2.49c-.23-1.61-1.52-1.4-2.65-1.43s-1.63.66-1.56,1.78c0,.42,0,.83,0,1.25ZM162,785.65v86.6a32.29,32.29,0,0,0,.14,3.41c.09.89.8,1.12,1.6,1.13s1.28-.52,1.26-1.38c0-.32,0-.63,0-.94.24-8.61.27-17.23.35-25.83.31-33.43.24-66.86.7-100.29.22-16.09.13-32.18.19-48.28,0-1.35.06-2.69.08-4a1.3,1.3,0,0,0-.92-1.44c-1.9-.61-3.24.26-3.37,2.28-.06.93,0,1.87,0,2.8Zm48.32-78.94h0c0-2.18.07-4.36,0-6.54-.08-1.65-.56-2-2.2-1.7-.92.15-1.81.44-2.72.67l-24.66,6.53c-2.41.64-4.8,1.32-7.22,1.93-1.34.34-2.3,1-2.3,2.5,0,4.36-.18,8.71-.41,13.06-.1,2,.26,2.16,2.24,1.68,3.33-.8,6.63-1.72,9.94-2.59,8.12-2.14,16.25-4.26,24.37-6.42,2.84-.76,2.89-.85,2.93-3.83C210.37,710.24,210.35,708.47,210.35,706.71ZM873.6,716.93c0-1.66,0-3.32,0-5,0-3.66,0-3.7-3.58-4.65-9-2.41-18-4.77-27.08-7.15-2.31-.6-4.6-1.29-6.92-1.82-1.74-.39-2.17-.08-1.94,1.68.5,3.94.23,7.88.39,11.82.13,3.2.2,3.33,3.41,4.18l25.57,6.76c2.41.64,4.81,1.31,7.23,1.92,2.7.67,2.88.53,2.92-2.16C873.63,720.66,873.6,718.8,873.6,716.93Zm8.9,70h0V701c0-1.14,0-2.28-.08-3.42s-.9-1.76-2.11-1.76-2,.44-2,1.77c0,.93-.07,1.86,0,2.8.24,8.92.21,17.85.35,26.77.46,29.69.07,59.38.66,89.07.38,18.89.17,37.8.23,56.7a23.59,23.59,0,0,0,.14,2.79c.12.89.84,1.09,1.63,1.1s1.3-.49,1.29-1.36c0-.52,0-1,0-1.56Q882.49,830.42,882.5,787ZM234.16,30c1.86,0,3.73,0,5.6,0a6.94,6.94,0,0,0,7.29-6.78c.18-2.2-.37-4.37-3.65-4.63-4.46-.36-8.93,0-13.37-.47a17.36,17.36,0,0,0-12.24,3.62,47.7,47.7,0,0,0-7,6.12,117.51,117.51,0,0,0-14.9,19.9c-.43.72-.84,1.44-1.26,2.15a1.15,1.15,0,0,0,.51,1.81c1.71,1,3.41,2,5.13,2.93a1.4,1.4,0,0,0,2.26-.75c.23-.58.46-1.16.71-1.73a43.67,43.67,0,0,1,14.54-17.92c4-2.84,8.2-4.87,13.29-4.27A25,25,0,0,0,234.16,30ZM811.31,19.57c-4.36-.29-8.17.42-12,.41-1.14,0-2.29.07-3,1.29-2,3.62,1.49,9.89,5.65,10s8.1.07,12.15,0a13.11,13.11,0,0,1,6.28,1.51c8,4,13.73,10.25,18,18,.77,1.43.89,3.65,2.48,4.11s3.26-1,4.89-1.65a4.11,4.11,0,0,0,.56-.27c2.21-1.1,2.31-1.2,1.1-3.2-5.14-8.46-10.79-16.53-18.12-23.27C824.07,21.66,818.41,18,811.31,19.57Zm-689,232.13a.89.89,0,0,0-.71-.9,10.33,10.33,0,0,0-2.15-.23c-7.47,0-14.93,0-22.4,0a9.41,9.41,0,0,0-3.37.5c-8.53,3.24-17,6.6-25.35,10.31-1.19.52-2.91,1.12-2.44,2.71.42,1.41,2.15.87,3.33.87,12.65,0,25.3,0,38,0a11.28,11.28,0,0,1,4,.29c1.27.47,1.9-.09,2.52-1.07a112,112,0,0,1,7.77-10.88A2.6,2.6,0,0,0,122.26,251.7ZM953.53,265H972.2c.93,0,1.87,0,2.8,0,.72,0,1.54-.05,1.74-.95a1.66,1.66,0,0,0-1-1.76,25.84,25.84,0,0,0-3.31-1.7q-11.24-4.57-22.5-9.08a8.84,8.84,0,0,0-3.3-.84q-12.12,0-24.26,0c-.71,0-1.54-.08-2,.67-.53.95.26,1.56.75,2.17A91.3,91.3,0,0,1,928,263c1.06,1.71,2,3.09,4.37,2.08a7.47,7.47,0,0,1,2.77-.12ZM184.39,299.6q0-14.94,0-29.88c0-.94,0-1.87-.06-2.8-.08-1.42-.93-2-2.28-2-1.93,0-2.92.92-3.19,3.42-.67,6.29-1.25,12.59-1.85,18.88q-1.48,15.79-2.95,31.59c-.4,4.34-.73,8.68-1.16,13-.12,1.22.08,2.14,1.48,2.17,2.69.06,5.39.05,8.09,0,1.26,0,1.82-.84,1.87-2,0-.94,0-1.87,0-2.8Q184.41,314.39,184.39,299.6ZM873.68,737.46h0c0-1.24,0-2.48,0-3.73,0-3.37-.05-3.39-3.23-4.23l-18.63-5c-4.51-1.19-9-2.38-13.53-3.55-3.71-1-3.72-1-3.73,3,0,2.49,0,5,.06,7.46,0,3.14,0,3.15,3.13,4q10.82,2.88,21.64,5.73c3.91,1,7.81,2.11,11.73,3.08,2,.51,2.43.23,2.53-1.81C873.75,740.79,873.68,739.12,873.68,737.46Zm-663.8-10h.06c0-1.56.05-3.11,0-4.66-.09-2.5-.32-2.68-2.81-2-6.82,1.77-13.62,3.59-20.43,5.39-4.51,1.2-9,2.44-13.52,3.57a2.69,2.69,0,0,0-2.37,3.05c.08,3.21,0,6.43,0,9.64,0,2,.4,2.34,2.47,1.82,4.13-1,8.22-2.14,12.33-3.23q10.66-2.82,21.33-5.65c2.78-.74,2.88-.91,2.93-3.86C209.9,730.19,209.88,728.85,209.88,727.5ZM858.09,299.57v26.79c0,1.76,0,3.53,0,5.29a2,2,0,0,0,2.28,2.28c1.87,0,3.74,0,5.61,0,3.18,0,3.44-.23,3.21-3.4-.4-5.38-.93-10.75-1.42-16.13q-1.45-16-2.94-31.92c-.45-5-.85-9.93-1.33-14.88-.21-2.11-1-2.76-3-2.67-1.82.08-2.27.61-2.39,2.86,0,.73,0,1.46,0,2.18ZM209.24,755.5a2.06,2.06,0,0,0-1.72.26c-6.29,2.74-12.52,5.59-18.86,8.19-5.09,2.07-10.2,4.2-15.75,4.74-1.57.15-2.24.81-2.23,2.33,0,4.35,0,8.7,0,13.18,1-.36,1.82-.8,2.71-1,11.82-3.07,22.78-8.39,33.94-13.17a2.87,2.87,0,0,0,1.91-2.9C209.22,763.28,209.24,759.45,209.24,755.5ZM859.32,258.32c-.05-.36-.11-1-.22-1.59-.76-4.51-1.55-9-2.3-13.51l-13.38-80.15L829.89,82q-1.11-6.6-2.27-13.19c-.12-.68-.15-1.61-1.15-1.57A1.71,1.71,0,0,0,824.63,69a12.19,12.19,0,0,0,.18,2.48c.33,2,.73,4.08,1.08,6.13q9.35,53.84,18.67,107.67,6.2,35.75,12.4,71.48a5.34,5.34,0,0,0,.63,2.38,1.07,1.07,0,0,0,1.32.53C859.38,259.44,859.38,259,859.32,258.32ZM975.2,684.81v-5c-.05-3.21-.14-3.43-3.41-4.07-8.69-1.7-17.51-1.9-26.33-1.88-2,0-2.35.43-2.4,2.43-.08,3.32,0,6.64,0,10,0,3.48,0,3.45,3.38,3.66,5.18.33,10.34.76,15.52,1.1,3.52.22,7,.69,10.49,1.26,2.69.43,2.74.35,2.78-2.5C975.22,688.13,975.2,686.47,975.2,684.81ZM93.05,673.88c-4.47-.12-8.9.57-13.35.81A37.06,37.06,0,0,0,72,675.92a2.82,2.82,0,0,0-2.42,2.77,111,111,0,0,0-.38,11.81c.06,2,.2,2.17,2.19,1.88,3.38-.5,6.76-1,10.18-1.27,5.79-.38,11.58-.83,17.37-1.2,1.43-.09,2.47-.48,2.47-2.11q0-5.91,0-11.83a1.92,1.92,0,0,0-2.17-2.08C97.2,673.87,95.12,673.88,93.05,673.88ZM102,720.6h0c0-1.87,0-3.73,0-5.6s-.23-2.12-2.21-2c-3.52.24-7,.49-10.54.85q-8.5.87-17,1.9c-2.63.32-2.93.71-3,3.38,0,3.11,0,6.22,0,9.33.05,2.3.31,2.52,2.52,2.55.72,0,1.45,0,2.17-.1l15.5-1.18c3.1-.23,6.2-.41,9.29-.71,2.82-.27,3.17-.68,3.23-3.45C102,723.92,102,722.26,102,720.6Zm77-186.46v12.77c0,.83,0,1.66.08,2.49a1.28,1.28,0,0,0,1.1,1.32c2.88.33,4.38.34,4.32-3-.11-7,0-13.92-.07-20.87a32.16,32.16,0,0,0-.3-4,263.7,263.7,0,0,1-2.24-27.92c-.3-10.91-.19-21.8,2.31-32.53a18.67,18.67,0,0,0,.24-5.28c-.1-2.18-.55-2.62-2.53-2.72-2.18-.11-2.78.32-3.23,2.42a12.55,12.55,0,0,0-.27,1.84c-.62,10.36-1.57,20.71-1.5,31.1.06,7.89-.7,15.86.92,23.62C179.19,520.3,178.75,527.21,178.92,534.14Zm-8.13,231.57c1.45-1.73,3.06-1.68,4.5-2.14,2.08-.67,4.15-1.32,6.21-2,1-.34,1.47-1.55,2.6-1.6,3-.13,5.48-1.79,8.16-2.75,5.35-1.92,10.45-4.54,15.66-6.88.88-.39,1.72-.86,1.74-2,.06-2.38.08-4.77.09-7.15,0-.89-.45-1.37-1.38-1.2-.61.11-1.22.25-1.82.41q-9.93,2.63-19.85,5.25c-4.51,1.2-9,2.44-13.53,3.63-1.3.34-2.37.82-2.37,2.4C170.79,756.12,170.79,760.56,170.79,765.71ZM217.84,70.37a5.76,5.76,0,0,0-.09-1A1.73,1.73,0,0,0,215.92,68c-.82,0-.78.82-.89,1.41-.05.31-.08.62-.13.93q-3,17.81-6.06,35.61-6.39,37.93-12.76,75.86-6.3,37.32-12.65,74.61a13,13,0,0,0-.18,1.86c0,.53.09,1.1.71,1.23a1,1,0,0,0,1.14-.81,17,17,0,0,0,.44-2.12q3.27-18.72,6.52-37.43,6-34.68,12-69.35,6.18-35.59,12.33-71.2C216.91,75.8,217.38,73,217.84,70.37Zm725,650.23c0,1.66,0,3.32,0,5,.07,2.75.53,3.25,3.24,3.49,2.38.2,4.76.3,7.14.48,6.31.48,12.61,1,18.92,1.43,2.72.18,3-.2,3.1-2.94s0-5.61,0-8.41c0-3.28-.24-3.55-3.42-4-5.15-.63-10.29-1.24-15.45-1.76-3.72-.38-7.44-.63-11.17-.85-2.1-.12-2.29.11-2.37,2.24C942.82,717.07,942.87,718.84,942.87,720.6Zm-69.11,44c0-4.13,0-7.94,0-11.75,0-2.87-.22-3.1-3-3.84q-9.9-2.65-19.82-5.26c-4.4-1.17-8.8-2.36-13.22-3.46-2-.49-2.53-.08-2.63,1.85s0,3.73,0,5.59a2.52,2.52,0,0,0,1.56,2.47c5.86,2.61,11.51,5.69,17.66,7.61,2.44.76,5.11,1.41,7.16,2.64C865.27,762.76,869.38,763.29,873.76,764.65Zm75.75-14.11v-.09c5-.27,9.93-.49,14.9-.8,2.79-.18,5.58-.42,8.35-.8,2.06-.29,2.43-.79,2.5-2.86.08-2.27.07-4.56,0-6.84-.06-2.92-.45-3.25-3.5-3.47-5-.37-9.92-.79-14.87-1.16-3.93-.28-7.86-.58-11.79-.75-2.23-.09-2.6.27-2.63,2.42-.06,4.15,0,8.3,0,12.44,0,1.52.66,2,2.09,1.93C946.19,750.48,947.85,750.54,949.51,750.54ZM102,742.14h0c0-1.66,0-3.32,0-5-.05-3.27-.28-3.57-3.62-3.36-6.5.42-13,1-19.5,1.45-2.38.18-4.76.28-7.12.52-2,.22-2.49.72-2.56,2.76s0,4.35,0,6.53c0,3.28.36,3.7,3.69,4q9.14.71,18.27,1.27c2.69.16,5.39.21,8.08.19,2.28,0,2.67-.43,2.76-2.75C102.09,745.87,102,744,102,742.14Zm-32.42-77.5c0,1.14,0,2.28,0,3.41.08,3,.39,3.24,3.26,2.78a118.19,118.19,0,0,1,16.38-1.52c3.2-.08,6.41-.27,9.61-.47,2.09-.13,2.41-.49,2.52-2.7.08-1.55,0-3.1.08-4.66,0-1,.23-1.91,1.4-2.12,1.33-.23,1.36-1,1-2.06a26,26,0,0,0-1.22-3.51c-1.07-2-1.27-3.14-4-1.89a6.8,6.8,0,0,1-1.53.27c-8,1.54-16.11,2.88-24,5.23-3.46,1-3.55,1.25-3.59,4.75C69.61,663,69.62,663.81,69.62,664.64ZM134,228.71l.52.13c.22-.68.46-1.35.67-2,2.14-7.05,4.24-14.11,6.42-21.15,12.05-38.87,25.48-77.26,39.91-115.31,3.94-10.38,8.05-20.7,12.1-31,.48-1.23.94-2.49-.6-3.21s-1.82.83-2.29,1.74c-2.39,4.62-4.33,9.44-6.26,14.25-7.59,18.88-14.18,38.12-20.51,57.46C154.73,157.65,146.24,186,138,214.39,136.63,219.15,135.31,223.93,134,228.71ZM90,769.05c3.11,0,6.22.05,9.34,0,2.35-.06,2.68-.39,2.74-2.76.07-2.7.08-5.4,0-8.1-.07-2.19-.41-2.51-2.56-2.66-3.42-.23-6.84-.35-10.26-.59-6-.41-12-.83-18-1.32-1.49-.12-2.09.37-2.05,1.87.06,2.39,0,4.78,0,7.17,0,4.64.29,5,4.94,5.66.41.06.83.07,1.24.12A104.85,104.85,0,0,0,90,769.05Zm864.56,0v0c2.7,0,5.4.11,8.09,0a54.66,54.66,0,0,0,10.18-1.23,2.78,2.78,0,0,0,2.46-3c-.06-3,0-6,0-9,0-2-.22-2.13-2.22-2-3,.18-6,.49-9,.68-6.42.41-12.84.76-19.26,1.17-2,.13-2.31.45-2.37,2.48q-.1,4.2,0,8.4c.05,2.35.32,2.6,2.8,2.64C948.34,769.1,951.46,769.06,954.57,769.06ZM171.31,801.47c1.74-1.21,4-1.16,6-1.89,10.37-3.73,20.19-8.68,30-13.66a3,3,0,0,0,1.83-3c0-2.07,0-4.15,0-6.22s-.27-2.15-2.22-1.33c-4.3,1.8-8.56,3.73-12.88,5.49-7,2.84-13.94,6-21.51,7.11a2,2,0,0,0-1.91,2.34q0,5,0,10A1.19,1.19,0,0,0,171.31,801.47ZM69.22,704.37v4c.11,2.54.46,2.9,3,2.55,5.74-.81,11.5-1.38,17.28-1.86,3.4-.29,6.79-.7,10.19-1,1.3-.12,2.18-.57,2.17-2.05,0-3.2,0-6.41,0-9.62,0-1.32-.74-1.85-2-1.81-.52,0-1,0-1.55,0-5.27.37-10.53.7-15.79,1.15a78.17,78.17,0,0,0-10.77,1.4c-2.29.51-2.48.8-2.55,3.14C69.19,701.67,69.22,703,69.22,704.37Zm906.06,0h0c0-1.24,0-2.49,0-3.73-.07-2.66-.36-3.06-2.9-3.53-8.89-1.61-17.92-1.77-26.9-2.46-2.1-.17-2.46.29-2.52,2.55-.07,2.59-.06,5.18,0,7.77s.14,2.89,3,3.21c5.24.59,10.51,1,15.76,1.59,3.6.37,7.19.86,10.8,1.24,2.17.22,2.61-.16,2.73-2.29C975.34,707.25,975.28,705.79,975.28,704.34ZM170.12,811.5h.07v1.87c0,3.66.48,4.07,4.23,3.51A45.42,45.42,0,0,0,184.88,814c7.37-3,13.74-7.55,20.07-12.28,3.56-2.65,3.91-6,4.07-9.78,0-1-.55-1.27-1.43-.89-.66.29-1.3.63-2,1-7.13,3.56-14.26,7.14-21.68,10.1-3.74,1.49-7.47,3.15-11.61,3.16-1.38,0-1.85.71-2,1.86C170.26,808.61,170.21,810.05,170.12,811.5Zm704.19-.43h-.1c0-1.35,0-2.7,0-4,0-1.11-.33-1.77-1.61-1.72-3.63.14-6.93-1.19-10.21-2.48-8-3.16-15.77-6.92-23.47-10.78-3.06-1.54-3.24-1.41-3.16,2,0,.72.09,1.45.06,2.17a3.85,3.85,0,0,0,1.46,3.27c7.07,6.2,14.68,11.54,23.53,14.94a41.61,41.61,0,0,0,9.94,2.48c3,.37,3.5-.09,3.56-3C874.33,812.94,874.31,812,874.31,811.07ZM69.62,645.9c0,1.24,0,2.48,0,3.73,0,3.51.25,3.68,3.53,2.82C78.26,651.11,83.41,650,88.6,649c3-.57,5.91-1.07,8.86-1.64,1.12-.22,1.93-.7,1.43-2.14-1.41-4-2.76-8-4.13-12a1.71,1.71,0,0,0-2.4-1.24c-1.89.57-3.79,1.05-5.69,1.59q-7.19,2-14.21,4.52c-2,.71-3.07,1.93-2.86,4.17C69.72,643.4,69.62,644.65,69.62,645.9ZM87.41,786.48c4.08.23,8.31-.29,12.56-.54,2.25-.13,2.47-.38,2.53-2.62s.08-4.36,0-6.53c-.14-2.59-.63-3.07-3.24-3-3,0-6,.54-9,.3-6.4-.51-12.89,0-19.2-1.55-1.45-.36-1.84.32-1.82,1.63,0,2.08,0,4.15,0,6.23,0,4.11,0,4.12,4.08,5.11.8.19,1.62.31,2.44.42A67,67,0,0,0,87.41,786.48Zm870.16,0c1.58,0,3.66.14,5.72,0,3.18-.27,6.41-.33,9.5-1.35,1.54-.5,2.48-1.36,2.45-3.11,0-2.38.09-4.77,0-7.15-.07-2.07-.49-2.41-2.44-2.13a122.86,122.86,0,0,1-25.06,1.07,26.15,26.15,0,0,0-2.8,0c-2.25.1-2.55.33-2.62,2.5-.08,2.38-.08,4.77,0,7.15.08,2.12.4,2.41,2.64,2.57A98.11,98.11,0,0,0,957.57,786.45ZM102.57,798h-.07v-5.6c0-1.32-.63-1.84-2-1.68a36.34,36.34,0,0,1-4,.26c-8.17.06-16.37.74-24.48-.92-1.73-.35-2.23.13-2.36,1.94-.1,1.34,0,2.69,0,4A3,3,0,0,0,72,799.3,64.82,64.82,0,0,0,80,801.55C86.63,803,93.28,804,100,804.94c2.18.31,2.52,0,2.61-2.24C102.62,801.15,102.57,799.59,102.57,798Zm852.57-7.23c-3.52,0-7,0-10.56,0-1.89,0-2.18.08-2.25,2-.11,3.31-.12,6.63-.05,9.95.05,2,.53,2.45,2.45,2.17,8.71-1.29,17.43-2.49,25.92-4.94,4.38-1.26,4.54-1.53,4.55-6,0-.83,0-1.66,0-2.49-.11-1.79-.27-2-2.11-1.58C967.15,791.35,961.14,791.16,955.14,790.81ZM865.66,492.87c.18-11.44-.81-22.82-1.51-34.22a22.88,22.88,0,0,0-.39-2.46c-.25-1.41-1.18-1.83-2.49-1.73s-1.78.9-1.82,2.09a22.39,22.39,0,0,0,.4,5.88,102.6,102.6,0,0,1,2.28,18.51c.24,5,.09,9.94,0,14.92-.22,9.36-1.15,18.65-2.21,27.93-.94,8.29-.28,16.6-.45,24.9,0,1.35.55,2.15,2,2.13s2-.4,2.07-2.36c.06-1.55,0-3.11,0-4.67.36-10.45-.89-20.94,1.29-31.34C866.22,506,865.55,499.4,865.66,492.87Zm24-143.29c3.94,0,7.88,0,11.82,0a19.26,19.26,0,0,0,6.38-1.22,3.41,3.41,0,0,0,2.42-2.94,3.59,3.59,0,0,0-1.87-3.66,17.42,17.42,0,0,0-9.89-3.25l-17.1.09c-1.56,0-3.11,0-4.67,0s-2.25.76-2.23,2.3c0,1.86,0,3.73,0,5.59.06,2.8.26,3,3,3.07C881.53,349.61,885.57,349.58,889.61,349.58Zm14.62-90.14c5.85,3.83,9.69,9,12.6,15,1.26,2.6,2.33,5.31,3.35,8,1.31,3.46,1.25,3.49,5.08,3.49,2.7,0,5.39,0,8.08,0,.68,0,1.48.24,2.14-.88-5.39-10.13-11.1-20.25-18.71-29.43-1.28,4.21-.33,3.67-4.8,3.81C909.39,259.51,906.81,259.44,904.23,259.44ZM152.37,349.58h0c4.14,0,8.29.05,12.43,0,2.35,0,2.65-.38,2.74-2.75.07-1.66.07-3.32,0-5-.1-2.25-.52-2.64-2.83-2.75-7.24-.34-14.49-.56-21.74-.41a16,16,0,0,0-8.94,3.17,3.57,3.57,0,0,0-1.75,3.71,3.61,3.61,0,0,0,2.81,3,20.37,20.37,0,0,0,6.1,1.07C144.91,349.55,148.64,349.58,152.37,349.58ZM905.64,220.65a3.53,3.53,0,0,0-.16-2.67c-2.06-7.08-4.1-14.16-6.18-21.23-10.75-36.56-21.95-73-35.09-108.77-3.58-9.75-7.34-19.42-11.8-28.81-.45-1-.62-3-2.23-2.28-1.29.57-.14,2.06.23,3,2.23,5.93,4.55,11.82,6.79,17.74,16,42.16,30.69,84.73,43.86,127.84C902.54,210.37,904,215.23,905.64,220.65Zm69.55,588c0-.84,0-1.67,0-2.5-.11-2.37-.26-2.53-2.63-1.77a101.17,101.17,0,0,1-10.28,2.48c-5.8,1.19-11.65,2.07-17.5,2.87-1.79.25-2.49,1-2.61,2.76a46,46,0,0,0-.3,6.21c.11,1.81.51,2.16,2.35,1.93,2.58-.32,5.14-.72,7.69-1.15,6.24-1.07,12.5-2.09,18.49-4.21C975,813.63,975.13,813.39,975.19,808.64Zm-872.57,6.77h0v-1.56c0-3.65,0-3.66-3.62-4.2a235.29,235.29,0,0,1-23.87-4.42c-5.54-1.43-5.4-1.44-5.53,4.39A4.74,4.74,0,0,0,73,814.77a69.25,69.25,0,0,0,10.16,2.91c5.59,1.22,11.23,2.08,16.88,2.86,2.15.3,2.51-.07,2.57-2.33C102.65,817.28,102.62,816.34,102.62,815.41Zm105.7-9.88a6.18,6.18,0,0,0-2.83,1.69c-10,7.58-20.55,13.76-33.48,14.52-1.33.07-1.8.82-1.8,2,0,1.56,0,3.12,0,4.68,0,2.71.45,3.12,3.1,2.79a41.14,41.14,0,0,0,12.23-3.47,86.15,86.15,0,0,0,20.1-13.5C208.43,811.84,209.21,809.14,208.32,805.53Zm627.81,0c-.61,3.3-.64,6.32,2.64,8.44a22.59,22.59,0,0,1,2.35,2c7.27,6.16,15.06,11.41,24.35,14.07a32.12,32.12,0,0,0,6.42,1.19c1.82.15,2.27-.26,2.38-2a48.65,48.65,0,0,0,0-5c-.09-2.17-.31-2.4-2.62-2.54a39,39,0,0,1-7.36-1.23c-9.55-2.43-17.72-7.49-25.42-13.45C838.11,806.43,837.52,805.43,836.13,805.53ZM69.69,626c0,2,0,3.7,0,5.36.09,2.23.34,2.41,2.41,1.77,2.28-.7,4.52-1.54,6.8-2.24,3.67-1.12,7.37-2.15,11-3.26,2.71-.82,2.76-1,1.92-3.74s-1.6-5.37-2.46-8c-.8-2.46-1.21-2.69-3.59-1.83-3.51,1.27-7,2.65-10.47,4-1.82.71-4.22,1-5.28,2.29C68.88,621.78,69.83,624.28,69.69,626ZM208.34,818.79c-.32,0-.45-.08-.51,0-.58.42-1.16.85-1.71,1.31-10,8.23-20.67,15-34,16-1.25.09-1.91.68-1.91,1.94,0,1.45-.08,2.91,0,4.35.11,1.81.51,2.14,2.36,1.9a35.69,35.69,0,0,0,8.43-2.06c9.2-3.58,17.11-9.16,24.78-15.27C208.72,824.52,208.71,821.88,208.34,818.79Zm628.26.33c-.67,3.11-.37,5.57,2.2,7.64,6.07,4.9,12.3,9.54,19.31,13a39.19,39.19,0,0,0,13.85,4.4c1.9.17,2.23,0,2.38-1.88a27.88,27.88,0,0,0,0-3.42c-.1-2.42-.29-2.63-2.68-2.86a45.59,45.59,0,0,1-14.91-4.1,80,80,0,0,1-17-10.83A6.68,6.68,0,0,0,836.6,819.12Zm-702.77,20c0-.51,0-1,0-1.55,0-.21,0-.41,0-.62-.16-1.83-.37-2.06-2.06-1.48a13.31,13.31,0,0,1-4.6.46c-1.35,0-2.14-.61-2.19-2.05,0-.82,0-1.72-.75-2.26a8.75,8.75,0,0,0-5.45-2c-1.34.07-2.17.56-2.16,2,0,1.76,0,3.52,0,5.28a1.73,1.73,0,0,0,1.9,2c2.2,0,3.92,1.25,5.69,2.28,1.54.9,1.65,1.51.86,3s-1.35,1.76-3,1.08a11.93,11.93,0,0,0-3.15-1.26c-.74-.08-1.62-.15-2,.6a7.26,7.26,0,0,0-.12,5.15c.39,1.22,1.75.74,2.73.91,3,.53,6.14,1,7.51,4.39a1.28,1.28,0,0,0,.64.59c2.49,1,6.33-2,6-4.76-.11-1.16-.55-1.83-1.78-1.27a9.5,9.5,0,0,1-4.88.6c-1.72-.15-2.17-.71-2.15-2.37s.4-2,2.59-2.23C132.48,845.19,133.83,843.78,133.83,839.15Zm808-9.47v.93c0,3.18.06,3.23,3.12,2.73A227.15,227.15,0,0,0,970.24,828c4.46-1.25,4.86-1.85,4.89-6.55,0-.31,0-.62,0-.93-.13-1.59-.38-1.81-2-1.24-9.14,3.35-18.73,4.6-28.27,6.05-3,.46-3,.43-3,3.42Zm-30.88,5a14.7,14.7,0,0,0-.33,4.77c0,4,1.6,5.76,5.61,6.21a10.28,10.28,0,0,0,1.24,0,2,2,0,0,1,2.32,2.23c0,1.67-.57,2.2-2.48,2.42a12.73,12.73,0,0,1-6.27-1.26c-.88,4.16-.28,5.25,3.38,6.45,1.82.59,2.28.44,3.32-1.37a3.53,3.53,0,0,1,1.33-1.25c2-1.18,3.91-2.26,6.36-2.24,2.08,0,2.32-.36,2.46-2.35a13.23,13.23,0,0,0,0-2.18c-.19-1.8-1-2.42-2.7-1.94a25.93,25.93,0,0,0-3.12,1.37c-1.52.64-2-.52-2.58-1.52s-.71-2,.51-2.63c1.92-1,3.72-2.3,6-2.46a1.83,1.83,0,0,0,1.88-2c0-1.77,0-3.53,0-5.29a1.78,1.78,0,0,0-1.65-1.91c-2.68-.48-5.86,1.4-6.31,4-.3,1.73-1.2,2.16-2.76,2.24A12.15,12.15,0,0,1,911,834.66ZM102.67,830c0-.42,0-.83,0-1.25-.07-3-.07-3-3.12-3.42q-1.85-.25-3.69-.54c-7.28-1.14-14.6-2.19-21.59-4.54-4.78-1.61-4.66-2.18-4.56,3.61,0,.31,0,.62.06.93a2.24,2.24,0,0,0,1.56,2.12c1.17.43,2.33.87,3.53,1.21a232.53,232.53,0,0,0,24.64,5.22c3,.52,3.11.4,3.17-2.72C102.68,830.39,102.67,830.18,102.67,830Zm839.11,12.4c0,.62,0,1.25,0,1.87.09,2.31.3,2.53,2.6,2a262.82,262.82,0,0,0,26.24-7.56,14.94,14.94,0,0,0,2.81-1.3c1.14-.71,1.72-3.09,1.08-4.51-.74-1.62-2-.57-2.94-.31a255.25,255.25,0,0,1-26.09,5.54C941.78,838.7,941.78,838.71,941.78,842.38Zm-839,.41c0-4.16,0-4.16-4.23-4.84a238.47,238.47,0,0,1-25.79-5.51,18.32,18.32,0,0,0-1.81-.43.86.86,0,0,0-.94.63,4.18,4.18,0,0,0,1.78,5.05,26.52,26.52,0,0,0,2.88,1.14c7.91,2.8,16,5,24.13,7C102.73,846.88,102.74,846.87,102.74,842.79Zm734.06-.62a3.72,3.72,0,0,0,1.57,4.71c1,.72,2,1.54,3,2.28,8.22,6.07,16.89,11.32,26.72,14.4a29.5,29.5,0,0,0,5.16,1.12c.54.06,1.16.05,1.34-.49a6.75,6.75,0,0,0,0-4c-.32-1.11-1.42-1-2.33-1.19a58.44,58.44,0,0,1-12.82-3.71,95.65,95.65,0,0,1-20.32-12C838.46,842.86,838,842.07,836.8,842.17Zm-629.08.16c-1.18-.05-1.72.66-2.38,1.12-2.57,1.76-5.08,3.61-7.7,5.29-7.57,4.85-15.61,8.71-24.57,10.12-3.22.51-3,1.57-3,3.92,0,1.43.52,2.11,2.09,1.83a43.11,43.11,0,0,0,6.91-1.82c10.1-3.61,18.88-9.46,27.3-15.95A3.71,3.71,0,0,0,207.72,842.33Zm.06-10.48c-1-.14-1.43.59-2,1-2.52,1.82-5,3.75-7.54,5.48-8,5.35-16.4,9.72-26.17,10.78-1.72.19-2.13,1-2,3.16.1,1.77.58,2.26,2.33,2a44.08,44.08,0,0,0,7.8-2,85.28,85.28,0,0,0,22.41-12.59c1.4-1.06,2.75-2.2,4.07-3.36A3.71,3.71,0,0,0,207.78,831.85Zm629-.51c-.67,2.45-.18,3.92,1.38,5.21a95,95,0,0,0,22.9,14.33,47.49,47.49,0,0,0,10.7,3.28c2,.34,2.51-.09,2.58-2,.08-2.06-.17-3-2.7-3.23a45.56,45.56,0,0,1-16.2-5.26,102.8,102.8,0,0,1-15.18-9.74ZM945,854.41c1.68-.18,3.53-.36,5.38-.59a163.64,163.64,0,0,0,18.37-2.93c3-.72,4.69-2.16,4.89-5.4.16-2.58.09-2.85-2.37-2-5.78,1.95-11.61,3.74-17.53,5.24-3.51.89-7,1.8-10.53,2.65-.79.19-1.37.41-1.33,1.35s.37,1.62,1.4,1.7C943.74,854.45,944.26,854.41,945,854.41Zm-845.25,0h1.07c.9,0,1.67-.27,1.78-1.33a1.5,1.5,0,0,0-1.16-1.63c-.79-.26-1.59-.48-2.4-.68-8.55-2.17-17.11-4.33-25.44-7.29a6.3,6.3,0,0,0-1.19-.37,1.08,1.08,0,0,0-1.31,1,5.63,5.63,0,0,0,3.59,6.36,15,15,0,0,0,1.49.44C83.93,852.79,91.89,853.54,99.7,854.43ZM887.57,715.19l.51.4c1.08-2,2.39-2,3.91-.83a5,5,0,0,0,2.62.87c1.42.15,2.15-.35,2.14-1.86,0-4,0-8.08,0-12.12a2.16,2.16,0,0,0-1.64-2.32c-2.5-.81-5-1.69-7.52-2.55ZM869.78,345.05c0-1.45,0-2.91,0-4.36s-.7-2.08-2.1-2.07c-2.49,0-5,0-7.47,0a1.9,1.9,0,0,0-2.08,2.16q0,4.2,0,8.41c0,1.32.58,2.19,2,2.2h7.78c1.31,0,1.84-.77,1.84-2C869.77,348,869.78,346.5,869.78,345.05ZM202.85,695l-.13-.38H176.91c-5.83,0-6.39.63-5.65,6.37.22,1.76.69,2.11,2.48,1.73,1.32-.29,2.6-.7,3.91-1ZM887.4,736.72c2.45-2.25,2.45-2.24,5.09-.86a6,6,0,0,0,1.71.65c1.65.27,2.45-.25,2.49-1.88.09-4,0-8.07,0-12.1,0-1.07-.55-1.86-1.67-1.85a9.81,9.81,0,0,1-5.74-2c-1.31-.89-1.83-.58-1.85,1.08C887.37,725.22,887.4,730.69,887.4,736.72ZM172.59,345.12h0c0,1.44,0,2.89,0,4.33a1.75,1.75,0,0,0,1.9,1.95c2.58,0,5.16,0,7.73,0a1.88,1.88,0,0,0,2.13-2.08q0-4,0-8a1.94,1.94,0,0,0-2.08-2.17q-3.87-.06-7.74,0a1.81,1.81,0,0,0-1.93,2C172.56,342.44,172.59,343.78,172.59,345.12Zm715.05,410.4c2.26-1.31,2.26-1.31,5.07,0a5.79,5.79,0,0,0,.57.25c2.24.73,3.39,0,3.45-2.34.07-3.2.07-6.41,0-9.61-.05-2.07-.32-2.38-2.32-2.47a7.91,7.91,0,0,1-4.35-1.39c-.64-.45-1.23-1.14-2.17-.95C887.28,741.18,887.14,751.61,887.64,755.52Zm.25,37.94c1.37-1.83,2.83-2,4.46-.59a4,4,0,0,0,2.36.67c1.23.1,2-.26,2-1.66,0-3.74,0-7.47,0-11.2,0-1-.42-1.66-1.48-1.58a9,9,0,0,1-5.77-1.9c-1.48-1-2-.69-2.05,1.15-.06,4.66,0,9.33,0,14A4.53,4.53,0,0,0,887.89,793.46ZM126.46,830.93c4.8,1,7.41-1,7.38-5.78,0-.41,0-.83,0-1.24-.15-1.83-.37-2.06-2.07-1.43a13,13,0,0,1-4.91.43c-1.08,0-1.81-.55-1.82-1.69A3.39,3.39,0,0,0,123.1,818,8.22,8.22,0,0,0,119,816.6c-1.91,0-2.31.4-2.42,2.39a29.33,29.33,0,0,0,0,3.11c.1,2.18.26,2.47,2.57,2.56s4.37,1.18,6.37,2.28c1,.56,1.63,1.26,1.07,2.51A1.58,1.58,0,0,0,126.46,830.93Zm791.95.12a6.49,6.49,0,0,0-.11-1c-.67-2.3-.69-2.32,1.24-3.39s3.63-2,5.82-2c1.21,0,2.45-.25,2.45-1.76,0-2,.78-4.13-.7-6a.77.77,0,0,0-.27-.14c-2.17-1-6.38,1.18-7,3.59s-.59,2.5-3,2.55a11.29,11.29,0,0,1-3.69-.34c-2.48-.78-2.51-.73-2.57,1.94,0,.93,0,1.87,0,2.8a2.16,2.16,0,0,0,.84,1.92C913.57,830.61,915.67,831.94,918.41,831.05Zm-30.62-57.28c2.14-1.51,2.13-1.51,4.74-.28a5.91,5.91,0,0,0,1.14.46c2,.49,3-.16,3-2.22.09-3,0-6,0-9,0-1.37-.65-2.18-2.07-2.08a8.19,8.19,0,0,1-5.19-1.63c-1.45-.94-2-.61-2,1.23-.08,3.72,0,7.44,0,11.15C887.41,772.21,887.16,773.07,887.79,773.77Zm25-435c2.16,3.2,2.73,6.14,1.73,9.32-.35,1.12.25,1.52,1.28,1.52,2.49,0,5,0,7.47,0,1.43,0,2.12-.7,2-2.12-.16-2.38-.35-4.75-.55-7.13a1.73,1.73,0,0,0-1.82-1.74A81.16,81.16,0,0,0,912.77,338.73Zm-783,0H119.62a1.67,1.67,0,0,0-1.86,1.65c-.2,2.36-.38,4.73-.54,7.09a1.76,1.76,0,0,0,2,2.12c2.48,0,5,0,7.43,0,1.28,0,1.63-.59,1.28-1.76C127,344.75,127.54,341.9,129.8,338.69ZM846.53,695.76l0,.42q11.26,3,22.53,6c4.55,1.2,4.72,1,4.52-3.71-.11-2.4-.3-2.67-2.74-2.69C862.71,695.73,854.62,695.76,846.53,695.76ZM887.41,810.4c2.51-1.86,2.53-1.9,4.77-.74a6.44,6.44,0,0,0,3,.72,1.32,1.32,0,0,0,1.56-1.47c0-2.89,0-5.78,0-8.67a1.51,1.51,0,0,0-1.54-1.63,10.35,10.35,0,0,1-6-2.14c-1.12-.75-1.66-.41-1.69,1.06C887.36,801.64,887.41,805.76,887.41,810.4ZM80.33,325.77a3.34,3.34,0,0,0,1.56,3.06c1.41.86,2.86,1.65,4.31,2.45.92.5,1.61.28,1.89-.77,1-3.9,2.12-7.78,3.06-11.7.37-1.56-.38-2.23-1.89-1.73A14.24,14.24,0,0,0,81.2,323,5.1,5.1,0,0,0,80.33,325.77Zm881.81-.07a7,7,0,0,0-.14-1c-.72-3.14-6.19-7.69-9.37-7.79-1.37-.05-1.56.85-1.31,1.86,1,3.91,2,7.8,3.07,11.69.22.81.75,1.35,1.6.89,1.72-.93,3.43-1.89,5.07-3A3,3,0,0,0,962.14,325.7ZM75.34,338.12c0,3.92,4,7.88,7.48,7.93a1.24,1.24,0,0,0,1.3-1.07c.64-2.19,1.21-4.39,1.83-6.58a1.58,1.58,0,0,0-.9-2c-2-1.1-4-2.22-6-3.33a1.59,1.59,0,0,0-2.53.76A10,10,0,0,0,75.34,338.12Zm891.8.45A10.74,10.74,0,0,0,966,334c-.6-1.3-1.5-1.68-2.72-.87a42.82,42.82,0,0,1-5.69,3.18c-1.2.55-1.33,1.4-1,2.55.46,1.48.84,3,1.26,4.48.91,3.24,1.06,3.3,4.23,1.88a10.64,10.64,0,0,0,2.88-1.8A5.82,5.82,0,0,0,967.14,338.57ZM787.94,29.92c4.34.18,4.34.18,3.4-3.66-.1-.41-.16-.82-.24-1.22a2.65,2.65,0,0,0-2.59-2.26c-3.7-.29-7.41-.61-11.12-.74-1.93-.07-2.57,1.14-1.62,2.84a7.44,7.44,0,0,0,4,3.29A23.09,23.09,0,0,0,787.94,29.92ZM911,248.65c0-.72,0-2.17,0-3.62,0-1.09-.58-1.79-1.79-1.52-1.92.42-3.84.87-5.74,1.35A1.78,1.78,0,0,0,902,246.6c0,2.17,0,4.35,0,6.52a1.47,1.47,0,0,0,1.55,1.59c2.17,0,4.35,0,6.52,0a1.35,1.35,0,0,0,1.43-1.63C911.36,251.86,911.22,250.62,911,248.65ZM887.41,825.39l.48.56c1.41-2,2.89-1.92,4.5-.62a4.24,4.24,0,0,0,2.36.63c1.25.11,2-.33,2-1.69,0-2.27,0-4.55,0-6.82,0-1.18-.52-2.07-1.81-2a9.72,9.72,0,0,1-5.71-2c-1.2-.8-1.72-.51-1.75.91C887.36,818,887.41,821.69,887.41,825.39ZM253.37,30a23.22,23.22,0,0,0,8.73-1.87,7.84,7.84,0,0,0,3.58-2.85c.51-.78,1-1.64.49-2.59s-1.42-.73-2.22-.68c-2.16.15-4.32.4-6.47.55-5.43.37-5.43.35-6.91,5.39-.45,1.53-.24,1.88,1.26,2C252.34,30,252.86,30,253.37,30ZM77.23,856.17A5.42,5.42,0,0,0,80,858a93.39,93.39,0,0,0,20.11,6.45c2.86.57,3.33.12,3-2.73-.19-1.87-.79-2.37-3.17-2.63-4.12-.45-8.25-.82-12.37-1.35C84.2,857.35,80.86,856.74,77.23,856.17Zm890.24.25c-.18-.16-.26-.28-.32-.27a215.85,215.85,0,0,1-22.8,3c-2.54.2-2.73.49-2.66,3.11s.32,2.74,2.73,2.26a92,92,0,0,0,14.65-4.17A40.19,40.19,0,0,0,967.47,856.42ZM140.14,250.06c0-4.85,0-4.85-4.59-6-.61-.15-1.21-.3-1.81-.41-1.85-.32-2.18-.11-2.31,1.8-.13,2.06-.1,4.12-.24,6.18-.22,3-.21,3.06,2.92,3.11h1.24C140.14,254.78,140.14,254.78,140.14,250.06ZM839,853.41c.79,1.85,2.31,2.79,3.67,3.86,7.53,5.92,15.46,11.14,24.68,14.09a24.61,24.61,0,0,0,5.75,1.25c.73.06,1.53.16,1.66-.87s0-1.69-1-2a8.42,8.42,0,0,0-1.2-.3c-9.48-1.6-17.85-5.85-25.88-10.88C844,856.91,841.51,855.13,839,853.41Zm-633,.28a8.05,8.05,0,0,0-3.4,1.81c-9.2,6.33-18.82,11.7-30,13.86a8.63,8.63,0,0,0-1.49.4,1.34,1.34,0,0,0-.89,1.74,1.32,1.32,0,0,0,1.38,1,10.94,10.94,0,0,0,3.06-.44c7.57-1.84,14.25-5.57,20.64-9.86A61.09,61.09,0,0,0,206,853.69Zm-72.51,5.92c-2.08.57-4,1.52-6.1,1.2-1-.15-2-.19-2.4-1.5-.86-2.81-3.36-3.45-5.8-3.86-1.87-.32-2.42.22-2.56,1.77-.19,2.06.26,2.62,2.27,2.77h.31c3.32.29,6.67.5,7.91,4.48a1,1,0,0,0,.72.48c2,.3,3.62-.73,5.13-1.82C134.16,862.27,133.92,861,133.48,859.61Zm794.41-1.93c0-1.82-.63-2.53-2.47-2.22-2.34.39-4.69,1.06-5.59,3.68a2.3,2.3,0,0,1-2.32,1.65,10.32,10.32,0,0,1-5.13-.82c-1.36-.63-1.88-.14-1.73,1.33a2.08,2.08,0,0,0,.76,1.63,10.69,10.69,0,0,0,3.81,2c1.1.23,2.37.42,2.47-1.37,0-.83.74-1.19,1.37-1.55,2-1.1,3.92-2.16,6.37-2C927.46,860,927.89,859.45,927.89,857.68Zm-40-20.07c1.11-1.59,2.24-2.06,3.78-.94,1.31,1,2.89,1.6,4.31.59s.63-2.67.74-4.07a4.2,4.2,0,0,0-.06-.61,1.55,1.55,0,0,0-1.6-1.57,9.67,9.67,0,0,1-6-2.14c-.92-.65-1.62-.36-1.65.82A29.1,29.1,0,0,0,887.9,837.61Zm-.48,11.45.57.33c1.22-1.94,2.62-2,4.22-.73a3.73,3.73,0,0,0,2.32.76c1.19,0,2.19-.32,2.13-1.65-.07-1.67.84-3.52-.72-5a.91.91,0,0,0-.6-.13,9.34,9.34,0,0,1-6.09-1.92c-1.19-.8-1.75-.49-1.8.89C887.35,844.11,887.42,846.59,887.42,849.06Zm0,11.19c2.47-2.47,2.47-2.47,4.83-1.15a7.67,7.67,0,0,0,1.08.61c2.2.84,3.33.08,3.41-2.28,0-.52,0-1,0-1.55a1.59,1.59,0,0,0-1.78-1.7,8.64,8.64,0,0,1-5.5-1.66c-1.31-.9-1.9-.57-2,1C887.34,855.54,887.42,857.59,887.42,860.25Zm.17,9.88c2.32-1.8,2.31-1.79,4.62-.7a6.41,6.41,0,0,0,1.74.6c1.82.28,2.58-.31,2.77-2,.26-2.31-.23-3.26-2.08-3.31a8.85,8.85,0,0,1-5.17-1.83,1.66,1.66,0,0,0-2-.38A39,39,0,0,0,887.59,870.13Zm31.58,6.7h5.57c3.36,0,3.44-.11,3.17-3.52a7,7,0,0,0-.14-1.22c-.17-.69-.77-1.25-1.34-1-2.39,1-5.49,1-6.73,3.95a2,2,0,0,1-1.92,1.29,9.64,9.64,0,0,1-4.58-.45c-.47-.2-.94-.43-1.42-.61s-.84-.08-.94.44a.75.75,0,0,0,.61.92,10.23,10.23,0,0,0,1.83.18C915.24,876.84,917.2,876.83,919.17,876.83Zm-304.43-817c1.23.2,2.18-.57,2.79-1.95.7-1.6,1.47-3.17,2.17-4.78.27-.63.83-1.36.27-2s-1.52-.43-2.33-.37-1.4.79-1.81,1.52c-1,1.71-1.92,3.4-2.81,5.14C612,59.3,612.36,59.81,614.74,59.83ZM419.38,49.23,427.59,59a2.28,2.28,0,0,0,.48.39c.46.28,1,.5,1.44.17s.2-.94,0-1.38c-1.12-2.08-2.23-4.17-3.39-6.23C424.42,49,423.76,48.65,419.38,49.23Zm472.55,827.6h0c1.14,0,2.27,0,3.41,0,.6,0,1.38,0,1.33-.87s-.72-.93-1.37-.88a8.79,8.79,0,0,1-5.82-1.74c-1.54-1-2-.74-2.09,1-.17,2.17.05,2.41,2.36,2.48C890.48,876.85,891.2,876.83,891.93,876.83Zm68.37-13.28a28,28,0,0,1-11.9,5c-1.62.32-3.24.65-4.84,1-.59.15-1.74-.31-1.56.91.15.95,1.08.77,1.79.71a7.31,7.31,0,0,0,1.22-.24,48.9,48.9,0,0,0,15-6.39C960.28,864.39,960.88,864.3,960.3,863.55Zm-876,6.7a25.58,25.58,0,0,0,12.27,6,19,19,0,0,0,4.93.55c1-.07,1.68-.44,1.52-1.68C100.17,876.67,94.6,875.14,84.32,870.25Zm858.15,6.18c5.93.71,14.52-2.36,17-6A61,61,0,0,1,942.47,876.43ZM103,868.7c-1.25,1.21-2.36.72-3.47.54-3-.49-5.82-1.64-8.9-1.7a37.09,37.09,0,0,0,10.1,3.62C102.93,871.64,103,871.57,103,868.7ZM623.59,42.45c-.11-.61.29-1.57-.54-1.84-1-.35-1.29.75-1.68,1.39a20.29,20.29,0,0,0-1.27,2.45c-.49,1.11.11,1.48,1.13,1.49C623.06,46,623.63,45.13,623.59,42.45ZM421,43.75c.26-1.15-.5-1.94-1-2.8a1.69,1.69,0,0,0-2.18-.68c-1,.35-1,1.24-.93,2.09s.43,1.62,1.43,1.71A3.62,3.62,0,0,0,421,43.75Zm-296,824.7c-1.75-2.94-5.31-4.48-7.53-3.6a.88.88,0,0,0-.5.65c0,.22.35.63.53.62C120.12,866,122.17,867.58,125.05,868.45Zm802.42-2.93c-.15-.23-.21-.46-.36-.55-1.46-.91-6.06.52-6.93,2.17a.85.85,0,0,0,.1.81.9.9,0,0,0,.83.08,11.91,11.91,0,0,1,5.78-1.92C927.1,866.1,927.29,865.72,927.47,865.52Zm-16.22,3.39a7.22,7.22,0,0,0,6,2.49c.6,0,1.37-.06,1.3-.91,0-.6-.68-.73-1.2-.72A17.51,17.51,0,0,1,911.25,868.91Z"/><path d="M520,237.53H249.5c-2.7,0-5.4.11-8.1.08a15.43,15.43,0,0,1-13.76-7.68c-2.88-4.63-3.87-9.81-4.16-15.15-.37-6.87.36-13.7.84-20.53.45-6.42,1.06-12.82,1.59-19.24.84-10.13,1.79-20.26,2.46-30.41A86.47,86.47,0,0,1,234,119.17c4.48-11.67,11-21.87,21.4-29.22a50.27,50.27,0,0,1,26.46-9.06c12.76-.8,25.54-.52,38.31-.54q103.46-.13,206.9-.09,45.66,0,91.3.06,61.7.06,123.4.16c4.56,0,9.12.85,13.68.26a35.73,35.73,0,0,1,11.45.6c15.84,3.09,26.74,12.63,34.25,26.5,5.78,10.66,8.61,22.23,10.26,34.12,1.45,10.49,2.76,21,4,31.5,1,8.14,1.73,16.31,2.38,24.48.53,6.54,0,13.06.47,19.58a21.31,21.31,0,0,1-1.08,7.68c-2,6.56-6.37,10.54-13.14,11.82a37.86,37.86,0,0,1-7.13.52Zm3.54-5h273a61.44,61.44,0,0,0,6.22-.18,10.66,10.66,0,0,0,9.56-7.34,23.94,23.94,0,0,0,1.2-11.66,19.45,19.45,0,0,1-.3-3.72c.53-9.38-.5-18.68-1.53-28-1.42-12.68-3.16-25.34-4.77-38a112.18,112.18,0,0,0-5.76-24.51c-3.22-8.82-7.86-16.71-14.86-23.09a38.86,38.86,0,0,0-26.54-10.65c-5.09,0-10.18,0-15.27,0-42.06-.18-84.13.15-126.19-.39-30.43-.39-60.87-.12-91.31-.13q-85.23,0-170.46,0c-20.25,0-40.5.09-60.75.46-3.95.08-7.9.06-11.84.17-14.71.39-26.68,6.35-35.8,17.9-6.63,8.39-10.54,18.07-13.06,28.36a102.46,102.46,0,0,0-2.2,16.65c-.67,9.22-1.51,18.42-2.26,27.62-.56,6.83-1.18,13.65-1.63,20.49-.37,5.59-1.12,11.16-.83,16.79.22,4.37.79,8.68,2.74,12.69a11.49,11.49,0,0,0,11.88,6.81,77.61,77.61,0,0,1,7.77-.29Z"/><path d="M164,401.26q0,16.67,0,33.33c0,3.93-.2,4.17-4,4.18q-14.64.06-29.29,0c-3.52,0-3.82-.35-3.82-4q0-33.48,0-67c0-3.76.15-3.9,3.82-3.92,6.75,0,13.5,0,20.25,0,3.21,0,6.43,0,9.65,0s3.32.26,3.33,3.44Q164,384.28,164,401.26Zm-32.47-.14c0,9.87,0,19.74,0,29.61,0,2.76.3,3.06,3,3.07,7.17.05,14.33,0,21.5,0,3,0,3.24-.26,3.25-3.19q0-29.44,0-58.89c0-3-.21-3.19-3.2-3.2-7.17,0-14.33,0-21.5,0-.41,0-.83,0-1.24,0a1.66,1.66,0,0,0-1.81,1.72c0,.83,0,1.66,0,2.49Z"/><path d="M878.53,401.29V368.9c0-.83,0-1.67,0-2.49.14-2.15.41-2.4,2.66-2.53.52,0,1,0,1.56,0h28.65c.73,0,1.46,0,2.18.05a1.82,1.82,0,0,1,1.94,2q.06,1.25.06,2.49V434.1c0,4.57-.11,4.68-4.74,4.68q-13.7,0-27.41,0c-.52,0-1,0-1.56,0-3-.14-3.34-.45-3.35-3.52,0-10.7,0-21.39,0-32.09Zm32.41-.18q0-14.64,0-29.28c0-3.17-.14-3.29-3.38-3.3-5.71,0-11.42,0-17.13,0-1.66,0-3.32,0-5,0s-2.28.75-2.24,2.29c0,.41,0,.83,0,1.24q0,29.13,0,58.25c0,3.31.19,3.49,3.56,3.5,6.85,0,13.7,0,20.55,0,.63,0,1.25,0,1.87-.06A1.68,1.68,0,0,0,910.9,432c0-.83,0-1.66,0-2.49Z"/><path d="M148.05,308.73a10,10,0,0,1-10.14-10,10.13,10.13,0,1,1,10.14,10Zm5.14-10a5.23,5.23,0,0,0-5.12-5.5,5.39,5.39,0,0,0-.14,10.77A5,5,0,0,0,153.19,298.75Z"/><path d="M894.5,308.73a10.08,10.08,0,0,1-10.17-10,10.12,10.12,0,1,1,20.24-.08A10,10,0,0,1,894.5,308.73Zm-5.21-10a5,5,0,0,0,5.3,5.25,5.4,5.4,0,0,0-.24-10.79A5.17,5.17,0,0,0,889.29,298.77Z"/><path d="M145.46,385.86a10.84,10.84,0,1,1-.08,21.68,10.84,10.84,0,0,1,.08-21.68Zm.14,5a5.89,5.89,0,1,0,5.71,6A5.6,5.6,0,0,0,145.6,390.84Z"/><path d="M897.1,385.86a11.07,11.07,0,0,1,10.77,11.05A11,11,0,0,1,897,407.54a10.84,10.84,0,1,1,.08-21.68Zm-5.93,10.8a5.89,5.89,0,1,0,5.85-5.83A5.61,5.61,0,0,0,891.17,396.66Z"/></g></g></svg>