<svg xmlns="http://www.w3.org/2000/svg" viewBox="0 0 432.21 138.07"><defs><style>.cls-1{fill:none;stroke:#000;stroke-linecap:round;stroke-linejoin:round;}</style></defs><title>derecha</title><g id="Capa_2" data-name="Capa 2"><g id="objects"><path class="cls-1" d="M1.66,79.67c0,33.26,41.89,33.06,41.89,33.06V100c0-6.16,7.39-30,35.31-30,30.59,0,38.19,27,38.19,36.14v12.93l188.81,1.29v-8.33c0-6.39,3.84-41.78,38-41.78,36,0,36.75,31.78,36.75,40.92v9.58l35.35-2s13.34-.89,13.34-11v-7.39s2.33-2.6,2.33-4,.68-8.9-2.6-12.18-9.58-17.52-19.85-21.9-56.8-18.21-79.11-19c0,0-73.22-42.7-135.84-42.7,0,0-78.37-2.74-107.38,17,0,0-30,16-63.65,16.43-3.44,0-10.13.27-10.13,9.3,0,0-4.93,5.62-4.93,19,0,0-7.57,3.38-7.57,9.87C.59,79.72,1.66,77.79,1.66,79.67Z"/><path class="cls-1" d="M330.09,43.33s-7.67,2-9.85.82c-25.6-13.68-79.12-32-79.12-32s-1.5-1.51-.27-4.93"/><path class="cls-1" d="M13.09,43.33S27.05,49.9,31,50c0,0-3.69,13.28-14.51,13.28l-8.35-1"/><path class="cls-1" d="M31,50S24.18,55.1,9.53,52"/><path class="cls-1" d="M44,96.11s-28.3,1.23-39.83-3.54"/><path class="cls-1" d="M2,81.66s21,1.78,27.24,1.78S37,76.32,37,76.32L.5,74.13"/><path class="cls-1" d="M15.66,36.4S42.93,47.23,99.39,47.23"/><path class="cls-1" d="M429.32,100.41c-5.53,5.61-35.5,6.78-48.73,6.26"/><path class="cls-1" d="M402.17,91.23c-1.49-3.7,4.1.29,15.9-1.89,4.28-.79,6.27.23,7.29,5.73C425.36,95.07,405.1,98.49,402.17,91.23Z"/><path class="cls-1" d="M417.83,80.29S413,64.68,381.28,64.68C381.28,64.68,383.2,80.29,417.83,80.29Z"/><path class="cls-1" d="M417.83,80.29s-17.52-2.88-36.55-15.61"/><path class="cls-1" d="M375.4,64.41s-34.77-9-60.78-9.85"/><path class="cls-1" d="M97.24,31.22c2.11,34.77,15.63,44.42,23,60.84s14,18.11,21,18.37C178.53,111.88,254,113,291.35,113c8.08,0,17.8-36,18.07-51s-8.11-20.13-14.23-23C268.16,26.29,230,8,184.8,8.23c0,0-52.79-2.13-73.71,4.92C106.19,14.81,96.38,17.19,97.24,31.22Z"/><path class="cls-1" d="M179.46,8S195.68,52,195.68,62.43s-.82,30.79-.82,31.41-2.05,16.43-3.49,17.86"/><path class="cls-1" d="M175.7,13.77l8.48,31s-28.71.17-52.32-1.41C107,41.69,105.1,37.74,103.7,30.6c-2-10.47,5.55-12.86,11.3-14C131.79,13.44,175.7,13.77,175.7,13.77Z"/><path class="cls-1" d="M279.45,50.11,299,51.27S236.88,12.13,186.78,14l11,31.21L260.42,49"/><path class="cls-1" d="M299.57,84.12s-.82,5.2-7.67,5.2-164.79-5.75-164.79-5.75-6.44-.41-6.44-7Z"/><path class="cls-1" d="M272.74,54.83s5.34,2.57,1.44,9.1c0,0,8-.54,10.5-11,0,0-5.13-.41-9.44-7.7S263,37.69,261.38,41.42c-1.3,3-3.94,13.61,8.76,13.69,2.85,0,8.08-.28,5.1-9.93"/><path class="cls-1" d="M275.48,52.64s-3.22-11.77-12.12-13.07"/><path class="cls-1" d="M203.78,59.88a2.54,2.54,0,0,0,2.33,2.72l11.6.88a2.54,2.54,0,0,0,2.72-2.34h0a2.52,2.52,0,0,0-2.33-2.71l-11.6-.88a2.52,2.52,0,0,0-2.72,2.33Z"/><path class="cls-1" d="M109.75,55.84a2.53,2.53,0,0,0,2.33,2.72l11.6.88a2.54,2.54,0,0,0,2.72-2.33h0a2.53,2.53,0,0,0-2.33-2.72l-11.6-.88a2.53,2.53,0,0,0-2.72,2.33Z"/><path class="cls-1" d="M377,105.23A32.33,32.33,0,1,1,344.63,72.9,32.33,32.33,0,0,1,377,105.23Z"/><path class="cls-1" d="M366.08,105.23a21.45,21.45,0,1,1-21.45-21.45A21.45,21.45,0,0,1,366.08,105.23Z"/><path class="cls-1" d="M363.3,105.23a18.67,18.67,0,1,1-18.67-18.66A18.67,18.67,0,0,1,363.3,105.23Z"/><path class="cls-1" d="M354.42,105.23a9.79,9.79,0,1,1-9.79-9.78A9.79,9.79,0,0,1,354.42,105.23Z"/><path class="cls-1" d="M346,99.29a1.4,1.4,0,1,1-1.4-1.4A1.4,1.4,0,0,1,346,99.29Z"/><path class="cls-1" d="M346,111.18a1.4,1.4,0,1,1-1.4-1.4A1.4,1.4,0,0,1,346,111.18Z"/><path class="cls-1" d="M352,105.23a1.4,1.4,0,1,1-1.4-1.4A1.39,1.39,0,0,1,352,105.23Z"/><path class="cls-1" d="M340.08,105.23a1.4,1.4,0,1,1-1.4-1.4A1.39,1.39,0,0,1,340.08,105.23Z"/><path class="cls-1" d="M111.7,105.23A32.33,32.33,0,1,1,79.37,72.9,32.33,32.33,0,0,1,111.7,105.23Z"/><path class="cls-1" d="M100.82,105.23A21.46,21.46,0,1,1,79.37,83.78,21.45,21.45,0,0,1,100.82,105.23Z"/><path class="cls-1" d="M98,105.23A18.67,18.67,0,1,1,79.37,86.57,18.67,18.67,0,0,1,98,105.23Z"/><path class="cls-1" d="M89.16,105.23a9.79,9.79,0,1,1-9.79-9.78A9.79,9.79,0,0,1,89.16,105.23Z"/><path class="cls-1" d="M80.77,99.29a1.4,1.4,0,1,1-1.4-1.4A1.4,1.4,0,0,1,80.77,99.29Z"/><path class="cls-1" d="M80.77,111.18a1.4,1.4,0,1,1-1.4-1.4A1.4,1.4,0,0,1,80.77,111.18Z"/><path class="cls-1" d="M86.71,105.23a1.4,1.4,0,1,1-2.8,0,1.4,1.4,0,1,1,2.8,0Z"/><path class="cls-1" d="M74.82,105.23a1.4,1.4,0,1,1-1.4-1.4A1.39,1.39,0,0,1,74.82,105.23Z"/><line class="cls-1" x1="312.3" y1="105.23" x2="306.72" y2="105.23"/><line class="cls-1" x1="49.23" y1="93.98" x2="44.71" y2="93.98"/><line class="cls-1" x1="117.39" y1="105.06" x2="111.7" y2="105.06"/><line class="cls-1" x1="380.3" y1="103.34" x2="377.13" y2="103.34"/></g></g></svg>