<svg xmlns="http://www.w3.org/2000/svg" viewBox="0 0 1186.08 835"><title>sedan_back</title><g id="Capa_2" data-name="Capa 2"><g id="Capa_1-2" data-name="Capa 1"><path d="M112.33,297.91c-5.2-.44-10.14-.87-15.09-1.26-12.72-1-25.36-2.76-38-4.61q-21.54-3.18-42.95-7.17c-5-.93-9.64-3.17-14.51-4.61-1.74-.52-2-1.43-1.65-3.8,1.11-6.65,2.51-13.25,3.4-19.93,1.33-10,5-19.23,8.36-28.59,2.77-7.62,8.27-11.76,16.21-12.59,8.78-.92,17.6-1,26.41-1.2,17.62-.48,35.26-.51,52.89-.57,5.3,0,10.53.92,15.79,1.37a4.06,4.06,0,0,1,3.15,2.28,15.3,15.3,0,0,1,2,10.46c-1.26,7.92-3.73,15.52-6.15,23.13-1.39,4.39-1.28,4.68,3.19,5.53,2.84.54,5.73.91,8.6,1.35a2.75,2.75,0,0,0,3.36-2c.81-2.24,1.7-4.45,2.56-6.68q19.18-50,43.14-97.9A980.87,980.87,0,0,1,237.34,56q5.68-8.75,11.32-17.5a29,29,0,0,1,8.64-8.83,110.81,110.81,0,0,1,21-10.87,7.53,7.53,0,0,1,3.63-.6c2.29.27,4.48-.65,6.71-1q18.45-2.91,37-4.73c12.48-1.24,25-2.46,37.46-3.51,10-.84,20.06-1.44,30.1-2.1q18-1.17,36-2.27c4.14-.25,8.29-.32,12.43-.6,6.83-.46,13.68-.58,20.51-.87,12.74-.53,25.48-1.1,38.22-1.63,2.28-.1,4.57-.09,6.85-.14q16.49-.32,33-.82c25.1-.81,50.2-.5,75.3-.44,13.27,0,26.55.42,39.82.77,11.5.31,23,.74,34.5,1.21q21.13.86,42.26,1.89c10.77.53,21.54,1.09,32.29,1.82,16.24,1.11,32.49,2,48.71,3.47,10.63,1,21.29,1.64,31.92,2.73,19.38,2,38.79,3.9,58,7.59,7.22-.07,12.87,4.07,18.87,7.17a65.5,65.5,0,0,1,8.73,5.39,29.77,29.77,0,0,1,7.33,8c14.64,22.53,28.91,45.28,41.93,68.8q16.13,29.13,30.46,59.2,20.58,43.29,37.33,88.22c.18.48.36,1,.56,1.45,1,2.33,1,2.3,3.42,2a88,88,0,0,0,9.83-1.51c3.48-.76,3.8-1.29,2.77-4.65-2.19-7.14-4.5-14.24-5.86-21.6a20.56,20.56,0,0,1,.23-9.55c1-3.54,3-5.46,7-5.83,8.6-.78,17.2-.73,25.81-.7,8.92,0,17.85,0,26.76.24,12,.29,24.05.73,36.06,1.23a30,30,0,0,1,9.16,1.62,16.8,16.8,0,0,1,10.45,10,172.17,172.17,0,0,1,6.73,19.38c1.54,6,2.33,12.22,3.4,18.34.7,4,1.38,8,2,12,.49,3.27.11,3.5-3,4.73-10.62,4.23-21.88,5.54-33,7.41q-18.09,3-36.31,5.35c-9,1.15-18.11,2.17-27.21,2.88-4,.31-8.07.58-12.12.62a1.46,1.46,0,0,0-1.27.56c0,1.11,1,1.84,1.63,2.69,3.81,5.06,7.59,10.13,11.54,15.08A119.71,119.71,0,0,1,1099,339c.46.92,1,1.81,1.42,2.76a3,3,0,0,0,3.51,1.89,28.17,28.17,0,0,1,6.5-.27c2.76.4,4.83,1.7,5.51,4.34,1.31,5.13,3.94,9.42,7.12,13.58a21.38,21.38,0,0,1,4.31,10.54c.78,6.55-2.15,10.79-8.55,12.32-2.78.67-2.89.67-2.81,3.45a274.1,274.1,0,0,0,2.65,33.76,59.51,59.51,0,0,0,5,16.65,11.36,11.36,0,0,1,1.06,4.82c.12,7.36.23,14.71-.35,22.07-.37,4.75,0,9.54-.72,14.28a4,4,0,0,0,.24,2.13c2.41,5.2,2.75,10.83,3.32,16.37,1.53,15,1.43,30,1.3,45.06-.14,16,.13,32-.15,47.93-.7,40.13-.12,80.27-.67,120.41-.37,27.17-.2,54.34-.43,81.51a47.88,47.88,0,0,1-3.13,18c-4.89,12-14.16,18.85-26.21,22.46a48.25,48.25,0,0,1-14.11,2c-22.31-.08-44.62-.19-66.93,0-16.12.15-27.37-7.45-35.21-21-.93-1.61-1.74-3.31-2.53-5a28.8,28.8,0,0,1-2.8-12.28c-.09-12.34-.36-24.68-.7-37-.26-9.33-.33-18.66-.53-28-.08-3.62-.28-7.25-.46-10.87-.12-2.63-.32-2.84-2.9-2.88-3.63-.06-7.26-.07-10.89-.07q-38.13-.06-76.26-.08a16.75,16.75,0,0,1-7.22-1.48c-4.44-2-9-3.82-13.42-5.83a17.07,17.07,0,0,0-7.23-1.45c-31.64,0-63.29.23-94.93-.1-49.69-.52-99.38-.3-149.08-.4-41.39-.08-82.79.15-124.19-.23-49.69-.46-99.38-.27-149.07-.4-3.84,0-7.68,0-11.52-.1a12.56,12.56,0,0,0-5.43,1.08c-5,2.2-10.13,4.29-15.16,6.5a13.3,13.3,0,0,1-5.42,1.16q-42.63-.08-85.28-.1c-1.45,0-2.89-.26-4.34-.33-2.17-.1-2.58.23-2.72,2.39-.2,3.21-.39,6.42-.44,9.63-.12,7.46.05,14.94-.29,22.4-.47,10.26-.24,20.53-.66,30.78-.2,5.08-.27,10.16-.39,15.23a12.62,12.62,0,0,1-.4,3.38c-3.27,10.71-8.84,19.85-18.22,26.34a35.86,35.86,0,0,1-18.39,6.06c-.93.06-1.86.06-2.8.06-22.93,0-45.86.15-68.78-.05-11.6-.1-22-3.9-30.63-11.88-6.49-6-9.82-13.73-11.06-22.43-.9-6.31-.47-12.64-.5-19-.12-20.22.13-40.46-.21-60.68-.67-39.82-.12-79.65-.66-119.47-.35-25.83-.26-51.65-.44-77.47a211.15,211.15,0,0,1,2.42-34.71,26.58,26.58,0,0,1,2-7.79,3.16,3.16,0,0,0,.31-1.81c-1-8.66-1-17.38-1.4-26.08-.19-4.43.29-8.9.54-13.34a6.56,6.56,0,0,1,.74-2.36,74.64,74.64,0,0,0,6.42-24.87c.71-7.53,1.27-15.08,1.87-22.62.09-1,.09-2.08.08-3.11,0-2.48,0-2.58-2.47-3-8.07-1.48-9.64-8.2-8.41-13.8A29.73,29.73,0,0,1,65,354.73a11,11,0,0,0,2.47-4.56,47.12,47.12,0,0,1,1.84-5.28,5.57,5.57,0,0,1,5.53-3.77,35.27,35.27,0,0,1,5.91.15,3.27,3.27,0,0,0,3.92-2.14c.91-1.86,2-3.63,2.91-5.5,4.14-8.69,10.11-16.15,16-23.69,2.48-3.2,5-6.35,7.52-9.53A4.44,4.44,0,0,0,112.33,297.91ZM144.7,398a8.53,8.53,0,0,0-1.53,3.43c-2.29,6.78-4.51,13.59-6.82,20.36-2.24,6.57-4.44,13.17-7.11,19.59A19.74,19.74,0,0,1,118,452.76c-3.77,1.49-7.61,2.71-11.46,4-10.76,3.5-21.54,6.89-32.9,7.86a13.55,13.55,0,0,0-5.25,1.83c-2.3,1.25-3.46,2.95-3.16,5.77.82,7.73,1.32,15.49,2.14,23.22,1.29,12.16,2.63,24.32,4.15,36.46Q74,551.75,76.88,571.6c1.42,9.85,3.09,19.67,4.66,29.49.38,2.36.79,4.71,1.25,7s.84,2.46,2.88,1.61c.19-.08.37-.18.56-.27a272.82,272.82,0,0,1,59.2-19.7,5.1,5.1,0,0,0,4-3.31,27,27,0,0,1,5.33-8c5.21-5.45,11.85-8.26,18.91-10.23,12.58-3.52,25.53-4.52,38.48-4.86,18.56-.48,37.13-.31,55.7-.43,31.84-.2,63.68,0,95.53.2,61.31.4,122.63.14,183.94.28,44.5.09,89-.18,133.51.36,33.29.41,66.6.12,99.9.14l4.67,0q25.53.06,51,.13a4.3,4.3,0,0,0,4.19-2,6.74,6.74,0,0,1,6.07-3.16h23.34c2.82,0,5.14,1,6.45,3.57a3.39,3.39,0,0,0,3.77,2c4.25-.45,8.48-.06,12.73,0,24.58.27,49.16-.18,73.74.59a253.53,253.53,0,0,1,27.27,2,88.39,88.39,0,0,1,22.25,5.66c7.43,3.15,13.28,8.06,16.57,15.58a5.41,5.41,0,0,0,4.27,3.46,271.61,271.61,0,0,1,58.49,19.89c2.56,1.19,2.77,1.13,3.24-1.49,2.14-11.94,4.44-23.86,6.34-35.83,3.68-23.24,8-46.38,10.28-69.83,1-10.11,2-20.21,3.1-30.31a3.16,3.16,0,0,0-1.14-3,17.47,17.47,0,0,0-10.59-4.73c-14.72-1.49-28.37-6.82-42.12-11.78-.58-.21-1.12-.52-1.69-.79a16.89,16.89,0,0,1-8-7.91,61.7,61.7,0,0,1-3.48-8.32q-5.57-16.66-11.14-33.34a11.87,11.87,0,0,0-1.56-3.9c-.27.08-.4.07-.45.14a5.66,5.66,0,0,0-.74,1c-3.64,6.66-9.43,10.66-16.41,13.05a93.32,93.32,0,0,1-30.26,5q-66.13.12-132.28,0c-3.17,0-5,1-6.26,3.82a82.8,82.8,0,0,1-9.23,15.11,70.45,70.45,0,0,1-14.44,14.92c-10.59,7.94-22.68,12.37-35.57,14.89a195,195,0,0,1-38.06,3.16q-56.34-.15-112.67-.17-35.18,0-70.34-.08-64.74-.17-129.46-.41c-13.06-.05-26.14.27-39.16-1.27-12.21-1.45-24.14-3.94-35.43-9A68.67,68.67,0,0,1,341,438.83a95.66,95.66,0,0,1-10.73-17.48c-1-2.22-2.45-2.92-4.84-2.93-20-.16-40,0-60.05-.33-23.13-.42-46.27-.15-69.4-.15a109,109,0,0,1-31.32-4.29,37.78,37.78,0,0,1-12-5.83C149.25,405.28,146.89,401.91,144.7,398ZM267.3,670.07a5.66,5.66,0,0,0-.89-.14c-16.18,0-32.36-.07-48.51,1.16a228.68,228.68,0,0,0-41.13,6.45c-20,5.27-38.42,13.79-54.6,26.84-2,1.63-4,3.34-6,5-1.71,1.42-3.1,1.54-4.08.38s-.65-2.48,1-4c.15-.14.32-.26.47-.4A149.36,149.36,0,0,1,170,674.54c19.63-5.84,39.79-8.11,60.14-9,10.15-.43,20.32-.46,30.48-.58a68.19,68.19,0,0,1,10.88.3c1.13.16,2.37.24,2.9-1.15,1.55-4.07,2.9-8.21,4.7-12.19.46-1-.17-1.57-1.16-1.69a13.14,13.14,0,0,0-2.17-.09c-2.69.11-5.38.3-8.08.38-3.94.13-7.87-.31-11.8-.34-11.52-.07-23-.29-34.5-1.29-13.68-1.18-27.19-3.19-40.36-7.13a91.17,91.17,0,0,1-22.45-9.85,49.33,49.33,0,0,1-4.83-3.4c-1.21-1-1.43-2.37-.68-3.27a2.37,2.37,0,0,1,3.35-.4c.63.37,1.19.84,1.8,1.24A74.68,74.68,0,0,0,168.42,632c13.43,6.23,27.71,9.19,42.28,11,9.16,1.16,18.36,1.67,27.59,2.13,14.1.7,28.2.23,42.31.46a4,4,0,0,0,3.4-1.77,26.08,26.08,0,0,1,11.62-8.06A57,57,0,0,1,308.67,633c4.75-.58,9.53-.44,14.29-.82a114,114,0,0,1,17.72-.21c8.78.67,17.55,1.6,26.34,2.18a14.6,14.6,0,0,1,9.67,4.36,24.28,24.28,0,0,1,4.84,6c1.17,2.26,2.86,2.84,5.29,2.85,30,.18,60,0,89.94.43,41.08.54,82.16-.05,123.24.67,14.52.26,29,.14,43.58.09,32-.12,64.1.21,96.16-.39,26-.49,52.07-.19,78.1-.6,31.43-.49,62.86-.18,94.29-.67,17.32-.27,34.65.34,51.93-1.39,11.68-1.17,23.27-2.83,34.57-6.09,9.41-2.72,18.44-6.33,26.45-12.12a7.2,7.2,0,0,1,1.34-.78,2.18,2.18,0,0,1,2.79.66,2,2,0,0,1-.18,2.84,14.71,14.71,0,0,1-2.42,1.94c-8.75,6-18.47,9.78-28.65,12.55-19.36,5.26-39.21,6.78-59.14,7.18-29.45.6-58.92,0-88.38.62-26.34.53-52.69.12-79,.61-22.92.44-45.85.31-68.78.29-57.79,0-115.57.13-173.36-.54-36.1-.42-72.21-.22-108.31-.3-1.46,0-2.91,0-4.36-.1-9.53-.63-19.08-.16-28.62-.26-1.83,0-2,.35-1.39,2.07,1.22,3.42,2.54,6.8,3.71,10.24,1.51,4.45,1,4.09,5.54,4.1q45.75.09,91.51.17c46.26.16,92.53-.18,138.8.39,32,.39,63.91,0,95.87.15,33.92.13,67.84-.36,101.76.52,11.41.3,22.82,0,34.22.58,9.11.43,18.25.37,27.37.58,14.72.35,29.44.66,44.14,1.51,10.46.6,20.88,1.61,31.33,2.3a122.45,122.45,0,0,1,32.27,6.17c3.93,1.36,7.77,2.88,11.57,4.56,5.22,2.31,10.28,4.94,15.29,7.68a6.54,6.54,0,0,0,3.78,1.23,2.85,2.85,0,0,1,3,1.83,4.35,4.35,0,0,0,2.74,2.4,8.4,8.4,0,0,1,4.93,3.38,4.11,4.11,0,0,0,1.23.94c3.73,2.22,6.73,5.57,11,6.95a2.25,2.25,0,0,1,.91.8c2.32,3,5.65,4.8,8.74,6.84a5.92,5.92,0,0,0,3.27.87c1.87,0,3.73,0,5.6,0,4.82,0,7.84-2.24,9.69-6.76a199.33,199.33,0,0,0,8.07-25.48c5.62-21.59,9.69-43.52,14-65.38.51-2.59.34-2.85-2.13-4.07a232.3,232.3,0,0,0-32.31-13c-11.14-3.57-22.24-7.24-34.09-7.95-4.94-.3-9.89-1.2-14.84-1.54-11.27-.77-22.56-1.42-33.85-1.86-14.92-.58-29.85-.93-44.77-1.34a164.59,164.59,0,0,1-25.36-2.53c-9.6-1.78-18.62-5-26.47-11a23.66,23.66,0,0,0-3.11-2.07c-1.44-.79-2.12-.41-2.21,1.25-.1,1.86,0,3.73,0,5.6-.13,4.87-2.4,7.21-7.25,7.51l-.62,0c-7.68,0-15.36,0-23-.08-4.76-.07-7-2.17-7.62-6.87-.22-1.84-.11-3.73-.22-5.59s-.48-2.34-2.4-2.51c-.62-.06-1.24,0-1.87,0-44.71-.12-89.42,0-134.13-.4-42.43-.39-84.87-.12-127.31-.24-46.06-.13-92.12.1-138.18-.37-42.12-.42-84.25-.08-126.37-.22a15.8,15.8,0,0,0-10.32,3.3,51.91,51.91,0,0,1-18.77,8.75,131,131,0,0,1-23,3.49c-11.58,1-23.22.52-34.82,1.15-7.66.41-15.34.28-23,.55-12.65.44-25.28.92-37.88,2.13a143.06,143.06,0,0,0-14.51,1.61c-20.23,4-39.58,10.83-58.33,19.39-3.1,1.41-3.67,2.6-3.07,5.87,3.29,18,6.83,36.06,11,53.94A289.63,289.63,0,0,0,105.74,708c2,5.49,5.27,8.41,11.2,8.32,4.09-.05,7.9-.28,11.37-3.09,4.92-4,10.18-7.5,15.38-11.12,4.85-3.37,9.6-7,14.76-9.79,4-2.18,8.13-4.11,12.2-6.15a126.13,126.13,0,0,1,48-13.26c11.16-.8,22.33-1.55,33.52-2.06C257.18,670.63,262.25,670.53,267.3,670.07ZM838.71,350v.13c9.23,0,18.46,0,27.69,0,1.41,0,2.15-.4,2.52-1.69.18-.59.42-1.17.61-1.76a41.14,41.14,0,0,1,19.13-23.6,129.34,129.34,0,0,1,16.48-8,255,255,0,0,1,29.9-9.6c25.32-6.63,51.11-10.79,77-14.78,3.07-.47,6.15-.91,9.21-1.44s3.23-.67,2-3.83c-.68-1.74-1.35-3.48-2.05-5.21-2.27-5.57-4.52-11.15-6.85-16.69-1.6-3.79-1.89-4-5.81-3.56-3.62.4-7.25.3-10.87.49-4.24.22-8.51.3-12.73.76-16.19,1.76-32.44,2.69-48.69,3.39q-16.79.72-33.59.69c-43.46-.06-86.92.06-130.38-.36-43.16-.41-86.32-.12-129.47-.25-45.95-.12-91.9.08-137.86-.36-47.4-.45-94.82-.17-142.23-.25-32.77-.06-65.55.3-98.32-.52-3.63-.09-7.27,0-10.89-.23-11.8-.69-23.61-1.07-35.38-2.18q-13.93-1.32-27.89-2.32c-5.37-.4-10.77-.51-16.15-.84a3.53,3.53,0,0,0-3.89,2.38c-.35.86-.78,1.69-1.17,2.54-2.85,6.34-5.35,12.82-7.86,19.3-2,5.08-2.34,4.46,3.09,5.34,22,3.59,44.05,6.94,65.81,11.84,17,3.83,33.87,8.2,50,14.92a87.84,87.84,0,0,1,20.37,11.25A33.15,33.15,0,0,1,311.22,339c1,2.48,2.17,4.94,3.09,7.47a3,3,0,0,0,3.2,2.33c1.76,0,3.51.34,5.27.35,21.78.19,43.55.25,65.33.5,44.61.53,89.22.19,133.83.32,45.64.13,91.28-.27,136.92.39,23.65.34,47.3.2,71,.09,29.34-.13,58.69.51,88-.4C824.8,349.84,831.76,350,838.71,350ZM588.93,4.72c-12.86-.13-25.71,0-38.57.43-7.67.26-15.34.25-23,.48-14.61.45-29.22.82-43.83,1.42-8,.32-16,.49-23.94.86C448.4,8.42,437.22,9,426,9.64c-8.18.44-16.36.84-24.53,1.38-10.65.71-21.3,1.5-31.94,2.31-8.58.65-17.17,1.28-25.73,2.09-12.8,1.21-25.59,2.48-38.33,4.19q-7.56,1-15.09,2.13c-1.3.2-2.41.42-3,2.1-4.21,11.26-8.52,22.5-12.47,33.86-.72,2-1.48,4.09-2.12,6.18-.58,1.9-.35,2.16,1.72,2.07,1.24-.06,2.47-.3,3.71-.39Q301.5,64,324.76,62.43q19.86-1.29,39.73-2.45c13.46-.76,26.92-1.33,40.38-2.14,4.45-.26,8.9-.41,13.36-.63,14.8-.73,29.6-1.54,44.41-2.24q14.6-.7,29.21-1.18c13.88-.47,27.77-.84,41.65-1.29,9.54-.3,19.09.17,28.61-.59,3-.24,3-.22,3.8-3,.47-1.59.92-3.2,1.53-4.73,2.9-7.29,7.56-13.18,14.64-16.69,3.13-1.56,5.69-3,7.2-6.51s6.09-3.42,8.3-.06a10.6,10.6,0,0,1,1.22,2.51,3.76,3.76,0,0,0,2.55,2.47,26.54,26.54,0,0,1,7.86,4.34A33.41,33.41,0,0,1,620.78,48.6c1,3.63,1,3.66,4.79,3.71,14.2.16,28.4.66,42.59,1.16,10.88.38,21.76.82,32.64,1.25,13.46.54,26.92,1.2,40.38,1.87q17.55.88,35.09,1.87,21,1.17,41.91,2.49c12.83.8,25.66,1.57,38.48,2.51,14.68,1.08,29.37,2.08,44.05,3.11,3.52.25,7,.54,10.55.69,2.72.12,2.87-.15,2-2.84,0-.1-.07-.2-.1-.3-4.35-13-9.1-25.82-13.93-38.62a3,3,0,0,0-2.6-2.26c-2.26-.29-4.5-.77-6.75-1.09-16.73-2.41-33.53-4.24-50.35-5.85-16.51-1.57-33.05-2.83-49.59-4.06-13.23-1-26.48-1.77-39.73-2.49-14.18-.77-28.37-1.39-42.56-2Q686.9,6.8,666.07,6c-6.94-.27-13.89-.26-20.83-.58-9.94-.45-19.9-.26-29.86-.63C606.58,4.46,597.75,4.72,588.93,4.72Zm413.43,250.59a1.63,1.63,0,0,0-1-1.21l-48.17-24a7.32,7.32,0,0,0-3-.78c-3.1-.14-6.21-.41-9.31-.46-12.45-.21-24.87-.83-37.31-1.2-13.16-.4-26.32-.88-39.48-1.25-13.68-.39-27.36-.86-41-1.25-14.72-.42-29.44-.72-44.15-1.27-7.67-.3-15.34-.18-23-.59-8.18-.43-16.38-.22-24.57-.62-8.9-.43-17.83-.22-26.74-.62-9.94-.46-19.9-.25-29.86-.62-13.16-.49-26.34-.52-39.5-.58-37.45-.18-74.9-.65-112.34.25-14.31.35-28.62,0-42.93.61-10.67.44-21.36.1-32,.6-10,.46-20.11.15-30.17.64-8.8.43-17.62.34-26.43.58-17.41.47-34.83.72-52.24,1.34-7.46.26-14.93.3-22.39.53-15.75.48-31.51.8-47.26,1.32-11.61.39-23.22.59-34.84.85a9,9,0,0,0-3.88.93Q206.82,240.24,183,252c-.58.28-1.47.32-1.53,1.35A23,23,0,0,0,187,254a116.38,116.38,0,0,1,13.34.84c15.57,1.72,31.19,2.7,46.83,3.45,10.77.51,21.56.69,32.34.8,33,.35,66,.06,99,.4,44.4.45,88.81.14,133.21.27,45.85.13,91.7-.27,137.55.39,23,.34,46.07.1,69.1.12l128.85.1h2.18c35.06-.07,70.12.78,105.15-1.38,6.52-.41,13-.79,19.55-1.39,7.84-.72,15.66-1.7,23.56-1.78C999.12,255.77,1000.65,255.49,1002.36,255.31ZM735,703.94v.16H760.5q48.07,0,96.17,0a20,20,0,0,1,8.42,1.78c4.63,2.09,9.32,4,14,6.07a9.83,9.83,0,0,0,3.91.89c5.29.06,10.58.28,15.85.33,24.07.2,48.14.12,72.21.13,3.36,0,3.54-.15,3.48-3.52-.15-8.6-.38-17.21-.61-25.81-.08-3-.11-3-3.1-3.55a127.24,127.24,0,0,0-13.92-1.3c-9.82-.71-19.63-1.65-29.46-2.18-11.39-.61-22.79-.92-34.19-1.28-8.49-.26-17-.19-25.5-.57-10.45-.47-20.94-.36-31.41-.61-28-.7-56-.33-84-.6-44.39-.44-88.8-.17-133.2-.27-48.13-.11-96.26.31-144.39-.44-8.61-.13-17.22,0-25.83,0q-22.41,0-44.82,0c-3,0-3.08,0-3.77,2.92a15.17,15.17,0,0,1-5.06,8c-4.31,3.79-9.46,6-14.81,7.69-12.74,4.12-25.93,5.56-39.22,6.15a195.37,195.37,0,0,1-31.06-1.11,121,121,0,0,1-24.63-5.09,40.52,40.52,0,0,1-11.41-5.6c-2.79-2.08-5.26-4.48-6.13-8s-1.52-3.12-4.32-3.07c-.63,0-1.25,0-1.87.05-10.66.59-21.33,1.13-32,1.79-5.38.34-10.75.84-16.12,1.34-3,.29-3.34.68-3.42,3.63-.23,8.19-.46,16.37-.59,24.56-.08,5.45-.35,5.11,5.06,5.12,28.95.08,57.89.07,86.84.12a13.07,13.07,0,0,0,5.4-1.19c4.65-2.06,9.36-4,14-6a19.73,19.73,0,0,1,7.55-1.56c5.09-.14,10.15.46,15.23.46q66.3,0,132.58.15c46.06.13,92.11-.11,138.17.37C654.68,704.27,694.83,703.94,735,703.94ZM941.66,224.26h5.91c4.89,0,7.52-2.46,7.73-7.32a39.65,39.65,0,0,0-1.74-12.58Q949,188.67,944.35,173q-8.94-30-17.93-59.9-5.62-18.76-11.25-37.54c-.94-3.12-1.4-3.42-4.57-3.65l-8.06-.59q-22-1.57-44-3.12-18.93-1.29-37.86-2.48-20.94-1.31-41.91-2.5-17.07-1-34.15-1.86c-13.36-.67-26.72-1.36-40.08-1.85-10.36-.39-20.72-.84-31.08-1.25-14.08-.54-28.18-1.1-42.28-1.23-30.38-.28-60.77-.62-91.16.27-15,.44-30.06.74-45.08,1.29q-15.7.59-31.39,1.23c-13.88.57-27.76,1.17-41.63,1.94-10.25.56-20.51.88-30.75,1.5-3.94.24-7.87.38-11.81.62-12.62.75-25.24,1.57-37.86,2.34-7.76.47-15.53.87-23.29,1.39-14.37,1-28.74,2-43.12,3-2.92.2-2.92.16-3.8,3.05L233.9,196.61a86.19,86.19,0,0,0-3.43,15.14,13.6,13.6,0,0,0,.34,6.15,6.8,6.8,0,0,0,6.78,4.9c2.27,0,4.55-.28,6.82-.36,7.05-.25,14.1-.31,21.15-.55,15.13-.51,30.26-.73,45.39-1.32,7.56-.29,15.13-.13,22.7-.57,8.17-.47,16.37-.17,24.56-.63,8.38-.46,16.79-.18,25.19-.61,9-.46,18-.18,27.05-.63,9.32-.47,18.66-.18,28-.62,10.46-.48,20.94-.19,31.41-.62,12-.5,24-.07,36.08-.63,7.56-.35,15.14-.2,22.72-.21q34.54-.06,69.09-.07c23.65,0,47.29,0,70.94.65,8.49.25,17,.11,25.5.51,9.63.46,19.28.16,28.92.65,8.07.41,16.17.35,24.25.58,16,.44,31.93.73,47.89,1.33,6.83.25,13.68.33,20.52.54q21.45.63,42.9,1.29c12.85.39,25.7.85,38.55,1.22Q919.44,223.38,941.66,224.26ZM718.25,461.83c16.49.06,33,.1,49.44-1.12,11.71-.87,23.32-2.16,34.61-5.64,9.11-2.81,17.53-6.81,24.81-13.13a63.88,63.88,0,0,0,18.43-26.52c5-13.62,9.72-27.35,14.54-41.05,2-5.67,4-11.36,5.87-17.06.64-1.91.38-2.18-1.55-2.32-.31,0-.63,0-.94,0q-24,0-47.93,0c-3.67,0-3.91.21-5.08,3.7-3.06,9.15-6.05,18.32-9.19,27.44-3.48,10.1-7.35,20-12.88,29.26-9.1,15.21-22.06,25.07-39.27,29.29a136.34,136.34,0,0,1-32.37,3.73q-54.47,0-108.93-.09c-44.08-.15-88.17.51-132.25-.43-6.63-.15-13.26,0-19.9-.58-9.75-.8-19.33-2.3-28.61-5.54a56.58,56.58,0,0,1-27.21-19.88A102.23,102.23,0,0,1,386,396.22c-4.78-12.84-9.07-25.83-13.15-38.9-1.09-3.48-1.13-3.49-4.76-3.49H323.94c-1.66,0-3.32,0-5-.07-1.33,0-2,.49-1.52,1.9.16.49.32,1,.49,1.47q8.82,25.75,17.63,51.51a81.28,81.28,0,0,0,9.26,19.61A62,62,0,0,0,369.88,450c8.81,4.18,18.16,6.49,27.7,8,15,2.39,30.14,3,45.26,3.15,34.76.28,69.51.15,104.26.24,49.69.13,99.37-.33,149.06.44C703.52,461.93,710.89,461.83,718.25,461.83ZM910.63,26.66a6.27,6.27,0,0,0,.78,3.43c5.35,14.37,11.06,28.61,14.94,43.5,2.09,8,5,15.83,7.39,23.76q12.72,41.82,25.34,83.67c2.94,9.72,6,19.41,7.21,29.57.77,6.69.2,12.88-5.78,17.15.13.76.66.94,1.1,1.17l51.23,25.58a6.09,6.09,0,0,0,3.31.6c7-.6,14.1-.43,21.15-.4a8.23,8.23,0,0,1,3.07.41,2.25,2.25,0,0,1-.22,4.34,3.82,3.82,0,0,1-1.53.17c-5.81-.9-11.6.22-17.4.15-3.32,0-3.34.11-2.05,3,.71,1.61,1.42,3.23,2.07,4.87,3.11,7.91,6.1,15.87,9.22,23.77,3.62,9.15,8,18,12,27,1,2.32,1.3,2.41,3.84,1.78a97.86,97.86,0,0,1,23.43-2.7,86.93,86.93,0,0,1,10.34.38c-1.78-2.34-3.2-4.24-4.64-6.11-3.22-4.2-6.83-8.15-9.6-12.62-5.34-8.64-10.26-17.54-15.25-26.39-2.14-3.79-4.73-7.34-6.24-11.47q-7.78-21.16-16.48-42c-11.09-26.51-23.06-52.61-36.25-78.16q-13.41-26-28.19-51.24C954,73.67,943.72,57.94,933.55,42.16a24.93,24.93,0,0,0-7.73-7.57c-3-1.88-6-3.67-9.12-5.36A20.17,20.17,0,0,0,910.63,26.66ZM536.39,443.21c36-.21,72,.54,108,.57.62,0,1.24,0,1.87,0,26.55-.23,53.11.68,79.65-.58,10.2-.48,20.24-2,29.83-5.61A51.26,51.26,0,0,0,777,423a88.78,88.78,0,0,0,15-25.64q3.19-8.1,6-16.35c2.59-7.55,5.06-15.14,7.5-22.74.75-2.33.5-2.7-1.8-2.65-5.6.11-11.19-.41-16.79-.42-44.71-.08-89.43-.06-134.14-.19-46-.13-91.91.11-137.87-.36-41.29-.43-82.58-.13-123.88-.15-3.32,0-6.64-.05-10-.09-4-.05-4.22.13-3,4,3.4,10.34,6.79,20.69,10.35,31a126.46,126.46,0,0,0,9.94,22.09c8.38,14.49,20.44,24,36.78,28a143.69,143.69,0,0,0,33.3,3.75C491.16,443.33,513.78,443.21,536.39,443.21Zm-311.67-217c-5.08-5.87-5.93-8.29-5.34-15.9a79.26,79.26,0,0,1,3-16.17c3.22-11.05,6.67-22,9.93-33.07,9.29-31.41,19.69-62.48,28.9-93.92,2.12-7.26,4.84-14.34,7.42-21.46,2.19-6,4.58-12,6.87-18,.24-.65.74-1.41,0-2-.55-.4-1.2,0-1.76.26a28.78,28.78,0,0,0-2.82,1.3c-2.9,1.62-5.77,3.28-8.65,4.93a27.86,27.86,0,0,0-9.84,9.31c-5.42,8.47-11,16.84-16.4,25.33q-23.76,37.46-43.95,77-16.2,31.56-30.25,64.14c-6,13.89-11.77,27.9-17.13,42.06-1,2.64-.89,2.76,2,2.78,6,.05,12-.12,18,.24a20.25,20.25,0,0,0,10.7-2.41c12.88-6.46,25.85-12.76,38.78-19.13C217.61,229.73,221,228,224.72,226.16ZM1119.44,466.8c.33-8,1.18-15.21.49-22.45a15.09,15.09,0,0,0-.9-5.17,68.66,68.66,0,0,1-5.07-17.27c-1.55-9-2-18.12-2.45-27.22-.27-5-.36-9.94-.59-14.9-.11-2.3-.45-4.57-2.07-6.38a17.89,17.89,0,0,1-3.09-6c-2.94-7.85-5.34-15.93-9.38-23.34-2-3.73-4-7.52-5.92-11.3a67.15,67.15,0,0,0-5.45-8.31,3,3,0,0,0-2.22-1.45,97.74,97.74,0,0,0-23.56-.2,65.47,65.47,0,0,0-11.63,2c-2.21.64-2.41,1-2.09,3.35,1,7.1,1,14.25,1.29,21.39.18,4.35-.15,8.7-.32,13.05a116.62,116.62,0,0,1-4.56,28.46,5.17,5.17,0,0,0,.12,3.3c2.74,8.27,5.41,16.55,8.15,24.82,2.51,7.57,4.94,15.18,7.94,22.58a14.94,14.94,0,0,0,8.67,8.8c9.46,3.73,19.2,6.63,29,9.4a54.33,54.33,0,0,0,7.64,1.38C1108.87,462.05,1114.35,462.64,1119.44,466.8ZM63.92,450.28h.14c0,3.22,0,6.43,0,9.64s.25,3.24,2.9,1.9a26.11,26.11,0,0,1,9-2.42c2.47-.28,4.94-.61,7.38-1,9.73-1.77,19-5.3,28.32-8.31,9.65-3.09,11.39-5,14.91-14.6,5.28-14.4,9.87-29,14.86-43.54a4.66,4.66,0,0,0,0-3,116.56,116.56,0,0,1-4.59-30,206.81,206.81,0,0,1,1.37-33.19c.2-1.63-.31-2.35-1.8-2.6-2-.35-4.07-.74-6.12-1-9.24-1.34-18.48-2.52-27.84-1.28a2.63,2.63,0,0,0-2,1.12c-.73,1-1.55,2-2.2,3-6,9.71-11.59,19.62-15.52,30.39-1.13,3.11-2.6,6.13-3.42,9.33a12.91,12.91,0,0,1-2.75,5.45,10.17,10.17,0,0,0-2.58,6.49c-.1,1.86-.4,3.72-.43,5.56-.12,9.54-1.14,19-2,28.52a71.55,71.55,0,0,1-4.68,21.16,37.25,37.25,0,0,0-2.93,16C64,448.62,63.92,449.45,63.92,450.28Zm811.25-99.94c.25,0,.66-.14,1.07-.21l64.31-11.29,65.24-11.45q15-2.64,30-5.32c2.86-.51,2.86-.58,1.76-3q-5.22-11.64-10.47-23.26c-1-2.31-1.36-2.48-3.81-2.07-17.18,2.85-34.42,5.27-51.54,8.52-18.85,3.59-37.58,7.68-55.77,13.93-9.62,3.3-19,7.12-27.59,12.74-7.33,4.79-11.71,11.56-14.43,19.65C873.6,349.57,873.49,350.43,875.17,350.34Zm-565.71-1.12a3.15,3.15,0,0,0-.1-2.54,35.94,35.94,0,0,0-15.95-20.34,132.61,132.61,0,0,0-24.56-11.26c-15.78-5.58-32-9.5-48.36-12.91-19.8-4.12-39.82-7.05-59.75-10.39-2.67-.45-3-.26-4.09,2.1q-2.86,6.21-5.7,12.44c-1.68,3.68-3.38,7.35-5,11.05-.81,1.84-.64,2.12,1.22,2.57.71.17,1.42.3,2.13.43l52.35,9.45,95.83,17.23Zm608.26-1.33a1.34,1.34,0,0,0,.72,1.09c11.24,9.25,15.08,26,4.58,40.15-.46.62-1.24,1.17-.9,2.17a8.79,8.79,0,0,0,3.38.25l104.51.11c1.35,0,2.7,0,4,.09,2.56.18,2.64.23,3.43-2.34a110,110,0,0,0,3.68-18.88c1-8.16.67-16.35.69-24.53a124.45,124.45,0,0,0-1.12-17.36c-.35-2.56-.46-2.55-2.9-2.13l-32.75,5.78q-40.43,7.11-80.83,14.23C922.05,346.9,919.76,347,917.72,347.89Zm-651.94-1.33c-.37-.6-1-.61-1.62-.71q-19-3.44-38-6.84-39.17-7-78.34-14.1c-4.91-.88-5-.93-5.36,4a232.41,232.41,0,0,0,0,41.29,95.21,95.21,0,0,0,3.32,17.07c.8,2.75.88,2.72,3.68,2.46.41,0,.83,0,1.24,0h25.51l82.45.14c.78,0,1.67.27,2.45-.7C250.54,373.7,251.89,359.43,265.78,346.56Zm67.78,346.87c5.92-.49,12.76-.46,19.57-1.17a126.92,126.92,0,0,0,24.7-4.64c4.56-1.41,9-3.08,12.91-6a13.66,13.66,0,0,0,4-4.28c1.78-3.26,1.28-4.17-2.32-4.22-4.37,0-4.51-.13-5.75-4.46A98.7,98.7,0,0,0,380,651.28a35.12,35.12,0,0,0-6.53-9.41,10.07,10.07,0,0,0-6.93-3c-4.23-.22-8.46-.77-12.7-1-7.13-.38-14.22-1.66-21.38-1.37q-11.81.46-23.59,1.29A57.08,57.08,0,0,0,301.2,639,23.43,23.43,0,0,0,284,652.5a78.05,78.05,0,0,0-3.31,8c-1.3,3.72-2.59,7.44-3.9,11.15a4.43,4.43,0,0,1-1.94,2.7c-2.71,1.51-2.91,2.69-.93,5.18a18.15,18.15,0,0,0,5.59,4.4,54.45,54.45,0,0,0,13.36,5C305.94,692.25,319.28,692.93,333.56,693.43ZM148.71,394.69a19.4,19.4,0,0,0,8.52,10.54,42.12,42.12,0,0,0,10,4.27c9.44,2.78,19.15,3.68,28.89,3.73,43.75.19,87.51.2,131.27.27.93,0,1.87,0,2.8,0,1.37-.06,1.82-.75,1.36-2.07q-2.77-7.92-5.52-15.85c-.3-.88-.68-1.56-1.78-1a7.9,7.9,0,0,1-3.67.43q-26-.06-51.95-.15c-32.45-.15-64.9.31-97.34-.44-6.43-.15-12.86,0-19.29,0A7,7,0,0,0,148.71,394.69Zm885.9,2.44a1.46,1.46,0,0,0-1.34-.55q-25.2-.07-50.39-.27c-39.32-.3-78.63-.09-118-.11-2,0-4,.29-5.86-.42-1.15-.44-1.5.22-1.8,1.06-1.85,5.17-3.73,10.33-5.52,15.53-.69,2-.4,2.26,1.83,2.37.93,0,1.87,0,2.8,0q65.36,0,130.71,0a110,110,0,0,0,21.06-1.51c5.8-1.12,11.56-2.46,16.81-5.4A22.07,22.07,0,0,0,1034.61,397.13Zm-929.08-82c.65.25.84.4,1,.39a136.79,136.79,0,0,1,31.2,3c1.8.37,2.64-.45,3.31-2,4.67-10.74,10.13-21.11,14.15-32.15,2.95-8.07,6.16-16.07,9.68-23.93.17-.38.33-.76.46-1.15a1,1,0,0,0-.79-1.38c-.6-.12-1.23-.1-1.85-.17-6.41-.71-12.85-.25-19.27-.49a1.85,1.85,0,0,0-2.11,1.32,32,32,0,0,1-2.2,4.8c-3.92,6.6-7.86,13.19-11.64,19.86-5.42,9.57-11.09,19-18.38,27.26C107.89,311.94,106.84,313.47,105.53,315.17Zm785.21,254c.25.66.26.91.4,1a40,40,0,0,0,20,8.67c10.4,1.29,20.88,1.4,31.33,1.78,13.14.47,26.3.83,39.45,1.24,10.87.34,21.74.65,32.61,1.2.12,0,.26-.26.51-.53a13.92,13.92,0,0,0-4.6-3.52c-5.88-3.25-12.29-4.9-18.84-6.12-11.76-2.2-23.68-2.7-35.58-3-20.52-.48-41-.53-61.56-.76ZM291,568.4a8,8,0,0,0-3.69-.39c-12.64-.31-25.27.46-37.91.42-15.95,0-31.91-.25-47.82,1.32a111.21,111.21,0,0,0-20.18,3.47,42.91,42.91,0,0,0-12.22,5.27c-1,.65-2.15,1.17-2.47,2.54a6.6,6.6,0,0,0,3.54.24c7.63-.8,15.31-.4,23-.93,6.92-.47,13.87-.28,20.81-.57,9.62-.4,19.26-.41,28.89-.72,8.8-.29,17.6-.52,26.36-1.41A40.22,40.22,0,0,0,291,568.4Zm-26.5-198.49c0,2.7,0,5.39,0,8.09a3.41,3.41,0,0,0,1,2.81c5,4.45,11,7,17.59,6.73,10.56-.47,17.54-9.1,16.58-19.65a17.32,17.32,0,0,0-16.12-15.4c-6.54-.29-12.17,2.05-17.28,5.92a4.22,4.22,0,0,0-1.81,3.73C264.58,364.73,264.53,367.32,264.52,369.91Zm654.14,1.46c0-2.7,0-5.4,0-8.09a4.25,4.25,0,0,0-1.87-3.7,32,32,0,0,0-10.6-5.06,17.65,17.65,0,0,0-22.6,17.69c.4,9.05,8.52,17.46,18.36,16.76a27.21,27.21,0,0,0,14.86-5.81,4.25,4.25,0,0,0,1.85-3.71C918.62,376.76,918.66,374.06,918.66,371.37ZM1088.8,220.64h-11.43c-3.74,0-7.43.65-11.15.93a3.46,3.46,0,0,0-3.35,3.09,14.11,14.11,0,0,0,0,6.17,363.78,363.78,0,0,0,14.51,47.23,53,53,0,0,0,5.94,11.26c2.3,3.36,5.23,5.12,9.48,4.54,4.51-.62,9.07-.92,13.6-1.47q25-3.06,49.84-7.33c7.55-1.29,15.2-2.14,22.36-5.2,2.39-1,2.5-.88,2.06-3.55q-1.44-8.74-3-17.47c-.58-3.37-.84-6.82-1.93-10.07-1.81-5.41-3.87-10.73-5.66-16.14-2.22-6.68-7-9.57-13.77-10.2-7.55-.72-15.12-.75-22.67-1C1118.85,220.89,1104,220.87,1088.8,220.64ZM282.87,579.26c.57.28,1-.09,1.47-.25,5.36-1.87,10-4.94,14.54-8.29a9.06,9.06,0,0,1,5.75-1.87c45.64.09,91.28.08,136.92.2,46.78.12,93.55-.09,140.33.37,44.5.44,89,.2,133.5.24q59.6,0,119.19.06a7.41,7.41,0,0,0,3.09-.25c-.54-.6-1.19-.36-1.77-.37-18.76-.3-37.53-.16-56.3-.38-34.85-.41-69.71-.16-104.56-.27-45.33-.15-90.65,0-136-.35-60.47-.44-120.95-.14-181.42-.17l-3.43,0q-26.29,0-52.59-.09a6.37,6.37,0,0,0-4.47,1.74,54.36,54.36,0,0,1-12.57,8.54C284,578.39,283.17,578.47,282.87,579.26ZM94.85,291.7c5.27.65,6.65-1.49,9.54-6.25a55.4,55.4,0,0,0,3.55-7.26c3-7.18,5.2-14.65,7.62-22,2.79-8.47,5.56-16.94,7.54-25.65a20.13,20.13,0,0,0,.32-8c-.43-2.39-1-2.85-3.5-3.1a155,155,0,0,0-17.65-.86c-20.74.22-41.48.07-62.21.82-3.63.13-7.24.33-10.86.67-6.2.58-10.59,3.46-12.88,9.56-4,10.51-7.49,21.09-8.9,32.29-.54,4.21-1.37,8.38-2.15,12.56A1.93,1.93,0,0,0,6.77,277c3.67,1.1,7.17,2.73,11,3.37,11.35,1.88,22.68,3.91,34,5.72C65.41,288.25,79.07,290.15,94.85,291.7Zm990,406.91-.41,0c-1.65,4.66-3.33,9.31-4.93,14a7.78,7.78,0,0,0-.18,2.47q0,55.51,0,111.05c0,.72,0,1.45,0,2.17a2.14,2.14,0,0,0,3.32,1.75c1.09-.67.82-1.81.85-2.81.16-8,.22-16,.4-23.93.42-19.07.11-38.14.63-57.21.41-14.72.22-29.45.29-44.17C1084.9,700.8,1084.89,699.71,1084.89,698.61Zm-10.64,21.53c-2.77,3-6.61,1.85-9,4.37-.28.3-1,.23-1.5.25-1.76,0-3.53.14-5.16-.78-1.22-.7-1.71-.17-1.71,1.09,0,3.32,0,6.64,0,10a3.28,3.28,0,0,0,1.78,3,9.07,9.07,0,0,0,4.68,1.44c2.39.06,2.89.55,2.91,2.27s-.6,2.29-3.14,2.35a9.32,9.32,0,0,1-4.27-.61c-1.37-.65-1.94,0-1.94,1.36,0,2.49,0,5,0,7.47a2.76,2.76,0,0,0,1.52,2.5,10.5,10.5,0,0,0,5.93,1.51c1.46,0,1.91,1,1.9,2.3s-.51,2.22-2,2.23c-1.85,0-3.73.28-5.5-.58-1.15-.55-1.83-.11-1.85,1.14,0,2.28,0,4.57,0,6.85a2.06,2.06,0,0,0,1,1.81c2,1.28,4.16,2.31,6.52,1.5a.77.77,0,0,0,.15-1c-1-1.51-.46-2.39,1-3.18,2.14-1.14,4.26-2.11,6.77-1.87,1.56.15,2.29-.61,2.27-2.2,0-2.59,0-5.19,0-7.78,0-1.59-.76-2.17-2.29-2.24-1.88-.09-3.41.79-5,1.61-1.36.71-2.09.18-2.7-1-.86-1.72-.85-2.29.57-3.09,2.16-1.22,4.29-2.45,6.94-2.5,2.14,0,2.36-.36,2.42-2.37.07-2.8,0-5.61,0-8.41,0-1.58-.74-2.18-2.27-2.25a10.28,10.28,0,0,0-5,1.52c-1.61.77-2.22-.3-2.88-1.45a1.75,1.75,0,0,1,.79-2.8c2.2-1.16,4.35-2.43,7-2.27,1.08.06,2.22-.18,2.27-1.55A31.4,31.4,0,0,0,1074.25,720.14ZM295.14,351.5c6.76,5.57,10,12.09,9.38,20.24s-4.89,14-11.7,18.35c9.31.22,18.43.23,27.55.22,3.72,0,3.77-.08,2.54-3.67-3.13-9.22-6.4-18.4-9.35-27.68-1-3.26-2.12-5.79-6.16-5.28a4.45,4.45,0,0,1-1.21-.23Zm592.19,2a5.09,5.09,0,0,0-3.28,0c-3.27.54-6.51,1.33-9.8,1.56-2,.14-2.87.7-3.5,2.59-3.46,10.3-7.06,20.54-10.6,30.81-1,2.91-1,3,2,3,8.91,0,17.81,0,26.71,0,.43,0,1.05.23,1.23-.65A22.08,22.08,0,0,1,878.85,373C878.18,365.17,881.53,358.82,887.33,353.54ZM119.59,769.09c2.51.85,4.56-.42,6.6-1.64a2.07,2.07,0,0,0,1.07-1.8c0-2.28.07-4.56,0-6.84,0-1-.63-1.56-1.65-1.09a11.62,11.62,0,0,1-5.18.72c-1.44,0-2.42-.43-2.48-2.08s.45-2.47,2.34-2.5a11,11,0,0,0,5.55-1.74,2.55,2.55,0,0,0,1.43-2.25c0-2.59,0-5.18,0-7.77,0-1.24-.73-1.69-1.87-1.16a10.38,10.38,0,0,1-5.2.6c-1.74-.11-2.25-.7-2.26-2.29s.47-2.11,2.24-2.29c.61-.07,1.25,0,1.86-.09,3.69-.52,5.26-2.28,5.28-5.9,0-2.59,0-5.18,0-7.78,0-2.31-.18-2.42-2.25-1.62a8.74,8.74,0,0,1-6.09.33,24.37,24.37,0,0,0-5.44-1.07c-4.14-.51-4.13-.55-4,3.64,0,.21,0,.42,0,.63.12,2.28.27,2.6,2.51,2.6a13.22,13.22,0,0,1,6.69,2.24c1.62.94,1.68,1.39.87,3-.65,1.29-1.46,2-3,1.15a9.06,9.06,0,0,0-4.09-1.35c-2.41-.06-3,.37-3,2.77s0,5,0,7.46.22,2.82,2.9,2.87,4.55,1.3,6.65,2.4a1.56,1.56,0,0,1,1,1.43,2.59,2.59,0,0,1-3.79,2.45,9.77,9.77,0,0,0-4.11-1.27c-2.15,0-2.58.35-2.65,2.48s-.06,4.35,0,6.53c.06,2.44.2,2.69,2.67,2.79,2.62.12,4.76,1.28,6.92,2.55a1.51,1.51,0,0,1,.8,2.06C119.69,767.81,119.22,768.33,119.59,769.09ZM99.35,706c0,2,0,3.92,0,5.87.26,15.14.2,30.28.51,45.42.42,20.94.24,41.89.75,62.83,0,1.87,0,3.74.06,5.6,0,1.42.73,2,2.14,2s2-.75,2-2.13c0-.93,0-1.87,0-2.8V769q0-24.75,0-49.48c0-1.24.28-2.58-.41-3.67C102.48,712.79,101.34,709.34,99.35,706Zm105.24.12a5.82,5.82,0,0,0-2.82,1c-6.54,2.9-13.08,5.8-19.77,8.33-4.94,1.86-9.84,3.93-15.18,4.36-1.51.12-1.91,1-1.9,2.26,0,4.55,0,9.09,0,14.44.69-2,1.84-2.1,2.94-2.38,12-3.08,23.18-8.32,34.54-13.12a3.34,3.34,0,0,0,2.21-3.36c.07-2.9.29-5.79.38-8.69A4,4,0,0,0,204.59,706.15Zm814.71,32.24c0-4.69,0-9.14,0-13.59,0-2.1-.22-2.3-2.31-2.43a32.5,32.5,0,0,1-8.44-2c-8.83-3-17.37-6.74-25.88-10.56-.91-.41-1.92-1.39-2.85-.72-1.14.83-.51,2.29-.5,3.49a2.22,2.22,0,0,0,.38,1.16,3.94,3.94,0,0,1,.23,3.85,8.84,8.84,0,0,0-.29,2.14,3.46,3.46,0,0,0,2.52,4.06c2,.69,3.8,1.65,5.72,2.44,9.56,4,19,8.28,29.14,10.67A4.78,4.78,0,0,1,1019.3,738.39ZM165,716.19c2.67-1.44,5.49-1.63,8.1-2.53,8.92-3,17.58-6.74,26.16-10.63,6.09-2.76,6.08-2.78,5.94-9.32-.06-2.94-.23-3.11-3-2.4-4.62,1.16-9.21,2.4-13.82,3.59-6.61,1.71-13.23,3.4-19.84,5.13-2.89.76-3.11,1.05-3.15,4.06,0,2.18-.11,4.34-.32,6.51C164.83,712.42,165,714.27,165,716.19Zm854.21,2.51a30.93,30.93,0,0,0-.14-6.13c-.17-2-.1-3.94-.14-5.91-.07-3-.18-3.23-3.18-4-6.71-1.76-13.45-3.47-20.17-5.21-4.51-1.17-9-2.39-13.54-3.52-2.69-.67-2.9-.49-3,2.17,0,1.24.12,2.49,0,3.73a4,4,0,0,0,2.89,4.51c2.22.85,4.35,2,6.54,2.89,9.24,3.94,18.35,8.26,28.24,10.45C1017.59,717.84,1018.13,718.54,1019.18,718.7Zm103.68-41.51h0c0-1.35,0-2.7,0-4,0-3.39,0-3.45-3.31-3.94-8.4-1.24-16.86-1.83-25.3-2.69-1.54-.15-2,.71-2.3,1.92-.72,3.12-1.47,6.24-2.14,9.38-.74,3.53.26,4.76,3.81,5,5,.33,9.9.74,14.85,1.1,3.81.28,7.63.6,11.45.76,2.51.1,2.83-.29,2.93-2.84C1122.91,680.29,1122.86,678.74,1122.86,677.19ZM1090,696h-.09c0,2.08-.07,4.16,0,6.23.08,1.91.28,2.08,2.27,2q10.41-.44,20.82-1c2.07-.1,4.13-.36,6.2-.55,3.15-.29,3.56-.7,3.62-3.77,0-1.65,0-3.31,0-5,0-4.18-.27-4.38-4.32-4.64-5-.32-9.92-.75-14.88-1.11-3.73-.28-7.45-.59-11.17-.74-2-.08-2.36.26-2.45,2.3S1090,693.93,1090,696ZM94.29,693.67h0c0-2,.06-3.94,0-5.9-.09-2.41-.57-2.9-3-2.81-3.1.11-6.19.39-9.29.62-6,.42-12,.84-17.95,1.31-2.05.15-2.42.56-2.51,2.73s0,4.14,0,6.21c0,3.67.29,3.95,4,4.34l.93.07c5.58.39,11.15.82,16.73,1.15,2.68.17,5.38.2,8.07.21,2.85,0,3.1-.31,3.11-3.28ZM156,763.85h0v61c0,.62,0,1.25,0,1.87,0,.78.52,1,1.23,1.09,1.45.14,1.85-.22,1.86-2,0-8.81.32-17.61.39-26.42.19-24.56.31-49.13.7-73.7.09-6.22.1-12.44.14-18.66,0-2.49.06-5,0-7.46-.08-1.91-.64-2.08-2.36-1.17-1.94,1-1.92,2.73-1.92,4.53Q156.06,733.38,156,763.85Zm-19.77-50.22c-3.34,1-4,3.3-4,6.32q.1,52.56,0,105.12c0,.52,0,1,0,1.56a1.12,1.12,0,0,0,.89,1.1c2,.6,3.24-.24,3.37-2.26,0-.73,0-1.46,0-2.18q0-53,0-106.06A8.78,8.78,0,0,0,136.27,713.63Zm891.9,53q0-29.53,0-59.07a21.27,21.27,0,0,0-.11-3.1c-.18-1.25-2.33-3.17-3.27-2.85-1.49.51-.76,1.92-.91,2.95a15.83,15.83,0,0,0,0,2.18c.21,15.23.25,30.45.48,45.68.36,23.62.26,47.25.72,70.87,0,1.35,0,2.69.06,4a10.36,10.36,0,0,0,.18,1.85,1.25,1.25,0,0,0,1.37,1,1.23,1.23,0,0,0,1.33-1.06,24.78,24.78,0,0,0,.17-3.1Q1028.19,796.32,1028.17,766.63ZM1122,495.5c-2.3,12.43-2.82,24.84-5.2,37-1.44,7.31-2.4,14.71-3.57,22.07-.52,3.27-1,6.55-1.54,9.82-.2,1.18,0,2,1.35,2.31q4.26.88,8.51,1.8c1.2.26,1.77-.26,1.84-1.43,0-.62.06-1.25.07-1.87.12-9.32,0-18.63.39-28,.44-9.84-.27-19.68-.65-29.5A67.85,67.85,0,0,0,1122,495.5ZM1048,718a7,7,0,0,0-.34,3.27q0,52.41,0,104.82c0,.83,0,1.66,0,2.49,0,1.59,1.15,1.71,2.39,1.74s2-.38,1.88-1.78c-.07-1.24,0-2.49,0-3.73q0-50.24,0-100.47C1052,721.29,1051.28,719,1048,718ZM164.84,752.64c3.55-1.54,6.87-1.9,9.95-3.14Q186.63,744.73,198,739c6.77-3.36,6.76-3.37,6.44-11-.1-2.44-.29-2.59-2.51-1.67-6,2.48-12,5.1-18.1,7.47-5.59,2.18-11.17,4.47-17.19,5.26a1.84,1.84,0,0,0-1.81,2.07C164.82,744.88,164.84,748.59,164.84,752.64Zm854.53,2.43c.14-4,.17-7.94-.07-11.85-.08-1.19-.88-1.52-1.91-1.58a30.08,30.08,0,0,1-7.25-1.68c-9.08-2.94-17.84-6.71-26.6-10.46-.76-.33-1.51-.67-2.3-.94s-1.43,0-1.44,1c0,2.07.06,4.15,0,6.21a3.67,3.67,0,0,0,2.42,3.87c5.06,2.37,10,4.9,15.11,7.29A117.75,117.75,0,0,0,1019.37,755.07ZM81.48,720.18c3.63,0,6.32,0,9,0,3.76,0,3.91-.17,3.93-3.79q0-3.25-.07-6.51c-.07-2.92-.22-3.1-3.21-3.3-5.57-.38-11.14-.69-16.71-1.05-3.51-.23-7-.52-10.52-.73-2.32-.14-2.43,0-2.48,2.35s0,4.76,0,7.14c.08,4,.3,4.24,4.28,5a18.5,18.5,0,0,0,1.84.24A104.91,104.91,0,0,0,81.48,720.18ZM61.36,674.6h0v5.29c0,1.49.65,2.36,2.25,2.29.52,0,1,0,1.55-.06l16.73-1.24c2.59-.19,5.17-.38,7.75-.6,2.39-.21,2.79-.66,2.31-2.88q-1.15-5.31-2.44-10.6c-.58-2.36-.8-2.55-3.17-2.44-2.9.15-5.79.4-8.67.72-4.64.51-9.27,1-13.88,1.7-2.21.32-2.34.6-2.43,2.85C61.31,671.28,61.36,672.94,61.36,674.6Zm1040.76,48.06v0c2.89,0,5.79.11,8.68,0a49.33,49.33,0,0,0,9.53-1.14c1.14-.28,2.27-.69,2.3-2.12q.11-5.12.09-10.23a1.6,1.6,0,0,0-1.76-1.73,16.51,16.51,0,0,0-1.86,0c-8.74,1-17.53,1.14-26.29,1.7-2.57.16-2.9.44-3,2.88-.12,2.89.16,5.79-.29,8.67-.23,1.55.72,2,2.06,2ZM164.69,762.09h0c0,1.14,0,2.28,0,3.42.12,2.26.61,2.72,2.91,2.46a41.16,41.16,0,0,0,7.91-1.63c9.64-3.1,17.9-8.49,25.7-14.85,3-2.44,2.86-5.23,2.67-8.33-.07-1.16-.83-1.32-1.77-.9-.66.29-1.31.63-2,.94-5.35,2.53-10.65,5.15-16.05,7.54a89,89,0,0,1-14.9,5.41c-1.44.35-3.39-.61-4.26,1-.73,1.35-.21,3.06-.28,4.61C164.68,761.88,164.69,762,164.69,762.09Zm854.83,2.64h-.08c0-1.45,0-2.9,0-4.35,0-1-.53-1.46-1.58-1.44-3.29.09-6.32-1-9.33-2.16-5.74-2.13-11.34-4.61-16.84-7.28-3.08-1.49-6.17-3-9.26-4.43-.7-.32-1.57-1-2.06.27-1,2.4.1,6.52,2.06,8.23a86.5,86.5,0,0,0,16.35,11.28,48.25,48.25,0,0,0,17.35,5.65c2.81.3,3.29-.17,3.39-3C1019.55,766.6,1019.52,765.66,1019.52,764.73Zm-958-35.42v1.25c0,5.08.38,5.62,5.45,6.29,8.57,1.13,17.17.79,25.76.17,1.61-.12,2.14-.94,2.11-2.43,0-2,0-3.94,0-5.91,0-3.74-.11-3.82-3.85-3.84H89.1c-7.35-.14-14.72.35-22-.6C61.52,723.52,61.51,723.58,61.51,729.31ZM1104.44,740c2.28,0,4.57.12,6.84,0a41.24,41.24,0,0,0,8.91-1.25c1.38-.4,2.49-1,2.49-2.74,0-2.69,0-5.39,0-8.08,0-1.55-.85-1.91-2.26-1.67a134.24,134.24,0,0,1-22.93,1.43c-1.86,0-3.71-.29-5.58-.34-2.07-.06-2.41.24-2.49,2.23-.09,2.38-.1,4.76-.06,7.15s.3,2.58,2.67,2.84A88.83,88.83,0,0,0,1104.44,740ZM62.22,496c-.73.32-.64.77-.66,1.15-.7,9.92-1.2,19.85-1.23,29.8,0,12,.68,24,.4,36.06,0,.42,0,.83,0,1.24,0,1.32.61,1.92,2,1.64,1.72-.36,3.46-.65,5.17-1.06,2.64-.63,2.86-1,2.72-3.59,0-.52-.07-1-.15-1.55-3-19.26-5-38.64-7.41-58C62.8,499.84,62.5,498,62.22,496Zm1061,142.07h0c0-1.87,0-3.73,0-5.6-.06-2.39-.39-2.88-2.76-3.36a89.21,89.21,0,0,0-17.94-1.5,2.3,2.3,0,0,0-2.62,2c-.71,3.88-1.54,7.73-2.25,11.6-.33,1.82,0,2.22,1.88,2.35,7.23.51,14.47,1,21.63,2.21,1.58.27,2.08-.43,2.07-1.84C1123.24,642,1123.25,640,1123.25,638.07Zm0,16.31c.08-2.93-.14-3.23-2.53-3.81-.4-.1-.8-.2-1.21-.27-6.84-1.1-13.77-1.38-20.66-2-2.18-.19-2.51.12-3,2.22-.58,2.41-1,4.85-1.54,7.28-.76,3.71-.76,3.85,3,4.21,7.81.74,15.63,1.44,23.41,2.49,1.54.21,2.09-.52,2.13-1.9C1122.92,659.74,1122.72,656.84,1123.23,654.38Zm-20.59,90.15c-3.72,0-7.45,0-11.17,0-1.14,0-2.11,0-2.12,1.53,0,3.62-.07,7.24-.06,10.87,0,1.3.77,1.85,2,1.69s2.26-.3,3.39-.47c8-1.22,16-2.28,23.74-4.6,4.09-1.23,4.18-1.45,4.2-5.61,0-.93,0-1.86,0-2.79.07-1.32-.35-2-1.8-1.61C1114.87,745.08,1108.74,744.71,1102.64,744.53ZM95,748.93h-.07c0-1.45,0-2.9,0-4.35-.07-2.84-.18-2.81-3.1-2.68-8.18.38-16.36.68-24.54-.2-1.79-.19-4-1.74-5.28-.37s-.23,3.77-.4,5.71a2.92,2.92,0,0,0,2.25,3.26c.79.27,1.56.59,2.36.81A208.21,208.21,0,0,0,92.76,756c1.79.24,2.12-.1,2.19-2.05C95,752.25,95,750.59,95,748.93ZM61,635.37c0,2.07,0,4.14,0,6.2,0,1.33.52,1.88,1.9,1.65,6.44-1.08,12.94-1.51,19.43-2.05,1.1-.09,1.81-.45,1.56-1.73-.81-4.16-1.61-8.32-2.44-12.48a2,2,0,0,0-2.16-1.82,72.45,72.45,0,0,0-16,1.48A2.57,2.57,0,0,0,61,629.47C61,631.43,61,633.4,61,635.37Zm1028.21,133.7c0,.62,0,1.24,0,1.86.07,3.31.36,3.55,3.66,3.05s6.76-1,10.12-1.59c5.4-1,10.81-1.93,16-3.92,3.59-1.38,3.73-1.68,3.74-5.42,0-1.25,0-2.49,0-3.73-.09-1.81-.32-2-2.08-1.49-8.56,2.55-17.36,3.84-26.17,5.12C1089.16,763.71,1089.16,763.74,1089.17,769.07ZM79.19,646.28a59.36,59.36,0,0,0-7.25.6c-2.57.31-5.16.53-7.71.94-3,.49-3.3.82-3.26,3.8,0,2.69.23,5.37.39,8.06.13,2.22.3,2.37,2.68,2.12,4.84-.49,9.67-1,14.51-1.53,1.86-.19,3.71-.36,5.57-.52,3.54-.29,3.77-.57,3.1-3.93-.43-2.13-.86-4.26-1.31-6.39-.77-3.69-.77-3.69-4.69-3.3C80.6,646.2,80,646.23,79.19,646.28ZM95,766.35c0-.41,0-.83,0-1.24-.07-3.93-.06-4-4-4.56a226.1,226.1,0,0,1-25-4.63c-4.36-1.16-4.36-1.16-4.36,3.5,0,5.13,0,5.16,4.8,6.81,7.59,2.59,15.48,3.78,23.37,4.91C95.12,771.92,95.13,771.79,95,766.35Zm864.7-544.91c1.85-1.52,1.84-3.62,1.92-5.66.23-6.61-1.15-13-2.92-19.29-3.4-12.07-7.05-24.06-10.68-36.06q-9.5-31.38-19.1-62.74c-2.3-7.53-4.71-15-7.1-22.53-.29-.93-.5-2.48-1.77-2.06s-.18,1.63.05,2.41q14.8,49.59,29.67,99.16c3,10.22,6.45,20.35,8.9,30.75C959.89,210.67,960.81,216,959.69,221.44Zm-733.84-1.9a33.82,33.82,0,0,1,0-9.32,82.41,82.41,0,0,1,2.67-12.14q8.38-27.69,16.78-55.38l20.58-67.88c.21-.69.43-1.39.6-2.09a.86.86,0,0,0-.4-1.06c-.48-.23-.82.1-1,.49-.42,1.06-.82,2.13-1.17,3.21q-14.89,46.51-29,93.28c-2.5,8.23-5,16.47-7.42,24.73A83.23,83.23,0,0,0,224,212.6C223.83,215.07,224,217.52,225.85,219.54ZM980.66,759c-.68,3.52-.53,6.53,2.8,8.56a16.48,16.48,0,0,1,2.09,1.85A72,72,0,0,0,1008.37,783a33.35,33.35,0,0,0,9.1,1.87c2,.12,2.34-.27,2.43-2.27q.11-2.18,0-4.35c-.12-2.46-.47-2.81-2.95-3a45.57,45.57,0,0,1-13.27-3,80.53,80.53,0,0,1-19.85-11.42C982.94,760.12,982.22,759.15,980.66,759Zm-777.08-3.12c-.63.37-.91.51-1.15.69-10.71,8.5-22.19,15.29-36.28,16.22a1.75,1.75,0,0,0-1.84,2c0,1.56,0,3.11,0,4.66,0,2.83.47,3.19,3.37,2.78a41,41,0,0,0,7.87-1.74c10.39-3.6,19.18-9.69,27-17.28a3.3,3.3,0,0,0,1.25-2.4A21.1,21.1,0,0,0,203.58,755.85Zm919.71-137.69h0c0-1.14,0-2.28,0-3.42,0-3.06-.07-3.19-3-4.28a83.16,83.16,0,0,0-12.89-3.48c-2.85-.57-3.12-.4-3.69,2.53-.65,3.36-1.26,6.72-1.87,10.08-.48,2.68-.41,2.9,2.23,3.14,5.88.54,11.81.45,17.61,1.75,1.09.24,1.55-.33,1.56-1.35C1123.31,621.48,1123.29,619.82,1123.29,618.16ZM858.68,574.79h-1.55c-3.52,0-7-.11-10.55-.06-2.16,0-2.48.42-2.6,2.57-.07,1.13,0,2.27,0,3.41.06,3.71.6,4.31,4.36,4.35,6.82.07,13.65.05,20.47.07a11.49,11.49,0,0,0,1.55-.07c1.9-.26,2.54-.86,2.67-2.76.11-1.55.08-3.1,0-4.65-.07-2.57-.28-2.81-2.9-2.84C866.33,574.75,862.5,574.79,858.68,574.79ZM980.84,772.07c0,1.25.06,2.28,0,3.29a5.16,5.16,0,0,0,2.17,4.55,97.57,97.57,0,0,0,22.38,14.42,41.42,41.42,0,0,0,11.89,3.45c2.17.26,2.59-.09,2.69-2.23a32.52,32.52,0,0,0,0-3.42c-.13-2.3-.22-2.41-2.54-2.57a44.54,44.54,0,0,1-13.82-3.35,78.71,78.71,0,0,1-19.77-12.15A7.83,7.83,0,0,0,980.84,772.07Zm-777.64-2.5c-.72-.1-1,.37-1.4.7a77.59,77.59,0,0,1-11.26,8.24c-6.74,4.18-13.91,7.43-21.88,8.26-4.5.47-4.44,0-4.43,5.31v.62c.1,2.56.21,2.64,2.69,2.41a36.17,36.17,0,0,0,11-3c8.05-3.46,15.1-8.48,22.07-13.72C203.29,775.92,203.82,773.1,203.2,769.57ZM126.87,800.2a3.12,3.12,0,0,0-2,.56,10.19,10.19,0,0,1-4.89.52c-1.44,0-2-.91-2-2.25s.39-2.25,1.89-2.3c.52,0,1,0,1.55-.07,4.31-.43,5.94-2.22,6-6.56,0-.93,0-1.86,0-2.79,0-1.26-.47-1.79-1.71-1.09-1.82,1-3.8.83-5.76.74-1.07-.05-1.83-.58-1.86-1.69a3.53,3.53,0,0,0-2.05-3.5,8.69,8.69,0,0,0-4.13-1.12c-1.5,0-2.34.63-2.31,2.22s0,3.11,0,4.66c-.07,1.71.7,2.47,2.38,2.48,2.07,0,3.73,1.18,5.44,2.14s1.69,1.5.93,3-1.44,1.89-3.22,1.09c-1.12-.51-2.15-1.27-3.47-1.24-.87,0-1.75.18-1.9,1.2a8.31,8.31,0,0,0,.13,4.59c.64,1.43,2.19.72,3.36.92,2.87.5,5.69,1.12,7.08,4.12a1.51,1.51,0,0,0,1.48.89C125.56,807,127.89,804.1,126.87,800.2Zm947.84-12.36v-1.25c0-3.22-1.11-4.11-4.22-3.15-1.61.5-3.51.89-4.11,2.91-1,3.3-1,3.28-4.26,3.23a8.62,8.62,0,0,1-3.33-.68c-1.14-.5-1.84-.14-1.87,1.13-.05,1.76,0,3.53,0,5.29a2.61,2.61,0,0,0,1.45,2.23,10.12,10.12,0,0,0,5.88,1.67c1.46-.06,2,.86,2,2.2s-.42,2.27-1.88,2.34a13,13,0,0,1-5.52-.53c-1.46-.56-1.83-.2-1.95,1.33-.19,2.34,1.22,4,4.1,4.58,1.3.27,2.76.63,3.13-1.41.11-.65.75-1,1.3-1.25,2.1-1.15,4.16-2.24,6.7-2.22,2.28,0,2.47-.34,2.58-2.53a17.46,17.46,0,0,0,0-2.17c-.15-1.67-.78-2.15-2.45-1.95a11.84,11.84,0,0,0-3.44,1.39c-1.59.74-2.24-.18-2.92-1.37s-.49-2.14.77-2.8a16.5,16.5,0,0,1,5.42-2.26c2.55-.36,2.55-.43,2.64-2.87C1074.72,789.08,1074.7,788.46,1074.71,787.84ZM609.62,51.77a6.1,6.1,0,0,0-.68-.58l-1.44-.56A16.35,16.35,0,0,1,597,38.89c-1-3.61-1.41-7.3-2.07-11-.25-1.41.18-3.76-1.67-3.75-1.24,0-1.15,2.33-1.32,3.74a58.74,58.74,0,0,1-2.5,12.45A15.38,15.38,0,0,1,580.76,50c-1.1.48-2.18,1-3.9,1.78Zm479.14,731.29V784c0,3.37,0,3.4,3.26,2.89a230.78,230.78,0,0,0,24.58-5c7-1.9,5.06-1.42,6-7.81.17-1.21-.31-1.76-1.63-1.31-2,.7-4.11,1.4-6.2,2a183.8,183.8,0,0,1-23.16,4.23c-2.78.38-2.79.34-2.83,3.21ZM95.43,781.71h0c0-.31,0-.62,0-.93-.22-3.85-.35-4-4.23-4.62-6.24-.94-12.48-1.87-18.63-3.29a70.69,70.69,0,0,1-8.94-2.55c-.74-.27-1.61-.77-2,.53-1.08,3.86.58,6.82,4.49,8A183.92,183.92,0,0,0,84.28,783c3,.59,6.12,1,9.17,1.55,1.3.23,2-.13,2-1.55C95.43,782.54,95.43,782.13,95.43,781.71ZM60.91,615.43h0c0,1.45,0,2.89,0,4.34.07,2.24.18,2.37,2.34,2a72.8,72.8,0,0,1,11.69-1.25,27.83,27.83,0,0,0,3.38-.41,1.51,1.51,0,0,0,1.47-1.93c-.71-4.07-1.48-8.13-2.2-12.19-.2-1.17-.8-1.57-2-1.32a76.14,76.14,0,0,0-12.8,3.62,2.7,2.7,0,0,0-1.93,2.82C60.94,612.54,60.91,614,60.91,615.43Zm1062.4-16.5h.09c0-1.65,0-3.31,0-5a3,3,0,0,0-2-3.13,107.36,107.36,0,0,0-11.5-3.78c-1.48-.4-2.14.21-2.38,1.58-.63,3.57-1.32,7.13-1.87,10.71-.3,1.93,0,2.34,2,2.8,4.64,1.08,9.29,2.1,13.82,3.6,1.47.48,1.88-.26,1.88-1.53Zm-34.6,197.3c0,.62,0,1.25,0,1.86.12,2,.33,2.24,2.24,1.77,9.56-2.33,19.12-4.67,28.35-8.14a9.26,9.26,0,0,0,2-1c.91-.64,1.4-3.11.82-4.32-.74-1.56-2-.64-3-.37a256.3,256.3,0,0,1-26.44,5.5C1088.7,792.23,1088.71,792.26,1088.71,796.23Zm-993.2-1.8c-.08-4.83-.09-4.77-4.42-5.52C86,788,80.91,787.1,75.85,786.05c-3.85-.8-7.64-1.83-11.46-2.75-.88-.22-1.85-.69-2.3.66a3.77,3.77,0,0,0,2.08,4.86c.94.42,1.93.74,2.9,1.09,8.31,2.93,16.83,5.08,25.37,7.18,2.88.71,3,.57,3.07-2.3Zm-34.7-198h.09c0,1.76,0,3.52,0,5.28,0,1.27.35,2,1.85,1.52a107,107,0,0,1,11.39-3.08c1.47-.32,2.25-1.07,2-2.57-.58-3.79-1.22-7.56-1.84-11.34A1.29,1.29,0,0,0,72.54,585a57.88,57.88,0,0,0-10,3.41,2.93,2.93,0,0,0-1.76,3C60.83,593.07,60.81,594.72,60.81,596.38Zm144.7,85.14c.12-1.81-.17-2.1-2-1.79-.21,0-.4.1-.6.14-12.63,2.44-24.3,7.41-35.59,13.38a6,6,0,0,0-1.06.65c-.4.33-.79.75-.47,1.32.23.41.67.42,1.09.33.81-.19,1.61-.37,2.41-.57l22.23-5.76c3.71-1,7.4-2,11.12-2.85,1.75-.42,2.77-1.26,2.68-3.17A9.37,9.37,0,0,1,205.51,681.52ZM122.08,275.78c2-.23,4,.56,5.26-1.57,1.89-3.32,3.84-6.61,5.77-9.9.71-1.22.46-1.84-1-2.06a102,102,0,0,1-11-2,1.59,1.59,0,0,0-2.2,1.09c-1.35,4-2.67,8-4,12-.39,1.17.06,1.79,1.26,1.9Zm943,1.83c1.66,0,3.32,0,5,0,1.24,0,1.64-.72,1.21-1.88-1.45-3.89-2.92-7.76-4.35-11.66a2,2,0,0,0-2.63-1.48c-3.43.8-6.88,1.54-10.31,2.36-1.61.38-1.79.84-1,2.46s1.9,3.45,2.93,5.13C1059.42,278.32,1057.78,277.81,1065,277.61Zm-46.85,420.45c-.24-.95-.9-1.09-1.42-1.37-4.29-2.31-8.65-4.44-13-6.58-6.46-3.14-13.32-5.11-20.11-7.31a19.29,19.29,0,0,0-3-.63c-1.66-.23-2,.09-2,1.83,0,3.51.53,4.29,3.93,5.18q16.23,4.23,32.46,8.41C1016,697.84,1016.91,698.38,1018.18,698.06ZM202.81,792.43c-3.5,2.64-6.79,5-10.21,7.12-8,5-16.43,8.88-25.8,10.35-2.88.46-2.68,1.55-2.64,3.59s.28,2.17,2.19,2a29.92,29.92,0,0,0,7.22-1.84c10.15-3.68,19.18-9.32,27.7-15.84C203,796.48,203.53,794.92,202.81,792.43Zm778.61,3c-.76,2.26-.17,3.71,1.49,4.87s3.47,2.63,5.25,3.88c7.69,5.36,15.74,10,24.78,12.74a30.32,30.32,0,0,0,5.14,1.16c.63.08,1.26.19,1.69-.43,1.18-1.65,0-4.74-2-5.11a65.27,65.27,0,0,1-9.06-2.17,89.61,89.61,0,0,1-23.5-12.53C984.07,797.06,983.07,796,981.42,795.47Zm-.18-10.34a4,4,0,0,0,1.34,4.78c8.93,7.2,18.5,13.25,29.58,16.6,1.78.53,3.61.9,5.44,1.26.8.17,1.67.23,2.16-.71a3,3,0,0,0-2.26-4.49,49.38,49.38,0,0,1-16-4.84,106.73,106.73,0,0,1-17.34-10.84C983.33,786.23,982.56,785.33,981.24,785.13Zm-817,17.26c-.12,2.69.35,3.18,2.77,2.7,13.48-2.66,24.68-9.75,35.13-18.26a2.87,2.87,0,0,0,1-2.47c0-.59.25-1.31-.48-1.63-.53-.24-1,.2-1.37.5-1.66,1.24-3.29,2.52-5,3.7-9.14,6.41-18.7,11.87-30.1,13.08A2,2,0,0,0,164.25,802.39Zm-71.69,3.05a16.09,16.09,0,0,0,1.84-.13c.9-.17,1-.89,1.06-1.66a1.15,1.15,0,0,0-1-1.3c-.51-.09-1-.2-1.52-.32-8.86-2.17-17.7-4.4-26.38-7.23-1.3-.42-2.83-1.87-4-.75s-.27,3-.16,4.47a6,6,0,0,0,.14.61,1.94,1.94,0,0,0,1.58,1.57C73.35,803.64,83,804.21,92.56,805.44ZM1092.34,808c8.81-1.28,18.28-1.62,27.35-4.55,1.34-.43,1.93-.94,2.1-2.15a23.1,23.1,0,0,0,.31-3.09c0-1.94-.3-2.19-2.21-1.6-3.06.95-6.1,2-9.17,2.94q-10.14,3-20.45,5.35c-.88.19-1.61.36-1.54,1.5s.79,1.58,1.85,1.59Zm-71.09-226.83a4.85,4.85,0,0,0,1.15,2.68c.57,1,1,2.1.33,3.22s-2,1.33-3.3,1.21c-10.43-1-20.91-1-31.37-1.51-11-.51-22-.43-32.95-.9-12.42-.54-24.88-.49-37.27-1.62-1.09-.1-2.2,0-3.3,0a103.07,103.07,0,0,0,10.82,1.51c9.4.87,18.85.79,28.27,1.13,12.84.46,25.69.73,38.54,1.3,9,.4,18,.87,27,1.85,2.37.25,4.74.53,7.12.69,2,.14,2.39-.46,1.48-2.09A20.82,20.82,0,0,0,1021.25,581.13Zm102.15-.85c0-1.45,0-2.89,0-4.33a2.28,2.28,0,0,0-2.09-2.57c-2.93-.59-5.85-1.2-8.76-1.89-1.53-.37-2,.34-2.27,1.67-.38,2.34-.77,4.68-1.25,7-.27,1.35.39,1.92,1.52,2.21a107,107,0,0,1,10.93,3.38c1.43.53,1.9-.16,1.91-1.45S1123.4,581.62,1123.4,580.28ZM359.72,450.34a8.45,8.45,0,0,0,.9.8c.77.52,1.56,1,2.36,1.49a88.16,88.16,0,0,0,26.08,9.87,175.57,175.57,0,0,0,36.77,3.62c38.17.23,76.35.17,114.52.21a6.57,6.57,0,0,0,3.25-.41h-3.27q-45.75,0-91.49-.05a377.06,377.06,0,0,1-45.94-2.42c-12-1.48-23.7-4-34.76-9.08C365.32,453.07,362.77,451.3,359.72,450.34Zm466.41-.94a8.66,8.66,0,0,0-3.2,1.56,80.73,80.73,0,0,1-9.31,5,104.69,104.69,0,0,1-26.9,7.48,276.59,276.59,0,0,1-42.15,3c-31.54.06-63.08,0-94.63-.06h-3.09a6.55,6.55,0,0,0,2.8.42q50.9,0,101.78.07A243,243,0,0,0,784,465.09a103.1,103.1,0,0,0,31-8.73A50,50,0,0,0,826.13,449.4ZM1074,295c1.72,0,3.07.08,4.4,0,1.56-.12,1.92-.71,1.08-2a65.09,65.09,0,0,1-5-9.24,2.19,2.19,0,0,0-2.16-1.44,43.86,43.86,0,0,0-8.34.37c-1.59.3-1.72.55-.9,2.05,1,1.9,2.35,3.67,3.21,5.65C1067.84,294,1070.05,296.31,1074,295ZM150.46,744.56l.57-.41c0-5,0-10.09,0-15.13,0-1.37-.88-1.59-1.86-.87a8.31,8.31,0,0,1-5.8,1.7c-1.67-.14-2.11.87-2.1,2.33,0,3.21,0,6.41,0,9.61,0,2.83.49,3.21,3.29,2.67a4.08,4.08,0,0,0,1.72-.65C147.85,742.59,149.24,742.59,150.46,744.56Zm882.69,3c2.35-2.28,2.37-2.31,5-1a7.73,7.73,0,0,0,3.31.61c1,0,1.49-.5,1.48-1.5V734.18c0-1-.46-1.59-1.5-1.48a9.88,9.88,0,0,1-6.37-1.92c-1.33-.84-1.87-.51-1.89,1.1C1033.11,736.93,1033.15,742,1033.15,747.55ZM60.81,577.4c0,1.45,0,2.91,0,4.36s.68,1.82,2,1.38c2.85-.94,5.7-1.9,8.57-2.79A2.05,2.05,0,0,0,73,577.81c-.38-2.35-.79-4.7-1.16-7.06-.22-1.35-1.11-1.68-2.27-1.44-2.33.48-4.65,1-7,1.55a2.2,2.2,0,0,0-1.81,2.5C60.82,574.71,60.81,576.06,60.81,577.4Zm44.47-285c3.7.24,6.76.46,9.82.64a2,2,0,0,0,1.74-1.14c2-3.29,3.92-6.59,5.83-9.91.58-1,.18-1.58-1-1.6q-3.89-.06-7.77-.09a2.37,2.37,0,0,0-2.31,1.28C109.81,285.18,108.18,288.85,105.28,292.42Zm48.65,296a5.37,5.37,0,0,0,1.16.21c13.69-1.71,27.46-2.15,41.22-2.78,6.42-.3,12.84-.2,19.26-.51,9.41-.45,18.85-.27,28.27-.65a227.3,227.3,0,0,0,23.1-1.62,3.93,3.93,0,0,0-2.37-.21c-7.65.35-15.3.77-23,1.09-6.83.28-13.67.15-20.5.53-8.17.45-16.36.32-24.54.61-11.29.41-22.58.54-33.85,1.33a8.17,8.17,0,0,1-1.85-.06c-2-.36-2.82-1.69-2.1-3.61a22.4,22.4,0,0,1,1.08-2.13A15.65,15.65,0,0,0,153.93,588.45Zm910.8,196.18a2.84,2.84,0,0,0-.08-1c-1-1.68-.28-2.58,1.26-3.4,1.94-1,3.84-2,6.1-2a5.27,5.27,0,0,0,1.53-.2c1.15-.34,1.24-1.35,1.13-2.27-.21-1.77.94-3.94-.84-5.22-2.08-1.51-7,.82-7.52,3.36s-.55,2.52-2.93,2.58a12.46,12.46,0,0,1-3.7-.24c-2.77-.75-2.78-.74-2.82,2.24,0,.82,0,1.65.06,2.48a2.2,2.2,0,0,0,.89,1.89C1059.89,784.19,1062,785.49,1064.73,784.63ZM119.5,782.08c4.66.77,8.86-1.34,7.86-7.2-.31-1.78-.46-2.08-2.12-1.44a13.53,13.53,0,0,1-5.2.53,1.93,1.93,0,0,1-2.09-1.82c-.56-2.71-2.19-4.09-5-4.44s-3.35.2-3.43,2.88c0,.73,0,1.45,0,2.18.08,2.58.2,2.83,2.87,2.87s4.72,1.42,6.9,2.58a1.37,1.37,0,0,1,.68,1.84A3.3,3.3,0,0,0,119.5,782.08ZM151,724.86c0-4.71.07-9.41,0-14.11,0-1.46-1.18-1.29-2-.67a8.51,8.51,0,0,1-5.79,1.73c-1.52-.1-1.92.88-1.91,2.19,0,2.9,0,5.79,0,8.68,0,2.18.69,2.69,2.88,2.42a3.85,3.85,0,0,0,1.75-.56C147.62,723.25,149.18,723,151,724.86ZM1033.18,728c2.53-2.16,2.56-2.2,4.78-1a7.47,7.47,0,0,0,3.26.83c1.15.06,1.75-.35,1.74-1.57q0-5,0-9.92c0-1.45-.73-2.12-2.11-2a8.36,8.36,0,0,1-5.8-1.71c-1-.74-1.83-.42-1.84.91C1033.16,718.11,1033.18,722.73,1033.18,728ZM601.49,31.05c-1-.08-1.21.46-1.11,1.16A35.7,35.7,0,0,0,602,39.14a10.8,10.8,0,0,0,7,7c1.27.44,2.54.87,3.84,1.22.66.17,1.42.68,2,.05s.13-1.37-.13-2A26.83,26.83,0,0,0,603.32,32C602.7,31.59,602,31.31,601.49,31.05Zm-15,.64c0-.73-.77-.71-1.67-.3-6.63,3-10.57,8.43-13.17,15-.37.93.09,1.33,1.08,1.27C580.35,47.15,586.76,40,586.54,31.69Zm446.6,732.15.48.5c1.27-2.39,2.82-2.35,4.63-1a5.27,5.27,0,0,0,3,.58c1.18.08,1.71-.44,1.7-1.62q0-4.35,0-8.7c0-1.23-.6-1.69-1.74-1.57a8.44,8.44,0,0,1-5.82-1.66c-1.72-1.17-2.19-.92-2.23,1.05C1033.1,755.57,1033.14,759.7,1033.14,763.84Zm-882.72-2.43L151,761c0-4.22.05-8.45,0-12.67,0-1.55-1.06-1.3-1.93-.67a8.75,8.75,0,0,1-6.11,1.84c-1.44-.13-1.73.72-1.72,1.93,0,2.48,0,5,0,7.46s.41,2.84,2.93,2.5a4,4,0,0,0,2-.7C147.78,759.48,149.2,759.3,150.42,761.41Zm956.89-413.27-1.84.11c-1.11.06-1.49.65-1.11,1.65q2.66,7.11,5.35,14.19a2,2,0,0,0,2.5,1.27c1.75-.28,2.48-1.17,2.34-3.36a39.92,39.92,0,0,0-2.22-10.57C1111.25,348.36,1110.89,348.11,1107.31,348.14ZM77.38,345.74c-3.27,0-3.59.18-4.66,3.34a42.18,42.18,0,0,0-2.19,10.6c-.16,2.17.88,3.37,2.7,3.24,1.42-.1,1.83-1.19,2.25-2.25,1.48-3.75,2.93-7.51,4.39-11.27C81.18,346,81,345.77,77.38,345.74Zm956,434.17c2.22-2.22,2.24-2.25,4.71-1a8,8,0,0,0,3,.63c1.31.11,1.92-.4,1.89-1.75,0-2.38,0-4.76,0-7.14,0-1.35-.56-1.91-1.86-1.75a8.28,8.28,0,0,1-5.82-1.67,1.74,1.74,0,0,0-1.92-.42Zm-882.87-3,.57-.45c0-3.71.05-7.42,0-11.13,0-1.53-.6-1.8-2-.83a8.7,8.7,0,0,1-6.08,1.84c-1.17-.14-1.71.43-1.69,1.62,0,2.07,0,4.14,0,6.21,0,2.84.54,3.25,3.31,2.66a4,4,0,0,0,1.71-.68C147.88,774.94,149.26,775.05,150.49,777ZM69.38,807.16l-.13.3c.62.34,1.22.69,1.85,1a76.59,76.59,0,0,0,14,5.12c2.8.74,5.63,1.35,8.45,2,.6.13,1.35.34,1.7-.31a6,6,0,0,0,.26-3.94c-.19-1.23-1.32-1.1-2.22-1.2-4-.42-8-.78-12-1.28S73.33,807.73,69.38,807.16Zm1045.55,2.63c-8,1.37-16,2.25-24,3-2.33.22-2.53.62-2.35,3.34.13,2.07.44,2.37,2.46,2a98.54,98.54,0,0,0,17.27-5A33.15,33.15,0,0,0,1114.93,809.79Zm4.38-445.7c-.54,4.17-3.5,5.11-6.52,6.32a20.36,20.36,0,0,1,2.6,6.39c.6,3,1.72,3.49,4.46,2.11a5.2,5.2,0,0,0,2.89-4.77C1122.91,370.58,1121.47,367.58,1119.31,364.09Zm-1053.5-2c-2.41,3.32-3.57,6.34-3.63,8.85-.08,2.94,1.2,5,3.65,5.83,2.1.72,2.91.37,3.36-1.76a18.75,18.75,0,0,1,1.94-5.85c.55-1,.24-1.52-.73-1.89C68.2,366.44,66.3,365.27,65.81,362.11Zm967.67,429.3c1.51-1.95,3-2.3,4.59-.83a1.57,1.57,0,0,0,.54.29c3.15,1.23,4.34.46,4.35-2.85,0-.62,0-1.24,0-1.85.09-1.36-.56-1.91-1.86-1.75a8.17,8.17,0,0,1-5.8-1.66,1.85,1.85,0,0,0-2-.4A39.33,39.33,0,0,0,1033.48,791.41Zm-883-2.71.64-.36c0-2.26,0-4.52,0-6.78s-.44-2.49-2.29-1.32A8.67,8.67,0,0,1,143.9,782c-2.61,0-2.61.07-2.64,2.79,0,.42,0,.83,0,1.24,0,2.81.59,3.26,3.32,2.6a4.74,4.74,0,0,0,1.69-.73C147.89,786.59,149.26,786.78,150.44,788.7Zm882.72,13.86.55.86c1.22-2.86,2.77-2.31,4.39-1.16a4.62,4.62,0,0,0,3,.67c1.07,0,1.91-.45,1.82-1.62-.12-1.67.74-3.49-.63-5a.79.79,0,0,0-.58-.14,10.19,10.19,0,0,1-7-2.07c-1-.7-1.53,0-1.54,1C1033.15,797.63,1033.16,800.09,1033.16,802.56Zm-882.1-2.09c0-2.86.07-5.23,0-7.59-.07-1.77-.56-2-2.1-1.1s-2.92,1.86-4.8,1.92c-2.89.1-2.89.18-2.88,3.19,0,.52,0,1,0,1.55,0,1.44.69,2,2.09,2a5.57,5.57,0,0,0,2.64-.73C148.48,798.36,148.49,798.39,151.06,800.47Zm911,18c.83-.06,1.83.1,2-1,.15-1.4,1.26-1.76,2.2-2.35a11.32,11.32,0,0,1,6.79-1.68c1.12.06,1.69-.6,1.69-1.73,0-1,0-1.86-1.13-2.28-2.48-.91-6.23.62-7.21,3.17a2.27,2.27,0,0,1-2.27,1.67,11.21,11.21,0,0,1-5.44-.81c-1.32-.61-1.85-.09-1.72,1.39a2,2,0,0,0,.68,1.65A10,10,0,0,0,1062,818.51ZM112.48,806.43c-1.89-.08-2.9.12-3,1.72s.36,2.17,2.06,2.42a7,7,0,0,1,1.23.09c2.86,1,6.45.82,7.29,4.84.1.5.61.48,1,.5a4.54,4.54,0,0,0,2.4-.46,24.42,24.42,0,0,0,3-1.66,2.13,2.13,0,0,0,.62-2.79c-.56-1-1.45-.22-2.14.07a10.16,10.16,0,0,1-4.88.51,2.12,2.12,0,0,1-2.11-1.49C117,807.16,114.3,807,112.48,806.43Zm81.72,2.11-2.07,1.28c-7.89,4.86-16.15,8.8-25.37,10.43a7.41,7.41,0,0,0-1.77.55,1.31,1.31,0,0,0-.71,1.56,1.13,1.13,0,0,0,1.35,1,20.67,20.67,0,0,0,3-.59C178.29,820.08,186.61,815,194.2,808.54Zm796.13,3.53c1.41,1,2.8,2.07,4.24,3,6.73,4.51,13.73,8.44,21.67,10.42,2.6.64,3.64.43,3.67-.76.05-2.06-1.77-1.77-2.93-2a62.42,62.42,0,0,1-16.33-5.67C997.22,815.44,993.91,813.56,990.33,812.07Zm42.83,1.68c2.48-2.46,2.51-2.51,4.88-1.11,1.33.79,2.77,1.27,4.1.55s.69-2.42.78-3.69-.67-1.93-1.92-1.85a8.89,8.89,0,0,1-5.84-1.61c-1.33-.91-1.89-.59-2,1C1033.09,809,1033.16,811.09,1033.16,813.75ZM151,811.22c0-2.65.09-4.71,0-6.76-.08-1.53-.73-1.9-2-1a8.94,8.94,0,0,1-5.82,1.74c-.74-.06-1.55.08-1.74,1-.29,1.32-.6,2.84.11,3.94s2.28.46,3.47.35a3.69,3.69,0,0,0,1.14-.46C148.63,808.8,148.62,808.8,151,811.22Zm-.29,10.15a22.25,22.25,0,0,0-.11-8.5c-2.75,1.77-5.39,3.15-8.53,2.75a.89.89,0,0,0-.67.52c-.24,1.52-.68,3.25.17,4.51.73,1.09,2.28.4,3.47.2a2.06,2.06,0,0,0,.84-.38C147.58,819.15,149.17,818.87,150.75,821.37Zm882.84,2.35c1.31-2.47,2.78-1.9,4.31-.84a5,5,0,0,0,2.94.79c.61,0,1.39.23,1.74-.35.71-1.22.42-2.61.26-3.92s-1.23-1.29-2.16-1.23a8.13,8.13,0,0,1-5.47-1.77c-.47-.34-1-.82-1.83-.44A22.09,22.09,0,0,0,1033.59,823.72Zm-915,4.07h0c2.17,0,4.35,0,6.52,0,.75,0,1.72.39,2.18-.62a.89.89,0,0,0-.2-.83c-.74-.51-1.38,0-2,.34a8.59,8.59,0,0,1-3.94.63c-1.64,0-3.19-.18-3.19-2.41,0-.39,0-.93-.61-.89-2,.15-3.37-1.46-5.17-1.89s-2.48.08-2.62,1.91c0,.52,0,1,0,1.55-.08,1.58.67,2.26,2.23,2.23C114,827.76,116.29,827.79,118.56,827.79Zm946.91,2.49h0c2.39,0,4.78.07,7.16,0,1.88-.08,2.29-.82,2.06-3.29-.16-1.66-.74-2.2-2.4-2.05-2,.18-3.59,1.59-5.52,2-.2,0-.42.49-.43.76-.1,2.05-1.53,2.14-3.07,2.2a10.41,10.41,0,0,1-5.12-1.07c-.37-.19-.84-.18-1,.32a.73.73,0,0,0,.57,1,6.05,6.05,0,0,0,1.53.19C1061.32,830.29,1063.4,830.28,1065.47,830.28Zm-51.07-.17c-8.17-2.36-15.48-6.54-22.73-10.82C997.54,826.48,1005.22,829.87,1014.4,830.11Zm-843.19-3.05c7.51.69,18.27-4.85,22-11.23a119.17,119.17,0,0,1-10.53,6.41A81.76,81.76,0,0,1,171.21,827.06ZM872.16,569.68a240.64,240.64,0,0,0-26.86-.3C854.23,570.6,863.19,569.92,872.16,569.68Zm-726.07,258v.09c.83,0,1.66,0,2.49,0,2.48-.06,2.87-.56,2.48-3-.19-1.17-.83-1.45-1.71-.84a10,10,0,0,1-7,2.07c-.4,0-.87.1-.91.63a.86.86,0,0,0,.9,1C143.61,827.75,144.85,827.71,146.09,827.71Zm891.59,2.56v0c1.34,0,2.68,0,4,0,.55,0,1.06-.3,1-.91s-.62-.74-1.15-.7a8.06,8.06,0,0,1-5.85-1.47c-.6-.48-1.34-1.31-2.17-.73s-.4,1.53-.46,2.33c-.08,1,.43,1.54,1.46,1.53ZM894.52,578.59a134.27,134.27,0,0,1-11.19-8.66c-1.42-1.23-3.19-.82-4.91-.28,2.75.26,4.64,2.06,6.69,3.52A41.59,41.59,0,0,0,894.52,578.59ZM81.85,817.86a38.27,38.27,0,0,0,11.58,4.22c.58.13,1.43.3,1.63-.41.33-1.13-.77-1-1.39-1.15C89.75,819.6,85.79,818.84,81.85,817.86Zm1019.2,2.84-11.1,2.49a1.36,1.36,0,0,0-.55.24c-.15.12-.36.37-.32.47a1.16,1.16,0,0,0,.52.67,2.48,2.48,0,0,0,1.21.07A27,27,0,0,0,1101.05,820.7ZM871.3,564c-8.2-.55-16.46-.39-24.72-.21C854.8,564.33,863,563.84,871.3,564Zm203,255.16a.79.79,0,0,0-.49-.86c-1.66-.68-6,.59-7.14,2.12a1,1,0,0,0-.14.85c.2.49.69.41,1,.23a12.84,12.84,0,0,1,5.88-1.77A.82.82,0,0,0,1074.3,819.18ZM112,815.58a9.38,9.38,0,0,0-1.18.08c-.4.06-.86.2-.89.69,0,.67.49.89,1,.86a9.81,9.81,0,0,1,5.48,1.68c.42.24,1,.49,1.29-.16s-.12-1-.58-1.27A9.61,9.61,0,0,0,112,815.58Zm945.53,6.75a6.4,6.4,0,0,0,6.14,2.53c.5,0,1.17-.07,1.19-.73,0-.84-.72-.92-1.32-.9A16.27,16.27,0,0,1,1057.52,822.33Zm-930.83-2.49a18,18,0,0,1-6.33.9c-.53,0-1.11.16-1.09.8s.66.71,1.17.76A7.14,7.14,0,0,0,126.69,819.84ZM259.82,365.19c-1.21,4.53-1.17,6.18,0,9.37Z"/><path d="M1110.51,504.73a2.16,2.16,0,0,1-2.61,2.31,12.37,12.37,0,0,1-2.93-1A227,227,0,0,0,1064,492.29c-8.68-2-17.49-3.47-26.33-4.66-10.5-1.42-21.05-2.19-31.59-2.9-9.1-.61-18.24-.7-27.36-.89-6.64-.14-13.28,0-19.92-.11-46-.83-91.91-.29-137.87-.43-44.41-.13-88.82.19-133.22-.26-46.89-.47-93.78-.23-140.68-.36-44.19-.12-88.4.18-132.59-.26-46.9-.47-93.79-.16-140.68-.39-26-.13-52.08-.28-78.12.13-14.3.23-28.61,1-42.84,2.5a268.28,268.28,0,0,0-47,8.84,241.14,241.14,0,0,0-28.06,10.21,15.18,15.18,0,0,1-2.94,1,2.18,2.18,0,0,1-1.75-3.87,11.6,11.6,0,0,1,2.46-1.31,242.18,242.18,0,0,1,41.87-13.91,277.84,277.84,0,0,1,30.36-5.08c11.54-1.3,23.11-2.12,34.72-2.62,7.78-.34,15.55-.29,23.33-.56,20.22-.69,40.45-.56,60.67-.29,46.48.62,93,.24,139.43.37,44,.13,88-.18,132,.26,47.1.48,94.2.23,141.29.37,44.1.12,88.2-.19,132.29.26,47.1.47,94.2.17,141.3.38,8.19,0,16.4-.11,24.59.2,14.08.55,28.17.88,42.24,2.07a342.67,342.67,0,0,1,41.85,5.92,222.27,222.27,0,0,1,29,8.27c6,2.13,11.75,4.68,17.61,7.07C1109.22,502.7,1110.37,503.24,1110.51,504.73Z"/><path d="M152.13,417.59c0-1.76,0-2.8,0-3.84,0-1.36.44-2.48,2-2.75,1.27-.22,2.39.8,2.58,2.51.31,2.78.43,5.57.69,8.36a49.39,49.39,0,0,0,6.58,21.19,40,40,0,0,0,18.74,16.22,68.78,68.78,0,0,0,22.6,5.27c11.3.86,22.6.38,33.9.49,20.22.21,40.45-.21,60.67.21,21.67.45,43.34.1,65,.48a16.72,16.72,0,0,1,3.08.27,1.94,1.94,0,0,1,1.67,2,2.19,2.19,0,0,1-1.43,2.2,7.87,7.87,0,0,1-4.29.41,47.34,47.34,0,0,0-7.14-.3c-38.79-.08-77.58,0-116.36-.33-10.47-.09-20.95,0-31.41-.4-11-.41-21.61-2.37-31.47-7.57-11.78-6.21-19.16-15.92-22.81-28.56A75.19,75.19,0,0,1,152.13,417.59Z"/><path d="M896.88,471.46H818.47a21.41,21.41,0,0,1-3.4-.19,2,2,0,0,1-1.7-1.95A2,2,0,0,1,815,467a21.94,21.94,0,0,1,3.72-.22h145.3a136,136,0,0,0,20.47-1.27c8.69-1.33,17-3.9,24.16-9.21,9.07-6.7,14.11-15.84,16.23-26.71a64,64,0,0,0,1.4-12.35,10.3,10.3,0,0,1,.42-2.75,2.07,2.07,0,0,1,2.06-1.59,2.19,2.19,0,0,1,2.2,1.84,3.9,3.9,0,0,1,.2,1.22c-.49,10.43-1.91,20.63-7.12,29.95-5.51,9.87-13.77,16.46-24.19,20.45-10,3.83-20.47,5.1-31.13,5.08Q932.82,471.42,896.88,471.46Z"/><path d="M412.54,621.16c9,0,18,.13,27.07,0,58.5-1,117-.36,175.5-.52,16.81,0,33.62-.18,50.41.21,21.68.51,43.36.1,65,.64,15.25.38,30.5.1,45.73.61,12.23.4,24.48.13,36.7.62,9.95.4,19.91.13,29.85.62,8.61.42,17.21.31,25.81.57,13.37.4,26.74.75,40.1,1.25,14.09.53,28.18,1.07,42.25,1.87,12.94.73,25.88,1.45,38.75,3,2.37.28,4.72.67,7.07,1.08A2.27,2.27,0,0,1,999,633.6c-.1,1.34-1.26,2.2-3,2-3.3-.39-6.58-.87-9.88-1.2-11.76-1.19-23.55-1.93-35.36-2.53q-14.13-.72-28.26-1.28c-12.23-.49-24.45-.85-36.68-1.24-17.2-.54-34.41-.85-51.62-1.3-10.57-.28-21.15-.15-31.72-.57-13.89-.56-27.79-.17-41.67-.65-15.56-.54-31.11-.21-46.66-.57-29.56-.69-59.12-.21-88.68-.67-42.42-.66-84.84-.45-127.26-.21-28.83.17-57.67,0-86.5.58-16.79.32-33.6.12-50.39.62-11.71.36-23.44.13-35.14.61-9.54.39-19.08.26-28.61.6-13.68.48-27.36.81-41,1.25q-19.89.66-39.76,1.89c-9.93.62-19.87,1.26-29.72,2.73a7.27,7.27,0,0,1-1.86.1,2.1,2.1,0,0,1-2-1.72,2.07,2.07,0,0,1,1.3-2.53,10.6,10.6,0,0,1,2.7-.68c6.29-.67,12.57-1.46,18.87-1.91q19.54-1.38,39.13-2.1c12-.44,24-.82,36.05-1.25,8.4-.3,16.81-.18,25.19-.61,10-.5,20.12-.19,30.16-.6,14.1-.59,28.22-.13,42.3-.67C390.14,621.27,401.34,621.61,412.54,621.16Z"/><path d="M929.42,666.66c11-.06,23.24.37,35.43,1.36,18.65,1.51,37,4.57,54.73,10.9a145.36,145.36,0,0,1,48.25,28.3,13.1,13.1,0,0,1,2,2,2.07,2.07,0,0,1-.17,2.84,2,2,0,0,1-2.82.33,15.71,15.71,0,0,1-1.69-1.36c-21.31-18.92-46.41-29.73-74.21-34.82a285.2,285.2,0,0,0-33.63-3.89c-6.63-.42-13.27-.27-19.89-.65-8.81-.5-17.61-.23-26.42-.36a9.2,9.2,0,0,1-2.16-.2,2,2,0,0,1-1.62-2,2.11,2.11,0,0,1,1.47-2.15,7.35,7.35,0,0,1,2.76-.29Z"/><path d="M929.39,208.84c0,7-3.06,10.82-9.83,12.26a35.4,35.4,0,0,1-9.59.3c-7.55-.44-15.13-.57-22.69-.87-13.36-.53-26.73-.95-40.1-1.4-5.49-.19-11-.26-16.48-.48-15.33-.59-30.67-.9-46-1.39-7.25-.22-14.52-.15-21.76-.56-8.71-.49-17.43-.21-26.12-.66-8.4-.43-16.81-.17-25.19-.59-10.16-.51-20.33-.2-30.48-.64-12.34-.54-24.68-.25-37-.59-32-.87-64.11-.44-96.16-.28-16.79.09-33.6.15-50.39.62-11.72.33-23.44.13-35.15.6-10.68.43-21.37.16-32,.63-9.54.41-19.09.17-28.61.62-9,.41-18.05.18-27.06.62-8.19.4-16.38.29-24.56.58q-22.69.79-45.4,1.27c-10.57.23-21.13.79-31.7,1.16a31.8,31.8,0,0,1-6.81-.4c-7.56-1.35-10.51-6.79-9.93-13.76a49.19,49.19,0,0,1,2.2-10c5.35-18,10.93-35.9,16.61-53.79,5.18-16.31,10.3-32.63,16.22-48.69,2.35-6.35,6.47-10.1,13.07-11.48a159.13,159.13,0,0,1,21-2.69q22.32-1.68,44.7-2.73c8.28-.37,16.56-.82,24.85-1.21,14.91-.69,29.82-1.36,44.74-1.91,10.57-.38,21.14-.83,31.7-1.21,13.06-.47,26.12-.85,39.17-1.31,6.84-.24,13.69-.18,20.52-.55,9.64-.53,19.29-.25,28.92-.65,18.36-.75,36.72-.47,55.07-.23,8.29.11,16.59.25,24.88.52,12.95.42,25.9.81,38.86,1.26q16,.55,32,1.21,15.08.6,30.14,1.26,19.89.89,39.76,1.84c11.91.59,23.82,1.16,35.72,1.9q22.5,1.38,45,3.07a145.23,145.23,0,0,1,18.81,2.39,33,33,0,0,1,6.52,2A12.71,12.71,0,0,1,893,90.7c2.29,4.22,3.63,8.82,5.18,13.32,7.39,21.48,13.9,43.23,20.56,64.94q4.34,14.13,8.48,28.31C928.32,201,929.42,204.84,929.39,208.84Zm-340.68.52c25-.09,50-.51,75,.36,10.68.37,21.36.08,32,.59,9.42.45,18.87.15,28.3.62,8.59.44,17.21.16,25.81.64,7.45.41,14.92.36,22.38.57,15.14.43,30.27.75,45.4,1.34,6.21.24,12.43.36,18.65.53,14.41.39,28.81.91,43.21,1.42,8.81.31,17.61.78,26.41,1.11,3.63.13,7.27.3,10.89.1,6.1-.35,8.45-3.3,7.85-9.41a14.24,14.24,0,0,0-.3-1.83c-.6-2.53-1.13-5.07-1.86-7.55q-9.19-31.18-19-62.18c-4.16-13.26-8.37-26.5-13.14-39.55-1.66-4.54-4.57-7.29-9.28-8.17-.72-.13-1.42-.33-2.13-.47-9.28-1.86-18.72-2.34-28.12-3-12.92-1-25.85-1.74-38.79-2.49-12-.7-24-1.3-36-1.89q-20.49-1-41-1.86c-12.22-.51-24.45-.92-36.67-1.38l-17.72-.64c-1.57-.06-3,0-4.22,1.39-5.49,6-12.27,8.78-20.48,8.74-30.18-.14-60.37-.09-90.56-.1-12.86,0-25.72.16-38.58.42-7,.14-13.55-1.81-18.26-7.15-2.56-2.91-4.9-3.71-8.71-3.55-13,.55-25.9.94-38.85,1.4-10.05.37-20.1.8-30.15,1.19q-21.75.85-43.5,1.92c-8.07.39-16.15.83-24.22,1.22q-20.82,1-41.59,2.7a121,121,0,0,0-16.61,2.35,11.15,11.15,0,0,0-8.73,7.55c-1.21,3.42-2.55,6.79-3.73,10.23C284.3,128,277,151.8,269.61,175.57c-2.67,8.61-5.14,17.29-7.71,25.93a21.13,21.13,0,0,0-.62,7.71A5.7,5.7,0,0,0,266,214.7a20,20,0,0,0,7.09.68c7.64-.75,15.33-.62,23-1,14.39-.66,28.81-.91,43.21-1.33,7.88-.23,15.76-.13,23.64-.55,8.9-.48,17.82-.18,26.74-.64s17.83-.2,26.74-.6c10.36-.47,20.73-.21,31.1-.65,10.77-.46,21.56-.18,32.35-.59,13.57-.51,27.16-.4,40.74-.61C543.27,209.11,566,209.36,588.71,209.36ZM670.93,76a9.56,9.56,0,0,0-1.11-.28c-13.88-.43-27.76-.91-41.64-1.26-8-.2-16-.24-24-.23-21.25,0-42.51-.23-63.76.62-8.69.34-17.4.45-26.11.69-.68,0-1.47-.22-2,.53.13,1.18,1.15,1.64,1.94,2.23,3.57,2.64,7.66,3.44,12,3.42q28.63-.13,57.25-.16,35.94,0,71.87.06a24.56,24.56,0,0,0,6.79-.67C665.39,80,668.44,78.88,670.93,76Z"/><path d="M565.43,360c38.48,0,77-.26,115.45.11,18.35.17,36.7.09,55.06.29,7,.08,11,4,11,11.05q.06,26.91-.05,53.82c0,6.45-3.72,10.21-10.16,10.61-1,.06-2.08,0-3.11,0-33.51,0-67,.26-100.51-.14-46.36-.56-92.72-.19-139.08-.38-15.14-.07-30.29-.07-45.43-.1a19,19,0,0,1-4.63-.4c-4.66-1.14-7.34-4.13-7.86-8.88a26.86,26.86,0,0,1-.08-3.11q0-25.2.08-50.4a19.91,19.91,0,0,1,.52-4.93,9.61,9.61,0,0,1,9.29-7.77c.83,0,1.66,0,2.49,0l98.33.06h18.67Zm49.33,70.73v.15h16.81l102.36.07c1,0,2.08,0,3.11-.05,3.34-.24,4.87-1.74,5.19-5,.07-.72,0-1.45,0-2.18q0-25.2.06-50.39c0-6.67-1.59-8.23-8.27-8.25l-51.33-.09c-32.05,0-64.1,0-96.15-.1q-19.74-.06-39.49-.25c-33.08-.36-66.17-.17-99.26-.17-4.88,0-6.63,1.72-6.71,6.5-.15,8.7,0,17.41-.35,26.11-.34,8.49-.08,17-.06,25.51a17.52,17.52,0,0,0,.23,3.4c.6,2.88,2,4,4.89,4.3.62.06,1.25.06,1.87.06,16.07.18,32.14.16,48.21.3C535.52,430.93,575.15,430.71,614.76,430.71Z"/><path d="M768.43,392.23c5.52.08,10.06,5.13,9.56,10.33a9.5,9.5,0,0,1-11,8.68,14.93,14.93,0,0,1-3.8-1.28c-2.76-1.3-4.55-3.15-4.09-6.51a13.81,13.81,0,0,0,0-3.4c-.37-3.06,1.26-4.84,3.72-6.15A13.37,13.37,0,0,1,768.43,392.23Zm-2.51,9.5h.13c0-.82,0-1.64,0-2.45,0-.52-.11-1.11-.74-1.14a1.57,1.57,0,0,0-1,.53c-.74.88-.76,5.27-.07,6.22a1.07,1.07,0,0,0,1,.5.87.87,0,0,0,.67-.91C765.94,403.56,765.92,402.64,765.92,401.73Zm5.48-3.12a13.58,13.58,0,0,0-.67,6c.1.91.75.9,1.3.4C773.86,403.39,773.65,400.7,771.4,398.61Z"/><path d="M925.23,351.72c-1.51,0-2.65-.8-2.7-2a2.23,2.23,0,0,1,1.92-2.46q4.26-.88,8.55-1.62l89.5-15.22c3.68-.62,7.35-1.27,11-1.89a8.29,8.29,0,0,1,1.85-.18,2.09,2.09,0,0,1,2.19,1.81,2.16,2.16,0,0,1-1.44,2.48,11.6,11.6,0,0,1-2.4.62q-52.4,9-104.81,17.91C927.69,351.38,926.46,351.54,925.23,351.72Z"/><path d="M931.4,360.8a15.55,15.55,0,0,1-1.77-.12,2.14,2.14,0,0,1-.76-3.85,5.11,5.11,0,0,1,2.64-.8l39.81-5,42.27-5.31q10.18-1.29,20.36-2.55c2.44-.3,3.78.38,4,1.91s-.77,2.45-3.38,2.81c-5.64.79-11.31,1.46-17,2.17l-32.72,4.05-38,4.71Z"/><path d="M1033.28,357.29a15.13,15.13,0,0,1,2.15.13,2,2,0,0,1,1.76,1.89,2,2,0,0,1-1.34,2.22,6.54,6.54,0,0,1-1.8.41q-9.43.93-18.87,1.83l-30.93,2.89-22.59,2.09L937.53,371c-1.13.11-2.27.22-3.41.25-2.41.05-3.51-.56-3.65-2s.94-2.33,3.18-2.65c1.13-.16,2.26-.33,3.39-.43,12.17-1.12,24.34-2.2,36.51-3.33s24.33-2.32,36.5-3.46C1017.68,358.69,1025.32,358,1033.28,357.29Z"/><path d="M1025.06,372.06c2.28,0,4.57,0,6.84,0s3.41.64,3.47,2.17-1,2.43-3.24,2.54c-6.32.29-12.64.47-19,.74-12.43.54-24.85,1.12-37.28,1.65-7.15.3-14.3.54-21.45.8q-9.63.35-19.27.69c-1,0-2.07,0-3.11,0a2.13,2.13,0,0,1-2.27-2.08c-.08-1.4.87-2,2.07-2.33a9.51,9.51,0,0,1,1.85-.18c11.5-.45,23-.8,34.5-1.35q15.52-.74,31.07-1.26c8.6-.28,17.19-.79,25.78-1.2Z"/><path d="M979.07,386.05h48.19a18.35,18.35,0,0,1,3.4.25,2.11,2.11,0,0,1,1.81,2.21,2.19,2.19,0,0,1-1.6,2.08,10.67,10.67,0,0,1-3.69.41c-7.14.1-14.29-.32-21.43-.36-24.87-.13-49.75-.08-74.62-.11a25.79,25.79,0,0,1-3.41-.15,2.08,2.08,0,0,1-2-2,2.13,2.13,0,0,1,2-2.31,19.94,19.94,0,0,1,3.1-.14h48.19Z"/><path d="M257.6,350.14c-4-.68-8.07-1.37-12.15-2.09l-95.26-16.71c-.71-.12-1.42-.29-2.12-.48a2.33,2.33,0,0,1-2-2.66c.14-1.34,1.27-2,3.06-1.87.52,0,1,.18,1.53.27l70.14,12.29q18.23,3.19,36.44,6.43a15.23,15.23,0,0,1,2.13.46,2.12,2.12,0,0,1,1.65,2.33,2.17,2.17,0,0,1-2.33,2Z"/><path d="M149,341.15c5.4.69,10.65,1.34,15.89,2l36.7,4.77,41.94,5.45c2.57.33,5.15.59,7.72.92a17,17,0,0,1,2.44.48c1.23.34,2.06,1.09,1.86,2.46a2.33,2.33,0,0,1-2.41,2,10.58,10.58,0,0,1-2.16-.19q-28.08-3.58-56.15-7.2l-44.11-5.68a26.16,26.16,0,0,1-3.06-.56,2.33,2.33,0,0,1-2.07-2.36c0-1.16,1.09-2,2.63-2.12A7.08,7.08,0,0,1,149,341.15Z"/><path d="M204.22,384.18h47.6a24.19,24.19,0,0,1,3.41.16c1.35.19,2.37.91,2.31,2.44,0,1.35-1,2-2.22,2.18a15.89,15.89,0,0,1-2.48.16c-19.19,0-38.38.31-57.55-.1-13.17-.28-26.33-.09-39.5-.29a18.72,18.72,0,0,1-3.09-.19,2,2,0,0,1-1.75-2.23,2,2,0,0,1,1.65-2,18.34,18.34,0,0,1,3.4-.23q24.1,0,48.22,0Z"/><path d="M151.92,355.44l21.89,2.12,22.88,2.26q14.53,1.43,29.07,2.86c7.32.72,14.64,1.41,22,2.12,1,.1,2.07.17,3.09.37,1.35.27,2.35,1,2.17,2.54a2.34,2.34,0,0,1-2.67,2.09c-2.27-.1-4.54-.35-6.8-.58q-18.56-1.8-37.11-3.64-20.88-2.07-41.74-4.15c-4.85-.48-9.7-.92-14.54-1.39a10.85,10.85,0,0,1-2.14-.34,2.19,2.19,0,0,1-1.72-2.58,2.06,2.06,0,0,1,2.18-1.82C149.47,355.26,150.51,355.38,151.92,355.44Z"/><path d="M247.9,379.1c-14.18-.6-28.37-1.14-42.55-1.82-8.59-.42-17.18-.88-25.77-1.18-9.22-.31-18.43-.81-27.64-1.25a9.48,9.48,0,0,1-2.43-.45,2,2,0,0,1-1.51-2.12,2.28,2.28,0,0,1,1.61-2.09A8,8,0,0,1,153,370l23.6,1.13c11.38.55,22.77,1.15,34.15,1.67,7.35.33,14.71.55,22.06.84,5.49.22,11,.45,16.46.72a12.91,12.91,0,0,1,2.76.44,2,2,0,0,1,1.65,2,2.08,2.08,0,0,1-1.76,2.25,38,38,0,0,1-4,.3Z"/><path d="M358.4,641c7.82.26,14.08,4.19,17.8,11.65s3.09,15.2-2,22-11.88,9.42-20.23,8.05a30.86,30.86,0,0,1-15.21-7.31,5.62,5.62,0,0,1-2.23-4.55c0-5.9,0-11.81,0-17.71a5.42,5.42,0,0,1,2.05-4.34C344.14,644.11,350.36,641.13,358.4,641Zm-16.9,20.86c0,2.49,0,5,0,7.45a3.86,3.86,0,0,0,1.38,3.31c4.52,3.57,9.63,5.8,15.41,5.7,8-.15,14.48-6.56,15.38-14.8a16.16,16.16,0,0,0-11.77-17.22c-7.35-1.85-13.61.87-19.3,5.33a3.56,3.56,0,0,0-1.1,3.09Z"/><path d="M289.85,662.21v-8.39a4.68,4.68,0,0,1,1.25-3.71c6.86-6.25,14.81-9.68,24.15-7.94a20.3,20.3,0,0,1,16.18,23.56,20.74,20.74,0,0,1-23.69,16.58,31.88,31.88,0,0,1-15.15-6.76,6.59,6.59,0,0,1-2.78-5.88c.15-2.48,0-5,0-7.46Zm5-.16h0c0,2.07.13,4.15,0,6.21a5.19,5.19,0,0,0,2.74,5.12,27.74,27.74,0,0,0,11.22,4.32,16,16,0,0,0,18-12.59,15.55,15.55,0,0,0-11.18-18c-7.43-2.1-13.81.65-19.69,5a3.17,3.17,0,0,0-1.08,2.79C294.81,657.29,294.82,659.67,294.82,662.05Z"/><path d="M292.83,395.91c6.33,0,12.66,0,19,0,4.37,0,5,.68,4.92,5.13q0,2.18-.09,4.35c-.09,3.69-.75,4.41-4.36,4.43-5.61,0-11.21,0-16.81,0l-21.16-.09c-.83,0-1.67,0-2.49-.05-2.18-.21-3-.92-3.09-3.12s-.11-4.56,0-6.84c.09-3.14.77-3.85,3.9-3.87,6.75,0,13.49,0,20.23,0Zm.46,4.65v-.05H277.74c-.72,0-1.45,0-2.17,0a1.76,1.76,0,0,0-1.86,2c0,1.2.48,2,1.75,2.14.92.09,1.86.09,2.79.1,4.67,0,9.34-.11,14,.18,5.7.35,11.4.15,17.09.18,1.95,0,2.58-.92,2.57-3,0-1.84-1.37-1.53-2.44-1.54C304.07,400.54,298.68,400.56,293.29,400.56Z"/><path d="M890.43,411.09c-6.42,0-12.84,0-19.26,0-3.92,0-4.69-.77-4.77-4.72a50.31,50.31,0,0,1,.15-5.89c.26-2.57,1-3.2,3.59-3.29,2.06-.07,4.14,0,6.21,0h31.37c.83,0,1.66,0,2.49,0,3.55.08,4.19.7,4.23,4.15,0,2,0,3.94,0,5.9-.07,3.2-.69,3.87-3.82,3.91s-6.42,0-9.63,0Zm0-4.66H906c3.38,0,3.75-.22,3.79-2.21,0-2.15-.35-2.4-3.94-2.4H874.12c-1.28,0-2.54,0-2.73,1.76-.22,2,.36,2.81,2.57,2.83C879.45,406.46,884.94,406.43,890.44,406.43Z"/><path d="M1109.33,223c10.17,0,20.34-.11,30.5,0a130.9,130.9,0,0,1,15.82,1,15.45,15.45,0,0,1,12.39,8.81c3.8,7.67,6,15.9,7.78,24.22.73,3.34,1.26,6.73,1.75,10.11,1.09,7.42-1.77,11.94-8.93,14.15-5,1.54-10.17,2-15.29,2.78q-27.52,4.2-55.12,7.82a28.59,28.59,0,0,1-4,.24,11.47,11.47,0,0,1-10.56-6,73.08,73.08,0,0,1-5.41-11.88c-4.2-11.49-8-23.1-11.79-34.75a40.69,40.69,0,0,1-1.47-5.72c-1-5.7,1.68-9.43,7.36-10.62a23.26,23.26,0,0,1,4.64-.38l16.18,0h16.18Zm-4.42,4.55q-13.68,0-27.36,0a16.33,16.33,0,0,0-4.92.57c-2.44.74-3.4,2.08-3.07,4.63a24.05,24.05,0,0,0,.94,3.92c3.41,11,7.18,21.85,11,32.71a86.23,86.23,0,0,0,5.66,13.45c2.07,3.76,4.58,5.11,8.66,4.61,5.24-.64,10.48-1.3,15.71-2q20.46-2.91,40.91-5.91c5-.75,10.08-1.25,15-2.66,4.61-1.33,6.31-3.89,5.57-8.58-.71-4.5-1.49-9-2.48-13.44a108.15,108.15,0,0,0-5.72-18.05,12.33,12.33,0,0,0-11.06-8.18c-7.34-.71-14.7-.65-22-.94C1122.75,227.27,1113.83,227.54,1104.91,227.54Z"/><path d="M76.41,220.56c10.58,0,21.16,0,31.74,0a38.51,38.51,0,0,1,5.57.46c5.52.84,8.36,4.59,7.65,10.09a24.38,24.38,0,0,1-1,4.54c-4.35,13.41-8.68,26.84-13.88,40a62.9,62.9,0,0,1-3.75,7.86c-2.37,4.18-5.87,6.49-10.92,6.34-6.25-.19-12.37-1.29-18.52-2.17-16-2.3-32-4.8-48-7.23a52.4,52.4,0,0,1-8.2-1.8c-6.79-2.21-9.64-6.67-8.6-13.79.52-3.58,1.18-7.16,1.93-10.71a134.9,134.9,0,0,1,6.05-20.24c2.06-5.35,5.18-9.71,10.88-11.62A32.67,32.67,0,0,1,36,221C49.44,220.13,62.93,220.49,76.41,220.56Zm-5.93,4.54c-9.34-.42-19.7.38-30.07.46a90.11,90.11,0,0,0-9,.64,11.17,11.17,0,0,0-8.24,5,23.67,23.67,0,0,0-2.59,5.3,138,138,0,0,0-7.43,29.18c-.63,4.38.93,6.91,5.11,8.36a43.59,43.59,0,0,0,7.89,1.73c17.64,2.66,35.27,5.34,52.92,7.92a111.76,111.76,0,0,0,12.66,1.47,7.14,7.14,0,0,0,6.89-3.91,58.18,58.18,0,0,0,3.69-7.88c4.93-12.78,9.25-25.77,13.5-38.78a19,19,0,0,0,.78-3.33c.55-3.82-.73-5.35-4.64-5.66-.41,0-.83-.06-1.25-.05C97.65,225.68,84.59,224.8,70.48,225.1Z"/></g></g></svg>