<svg xmlns="http://www.w3.org/2000/svg" viewBox="0 0 2100.8 669.7"><title>sedan_left</title><g id="Capa_2" data-name="Capa 2"><g id="Capa_1-2" data-name="Capa 1"><path d="M1460.6,527.77q0,12,0,24a35,35,0,0,1-.18,3.83,2.76,2.76,0,0,1-2.46,2.55,15.92,15.92,0,0,1-2.39.18c-13.43.07-26.86.2-40.29.47-19.35.39-38.72.13-58.08.16-36,.07-72,.08-108,.25s-72-.31-108,.57c-18.55.45-37.12.1-55.68.14q-36.94.06-73.91.17c-32.15.13-64.3,0-96.45.66-22.39.43-44.79.19-67.19.3-32.31.15-64.62,0-96.93.66-22.23.43-44.47.2-66.71.29-33,.13-65.9-.11-98.84.73-1.12,0-2.24,0-3.36,0-10.4,0-20.8.12-31.2.13-6,0-6.78-.76-6.65-6.51.33-13.92.47-27.82-.78-41.72-.21-2.28-1.37-4.31-1.44-6.46s.43-4.42.06-6.66c-.55-3.31-1-6.64-1.55-10A238.3,238.3,0,0,0,523,430.94c-8.61-19.15-20-36.44-35.25-51a173,173,0,0,0-34-24.88c-23-13.12-47.82-19.56-74.18-20.46-4.65-.16-9.26.38-13.89.65A159,159,0,0,0,340.1,339c-15,3.33-28.9,9.27-42.31,16.57-17,9.26-32.21,20.76-44.84,35.58a138.89,138.89,0,0,0-27.73,51.07,365.84,365.84,0,0,0-8.62,36.4c-2.63,13.83-4.7,27.75-5.14,41.86,0,1-.16,1.91-.25,2.87a142.25,142.25,0,0,0-.11,22c.35,5.48,0,6.06-5.63,6.07-10.56,0-21.12,0-31.67-.18-5.75-.12-11.51-.57-17.23-1.19a240.11,240.11,0,0,1-31.13-5.63,18.71,18.71,0,0,0-4.25-.66c-10.56,0-21.1-.29-31.65-.92-9.41-.56-18.85-.81-28.27-1.28-3.51-.17-7-.5-10.51-.86-4.78-.5-9.55-1.17-14-3.1q-7.27-3.13-14.46-6.45a8,8,0,0,1-3.12-2.15,31.93,31.93,0,0,1-5.48-12.66c-.28-1.38.45-2.39,1.91-2.92a17.74,17.74,0,0,1,2.78-.72c2.36-.42,4.73-.75,7.09-1.19s4.72-.87,7-1.46a2.35,2.35,0,0,0,1.91-2.9c-.34-3-.79-6-1.19-9-.28-2.06-.47-4.13-.87-6.17s-1.23-2.66-3.28-2.85c-1.59-.15-3.2-.12-4.78-.31a7.83,7.83,0,0,1-4.4-1.73,3.44,3.44,0,0,1-.26-5.11,7,7,0,0,1,4.27-2c1.58-.25,3.17-.44,4.73-.76a1.82,1.82,0,0,0,1.63-2c-.52-4.6-1.07-9.2-1.69-13.8a2.33,2.33,0,0,0-2.34-2c-1.12-.1-2.24-.13-3.36-.15-4.15-.09-8.31-.15-12.47-.23-4.78-.1-6.2-.93-6.36-5.7a3.6,3.6,0,0,0-2-3.55,3.51,3.51,0,0,1-2-3.51c0-1,0-1.92,0-2.88q0-21.11.06-42.23c0-1,0-1.92.05-2.88,0-2,.92-3.52,2.84-4,3-.69,4.09-2.65,4.3-5.46a25.2,25.2,0,0,1,.5-2.84,141.33,141.33,0,0,1,6.11-22.67c5.33-14.53,13-27.78,22-40.29,1.31-1.83,2.59-3.61,3-5.94a8.19,8.19,0,0,1,2.61-4.5,50.62,50.62,0,0,1,5.28-4.88c4.51-3.31,9.07-6.54,13.83-9.52a277.62,277.62,0,0,1,24.94-13.36c4.59-2.27,9.13-4.66,13.84-6.64,17-7.15,34.74-12.1,52.42-17.12q24.45-6.94,49.34-12.28c24.08-5.2,48.22-10,72.56-13.83,17.38-2.71,34.73-5.6,52.11-8.28,9.64-1.48,19.31-2.72,29-4q13.32-1.77,26.64-3.42Q395,219.61,408.54,218c9.85-1.14,19.7-2.21,29.56-3.3q11.67-1.29,23.36-2.55l21-2.27q11.67-1.26,23.36-2.54c6.51-.73,13.05-1.3,19.53-2.28,9.17-1.39,18.34-2.84,27.41-4.74,6-1.24,11.4-.21,16.81,2.08a15.07,15.07,0,0,0,3.15,1.09c5.35,1,10.71,1.88,16.06,2.81a10.41,10.41,0,0,0,7.72-1.73c7.54-4.83,15.18-9.52,22.83-14.18q43.63-26.62,87.29-53.19c20.5-12.48,41.16-24.68,62.52-35.64q28.17-14.48,56.47-28.71C838.73,66.27,852,59.81,865.2,53.4c8.21-4,16.52-7.72,24.78-11.57,1.31-.61,2.76-1,3.67-2.2,1.9-2.42,4.56-3.4,7.36-4.21,8-2.32,15.92-4.81,24-6.94,10.82-2.86,21.65-5.74,32.59-8.07,14.86-3.16,29.76-6.09,44.8-8.32,13.13-1.95,26.27-3.86,39.48-5.08,13.37-1.23,26.77-2.11,40.18-2.93,12.6-.77,25.22-1.32,37.84-1.87,8.47-.37,16.94-.53,25.41-.88,16.46-.68,32.94-.79,49.4-1.11,4.16-.08,8.32,0,12.48-.06,31.67,0,63.34-.61,95,.63,14.86.57,29.74.06,44.6,1.09,9.09.63,18.21.83,27.32,1.23.48,0,1,.06,1.43.1,6.22.51,12.42,1.24,18.64,1.49,12.17.47,24.22,2.08,36.29,3.38,11.92,1.28,23.76,3.26,35.61,5.07,5.53.84,11,1.95,16.51,3a15.15,15.15,0,0,0,8.46-.44,58.63,58.63,0,0,1,7.88-2.11c21.44-4.64,42.89-4,64.33,0,.47.08.92.24,1.39.36a6.48,6.48,0,0,1,4.56,3.89,15.32,15.32,0,0,1,1.45,8.86c-.56,3.31-1,6.64-1.62,9.94a3.52,3.52,0,0,0,1.82,4,35.14,35.14,0,0,0,6.88,3.38q9.24,3.38,18.46,6.78c40,14.88,79.84,30.38,119.15,47.09,22.52,9.57,44.86,19.56,66.71,30.63,13.84,7,27.64,14.1,41.76,20.54,8.74,4,17.52,7.85,26.28,11.77a9.9,9.9,0,0,0,6,1.12,17.72,17.72,0,0,1,8.05.7c2,.53,4,1,6.08,1.4,16.47,3.37,33.16,5.14,49.88,6.77q11.21,1.09,22.42,2.26c10.82,1.12,21.62,2.32,32.44,3.42,8,.81,15.91,1.51,23.87,2.27,8.43.81,16.86,1.67,25.3,2.4a38.57,38.57,0,0,0,6.71-.09c3.66-.34,7.3-.83,10.94-1.38a7.47,7.47,0,0,1,5.46,1.18,62.73,62.73,0,0,1,9,7.21,17.13,17.13,0,0,1,5.55,13.75c-.18,5-.58,9.89-1.05,14.83-.83,8.59-1.5,17.2-2.4,25.78a40.53,40.53,0,0,0,0,8.6c.33,3.17.32,6.38.45,9.58a9.78,9.78,0,0,1-.06,1.43c-.39,4.1-2.16,5.67-6.23,5.56s-4.32.12-4.16,4.19c0,.48,0,1,.09,1.44q1.29,12.88,2.6,25.76a120.37,120.37,0,0,0,5.25,26.29c2,5.91,3.9,11.85,6.79,17.41,2.72,5.25,6.62,8.85,12.8,9.74a45.06,45.06,0,0,1,12.37,3.73c5.41,2.47,9.09,6.43,10.26,12.43.21,1.1.43,2.19.68,3.28.91,4.1.65,8.29,1.09,12.42,1.28,11.84.15,23.64-.43,35.45,0,.8-.23,1.58-.34,2.37-.33,2.27-1,4.39-2.8,5.94a4.26,4.26,0,0,0-1.51,2.89c-.74,6.06-2.68,11.83-4.33,17.68-1.52,5.38-3.28,10.69-4.49,16.17a18.79,18.79,0,0,0,2.81,15.54c.9,1.31,1.65,2.74,2.46,4.12a8.91,8.91,0,0,1-.33,10c-1,1.61-2.16,3.17-3.3,4.72a16.45,16.45,0,0,1-13.45,7.17c-2.06.05-3.79.54-4.78,2.54s-3,2.74-5.18,2.82c-.8,0-1.6.06-2.4.06-8.48,0-17,0-25.44,0a31.7,31.7,0,0,1-4.77-.34,18.64,18.64,0,0,0-6.19.2c-12.14,2.06-24.28,4.11-36.44,6q-21.08,3.35-42.19,6.49-20.88,3.13-41.76,6.14c-10.45,1.51-20.9,2.94-31.35,4.41-7.6,1.06-15.19,2.19-22.8,3.18-8.88,1.16-17.77,2.23-26.66,3.27-9.84,1.15-19.69,2.24-29.54,3.34a17.3,17.3,0,0,1-2.88.07c-2-.11-3-.9-3.19-2.85a38.89,38.89,0,0,1-.1-4.32,266.15,266.15,0,0,0-2-37.32,215.6,215.6,0,0,0-16-58.1,166.1,166.1,0,0,0-35.54-52,164.07,164.07,0,0,0-39.46-28.67c-5.24-2.74-10.45-5.59-16.07-7.5a170,170,0,0,0-49.39-8.9c-10.72-.35-21.43-.26-32.08,1.31a158.75,158.75,0,0,0-50.51,16.09,141.44,141.44,0,0,0-15.2,9.15,147.61,147.61,0,0,0-26.64,23.33,163.28,163.28,0,0,0-15.74,20.55,189.42,189.42,0,0,0-23.33,53.44c-3.91,14.56-6.53,29.34-6.31,44.5.07,4.8,0,9.6,0,14.4ZM723.84,198.53a13.62,13.62,0,0,0-1.33,1.19c1,.74,1.19-.36,1.69-.69a4.53,4.53,0,0,0,.86-1.06,6,6,0,0,0,1.26-.51,12.43,12.43,0,0,0,1.33-1.19c-.94-.73-1.18.37-1.69.7a4.42,4.42,0,0,0-.86,1A6.17,6.17,0,0,0,723.84,198.53ZM703,215.27a7.64,7.64,0,0,0-4.49,3.78,9.33,9.33,0,0,0,4.5-3.77,9.09,9.09,0,0,0,4.78-3.87,5.57,5.57,0,0,0,1.29-.5,11.82,11.82,0,0,0,1.33-1.23c-1-.79-1.22.35-1.73.69a4.06,4.06,0,0,0-.86,1.08A9.48,9.48,0,0,0,703,215.27ZM44.31,347.47a125.55,125.55,0,0,1,16-17.05c.59-.52,1.15-1.08,1.7-1.65.07-.08,0-.29,0-.49-1.1-.85-2.41-.38-3.63-.51a4.78,4.78,0,0,0-4.78,2.5c-3.22,5-6.48,9.86-9.7,14.8-1.13,1.74-2.17,3.53-3.26,5.3a6.94,6.94,0,0,0-1,3.15c-2.07,1.79-2,1.82-3.27,5.12a13.66,13.66,0,0,0,3.24-5.15C41.64,351.83,42.76,349.48,44.31,347.47ZM545,235.54c.32,0,.64,0,1-.07,9.26-.42,18.52-.79,27.78-1.26s18.5-1.05,27.76-1.51c4.47-.22,9-.32,13.42-.36a11.75,11.75,0,0,0,5.53-1.29c8.19-4.36,16.39-8.68,24.58-13,.42-.21.87-.43.86-1.07-1.29-.69-2.06.46-2.94,1a125.55,125.55,0,0,1-24.65,10.53,76.46,76.46,0,0,1-20.73,3.47c-8.77.21-17.54,1-26.31,1.51l-1.92.12c-8.14.41-16.29.68-24.41,1.28-5.27.39-10.52.78-15.79,1a14.34,14.34,0,0,0-2.78.64l-12.21.28c4.07.28,8.17.94,12.17-.32C532.6,236.29,538.84,236.39,545,235.54Zm1039.12-80.79a70.5,70.5,0,0,0,3.46-20.71,55.06,55.06,0,0,0-3.83-21.56,7.46,7.46,0,0,0-4.1-4.38Q1551.83,95.91,1524,83.6a7.86,7.86,0,0,0-1.39-.34c.19,1.32,1.33,1.3,2.06,1.66,8,4,16.12,7.76,23.76,12.43,9.28,5.67,18.27,11.76,25.68,19.86a40.73,40.73,0,0,1,8.77,14.13c2.44,7,2.32,14.08.78,21.22-.44,2-.87,4.05-1.3,6.08a4.82,4.82,0,0,0-1.42,3.44c1.25-1.1,1.18-2.34,1.39-3.47A10.15,10.15,0,0,0,1584.16,154.75ZM1312.71,42.94a135.2,135.2,0,0,0-16.1.19l17.94.27c1.81.89,3.76.71,5.66.74,7.53.12,15,1,22.48,1.64,4.62.41,9.24.78,13.86,1.16,10.84.9,21.6,2.49,32.33,4.22q25.59,4.11,50.71,10.55c15.35,3.9,30.52,8.44,45.45,13.74,11.16,4,22.27,8,33.1,12.85,16.75,7.42,32.5,16.5,46.53,28.4a45.83,45.83,0,0,1,8.95,10c5.92,9.07,6.55,18.83,3.45,29a68.56,68.56,0,0,1-6.69,14.31c-3.53,6.09-7.13,12.14-10.67,18.22-.55.95-1.35,1.83-1.24,3a.62.62,0,0,0,.3.36c.13.07.38.11.46,0a6.14,6.14,0,0,0,1.3-1.35c5.19-9.56,10.48-19.07,15.45-28.74a42,42,0,0,0,4.41-16.09c.76-9.73-2.57-17.86-9-24.94A97.8,97.8,0,0,0,1554.15,106c-10.05-6.92-20.89-12.43-31.92-17.56a432.44,432.44,0,0,0-50.65-19.27,536.2,536.2,0,0,0-62.74-15.94c-10.68-2-21.38-4-32.16-5.41-8.24-1.07-16.49-2.06-24.8-2.61-9.89-.65-19.76-1.51-29.68-1.72-2.56-.05-5.12-.05-7.68-.08A7.52,7.52,0,0,0,1312.71,42.94ZM1101.84,37.8c.64-.08,1.28-.09,1.92-.11,24.13-1,48.27-1.32,72.42-1.2,22.39.1,44.78-.06,67.17.39,15.66.32,31.34.32,47,1,8.15.32,16.3.42,24.44.81,8.3.41,16.59,1,24.89,1.49,5.1.31,10.21.56,15.31,1,15,1.26,29.85,3.42,44.65,6,13.87,2.44,27.61,5.43,41.26,8.86a517.51,517.51,0,0,1,51.78,15.93c7.35,2.7,14.68,5.47,21.89,8.53.85.35,1.64,1,2.71.77,0-1-1-1-1.61-1.31-15.94-7-31.91-14-47.83-21.13a53.5,53.5,0,0,0-12.91-3.52c-14.49-2.5-29-5.09-43.5-7.38-15.63-2.46-31.27-4.86-47-6.84-9.5-1.2-19.1-1.65-28.66-2.4-10.21-.79-20.44-.74-30.66-1.45-8.6-.59-17.27-.2-25.89-.53-38-1.44-76.12-.75-114.17-1-13.28-.06-26.56,0-39.82.37-9.75.25-19.47,1-29.21,1.5-3,.15-6.07.24-9.11.35a8.83,8.83,0,0,0-3.73.72l-8.43.26c2.82.33,5.67.83,8.39-.3C1089.4,38.52,1095.64,38.6,1101.84,37.8ZM140.59,356.86c-.17-2.55-.11-5.11-.13-7.67,0-3.84,0-7.67-.06-11.51a3.13,3.13,0,0,0-2.72-3.4c-5.64-1.11-11.28-2.22-16.93-3.28a1.77,1.77,0,0,0-2,1.58c-.15,1.42-.2,2.86-.21,4.3,0,8.63,0,17.26-.08,25.9,0,1.73.23,3.54-.87,5.1a1.55,1.55,0,0,1-1.65.69,1.78,1.78,0,0,1-1.11-.82,7.16,7.16,0,0,1-.54-2.29c-.09-1.75,0-3.52-.1-5.27-.07-1.54-.69-2-2.22-1.47-12.49,4.12-25.38,6.41-38.52,8.53.84.21-.22-.16.12.38a.6.6,0,0,0,.42.18c3,.27,6,.59,9.08.77a53,53,0,0,1,12.23,2.21c12.16,3.63,12.43,3.62,24.67-.18,4.88-1.51,9.75-3.1,14.67-4.5a20.45,20.45,0,0,0,9.67-5.9,24.92,24.92,0,0,0,2.92-1.6q16.8-12.32,33.56-24.71c.64-.47,1.27-1,1.88-1.47a3,3,0,0,0,1.17-2.49c-.08-4.47-.07-8.95-.2-13.41-.07-2.25-.76-2.8-3.07-2.38-5.65,1-11.29,2.15-16.93,3.26-4.38.86-8.76,1.77-13.14,2.66-.78.16-1.57.29-2.34.49a3.4,3.4,0,0,0-2.85,3.37c0,1.28-.08,2.55-.08,3.83q0,12.45,0,24.91a26.25,26.25,0,0,1-.88,7.59C141.23,359.55,140.76,359.24,140.59,356.86ZM2047.4,423.35c.08-1.59.24-3.19.42-4.77,1.47-12.92,1-25.88.91-38.83,0-3.8-.16-7.6-.24-11.35-1.79-.71-3.4-.43-5-.36q-18,.82-35.92,1.72l-.48,0c-8,.24-16,.51-24,1-10.69.64-21.42.73-32.11,1.31-13.89.75-27.79,1.35-41.68,1.95s-27.79,1.28-41.68,2c-7.51.36-15,.58-22.52.95-10.38.51-20.75,1.12-31.13,1.62-8.46.41-16.93.74-25.4,1.06a25.77,25.77,0,0,1-4.3-.21,1.65,1.65,0,0,1-1.46-1.64,1.87,1.87,0,0,1,1.27-1.84,9.48,9.48,0,0,1,3.77-.53c8.79-.37,17.58-.7,26.36-1.1,13.9-.62,27.8-1.17,41.68-1.94,14-.79,28.11-1.33,42.16-2,13.74-.62,27.47-1.29,41.21-1.91q21.08-.94,42.16-1.93l41.68-1.92,40.72-1.91c6.87-.33,13.73-.71,20.61-.88a12,12,0,0,0,1.88-.25c.13,0,.32-.2.31-.29,0-.28,0-.69-.21-.81a22,22,0,0,0-7.1-2.79c-2.17-.56-4.37-1-6.55-1.48a18.24,18.24,0,0,1-11.5-8,52.55,52.55,0,0,1-4.81-9.38,168.31,168.31,0,0,1-5.86-17.25c-.36-1.23-.67-2.48-1.11-3.68-.67-1.8-1.39-2.33-3.23-2.2a140.38,140.38,0,0,1-31-1.63c-1.62-.25-2,.19-1.71,1.85,2.47,11.93,7.54,22.4,17.13,30.29a36.79,36.79,0,0,0,13.09,6.86c1.84.54,3.7,1,5.51,1.66a5.8,5.8,0,0,1,2,1.26,1.87,1.87,0,0,1,.38,1.3,1.53,1.53,0,0,1-1.14,1.37,5,5,0,0,1-2.84-.08c-12.86-2.71-23-9.53-30-20.65a54.92,54.92,0,0,1-8.56-23.21,2.37,2.37,0,0,0-1.93-2.37c-1.55-.39-3.09-.83-4.63-1.25a142.71,142.71,0,0,1-20.17-7.65c-4.47-2-4.48-1.92-7,2.36-3.5,5.92-7,11.85-10.92,17.5A43.32,43.32,0,0,1,1939,340.84a81.66,81.66,0,0,1-14.16,2.39c-12.76,1-25.53,1.56-38.32,2-11.18.37-22.35,1.18-33.52,1.69-10.23.46-20.47.58-30.67,1.26-6.87.45-13.75.5-20.61.9-14.21.81-28.42,1.31-42.64,2q-10.29.48-20.6.88c-4.13.16-8.25.62-12.31.94-.42,1.31.58,1.53,1.17,1.91A146.31,146.31,0,0,1,1755,377.62a174.3,174.3,0,0,1,25,33.92c14.27,25,23.1,51.95,27.9,80.25a227.63,227.63,0,0,1,3,32.45,13.39,13.39,0,0,1-.54,5.22,2.13,2.13,0,0,1-1.72,1.48c-.81.12-1.79-.78-2-1.76a3.43,3.43,0,0,1-.11-.95c.34-3.69-.37-7.34-.45-11-.32-14.3-2.78-28.3-6-42.18a232.29,232.29,0,0,0-20-54.35c-9.07-17.47-20.39-33.24-34.8-46.72a136.61,136.61,0,0,0-25.85-19,12.83,12.83,0,0,0-8.23-1.73c-4.43.49-8.94.36-13.42.51-1.42,0-2.85.13-4.22.19-.57,1.29.43,1.52,1,1.87,4.44,2.55,9,4.92,13.34,7.59a165.93,165.93,0,0,1,60.26,63.75c11.21,20.77,18.18,42.93,21.88,66.18A226.56,226.56,0,0,1,1793,522c.16,5.11.58,10.21.64,15.33,0,2.26.7,2.81,3,2.61,5.73-.51,11.46-1,17.18-1.68q14.54-1.66,29-3.53c10.15-1.31,20.28-2.73,30.41-4.14q15.45-2.16,30.87-4.37c9.81-1.4,19.63-2.76,29.43-4.23q20.88-3.12,41.72-6.41c18.63-3,37.24-6.08,55.87-9.09a189.74,189.74,0,0,1,19-2.5,41.47,41.47,0,0,0,4.27-.63,6,6,0,0,0,4-2.51c1.81-2.43,3.6-4.89,5.31-7.4.86-1.27.41-2.19-1.11-2.3a109.89,109.89,0,0,1-13.28-2,142.66,142.66,0,0,1-28.45-8.51,43.81,43.81,0,0,1-4.27-2.16,1.79,1.79,0,0,1-.78-2.09,1.91,1.91,0,0,1,2.32-1.21c1.53.44,3,1,4.51,1.58,3.59,1.33,7.06,3.06,10.94,3.48,3,1.91,6.54,2.52,10,3.28,5.13,1.14,10.33,2,15.51,3a18.2,18.2,0,0,0,2.86.25c2.38.06,2.89-.56,2.37-2.8-.21-.93-.55-1.84-.68-2.78a5.88,5.88,0,0,1,6.54-6.88,8.59,8.59,0,0,1,6.43,3.68q3,4,6.07,8a3.77,3.77,0,0,0,3.24,1.7c1.18,0,1.87-.82,1.4-1.83a10.47,10.47,0,0,0-.93-1.67,31.16,31.16,0,0,1-4.72-9.88c-.53-2-1.05-2.24-3.13-2.07-9.85.8-19.71,1.58-29.46,3.33-4.58.83-9.08,1.82-13.2,4.08a10.69,10.69,0,0,1-2.28.65c-1-2.9-.91-3.54,1.09-4.84a19.52,19.52,0,0,1,5.3-2.19,126.14,126.14,0,0,1,20.74-3.72c6.2-.68,12.41-1.18,18.62-1.68a2.26,2.26,0,0,0,2.38-1.87c2-9.57,5.35-18.76,7.77-28.2a9.87,9.87,0,0,0,.33-2.35,1.6,1.6,0,0,0-1.39-1.7,44.54,44.54,0,0,0-9.09-.09,2.91,2.91,0,0,0-2.28,1.56c-.6.94-1.16,1.92-1.8,2.83a16,16,0,0,1-10.52,6.95,44.67,44.67,0,0,1-4.73.73q-19.59,1.62-39.18,3.19a3.12,3.12,0,0,0-.85.31c0,.29-.06.73.1.85,7.45,5.73,15.57,10,25,11.59,7.67,1.3,15.29.81,22.9-.33,1.9-.28,3.78-.67,5.68-.95a5.94,5.94,0,0,1,1.88.07,1.6,1.6,0,0,1,1.26,1.29,1.76,1.76,0,0,1-.59,1.72,6.18,6.18,0,0,1-3.07,1.27c-9.61,2-19.26,3-29,1.13a55.69,55.69,0,0,1-18.74-7.08,71.39,71.39,0,0,1-11.71-8.32,4.72,4.72,0,0,0-3.9-1.32c-12.11.92-24.22,1.77-36.33,2.65q-19.6,1.42-39.2,2.89c-10.36.79-20.7,1.7-31.06,2.49-6.37.49-12.75.8-19.13,1.27s-12.74,1-19.11,1.52c-4.94.39-9.88.79-14.82,1.13-6.37.43-12.76.77-19.13,1.23-6.06.44-12.1,1-18.15,1.5a12.3,12.3,0,0,1-4.76-.11,2,2,0,0,1-1.56-1.63,1.89,1.89,0,0,1,1.63-2c2.52-.39,5.06-.74,7.6-.94q12.43-1,24.86-1.84c6.38-.45,12.76-.8,19.14-1.27q9.07-.66,18.15-1.49c4.77-.44,9.57-.46,14.35-1,6.19-.69,12.43-.86,18.65-1.32,6.69-.49,13.37-1.05,20.06-1.58,4.46-.35,8.92-.71,13.39-1,6.37-.44,12.76-.8,19.13-1.26s12.74-1,19.11-1.52c6.22-.46,12.44-.87,18.66-1.3,1.75-.12,3.51-.21,5.26-.33,3.44-.24,6.43-1.2,8.88-4,2.23-2.51,5.31-4.06,8.37-5.51a103.22,103.22,0,0,1,22.16-7.65c1.7-.37,3.34-1,5-1.57,7.65-.54,15.3-1.14,23-1.59,5.9-.34,11.8-.86,17.7.06,2,.31,2.94-.38,3.37-2.48a37.82,37.82,0,0,0,.84-6.17q.75-18.22,0-36.46a86.3,86.3,0,0,0-1.12-9,12.05,12.05,0,0,0-.87-2.73,3,3,0,0,0-2.56-1.91,13.75,13.75,0,0,0-1.92-.12c-4.63.09-9.29,0-13.9.37-6.39.58-12.77.67-19.17.85a18.53,18.53,0,0,0-3.32.36,1.33,1.33,0,0,0-.72,1.07c1.84,13.38.87,26.82.77,40.23a72.53,72.53,0,0,1-2,17.58C2047.85,426.31,2047.27,425.81,2047.4,423.35Zm-1383,65.26q34.54-.42,69.08-.83c12.31-.12,24.63.09,36.94-.22,21.11-.54,42.21-.64,63.32-.75,12.8-.07,25.6.1,38.39-.21,20.62-.51,41.25-.66,61.87-.75,12-.05,24,.12,36-.2,22.23-.59,44.45-.68,66.68-.82,7.52,0,15,.16,22.55-.18,15.34-.68,30.69-.55,46-.81.48,0,1,0,1.44,0,2.45-.2,3.21-.82,3.19-3.22,0-4-.23-8-.4-12,0-1.12-.29-2.23-.34-3.34-.42-9.42-.78-18.85-1.24-28.27-.48-9.74-1-19.47-1.57-29.21,0-.32-.06-.63-.07-.95-.5-17.1-1.8-34.2-.92-51.31.66-12.76,1.12-25.54,2.39-38.28a470,470,0,0,1,6.89-46.95c.7-3.44,1.57-6.85,2.35-10.28.24-1.09.5-2.19.65-3.29s-.45-1.79-1.66-1.86-2.56-.07-3.83,0c-10.23.27-20.46.57-30.69.84-2.87.08-5.75.06-8.63.13-16.31.36-32.62.47-48.91,1.2-11.51.52-23,.31-34.53.88-13.1.64-26.22.39-39.31,1-11.35.56-22.71.29-34,.88-12.94.66-25.9.39-38.83,1-11.19.56-22.39.32-33.57.89-12.46.64-24.94.39-37.39,1-11.19.57-22.39.34-33.56.91-11.83.6-23.67.4-35.48,1-10.39.55-20.79.36-31.16.91-9.91.53-19.82.66-29.73.93-3,.09-6,.52-9.09.62-2.68.09-5.43.57-8-.64a1.17,1.17,0,0,0-1.54.78,28.32,28.32,0,0,0-1.47,4c-1.6,6-3.17,12.07-4.67,18.12a45.45,45.45,0,0,0-1.12,8.07c-.47,7.17-1.08,14.34-1.63,21.51-.05.64-.09,1.28-.11,1.91-.63,20.46-1.67,40.93-.87,61.39.35,8.94.4,17.9,1.4,26.81.65,5.72.79,11.49,1.3,17.22q1,11.7,2.28,23.38c.79,7.47,1.65,14.93,2.52,22.39.65,5.55,1.37,11.1,2.14,17.29A21.08,21.08,0,0,1,664.38,488.61Zm811.7-243.11c-11.51.46-23,.28-34.52.85-13.75.68-27.51.39-41.24,1.05-11.83.57-23.67.31-35.48.88-13.42.65-26.87.39-40.27,1-12,.58-24,.3-36,.89-13.26.65-26.54.39-39.79,1-11.83.57-23.67.31-35.48.9-13.11.65-26.23.36-39.32,1-12.15.6-24.3.55-36.44.86-4,.1-8,.48-12,.68a3.64,3.64,0,0,0-3.69,3.12c-.74,3.11-1.52,6.21-2.2,9.33a391.26,391.26,0,0,0-6.79,42.12c-1.58,14.63-2.61,29.28-3,44-.16,6.22-.73,12.46-.52,18.69.4,12,1,23.95,1.5,35.92,0,.48.06,1,.08,1.44.42,10.22.77,20.45,1.26,30.67.42,8.78,1,17.55,1.51,26.33.19,3.51.26,7,.36,10.54.18,7,.19,7.26,7.41,6.83,7.83-.47,15.66-.52,23.49-.62,6.56-.08,13.12,0,19.67-.21,20.3-.69,40.62-.5,60.91-1.15,15.67-.49,31.35-.23,47-.87,17.58-.71,35.18-.32,52.75-1,15.35-.62,30.7-.5,46-.85,5-.12,9.9-.45,14.85-.6a28.83,28.83,0,0,1,7.65.34,3.41,3.41,0,0,0,3.47-1.14c2.16-2.35,4.41-4.64,6.38-7.14a393.79,393.79,0,0,0,23.75-34.32c10.29-16.38,20.49-32.83,30.41-49.44,10.83-18.12,21.38-36.41,31.91-54.71,15.39-26.75,30.07-53.9,44.74-81.06.76-1.4,1.52-2.82,2.19-4.27s.19-2.36-1.67-2.38c-3.84,0-7.68,0-13.06,0C1507.74,245.19,1491.89,244.86,1476.08,245.5Zm-332.35-44.63c9.43-.1,18.89.09,28.3-.41,14.38-.77,28.78-.31,43.15-.9,17-.69,33.91-.37,50.83-1.05,14.71-.59,29.43-.27,44.12-.89,16.3-.69,32.62-.34,48.91-1,14.87-.62,29.74-.27,44.59-.9,16.47-.7,32.94-.34,49.39-1,14.87-.62,29.75-.28,44.6-.91,16.46-.7,32.92-.7,49.39-.88,3.38,0,5.73-1.09,7.45-4.11,4.88-8.63,10.06-17.09,14.88-25.75a38.09,38.09,0,0,0,5.21-19.71,27.33,27.33,0,0,0-5.37-15.61,41.7,41.7,0,0,0-6.47-7.07,162.52,162.52,0,0,0-26.28-18.41c-14.81-8.37-30.48-14.8-46.46-20.5-13.1-4.67-26.29-9.06-39.72-12.74-13.89-3.8-27.89-7.06-42-9.93q-15.77-3.21-31.66-5.47c-7.12-1-14.28-1.72-21.43-2.42-9.38-.91-18.78-1.69-28.17-2.52-.48,0-1-.09-1.44-.11-11-.43-22-.7-33.06-1.31-20.93-1.14-41.89-.43-62.82-1.11-14.71-.49-29.41-.23-44.12-.4-5.71-.07-5.69-.72-7.22,5.7-4.38,18.35-8.89,36.67-13.33,55q-10.85,44.75-21.66,89.5c-.37,1.5-1.06,3-.64,4.56A3.9,3.9,0,0,0,1143.73,200.87Zm312.53,313.26a140.35,140.35,0,0,1,2.32-27.68c.11-.63.29-1.25.37-1.88.26-2.14-.37-2.86-2.63-3-.63,0-1.28,0-1.92,0-6.23.15-6.77.48-7.6,6.55-1.14,8.39-2,16.81-2.49,25.28-.31,5.91-.61,11.82-1,17.72a6.27,6.27,0,0,1-.6,2.28,1.56,1.56,0,0,1-1.59.85,1.7,1.7,0,0,1-1.48-1,5.57,5.57,0,0,1-.44-1.84c-.06-1.28-.07-2.56,0-3.84.64-13.41,1.43-26.82,3.31-40.13.64-4.54.18-5.22-4.23-5.21-12.16,0-24.32.19-36.48.24a6.57,6.57,0,0,0-5.18,2c-8.58,9.37-19.89,13.06-31.91,15.1a203.71,203.71,0,0,1-22.9,2.18c-20.3,1.1-40.63.29-60.92,1.05-19.83.74-39.67.25-59.48,1-19,.72-38.08.19-57.09.95-17.43.7-34.86.29-52.28.9-31.35,1.1-62.7.51-94,.86-5.91.06-11.84-.09-17.75.1-36.78,1.19-73.58.21-110.36,1-37.1.82-74.22.14-111.31,1-36.79.82-73.58.16-110.36,1-33.91.72-67.81.59-101.72.78-1.43,0-2.88,0-4.31.17a1.73,1.73,0,0,0-1.62,2c.25,4.15.41,8.31.88,12.44.85,7.34.61,14.69.74,22a10.25,10.25,0,0,1-.15,1.91,1.88,1.88,0,0,1-1.5,1.65,2,2,0,0,1-2.09-1.6,13.28,13.28,0,0,1-.41-2.35,31.22,31.22,0,0,1-.08-3.35c.18-8.5-.92-16.93-1.24-25.39a33,33,0,0,0-.77-5.22c-.32-1.61-1-2.14-2.65-2.22-5-.23-6,.07-5.47,5.05,1.35,12.29.84,24.61.88,36.92,0,1.12-.07,2.24,0,3.36.13,2.21.72,2.88,2.92,2.92a98.93,98.93,0,0,0,11-.07c7.2-.68,14.39-.44,21.58-.48q53.28-.22,106.54-.32c9.6,0,19.21.12,28.8-.09,55-1.18,110-.2,165.07-1,52.62-.78,105.25-.49,157.87-.8,7.68,0,15.36.1,23-.08,39.66-1,79.33-.45,119-.69,25-.15,49.91-.11,74.86-.14,29.92,0,59.84.35,89.75-.22,33.75-.66,67.49-.25,101.24-.55,5.82,0,5.88-.1,5.89-5.91,0-7.36,0-14.72,0-22.08h0C1456.28,522.13,1456.38,518.13,1456.26,514.13ZM808.82,159.42c5.25.48,8.48,3.36,10.06,8.26a42.94,42.94,0,0,1,1.4,5.08,122.42,122.42,0,0,1,2,16.65c.12,2.4.39,4.78.51,7.18a42.36,42.36,0,0,1,.09,5.74c-.32,3.71-1,7.34-4,9.85.35,1.32,1.3,1,2,1,4.95-.11,9.92.09,14.85-.61a25.08,25.08,0,0,1,2.87-.15c8-.29,16-.41,24-.85,13.4-.74,26.85-.86,40.27-1.37,11.18-.42,22.36-1,33.54-1.54l1-.05c13.42-.42,26.87-.53,40.27-1.36,11.18-.7,22.39-.31,33.54-1.46.32,0,.64,0,1-.05,10.07-.26,20.14-.5,30.21-1,12.93-.65,25.9-.67,38.83-1.38,8-.44,16-.4,24-.91,8.63-.56,17.26-.66,25.89-.94,6.34-.19,6.82-.62,8.33-6.87q14.06-58.06,28.07-116.13c2.22-9.17,4.47-18.33,6.65-27.52,1-4.31.74-4.67-3.8-4.65-14.71.07-29.44-.06-44.15.41-8.14.26-16.31.38-24.44.92-14,.93-28.07,1.83-42.07,3.35-12.72,1.38-25.42,3-38,5.29-19,3.54-38,7.34-56.41,13.5A418.84,418.84,0,0,0,925,85.64a720.32,720.32,0,0,0-74.87,40q-23.61,14.26-46.47,29.75c-1.05.7-2.06,1.46-4,2.85C803.45,158.74,806.13,159.17,808.82,159.42Zm948,85.46c-34.72-.82-69.43-.39-104.14-.59-34.56-.19-69.12-.17-103.68-.24-.48,0-1,0-1.44,0-3.23-.28-5.39,1-6.87,4-2.54,5.17-5.33,10.21-8.1,15.26-10.53,19.21-21,38.47-31.68,57.61-17.32,31-35.37,61.59-53.85,91.92-9.82,16.12-19.87,32.11-30.69,47.59-3.75,5.37-7.84,10.51-11.75,15.78a1.56,1.56,0,0,0-.31,1.26,1.5,1.5,0,0,0,1.15.6c1.43.09,2.87.08,4.31.07,7.2,0,14.4,0,21.6-.17,3.2-.06,6.39-.32,9.57-.61,2.51-.22,3.17-.87,3.8-3.53,1.29-5.45,2.37-10.95,3.81-16.35a176.55,176.55,0,0,1,27-57.45A204.94,204.94,0,0,1,1501,370.09c11.52-11,24.13-20.49,38.49-27.54a192.21,192.21,0,0,1,17.92-8.07,176.94,176.94,0,0,1,34.76-9,179.19,179.19,0,0,1,37.8-1.72,207.17,207.17,0,0,1,47.15,8.25,177.23,177.23,0,0,1,36.26,15.06,10.8,10.8,0,0,0,5.94,1.48c3.83-.16,7.68,0,11.49-.58a19.08,19.08,0,0,1,2.39-.18c11.19-.42,22.4-.53,33.56-1.35,9.73-.72,19.51-.35,29.22-1.45.32,0,.64-.05,1-.07q12.69-.54,25.4-1.07c10.55-.42,21.11-.58,31.63-1.29,7.51-.51,15-.61,22.53-1,11.66-.56,23.31-1.18,35-1.72a186,186,0,0,0,21.48-2,50.87,50.87,0,0,0,13.68-4.34,36.68,36.68,0,0,0,13.1-11c5-6.47,9-13.63,13-20.7,1.15-2,.93-2.67-1-4-4.81-3.17-9.7-6.22-14.46-9.46-16.53-11.25-33.17-22.34-49.15-34.39-2.42-1.83-4.88-3.63-7.19-5.6a13.13,13.13,0,0,0-9.21-3.18c-15.2.12-30.4,0-45.6,0-7.68,0-15.36,0-23,0V245C1801,245,1778.92,245.4,1756.86,244.88Zm-1581.17,116a188.79,188.79,0,0,0,21,2.18c16.93,1,33.88.85,50.83,1,1.28,0,2.56-.05,3.84,0A6.13,6.13,0,0,0,256,362a151.11,151.11,0,0,1,31.76-23.84,175.32,175.32,0,0,1,56.55-20.48,187.8,187.8,0,0,1,45.39-2.52,169,169,0,0,1,59,13.95,138.23,138.23,0,0,1,15.92,8.86,196.12,196.12,0,0,1,37.34,29.18,185.46,185.46,0,0,1,38.24,56.5c8.09,18.45,12.88,37.79,16.22,57.56,1.17,6.94,2.32,13.87,3,20.89.28,3.11,1.17,3.91,4.28,3.93,8,.06,16,0,24,0,14.08,0,28.16,0,42.23-.17,7-.07,14.06-.4,21.09-.61a11.33,11.33,0,0,0,1.43-.12c1.56-.25,2.34-1,2.28-2.55,0-1.27-.33-2.53-.48-3.8-.51-4.53-.62-5.13-6.11-5.1q-35.26.21-70.54.38c-1.91,0-3.83-.05-5.74-.18a1.88,1.88,0,0,1-1.71-1.46,1.84,1.84,0,0,1,1.5-2.12,26.51,26.51,0,0,1,4.27-.42c13.27-.11,26.55-.3,39.83-.22,10.88.07,21.73-.61,32.6-.71a17.24,17.24,0,0,0,2.39-.18,2.13,2.13,0,0,0,2-2.29c0-.8-.2-1.58-.29-2.38C650.89,471,649.4,458,648,445c-.9-8.26-1.78-16.52-2.49-24.8-.56-6.53-.82-13.08-1.29-19.62-1.33-18.85-1.08-37.73-.69-56.59.21-10.38.49-20.77,1.45-31.13.52-5.57.86-11.16,1.17-16.74a44.74,44.74,0,0,1,1.39-9q1.85-7,3.65-13.92c.24-.93.51-1.85.69-2.79.47-2.43.09-2.95-2.22-3.06-.79,0-1.6,0-2.39,0-6.72.15-13.43,0-20.14.59-5.41.46-10.87.19-16.3.4-12.14.48-24.28,1.07-36.41,1.61l-1,.06c-10.38.42-20.77.76-31.15,1.28-7.66.39-15.31,1-23,1.51l-2.4.14c-12.76.74-25.54,1.41-38.3,2.24q-20.08,1.31-40.17,2.88c-9.72.75-19.42,1.7-29.14,2.5-9.4.78-18.81,1.43-28.2,2.25-8.6.74-17.18,1.66-25.77,2.47-8.12.77-16.24,1.46-24.35,2.25-7.95.79-15.9,1.65-23.84,2.5-7,.74-14,1.44-21,2.31-10.46,1.3-20.91,2.73-31.37,4.13-.79.1-1.56.42-2.35.5a4.48,4.48,0,0,0-4.08,3.48c-1.1,3.34-2.37,6.64-3.31,10a11.76,11.76,0,0,1-6.22,7.51,94.55,94.55,0,0,1-13.14,5.84,320.29,320.29,0,0,1-33.69,9.5,23,23,0,0,0-9,4.2c-6.87,5.24-13.85,10.32-20.78,15.48-1,.75-2,1.57-3.64,2.86A71.38,71.38,0,0,0,175.69,360.91ZM1888,238.52l-43.78-33.61c-1-.78-2.07-1.5-3.09-2.27a7.49,7.49,0,0,0-4.93-1.56c-1.28,0-2.56,0-3.84,0l-163.2-.07q-42,0-84-.08a38.63,38.63,0,0,1-4.31-.14,5.58,5.58,0,0,1-2.18-.85c-.78-.47-.62-2,.12-2.51a3.85,3.85,0,0,1,2.26-.66q2.88-.06,5.76-.06l238.55.1H1831c.19-1.39-.73-1.66-1.34-2-3.54-2.17-7.08-4.37-10.71-6.38-10.22-5.66-20.44-11.3-30.72-16.84q-60.64-32.69-122.61-62.74c-32.26-15.61-64.89-30.39-98.22-43.63a608.22,608.22,0,0,0-59.18-19.6c-12.18-3.44-24.62-5.68-36.92-8.53-11.24-2.6-22.65-4.11-34-5.84-8.22-1.24-16.46-2.38-24.7-3.48-4-.53-7.94-.87-11.92-1.27l-27.2-2.71c-.79-.08-1.59-.14-2.39-.19-13.09-.74-26.19-1.31-39.27-2.28-6.87-.51-13.74-.43-20.61-.8-17.9-1-35.82-.61-53.72-1.2-29.44-1-58.87-.59-88.3-.33q-17,.15-34.05.83c-12,.47-24,1-35.92,2-12.9,1-25.81,2-38.7,3.36-16.07,1.66-32.09,3.63-48,6.15C988,35.12,963.61,39.81,940,47.57c-.91.3-1.8.67-2.73.92a18.85,18.85,0,0,0-10,6.27A20.53,20.53,0,0,1,920,60a809.55,809.55,0,0,0-78.87,42.72q-49,30.23-96.75,62.48C723,179.66,701.85,194.37,680.66,209c-1.46,1-3.47,1.6-3.89,3.75,1.65.91,3.43.41,5.14.42,4.16,0,8.32-.14,12.48-.09a10.59,10.59,0,0,0,7-2.57q23.88-18.95,48.48-36.94c18.72-13.7,37.71-27,57.21-39.61q19.56-12.61,39.51-24.62c8.07-4.87,16.45-9.24,24.73-13.79,7.56-4.16,15.06-8.46,22.79-12.32,9-4.5,18.18-8.7,27.38-12.8q14.91-6.63,30.35-12a343.9,343.9,0,0,1,45.82-12.36c6.74-1.35,13.45-2.92,20.22-4.1,10.39-1.82,20.83-3.36,31.3-4.7,11.11-1.42,22.27-2.18,33.4-3.36,5.24-.55,10.52-.87,15.79-1.05,14.39-.5,28.77-1,43.16-1.41q32.88-.93,65.74-.37c23.83.42,47.67.27,71.49.95,10.07.29,20.15.41,30.21.86,11.66.52,23.33,1.08,35,1.9,16.91,1.2,33.72,3.35,50.45,6.13,16.41,2.72,32.84,5.28,49.25,8,5.84,1,11.65,2.07,17.48,3.12a28.19,28.19,0,0,1,6.39,2Q1503.75,70,1540,86c13.46,5.93,26.88,12,40.43,17.71a13.49,13.49,0,0,1,8,8.81,64.12,64.12,0,0,1,2.45,32.64,74.64,74.64,0,0,1-7.35,22.23c-4.57,8.63-8.74,17.47-13.6,25.92-7.51,13-13.92,26.66-21.18,39.81a35.43,35.43,0,0,0-2,4.36,1.13,1.13,0,0,0,.85,1.49,26.7,26.7,0,0,0,4.28.38c6.56,0,13.13-.16,19.68,0,34.71,1.09,69.42.43,104.14.65s69.43.15,104.15.29c16.16.07,32.31.42,48.46.52,19.36.12,38.72.12,58.08.15,1.08,0,2.17-.08,4.3-.17C1889.22,239.54,1888.64,239,1888,238.52ZM89.11,380.73A46.73,46.73,0,0,1,86,384.4c-2.17,2.35-4.41,4.64-6.61,7-.42.45-1.07.92-.86,1.58.31,1,1.31.75,2,.75,5.12,0,10.24,0,15.36,0,29.59-.07,59.19-.08,88.79-.26,9.91-.06,19.81-.74,29.73-.51a14.35,14.35,0,0,1,4.75.4,2.12,2.12,0,0,1,1.56,2.13,2.14,2.14,0,0,1-1.53,1.68,15.63,15.63,0,0,1-5.23.5q-11.76.06-23.51.06L83,398c-8.64,0-17.28-.07-25.92.11-6.07.12-12.13.69-18.21.5-1.44,0-2.88-.05-4.32-.18-1.09-.09-2.29-.72-3.24-.44-1.47.44-1.83,2.13-2.39,3.41-1.75,3.95-3.39,7.94-5,11.93-.54,1.34-.88,2.87-2.29,3.53a4,4,0,0,0-2.19,3.46c-.33,2.22-.57,4.44-.92,6.65-.32,2-.42,4.19-2.37,5.55-1.22.86-1.26,2.19-1.16,3.47.29,3.66.64,7.32,1,11,.49,5.1.46,5.15-4.42,5.59-.16,0-.32,0-.48,0-1.68.17-2.48.75-2.39,1.73.12,1.34,1.07,1.91,2.18,2.22a11,11,0,0,0,2.37.34c1.11.07,2.24.06,3.35.09,16.15.43,32.31.66,48.44,1.36,6.87.3,13.74.46,20.61.78a40.06,40.06,0,0,1,4.76.53A6.31,6.31,0,0,1,96,464.8c.65,3.42,2,6.75,1.55,10.36a18.72,18.72,0,0,0,.24,4.78c.71,4.85-.26,9.61-1.28,14.21-1.11,5-4.59,8.56-9.25,10.9a58,58,0,0,1-12.62,4.46c-5.43,1.31-11,2-16.67,2.86a4.57,4.57,0,0,0,2.94.42c6.23-.06,12.49.09,18.71-.25,15.34-.86,30.71-.43,46.05-1.07,11.35-.47,22.7-.5,34-.81,2.07-.06,4.14-.35,6.22-.42,2.71-.09,5.43-.15,8.14-.06a1.94,1.94,0,1,1,.25,3.87c-2.21.29-4.44.56-6.67.7s-4.48.1-6.72.13c-20.15.31-40.29.93-60.44,1.34-13.59.27-27.19.3-40.76.93-10.56.48-21.11.57-31.66.85a69,69,0,0,0-7.15.73c-1.12.15-1.57,1-1.24,2.14.22.76.54,1.5.83,2.24.8,2,2.1,3.18,4.38,3a6.18,6.18,0,0,1,1,0c10.06.35,20.14.59,30.2,1.1A299.63,299.63,0,0,1,106.37,534c4.37,1,8.69,2.14,13,3.23a22.07,22.07,0,0,1,6.67,2.57,13.55,13.55,0,0,0,4.06,1.39,226.39,226.39,0,0,0,36,5.35c11.19.76,22.38.71,33.57.77a42.7,42.7,0,0,0,4.79-.25,2.05,2.05,0,0,0,1.89-1.87,26.76,26.76,0,0,0,.18-3.35c0-3.36,0-6.72,0-10.08a250,250,0,0,1,1.59-25.36c.22-2.22.36-4.46.48-6.69a1.67,1.67,0,0,0-1.63-2c-2.23-.07-4.47,0-6.7.08a2.11,2.11,0,0,0-2,1.76,44,44,0,0,0-.89,5.67c-.73,10.69-1.39,21.39-1.29,32.11a26.28,26.28,0,0,1-.45,4.76,1.84,1.84,0,0,1-2,1.63,2,2,0,0,1-1.71-1.45,7.93,7.93,0,0,1-.43-3.79c.81-7,.38-14.06.64-21.09.13-3.36.19-6.71.64-10a43.12,43.12,0,0,0,.3-6.23c0-2.66-.68-3.24-3.49-3.4-.48,0-1,0-1.44,0-7.51.18-15,0-22.54.57-6.53.5-13.11.19-19.67.46-10.7.43-21.39,1-32.09,1.59-4.62.25-9.28.11-13.88.86a3.06,3.06,0,0,1-1-.05c-1-.18-1.89-.53-2.06-1.67a1.91,1.91,0,0,1,1.46-2.17,15.55,15.55,0,0,1,5.19-.84c8.31-.25,16.6-.9,24.91-1.29,8.63-.41,17.27-.39,25.88-.9,11.67-.7,23.34-.68,35-.84.32,0,.64,0,1,0,2.94-.17,3.31-.39,3.79-3.22.64-3.78,1.09-7.6,1.67-11.39,3-19.21,7.8-37.91,15.61-55.75a165,165,0,0,1,33.1-49.64c1.11-1.14,2.16-2.34,3.19-3.56a1,1,0,0,0-.71-1.44c-1.44-.08-2.88-.13-4.31-.14-12.32-.11-24.65,0-36.95-.39-9.9-.34-19.81-.75-29.61-2.51a111.3,111.3,0,0,1-15.3-4,25.74,25.74,0,0,1-2.71-1,6.6,6.6,0,0,0-7.57,1c-2.36,1.9-4.94,3.54-7.37,5.36a19.16,19.16,0,0,1-6,3c-7.8,2.39-15.62,4.71-23.37,7.23a17.08,17.08,0,0,1-9.44.46c-3.58-.85-7.13-1.79-10.7-2.7a6.8,6.8,0,0,0-4-.46C91.45,376.85,90.54,378.85,89.11,380.73ZM665.72,262.88c6-.77,12.14-.61,18.21-.79,12.79-.36,25.59-.46,38.36-1.16,10.23-.56,20.47-.34,30.68-.88,12.47-.65,24.95-.42,37.4-1.05,10.71-.55,21.43-.33,32.13-.86,13.26-.66,26.55-.44,39.8-1.07,10.87-.53,21.75-.31,32.61-.86,13.1-.66,26.23-.41,39.32-1,11.51-.57,23-.32,34.52-.88,13.11-.64,26.23-.41,39.33-1,11.67-.56,23.35-.31,35-.89,13.27-.66,26.55-.4,39.8-1,10.55-.51,21.1-.55,31.65-.79.48,0,1,0,1.44,0,3.1-.16,3.53-.4,4.43-3.36a191.93,191.93,0,0,1,9.65-25.56c1.08-2.32,2.26-4.59,3.39-6.89s.75-3-1.62-3a85.18,85.18,0,0,0-9.59.22c-6.22.67-12.46.5-18.69.76-11.82.49-23.63,1-35.45,1.57l-2.39.1c-8,.28-16,.4-24,.84-13.41.75-26.87.61-40.27,1.45-11.17.7-22.39.31-33.53,1.47-.32,0-.64,0-1,0-13.27.42-26.53.77-39.8,1.27-11.34.43-22.67,1-34,1.56l-1,0c-13.1.41-26.21.76-39.31,1.26-11.5.44-23,1-34.49,1.56-.64,0-1.28.07-1.92.08-16.63.14-33.23,1.32-49.87,1.32-11.5,0-23,.93-34.49,1.45l-1.92.09c-12.63.41-25.25.89-37.88,1.16a9.46,9.46,0,0,0-7.19,3,245.92,245.92,0,0,0-20.62,23.37,53.14,53.14,0,0,0-5.31,8.86C661.91,263.07,663.84,263.11,665.72,262.88Zm529.18-14.46c12-.38,24-.28,36-.88,13.27-.66,26.55-.35,39.8-1,12.14-.6,24.31-.3,36.43-.92,13.11-.67,26.23-.34,39.32-1,12.31-.62,24.63-.3,36.92-.93,12.79-.67,25.59-.33,38.36-1,12.62-.63,25.26-.32,37.87-1s25-.33,37.4-.94c13-.63,25.89-.64,38.84-.89.64,0,1.28-.06,1.92-.06a4,4,0,0,0,3.58-2c.58-1,1.18-1.91,1.7-2.9,5-9.49,9.94-19,14.86-28.5,2.16-4.17,1.91-4.53-2.69-4.5-6.87.05-13.77-.13-20.63.27-14.06.81-28.14.34-42.19,1-13.75.64-27.51.29-41.24.93-14.54.69-29.1.32-43.63,1-13.27.63-26.55.28-39.8.92-14.54.69-29.11.32-43.63,1-13.27.63-26.55.28-39.8.91-14.55.7-29.11.34-43.64,1-13.42.62-26.86.28-40.27.93-14.39.69-28.78.58-43.16.92-4.63.11-9.26.51-13.89.6a5.22,5.22,0,0,0-4.9,3.15,153.84,153.84,0,0,0-8.72,18.68c-1.39,3.75-2.63,7.55-3.92,11.33a21.53,21.53,0,0,0-.68,2.3c-.39,1.76.33,2.71,2.22,2.87,1.27.11,2.55.07,3.83.07h12.11C1161,249.12,1178,249,1194.9,248.42ZM613.42,213.54c-14.32-1.43-28.62-3-42.71-6.08a78.07,78.07,0,0,1-9.22-2.63,12.7,12.7,0,0,0-6.58-.47C545.94,206,537,207.58,528,209c-7.11,1.08-14.27,1.82-21.41,2.65-7.62.89-15.25,1.72-22.87,2.55-7.15.77-14.31,1.5-21.46,2.27q-11.21,1.22-22.4,2.47c-6.83.76-13.66,1.51-20.49,2.3q-14.54,1.68-29.05,3.4c-6.83.8-13.66,1.59-20.48,2.46-8.08,1-16.17,2.08-24.24,3.25q-21.58,3.13-43.16,6.44c-12.8,2-25.57,4.1-38.35,6.18-26.68,4.35-53.15,9.8-79.44,16.05-17.73,4.22-35.35,8.92-52.73,14.48-9.44,3-18.93,5.89-28.16,9.55-4.77,1.9-9.31,4.24-13.88,6.55-9.56,4.83-19.33,9.28-28.31,15.18-3.88,2.54-7.67,5.21-11.47,7.87-1,.7-.84,1.53.26,2.2,4.6,2.81,4.6,2.8,8.91-.6C67.09,308,76,303.62,85.11,299.68c18.26-7.88,37.28-13.47,56.51-18.37,26.21-6.67,52.71-11.92,79.34-16.56,24.1-4.2,48.31-7.69,72.54-11,14.25-2,28.56-3.52,42.85-5.19q19.29-2.27,38.59-4.37c8.11-.87,16.23-1.52,24.35-2.29s16.54-1.62,24.82-2.4c4.29-.41,8.59-.81,12.89-1.15,9.88-.76,19.77-1.46,29.65-2.24,10-.79,20.07-1.64,30.11-2.44q7.17-.58,14.35-1c7.34-.45,14.68-.81,22-1.28s14.67-1,22-1.51c.47,0,1-.1,1.43-.12,8.46-.42,16.95-.58,25.38-1.32,8.6-.75,17.28-.31,25.82-1.81a81.09,81.09,0,0,0,28.06-11C628.36,214.93,620.89,214.28,613.42,213.54ZM600,237.34c-10.54.45-21.09.77-31.63,1.29-7.82.38-15.63,1-23.45,1.51l-1.92.11c-8.46.41-16.93.73-25.38,1.27-11.81.75-23.6,1.7-35.4,2.52-6.38.45-12.76.78-19.14,1.25-6.06.45-12.1,1-18.16,1.53l-12.42,1c-9.24.75-18.49,1.43-27.72,2.25-8.28.73-16.55,1.62-24.82,2.44-7.47.75-14.95,1.48-22.42,2.27s-14.94,1.63-22.4,2.5q-13.33,1.56-26.66,3.22c-8.41,1.06-16.81,2.12-25.2,3.31-12.66,1.8-25.34,3.55-37.95,5.62-13.41,2.2-26.77,4.71-40.14,7.15q-26.93,4.89-53.38,11.86c-17.8,4.67-35.43,9.92-52.35,17.25-8.83,3.83-17.39,8.15-25,14.13a10.38,10.38,0,0,0-1.62,1.69c-.1.12.12.54.26.79a.58.58,0,0,0,.43.19c3.67.08,7.35.19,11,.17a7.4,7.4,0,0,0,2.75-.76c17.26-7.43,35.29-12.4,53.47-16.87,23.47-5.78,47.16-10.39,71-14.25,11.36-1.84,22.78-3.28,34.17-5,16.93-2.5,34-4.07,50.93-6.22,12.84-1.62,25.74-2.82,38.61-4.22,10.33-1.13,20.65-2.37,31-3.42,5.56-.57,11.15-.84,16.73-1.26,5.26-.39,10.53-.77,15.78-1.2q10-.81,20.07-1.71c8.76-.79,17.51-1.62,26.26-2.44,4.14-.38,8.28-.79,12.42-1.15,12.26-1.07,24.53-2,36.78-3.2,14.64-1.39,29.27-2.95,43.9-4.41,8-.79,15.91-1.52,23.87-2.28a39.48,39.48,0,0,0,12.07-2.87c10.27-4.45,20.6-8.76,30.9-13.15.68-.29,1.61-.31,1.89-1.56C604.7,237,602.35,237.24,600,237.34Zm67.6-35.68a86.8,86.8,0,0,0,16.17-8.34q41.63-27.06,84-53c25.48-15.66,51.13-31,77.22-45.65,16.88-9.46,33.86-18.74,50.8-28.09,1.82-1,3.71-1.87,5.55-2.83a25.17,25.17,0,0,0,2.91-1.66c1.77-1.25,1.75-2.63-.1-3.77A52.87,52.87,0,0,0,890.5,52.5a10.4,10.4,0,0,0-6.57.63c-7.65,2.83-15.27,5.73-23,8.41a227.51,227.51,0,0,0-28.45,12.69C820.12,80.55,807.66,86.74,795.23,93c-17,8.54-33.94,17.24-50.47,26.68-13.88,7.93-27.59,16.17-41.26,24.46q-38.57,23.38-77,47c-1,.58-1.87,1.21-2.76,1.88a1,1,0,0,0,.3,1.61,10,10,0,0,0,1.33.54c8.88,2.67,17.68,5.62,26.7,7.81a24.46,24.46,0,0,0,5.93.64A24,24,0,0,0,667.59,201.66Zm243.5-162c4.88,2,9.8,3.93,14.66,6a8.35,8.35,0,0,0,6.49.15c21-7.68,42.68-12.3,64.58-16.27,16.22-2.94,32.52-5.3,48.87-7.2C1056.8,21.05,1068,20,1079.1,19c10.67-.94,21.38-1.35,32-2.42.16,0,.32,0,.48,0,9.74-.39,19.49-.76,29.24-1.18,29.42-1.27,58.85-.89,88.28-.92,12.32,0,24.65-.16,37,.33,12.15.49,24.32.2,36.45.92,8.47.51,16.94.45,25.41.87,7,.34,14,1,21,1.45,5.58.38,11.17.66,16.76,1,10.54.61,21,1.81,31.51,2.91,6.84.71,13.7,1.27,20.52,2.11S1431.41,26,1438.21,27c7.27,1.09,14.57,2.06,21.8,3.38s14.37,3.16,21.61,4.5c17.18,3.17,33.81,8.44,50.56,13.26,1.23.35,2.47.66,3.7,1a5.71,5.71,0,0,0,3.76-.16q9.36-3.72,18.7-7.5c.45-.18.93-.53.74-1a1.72,1.72,0,0,0-1-.92c-4.88-1.52-9.75-3.11-14.68-4.45-20.84-5.68-41.87-10.58-63-15-10.33-2.17-20.81-3.49-31.24-5.13-11.38-1.79-22.83-2.87-34.28-4.11-12.25-1.32-24.53-2-36.81-2.89-12.92-.91-25.87-1.24-38.79-2-13.12-.78-26.23-.39-39.33-.84-15.51-.53-31-.89-46.54-.84-18.39,0-36.8-.19-55.19.32-15.35.42-30.71.27-46,.93-9.11.39-18.24.3-27.32,1-9.26.68-18.56.25-27.79,1.43a21.13,21.13,0,0,1-2.39.09c-13.12.21-26.2,1.3-39.27,2.27-17.69,1.31-35.3,3.46-52.85,6.19-23.26,3.63-46.25,8.42-69.06,14.14-7.14,1.79-14.2,3.86-21.28,5.88-1.16.34-2.59.33-3.33,1.6C909.18,39.23,910.25,39.34,911.09,39.69ZM734.2,504.82c22.54-.6,45.09-.6,67.64-.73,14.23-.07,28.48.09,42.71-.23,22.54-.5,45.09-.63,67.64-.72,14.55-.05,29.12.08,43.67-.24,22.54-.49,45.09-.64,67.64-.72,16.15-.06,32.32.07,48.47-.27,11.35-.24,22.69-.5,34-.58,4.43,0,4.83-.55,4.8-5.1,0-1.76,0-3.52-.17-5.28-.16-1.94-.83-2.58-2.63-2.78a11.49,11.49,0,0,0-1.44-.05c-8.47.2-16.95-.26-25.41.57-1.43.14-2.88.12-4.31.12-22.08.14-44.16-.08-66.22.52-21.43.58-42.86.46-64.29.71-8.15.1-16.32-.09-24.47.14-20.63.59-41.25.7-61.88.76-13.28.05-26.56-.1-39.83.24-20.63.52-41.25.63-61.88.73-13.92.07-27.85-.2-41.75.27-18.71.63-37.42.46-56.13.69-1.89,0-2.42.49-2.24,2.22.28,2.7.68,5.39,1.12,8.07a2.15,2.15,0,0,0,2,1.82,34.77,34.77,0,0,0,3.82.18H704v-.3C714,504.87,724.13,505.09,734.2,504.82Zm1082.88-354q-21.06-10.47-42.09-21c-16.77-8.32-33.82-16-51-23.46-25.67-11.15-51.63-21.6-77.68-31.81-13.85-5.43-27.8-10.58-41.65-16a8.7,8.7,0,0,0-7.3.18c-4.52,2-9.21,3.65-13.81,5.5-1.15.46-1.29,1.57-.3,2.22a24.19,24.19,0,0,0,3.75,2.09c17.71,7.41,35.23,15.21,52.65,23.26,5.66,2.62,11.35,5.19,16.95,7.94,20.82,10.2,41.67,20.33,62.38,30.76,16.86,8.48,33.54,17.3,50.24,26.09a18,18,0,0,0,8.25,2.07c8.49.16,16.92-.77,25.36-1.52,4.61-.41,9.21-1,13.81-1.61,2.21-.27,4.41-.63,6.62-.95l.21-.76C1821.34,152.81,1819.2,151.82,1817.08,150.77Zm2.13,32.91a201,201,0,0,1,18.8,11.54c1,.72,2.11,1.45,3.2,2.12a2,2,0,0,0,2.63-.05c1.28-1.2,2.88-1.26,4.5-1.23,4.15.07,8.31-.06,12.46.41,2.38.26,4.79.25,7.19.28,8.8.12,17.61-.1,26.39.39,14.7.81,29.43.27,44.12,1,15.83.77,31.67.34,47.49.92,10.87.4,21.74.57,32.61.68,3.88,0,7.37-.26,10.84-2.62,2.79-1.89,5.58-3.65,7.81-6.2a13.85,13.85,0,0,0,1.44-1.91c.64-1.07,1.94-2.19,1.28-3.42-.84-1.54-2.6-.77-3.92-.57a69.36,69.36,0,0,1-17.69,0c-8.42-.92-16.88-1.48-25.31-2.29-8-.76-15.9-1.65-23.85-2.46-7.47-.77-15-1.48-22.42-2.26-8-.82-15.9-1.69-23.85-2.53-6.83-.72-13.66-1.56-20.51-2.11-8.3-.66-16.49-2.13-24.68-3.5-4.26-.7-8.53-1.45-12.7-2.53a36.25,36.25,0,0,0-13.8-.53q-14.76,1.8-29.51,3.61c-3.65.45-7.29,1-10.94,1.39-3.47.37-7,.56-11.36.9C1806.63,176.73,1812.86,180.31,1819.21,183.68ZM282.54,359.76c13.78-8.84,28.22-16.37,43.86-21.37a164.62,164.62,0,0,1,37.08-7.33,153.64,153.64,0,0,1,79,13.5,179.55,179.55,0,0,1,44.88,29.18,150,150,0,0,1,28.82,35.09,210.18,210.18,0,0,1,23.74,57.93A263.72,263.72,0,0,1,546,498.29c.19,1.59.49,3.16.74,4.74,0,.31.09.63.17.94.48,1.78,1.9,2.32,5.26,2,1.91-.18,2.75-.88,2.81-2.59a23.23,23.23,0,0,0-.18-3.82c-2.33-18.59-5.61-37-11.28-54.88a183,183,0,0,0-38.43-67.94c-12.5-13.92-26.95-25.38-42.79-35.24a134.19,134.19,0,0,0-24.84-12.38,171,171,0,0,0-31.57-7.95,180.7,180.7,0,0,0-39.21-1.88A174.28,174.28,0,0,0,308,332.73a167.79,167.79,0,0,0-41.6,25.41c-1.6,1.32-3.05,2.82-4.52,4.27a.89.89,0,0,0,.64,1.42c2.08,0,4.16,0,6.23,0C277.94,363.72,275.06,364.56,282.54,359.76ZM673.19,217.47c-4.8,0-9.6,0-14.39-.09a12.34,12.34,0,0,0-6.42,1.53c-9.7,5.27-19.45,10.45-29.2,15.62-8.77,4.66-17.9,8.54-27,12.45-7.06,3-14.18,5.9-21.26,8.86a29.56,29.56,0,0,1-8.3,2.27c-3.81.39-7.62.91-11.43,1.3-12.57,1.31-25.12,2.65-37.7,3.85-12.09,1.15-24.2,2.11-36.3,3.22-12.42,1.13-24.83,2.38-37.25,3.49-9.07.82-18.16,1.46-27.24,2.24-9.4.81-18.79,1.71-28.18,2.51-5.26.45-10.54.67-15.79,1.15-8.75.81-17.5,1.72-26.24,2.62q-10.74,1.11-21.46,2.3c-6.68.74-13.34,1.54-20,2.3l-21.92,2.48c-8.89,1-17.79,2-26.68,3.1-1.55.19-3.25.3-4.32,1.72a1.87,1.87,0,0,0-.29,1.32c.09.5.63.65,1.12.62s1-.14,1.43-.21c9.35-1.26,18.68-2.63,28-3.75,10-1.21,20-2.2,30-3.27,7.94-.85,15.89-1.74,23.84-2.51,8.44-.82,16.88-1.52,25.32-2.29,8.76-.81,17.51-1.65,26.26-2.46q6.21-.58,12.43-1.07c9.88-.77,19.77-1.48,29.65-2.25,5.9-.46,11.79-1,17.68-1.5,4.94-.44,9.89-.54,14.84-1,6.83-.68,13.72-.85,20.58-1.31,6.7-.44,13.39-1,20.09-1.47.63,0,1.27-.12,1.91-.15,8.3-.42,16.61-.8,24.91-1.27s16.6-1,24.89-1.55l1-.06c10.55-.41,21.1-.68,31.64-1.27,10.38-.58,20.79-.56,31.16-1.11,10.08-.54,20.15-.56,30.22-.76,1,0,1.92-.09,2.88,0a4,4,0,0,0,4.14-2.62c3.29-6.86,8.19-12.58,13.09-18.29,6.26-7.29,13.05-14.07,19.92-20.78,1-1,2-2,3.82-3.84ZM1703,346.37a194,194,0,0,0-51.63-15.81,206.16,206.16,0,0,0-32.44-2.77,195.86,195.86,0,0,0-27.68,2.19,159.55,159.55,0,0,0-70.67,29.15,181.72,181.72,0,0,0-32,30.86,192.53,192.53,0,0,0-24.62,38.19,180.3,180.3,0,0,0-14.52,44.55,11.42,11.42,0,0,0-.19,1.43c-.14,2,.61,3,2.72,3.08,9.3.29,8.24.35,10.16-7.11a199.51,199.51,0,0,1,14.32-39.1,172.75,172.75,0,0,1,28.78-41.67,152.66,152.66,0,0,1,51.56-35.93,158.44,158.44,0,0,1,44.33-11.78c6.21-.74,12.44-.74,18.64-1.37,3-.3,6,.37,9.08.39,14,.13,27.68,2.46,41.2,5.86,3.41.86,6.77,1.92,10.11,3a10.69,10.69,0,0,0,4.7.69c6.36-.83,12.77-.6,19.15-.82.79,0,1.58-.11,3-.21C1705.72,347.34,1704.28,347,1703,346.37Zm146.24-143.06c4.53,3.54,9.17,7,13.62,10.6a13.08,13.08,0,0,0,8.79,3.05c11.67,0,23.35-.11,35,.32,14,.5,28.13.39,42.17,1,9.42.43,18.85.33,28.27.84,13.07.71,26.18,1,39.18,2.79a51.12,51.12,0,0,1,7,1.5,22.72,22.72,0,0,1,12.11,8.14c5.18,6.68,8.38,14.31,10.78,22.32.64,2.14,1,4.35,1.68,6.49.67,2.32,1.86,3,4.31,2.69a2.22,2.22,0,0,0,2.13-2.19,23.7,23.7,0,0,0,0-5.26c-1.36-8.18,0-16.25.81-24.34.47-4.61.86-9.23,1.28-13.84.31-3.34.7-6.67.88-10,.23-4-.43-4.67-4.27-4.07a66.24,66.24,0,0,1-10.52.61c-18.54-.06-37.1.21-55.63-.36-16.45-.51-32.93-.21-49.36-1-13.59-.62-27.18-.21-40.74-.9-13.74-.7-27.48-.61-41.22-.89-2.84-.06-5.67-1-8.93-.32A6.26,6.26,0,0,0,1849.25,203.31Zm-655,283.15c-16.78.61-33.57.32-50.34.9-8.15.29-16.29.57-24.44.64a14.66,14.66,0,0,0-2.38.24,2.12,2.12,0,0,0-1.88,1.9,40.54,40.54,0,0,0,.18,9.08,2,2,0,0,0,2,1.79c1.27.12,2.55.16,3.83.16,6.71,0,13.44.14,20.14-.2,19.33-1,38.69-.26,58-1,18.86-.72,37.73-.23,56.57-1,20.3-.77,40.61-.34,60.89-1,9.91-.32,19.83-.22,29.71-.84,8.93-.57,17.85-1.46,26.52-3.87,5.9-1.64,11.52-3.89,16.25-7.92a16.58,16.58,0,0,0,1.62-1.73.42.42,0,0,0,.05-.43,3.09,3.09,0,0,0-.65-.6.9.9,0,0,0-.47,0c-13.24,1-26.53.3-39.78.85-18.53.76-37.09.39-55.61,1.11-13.59.53-27.17.35-40.75.68C1233.86,486.3,1214,485.74,1194.22,486.46Zm681.14-263c7.08,5.48,14.19,10.91,21.27,16.39a6.74,6.74,0,0,0,4.85,1.42,98.38,98.38,0,0,1,13.41.1c6.86.61,13.73.5,20.59.75,7.67.28,15.33.64,23,.85,5.8.16,5.86,0,4.47-5.51-.73-3-1.5-5.88-2.22-8.83a5,5,0,0,1,0-3.3,1.56,1.56,0,0,1,1.44-1.06,2.21,2.21,0,0,1,1.29.47,5.22,5.22,0,0,1,1.38,3c1,3.71,1.93,7.42,3,11.12,1.12,4.06,1.68,4.52,6,4.85,1.59.12,3.19.13,4.79.14a240.38,240.38,0,0,1,24.89,1.12c9.55,1.06,19,2.74,27.95,6.4a42.65,42.65,0,0,1,9.25,5c.48.35.9.92,1.88.57a39.61,39.61,0,0,0-2.36-7.63,60.14,60.14,0,0,0-7.83-14.77,19.39,19.39,0,0,0-11.9-7.47c-3-.61-6-.87-9-1.23-9.53-1.14-19.1-1.48-28.68-1.95-11.5-.56-23-.4-34.49-1.06-10.71-.62-21.41-.46-32.11-.76-12.46-.35-24.91-1-37.38-.84-1.55,0-3.1.08-4.6.13C1873.93,222.63,1874.78,223,1875.36,223.43Zm97.6,24.64c-1.68.05-2.22.88-1.83,2.58.32,1.4.74,2.78,1.15,4.16,2.86,9.5,5.87,18.94,9.6,28.14,1,2.52,2.26,4.95,3.32,7.45a5.13,5.13,0,0,0,5.16,3.45c4.79.1,9.57.56,14.36.77,10.23.45,20.45.82,30.68,1.27,2.55.11,5.09.43,7.65.55,1.91.09,2.7-.65,2.78-2.47a26.78,26.78,0,0,0-.1-3.35c-.34-4-.6-8-1.1-11.94a75.08,75.08,0,0,1-.71-10,7.17,7.17,0,0,0-2.27-5.53,32.56,32.56,0,0,0-9.3-6.65c-7.33-3.43-15.1-5.21-23-6.39a239.42,239.42,0,0,0-27.9-2C1979,248.05,1976,248,1973,248.07ZM777.8,166.42a12.66,12.66,0,0,0-5.78,3.26c-6.28,6.16-11,13.26-12.68,22.06-1,4.85.63,9.15,2.77,13.31a4.25,4.25,0,0,0,4,2.27,29.2,29.2,0,0,0,6.17-.6c4.53-.91,9.12-1.55,13.66-2.45,5.47-1.09,10.8-.25,16.12.94,1.25.28,2.45.74,3.7,1a5.12,5.12,0,0,0,6-2.7A9,9,0,0,0,813,198c-.82-8.09-1.07-16.25-2.88-24.22-.35-1.56-.79-3.09-1.18-4.64a6.69,6.69,0,0,0-6.09-5.28c-2.21-.29-4.45-.31-6.68-.45A81.78,81.78,0,0,0,777.8,166.42ZM1917.89,256c16.36,11.49,32.72,23,49.42,34a17.29,17.29,0,0,1,2,1.32c3.15,2.84,6.82,2.09,10.44,1.5a1.09,1.09,0,0,0,.82-1.48,15.09,15.09,0,0,0-.78-2.26,314.54,314.54,0,0,1-12.63-36.2c-1.65-5.57-1.28-5.47-7.6-5.63q-21.82-.57-43.63-1.26c-2.71-.09-5.42-.42-8.13-.59a3,3,0,0,0-2.75.85C1909.51,249.63,1913.59,253,1917.89,256ZM257.34,368.37a5.57,5.57,0,0,0-3.68,2.06c-2.68,2.74-5.47,5.39-8,8.29a186.89,186.89,0,0,0-27.64,41.87,201.61,201.61,0,0,0-14,40.21c-2,8.24-3.4,16.58-4.61,25-.27,1.89-.38,3.81-.47,5.72a1.59,1.59,0,0,0,1.75,1.81c2.08.05,4.16.08,6.23,0s2.77-.77,3.17-2.9c.73-3.93,1.25-7.89,2.06-11.8,2.94-14.23,5.88-28.47,10.44-42.31a142.25,142.25,0,0,1,27.24-48.05,153.72,153.72,0,0,1,17.37-17.15c.72-.61,1.4-1.28,3-2.78C265.24,368.14,261.29,368.21,257.34,368.37ZM107,327.76A115.57,115.57,0,0,1,86.43,329c-1.94-.09-3.3,1.08-4.62,2.25a121.72,121.72,0,0,0-11.52,11.53,127.28,127.28,0,0,0-15,21.68,15.05,15.05,0,0,0-.84,1.71c-.19.46-.2,1,.34,1.2a3.15,3.15,0,0,0,1.37-.15.68.68,0,0,0,.37-.28c1.58-2.52,4.18-2.71,6.74-2.93a210.48,210.48,0,0,0,21.35-3,195.6,195.6,0,0,0,24.24-5.81,23.58,23.58,0,0,1,3.73-.8,1.59,1.59,0,0,0,1.5-1.55c.08-.8.1-1.6.1-2.4q0-9.58,0-19.19c0-.64,0-1.28-.07-1.91-.17-1.69-.89-2.33-2.45-2.26C110.13,327.31,108.55,327.56,107,327.76Zm2.24-4.68c17.43-2.45,34.63-6.19,51.9-9.53,20.72-4,41.39-8.32,62.22-11.76,5.68-.94,11.34-2.08,17.05-2.68,3.54-.37,5.06-2.21,5.72-5.33.1-.47.27-.92.35-1.39a1.64,1.64,0,0,0-1.67-1.89,32.42,32.42,0,0,0-3.81.3q-20.21,2.73-40.29,6.24C172.79,302,145,307.58,117.86,315.63c-6.59,1.95-13.07,4.29-19.58,6.49-1.34.45-2.63,1.09-3.94,1.64C99.44,324.74,104.32,323.76,109.2,323.08ZM1527.42,26.48c11,2.68,22,5.61,32.76,9.08,4.13,1.32,4.56.66,5.38-3.35a34.47,34.47,0,0,0,.45-9.07c-.16-2.68-1.28-4.81-4.91-5.46A171.92,171.92,0,0,0,1522,14.89a132.41,132.41,0,0,0-23.67,3.32,16.79,16.79,0,0,0-1.89.78C1507.27,21.6,1517.35,24,1527.42,26.48ZM1169.9,40.75c-9.6,0-19.21-.21-28.79.16-11.34.45-22.7.54-34,1-9.74.39-19.47,1-29.19,1.82-20.56,1.64-41.07,3.77-61.33,7.71-11.77,2.29-23.54,4.59-35.18,7.5A316.87,316.87,0,0,0,942.6,71.48c-9.22,3.61-18.39,7.39-27.31,11.75-3.16,1.54-6.36,3-9.55,4.5-10.74,5-20.94,11-31.31,16.7-9.11,5-18.31,9.89-27.14,15.35-19.18,11.85-38.39,23.68-57,36.49-1.13.78-2.51,1.32-3.26,2.77A5.86,5.86,0,0,0,792.2,158c2.14-1.4,4.26-2.82,6.38-4.26,20-13.59,40.33-26.58,61.17-38.79C874.24,106.43,889,98.48,904,91c11.3-5.67,22.76-11,34.44-15.8a342.41,342.41,0,0,1,64.16-19.47c11.29-2.21,22.57-4.52,34-6.18,9.65-1.4,19.32-2.63,29.05-3.42l31.54-2.54c.79-.07,1.59-.09,2.39-.13,18.05-.86,36.11-1.26,54.19-1.3,6.55,0,13.09-.4,19.64-.64.25,0,.48-.26,1.31-.72Zm-981.66,287a1.49,1.49,0,0,0,1.59,1.46,7.47,7.47,0,0,0,1.89-.16c13.17-3.29,26.36-6.52,38.94-11.74,1.62-.67,3.15-1.55,4.76-2.26a10.39,10.39,0,0,0,6-7c1.47-4.92,1.59-5-3.3-4.22-10.24,1.65-20.46,3.41-30.69,5.17-4.4.76-8.78,1.65-13.17,2.49-.79.14-1.58.25-2.35.46-2.83.76-3.32,1.36-3.49,4.31,0,1,0,1.92,0,2.88s0,1.91,0,2.87h-.16C188.22,323.9,188.16,325.81,188.24,327.72ZM713.45,222.79c5.11-.1,10.22-.08,15.34-.44,5.73-.41,11.5-.37,17.25-.61,5-.21,9.89-.52,14.83-.83a1.47,1.47,0,0,0,1.11-.66,1.49,1.49,0,0,0-.48-1.18c-1.88-1.73-3.85-3.37-5.7-5.12a23.32,23.32,0,0,1-4.37-5.69c-2.75-5-2.27-9.41,1.53-13.61.76-.83,1.65-1.55,1.8-2.74.06-.46.17-1.07-.06-1.37-.52-.69-1.15-.18-1.63.17-2.85,2.07-5.69,4.14-8.49,6.26Q730,208,715.51,219c-1.22.92-2.66,1.67-3.37,3A1.26,1.26,0,0,0,713.45,222.79ZM26.53,396.8c5.3-9.58,11.45-18.49,19.95-25.57A6.65,6.65,0,0,0,48.2,369a127.48,127.48,0,0,1,27.42-37.87,14.8,14.8,0,0,0,1.21-1.47c-2.93-1.71-6-1.81-8.42-.11a70.53,70.53,0,0,0-6,4.76,111.69,111.69,0,0,0-19.62,22.88,153.09,153.09,0,0,0-18.73,41.89c-.16.56-.6,1.16.21,1.93C25,399.56,25.77,398.17,26.53,396.8Zm1104.5-191c-8.31.28-16.62.65-24.92.93-12.63.43-25.26.59-37.87,1.29-8.31.47-16.63.41-24.92.95s-16.63.42-24.92,1-16.62.42-24.91,1-16.63.41-24.92,1c-8.47.56-17,.41-25.4,1-8,.53-16,.4-24,.92-8.94.58-17.91.45-26.83,1-8.15.52-16.31.4-24.44.93-8.47.56-17,.43-25.4,1-8.15.53-16.29.62-24.44.89-4,.13-8,.49-12,.76a5.87,5.87,0,0,0-3.2,1c.49,1,1.37.63,2,.61,7.67-.27,15.33-.62,23-.89,11.5-.41,23-.55,34.51-1.23,8-.48,16-.39,24-.92,8.62-.57,17.26-.44,25.87-1,8-.52,16-.39,24-.92,8.63-.56,17.27-.43,25.88-1,8-.52,16-.39,24-.91,8.78-.58,17.59-.44,26.35-1,7.67-.51,15.37-.28,23-.91,10.85-.89,21.75-.28,32.58-1.46.79-.09,1.59-.06,2.39-.09,12.15-.42,24.3-.64,36.43-1.35,8.15-.48,16.29-.68,24.44-.88a6.82,6.82,0,0,0,4.26-.89C1133.84,205.39,1132.39,205.73,1131,205.78Zm415.43-8.68c-7.67.06-15.36-.08-23,.27-17.42.79-34.86.42-52.26,1.09-13.91.54-27.82.27-41.71.85-17.1.71-34.22.38-51.3,1.06-14.23.58-28.47.27-42.68.86-17.1.71-34.21.38-51.3,1.06-14.38.57-28.78.26-43.15.87-16.94.7-33.89.36-50.82,1.05-14.55.6-29.09.5-43.63.86-1.52,0-3.55-.9-4.53,1.32,1.37,1.52,3,.32,4.45.31,9.76,0,19.52,0,29.26-.38,16.14-.66,32.3-.46,48.42-1.1,12.31-.49,24.62-.3,36.92-.84,15.18-.66,30.37-.43,45.54-1.07,12.95-.55,25.9-.29,38.83-.87,14.87-.66,29.74-.38,44.59-1,13.11-.59,26.22-.29,39.31-.89,15-.68,30.06-.37,45.07-1,12.94-.58,25.9-.27,38.83-.89,15.17-.73,30.35-.62,45.61-1.5C1554.75,197.09,1550.61,197.07,1546.46,197.1ZM63.57,372c-3.51.07-7,0-10.52-.07a4.27,4.27,0,0,0-4,1.93,34,34,0,0,1-4.13,4.62,76.87,76.87,0,0,0-10,12.76c-1,1.61-.64,2.52,1.11,2.52q11.25.06,22.48,0c1.83,0,2.09-.2,2.46-2.17A9.18,9.18,0,0,1,63.27,387q4.2-4.59,8.38-9.19a12.35,12.35,0,0,1,9.74-4.29c1,0,2.16.38,3.3-.41A172.87,172.87,0,0,0,63.57,372Zm1981-60.82c2.43-.09,3.14-.95,3.12-3.28a16,16,0,0,0-.19-2.39c-.6-4-1.2-4.46-5.16-4.77-7-.56-14.07-.5-21.06-1.1-8.61-.73-17.27-.28-25.84-1.43a4.39,4.39,0,0,0-1-.05c-1.33.16-3.24-.81-3.81.87-.46,1.39,1.17,2.5,2,3.62a6.63,6.63,0,0,0,3.31,1.84,126.75,126.75,0,0,0,21.79,5.61,87.49,87.49,0,0,0,16.72,1.11C2037.87,311.23,2041.23,311.32,2044.59,311.2ZM644.21,205.26c-7.63-2.36-15.33-4.52-22.9-7a8.35,8.35,0,0,0-8.1,1c-3.42,2.34-7,4.41-10.55,6.61-.54.34-1.13.78-.89,1.5s1,.78,1.59.86c2.7.32,5.4.64,8.1.89,4.93.46,9.86.87,14.79,1.28q9.32.79,18.62,1.55c1.91.15,3.83.14,5.74.32,3.78.35,6.74-1.2,10.24-4.41C654.34,208.18,649.26,206.82,644.21,205.26ZM1589.54,53c-4.34-1.61-8.75-3.07-13-4.82a9.62,9.62,0,0,0-8.25.24c-4.2,2-8.53,3.62-12.78,5.45a1.46,1.46,0,0,0-.77,1c0,.35.44.77.79,1a5.69,5.69,0,0,0,1.29.62c5.8,2.26,11.62,4.49,17.41,6.77,1.44.57,2.63.72,3.88-.59,2.16-2.28,5.23-3,8-4.13,2.48-1.05,5.14-1.68,8.16-3.63C1592.15,54.08,1590.86,53.48,1589.54,53ZM1834,158.64a8.12,8.12,0,0,0-4.7-.46c-11.67,1.88-23.45,2.94-35.2,4.18-3.18.33-6.39.32-9.58.49-.47,0-1,.23-.93.81a1.26,1.26,0,0,0,.56.73,14.41,14.41,0,0,0,5.23,2.28,52.88,52.88,0,0,0,19,1.18c10.32-1.21,20.62-2.52,30.92-3.82,1.09-.14,2.15-.45,3.23-.68l.13-.85ZM32.4,530.73a40,40,0,0,0,11.85,4.76c3.14.52,6.32.93,9.51,1.16,8.92.65,17.85,1.18,26.78,1.75,1.12.07,2.24.1,3.36.13,8.15.16,16.3.22,24.52.73C83.68,532.75,58.31,531.3,32.4,530.73ZM63.92,322.45a3.64,3.64,0,0,0,3-1.3c4.77-5.3,10.71-9,16.89-12.42a196.88,196.88,0,0,1,29.78-13.1q20.58-7.22,41.75-12.45c1.08-.26,2.14-.58,3.32-.91-.83-1-1.69-.39-2.41-.21-16.77,4-33.42,8.48-49.77,14a246.44,246.44,0,0,0-23.62,9.25c-8.3,3.79-16.28,8.15-23.25,14.14A24.1,24.1,0,0,1,57.14,321,14,14,0,0,0,63.92,322.45Zm1970.61,117c6.18-.51,12.35-1.11,18.53-1.65a16.92,16.92,0,0,0,4.68-.83,10.39,10.39,0,0,0,3.66-2.18c1.68-1.61,2.65-3.86,1.9-4.53-1.24-1.1-2.71-.48-4.09-.31a118.9,118.9,0,0,0-25.51,6,29.46,29.46,0,0,0-7,3.44A26.35,26.35,0,0,0,2034.53,439.49ZM26.29,375.82c-.68,1.26-1.32,2.55-2,3.82-4.09,7.6-5.34,9.21-12.06,15.49,2.26,1.59,2.27,3.89,2.08,6.36a115.54,115.54,0,0,0-.07,16.64c1.25.26,1.12-.62,1.22-1.14a202.83,202.83,0,0,1,5.83-23.7A160.85,160.85,0,0,1,32.07,367.2c.74-1.41,1.44-2.84,2.16-4.26l-.66-.51Q29.93,369.12,26.29,375.82ZM726.23,171.24C705,184.6,684,198.12,662.88,212c2.75,1.31,3.9,1.37,5.88.12s3.67-2.55,5.51-3.82q25-17.33,50-34.64a16,16,0,0,0,3.35-2.53A1,1,0,0,0,726.23,171.24Zm1329,27.33a1.79,1.79,0,0,0,1.33-2.57,6.47,6.47,0,0,0-.81-1.72,33.37,33.37,0,0,0-7.86-7.6c-1.18-.82-2.3-.73-2.89.37a44.59,44.59,0,0,1-10.34,12.47C2042,199.89,2048.65,200,2055.2,198.57ZM893.59,44.94c-1.16.49-3,.63-3.11,1.92-.22,1.62,1.71,1.51,2.77,1.91a95,95,0,0,1,10.12,4.33c2.41,1.25,4.84,2.48,6.59,4.67a2,2,0,0,0,2.53.69q2.84-1.27,5.63-2.64a.89.89,0,0,0,.14-1.55,8.52,8.52,0,0,0-.8-.53c-6.09-3.17-12.39-5.9-18.76-8.46a24.14,24.14,0,0,0-3-.8A12.72,12.72,0,0,0,893.59,44.94ZM25,350.59a135.93,135.93,0,0,0-12.57,35.59,2.51,2.51,0,0,0-.09.94,1.14,1.14,0,0,0,.42.75,1,1,0,0,0,.87-.14,16.44,16.44,0,0,0,4.75-8.14c1.07-4.35,2.32-8.64,3.5-13,2.23-8.17,5.37-16,7.8-24.31C28.13,345.07,26.48,347.79,25,350.59Zm680.41-129.1c16.34-13,33.19-25.42,50-37.84,2.15-1.59,2.15-1.6,3.46-4.29-.71-.55-1.16.07-1.63.4-17.17,11.89-51,38.33-55.3,43.34A5,5,0,0,0,705.42,221.49Zm94.29-12.31c-3.91-.69-7.79-1.54-11.82-.79-3,.56-6,.89-9,1.34-.62.09-1.41.14-1.55.85-.19,1,.76,1.22,1.4,1.62,2.7,1.65,5.66,1.74,8.73,1.9,4.89.24,8.86-1.81,13-4C800.1,209.62,799.94,209.22,799.71,209.18ZM75.5,380c-2.49,2.67-4.92,5.4-7.34,8.13-.65.73-.26,1.58.7,1.72,3.31.49,6.28.07,8.65-2.67,2.08-2.4,4.34-4.64,6.51-7a1.57,1.57,0,0,0,.56-1.68c-.28-.7-1-.71-1.61-.74s-1,0-1.13,0A7.37,7.37,0,0,0,75.5,380Zm61.78-50.29c2.17.41,2.95-.25,3.11-2.39a17.19,17.19,0,0,0,0-2.38c-.13-2-.77-2.62-2.7-2.33-3.13.48-6.28.94-9.37,1.64-2.62.59-5.38.5-8.69,2C126.08,327.56,131.67,328.7,137.28,329.75ZM2067.5,504.24c1.85-3.53,3.82-7,5.72-10.51A7.28,7.28,0,0,0,2074,492a2,2,0,0,0-.15-1.34c-.36-.63-1.07-.59-1.71-.54-1.09.1-1.6.91-2.14,1.72-1.5,2.26-3,4.52-4.59,6.72s-3.29,4.31-4.91,6.48a1.87,1.87,0,0,0-.47,1.26c.13.78.89.75,1.51.81.32,0,.64,0,1.15,0C2064.81,507.33,2066.4,506.32,2067.5,504.24ZM813.62,169.47a121.61,121.61,0,0,1,3,19.9c.13,2.08.44,4.14.66,6.2.6,5.79-.64,10.83-5.71,14.37-.21.15-.28.51-.41.77,5.34-1.28,6.85-2.82,7-7.87a128,128,0,0,0-.51-17.73c-.4-4.13-1.06-8.25-1.82-12.33-.4-2.12-.76-4.36-2.33-6.21C812.68,167.75,813.43,168.61,813.62,169.47ZM2068.41,438.92a13.49,13.49,0,0,0,4.92-6.33,2.16,2.16,0,0,0-.63-2.6,2.63,2.63,0,0,0-3.11.22,8.37,8.37,0,0,0-1.33,2,18.19,18.19,0,0,1-7.22,8.26C2064.53,441,2066.58,440.27,2068.41,438.92ZM903.7,42.73q8.68,4,17.42,8c.86.38,1.66,1,2.69.74a1.1,1.1,0,0,0,.66-.59,1,1,0,0,0-.14-.85,4,4,0,0,0-1.22-.74q-10.62-4.38-21.26-8.72c-.24-.1-.59.06-1.21.13C901.55,42.07,902.71,42.27,903.7,42.73Zm661.39,1q-9.55,3.68-19.07,7.43c-.44.17-.79.57-.42,1.07a1.08,1.08,0,0,0,.84.33,7.17,7.17,0,0,0,1.83-.43q8.58-3.54,17.15-7.12c.43-.18.9-.39.89-1A1,1,0,0,0,1565.09,43.73ZM2075,485.43a.83.83,0,0,0,.55-1.15,12.31,12.31,0,0,0-4-5.2,3.47,3.47,0,0,0-1.34-.43,1.81,1.81,0,0,0-2.15,1.92c.36,3.52,2.08,5.09,5.8,5.07A7.24,7.24,0,0,0,2075,485.43ZM68.06,484.61c-.62-.15.42.22,0-.29a.6.6,0,0,0-.41-.2l-38.78,0H25.62C29.74,485,59.31,485.13,68.06,484.61ZM1283.33,42.2v-.3h-29.8l.13.3Zm796.31,458.62a8.87,8.87,0,0,0,2-1.15,27.06,27.06,0,0,0,4.87-5.84c.23-.35.45-1,.28-1.28-.36-.65-1.1-.46-1.71-.3a1.68,1.68,0,0,0-.83.45c-1.82,2.39-3.61,4.81-5.39,7.23-.08.11,0,.31,0,.47C2079.14,500.55,2079.48,500.89,2079.64,500.82ZM779.58,218.91a.74.74,0,0,0,.34-1.34,24.37,24.37,0,0,0-6.9-3.06,9.23,9.23,0,0,0-2.35-.1c-.24,0-.46.32-.68.5C773.39,218,776.44,219.25,779.58,218.91ZM1205.3,41.42h2.33v-.35a12.38,12.38,0,0,0-1.35-.15h-22.83l0,.51ZM755.4,200.63a.49.49,0,0,0-.79-.28,1.32,1.32,0,0,0-.45.77,6.43,6.43,0,0,0,.44,3.75,9.63,9.63,0,0,0,4.17,5.15C757.66,206.86,756.41,203.79,755.4,200.63ZM10.32,446.44c0,.2.39.39.6.59.18-.22.46-.41.5-.65a4.3,4.3,0,0,0,.05-1.43c-.64-4.09-.87-8.22-1.17-12.34C10.3,437.22,10.29,441.83,10.32,446.44ZM1565.6,189.93a4.66,4.66,0,0,0-.29,1.33c.38-.09.8-.06.89-.21,1.76-3.15,3.48-6.31,5.2-9.47l-.78-.62C1568.94,184,1567.25,186.93,1565.6,189.93ZM4.61,416.51q.45-6.61.87-13.22c0-.12-.19-.24-.87-1.09A92.23,92.23,0,0,0,4.61,416.51Zm1569-240.1a12.54,12.54,0,0,0,2.93-5.67A12.45,12.45,0,0,0,1573.64,176.41ZM500.81,237.65a21.25,21.25,0,0,0,7.91,0ZM493.33,239c-.88-.94-1.85-.42-2.72-.48-1.08-.07-2.17,0-3.26,0l.23.5ZM2083,428.78V429h5v-.25ZM49.32,319.37a3.27,3.27,0,0,0-1.32,0c-.07,0-.18.27-.15.37a3.32,3.32,0,0,0,2.53,1.67c.11,0,.18-.22.27-.35A1.86,1.86,0,0,0,49.32,319.37ZM1069.4,40.25c0-.11,0-.22,0-.33h-5.12v.33ZM474.89,239.58v.29h5v-.29Zm-388,237.23c-.06.74.47,1.08,1.14,1.08a1,1,0,0,0,.73-.42c.23-.74-.25-1.1-.86-1.33C87.33,476.1,86.9,476.32,86.85,476.81ZM466.52,240.86v-.24h-4.21v.24ZM77.19,468.29a.82.82,0,0,0-1,.63.85.85,0,0,0,.7,1,.84.84,0,1,0,.34-1.64ZM90.75,494.4a1,1,0,0,0-1.06-1.14c-.51,0-.91.31-.82.8a1.19,1.19,0,0,0,1.29.92C90.39,494.77,90.74,494.6,90.75,494.4ZM71.62,465.82a.92.92,0,0,0,.66-.51A1.26,1.26,0,0,0,71,463.83c-.24,0-.46.32-.68.5A1.31,1.31,0,0,0,71.62,465.82ZM63.87,474a.81.81,0,0,0-1-.68c-.19,0-.48.45-.43.62a.89.89,0,0,0,1,.71C63.6,474.47,63.91,474.21,63.87,474ZM453.58,241.54h-3.33A3.92,3.92,0,0,0,453.58,241.54Zm-11.78,1a3.33,3.33,0,0,0-2.64.17A4.26,4.26,0,0,0,441.8,242.57ZM83.44,482.28a.76.76,0,0,0,.61-.42.79.79,0,0,0-.72-.92c-.19,0-.43.27-.65.42A.87.87,0,0,0,83.44,482.28ZM855.72,109.86c.41-.22.83-.43,1.23-.67a.56.56,0,0,0,.23-.37.44.44,0,0,0-.21-.34,3,3,0,0,0-1.92,1.14C855.12,110,855.34,110.07,855.72,109.86Zm12.57-6.8c-1.59-.53-2,.37-3.2.72C866.67,104.33,867.13,103.41,868.29,103.06Zm190.17-61.89a2.54,2.54,0,0,0-2.92.16ZM85.08,498.44a2.54,2.54,0,0,0,1,.88,1,1,0,0,0,.76-.23c0-.75-.58-1-1.19-1.2C85.23,497.9,84.92,498.17,85.08,498.44Zm-18-29.74a.79.79,0,0,0-.61.43.73.73,0,0,0,.69.89c.19,0,.42-.27.63-.42A.8.8,0,0,0,67.09,468.7Zm626.66-246s.07.27.1.41c.39-.24.79-.46,1.16-.73a.48.48,0,0,0,.13-.42c0-.09-.23-.13-.36-.19C694.43,222.12,694.07,222.41,693.75,222.74ZM714,206.84a1.52,1.52,0,0,0,1.26-1.08c0-.07-.18-.29-.24-.28a1.57,1.57,0,0,0-1.27,1.08C713.85,206.66,714,206.86,714,206.84ZM80,486.42a.65.65,0,0,0-.74-.8.89.89,0,0,0-.58.51c-.15.42.3.87.75.84C79.61,486.79,80,486.63,80,486.42Zm4.45,4.35a1,1,0,0,0,.65-.55.58.58,0,0,0-.85-.67c-.22.13-.32.47-.47.71C84,490.45,84.22,490.79,84.43,490.77Zm344.44-247a2.66,2.66,0,0,0,.46-.09c-.18-.09-.36-.27-.54-.27-.43,0-.86.08-2.08.23ZM1041.32,43.15c.2,0,.38-.2.57-.31-.56,0-1.13-.05-1.7-.06,0,0-.09.17-.16.33A9.41,9.41,0,0,0,1041.32,43.15Zm6.46-1c.59,0,1.17-.06,1.76-.1,0-.09,0-.27-.06-.27-.59,0-1.17,0-1.78,0A2,2,0,0,0,1047.78,42.18ZM416.9,244.52a9.85,9.85,0,0,0,1.21.2c.17,0,.35-.18.53-.27l-.87-.09Z"/><path d="M374.8,345.6c86.53-.14,157.67,69.9,157.4,157.55A156.89,156.89,0,0,1,374.92,659.84c-88.43-.18-157-72.06-156.94-157C218,415.05,289.2,345.74,374.8,345.6Zm1.5,309a151.87,151.87,0,1,0-153.1-151.5C223.32,584.84,289.3,655.14,376.3,654.58Z"/><path d="M1468,513.07c-.12-87.05,70-157.32,156.54-157.48,90.13-.16,157.72,72.86,157.72,156.78,0,89.5-73.19,158-157,157.33C1539.39,670.31,1468.08,600.15,1468,513.07Zm89.21-136.18q-51.5,26.16-73.29,79.87a145.41,145.41,0,0,0-9.5,37.08,152.44,152.44,0,0,0,15.89,88.83,152.07,152.07,0,0,0,243.81,35.88,151.83,151.83,0,0,0,33.19-52.3,150,150,0,0,0,8.54-34.87,146.87,146.87,0,0,0,.51-32.54,156.29,156.29,0,0,0-7.13-34.21,152,152,0,0,0-114.89-101,122.88,122.88,0,0,0-28.35-2.5A142.59,142.59,0,0,0,1557.17,376.89Z"/><path d="M586.46,336.85a9.88,9.88,0,0,1,3.62,1.17c1.72,1.07,2.93,2.49,2.9,4.64a4.71,4.71,0,0,1-3,4.49,29.77,29.77,0,0,1-5.44,1.76c-8.6,1.83-17.35,2.66-26.06,3.67-7.85.91-13.52-2.84-18.2-8.55-2-2.47-1.23-4.85,1.84-5.95a17.68,17.68,0,0,1,5.64-1c9.41-.18,18.83-.23,28.23-.88A69.62,69.62,0,0,1,586.46,336.85Zm-36.62,4.46a21.56,21.56,0,0,0-3.31.31,1.25,1.25,0,0,0-.68,1.91,5.32,5.32,0,0,0,.59.74c3,2.93,6.57,4.52,10.81,4.06,9-1,18.06-1.86,27-3.72a11.37,11.37,0,0,0,1.85-.46c.72-.27,1.55-.48,1.7-1.45.12-.71-.69-1.41-2.08-1.48-2.54-.13-5.09-.16-7.64-.18-3.82,0-7.65,0-11.47,0v.26C561,341.29,555.41,341.28,549.84,341.31Z"/><path d="M374.91,352.11c83.17,0,150.49,67.92,150.81,149.83.32,84.31-68.49,151.28-150.19,151.42-85,.13-151.72-69.82-150.9-150.55C224,419.5,293,352.13,374.91,352.11Zm.52,299c81.17-.1,148.39-66.56,148-149.17-.36-80.69-66.57-147.61-148.69-147.57-80.91.05-148.8,67-147.87,148.71C226.22,582.42,291.71,651.18,375.43,651.08Z"/><path d="M1625.12,663.53c-87.53-1-150.6-71.53-150.65-150.65,0-81.94,66.09-150.68,150.35-150.75,86.07-.08,151.45,70.23,150.78,150.69C1776,593.26,1711.32,662.61,1625.12,663.53Zm69.52-19.73A148.16,148.16,0,0,0,1772,534.26a148.38,148.38,0,0,0-20.57-99.41,148,148,0,0,0-53.33-51.34,147.85,147.85,0,0,0-85.84-18.59,150,150,0,0,0-49.8,13.25,148.29,148.29,0,0,0-84.67,117.27,153.49,153.49,0,0,0-.62,28.26,144.44,144.44,0,0,0,11.68,47.75,146.59,146.59,0,0,0,22.28,36.24,147.88,147.88,0,0,0,98.16,52.56c5.23.57,10.54.48,15.81.69C1649.76,661.33,1672.89,655.27,1694.64,643.8Z"/><path d="M373.76,359.37c39.42-.21,73.64,14,101.57,41.8s42,61.78,42.11,100.95c.06,38.41-13.42,72.11-40.34,99.75-27.89,28.66-62.17,43.41-102.2,43.61-81.46.39-144.09-66.42-143.53-142.69C230.67,425.37,293.41,359.79,373.76,359.37Zm.46,2.26c-80.43-.05-141,65.87-140.73,141.29.21,75,61.11,140.64,141.65,140.36,77.53-.28,140.79-64.26,139.77-141C515.93,429.62,456.93,361.68,374.22,361.63Z"/><path d="M1600.92,653.65A143.58,143.58,0,0,1,1555.8,638a141.74,141.74,0,0,1-30.17-22,144.08,144.08,0,0,1-31.94-45.16,141.83,141.83,0,0,1-11.54-74.48,142.07,142.07,0,0,1,7.27-31.72c10-27.87,26.89-50.75,51-68.06,30.15-21.67,63.78-30.26,100.66-26.23a138.79,138.79,0,0,1,53.46,17.38,143.34,143.34,0,0,1,69.59,93.95,154.43,154.43,0,0,1,3.43,30,128.92,128.92,0,0,1-1.41,19.59A140.09,140.09,0,0,1,1747,586.16a141.67,141.67,0,0,1-54.5,52.11,136.6,136.6,0,0,1-69.11,17A123,123,0,0,1,1600.92,653.65Zm123.22-42c27.38-27.4,40.21-60.93,41.2-99.32-.93-38.64-14.2-72.2-41.75-99.58-27.4-27.23-60.65-40.71-99.3-41-77.15-.53-141.18,63.13-140.79,141.57.39,76.55,63.52,140.75,141.13,139.84C1663.37,652.7,1696.69,639.11,1724.14,611.62Z"/><path d="M374.22,378.57A123.69,123.69,0,0,1,498.54,502.68c0,34-12.21,63.44-36.33,87.59s-53.59,36.53-87.52,36.55c-34.09,0-63.9-12.17-88.06-36.5-24-24.15-36-53.52-36.2-87.61C249.82,436.37,303.66,378.68,374.22,378.57Zm11.55,79.22c.5-.16.76-.18.77-.26.77-3.6.5-7.26.62-10.9a8,8,0,0,0,.29-5.47c-.08,1.83-.17,3.67-.26,5.5A39.66,39.66,0,0,0,385.77,457.79Zm-16.2-18.88c-.47,5.39-.91,10.78-1.35,16.17a2.13,2.13,0,0,0,.1.94c.1.25.34.6.54.61a.82.82,0,0,0,.64-.49c.13-1.9.23-3.81.26-5.72.07-4.14.08-8.29.11-12.43,1.23-3.35.4-6.8.31-10.22L369.91,438A3.88,3.88,0,0,0,369.57,438.91ZM405,535.77a43.81,43.81,0,1,0-66.16-57.11,15.67,15.67,0,0,0-1.36,2c-.58,1.06-2,2.14-1.11,3.32.73.95,2-.24,3.1-.37a8.3,8.3,0,0,1,9.31,6.43,8.12,8.12,0,0,1-5.78,9.28,8,8,0,0,1-8.54-3,36,36,0,0,1-2-3.14c-1.35.68-1.33,1.95-1.45,2.95-.9,7.18-1.17,14.37,1,21.4a45.47,45.47,0,0,0,10.57,18.06,6.85,6.85,0,0,0,3.1,2.17l1.13,1.07a10.75,10.75,0,0,0,3.62,3.08,43,43,0,0,0,22.22,6.61c7.85.13,15.27-1.19,22.16-5a11.58,11.58,0,0,0,3.85-2.79l-.06.05C401.33,539.79,403.12,537.69,405,535.77Zm-9.48,65.85a28,28,0,0,0,3.7-1,1.82,1.82,0,0,0,1.33-2.22,7.36,7.36,0,0,0-.21-.93c-2.87-8.66-6.26-17.1-11.66-24.54-5.08-7-12.15-10.06-20.66-10a18,18,0,0,0-11.82,4.53,26.25,26.25,0,0,0-5.05,5.72c-4.38,6.68-8.06,13.77-11.93,20.74-1.16,2.09-.72,3.11,1.64,4a82.67,82.67,0,0,0,18.52,4.7c5.2.69,10.42,1.59,14.28,1.26A113.7,113.7,0,0,0,395.55,601.62ZM351.4,408a1.53,1.53,0,0,0-1.92-1.58,20.68,20.68,0,0,0-2.81.61,100.24,100.24,0,0,0-47.4,30.2,10.76,10.76,0,0,0-.9,1.12,1.3,1.3,0,0,0,.18,1.74,11.42,11.42,0,0,0,1.44,1.25,116,116,0,0,0,20.11,12c6.82,3.18,13.62,2.95,20.42.28,7.7-3,12-8.77,12.77-17,.19-1.9,0-3.83,0-5.74l.33,0C352.9,423.23,352.17,415.61,351.4,408ZM287.54,553.25l.49.83c2.47,4,2.71,4.1,6.46,1.22a110.42,110.42,0,0,0,15.25-13.82c4.81-5.34,7.4-11.5,7.13-18.76-.33-9.05-4.61-15.42-12.94-19a28.74,28.74,0,0,0-5-1.66c-6.71-1.49-13.42-3-20.16-4.28-4.1-.8-4.45-.42-4.58,3.64,0,1.12,0,2.23,0,2.85C274.68,522,278.9,538.25,287.54,553.25ZM412,455.44A18,18,0,0,0,426.35,462a25.69,25.69,0,0,0,9.41-1.42c7.25-2.91,14.48-5.88,21.72-8.83a8.6,8.6,0,0,0,.85-.45,1.39,1.39,0,0,0,.69-2,11.22,11.22,0,0,0-.95-1.65,100.1,100.1,0,0,0-39.6-34.51c-7.13-3.44-6.65-3.83-9,3.76-2.1,6.87-4,13.81-4,21.87C405,444.82,407.7,450.48,412,455.44ZM450.2,511.3A24.45,24.45,0,0,0,433,522.44c-4.52,6.91-4.91,14-1.1,21.33a27,27,0,0,0,2.77,4.48c4.63,5.71,9.35,11.36,14,17a18.06,18.06,0,0,0,1.66,1.73,1.22,1.22,0,0,0,1.73.06,12.79,12.79,0,0,0,1.6-1.77,101.28,101.28,0,0,0,20.39-48.54c.87-6,.18-6.77-5.76-6.81H464A78.19,78.19,0,0,0,450.2,511.3Zm-51.27-49.42a5.23,5.23,0,0,0,2.23,4.51,62.89,62.89,0,0,1,5.82,5,5.21,5.21,0,0,0,5.23,1.34c14.58-2.92,29.19-5.71,43.79-8.54,7.53-1.46,15.07-2.9,22.6-4.37a36.73,36.73,0,0,0,3.71-1,.75.75,0,0,0,.38-1.16,2,2,0,0,0-.63-.7c-3.05-2.06-6.11-4.1-9.16-6.15a3.94,3.94,0,0,0-4.08-.31c-3.8,1.68-7.64,3.29-11.48,4.88q-8.86,3.68-17.76,7.27a38.35,38.35,0,0,1-8.74,2.51c-9.22,1.38-16.69-1.68-22.42-8.92a27.14,27.14,0,0,1-6.29-18.18,68.17,68.17,0,0,1,2.7-17c1.79-6.13,3.85-12.19,5.79-18.28.19-.61.37-1.23.6-1.83a2.6,2.6,0,0,0-.73-3c-2.94-2.7-5.91-5.39-8.87-8.07a1,1,0,0,0-1.28-.22,1.22,1.22,0,0,0-.43.79c-.09,1.11-.13,2.23-.14,3.35-.07,11.52-.11,23-.2,34.56-.05,7.19-.94,14.36-.63,21.57C398.94,453.89,399,457.89,398.93,461.88ZM488.69,494q-32.07,9.09-64.12,18.27c-.77.22-1.52.49-2.28.75a3.24,3.24,0,0,0-2.2,2.33A63,63,0,0,1,415.77,527a4.22,4.22,0,0,0,.36,4.12c1.63,2.93,3.25,5.87,4.9,8.79q14.14,25.08,28.31,50.13c.46.81.76,2.12,1.77,2.09,1.45,0,1.34-1.62,1.63-2.6.78-2.6,1.38-5.25,2.09-7.88a5.8,5.8,0,0,0-1.34-5.76c-3.6-4.07-7.1-8.24-10.6-12.4s-6.74-8.11-10.09-12.19A30.67,30.67,0,0,1,427,540.91a22.15,22.15,0,0,1,2.59-19.3c4.41-6.84,10.33-11.71,18.58-13.27a68.11,68.11,0,0,1,10.92-1.49c4-.11,7.94-.93,12-.65,2.71.2,5.42.41,8.13.56,1.28.07,2.56,0,3.84,0a3.33,3.33,0,0,0,2.83-1.52,91.2,91.2,0,0,0,5.53-11.51C490.43,493.09,489.54,493.75,488.69,494ZM327.59,603.92a3.75,3.75,0,0,0,3.48-2.12c1.08-2,2.21-3.89,3.3-5.84,3.73-6.7,7.42-13.42,11.21-20.09a53.54,53.54,0,0,1,4.15-6.44c7-9,16.72-12.08,27.76-8.44a27.43,27.43,0,0,1,15.23,11.77,105.84,105.84,0,0,1,9.32,19.4c1.54,4.2,3.21,8.36,4.46,12.64,1,3.32,3,4.63,6.25,4.82,2.22.13,4.42.59,6.64.83a1.05,1.05,0,0,0,1.06-1.59,25.35,25.35,0,0,0-1.52-2.43q-17.81-25.57-35.64-51.12c-.46-.65-.93-1.3-1.42-1.93a3.32,3.32,0,0,0-3.31-1.5c-4.83.85-9.56-.06-14.28-.84a4.71,4.71,0,0,0-4.68,1.59q-5,5.48-10.13,10.87-17.09,18.15-34.2,36.26a14.08,14.08,0,0,0-1.54,1.83,1,1,0,0,0,.52,1.54,7.8,7.8,0,0,0,2.32.52c1.91.07,3.83,0,5.75,0v.25Zm-9-147.73a105.18,105.18,0,0,1-18.63-10.8c-3.48-2.54-7-5-10.46-7.61a3.89,3.89,0,0,0-4.84-.28c-2.76,1.61-5.58,3.12-8.36,4.68-.54.31-1.17.68-1,1.42s.87.86,1.46,1.07q5.4,2,10.81,3.94l51.38,18.58c.45.16.92.29,1.35.49A5.1,5.1,0,0,0,346,467a55.06,55.06,0,0,1,6.47-4.09,5,5,0,0,0,2.82-4.11c.86-7,1.88-13.92,2.83-20.88q2.71-19.69,5.4-39.39c.5-3.64.88-7.29,1.29-10.94a1.2,1.2,0,0,0-.31-.87.93.93,0,0,0-1.28.06c-2.46,2-4.88,4.13-7.34,6.16a5.8,5.8,0,0,0-2.08,5.55c.46,4.13,1,8.25,1.34,12.38.67,7.64,1.73,15.25,1.53,22.94a32,32,0,0,1-.47,5.71A22.68,22.68,0,0,1,343.53,456a36.24,36.24,0,0,1-14.94,3.14C326,459.12,322.22,457.84,318.56,456.19ZM289.43,575.28q10-12.56,19.94-25.18l16.36-20.67c1.09-1.38,2.15-2.79,3.26-4.15a4.19,4.19,0,0,0,.67-4.46,39.75,39.75,0,0,1-2.44-10.72,5.34,5.34,0,0,0-3.44-4.77c-5.95-2.73-11.85-5.57-17.79-8.34q-20.83-9.75-41.71-19.44c-1.21-.57-2.61-2-3.84-.86-.93.88.21,2.38.56,3.56.72,2.45,1.76,4.82,2.37,7.29.76,3,2.5,4.48,5.59,5,6.46,1.1,12.86,2.48,19.28,3.79,3.6.74,7.21,1.44,10.76,2.37a47.79,47.79,0,0,1,7.68,2.67C314.59,505,319,511.42,320,520a27.68,27.68,0,0,1-6.64,22.28,121,121,0,0,1-18.72,17.1c-2.8,2.12-5.57,4.28-8.41,6.35a4.17,4.17,0,0,0-1.81,4.56c.49,2.77.37,5.68,1.75,8.49C287.7,577.92,288.47,576.48,289.43,575.28Zm142.7-80.22q15.28-2.78,30.56-5.58c1.57-.28,3.13-.61,4.68-1a1.83,1.83,0,0,0,1.53-2.11A43.55,43.55,0,0,0,466,474.85c-.69-1.74-1.41-2.05-3.42-1.49-4.91,1.39-9.79,2.86-14.69,4.29q-12.37,3.63-24.76,7.28a29.52,29.52,0,0,0-3.17,1.07c-1.48.61-1.84,1.4-1.41,3.05.51,2,1.06,4,1.65,6,.39,1.31,1,1.67,3.25,1.55C425.86,496.17,429,495.63,432.13,495.06ZM397,550.32q3.69,6.45,7.42,12.88,6.25,10.77,12.53,21.54c.32.55.62,1.11,1,1.66,1.77,2.85,2.3,3,5.32,1.14q3.27-2,6.39-4.23c2.47-1.76,2.58-2.22,1-4.64-2.44-3.74-5-7.44-7.48-11.14q-7.53-11.1-15.1-22.18c-.72-1.06-1.42-2.13-2.22-3.13a1.71,1.71,0,0,0-2.54-.31c-2.11,1.43-4.25,2.83-6.36,4.26a1.92,1.92,0,0,0-1,1.9C396.16,548.62,396.51,549.5,397,550.32ZM285.13,474.81a15.68,15.68,0,0,0,2.18,1q18.85,6.92,37.72,13.8a14.2,14.2,0,0,0,2.28.68,1.76,1.76,0,0,0,2-1c1.16-2.44,2.32-4.89,3.41-7.37a1.74,1.74,0,0,0-.89-2.41c-1.27-.67-2.56-1.29-3.88-1.85q-17.1-7.42-34.23-14.8c-.29-.13-.57-.28-.86-.4-3.15-1.29-3.59-1.18-5.18,2-1.14,2.27-2.07,4.65-3.06,7a9.77,9.77,0,0,0-.45,1.51A1.87,1.87,0,0,0,285.13,474.81ZM318,580.05A16.17,16.17,0,0,0,320,578q12.27-15.37,24.52-30.76c.2-.25.4-.5.59-.76,1.63-2.27,1.57-2.74-.63-4.78-1.52-1.41-3-2.83-4.59-4.22a1.68,1.68,0,0,0-2.55.06c-1.35,1.36-2.71,2.72-4,4.14Q321.39,554.77,309.5,568c-3.15,3.49-3.17,3.81,0,7,1.69,1.68,3.57,3.19,5.42,4.72a8.55,8.55,0,0,0,1.71.86A4.13,4.13,0,0,0,318,580.05ZM372.83,454.5c.06,2.51.72,3.14,3.09,3.34a28.89,28.89,0,0,0,3.35.09c2.49-.08,3.38-.83,3.71-3.42,1-7.91,2-15.82,3-23.73.63-5.06,1.29-10.12,1.9-15.19.17-1.42.24-2.86.29-4.29a1.57,1.57,0,0,0-1.27-1.77c-3.46-.62-6.91-1.32-10.45-1-1.54.14-2.18.84-2.4,2.46-.06.47-.08.95-.1,1.43q-.49,15.3-1,30.6h-.12C372.81,446.85,372.74,450.68,372.83,454.5Zm-23.49-65.85a1.73,1.73,0,0,0-2-1.59,24.67,24.67,0,0,0-3.28.64,118.51,118.51,0,0,0-48.11,25.73,105.62,105.62,0,0,0-11.74,11.91c-.41.49-.86,1-1.23,1.47a1.64,1.64,0,0,0,.44,2.49,24,24,0,0,0,2.35,1.63,1.68,1.68,0,0,0,2.18-.27c.46-.44.85-1,1.27-1.44a113.33,113.33,0,0,1,53.68-34.4c1.37-.41,2.77-.75,4.13-1.21,2-.69,2.47-1.38,2.46-3.72C349.45,389.6,349.42,389.12,349.34,388.65ZM476,443.47a1.35,1.35,0,0,0,.36-1.71,20.16,20.16,0,0,0-1.17-2.08A118.44,118.44,0,0,0,423,394.1c-.58-.27-1.16-.54-1.76-.76-3.09-1.16-4.87.17-4.75,3.57a1.79,1.79,0,0,0,.94,1.56c.85.45,1.71.86,2.58,1.25a113.65,113.65,0,0,1,36,25,112.13,112.13,0,0,1,12.88,16c.71,1.07,1.43,2.12,2.15,3.18a2.14,2.14,0,0,0,1.71.95A6.21,6.21,0,0,0,476,443.47ZM271.44,562.1c.86,1.53,1.82,3,2.81,4.47,1.62,2.41,2.44,2.5,4.45.61,1-1,1.18-1.65.44-3-1.24-2.23-2.61-4.4-3.83-6.64A111.23,111.23,0,0,1,262,514.36a142.32,142.32,0,0,1-.64-15.31,14.3,14.3,0,0,0-.22-2.85,2.83,2.83,0,0,0-3.28-2.13c-1.16.09-1.91.79-2,2.29-.1,3,0,6.07,0,9.1A114.65,114.65,0,0,0,271.44,562.1Zm128.94,48.17c.15,0,.3-.09.46-.13,3.31-.88,3.82-1.65,2.18-5.15a2,2,0,0,0-2.38-1.14c-1.25.25-2.5.51-3.74.8A101.71,101.71,0,0,1,342.61,602c-1.52-.48-3-1.06-4.57-1.39-1.93-.4-4.11,1.65-4,3.72a1.67,1.67,0,0,0,.68,1.18,13.79,13.79,0,0,0,2.59,1.19,102.93,102.93,0,0,0,27,6c3.5.26,7,.88,10.5.73A129.78,129.78,0,0,0,400.38,610.27ZM279.83,558.93q.6,1,1.26,2c1.79,2.65,4.1,2.54,5.89-.28a1.77,1.77,0,0,0,0-1.83c-.52-1-1.13-1.92-1.69-2.89a103.27,103.27,0,0,1-13.13-36.81,92.41,92.41,0,0,1-1.27-16.7,26.81,26.81,0,0,0-.17-4.3c-.19-1.44-1.14-2.14-2.68-2.25a2.42,2.42,0,0,0-2.81,2,19.18,19.18,0,0,0-.53,6.17A111.07,111.07,0,0,0,279.83,558.93Zm204.09-45.46c-.05-2.67-1.45-3.78-4-3.18a2.53,2.53,0,0,0-2,1.87,10.9,10.9,0,0,0-.27,1.89,102.24,102.24,0,0,1-21.56,53.44c-.39.5-.82,1-1.18,1.5-1,1.43-1,2.13,0,3.46a11.67,11.67,0,0,0,1.64,1.73,1.29,1.29,0,0,0,1.75,0,14.3,14.3,0,0,0,2-2.05,108.49,108.49,0,0,0,22.56-50.6c.31-1.89.59-3.79.87-5.68.07-.47.07-1,.12-1.73C483.92,514.11,483.93,513.79,483.92,513.47ZM344.11,397.91a109.7,109.7,0,0,0-52.2,33.27,9,9,0,0,0-1.41,1.91,1.39,1.39,0,0,0,.2,1.29,15.42,15.42,0,0,0,2.26,1.74,2.15,2.15,0,0,0,3-.38c.66-.69,1.31-1.4,2-2.1a104.12,104.12,0,0,1,47.8-29.74c.76-.23,1.54-.44,2.29-.71,2.09-.77,2.67-1.77,2.41-4-.18-1.52-1.06-2.24-3.16-2.1C346.57,397.25,345.33,397.55,344.11,397.91Zm70.51,9.68c.83.47,1.71.86,2.58,1.27,17.75,8.32,32.44,20.26,43.34,36.68l.54.79c2,2.74,2.56,2.9,5.51,1.42,1.5-.75,1.73-1.49.77-3.07a100.55,100.55,0,0,0-10.6-14.19A111,111,0,0,0,426,406.32c-2.81-1.5-5.76-2.76-8.7-4-1.92-.8-2.91-.19-3.55,1.89a9.65,9.65,0,0,0-.26,1.21A2.27,2.27,0,0,0,414.62,407.59Zm72.74,105.27a97.29,97.29,0,0,1-1.88,13.29,112,112,0,0,1-21.76,47c-.79,1-1.65,2-2.37,3-1.16,1.71-.76,3.32,1.09,4.42a1.41,1.41,0,0,0,1.31,0,19.57,19.57,0,0,0,2.37-2.36,108,108,0,0,0,12.44-18.2,118.55,118.55,0,0,0,13.83-42.64,30.66,30.66,0,0,0,.19-4.79,2.25,2.25,0,0,0-2.45-2.37C488.42,510.23,487.49,511,487.36,512.86ZM401.79,618.33c1.08-.26,2.16-.56,3.23-.87s1.74-.87,1.55-2.05a2.45,2.45,0,0,0-2.52-2.38,26.74,26.74,0,0,0-3.75.65,112.42,112.42,0,0,1-29.47,2.93,117.93,117.93,0,0,1-34.21-6.55c-1.05-.37-2.08-.8-3.16-1.1-1.57-.44-2.37,0-3,1.49-.55,1.26-.32,2.27.83,2.85a35.32,35.32,0,0,0,4,1.65,116,116,0,0,0,40.35,6.4A100,100,0,0,0,401.79,618.33Zm-5.08-226.88c0-1.43.25-2.89-.34-4.26a1,1,0,0,0-.72-.51,1,1,0,0,0-.73.45,3.85,3.85,0,0,0-.48,1.34,27.37,27.37,0,0,0-.26,2.86q-.24,6.46-.85,12.92c-.6,6.52-.81,13.07-1.27,19.61s-1,13.06-1.52,19.59c-.36,4.78-.64,9.57-1,14.35a2.87,2.87,0,0,0,1.69,3.13,19.63,19.63,0,0,0,2.65,1.08,1.41,1.41,0,0,0,1.83-1.08,16.77,16.77,0,0,0,.67-5.68q.06-11.76.11-23.51c0-2.88,0-5.76,0-8.63h.19Q396.72,407.27,396.71,391.45Zm-26.11-5.3c0-.63,0-1.39-.81-1.53-1-.19-1.38.61-1.51,1.42-.64,3.94-1.28,7.88-1.82,11.83q-3.84,28-7.62,56c-.11.79-.2,1.58-.24,2.38-.1,1.94.38,3.1,1.31,3.24,1.84.29,4.55-.85,4.84-2.26a62.86,62.86,0,0,0,1-7.1q1.44-17.67,2.76-35.33c.69-8.91,1.33-17.83,2-26.74h.1C370.61,387.42,370.64,386.78,370.6,386.15Zm118.56,98.39a2.5,2.5,0,0,0,2.21-3.14A68.64,68.64,0,0,0,488.05,468c-.5-1.32-1.23-1.69-2.65-1.3-4.74,1.34-9.48,2.69-14.18,4.16-1.84.57-2.29,1.53-1.85,3.27q1.42,5.53,3,11.05c.45,1.63,1.18,2.08,3.36,1.89C479.79,486.31,484.49,485.49,489.16,484.54ZM309.5,601.17a13.78,13.78,0,0,0,2.19-1.84q12.84-13.59,25.65-27.2c3.73-4,7.51-7.86,11.23-11.82q4.1-4.37,8.08-8.84c1.21-1.35,1-2.23-.66-2.92-2.61-1.12-3.18-1.09-5,1-4.31,4.73-8.55,9.5-12.79,14.29q-9.71,10.94-19.36,21.91c-3.5,3.95-7,7.88-10.5,11.84a3.1,3.1,0,0,0-1.08,2.68A1.78,1.78,0,0,0,309.5,601.17Zm64.65-198.46c.11,1.35.72,2.14,2,2.27,3.48.35,7,.64,10.45.91a2.27,2.27,0,0,0,2.47-1.81,10,10,0,0,0,.49-1.84c.6-4.89,1.19-9.78,1.72-14.69.17-1.56-.5-2.62-1.95-2.77-4.11-.41-8.23-.7-12.35-.94a1.92,1.92,0,0,0-2,1.73,13.29,13.29,0,0,0-.18,1.9c-.16,4.6,0,9.23-.67,13.41C374.14,401.76,374.11,402.24,374.15,402.71ZM260.5,472.18a22.11,22.11,0,0,0,3.27,2q19.51,9.18,39.06,18.31c6.22,2.91,12.45,5.79,18.68,8.69.58.27,1.15.57,1.74.81,1.95.82,2.84.73,3.35-.31,1-2,.7-3.6-1-4.56a27.19,27.19,0,0,0-3-1.45q-29.08-12.44-58.18-24.85a16.27,16.27,0,0,0-3.16-1c-.67-.12-1.11.48-1.28,1.35C260.12,471.37,260.18,472,260.5,472.18Zm2-6a3.28,3.28,0,0,0,1.19.78c4.79,1.79,9.57,3.6,14.39,5.31,1.7.6,2.38.22,3.08-1.31,1.39-3.05,2.77-6.11,4.1-9.19.7-1.59.46-2.43-1.09-3.11-5-2.21-10-4.33-15-6.44a1.87,1.87,0,0,0-2.52.72,54.14,54.14,0,0,0-4.72,11.5,2.65,2.65,0,0,0,0,.67A3.76,3.76,0,0,0,262.48,466.21Zm225,22.46L427,503c-1.09.26-2.19.48-3.25.82-2.29.74-3,2.07-2.5,4.4a1.57,1.57,0,0,0,1.71,1.34,15.12,15.12,0,0,0,2.8-.57l62.11-17.72a24.5,24.5,0,0,0,3.16-1.08,1.56,1.56,0,0,0,.73-1.08c.07-.56-.45-.77-.94-.86-.16,0-.32,0-.76-.08C489.37,488.3,488.43,488.45,487.5,488.67Zm-71.24-8.26c1.26-.19,2.5-.51,3.74-.82q21.6-5.37,43.21-10.73c5.88-1.46,11.79-2.84,17.67-4.3a39.52,39.52,0,0,0,4.07-1.34.92.92,0,0,0,.3-.8c-.05-.24-.39-.63-.57-.62-1.58.16-3.17.32-4.73.62q-14.81,2.83-29.6,5.73-16.92,3.28-33.83,6.6a33.87,33.87,0,0,0-3.67,1c-.23.08-.36.48-.54.73C412.11,478.17,414.58,480.67,416.26,480.41ZM302.85,575.16c-3.14,3.38-6.28,6.76-9.33,10.22-1.44,1.63-1.41,2.65,0,4.19a56.05,56.05,0,0,0,8.66,7.47,1.72,1.72,0,0,0,2.55-.21q4.63-5.75,9.21-11.56a1.58,1.58,0,0,0-.26-2.16,7,7,0,0,0-1.06-1,45.81,45.81,0,0,1-7.4-6.72,9.45,9.45,0,0,0-1.15-.92A4.61,4.61,0,0,0,302.85,575.16Zm119.77,19.27c2.13,3.75,4.25,7.51,6.46,11.21.87,1.45,1.71,1.65,3.23.82a75.9,75.9,0,0,0,10.14-6.35c1.33-1,1.54-1.67.76-2.83-2.58-3.86-5.22-7.67-7.87-11.46a1.7,1.7,0,0,0-2.49-.63q-4.83,3.12-9.61,6.32a2.14,2.14,0,0,0-1,1.68A5.32,5.32,0,0,0,422.62,594.43ZM270.74,448.11c1.28.65,2.6,1.22,3.93,1.75l39.67,15.69q9.14,3.6,18.29,7.17l2.67,1.06a3.37,3.37,0,0,0,4.22-1.26c.59-.73.54-1.66-.25-2-1.16-.53-2.35-1-3.55-1.43q-30.17-11-60.36-21.9c-1.34-.48-2.64-1.19-4.14-1.07-.49,0-.9.29-1.06,1C270.29,447.37,270.41,447.94,270.74,448.11ZM411.19,538c.84,1.54,1.76,3,2.67,4.53q15,24.47,30.08,48.9c.75,1.22,1.56,2.41,2.39,3.58a1,1,0,0,0,1.25.44,1.14,1.14,0,0,0,.43-1.63,30.83,30.83,0,0,0-1.49-3l-30.06-53.35c-.63-1.11-1.25-2.23-1.95-3.3-1.16-1.78-2.64-1.68-3.57.22-.21.43-.32.89-.55,1.52A15.17,15.17,0,0,0,411.19,538ZM331,527.66a28.9,28.9,0,0,0-2.23,2.47q-19.33,24.39-38.63,48.79a29,29,0,0,0-2.1,3.17.9.9,0,0,0,.2.83.89.89,0,0,0,.83.14,14.19,14.19,0,0,0,2.13-1.88q20.37-23.52,40.69-47.08c.42-.48.82-1,1.24-1.46,1.44-1.66.85-3.37-.81-5a1.54,1.54,0,0,0-.43-.2C331.58,527.49,331.18,527.47,331,527.66Zm55.51,27.27q5.85,8.51,11.74,17,10.83,15.55,21.68,31.08c1.46,2.08,2.7,4.35,4.73,6a.86.86,0,0,0,.85,0,.9.9,0,0,0,.31-.81,26.84,26.84,0,0,0-1.57-3q-14.83-23.25-29.7-46.49c-1.46-2.29-2.86-4.62-4.38-6.87-1.19-1.77-2.66-2-4.52-1-.35.2-.51.73-.83,1.22C385.39,553,385.88,554,386.51,554.93Zm-50.09-63.52a4.45,4.45,0,0,0,4.67,4.79,4.79,4.79,0,0,0,4.45-4.67,4.39,4.39,0,0,0-4.52-4.46A4.28,4.28,0,0,0,336.42,491.41Zm-53.91-56.57a1.08,1.08,0,0,0,.13-1.93c-2.05-1.72-3.16-1.69-4.7.33-1.21,1.61-2.28,3.33-3.42,5l.68.74C277.64,437.6,280.09,436.25,282.51,434.84Zm124.27-45.16a27.52,27.52,0,0,0,5.14,4.86,1,1,0,0,0,1.29-.15c1.42-1.54,1.15-3.55-.64-4.24-1.61-.63-3.29-1.1-4.95-1.59-.25-.07-.59.13-.86.27-.09,0-.09.27-.13.42A1.46,1.46,0,0,0,406.78,389.68Zm82.48,115.78a1,1,0,0,0,.94,1.3c2.08.24,3.05-.44,3.16-2.41.1-1.66,0-3.34,0-5A14,14,0,0,0,489.26,505.46ZM324.19,610.28a2.25,2.25,0,0,0,2.59-.62,1.47,1.47,0,0,0,.43-1.7,1.55,1.55,0,0,0-1.13-.65c-2-.06-4.08,0-7.21,0A16.08,16.08,0,0,0,324.19,610.28ZM355,385.45c-1.84.39-2.3,1.08-2.2,3,.06,1,.85,1.52,1.59,1.07a20.4,20.4,0,0,0,5.43-4.88C357.51,385.05,356.26,385.19,355,385.45ZM257.1,489.38a1.49,1.49,0,0,0,1.94.82,1.26,1.26,0,0,0,.92-1.43,12.46,12.46,0,0,0-1.59-4.83.82.82,0,0,0-.76-.26,1,1,0,0,0-.56.65c-.17.92-.25,1.85-.38,2.94A8.52,8.52,0,0,0,257.1,489.38Zm170,9.48c-1.66.41-3.71-.08-4.88,1.75,1.78.77,3.36-.37,5-.62,2.33-.35,4.59-1.07,6.88-1.64l-.06-.65C431.68,498.07,429.32,498.3,427.05,498.86ZM479.8,447.8c-.74-1.32-1.65-1.46-3.22-.65a1,1,0,0,0-.16,1.87c1.39,1,2.84,1.9,4.76,3.17A7.38,7.38,0,0,0,479.8,447.8ZM459.94,585.05a1.37,1.37,0,0,0-.64-2,1.05,1.05,0,0,0-1.5.67c-.39,1.16-.63,2.36-1,3.8A5,5,0,0,0,459.94,585.05ZM411.2,613c-.48.11-.91.43-.81.92a1.54,1.54,0,0,0,.74,1.06,2.85,2.85,0,0,0,3.33-.82c.11-.12,0-.71-.13-.75-.71-.25-1.45-.41-1.93-.53A9.64,9.64,0,0,0,411.2,613ZM278.74,572.48a3.07,3.07,0,0,0,1.39,2.31.66.66,0,0,0,1.11-.36,3.72,3.72,0,0,0-.26-2.72c-.21-.43-.63-.66-1.94-.31C279.16,571.36,278.71,571.78,278.74,572.48Zm48.88-78.28a6.94,6.94,0,0,0-4.68-2A7.26,7.26,0,0,0,327.62,494.2Zm66.07,57.61c0,.06.36,0,.36,0,0-.27.08-.6-.05-.8a13.64,13.64,0,0,0-1.08-1.33l-.44.38C392.87,550.62,393.26,551.23,393.69,551.81Zm14.17-12.41a3.76,3.76,0,0,0,.36,1.22,4.5,4.5,0,0,0,1,.83c.08-.11.25-.25.23-.34a2.81,2.81,0,0,0-1.2-1.83Z"/><path d="M1748.55,512.53a123.82,123.82,0,0,1-123.24,124.25c-72,.35-124.5-58.41-125-123-.51-69.09,56.05-125.52,123.72-125.1C1690.71,387.9,1748.58,442.26,1748.55,512.53Zm-87.35,25.6a43.88,43.88,0,0,0-5.25-53.25A42,42,0,0,0,1630,471.59c-17.27-2.17-30.94,4.09-41.53,17.62a11.8,11.8,0,0,0-2.64,4.91c1.41.65,2.35-.29,3.41-.46a8.05,8.05,0,0,1,9.16,5.24,7.94,7.94,0,0,1-3.94,9.77,8.18,8.18,0,0,1-10.26-2.54c-.63-.85-.66-2.16-2-2.58a4.64,4.64,0,0,0-1.35,3.4c-.86,7.68-.82,15.28,1.82,22.73,7.42,20.92,29.15,32,48.34,28.45a46.73,46.73,0,0,0,12.72-4.1,9.83,9.83,0,0,0,3.85-2.77l0,0C1653.64,548.43,1657.79,543.61,1661.2,538.13ZM1646,611.48a34,34,0,0,0,3.68-1,1.54,1.54,0,0,0,1-1.92,9.88,9.88,0,0,0-.38-1.39,112,112,0,0,0-10.38-22.58c-4.51-7.49-11.57-10.9-19.85-11.74-6.82-.68-12.4,2.42-16.82,7.53a30.71,30.71,0,0,0-3.29,4.7c-3.38,5.8-6.67,11.64-10,17.47a18.66,18.66,0,0,0-1,2.16,1.93,1.93,0,0,0,1,2.78,31.92,31.92,0,0,0,3.12,1.21,96,96,0,0,0,32.2,5A87.5,87.5,0,0,0,1646,611.48Zm-44-189.17a34.44,34.44,0,0,0-.72-4.26,1.82,1.82,0,0,0-2.5-1.52c-1.4.3-2.8.66-4.17,1.1a102.46,102.46,0,0,0-43.7,27.64c-.22.23-.44.46-.65.71-2.6,3-2.59,3.63.68,6a98.32,98.32,0,0,0,20.27,11.77c7.66,3.15,15,2.31,22.14-1.57,5.94-3.24,9-8.47,9.83-15a53.45,53.45,0,0,0,0-6.7h.21C1603,434.41,1602.53,428.35,1602,422.31Zm-64,141.8c2.42,4.13,2.6,4.16,6.37,1.3a124.22,124.22,0,0,0,15.48-14.24,24.76,24.76,0,0,0,6.94-18.75c-.35-8-3.79-14-11-17.79a29.68,29.68,0,0,0-7.65-2.71q-9.59-2.07-19.18-4.11a13.27,13.27,0,0,0-1.89-.29,2.52,2.52,0,0,0-2.75,2.12,4.38,4.38,0,0,0-.15.94c0,1.12,0,2.24,0,3C1524.53,531.83,1528.93,548.62,1538,564.11Zm127.44-95.61a17.84,17.84,0,0,0,15,3.39,47.26,47.26,0,0,0,7.79-2.28c5.67-2.16,11.27-4.49,16.88-6.8a24,24,0,0,0,3.38-1.75,1.25,1.25,0,0,0,.45-1.69,15.05,15.05,0,0,0-1.15-2.08,99,99,0,0,0-40.61-34.75c-5.14-2.42-5.72-2.1-7.41,3.26a120.91,120.91,0,0,0-3.86,16.29c-.32,1.88-.37,3.8-.49,5.13C1655.15,456.46,1658.81,463.28,1665.47,468.5Zm32.46,53.34c-8.66,2-14.24,7.64-17.44,15.61-2,4.91-1.51,10,.59,14.92a34,34,0,0,0,5.22,8c4.14,5.07,8.34,10.07,12.53,15.1a12.12,12.12,0,0,0,.94,1.08,1.59,1.59,0,0,0,2.51.12,28.49,28.49,0,0,0,2.51-2.87,98.12,98.12,0,0,0,16.58-33.71,85,85,0,0,0,2.82-14.55c.51-5.21,0-5.69-5.36-5.75-1.12,0-2.24,0-4.28,0A89.44,89.44,0,0,0,1697.93,521.84Zm-48.18-118.17c-.08,14.87-.12,29.75-.28,44.63-.06,6.23-.38,12.46-.56,18.69,0,1.44.06,2.89,0,4.32a5.46,5.46,0,0,0,2.56,5.29,26.88,26.88,0,0,1,4.78,4c2,2.13,4.19,2.54,6.94,2,7.68-1.6,15.38-3,23.07-4.51l43.32-8.47c.78-.15,1.57-.29,2.34-.51a1,1,0,0,0,.48-1.84q-4.56-3.11-9.17-6.13c-2-1.29-4-.84-6,.11-7.47,3.65-15.37,6.3-23,9.63a66.89,66.89,0,0,1-10.36,3.79c-5.94,1.52-11.78,1.44-17.27-1.53-8.86-4.78-13.47-12.5-14.46-22.36-.5-5,.35-9.88,1.41-14.75a189.25,189.25,0,0,1,6-20.23c.21-.61.43-1.21.64-1.81,1.55-4.59,1.57-4.61-1.86-7.89-2.52-2.41-5-4.89-7.64-7.13l-1,.47C1649.75,400.82,1649.76,402.24,1649.75,403.67Zm81.5,112.92c2.7.09,4.64-.77,5.8-3.3,1.26-2.75,2.63-5.46,3.91-8.2a1,1,0,0,0-1-1.29,16.79,16.79,0,0,0-2.32.49q-31.11,8.85-62.21,17.74c-.93.26-1.85.54-2.75.85a3.71,3.71,0,0,0-2.58,2.61,63.61,63.61,0,0,1-4.4,11.64,3.42,3.42,0,0,0,.11,3.23c.65,1.28,1.3,2.56,2,3.81q15.15,27,30.33,53.88c.7,1.25,1.51,2.44,2.32,3.62a.91.91,0,0,0,1.56-.19c1-3.53,2-7.05,2.91-10.62a5.11,5.11,0,0,0-2-5.55c-2.65-1.9-4.34-4.45-6.14-7.07-2-2.89-4.53-5.37-6.75-8.08-2.94-3.59-5.9-7.16-8.66-10.87a24.74,24.74,0,0,1-5.27-16.55,21.58,21.58,0,0,1,2.42-9.19c4-7.51,9.93-12.85,18.42-14.88a79.07,79.07,0,0,1,18.52-2.18h5.27v.07C1724.23,516.56,1727.75,516.46,1731.25,516.59Zm-154.87,97.3a4.51,4.51,0,0,0,5.3-3.12c1.74-4.87,5.06-8.84,7.38-13.38s4.88-8.63,7.34-12.93a37.28,37.28,0,0,1,5.72-7.67c6.83-6.92,15-9,24.18-6.17,6.72,2.08,12.36,5.69,16.25,11.92a99.05,99.05,0,0,1,9.38,19.39c1.6,4.5,3.86,8.76,4.88,13.47a4.55,4.55,0,0,0,4.7,4c1,0,1.88.38,2.83.49,2,.24,4.07.75,6.15.38.35-2.55-1.75-3.93-2.93-5.64-11.36-16.45-22.86-32.8-34.24-49.24-1.6-2.31-3.34-3.59-6.29-3.39a38.36,38.36,0,0,1-11.45-.73c-2.79-.65-4.91.38-6.81,2.43-3.93,4.22-8,8.29-12,12.47q-14.83,15.69-29.57,31.46c-1.44,1.55-3.62,2.71-3.63,5.29,1.92,1.09,4,.48,6.05.7a11.33,11.33,0,0,0,1.54,0C1573.19,613.7,1574.8,613.69,1576.38,613.89ZM1527.56,455q31.13,11.28,62.24,22.59c2.47.9,4.5,1,6.67-.79a40.87,40.87,0,0,1,6.07-3.83,5.08,5.08,0,0,0,2.76-4.17c.83-6.5,1.81-13,2.7-19.47q3.24-23.52,6.46-47.05c0-.16.07-.31.08-.47.09-1.57,1-3.74-.25-4.55-1.85-1.16-2.92,1.27-4.26,2.21s-2.45,2.06-3.7,3.06a6.07,6.07,0,0,0-2.43,6.36c.92,4.09.88,8.27,1.28,12.39.73,7.47,1.7,14.95,1.53,22.49a30.47,30.47,0,0,1-.94,7.59c-2.17,7.66-7.13,12.77-14.44,15.56a28.07,28.07,0,0,1-22.4-.5,115.17,115.17,0,0,1-17.11-9.67c-2.49-1.7-4.66-3.93-7.82-4.51-.82-.15-1.2-1-1.66-1.62a13.57,13.57,0,0,0-1.92-2.09,4.81,4.81,0,0,0-6.15-.77c-3,1.73-6.12,3.42-9.42,5.26A3.92,3.92,0,0,0,1527.56,455Zm-13.83,43.57a5,5,0,0,0,4.5,3.75,23.68,23.68,0,0,0,3.31.39,11.23,11.23,0,0,1,3.69.69c3.54,1,7.14,1.69,10.73,2.49,4.68,1,9.4,1.94,14,3.09a28.46,28.46,0,0,1,13,6.79,21.7,21.7,0,0,1,6.89,13.88c.84,7.93-.7,15.24-5.82,21.64s-11.09,11.49-17.35,16.48c-1.61,1.29-3.48,2.29-4.44,4.29a3,3,0,0,1-2.33,1.48,7.41,7.41,0,0,0-3.28,1.91,5.34,5.34,0,0,0-2.2,5c.31,2.38.69,4.74,1.09,7.11a.84.84,0,0,0,1.42.51c.66-.69,1.3-1.41,1.89-2.16q19.36-24.43,38.72-48.9c.5-.62,1-1.26,1.46-1.9a4.1,4.1,0,0,0,.64-4.07,48,48,0,0,1-2.67-11.66,4.5,4.5,0,0,0-2.74-3.69c-2.15-1.06-4.29-2.14-6.47-3.15q-27.16-12.69-54.35-25.35c-1-.45-1.89-1.24-3.69-.76C1511.17,490.66,1512.39,494.63,1513.73,498.55Zm165,7.15q17.7-3.24,35.38-6.51c5.25-1,5.37-1.1,4.27-6.16a61.27,61.27,0,0,0-1.92-6.93c-.92-2.65-2-3.12-4.81-2.5-.47.1-.92.27-1.38.4l-37.73,11.14a25.69,25.69,0,0,0-2.73.91,2,2,0,0,0-1.31,2.71q.75,3,1.65,6a2.27,2.27,0,0,0,2.54,1.91C1674.93,506.31,1676.83,506,1678.72,505.7Zm-32.33,53.57c1.33,2.37,2.71,4.71,4.07,7.05l17.31,29.82a17,17,0,0,0,1,1.62,1.88,1.88,0,0,0,2.49.76,47.6,47.6,0,0,0,9.57-6.31,1.88,1.88,0,0,0,.34-2.59c-.24-.41-.51-.81-.77-1.21l-23.68-34.86a17.4,17.4,0,0,0-1.16-1.52,1.27,1.27,0,0,0-1.71-.37c-2.55,1.63-5.08,3.31-7.59,5-.23.15-.3.54-.52,1A10.22,10.22,0,0,0,1646.39,559.27Zm-59.3-11.74c-3.14,3.41-6.29,6.82-9.41,10.25q-9.21,10.11-18.4,20.23c-2.94,3.24-3,4,.19,7.08a60.28,60.28,0,0,0,5.91,4.88c1.34,1,2.12.89,3.29-.52,3.16-3.82,6.26-7.69,9.36-11.56q7.79-9.74,15.56-19.51c.4-.5.8-1,1.17-1.51,2-2.79,2-3.13-.62-5.56q-2.1-2-4.24-3.89a11.93,11.93,0,0,0-1.06-.75A2.13,2.13,0,0,0,1587.09,547.53ZM1535,484.73a27.6,27.6,0,0,0,2.63,1.11q18.18,6.69,36.36,13.35c.45.16.89.33,1.35.48,3.43,1.14,3.45,1.11,4.9-2.27.82-1.9,1.75-3.75,2.6-5.64a1.51,1.51,0,0,0-.87-2.33c-4.23-1.88-8.47-3.71-12.71-5.55-8.62-3.75-17.24-7.52-25.89-11.21-3.83-1.63-4.15-1.48-5.87,2.07-1,2-1.84,4.07-2.71,6.12a15.92,15.92,0,0,0-.6,1.91C1534.1,483.86,1534.38,484.42,1535,484.73Zm87.8-20.58c.07,2.56.63,3.13,3,3.46,1.42.19,2.85.34,4.29.41a2.23,2.23,0,0,0,2.67-2.12c.39-2.36.66-4.75,1-7.12q2-16.17,4-32.33c.12-.95.17-1.91.24-2.87.26-3.8-.07-4.23-3.65-4.55-2.54-.23-5.1-.41-7.65-.53-1.84-.08-2.54.61-2.75,2.54,0,.47,0,.95-.06,1.43l-1,31.61h-.12C1622.78,457.44,1622.72,460.8,1622.8,464.15Zm-29.22-66.28a117.45,117.45,0,0,0-43.27,21.87,132.91,132.91,0,0,0-14,13.09,31.12,31.12,0,0,0-2.21,2.52c-1.75,2.29-1.52,3.59.83,5.08a2.33,2.33,0,0,0,3.42-.37c1.14-1.11,2.21-2.3,3.29-3.47A112.34,112.34,0,0,1,1595,404.21c.46-.12.94-.21,1.39-.36,2.83-.93,3.5-2.11,2.91-5-.22-1.05-1-1.71-2.48-1.71C1596.05,397.29,1594.8,397.54,1593.58,397.87Zm132,55.86a1.48,1.48,0,0,0,.67-2.05,25.45,25.45,0,0,0-1.6-2.95,117.37,117.37,0,0,0-44.27-40.88c-3.25-1.72-6.62-3.2-10-4.74a2.13,2.13,0,0,0-2.66.42,4.43,4.43,0,0,0-1.2,4,1.92,1.92,0,0,0,.91,1.06c1,.55,2,1,3,1.45a112.84,112.84,0,0,1,48.41,41,26.61,26.61,0,0,0,2.29,3.07,4.92,4.92,0,0,0,1.65.83A27.21,27.21,0,0,0,1725.61,453.73Zm-77.84,167.16a31.48,31.48,0,0,0,4.17-1.07c1.58-.51,2.15-1.51,1.82-2.88-.52-2.14-1.47-3.09-3.14-3a22.56,22.56,0,0,0-2.82.52c-19,4.07-37.79,3.36-56.29-2.86-.91-.3-1.81-.64-2.73-.91-2.36-.71-3.11-.39-4.21,1.76-1,1.93-.69,2.86,1.4,3.72a89.09,89.09,0,0,0,16.55,4.81,93.78,93.78,0,0,0,22.45,2.09C1632.64,623.5,1640.21,622.25,1647.77,620.89Zm-125-46.59c.49.82,1,1.64,1.56,2.41,1.47,2,2.89,2.08,4.7.25a1.72,1.72,0,0,0,.36-2.18c-.68-1.27-1.4-2.52-2.13-3.75a111.28,111.28,0,0,1-14.86-43.21,94.27,94.27,0,0,1-.88-20.08c.09-.94.4-2-.43-2.72a4.86,4.86,0,0,0-4.06-.89,1.52,1.52,0,0,0-.94,1,9,9,0,0,0-.3,2.37c0,2.39,0,4.79,0,7.19C1505.91,536.09,1511.8,555.91,1522.73,574.3ZM1593.82,408a110.67,110.67,0,0,0-39.06,20.73,114.35,114.35,0,0,0-9.81,9.11c-1,1-2,2.1-2.86,3.23-2,2.57-1.78,3.62,1,5.23a2,2,0,0,0,2.61-.19c1.12-1.14,2.23-2.28,3.32-3.45a102.26,102.26,0,0,1,47.18-28.87c.46-.13.93-.23,1.38-.38,2.62-.92,3.19-1.91,2.73-4.73-.21-1.31-1-1.91-2.65-1.69C1596.6,407.23,1595.2,407.55,1593.82,408Zm70.57,4.64a9.08,9.08,0,0,0-.9,2.21,2.27,2.27,0,0,0,1.15,2.84c1.13.59,2.28,1.14,3.44,1.67,17.37,8,31.29,20.15,42.24,35.76.64.92,1.28,1.84,2,2.69a2.32,2.32,0,0,0,2.61.7c3.37-1.07,3.73-2,2-4.68a109.65,109.65,0,0,0-35.45-34.35,103.16,103.16,0,0,0-12.72-6.65c-1-.43-2.1-.72-3.16-1.07C1665.11,412,1664.6,412.23,1664.39,412.59Zm69.49,110c-.14-2-1.14-2.78-3.18-2.64a2.51,2.51,0,0,0-2.5,1.87,20.35,20.35,0,0,0-.6,3.28A102.26,102.26,0,0,1,1708.05,575c-1,1.29-2,2.53-2.89,3.83-1.34,1.86-1.31,2.42.12,4.21a10.15,10.15,0,0,0,1.32,1.38,1.24,1.24,0,0,0,1.74,0,15.9,15.9,0,0,0,1.59-1.78,108,108,0,0,0,22.91-50.54c.46-2.67.79-5.37,1-7.1C1733.88,523.54,1733.91,523.06,1733.88,522.58ZM1528.23,566q1.73,3.15,3.65,6.18c.79,1.23,1.56,1.31,2.83.48a18.06,18.06,0,0,0,1.9-1.46A1.65,1.65,0,0,0,1537,569c-.75-1.41-1.56-2.78-2.35-4.17a102.07,102.07,0,0,1-13.12-41.18,113.21,113.21,0,0,1-.66-12.89c0-.63,0-1.27-.06-1.91a3.12,3.12,0,0,0-2.58-3,2.07,2.07,0,0,0-2.88,1.63,18.27,18.27,0,0,0-.22,2.86c0,2.39,0,4.79,0,7.18A103.33,103.33,0,0,0,1528.23,566Zm209.39-44.16a13.27,13.27,0,0,0-.4,2.35c-2.07,22.45-10.36,42.39-24.25,60.06-.6.75-1.22,1.48-1.8,2.24a2.39,2.39,0,0,0,0,3.09c1.07,1.56,2.29,1.79,3.51.38,2-2.29,3.93-4.64,5.71-7.09a118,118,0,0,0,21.86-54.64,39,39,0,0,0,.21-6.21,2.08,2.08,0,0,0-2.31-1.94A2.46,2.46,0,0,0,1737.62,521.84Zm-86,106.61a32,32,0,0,0,3.23-.87c1.57-.53,2.08-1.52,1.61-2.92s-1.33-2.12-2.9-1.73a126.09,126.09,0,0,1-16,2.94,119.41,119.41,0,0,1-24.86.09,106.29,106.29,0,0,1-27.44-6.41,11,11,0,0,0-1.82-.58,2.84,2.84,0,0,0-3.24,2.72,1.56,1.56,0,0,0,.92,1.55,34.86,34.86,0,0,0,3.52,1.47c9.41,3.16,19,5.59,28.94,6.25,3.5.23,7,.91,10.51.68A137.94,137.94,0,0,0,1651.57,628.45Zm-31.45-233.29a1,1,0,0,0-.77-.43,1,1,0,0,0-.76.45,12,12,0,0,0-.58,2.29q-1.41,9.94-2.78,19.91-2.24,16.13-4.46,32.25c-.72,5.22-1.44,10.44-2.12,15.66a15.19,15.19,0,0,0-.12,2.86,1.35,1.35,0,0,0,1.5,1.47c3.36-.17,4.64-1.23,5.27-4.39a21.23,21.23,0,0,0,.31-2.38c.41-6.05.76-12.1,1.23-18.15.8-10.18,1.7-20.35,2.51-30.53.42-5.25.75-10.51,1.16-16.31A4.31,4.31,0,0,0,1620.12,395.16Zm19.44,73a2.57,2.57,0,0,0,1.5,2.74c.28.15.58.28.87.4,3.83,1.68,4.42,1.73,4.44-2.59q.11-33.57.32-67.16a37.31,37.31,0,0,0-.26-3.81.9.9,0,0,0-.63-.58.86.86,0,0,0-.76.34,11.4,11.4,0,0,0-.92,4.66c-.74,11.64-1.44,23.29-2.23,34.93-.57,8.29-1.28,16.56-1.92,24.85l.21,0C1640,464,1639.77,466.06,1639.56,468.13Zm92,9.63c-2.29.66-4.59,1.31-6.87,2-6.66,2.06-6,1.87-4.25,7.78.73,2.44,1.2,4.95,1.92,7.39.52,1.81,1.4,2.43,3.17,2.13q6.83-1.17,13.6-2.57c1.94-.4,2.54-1.21,2.27-3a64.13,64.13,0,0,0-3.13-13c-.54-1.44-1.56-1.93-3.35-1.72Zm-129.74,80.79c-.81.76-1.55,1.61-2.29,2.44l-19.67,22.25-21.23,24.06c-.21.24-.43.47-.63.73-.6.76-1.22,1.54-.52,2.55a2,2,0,0,0,3,.09,29.33,29.33,0,0,0,2.39-2.34q12-12.75,23.93-25.5c6.34-6.75,12.72-13.46,19.06-20.2.75-.79,2-1.53,1.61-2.75-.47-1.56-2.16-1.68-3.48-2.17a3.66,3.66,0,0,0-.78,0A6.43,6.43,0,0,0,1601.78,558.55ZM1575.62,507q-2.83-1.31-5.7-2.53-26.48-11.31-53-22.61a56.82,56.82,0,0,0-5.4-1.93c-.31-.1-.92.27-1.19.6a1.19,1.19,0,0,0,.14,1.72,20,20,0,0,0,3.26,2q10.18,4.85,20.41,9.6l36.54,17c1,.47,2,1,3,1.44,2.43,1,3.51.22,3.44-2.62A2.57,2.57,0,0,0,1575.62,507Zm48.64-94.8c-.08,1.69.47,2.44,2,2.63,3,.36,6,.73,9,.88,2.8.15,3.75-.65,4.17-3.44.52-3.46.85-6.95,1.27-10.42.17-1.42.4-2.84.54-4.27s-.33-2.21-1.59-2.51a43,43,0,0,0-12.34-1,2.25,2.25,0,0,0-2.47,2.38c-.12,2.86,0,5.72,0,8.59h-.18C1624.56,407.4,1624.37,409.78,1624.26,412.17Zm-111.77,64.14a3.16,3.16,0,0,0,1.19.76c4.79,1.77,9.59,3.54,14.41,5.22,1.61.56,2.37.18,3.07-1.36q2.07-4.59,4-9.23c.64-1.54.38-2.34-1.26-3.07-5-2.22-10-4.34-15-6.46a1.72,1.72,0,0,0-2.43.83,68.18,68.18,0,0,0-4.44,11.1,9.17,9.17,0,0,0-.17,1.08A4.73,4.73,0,0,0,1512.49,476.31Zm160.77,43.3c4.16-1.1,8.3-2.26,12.44-3.44l52-14.89c.92-.26,1.85-.5,2.75-.82.74-.27,1.64-.59,1.49-1.56s-1.14-.93-1.91-.79c-1.25.23-2.49.56-3.73.85q-20.71,4.91-41.43,9.82c-6.36,1.5-12.73,3-19.1,4.45-.62.15-1.24.3-1.84.51-2.41.8-2.93,1.59-2.86,4.26C1671.08,519.41,1671.79,520,1673.26,519.61Zm57.29-47.3L1668,484.42c-1.57.31-3.13.63-4.68,1a1.32,1.32,0,0,0-.75,2.23c1.64,2.41,2.26,3.26,6,2.32,12.69-3.22,25.41-6.32,38.12-9.47q12.55-3.11,25.11-6.25a32.6,32.6,0,0,0,3.19-1,.86.86,0,0,0,.43-.71c0-.23-.34-.49-.59-.61a4.62,4.62,0,0,0-1.2-.17C1732.74,471.93,1731.64,472.1,1730.55,472.31Zm-188,126.56a74.29,74.29,0,0,0,9.49,8c1.19.79,2.13.73,3-.31q4.4-5.34,8.64-10.8a1.87,1.87,0,0,0-.28-2.94,70,70,0,0,1-8.16-7.32,1.62,1.62,0,0,0-2.52,0c-.7.65-1.39,1.32-2,2q-3.86,4.24-7.65,8.53a15.43,15.43,0,0,0-1.07,1.53C1542.23,598,1542.29,598.59,1542.6,598.87Zm139.73,17.53a59.58,59.58,0,0,0,9.75-6c1.5-1.13,1.68-2.09.63-3.72q-3.37-5.24-7-10.32c-1-1.46-1.92-1.68-3.26-.85-3.1,1.95-6.17,4-9.2,6a1.92,1.92,0,0,0-.68,2.91c2.19,3.88,4.48,7.72,6.75,11.56a1.86,1.86,0,0,0,1.74.86A8.63,8.63,0,0,0,1682.33,616.4ZM1520.71,458.14c1.14.57,2.32,1.07,3.5,1.54l59.3,23.41c.89.35,1.8.66,2.71,1a2.71,2.71,0,0,0,3-.93c1.26-1.27,1.19-2.28-.41-2.9-3.43-1.32-6.89-2.57-10.34-3.82q-26.82-9.72-53.64-19.41a35.66,35.66,0,0,0-3.66-1.07c-.56-.14-1.39.66-1.2,1.39A2.38,2.38,0,0,0,1520.71,458.14Zm141.14,91.08c2.57,4.23,5.18,8.44,7.76,12.65,8.27,13.46,16.51,26.93,24.85,40.34.8,1.29,1,3.49,3.37,3.25.94-1.83-.53-3-1.26-4.3q-15.78-28.18-31.65-56.33a10.49,10.49,0,0,0-1.39-1.91.91.91,0,0,0-1.29,0,4.45,4.45,0,0,0-1.74,3.59C1660.86,547.25,1661.28,548.28,1661.85,549.22Zm-80.9-11.7c-1,1.2-2.08,2.43-3.07,3.68q-18.6,23.47-37.16,47c-1.07,1.36-2.4,2.59-3,4.31a1,1,0,0,0,.26.83.91.91,0,0,0,.83.12,13.29,13.29,0,0,0,1.71-1.64q15.54-17.92,31.06-35.86c3-3.5,6.11-7,9.15-10.46a29.41,29.41,0,0,0,2.4-3,3.93,3.93,0,0,0-.94-5.15,2,2,0,0,0-.44-.2C1581.51,537.28,1581.13,537.31,1581,537.52Zm95,81.1a13.62,13.62,0,0,0-1.17-2.58c-2.62-4.2-5.28-8.39-7.94-12.57q-12.4-19.41-24.82-38.82a30.58,30.58,0,0,0-2.52-3.49,2.69,2.69,0,0,0-3.51-.44c-.78.38-1.3,1.06-.85,1.94a29.41,29.41,0,0,0,2,3.26Q1653,588.77,1669,611.57q2.61,3.73,5.27,7.43a1.06,1.06,0,0,0,1.27.41C1675.68,619.15,1676,618.81,1675.93,618.62Zm-80.45-117.15a4.73,4.73,0,0,0-4.62-4.57,4.52,4.52,0,0,0-4.46,4.67A4.22,4.22,0,0,0,1591,506,4.38,4.38,0,0,0,1595.48,501.47Zm22.77-38.36a19.46,19.46,0,0,0,.11,2.85c0,.13.23.37.28.35.26-.1.64-.21.73-.41a4.09,4.09,0,0,0,.27-1.39q.45-11,.86-22c0-1.07,0-2.14,0-3.22l-.19,0C1619.62,447.24,1618.91,455.18,1618.25,463.11Zm-86-18.08c1.24-.72,1.16-1.69-.12-2.54-1.82-1.21-2.7-1.16-4,.55s-2.33,3.32-3.48,5l.67.82C1527.62,447.58,1530,446.35,1532.26,445Zm128.42-41.57a4.75,4.75,0,0,0,1.15.8,1.19,1.19,0,0,0,1.62-.47c1-1.68.66-3.11-1.11-3.77-2-.75-4.12-1.36-6.19-2l-.59.8Zm79.16,110.78a1.42,1.42,0,0,0,.47,2,2.07,2.07,0,0,0,2.76-1,7.77,7.77,0,0,0,.3-1.86c0-1.4,0-2.81,0-4.22l-.9-.34C1741.6,510.63,1740.7,512.43,1739.84,514.24ZM1604.4,395.6a2.36,2.36,0,0,0-1.55,2.63,1.86,1.86,0,0,0,.52,1.23,1.37,1.37,0,0,0,1.29,0c1.47-1.11,2.87-2.32,4.81-3.92A7.15,7.15,0,0,0,1604.4,395.6Zm-95.85,104.81a2.19,2.19,0,0,0,1.36,0c.51-.2.49-.79.35-1.26-.52-1.67-1-3.34-1.62-5-.15-.43-.5-.95-1-.72a1.84,1.84,0,0,0-.71,1.13,10.42,10.42,0,0,0-.22,1.6C1506.64,498.12,1506.53,499.78,1508.55,500.41Zm65.64,120a2.14,2.14,0,0,0,.91.25,1.63,1.63,0,0,0,1.7-1.35,1.14,1.14,0,0,0-.87-1.46c-2.32-.42-4.65-.72-7-1.06-.09.32-.17.65-.26,1C1570.52,618.63,1572.35,619.52,1574.19,620.39Zm97.67-109.87c4.8-.16,9.32-1.64,14-2.86A54.67,54.67,0,0,0,1671.86,510.52Zm57.74-52.94c-.78-1.06-2-1.11-3.38-.21-.44.29-.63.83-.26,1.18a21.6,21.6,0,0,0,5.62,3.66A10.06,10.06,0,0,0,1729.6,457.58Zm-68.33,165.14a1,1,0,0,0-1.11,1.17c0,.64.31,1.38,1,1.45a5.39,5.39,0,0,0,4.36-1.46A8,8,0,0,0,1661.27,622.72Zm-130.19-41a1,1,0,0,0-1.44-.71,1.33,1.33,0,0,0-1,1.45c.35,1.61,1.65,2.59,3.14,3.44C1531.57,584.56,1531.38,583.15,1531.08,581.77Zm104.49-114.46c0,.26.14.74.33.81.58.21.81-.27.84-.72.13-2.33.22-4.67.33-7l-.54,0C1636.21,462.67,1635.87,465,1635.57,467.31Zm72.47,126a9.72,9.72,0,0,0-.53,2.19.88.88,0,0,0,.44.7,1.08,1.08,0,0,0,.85-.11,2.39,2.39,0,0,0,1.29-1.8,1.43,1.43,0,0,0-.93-1.45A.88.88,0,0,0,1708,593.26Zm-70.29-140.57c-.79.74-.5,1.61-.31,2.48C1638,454.4,1637.72,453.52,1637.75,452.69Zm-64.91,49.11c-.39-.1-.64.24-.39.47a3.67,3.67,0,0,0,1.2.61.49.49,0,0,0,.4-.13c.06-.07,0-.25,0-.38A6.43,6.43,0,0,0,1572.84,501.8Z"/><path d="M345.73,537.75a27.21,27.21,0,0,1-1.79-2.77,8,8,0,0,1,1.37-9.21,7.88,7.88,0,0,1,8.68-1.91c1.18.44,2.31,1,3.46,1.51l-.07-.06c.46,1.19.87,2.39,1.37,3.55,1.89,4.34-1.73,10.86-8.12,10.51a37.64,37.64,0,0,1-3.77-.55Zm10.1-6.47c.07-2.44-2.48-4.74-5.09-4.61a5,5,0,0,0-4.39,4.84,4.57,4.57,0,0,0,4.81,4.27A4.8,4.8,0,0,0,355.83,531.28Z"/><path d="M357.45,525.37c-1.08-1.18-2.2-2.32-3.22-3.54-5.85-7-7.78-14.84-5.33-23.71,3-10.92,14.39-21.22,30.38-17.61,14.08,3.19,21.75,17.68,18.78,30.06a25.43,25.43,0,0,1-36,17.24c-1.57-.77-3.09-1.66-4.64-2.5Zm37.84-20.45c-.1-14.68-12-21.91-22.09-21.77-12.21.16-22.21,9.74-22,21.91a21.85,21.85,0,0,0,21.94,22C383.46,527.37,395.39,519.71,395.29,504.92Z"/><path d="M376.37,462.89a8.07,8.07,0,0,1,8.09,8.24,8.19,8.19,0,0,1-7.95,7.95,8.1,8.1,0,0,1-.14-16.19Zm4.69,7.77a5,5,0,0,0-4.85-4.4,4.6,4.6,0,0,0-4.25,4.87c.06,2.61,2,4.32,4.76,4.23A4.38,4.38,0,0,0,381.06,470.66Z"/><path d="M398.71,540.68c-1.19.46-2.36,1-3.58,1.35a7.89,7.89,0,0,1-10-6.31,8.18,8.18,0,0,1,3.66-8.26,8,8,0,0,1,11.75,9.41,29.24,29.24,0,0,1-1.88,3.86Zm-1.19-6.27a4.63,4.63,0,0,0-4.23-4.83,4.86,4.86,0,0,0-4.9,4.73,4.57,4.57,0,0,0,9.13.1Z"/><path d="M414.92,495a8.11,8.11,0,1,1-8.06-7.92A8.47,8.47,0,0,1,414.92,495Zm-3.4.65a4.77,4.77,0,0,0-4.56-5.08,4.83,4.83,0,0,0-4.91,4.25,5.07,5.07,0,0,0,4.59,5.14A5,5,0,0,0,411.52,495.63Z"/><path d="M1623.25,540.48c-14.26.21-25.35-11-25.37-25.28A25,25,0,0,1,1623,489.73a25.42,25.42,0,0,1,25.68,25C1648.55,527,1640.33,540.23,1623.25,540.48Zm22.12-25.34A22.3,22.3,0,0,0,1622.94,493a22.06,22.06,0,0,0-21.65,22.32c.15,13,10.8,22.22,22.08,21.6C1636.14,537.33,1645.4,526.53,1645.37,515.14Z"/><path d="M1664.93,505.26a8,8,0,0,1-8,7.84,7.92,7.92,0,1,1-.32-15.84A8,8,0,0,1,1664.93,505.26Zm-8.33,4.49a4.57,4.57,0,1,0-4.51-4.63A4.81,4.81,0,0,0,1656.6,509.75Z"/><path d="M1647.65,551.26a27.86,27.86,0,0,1-3.2.94,8,8,0,1,1,4.21-13.61,8.16,8.16,0,0,1,1.07,10.09,27.14,27.14,0,0,1-2.1,2.6Zm-4.74-11.4a4.39,4.39,0,0,0-4.53,4.45,4.76,4.76,0,0,0,4.91,4.68,4.44,4.44,0,0,0,4.21-4.77A4.28,4.28,0,0,0,1642.91,539.86Z"/><path d="M1609.21,541a8.35,8.35,0,0,1-8,8.44,8.53,8.53,0,0,1-8.27-8.22,8.12,8.12,0,0,1,16.22-.22Zm-8.06,5.07a5,5,0,0,0,4.72-5.08c-.19-2.5-2.24-4.15-5-4.06a4.41,4.41,0,0,0-4.45,4.63A4.93,4.93,0,0,0,1601.15,546.07Z"/><path d="M1634.41,481a8,8,0,0,1-7.89,8,7.92,7.92,0,0,1-8-8.31,7.67,7.67,0,0,1,8-7.71A8,8,0,0,1,1634.41,481Zm-12.48-.21a4.58,4.58,0,0,0,4.21,4.83,4.8,4.8,0,0,0,4.9-4.71,4.56,4.56,0,0,0-9.11-.12Z"/></g></g></svg>