<svg xmlns="http://www.w3.org/2000/svg" viewBox="0 0 2100.8 669.7"><title>sedan_right</title><g id="Capa_2" data-name="Capa 2"><g id="Capa_1-2" data-name="Capa 1"><path d="M640.25,527.77c0-4.8-.06-9.6,0-14.4.22-15.16-2.39-29.94-6.31-44.5a189.11,189.11,0,0,0-23.32-53.44,165.19,165.19,0,0,0-15.74-20.55,148,148,0,0,0-26.64-23.33A140.6,140.6,0,0,0,553,362.4a158.69,158.69,0,0,0-50.5-16.09A179.25,179.25,0,0,0,470.46,345a170,170,0,0,0-49.39,8.9c-5.63,1.91-10.83,4.76-16.08,7.5a164,164,0,0,0-39.45,28.67,166,166,0,0,0-35.55,52,215.58,215.58,0,0,0-16,58.1A266.16,266.16,0,0,0,312,537.47a38.89,38.89,0,0,1-.1,4.32c-.2,2-1.14,2.74-3.19,2.85a17.21,17.21,0,0,1-2.87-.07c-9.85-1.1-19.7-2.19-29.54-3.34-8.9-1-17.79-2.11-26.66-3.27-7.61-1-15.2-2.12-22.8-3.18-10.45-1.47-20.91-2.9-31.35-4.41q-20.89-3-41.76-6.14-21.1-3.18-42.19-6.49c-12.16-1.93-24.31-4-36.44-6a18.66,18.66,0,0,0-6.19-.2,31.74,31.74,0,0,1-4.78.34c-8.48,0-17,0-25.44,0-.8,0-1.6,0-2.39-.06-2.2-.08-4.12-.68-5.18-2.82s-2.73-2.49-4.78-2.54a16.47,16.47,0,0,1-13.46-7.17c-1.13-1.55-2.26-3.11-3.29-4.72a8.91,8.91,0,0,1-.33-10c.8-1.38,1.55-2.81,2.46-4.12a18.87,18.87,0,0,0,2.81-15.54c-1.22-5.48-3-10.79-4.5-16.17-1.64-5.85-3.59-11.62-4.33-17.68a4.22,4.22,0,0,0-1.51-2.89c-1.84-1.55-2.47-3.67-2.79-5.94-.11-.79-.31-1.57-.35-2.37-.58-11.81-1.7-23.61-.43-35.45C1,380.29.77,376.1,1.68,372c.24-1.09.47-2.18.68-3.28,1.17-6,4.84-10,10.26-12.43A45,45,0,0,1,25,352.56c6.18-.89,10.07-4.49,12.8-9.74,2.88-5.56,4.8-11.5,6.78-17.41a120.37,120.37,0,0,0,5.25-26.29l2.61-25.76c0-.48.07-1,.09-1.44.15-4.07-.08-4.3-4.16-4.19s-5.85-1.46-6.24-5.56a11.39,11.39,0,0,1,0-1.43c.12-3.2.11-6.41.45-9.58a40.53,40.53,0,0,0,0-8.6c-.91-8.58-1.58-17.19-2.4-25.78-.48-4.94-.88-9.87-1.05-14.83a17.13,17.13,0,0,1,5.55-13.75A63.2,63.2,0,0,1,53.54,181,7.49,7.49,0,0,1,59,179.81c3.63.55,7.28,1,10.94,1.38a38.46,38.46,0,0,0,6.7.09c8.45-.73,16.87-1.59,25.31-2.4,8-.76,15.92-1.46,23.87-2.27,10.81-1.1,21.62-2.3,32.43-3.42q11.2-1.17,22.43-2.26c16.71-1.63,33.4-3.4,49.88-6.77,2-.42,4.07-.87,6.08-1.4a17.67,17.67,0,0,1,8-.7,9.92,9.92,0,0,0,6-1.12c8.76-3.92,17.54-7.79,26.27-11.77,14.12-6.44,27.93-13.53,41.77-20.54C340.61,117.56,363,107.57,385.48,98c39.31-16.71,79.1-32.21,119.14-47.09q9.23-3.42,18.47-6.78A35.34,35.34,0,0,0,530,40.75a3.52,3.52,0,0,0,1.83-4c-.62-3.3-1.07-6.63-1.62-9.94a15.32,15.32,0,0,1,1.45-8.86,6.46,6.46,0,0,1,4.56-3.89c.46-.12.92-.28,1.39-.36,21.44-4,42.89-4.68,64.33,0a58.89,58.89,0,0,1,7.87,2.11,15.19,15.19,0,0,0,8.47.44c5.48-1.1,11-2.21,16.5-3,11.86-1.81,23.7-3.79,35.61-5.07,12.08-1.3,24.13-2.91,36.29-3.38,6.23-.25,12.43-1,18.64-1.49.48,0,1-.08,1.44-.1,9.11-.4,18.23-.6,27.31-1.23,14.86-1,29.75-.52,44.61-1.09C830.3-.45,862,.13,893.64.16c4.16,0,8.32,0,12.48.06,16.47.32,33,.43,49.4,1.11,8.47.35,17,.51,25.41.88,12.62.55,25.24,1.1,37.85,1.87,13.4.82,26.81,1.7,40.18,2.93,13.21,1.22,26.34,3.13,39.47,5.08,15,2.23,30,5.16,44.8,8.32,10.94,2.33,21.78,5.21,32.6,8.07,8,2.13,16,4.62,24,6.94,2.79.81,5.46,1.79,7.35,4.21.91,1.17,2.37,1.59,3.67,2.2,8.27,3.85,16.58,7.6,24.78,11.57,13.25,6.41,26.47,12.87,39.62,19.48q28.29,14.22,56.47,28.71c21.35,11,42,23.16,62.52,35.64q43.65,26.58,87.29,53.19c7.65,4.66,15.28,9.35,22.83,14.18a10.39,10.39,0,0,0,7.71,1.73c5.36-.93,10.72-1.83,16.07-2.81a15.07,15.07,0,0,0,3.15-1.09c5.41-2.29,10.83-3.32,16.8-2.08,9.08,1.9,18.25,3.35,27.42,4.74,6.47,1,13,1.55,19.53,2.28q11.67,1.29,23.36,2.54l21,2.27q11.69,1.26,23.36,2.55c9.85,1.09,19.71,2.16,29.55,3.3q13.57,1.56,27.14,3.26,13.33,1.67,26.64,3.42c9.67,1.29,19.35,2.53,29,4,17.38,2.68,34.73,5.57,52.11,8.28,24.34,3.79,48.48,8.63,72.56,13.83q24.87,5.37,49.34,12.28c17.68,5,35.42,10,52.42,17.12,4.71,2,9.25,4.37,13.84,6.64a277.62,277.62,0,0,1,24.94,13.36c4.75,3,9.32,6.21,13.83,9.52a50.62,50.62,0,0,1,5.28,4.88,8.25,8.25,0,0,1,2.61,4.5c.35,2.33,1.63,4.11,3,5.94,9,12.51,16.7,25.76,22,40.29a142.38,142.38,0,0,1,6.11,22.67,27.68,27.68,0,0,1,.5,2.84c.2,2.81,1.29,4.77,4.3,5.46,1.92.45,2.82,2,2.84,4,0,1,0,1.92,0,2.88l.06,42.23c0,1,0,1.92-.05,2.88a3.53,3.53,0,0,1-2,3.51,3.62,3.62,0,0,0-2,3.55c-.15,4.77-1.57,5.6-6.35,5.7-4.16.08-8.32.14-12.48.23-1.12,0-2.24.05-3.35.15a2.33,2.33,0,0,0-2.34,2c-.62,4.6-1.17,9.2-1.69,13.8a1.81,1.81,0,0,0,1.63,2c1.56.32,3.15.51,4.72.76a7,7,0,0,1,4.27,2,3.44,3.44,0,0,1-.25,5.11,7.85,7.85,0,0,1-4.4,1.73c-1.58.19-3.19.16-4.79.31-2,.19-2.89.85-3.28,2.85s-.59,4.11-.86,6.17c-.41,3-.85,6-1.19,9a2.35,2.35,0,0,0,1.91,2.9c2.31.59,4.68,1,7,1.46s4.74.77,7.1,1.19a17.74,17.74,0,0,1,2.78.72c1.46.53,2.19,1.54,1.9,2.92a31.91,31.91,0,0,1-5.47,12.66,8,8,0,0,1-3.12,2.15q-7.2,3.32-14.46,6.45c-4.46,1.93-9.22,2.6-14,3.1-3.5.36-7,.69-10.51.86-9.43.47-18.86.72-28.28,1.28-10.54.63-21.09.88-31.64.92a18.71,18.71,0,0,0-4.25.66,240.11,240.11,0,0,1-31.13,5.63c-5.72.62-11.48,1.07-17.23,1.19-10.56.23-21.12.18-31.68.18-5.62,0-6-.59-5.62-6.07a142.26,142.26,0,0,0-.12-22c-.09-1-.21-1.92-.24-2.87-.45-14.11-2.52-28-5.14-41.86a371.5,371.5,0,0,0-8.62-36.4,139.18,139.18,0,0,0-27.73-51.07c-12.63-14.82-27.84-26.32-44.85-35.58-13.41-7.3-27.35-13.24-42.31-16.57a158.62,158.62,0,0,0-25.59-3.79c-4.63-.27-9.24-.81-13.88-.65-26.36.9-51.18,7.34-74.18,20.46a173,173,0,0,0-34,24.88c-15.26,14.56-26.65,31.85-35.26,51a239.11,239.11,0,0,0-17.62,60.65c-.52,3.31-1,6.64-1.54,10-.38,2.24.14,4.47.06,6.66s-1.24,4.18-1.44,6.46c-1.25,13.9-1.12,27.8-.79,41.72.14,5.75-.63,6.52-6.65,6.51-10.39,0-20.79-.08-31.19-.13-1.12,0-2.24,0-3.36,0-33-.84-65.9-.6-98.85-.73-22.23-.09-44.48.14-66.71-.29-32.31-.63-64.62-.51-96.93-.66-22.39-.11-44.8.13-67.19-.3-32.15-.62-64.3-.53-96.45-.66q-36.95-.14-73.91-.17c-18.56,0-37.12.31-55.67-.14-36-.88-72-.39-108-.57s-72-.18-108-.25c-19.36,0-38.72.23-58.07-.16-13.43-.27-26.86-.4-40.29-.47a15.83,15.83,0,0,1-2.39-.18,2.75,2.75,0,0,1-2.46-2.55,30.6,30.6,0,0,1-.18-3.83q0-12,0-24ZM1375.7,198a4.45,4.45,0,0,0-.87-1c-.5-.33-.74-1.43-1.68-.7a12.33,12.33,0,0,0,1.32,1.19,5.92,5.92,0,0,0,1.27.51,4.5,4.5,0,0,0,.85,1.06c.5.33.74,1.43,1.69.69a13.5,13.5,0,0,0-1.32-1.19A6.67,6.67,0,0,0,1375.7,198ZM1393,211.45a4.27,4.27,0,0,0-.86-1.08c-.52-.34-.77-1.48-1.73-.69a10.93,10.93,0,0,0,1.32,1.23,5.48,5.48,0,0,0,1.3.5,9.09,9.09,0,0,0,4.78,3.87,9.33,9.33,0,0,0,4.5,3.77,7.66,7.66,0,0,0-4.5-3.78A9.46,9.46,0,0,0,1393,211.45Zm668.18,142a13.7,13.7,0,0,0,3.25,5.15c-1.23-3.3-1.21-3.33-3.28-5.12a7,7,0,0,0-1-3.15c-1.09-1.77-2.14-3.56-3.27-5.3-3.21-4.94-6.48-9.85-9.69-14.8a4.8,4.8,0,0,0-4.79-2.5c-1.21.13-2.52-.34-3.62.51,0,.2-.06.41,0,.49.55.57,1.1,1.13,1.69,1.65a124.31,124.31,0,0,1,16,17.05C2058,349.48,2059.16,351.83,2061.16,353.49ZM1574.43,236.38c4,1.26,8.1.6,12.18.32l-12.21-.28a14.68,14.68,0,0,0-2.78-.64c-5.27-.19-10.53-.58-15.79-1-8.13-.6-16.28-.87-24.42-1.28-.64,0-1.27-.08-1.91-.12-8.77-.53-17.54-1.3-26.32-1.51a76.53,76.53,0,0,1-20.73-3.47,125.8,125.8,0,0,1-24.65-10.53c-.88-.49-1.65-1.64-2.93-1,0,.64.44.86.85,1.07,8.19,4.35,16.4,8.67,24.58,13a11.78,11.78,0,0,0,5.53,1.29c4.48,0,9,.14,13.43.36,9.25.46,18.5,1.05,27.76,1.51s18.52.84,27.78,1.26c.32,0,.64,0,1,.07C1562,236.39,1568.2,236.29,1574.43,236.38Zm-1056-77.77c.21,1.13.13,2.37,1.39,3.47a4.9,4.9,0,0,0-1.42-3.44c-.44-2-.86-4-1.3-6.08-1.54-7.14-1.67-14.18.77-21.22a40.61,40.61,0,0,1,8.78-14.13c7.4-8.1,16.39-14.19,25.68-19.86,7.64-4.67,15.74-8.47,23.76-12.43.73-.36,1.87-.34,2-1.66a7.74,7.74,0,0,0-1.38.34q-27.84,12.25-55.68,24.5a7.48,7.48,0,0,0-4.09,4.38A55.06,55.06,0,0,0,513.18,134a70.49,70.49,0,0,0,3.45,20.71A10.17,10.17,0,0,0,518.45,158.61ZM786.27,43.44c-2.56,0-5.12,0-7.68.08-9.91.21-19.79,1.07-29.68,1.72-8.31.55-16.56,1.54-24.8,2.61-10.78,1.41-21.48,3.37-32.16,5.41A536.7,536.7,0,0,0,629.21,69.2a432.44,432.44,0,0,0-50.65,19.27c-11,5.13-21.86,10.64-31.91,17.56A97.87,97.87,0,0,0,529.4,120.5c-6.43,7.08-9.75,15.21-9,24.94a41.86,41.86,0,0,0,4.42,16.09c5,9.67,10.26,19.18,15.45,28.74a6.32,6.32,0,0,0,1.29,1.35c.08.08.33,0,.46,0a.58.58,0,0,0,.3-.36c.12-1.22-.68-2.1-1.23-3-3.54-6.08-7.15-12.13-10.68-18.22a69.59,69.59,0,0,1-6.69-14.31c-3.1-10.16-2.46-19.92,3.45-29a46.09,46.09,0,0,1,9-10c14-11.9,29.78-21,46.54-28.4,10.83-4.8,21.93-8.89,33.09-12.85,14.94-5.3,30.11-9.84,45.45-13.74q25.13-6.39,50.71-10.55c10.74-1.73,21.5-3.32,32.34-4.22,4.62-.38,9.24-.75,13.86-1.16,7.48-.65,14.95-1.52,22.47-1.64,1.91,0,3.86.15,5.66-.74l17.94-.27a135,135,0,0,0-16.09-.19A7.72,7.72,0,0,0,786.27,43.44Zm231.36-4.82c2.73,1.13,5.57.63,8.4.3l-8.43-.26a8.88,8.88,0,0,0-3.74-.72c-3-.11-6.07-.2-9.11-.35-9.73-.51-19.46-1.25-29.2-1.5-13.27-.33-26.55-.43-39.82-.37-38.06.2-76.12-.49-114.17,1-8.63.33-17.29-.06-25.9.53-10.21.71-20.44.66-30.65,1.45-9.56.75-19.16,1.2-28.66,2.4-15.7,2-31.35,4.38-47,6.84-14.52,2.29-29,4.88-43.49,7.38A53.58,53.58,0,0,0,633,58.79c-15.91,7.1-31.88,14.08-47.82,21.13-.62.27-1.57.27-1.61,1.31,1.06.23,1.86-.42,2.7-.77,7.22-3.06,14.54-5.83,21.9-8.53A517.51,517.51,0,0,1,659.91,56c13.64-3.43,27.39-6.42,41.25-8.86,14.81-2.6,29.66-4.76,44.66-6,5.1-.42,10.2-.67,15.31-1,8.29-.51,16.58-1.08,24.88-1.49,8.14-.39,16.3-.49,24.45-.81,15.65-.64,31.32-.64,47-1,22.38-.45,44.78-.29,67.17-.39,24.14-.12,48.29.19,72.42,1.2.63,0,1.28,0,1.91.11C1005.16,38.6,1011.4,38.52,1017.63,38.62Zm938.86,321.64a25.9,25.9,0,0,1-.88-7.59q0-12.45,0-24.91c0-1.28,0-2.55-.08-3.83a3.39,3.39,0,0,0-2.84-3.37c-.77-.2-1.56-.33-2.34-.49-4.38-.89-8.76-1.8-13.15-2.66-5.63-1.11-11.27-2.24-16.92-3.26-2.31-.42-3,.13-3.07,2.38-.14,4.46-.13,8.94-.21,13.41a3,3,0,0,0,1.17,2.49c.62.5,1.25,1,1.89,1.47q16.77,12.38,33.56,24.71a24.14,24.14,0,0,0,2.92,1.6,20.4,20.4,0,0,0,9.67,5.9c4.92,1.4,9.78,3,14.67,4.5,12.24,3.8,12.51,3.81,24.67.18a52.9,52.9,0,0,1,12.23-2.21c3-.18,6-.5,9.07-.77a.57.57,0,0,0,.42-.18c.34-.54-.72-.17.13-.38-13.14-2.12-26-4.41-38.52-8.53-1.53-.51-2.16-.07-2.22,1.47-.08,1.75,0,3.52-.11,5.27a6.67,6.67,0,0,1-.54,2.29,1.76,1.76,0,0,1-1.1.82,1.56,1.56,0,0,1-1.66-.69c-1.1-1.56-.85-3.37-.86-5.1-.05-8.64-.05-17.27-.09-25.9a41,41,0,0,0-.2-4.3,1.77,1.77,0,0,0-2-1.58c-5.65,1.06-11.29,2.17-16.93,3.28a3.12,3.12,0,0,0-2.72,3.4c0,3.84,0,7.67-.06,11.51,0,2.56,0,5.12-.14,7.67C1960,359.24,1959.57,359.55,1956.49,360.26ZM49.94,426.49a71.55,71.55,0,0,1-2-17.58c-.1-13.41-1.07-26.85.77-40.23a1.34,1.34,0,0,0-.73-1.07,18.43,18.43,0,0,0-3.32-.36c-6.39-.18-12.78-.27-19.16-.85-4.61-.42-9.27-.28-13.91-.37a13.61,13.61,0,0,0-1.91.12,3,3,0,0,0-2.56,1.91,12.08,12.08,0,0,0-.88,2.73,89.06,89.06,0,0,0-1.12,9q-.78,18.23,0,36.46a40.14,40.14,0,0,0,.84,6.17c.44,2.1,1.39,2.79,3.38,2.48,5.9-.92,11.8-.4,17.69-.06,7.66.45,15.31,1.05,23,1.59,1.67.53,3.31,1.2,5,1.57a103.22,103.22,0,0,1,22.16,7.65c3,1.45,6.13,3,8.36,5.51,2.46,2.77,5.45,3.73,8.89,4,1.75.12,3.51.21,5.26.33,6.22.43,12.44.84,18.65,1.3,6.37.48,12.74,1.06,19.11,1.52s12.76.82,19.14,1.26c4.46.31,8.92.67,13.38,1,6.69.53,13.38,1.09,20.07,1.58,6.22.46,12.46.63,18.65,1.32,4.78.53,9.57.55,14.35,1q9.06.84,18.15,1.49c6.37.47,12.76.82,19.13,1.27q12.44.87,24.86,1.84c2.55.2,5.08.55,7.61.94a1.88,1.88,0,0,1,1.62,2,2,2,0,0,1-1.55,1.63,12.3,12.3,0,0,1-4.76.11c-6.05-.5-12.1-1.06-18.15-1.5-6.38-.46-12.76-.8-19.14-1.23-4.94-.34-9.88-.74-14.81-1.13-6.38-.5-12.74-1.06-19.11-1.52s-12.77-.78-19.14-1.27c-10.35-.79-20.7-1.7-31.05-2.49q-19.59-1.5-39.2-2.89c-12.11-.88-24.22-1.73-36.33-2.65a4.72,4.72,0,0,0-3.9,1.32,72.25,72.25,0,0,1-11.71,8.32,55.69,55.69,0,0,1-18.74,7.08c-9.77,1.91-19.42.87-29-1.13a6.18,6.18,0,0,1-3.07-1.27,1.74,1.74,0,0,1-.59-1.72,1.59,1.59,0,0,1,1.26-1.29,5.94,5.94,0,0,1,1.88-.07c1.9.28,3.78.67,5.67.95,7.62,1.14,15.23,1.63,22.9.33,9.4-1.59,17.51-5.86,25-11.59.15-.12.07-.56.1-.85a3.18,3.18,0,0,0-.86-.31q-19.58-1.61-39.17-3.19A44.85,44.85,0,0,1,36.1,445,16,16,0,0,1,25.58,438c-.64-.91-1.19-1.89-1.79-2.83a2.93,2.93,0,0,0-2.29-1.56,44.44,44.44,0,0,0-9.08.09,1.6,1.6,0,0,0-1.39,1.7,9.85,9.85,0,0,0,.32,2.35c2.43,9.44,5.77,18.63,7.77,28.2a2.27,2.27,0,0,0,2.39,1.87c6.21.5,12.42,1,18.61,1.68a126,126,0,0,1,20.74,3.72,19.39,19.39,0,0,1,5.3,2.19c2,1.3,2.13,1.94,1.1,4.84a10.37,10.37,0,0,1-2.28-.65c-4.13-2.26-8.62-3.25-13.2-4.08C42,473.78,32.17,473,22.31,472.2c-2.07-.17-2.59.05-3.12,2.07a31.19,31.19,0,0,1-4.73,9.88,11.32,11.32,0,0,0-.93,1.67c-.47,1,.22,1.8,1.41,1.83a3.78,3.78,0,0,0,3.24-1.7c2-2.68,4-5.35,6.06-8a8.61,8.61,0,0,1,6.44-3.68,5.87,5.87,0,0,1,6.53,6.88c-.12.94-.47,1.85-.68,2.78-.51,2.24,0,2.86,2.38,2.8a18.08,18.08,0,0,0,2.85-.25c5.18-.95,10.38-1.82,15.52-3,3.4-.76,6.9-1.37,10-3.28,3.88-.42,7.34-2.15,10.93-3.48,1.5-.55,3-1.14,4.52-1.58A1.92,1.92,0,0,1,85,476.37a1.78,1.78,0,0,1-.79,2.09,41.65,41.65,0,0,1-4.27,2.16,142.57,142.57,0,0,1-28.44,8.51,110.18,110.18,0,0,1-13.28,2c-1.52.11-2,1-1.11,2.3,1.7,2.51,3.49,5,5.31,7.4a6,6,0,0,0,3.95,2.51,41.69,41.69,0,0,0,4.26.63,189.93,189.93,0,0,1,19,2.5c18.62,3,37.23,6.12,55.86,9.09q20.85,3.33,41.72,6.41c9.8,1.47,19.62,2.83,29.44,4.23q15.42,2.19,30.86,4.37c10.14,1.41,20.27,2.83,30.42,4.14q14.51,1.88,29,3.53c5.71.66,11.45,1.17,17.18,1.68,2.29.2,3-.35,3-2.61.05-5.12.47-10.22.64-15.33a228.41,228.41,0,0,1,2.9-28.61c3.71-23.25,10.67-45.41,21.89-66.18a165.83,165.83,0,0,1,60.25-63.75c4.36-2.67,8.91-5,13.34-7.59.6-.35,1.61-.58,1-1.87-1.37-.06-2.8-.15-4.23-.19-4.47-.15-9,0-13.42-.51a12.81,12.81,0,0,0-8.22,1.73,136.29,136.29,0,0,0-25.85,19c-14.41,13.48-25.74,29.25-34.8,46.72a232.77,232.77,0,0,0-20,54.35c-3.25,13.88-5.7,27.88-6,42.18-.09,3.67-.79,7.32-.45,11a3.85,3.85,0,0,1-.11.95c-.18,1-1.16,1.88-2,1.76a2.14,2.14,0,0,1-1.73-1.48,13.57,13.57,0,0,1-.53-5.22,226.19,226.19,0,0,1,3-32.45c4.8-28.3,13.63-55.23,27.89-80.25a174.71,174.71,0,0,1,25-33.92,146.63,146.63,0,0,1,27.69-22.85c.6-.38,1.6-.6,1.18-1.91-4.07-.32-8.18-.78-12.31-.94q-10.31-.41-20.61-.88c-14.21-.66-28.43-1.16-42.64-2-6.86-.4-13.73-.45-20.6-.9-10.21-.68-20.45-.8-30.67-1.26-11.18-.51-22.35-1.32-33.53-1.69-12.78-.43-25.55-1-38.31-2a81.61,81.61,0,0,1-14.17-2.39A43.35,43.35,0,0,1,136.3,323.3c-4-5.65-7.41-11.58-10.91-17.5-2.53-4.28-2.54-4.36-7-2.36a142.13,142.13,0,0,1-20.16,7.65c-1.55.42-3.08.86-4.63,1.25a2.36,2.36,0,0,0-1.93,2.37,54.93,54.93,0,0,1-8.57,23.21c-7,11.12-17.1,17.94-29.95,20.65a5,5,0,0,1-2.84.08,1.53,1.53,0,0,1-1.14-1.37,1.87,1.87,0,0,1,.38-1.3,5.86,5.86,0,0,1,2-1.26c1.81-.63,3.67-1.12,5.51-1.66a36.7,36.7,0,0,0,13.09-6.86c9.6-7.89,14.67-18.36,17.14-30.29.34-1.66-.09-2.1-1.71-1.85a140.44,140.44,0,0,1-31.06,1.63c-1.83-.13-2.56.4-3.22,2.2-.44,1.2-.76,2.45-1.11,3.68a166,166,0,0,1-5.87,17.25,52.51,52.51,0,0,1-4.8,9.38,18.27,18.27,0,0,1-11.5,8c-2.18.5-4.39.92-6.55,1.48a21.89,21.89,0,0,0-7.1,2.79c-.18.12-.19.53-.21.81,0,.09.18.27.3.29a12.24,12.24,0,0,0,1.89.25c6.87.17,13.74.55,20.6.88l40.73,1.91q20.83.94,41.68,1.92,21.08,1,42.16,1.93c13.73.62,27.47,1.29,41.2,1.91,14.06.64,28.11,1.18,42.16,2,13.89.77,27.79,1.32,41.68,1.94,8.79.4,17.58.73,26.36,1.1a9.46,9.46,0,0,1,3.77.53,1.87,1.87,0,0,1,1.27,1.84,1.64,1.64,0,0,1-1.46,1.64,25.65,25.65,0,0,1-4.29.21c-8.47-.32-16.94-.65-25.4-1.06-10.38-.5-20.75-1.11-31.13-1.62-7.51-.37-15-.59-22.52-.95q-20.84-1-41.68-2c-13.9-.6-27.79-1.2-41.68-1.95-10.7-.58-21.42-.67-32.11-1.31-8-.49-16-.76-24-1l-.48,0q-18-.87-35.93-1.72a11,11,0,0,0-5,.36c-.08,3.75-.21,7.55-.24,11.35-.11,12.95-.57,25.91.9,38.83.18,1.58.34,3.18.43,4.77C53.53,425.81,53,426.31,49.94,426.49Zm1393.48,62.9c.77-6.19,1.49-11.74,2.14-17.29.87-7.46,1.73-14.92,2.51-22.39.82-7.79,1.6-15.58,2.29-23.38.5-5.73.65-11.5,1.29-17.22,1-8.91,1.06-17.87,1.4-26.81.8-20.46-.24-40.93-.86-61.39,0-.63-.07-1.27-.12-1.91-.55-7.17-1.15-14.34-1.63-21.51a45.44,45.44,0,0,0-1.11-8.07q-2.26-9.07-4.67-18.12a31,31,0,0,0-1.47-4,1.18,1.18,0,0,0-1.55-.78c-2.61,1.21-5.35.73-8,.64-3-.1-6-.53-9.09-.62-9.9-.27-19.81-.4-29.72-.93-10.37-.55-20.77-.36-31.16-.91-11.81-.61-23.65-.41-35.48-1-11.17-.57-22.37-.34-33.56-.91-12.45-.63-24.93-.38-37.4-1-11.17-.57-22.37-.33-33.56-.89-12.93-.64-25.89-.37-38.84-1-11.33-.59-22.69-.32-34-.88-13.09-.65-26.21-.4-39.32-1-11.49-.57-23-.36-34.52-.88-16.29-.73-32.61-.84-48.91-1.2-2.88-.07-5.76-.05-8.64-.13-10.23-.27-20.45-.57-30.68-.84-1.28,0-2.56,0-3.84,0s-1.8.74-1.65,1.86.4,2.2.65,3.29c.78,3.43,1.65,6.84,2.35,10.28a467.06,467.06,0,0,1,6.88,46.95c1.27,12.74,1.74,25.52,2.4,38.28.88,17.11-.43,34.21-.93,51.31,0,.32,0,.63-.06.95-.53,9.74-1.1,19.47-1.57,29.21-.46,9.42-.82,18.85-1.24,28.27,0,1.11-.3,2.22-.34,3.34-.17,4-.38,8-.41,12,0,2.4.74,3,3.2,3.22.47,0,1,0,1.43,0,15.35.26,30.7.13,46,.81,7.5.34,15,.14,22.55.18,22.22.14,44.45.23,66.67.82,12,.32,24,.15,36,.2,20.63.09,41.25.24,61.88.75,12.79.31,25.59.14,38.39.21,21.1.11,42.21.21,63.31.75,12.31.31,24.63.1,36.95.22q34.53.36,69.07.83A21.14,21.14,0,0,1,1443.42,489.39ZM578.79,244.21c-5.38,0-9.22,0-13.06,0-1.87,0-2.4.81-1.67,2.38s1.42,2.87,2.18,4.27C580.91,278,595.59,305.19,611,331.94c10.53,18.3,21.07,36.59,31.9,54.71,9.93,16.61,20.13,33.06,30.42,49.44a393.69,393.69,0,0,0,23.74,34.32c2,2.5,4.23,4.79,6.39,7.14a3.4,3.4,0,0,0,3.46,1.14,28.86,28.86,0,0,1,7.65-.34c5,.15,9.9.48,14.85.6,15.35.35,30.69.23,46,.85,17.57.7,35.17.31,52.76,1,15.65.64,31.33.38,47,.87,20.29.65,40.61.46,60.91,1.15,6.55.22,13.11.13,19.67.21,7.83.1,15.66.15,23.49.62,7.22.43,7.22.19,7.41-6.83.09-3.51.16-7,.35-10.54.48-8.78,1.09-17.55,1.52-26.33.49-10.22.84-20.45,1.26-30.67,0-.48.06-1,.08-1.44.51-12,1.1-23.94,1.5-35.92.2-6.23-.37-12.47-.53-18.69-.38-14.72-1.41-29.37-3-44a388.76,388.76,0,0,0-6.78-42.12c-.69-3.12-1.46-6.22-2.2-9.33a3.66,3.66,0,0,0-3.69-3.12c-4-.2-8-.58-12-.68-12.15-.31-24.3-.26-36.44-.86-13.09-.65-26.22-.36-39.32-1-11.81-.59-23.65-.33-35.48-.9-13.25-.63-26.53-.37-39.8-1-12-.59-24-.31-36-.89-13.41-.65-26.85-.39-40.28-1-11.81-.57-23.65-.31-35.48-.88-13.73-.66-27.49-.37-41.23-1.05-11.49-.57-23-.39-34.52-.85C608.91,244.86,593.06,245.19,578.79,244.21ZM958.08,200.5c.42-1.56-.27-3.06-.63-4.56q-10.82-44.76-21.66-89.5c-4.45-18.34-9-36.66-13.33-55-1.53-6.42-1.51-5.77-7.22-5.7-14.71.17-29.41-.09-44.12.4-20.93.68-41.89,0-62.83,1.11-11,.61-22,.88-33.06,1.31-.48,0-1,.06-1.43.11-9.39.83-18.79,1.61-28.17,2.52-7.16.7-14.32,1.42-21.43,2.42q-15.91,2.26-31.66,5.47c-14.1,2.87-28.11,6.13-42,9.93-13.43,3.68-26.62,8.07-39.73,12.74-16,5.7-31.65,12.13-46.46,20.5a162.87,162.87,0,0,0-26.27,18.41,41.29,41.29,0,0,0-6.47,7.07,27.26,27.26,0,0,0-5.37,15.61A38,38,0,0,0,531.46,163c4.82,8.66,10,17.12,14.88,25.75,1.71,3,4.07,4.08,7.45,4.11,16.46.18,32.93.18,49.39.88,14.85.63,29.73.29,44.59.91,16.45.67,32.93.31,49.39,1,14.85.63,29.73.28,44.6.9,16.29.68,32.6.33,48.91,1,14.69.62,29.41.3,44.11.89,16.93.68,33.89.36,50.83,1.05,14.37.59,28.77.13,43.16.9,9.41.5,18.86.31,28.3.41A3.73,3.73,0,0,0,958.08,200.5ZM644.51,526.13h0q0,11,0,22.08c0,5.81.08,5.86,5.89,5.91,33.75.3,67.5-.11,101.25.55,29.9.57,59.83.17,89.74.22,25,0,49.91,0,74.87.14,39.67.24,79.34-.26,119,.69,7.67.18,15.36,0,23,.08,52.63.31,105.25,0,157.88.8,55,.83,110-.15,165.07,1,9.59.21,19.19.07,28.79.09q53.28.15,106.54.32c7.2,0,14.39-.2,21.58.48a99,99,0,0,0,11,.07c2.21,0,2.8-.71,2.93-2.92.06-1.12,0-2.24,0-3.36,0-12.31-.48-24.63.88-36.92.54-5-.43-5.28-5.47-5.05-1.69.08-2.33.61-2.66,2.22a31.9,31.9,0,0,0-.76,5.22c-.32,8.46-1.43,16.89-1.24,25.39,0,1.11,0,2.24-.08,3.35a12.45,12.45,0,0,1-.42,2.35,2,2,0,0,1-2.08,1.6,1.9,1.9,0,0,1-1.51-1.65,11.18,11.18,0,0,1-.15-1.91c.13-7.36-.1-14.71.74-22,.48-4.13.64-8.29.89-12.44a1.73,1.73,0,0,0-1.63-2c-1.43-.14-2.87-.16-4.31-.17-33.9-.19-67.81-.06-101.71-.78-36.78-.79-73.57-.13-110.36-1-37.1-.83-74.21-.15-111.32-1-36.77-.81-73.57.17-110.35-1-5.92-.19-11.84,0-17.76-.1-31.35-.35-62.7.24-94-.86-17.42-.61-34.86-.2-52.29-.9-19-.76-38.05-.23-57.08-.95-19.81-.74-39.66-.25-59.48-1-20.3-.76-40.62,0-60.92-1.05a203.71,203.71,0,0,1-22.9-2.18c-12-2-23.33-5.73-31.92-15.1a6.54,6.54,0,0,0-5.18-2c-12.16-.05-24.31-.2-36.47-.24-4.42,0-4.88.67-4.24,5.21,1.89,13.31,2.68,26.72,3.32,40.13a37.84,37.84,0,0,1,0,3.84,5.33,5.33,0,0,1-.44,1.84,1.68,1.68,0,0,1-1.47,1,1.56,1.56,0,0,1-1.59-.85,6.28,6.28,0,0,1-.61-2.28c-.35-5.9-.66-11.81-1-17.72-.44-8.47-1.34-16.89-2.49-25.28-.83-6.07-1.37-6.4-7.6-6.55-.64,0-1.28,0-1.92,0-2.25.13-2.89.85-2.62,3,.08.63.26,1.25.36,1.88a138.85,138.85,0,0,1,2.32,27.68C644.41,518.13,644.51,522.13,644.51,526.13ZM1301.1,158.25c-1.94-1.39-2.95-2.15-4-2.85q-22.87-15.43-46.48-29.75a720.17,720.17,0,0,0-74.86-40,419.88,419.88,0,0,0-40.15-15.85c-18.38-6.16-37.39-10-56.42-13.5-12.56-2.34-25.26-3.91-38-5.29-14-1.52-28-2.42-42.06-3.35-8.13-.54-16.3-.66-24.45-.92-14.7-.47-29.43-.34-44.15-.41-4.53,0-4.81.34-3.79,4.65,2.17,9.19,4.43,18.35,6.64,27.52q14,58.07,28.07,116.13c1.52,6.25,2,6.68,8.34,6.87,8.63.28,17.26.38,25.89.94,8,.51,16,.47,24,.91,12.93.71,25.9.73,38.84,1.38,10.06.51,20.13.75,30.2,1,.32,0,.64,0,1,.05,11.15,1.15,22.37.76,33.55,1.46,13.4.83,26.84.94,40.27,1.36l1,.05c11.18.52,22.35,1.12,33.53,1.54,13.43.51,26.87.63,40.28,1.37,8,.44,16,.56,24,.85a24.85,24.85,0,0,1,2.87.15c4.94.7,9.9.5,14.86.61.7,0,1.64.33,2-1-3-2.51-3.7-6.14-4-9.85a40.78,40.78,0,0,1,.08-5.74c.13-2.4.4-4.78.52-7.18a122.42,122.42,0,0,1,2-16.65,42.94,42.94,0,0,1,1.4-5.08c1.57-4.9,4.8-7.78,10.06-8.26C1294.67,159.17,1297.35,158.74,1301.1,158.25ZM277.7,245v.19c-7.68,0-15.36,0-23,0-15.19,0-30.4.16-45.59,0a13.15,13.15,0,0,0-9.22,3.18c-2.31,2-4.76,3.77-7.19,5.6-16,12.05-32.62,23.14-49.15,34.39-4.76,3.24-9.65,6.29-14.46,9.46-2,1.28-2.16,2-1,4,4.06,7.07,8,14.23,13,20.7a36.51,36.51,0,0,0,13.1,11,50.87,50.87,0,0,0,13.68,4.34,186.06,186.06,0,0,0,21.47,2c11.66.54,23.32,1.16,35,1.72,7.51.36,15,.46,22.53,1,10.53.71,21.09.87,31.64,1.29q12.71.51,25.4,1.07c.32,0,.64,0,1,.07,9.7,1.1,19.48.73,29.22,1.45,11.16.82,22.37.93,33.55,1.35A18.94,18.94,0,0,1,370,348c3.82.59,7.67.42,11.5.58a10.82,10.82,0,0,0,5.94-1.48A177.23,177.23,0,0,1,423.66,332a207.17,207.17,0,0,1,47.15-8.25,179.22,179.22,0,0,1,37.8,1.72,176.94,176.94,0,0,1,34.76,9,194.59,194.59,0,0,1,17.92,8.07c14.35,7.05,27,16.56,38.49,27.54A206.18,206.18,0,0,1,625.23,400a176.76,176.76,0,0,1,27,57.45c1.44,5.4,2.52,10.9,3.8,16.35.63,2.66,1.29,3.31,3.8,3.53,3.19.29,6.38.55,9.57.61,7.2.13,14.4.13,21.6.17,1.44,0,2.88,0,4.32-.07a1.48,1.48,0,0,0,1.14-.6,1.56,1.56,0,0,0-.31-1.26c-3.91-5.27-8-10.41-11.75-15.78-10.81-15.48-20.87-31.47-30.69-47.59-18.48-30.33-36.53-60.91-53.84-91.92-10.69-19.14-21.15-38.4-31.69-57.61-2.76-5.05-5.56-10.09-8.09-15.26-1.48-3-3.64-4.29-6.88-4-.48,0-1,0-1.44,0-34.56.07-69.12,0-103.68.24s-69.42-.23-104.13.59C321.87,245.4,299.78,245,277.7,245ZM1942.2,355.82c-1.64-1.29-2.61-2.11-3.63-2.86-6.93-5.16-13.92-10.24-20.78-15.48a23.11,23.11,0,0,0-9-4.2,320.29,320.29,0,0,1-33.69-9.5,94,94,0,0,1-13.14-5.84,11.78,11.78,0,0,1-6.23-7.51c-.94-3.38-2.21-6.68-3.3-10a4.5,4.5,0,0,0-4.09-3.48c-.79-.08-1.55-.4-2.34-.5-10.46-1.4-20.91-2.83-31.38-4.13-7-.87-14-1.57-21-2.31-8-.85-15.89-1.71-23.84-2.5-8.11-.79-16.24-1.48-24.35-2.25-8.59-.81-17.18-1.73-25.77-2.47-9.4-.82-18.81-1.47-28.21-2.25-9.71-.8-19.42-1.75-29.14-2.5q-20.07-1.54-40.17-2.88c-12.76-.83-25.53-1.5-38.3-2.24l-2.39-.14c-7.66-.51-15.3-1.12-23-1.51-10.37-.52-20.76-.86-31.14-1.28l-1-.06c-12.14-.54-24.27-1.13-36.41-1.61-5.43-.21-10.9.06-16.31-.4-6.71-.56-13.42-.44-20.13-.59-.8,0-1.6,0-2.4,0-2.31.11-2.69.63-2.22,3.06.19.94.46,1.86.7,2.79,1.21,4.64,2.41,9.28,3.64,13.92a44,44,0,0,1,1.39,9c.31,5.58.66,11.17,1.17,16.74,1,10.36,1.25,20.75,1.46,31.13.38,18.86.64,37.74-.7,56.59-.46,6.54-.72,13.09-1.28,19.62-.72,8.28-1.6,16.54-2.49,24.8-1.42,13-2.9,26.06-4.36,39.08-.08.8-.26,1.58-.28,2.38a2.13,2.13,0,0,0,2,2.29,17.36,17.36,0,0,0,2.39.18c10.87.1,21.73.78,32.61.71,13.27-.08,26.55.11,39.83.22a26.74,26.74,0,0,1,4.27.42,1.86,1.86,0,0,1,1.5,2.12,1.9,1.9,0,0,1-1.71,1.46c-1.91.13-3.83.19-5.75.18q-35.27-.18-70.54-.38c-5.48,0-5.6.57-6.11,5.1-.14,1.27-.42,2.53-.47,3.8-.07,1.51.71,2.3,2.27,2.55a11.49,11.49,0,0,0,1.43.12c7,.21,14.06.54,21.09.61,14.08.13,28.16.13,42.23.17,8,0,16,.07,24,0,3.11,0,4-.82,4.27-3.93.63-7,1.79-13.95,3-20.89,3.34-19.77,8.13-39.11,16.22-57.56a185.29,185.29,0,0,1,38.24-56.5,195.49,195.49,0,0,1,37.34-29.18,137.4,137.4,0,0,1,15.92-8.86,168.9,168.9,0,0,1,59-13.95,187.86,187.86,0,0,1,45.4,2.52,175.41,175.41,0,0,1,56.55,20.48A151.37,151.37,0,0,1,1844.81,362a6.11,6.11,0,0,0,4.64,2.07c1.28,0,2.56,0,3.84,0,17-.1,33.9.06,50.84-1a188.61,188.61,0,0,0,21-2.18A71.25,71.25,0,0,0,1942.2,355.82Zm-1732.12-115c2.14.09,3.22.17,4.31.17,19.36,0,38.72,0,58.08-.15,16.15-.1,32.3-.45,48.45-.52,34.72-.14,69.44-.07,104.16-.29s69.43.44,104.14-.65c6.55-.21,13.12,0,19.68,0a26.58,26.58,0,0,0,4.27-.38,1.14,1.14,0,0,0,.86-1.49,35.43,35.43,0,0,0-2-4.36c-7.27-13.15-13.68-26.77-21.19-39.81-4.86-8.45-9-17.29-13.6-25.92a75.21,75.21,0,0,1-7.35-22.23,64.23,64.23,0,0,1,2.45-32.64,13.54,13.54,0,0,1,8-8.81c13.56-5.72,27-11.78,40.44-17.71Q597,70,633.27,54a28.43,28.43,0,0,1,6.4-2c5.82-1,11.64-2.16,17.47-3.12,16.42-2.69,32.85-5.25,49.25-8,16.74-2.78,33.54-4.93,50.46-6.13,11.64-.82,23.3-1.38,35-1.9,10.07-.45,20.15-.57,30.22-.86,23.82-.68,47.66-.53,71.49-.95q32.85-.57,65.73.37c14.39.41,28.78.91,43.16,1.41,5.27.18,10.55.5,15.79,1.05,11.13,1.18,22.3,1.94,33.41,3.36,10.47,1.34,20.91,2.88,31.3,4.7,6.77,1.18,13.47,2.75,20.22,4.1A344.31,344.31,0,0,1,1149,58.47q15.42,5.37,30.34,12c9.21,4.1,18.37,8.3,27.39,12.8,7.72,3.86,15.22,8.16,22.79,12.32,8.27,4.55,16.65,8.92,24.73,13.79q19.92,12,39.51,24.62c19.5,12.58,38.48,25.91,57.2,39.61q24.6,18,48.49,36.94a10.59,10.59,0,0,0,7,2.57c4.15-.05,8.32.12,12.47.09,1.72,0,3.5.49,5.15-.42-.42-2.15-2.43-2.74-3.89-3.75-21.19-14.64-42.35-29.35-63.68-43.78q-47.71-32.26-96.75-62.48A810.71,810.71,0,0,0,1180.84,60a20.53,20.53,0,0,1-7.32-5.27,18.88,18.88,0,0,0-10-6.27c-.93-.25-1.82-.62-2.73-.92-23.64-7.76-48-12.45-72.47-16.32-15.95-2.52-32-4.49-48-6.15-12.88-1.33-25.79-2.37-38.7-3.36-12-.92-23.94-1.49-35.92-2q-17-.66-34-.83c-29.43-.26-58.86-.66-88.29.33-17.9.59-35.83.23-53.73,1.2-6.86.37-13.73.29-20.61.8-13.07,1-26.17,1.54-39.26,2.28-.8.05-1.6.11-2.39.19l-27.21,2.71c-4,.4-8,.74-11.92,1.27-8.24,1.1-16.47,2.24-24.69,3.48-11.38,1.73-22.8,3.24-34,5.84-12.31,2.85-24.74,5.09-36.93,8.53a610,610,0,0,0-59.18,19.6c-33.32,13.24-65.95,28-98.21,43.63q-62,30-122.61,62.74c-10.28,5.54-20.51,11.18-30.72,16.84-3.64,2-7.17,4.21-10.72,6.38-.6.37-1.52.64-1.33,2h5.61L514,196.7q2.88,0,5.76.06a3.82,3.82,0,0,1,2.25.66,1.67,1.67,0,0,1,.13,2.51,5.64,5.64,0,0,1-2.18.85,38.89,38.89,0,0,1-4.32.14q-42,0-84,.08l-163.2.07c-1.28,0-2.56.05-3.84,0a7.48,7.48,0,0,0-4.93,1.56c-1,.77-2.08,1.49-3.09,2.27l-43.78,33.61C212.15,239,211.58,239.54,210.08,240.82Zm1801,133.48a6.8,6.8,0,0,0-4,.46c-3.56.91-7.11,1.85-10.69,2.7a17.07,17.07,0,0,1-9.44-.46c-7.76-2.52-15.58-4.84-23.38-7.23a19.22,19.22,0,0,1-6-3c-2.43-1.82-5-3.46-7.37-5.36a6.62,6.62,0,0,0-7.58-1,24.78,24.78,0,0,1-2.7,1,112.05,112.05,0,0,1-15.3,4c-9.8,1.76-19.72,2.17-29.61,2.51-12.31.42-24.63.28-37,.39-1.44,0-2.88.06-4.31.14a1,1,0,0,0-.71,1.44c1,1.22,2.07,2.42,3.18,3.56a165,165,0,0,1,33.1,49.64c7.81,17.84,12.66,36.54,15.61,55.75.58,3.79,1,7.61,1.67,11.39.48,2.83.85,3.05,3.8,3.22.32,0,.64,0,1,0,11.67.16,23.34.14,35,.84,8.62.51,17.26.49,25.89.9,8.3.39,16.6,1,24.91,1.29a15.55,15.55,0,0,1,5.19.84,1.91,1.91,0,0,1,1.45,2.17c-.17,1.14-1.07,1.49-2,1.67a3.12,3.12,0,0,1-1,.05c-4.6-.75-9.25-.61-13.88-.86-10.69-.57-21.39-1.16-32.09-1.59-6.55-.27-13.14,0-19.67-.46-7.51-.58-15-.39-22.53-.57-.48,0-1,0-1.44,0-2.82.16-3.48.74-3.5,3.4a44.6,44.6,0,0,0,.3,6.23c.45,3.34.52,6.69.64,10,.26,7-.17,14.08.65,21.09a7.93,7.93,0,0,1-.43,3.79,2,2,0,0,1-1.71,1.45,1.83,1.83,0,0,1-2-1.63,25.41,25.41,0,0,1-.45-4.76c.1-10.72-.56-21.42-1.29-32.11a44,44,0,0,0-.89-5.67,2.12,2.12,0,0,0-2-1.76c-2.23-.1-4.47-.15-6.7-.08a1.66,1.66,0,0,0-1.63,2c.12,2.23.26,4.47.48,6.69a250,250,0,0,1,1.59,25.36c0,3.36,0,6.72,0,10.08a23.43,23.43,0,0,0,.18,3.35,2.05,2.05,0,0,0,1.89,1.87,42.57,42.57,0,0,0,4.79.25c11.19-.06,22.37,0,33.57-.77a226.39,226.39,0,0,0,36-5.35,13.39,13.39,0,0,0,4-1.39,22.13,22.13,0,0,1,6.68-2.57c4.34-1.09,8.67-2.26,13-3.23a299.61,299.61,0,0,1,50.34-6.75c10.06-.51,20.13-.75,30.2-1.1a6.16,6.16,0,0,1,1,0c2.27.17,3.58-1,4.37-3,.3-.74.61-1.48.84-2.24a1.49,1.49,0,0,0-1.25-2.14,68.72,68.72,0,0,0-7.15-.73c-10.55-.28-21.1-.37-31.65-.85-13.57-.63-27.18-.66-40.77-.93-20.14-.41-40.29-1-60.44-1.34-2.24,0-4.48,0-6.71-.13s-4.46-.41-6.68-.7a2,2,0,0,1-1.93-1.81,2,2,0,0,1,2.19-2.06c2.71-.09,5.43,0,8.14.06,2.07.07,4.14.36,6.22.42,11.35.31,22.7.34,34.05.81,15.33.64,30.7.21,46,1.07,6.22.34,12.47.19,18.71.25a4.54,4.54,0,0,0,2.93-.42c-5.7-.86-11.24-1.55-16.66-2.86a57.85,57.85,0,0,1-12.63-4.46c-4.65-2.34-8.14-5.91-9.24-10.9-1-4.6-2-9.36-1.28-14.21a18.72,18.72,0,0,0,.23-4.78c-.4-3.61.91-6.94,1.55-10.36a6.32,6.32,0,0,1,5.6-5.21,39.83,39.83,0,0,1,4.76-.53c6.86-.32,13.74-.48,20.6-.78,16.14-.7,32.29-.93,48.44-1.36,1.12,0,2.24,0,3.36-.09a11,11,0,0,0,2.36-.34c1.12-.31,2.07-.88,2.19-2.22.08-1-.72-1.56-2.4-1.73-.16,0-.32,0-.48,0-4.87-.44-4.91-.49-4.41-5.59.35-3.66.71-7.32,1-11,.1-1.28.07-2.61-1.16-3.47-1.94-1.36-2-3.52-2.36-5.55-.36-2.21-.59-4.43-.92-6.65a4,4,0,0,0-2.2-3.46c-1.4-.66-1.74-2.19-2.29-3.53-1.64-4-3.29-8-5-11.93-.57-1.28-.93-3-2.4-3.41-.95-.28-2.14.35-3.24.44-1.43.13-2.87.14-4.31.18-6.08.19-12.14-.38-18.21-.5-8.64-.18-17.28-.1-25.92-.11l-107.51-.24q-11.76,0-23.52-.06a15.57,15.57,0,0,1-5.22-.5,1.94,1.94,0,0,1,0-3.81,14.39,14.39,0,0,1,4.76-.4c9.91-.23,19.82.45,29.73.51,29.6.18,59.19.19,88.79.26,5.12,0,10.24,0,15.36,0,.74,0,1.74.26,2-.75.2-.66-.44-1.13-.87-1.58-2.2-2.32-4.43-4.61-6.61-7-1.08-1.17-2.11-2.4-3.08-3.67C2010.25,378.85,2009.35,376.85,2011.06,374.3ZM1441.6,263.19a53.14,53.14,0,0,0-5.32-8.86A245.81,245.81,0,0,0,1415.67,231a9.5,9.5,0,0,0-7.2-3c-12.62-.27-25.25-.75-37.87-1.16l-1.92-.09c-11.5-.52-23-1.46-34.49-1.45-16.65,0-33.24-1.18-49.87-1.32-.64,0-1.28,0-1.92-.08-11.5-.53-23-1.12-34.49-1.56-13.1-.5-26.21-.85-39.32-1.26l-1,0c-11.33-.53-22.67-1.13-34-1.56-13.26-.5-26.53-.85-39.79-1.27-.32,0-.64,0-1,0-11.15-1.16-22.36-.77-33.54-1.47-13.4-.84-26.86-.7-40.26-1.45-8-.44-16-.56-24-.84l-2.4-.1c-11.81-.53-23.63-1.08-35.45-1.57-6.23-.26-12.47-.09-18.69-.76a85.13,85.13,0,0,0-9.59-.22c-2.36,0-2.72.76-1.61,3s2.3,4.57,3.38,6.89a193.37,193.37,0,0,1,9.66,25.56c.9,3,1.33,3.2,4.42,3.36.48,0,1,0,1.44,0,10.55.24,21.1.28,31.65.79,13.26.63,26.54.37,39.81,1,11.65.58,23.33.33,35,.89,13.09.63,26.22.4,39.32,1,11.5.56,23,.31,34.53.88,13.09.64,26.21.39,39.32,1,10.85.55,21.73.33,32.61.86,13.25.63,26.53.41,39.8,1.07,10.69.53,21.41.31,32.12.86,12.45.63,24.94.4,37.4,1.05,10.22.54,20.46.32,30.69.88,12.77.7,25.57.8,38.36,1.16,6.07.18,12.15,0,18.2.79C1437,263.11,1438.88,263.07,1441.6,263.19Zm-484-13.35h12.12c1.27,0,2.56,0,3.83-.07,1.89-.16,2.6-1.11,2.22-2.87a21.53,21.53,0,0,0-.68-2.3c-1.3-3.78-2.53-7.58-3.93-11.33a152.28,152.28,0,0,0-8.71-18.68,5.22,5.22,0,0,0-4.9-3.15c-4.64-.09-9.26-.49-13.89-.6-14.39-.34-28.78-.23-43.16-.92-13.41-.65-26.85-.31-40.28-.93-14.53-.67-29.09-.31-43.63-1-13.25-.63-26.53-.28-39.8-.91-14.53-.68-29.09-.31-43.64-1-13.24-.64-26.52-.29-39.79-.92-14.53-.68-29.09-.31-43.64-1-13.73-.64-27.49-.29-41.23-.93-14.05-.66-28.14-.19-42.2-1-6.86-.4-13.75-.22-20.63-.27-4.6,0-4.84.33-2.68,4.5q7.38,14.28,14.86,28.5c.52,1,1.12,1.94,1.69,2.9a4,4,0,0,0,3.59,2c.64,0,1.27,0,1.91.06,13,.25,25.9.26,38.84.89,12.45.61,24.94.31,37.4.94s25.25.33,37.88,1,25.57.3,38.36,1c12.29.63,24.61.31,36.92.93,13.08.66,26.21.33,39.31,1,12.13.62,24.29.32,36.44.92,13.25.66,26.53.35,39.79,1,12,.6,24,.5,36,.88C922.83,249,939.78,249.12,957.56,249.84ZM1465,215.63a81.14,81.14,0,0,0,28.07,11c8.54,1.5,17.21,1.06,25.81,1.81,8.44.74,16.92.9,25.39,1.32.48,0,1,.08,1.43.12,7.33.51,14.67,1,22,1.51s14.69.83,22,1.28q7.18.45,14.35,1c10,.8,20.07,1.65,30.11,2.44,9.88.78,19.76,1.48,29.64,2.24,4.31.34,8.6.74,12.9,1.15,8.27.78,16.54,1.61,24.82,2.4,8.11.77,16.24,1.42,24.34,2.29q19.32,2.07,38.6,4.37c14.29,1.67,28.59,3.23,42.84,5.19,24.23,3.32,48.44,6.81,72.55,11,26.63,4.64,53.13,9.89,79.33,16.56,19.24,4.9,38.26,10.49,56.52,18.37,9.11,3.94,18,8.32,25.87,14.52,4.32,3.4,4.31,3.41,8.91.6,1.11-.67,1.26-1.5.27-2.2-3.8-2.66-7.6-5.33-11.47-7.87-9-5.9-18.76-10.35-28.32-15.18-4.56-2.31-9.11-4.65-13.88-6.55-9.22-3.66-18.71-6.53-28.15-9.55-17.38-5.56-35-10.26-52.73-14.48-26.29-6.25-52.76-11.7-79.44-16.05-12.78-2.08-25.56-4.2-38.35-6.18q-21.57-3.35-43.17-6.44c-8.06-1.17-16.15-2.21-24.24-3.25-6.82-.87-13.64-1.66-20.47-2.46q-14.52-1.72-29-3.4c-6.83-.79-13.66-1.54-20.49-2.3q-11.2-1.24-22.4-2.47c-7.15-.77-14.31-1.5-21.46-2.27-7.63-.83-15.25-1.66-22.87-2.55-7.15-.83-14.31-1.57-21.41-2.65-9-1.37-18-3-26.95-4.59a12.75,12.75,0,0,0-6.59.47,77.92,77.92,0,0,1-9.21,2.63c-14.09,3-28.39,4.65-42.71,6.08C1479.91,214.28,1472.43,214.93,1465,215.63Zm28.69,21.13c.28,1.25,1.21,1.27,1.9,1.56,10.3,4.39,20.63,8.7,30.9,13.15a39.41,39.41,0,0,0,12.07,2.87c8,.76,15.91,1.49,23.87,2.28,14.63,1.46,29.25,3,43.89,4.41,12.26,1.16,24.53,2.13,36.79,3.2,4.14.36,8.28.77,12.42,1.15,8.75.82,17.5,1.65,26.26,2.44q10,.9,20.06,1.71c5.26.43,10.52.81,15.78,1.2,5.58.42,11.18.69,16.74,1.26,10.34,1.05,20.65,2.29,31,3.42,12.87,1.4,25.77,2.6,38.62,4.22,17,2.15,34,3.72,50.93,6.22,11.38,1.69,22.81,3.13,34.17,5,23.85,3.86,47.54,8.47,71,14.25,18.19,4.47,36.22,9.44,53.47,16.87a7.4,7.4,0,0,0,2.75.76c3.68,0,7.35-.09,11-.17a.54.54,0,0,0,.42-.19c.14-.25.37-.67.27-.79a10.44,10.44,0,0,0-1.63-1.69c-7.61-6-16.17-10.3-25-14.13-16.93-7.33-34.56-12.58-52.36-17.25q-26.45-6.94-53.37-11.86c-13.37-2.44-26.73-4.95-40.14-7.15-12.62-2.07-25.29-3.82-38-5.62-8.39-1.19-16.8-2.25-25.2-3.31q-13.33-1.67-26.67-3.22-11.19-1.31-22.39-2.5c-7.47-.79-15-1.52-22.43-2.27-8.27-.82-16.53-1.71-24.81-2.44-9.24-.82-18.48-1.5-27.72-2.25l-12.43-1c-6.05-.51-12.1-1.08-18.15-1.53-6.38-.47-12.77-.8-19.15-1.25-11.8-.82-23.59-1.77-35.39-2.52-8.45-.54-16.92-.86-25.39-1.27l-1.91-.11c-7.82-.51-15.63-1.13-23.45-1.51-10.54-.52-21.09-.84-31.63-1.29C1498.45,237.24,1496.1,237,1493.65,236.76Zm-50.86-33.19a24.54,24.54,0,0,0,5.94-.64c9-2.19,17.81-5.14,26.69-7.81a9,9,0,0,0,1.33-.54,1,1,0,0,0,.3-1.61c-.89-.67-1.81-1.3-2.76-1.88q-38.47-23.51-77-47c-13.68-8.29-27.39-16.53-41.27-24.46-16.52-9.44-33.45-18.14-50.46-26.68-12.43-6.24-24.9-12.43-37.29-18.75a227.37,227.37,0,0,0-28.44-12.69c-7.7-2.68-15.33-5.58-23-8.41a10.39,10.39,0,0,0-6.57-.63,53,53,0,0,0-13.62,5.84c-1.86,1.14-1.87,2.52-.11,3.77a26,26,0,0,0,2.91,1.66c1.85,1,3.74,1.83,5.56,2.83C1222,76,1239,85.23,1255.83,94.69c26.09,14.62,51.74,30,77.21,45.65q42.32,26,84,53a86.71,86.71,0,0,0,16.16,8.34A24,24,0,0,0,1442.79,203.57ZM1191.89,38c-.74-1.27-2.17-1.26-3.34-1.6-7.07-2-14.14-4.09-21.27-5.88-22.81-5.72-45.8-10.51-69.06-14.14-17.55-2.73-35.16-4.88-52.86-6.19-13.07-1-26.14-2.06-39.26-2.27a21.31,21.31,0,0,1-2.4-.09c-9.22-1.18-18.52-.75-27.78-1.43-9.08-.67-18.21-.58-27.33-1C933.26,4.8,917.9,5,902.54,4.53c-18.38-.51-36.79-.27-55.19-.32-15.51,0-31,.31-46.53.84-13.1.45-26.22.06-39.33.84-12.92.78-25.87,1.11-38.8,2-12.27.87-24.56,1.57-36.81,2.89C674.44,12,663,13.12,651.6,14.91c-10.42,1.64-20.9,3-31.23,5.13-21.14,4.44-42.16,9.34-63,15-4.94,1.34-9.8,2.93-14.69,4.45a1.7,1.7,0,0,0-1,.92c-.19.52.29.87.73,1q9.34,3.78,18.7,7.5a5.73,5.73,0,0,0,3.77.16c1.23-.35,2.47-.66,3.7-1C585.37,43.31,602,38,619.18,34.87c7.23-1.34,14.37-3.18,21.61-4.5s14.52-2.29,21.8-3.38c6.8-1,13.59-2.11,20.41-2.95s13.68-1.4,20.51-2.11c10.5-1.1,21-2.3,31.52-2.91,5.58-.32,11.18-.6,16.76-1,7-.47,14-1.11,21.05-1.45,8.46-.42,16.94-.36,25.41-.87,12.13-.72,24.3-.43,36.45-.92s24.63-.33,36.95-.33c29.43,0,58.87-.35,88.29.92,9.74.42,19.49.79,29.24,1.18.16,0,.32,0,.48,0,10.66,1.07,21.36,1.48,32,2.42,11.15,1,22.29,2,33.4,3.33,16.36,1.9,32.66,4.26,48.87,7.2,21.9,4,43.63,8.59,64.59,16.27a8.33,8.33,0,0,0,6.48-.15c4.87-2.05,9.79-4,14.66-6C1190.54,39.34,1191.62,39.23,1191.89,38Zm204.94,466.84v.3h38.87a35,35,0,0,0,3.83-.18,2.16,2.16,0,0,0,2-1.82c.44-2.68.83-5.37,1.12-8.07.18-1.73-.36-2.2-2.25-2.22-18.71-.23-37.41-.06-56.12-.69-13.91-.47-27.83-.2-41.75-.27-20.63-.1-41.26-.21-61.88-.73-13.27-.34-26.55-.19-39.83-.24-20.63-.06-41.26-.17-61.88-.76-8.16-.23-16.32,0-24.48-.14-21.42-.25-42.85-.13-64.28-.71-22.06-.6-44.15-.38-66.22-.52-1.44,0-2.89,0-4.32-.12-8.45-.83-16.94-.37-25.41-.57a11.55,11.55,0,0,0-1.44.05c-1.8.2-2.47.84-2.62,2.78-.14,1.76-.17,3.52-.18,5.28,0,4.55.37,5.07,4.81,5.1,11.35.08,22.7.34,34,.58,16.15.34,32.31.21,48.47.27,22.55.08,45.09.23,67.64.72,14.55.32,29.11.19,43.67.24,22.55.09,45.09.22,67.64.72,14.23.32,28.47.16,42.71.23,22.55.13,45.09.13,67.64.73C1376.67,505.09,1386.75,504.87,1396.83,504.87Zm-1119.51-351,.2.76c2.21.32,4.41.68,6.63.95,4.6.57,9.19,1.2,13.81,1.61,8.43.75,16.86,1.68,25.36,1.52a17.94,17.94,0,0,0,8.24-2.07c16.7-8.79,33.39-17.61,50.24-26.09,20.71-10.43,41.57-20.56,62.39-30.76,5.6-2.75,11.28-5.32,16.94-7.94,17.42-8,34.95-15.85,52.66-23.26a23.64,23.64,0,0,0,3.74-2.09,1.18,1.18,0,0,0-.29-2.22c-4.6-1.85-9.3-3.48-13.82-5.5a8.7,8.7,0,0,0-7.3-.18c-13.85,5.41-27.8,10.56-41.64,16-26.06,10.21-52,20.66-77.69,31.81-17.16,7.45-34.22,15.14-51,23.46q-21.06,10.45-42.09,21C281.6,151.82,279.45,152.81,277.32,153.83Zm24,18.9c-4.41-.34-7.89-.53-11.35-.9-3.66-.38-7.29-.94-10.94-1.39q-14.76-1.83-29.51-3.61a36.31,36.31,0,0,0-13.81.53c-4.17,1.08-8.44,1.83-12.69,2.53-8.2,1.37-16.38,2.84-24.69,3.5-6.85.55-13.67,1.39-20.51,2.11-8,.84-15.89,1.71-23.84,2.53-7.47.78-15,1.49-22.43,2.26-8,.81-15.89,1.7-23.85,2.46-8.43.81-16.89,1.37-25.31,2.29a69.36,69.36,0,0,1-17.69,0c-1.32-.2-3.07-1-3.91.57-.67,1.23.64,2.35,1.27,3.42a13.93,13.93,0,0,0,1.45,1.91c2.22,2.55,5,4.31,7.81,6.2,3.47,2.36,7,2.66,10.83,2.62,10.88-.11,21.74-.28,32.61-.68,15.82-.58,31.66-.15,47.49-.92,14.69-.72,29.42-.18,44.13-1,8.77-.49,17.59-.27,26.39-.39,2.39,0,4.81,0,7.18-.28,4.15-.47,8.31-.34,12.47-.41,1.61,0,3.22,0,4.5,1.23a2,2,0,0,0,2.63.05c1.08-.67,2.14-1.4,3.2-2.12a198.39,198.39,0,0,1,18.8-11.54C287.93,180.31,294.17,176.73,301.36,172.73ZM1832,363.84c2.08,0,4.16,0,6.23,0a.89.89,0,0,0,.65-1.42c-1.48-1.45-2.93-3-4.52-4.27a168,168,0,0,0-41.61-25.41,174.17,174.17,0,0,0-58.6-13.44,180.64,180.64,0,0,0-39.21,1.88,170.76,170.76,0,0,0-31.57,7.95,134.28,134.28,0,0,0-24.85,12.38c-15.84,9.86-30.29,21.32-42.79,35.24a183,183,0,0,0-38.43,67.94c-5.66,17.89-9,36.29-11.27,54.88a23.23,23.23,0,0,0-.18,3.82c.06,1.71.89,2.41,2.8,2.59,3.36.32,4.78-.22,5.26-2a7.73,7.73,0,0,0,.17-.94c.26-1.58.55-3.15.75-4.74a263.72,263.72,0,0,1,6.06-31.53,209.88,209.88,0,0,1,23.74-57.93,149.69,149.69,0,0,1,28.81-35.09,179.78,179.78,0,0,1,44.89-29.18,153.64,153.64,0,0,1,79-13.5,164.62,164.62,0,0,1,37.08,7.33c15.63,5,30.07,12.53,43.85,21.37C1825.73,364.56,1822.86,363.72,1832,363.84ZM1408.14,217.47c1.82,1.84,2.8,2.85,3.81,3.84,6.87,6.71,13.66,13.49,19.92,20.78,4.9,5.71,9.8,11.43,13.09,18.29a4,4,0,0,0,4.15,2.62c1-.05,1.92,0,2.88,0,10.07.2,20.14.22,30.21.76,10.38.55,20.78.53,31.17,1.11s21.09.86,31.63,1.27l1,.06c8.3.52,16.59,1.09,24.89,1.55s16.61.85,24.92,1.27c.63,0,1.27.1,1.91.15,6.69.5,13.39,1,20.09,1.47,6.86.46,13.74.63,20.58,1.31,4.94.49,9.9.59,14.84,1,5.89.51,11.78,1,17.68,1.5,9.88.77,19.77,1.48,29.65,2.25q6.21.48,12.42,1.07c8.76.81,17.51,1.65,26.26,2.46,8.44.77,16.89,1.47,25.32,2.29,8,.77,15.9,1.66,23.85,2.51,10,1.07,20,2.06,30,3.27,9.36,1.12,18.7,2.49,28,3.75.47.07.94.18,1.42.21s1-.12,1.13-.62a1.92,1.92,0,0,0-.29-1.32c-1.08-1.42-2.77-1.53-4.33-1.72-8.88-1.08-17.78-2.08-26.68-3.1l-21.92-2.48c-6.67-.76-13.34-1.56-20-2.3q-10.72-1.19-21.46-2.3c-8.75-.9-17.49-1.81-26.24-2.62-5.26-.48-10.53-.7-15.79-1.15-9.4-.8-18.79-1.7-28.18-2.51-9.08-.78-18.17-1.42-27.25-2.24-12.42-1.11-24.82-2.36-37.24-3.49-12.1-1.11-24.21-2.07-36.31-3.22-12.57-1.2-25.13-2.54-37.69-3.85-3.82-.39-7.62-.91-11.44-1.3a29.5,29.5,0,0,1-8.29-2.27c-7.08-3-14.21-5.83-21.26-8.86-9.12-3.91-18.25-7.79-27-12.45-9.75-5.17-19.5-10.35-29.2-15.62a12.3,12.3,0,0,0-6.41-1.53c-4.8.11-9.6.08-14.4.09ZM393.84,349.18c1.39.1,2.18.18,3,.21,6.39.22,12.79,0,19.16.82a10.62,10.62,0,0,0,4.69-.69c3.35-1.07,6.71-2.13,10.12-3,13.52-3.4,27.2-5.73,41.19-5.86,3,0,6.1-.69,9.08-.39,6.2.63,12.43.63,18.64,1.37A158.6,158.6,0,0,1,544,353.43a152.62,152.62,0,0,1,51.55,35.93A172.19,172.19,0,0,1,624.36,431a199.54,199.54,0,0,1,14.33,39.1c1.92,7.46.85,7.4,10.15,7.11,2.12-.07,2.86-1.05,2.73-3.08a11.42,11.42,0,0,0-.19-1.43,180.32,180.32,0,0,0-14.53-44.55A192.49,192.49,0,0,0,612.24,390a182.41,182.41,0,0,0-32-30.86A159.66,159.66,0,0,0,509.53,330a195.62,195.62,0,0,0-27.68-2.19,206,206,0,0,0-32.43,2.77,194.13,194.13,0,0,0-51.64,15.81C396.52,347,395.07,347.34,393.84,349.18ZM254.2,200.54c-3.26-.64-6.08.26-8.93.32-13.74.28-27.48.19-41.21.89-13.57.69-27.16.28-40.74.9-16.44.76-32.91.46-49.37,1-18.53.57-37.08.3-55.62.36a66.18,66.18,0,0,1-10.52-.61c-3.84-.6-4.5,0-4.28,4.07.19,3.35.58,6.68.88,10,.43,4.61.81,9.23,1.29,13.84.83,8.09,2.17,16.16.8,24.34a24.33,24.33,0,0,0,0,5.26,2.21,2.21,0,0,0,2.13,2.19c2.44.31,3.63-.37,4.31-2.69.63-2.14,1-4.35,1.68-6.49,2.39-8,5.59-15.64,10.78-22.32a22.72,22.72,0,0,1,12.11-8.14,51.3,51.3,0,0,1,7-1.5c13-1.76,26.11-2.08,39.19-2.79,9.41-.51,18.84-.41,28.27-.84,14-.65,28.11-.54,42.17-1,11.66-.43,23.34-.35,35-.32a13,13,0,0,0,8.79-3.05c4.46-3.64,9.09-7.06,13.63-10.6A6.3,6.3,0,0,0,254.2,200.54Zm592.93,284.7c-13.58-.33-27.16-.15-40.75-.68-18.52-.72-37.07-.35-55.6-1.11-13.25-.55-26.54.16-39.79-.85a.91.91,0,0,0-.47,0,3.09,3.09,0,0,0-.65.6.48.48,0,0,0,0,.43,16.58,16.58,0,0,0,1.62,1.73c4.74,4,10.36,6.28,16.25,7.92,8.68,2.41,17.59,3.3,26.52,3.87,9.89.62,19.81.52,29.71.84,20.29.64,40.59.21,60.89,1,18.84.72,37.71.23,56.57,1,19.33.74,38.68,0,58,1,6.7.34,13.43.16,20.15.2,1.27,0,2.55,0,3.82-.16a2,2,0,0,0,2-1.79,40,40,0,0,0,.17-9.08,2.1,2.1,0,0,0-1.88-1.9,14.55,14.55,0,0,0-2.38-.24c-8.15-.07-16.29-.35-24.43-.64-16.77-.58-33.56-.29-50.34-.9C886.78,485.74,866.94,486.3,847.13,485.24ZM226.69,221.33c-1.5-.05-3.05-.11-4.61-.13-12.46-.18-24.92.49-37.37.84-10.7.3-21.41.14-32.11.76-11.48.66-23,.5-34.49,1.06-9.58.47-19.15.81-28.68,1.95-3,.36-6,.62-9,1.23a19.36,19.36,0,0,0-11.9,7.47,60.17,60.17,0,0,0-7.84,14.77,39.61,39.61,0,0,0-2.36,7.63c1,.35,1.41-.22,1.89-.57a42.41,42.41,0,0,1,9.25-5c9-3.66,18.39-5.34,27.94-6.4a240.51,240.51,0,0,1,24.89-1.12c1.6,0,3.21,0,4.8-.14,4.27-.33,4.83-.79,5.95-4.85,1-3.7,2-7.41,2.94-11.12a5.29,5.29,0,0,1,1.38-3,2.27,2.27,0,0,1,1.3-.47,1.57,1.57,0,0,1,1.44,1.06,5.11,5.11,0,0,1,0,3.3c-.72,3-1.49,5.88-2.23,8.83-1.38,5.53-1.32,5.67,4.47,5.51,7.67-.21,15.33-.57,23-.85,6.87-.25,13.74-.14,20.6-.75a98.37,98.37,0,0,1,13.41-.1,6.76,6.76,0,0,0,4.85-1.42c7.07-5.48,14.19-10.91,21.27-16.39C226,223,226.87,222.63,226.69,221.33ZM119.38,248.05a239.26,239.26,0,0,0-27.9,2c-7.93,1.18-15.71,3-23,6.39a32.61,32.61,0,0,0-9.31,6.65,7.24,7.24,0,0,0-2.27,5.53,73.44,73.44,0,0,1-.7,10c-.5,4-.77,8-1.1,11.94A25,25,0,0,0,55,294c.08,1.82.87,2.56,2.78,2.47,2.55-.12,5.1-.44,7.65-.55,10.22-.45,20.45-.82,30.67-1.27,4.79-.21,9.57-.67,14.36-.77a5.14,5.14,0,0,0,5.17-3.45c1.05-2.5,2.29-4.93,3.31-7.45,3.73-9.2,6.74-18.64,9.61-28.14.41-1.38.83-2.76,1.15-4.16.39-1.7-.15-2.53-1.83-2.58C124.8,248,121.76,248.05,119.38,248.05Zm1185.21-84.66c-2.22.14-4.47.16-6.67.45a6.68,6.68,0,0,0-6.09,5.28c-.4,1.55-.83,3.08-1.19,4.64-1.8,8-2.05,16.13-2.88,24.22a9,9,0,0,0,1.27,5.52,5.11,5.11,0,0,0,6,2.7c1.25-.25,2.46-.71,3.7-1,5.32-1.19,10.65-2,16.13-.94,4.53.9,9.12,1.54,13.66,2.45a29.14,29.14,0,0,0,6.17.6,4.24,4.24,0,0,0,4-2.27c2.15-4.16,3.73-8.46,2.78-13.31-1.73-8.8-6.41-15.9-12.68-22.06a12.74,12.74,0,0,0-5.79-3.26A81.78,81.78,0,0,0,1304.59,163.39ZM195.74,246.22a3,3,0,0,0-2.75-.85c-2.71.17-5.41.5-8.12.59q-21.81.67-43.63,1.26c-6.33.16-6,.06-7.6,5.63A316.45,316.45,0,0,1,121,289.05a16.35,16.35,0,0,0-.79,2.26,1.09,1.09,0,0,0,.82,1.48c3.63.59,7.29,1.34,10.45-1.5a17.29,17.29,0,0,1,2-1.32c16.69-11,33.06-22.48,49.41-34C187.2,253,191.28,249.63,195.74,246.22Zm1634.78,122c1.62,1.5,2.29,2.17,3,2.78a152.07,152.07,0,0,1,17.37,17.15,142.11,142.11,0,0,1,27.25,48.05c4.55,13.84,7.49,28.08,10.43,42.31.81,3.91,1.34,7.87,2.07,11.8.39,2.13,1.11,2.79,3.17,2.9s4.15.09,6.22,0a1.58,1.58,0,0,0,1.75-1.81c-.09-1.91-.19-3.83-.47-5.72-1.2-8.39-2.65-16.73-4.61-25a201.58,201.58,0,0,0-14-40.21,186.89,186.89,0,0,0-27.64-41.87c-2.5-2.9-5.3-5.55-8-8.29a5.53,5.53,0,0,0-3.67-2.06C1839.51,368.21,1835.55,368.14,1830.52,368.27Zm158.57-41.19c-1.57-.07-2.28.57-2.45,2.26a17.33,17.33,0,0,0-.07,1.91q0,9.6,0,19.19a21.42,21.42,0,0,0,.11,2.4,1.57,1.57,0,0,0,1.49,1.55,23.7,23.7,0,0,1,3.74.8,195.88,195.88,0,0,0,24.23,5.81,210.27,210.27,0,0,0,21.36,3c2.56.22,5.16.41,6.74,2.93a.68.68,0,0,0,.37.28,3.1,3.1,0,0,0,1.36.15c.55-.16.53-.74.35-1.2a13.61,13.61,0,0,0-.85-1.71,127.23,127.23,0,0,0-15-21.68A121.72,121.72,0,0,0,2019,331.26c-1.32-1.17-2.68-2.34-4.62-2.25a115.74,115.74,0,0,1-20.54-1.25C1992.25,327.56,1990.67,327.31,1989.09,327.08Zm17.36-3.32c-1.31-.55-2.59-1.19-3.93-1.64-6.52-2.2-13-4.54-19.59-6.49C1955.75,307.58,1928,302,1900.12,297q-20.07-3.54-40.29-6.24a32.42,32.42,0,0,0-3.81-.3,1.63,1.63,0,0,0-1.66,1.89c.08.47.25.92.35,1.39.65,3.12,2.18,5,5.71,5.33,5.72.6,11.38,1.74,17.06,2.68,20.83,3.44,41.5,7.75,62.22,11.76,17.27,3.34,34.46,7.08,51.89,9.53C1996.47,323.76,2001.35,324.74,2006.45,323.76ZM604.33,19a16.89,16.89,0,0,0-1.88-.78,132.39,132.39,0,0,0-23.68-3.32,171.87,171.87,0,0,0-39.07,2.79c-3.64.65-4.75,2.78-4.92,5.46a35.34,35.34,0,0,0,.45,9.07c.82,4,1.26,4.67,5.39,3.35,10.79-3.47,21.74-6.4,32.75-9.08C583.45,24,593.53,21.6,604.33,19ZM926.07,40.75c.83.46,1.07.71,1.31.72,6.55.24,13.1.62,19.65.64,18.07,0,36.13.44,54.19,1.3.79,0,1.59.06,2.39.13l31.54,2.54c9.72.79,19.39,2,29,3.42,11.4,1.66,22.67,4,34,6.18a342.09,342.09,0,0,1,64.15,19.47C1174,80,1185.45,85.28,1196.76,91c15,7.53,29.8,15.48,44.29,24,20.83,12.21,41.19,25.2,61.17,38.79q3.16,2.16,6.38,4.26a5.84,5.84,0,0,0,5.12,1.06c-.75-1.45-2.13-2-3.26-2.77-18.57-12.81-37.77-24.64-57-36.49-8.84-5.46-18-10.35-27.14-15.35-10.37-5.69-20.57-11.71-31.32-16.7-3.19-1.49-6.38-3-9.54-4.5-8.92-4.36-18.09-8.14-27.32-11.75a316.31,316.31,0,0,0-38.77-12.55c-11.64-2.91-23.4-5.21-35.17-7.5-20.26-3.94-40.78-6.07-61.34-7.71-9.71-.78-19.45-1.43-29.19-1.82-11.34-.45-22.69-.54-34-1-9.58-.37-19.19-.13-28.78-.16ZM1912.58,322h-.16v-2.87c0-1,0-1.92,0-2.88-.17-3-.65-3.55-3.49-4.31-.76-.21-1.56-.32-2.34-.46-4.39-.84-8.77-1.73-13.18-2.49-10.22-1.76-20.44-3.52-30.69-5.17-4.89-.78-4.77-.7-3.3,4.22a10.38,10.38,0,0,0,6,7c1.6.71,3.14,1.59,4.76,2.26,12.58,5.22,25.76,8.45,38.93,11.74a7.55,7.55,0,0,0,1.9.16,1.47,1.47,0,0,0,1.58-1.46C1912.63,325.81,1912.58,323.9,1912.58,322ZM1388.65,222c-.7-1.33-2.14-2.08-3.36-3q-14.51-11-29.07-22c-2.81-2.12-5.65-4.19-8.49-6.26-.48-.35-1.12-.86-1.63-.17-.23.3-.12.91-.06,1.37.15,1.19,1,1.91,1.79,2.74,3.8,4.2,4.29,8.64,1.54,13.61A23.32,23.32,0,0,1,1345,214c-1.86,1.75-3.83,3.39-5.7,5.12a1,1,0,0,0,.62,1.84c4.95.31,9.89.62,14.84.83,5.75.24,11.51.2,17.25.61,5.11.36,10.22.34,15.33.44A1.26,1.26,0,0,0,1388.65,222Zm687.89,179c.81-.77.37-1.37.21-1.93A153.39,153.39,0,0,0,2058,357.18a111.74,111.74,0,0,0-19.63-22.88,69,69,0,0,0-6-4.76c-2.41-1.7-5.48-1.6-8.41.11a14.8,14.8,0,0,0,1.21,1.47A127.66,127.66,0,0,1,2052.6,369a6.41,6.41,0,0,0,1.72,2.24c8.49,7.08,14.65,16,19.94,25.57C2075,398.17,2075.76,399.56,2076.54,401ZM965.26,206.39a6.79,6.79,0,0,0,4.25.89c8.15.2,16.3.4,24.45.88,12.12.71,24.28.93,36.42,1.35.8,0,1.61,0,2.4.09,10.82,1.18,21.72.57,32.57,1.46,7.64.63,15.33.4,23,.91,8.77.58,17.57.44,26.36,1,8,.52,16,.39,24,.91,8.61.57,17.25.44,25.87,1,8,.53,16,.4,24,.92,8.61.56,17.26.43,25.88,1,8,.53,16,.44,24,.92,11.49.68,23,.82,34.51,1.23,7.67.27,15.33.62,23,.89.64,0,1.51.42,2-.61a5.83,5.83,0,0,0-3.19-1c-4-.27-8-.63-12-.76-8.15-.27-16.3-.36-24.44-.89-8.45-.55-16.94-.42-25.4-1-8.13-.53-16.29-.41-24.44-.93-8.93-.56-17.89-.43-26.84-1-8-.52-16-.39-24-.92-8.44-.57-16.93-.42-25.39-1-8.29-.55-16.61-.42-24.92-1s-16.61-.41-24.92-1-16.61-.41-24.92-1-16.61-.48-24.91-.95c-12.61-.7-25.25-.86-37.87-1.29-8.31-.28-16.61-.65-24.92-.93C968.4,205.73,967,205.39,965.26,206.39Zm-423.35-9.3c15.25.88,30.44.77,45.61,1.5,12.92.62,25.88.31,38.83.89,15,.66,30,.35,45.06,1,13.09.6,26.21.3,39.32.89,14.84.66,29.72.38,44.58,1,12.93.58,25.89.32,38.83.87,15.17.64,30.37.41,45.55,1.07,12.29.54,24.61.35,36.91.84,16.13.64,32.29.44,48.43,1.1,9.74.4,19.5.33,29.25.38,1.47,0,3.08,1.21,4.45-.31-1-2.22-3-1.28-4.52-1.32-14.54-.36-29.09-.26-43.63-.86-16.93-.69-33.89-.35-50.83-1.05-14.37-.61-28.76-.3-43.15-.87-17.08-.68-34.2-.35-51.3-1.06-14.21-.59-28.44-.28-42.67-.86-17.09-.68-34.2-.35-51.3-1.06-13.89-.58-27.81-.31-41.71-.85-17.41-.67-34.85-.3-52.26-1.09-7.67-.35-15.35-.21-23-.27C550.19,197.07,546.05,197.09,541.91,197.09Zm1474.19,176c1.15.79,2.26.42,3.31.41a12.36,12.36,0,0,1,9.74,4.29c2.78,3.07,5.58,6.13,8.37,9.19a9.19,9.19,0,0,1,2.4,4.58c.37,2,.62,2.16,2.45,2.17q11.25.09,22.48,0c1.76,0,2.14-.91,1.12-2.52a76.87,76.87,0,0,0-10-12.76,34,34,0,0,1-4.13-4.62,4.28,4.28,0,0,0-4.05-1.93c-3.51.05-7,.14-10.52.07A173.13,173.13,0,0,0,2016.1,373.11ZM66.28,311.23A87.54,87.54,0,0,0,83,310.12a126.75,126.75,0,0,0,21.79-5.61,6.6,6.6,0,0,0,3.3-1.84c.85-1.12,2.48-2.23,2-3.62-.56-1.68-2.48-.71-3.81-.87a4.45,4.45,0,0,0-1,.05c-8.57,1.15-17.23.7-25.84,1.43-7,.6-14,.54-21.06,1.1-4,.31-4.55.78-5.16,4.77a17.49,17.49,0,0,0-.19,2.39c0,2.33.69,3.19,3.13,3.28C59.56,311.32,62.92,311.23,66.28,311.23ZM1439.94,207.8c3.5,3.21,6.47,4.76,10.24,4.41,1.91-.18,3.84-.17,5.75-.32q9.3-.75,18.61-1.55c4.93-.41,9.87-.82,14.8-1.28,2.7-.25,5.4-.57,8.09-.89.63-.08,1.37-.17,1.6-.86s-.36-1.16-.89-1.5c-3.52-2.2-7.13-4.27-10.56-6.61a8.33,8.33,0,0,0-8.09-1c-7.58,2.53-15.27,4.69-22.9,7C1451.53,206.82,1446.46,208.18,1439.94,207.8ZM506.55,55c3,1.95,5.67,2.58,8.15,3.63,2.78,1.17,5.86,1.85,8,4.13,1.25,1.31,2.43,1.16,3.88.59,5.79-2.28,11.6-4.51,17.4-6.77a5.77,5.77,0,0,0,1.3-.62c.34-.26.79-.68.79-1a1.47,1.47,0,0,0-.78-1c-4.25-1.83-8.58-3.5-12.77-5.45a9.64,9.64,0,0,0-8.26-.24c-4.28,1.75-8.68,3.21-13,4.82C509.93,53.48,508.64,54.08,506.55,55ZM258.1,162.5l.12.85c1.08.23,2.15.54,3.24.68,10.3,1.3,20.6,2.61,30.91,3.82a52.85,52.85,0,0,0,19-1.18,14.46,14.46,0,0,0,5.24-2.28c.24-.18.54-.47.55-.73,0-.58-.46-.78-.93-.81-3.19-.17-6.4-.16-9.57-.49-11.75-1.24-23.53-2.3-35.21-4.18a8.13,8.13,0,0,0-4.7.46ZM1992.37,539.26c8.23-.51,16.38-.57,24.53-.73,1.12,0,2.24-.06,3.35-.13,8.93-.57,17.86-1.1,26.79-1.75,3.18-.23,6.36-.64,9.51-1.16a39.91,39.91,0,0,0,11.84-4.76C2042.48,531.3,2017.12,532.75,1992.37,539.26ZM2043.66,321a22.93,22.93,0,0,1-2.42-1.49c-7-6-15-10.35-23.25-14.14a246.62,246.62,0,0,0-23.63-9.25c-16.35-5.53-33-10-49.77-14-.71-.18-1.58-.75-2.41.21,1.18.33,2.25.65,3.33.91q21.15,5.28,41.75,12.45a197.32,197.32,0,0,1,29.78,13.1c6.17,3.38,12.11,7.12,16.88,12.42a3.65,3.65,0,0,0,2.95,1.3A14,14,0,0,0,2043.66,321ZM74.13,439.42a29.1,29.1,0,0,0-7-3.44,118.82,118.82,0,0,0-25.5-6c-1.38-.17-2.86-.79-4.1.31-.75.67.23,2.92,1.9,4.53A10.39,10.39,0,0,0,43.05,437a17,17,0,0,0,4.68.83c6.18.54,12.35,1.14,18.54,1.65A26.28,26.28,0,0,0,74.13,439.42Zm1993.1-77-.66.51c.72,1.42,1.42,2.85,2.15,4.26a160.89,160.89,0,0,1,10.79,26.09,204.86,204.86,0,0,1,5.83,23.7c.09.52,0,1.4,1.22,1.14a115.54,115.54,0,0,0-.07-16.64c-.2-2.47-.18-4.77,2.07-6.36-6.71-6.28-8-7.89-12.06-15.49-.68-1.27-1.31-2.56-2-3.82Q2070.89,369.12,2067.23,362.43ZM1373.17,171.16a16,16,0,0,0,3.34,2.53l50,34.64c1.84,1.27,3.62,2.62,5.51,3.82s3.12,1.19,5.88-.12c-21.07-13.91-42.16-27.43-63.35-40.79C1374.2,171,1373.79,170.69,1373.17,171.16Zm-1307,28.36a44.59,44.59,0,0,1-10.34-12.47c-.59-1.1-1.71-1.19-2.9-.37a33.37,33.37,0,0,0-7.86,7.6,7.15,7.15,0,0,0-.81,1.72,1.8,1.8,0,0,0,1.33,2.57C52.15,200,58.76,199.89,66.17,199.52Zm1139-155a24.27,24.27,0,0,0-3.05.8c-6.37,2.56-12.66,5.29-18.75,8.46a7.39,7.39,0,0,0-.8.53.89.89,0,0,0,.13,1.55q2.79,1.36,5.63,2.64a2,2,0,0,0,2.54-.69c1.74-2.19,4.17-3.42,6.59-4.67a94.85,94.85,0,0,1,10.11-4.33c1.06-.4,3-.29,2.78-1.91-.17-1.29-2-1.43-3.11-1.92A13.22,13.22,0,0,0,1205.14,44.48Zm866,297.84c2.44,8.28,5.58,16.14,7.81,24.31,1.18,4.32,2.43,8.61,3.49,13a16.45,16.45,0,0,0,4.76,8.14,1,1,0,0,0,.86.14,1.07,1.07,0,0,0,.42-.75,2.31,2.31,0,0,0-.08-.94,136.29,136.29,0,0,0-12.57-35.59C2074.31,347.79,2072.67,345.07,2071.1,342.32ZM1398.84,223.1c-4.32-5-38.14-31.45-55.3-43.34-.48-.33-.92-.95-1.64-.4,1.31,2.69,1.31,2.7,3.46,4.29,16.82,12.42,33.67,24.8,50,37.84A5,5,0,0,0,1398.84,223.1Zm-98.57-13c4.15,2.15,8.12,4.2,13,4,3.06-.16,6-.25,8.72-1.9.65-.4,1.6-.62,1.41-1.62-.14-.71-.93-.76-1.55-.85-3-.45-6-.78-9-1.34-4-.75-7.91.1-11.82.79C1300.86,209.22,1300.7,209.62,1300.27,210.14ZM2019,377.83c-.17,0-.65,0-1.12,0-.63,0-1.33,0-1.61.74a1.57,1.57,0,0,0,.56,1.68c2.17,2.32,4.43,4.56,6.5,7,2.37,2.74,5.35,3.16,8.66,2.67a1,1,0,0,0,.7-1.72c-2.42-2.73-4.85-5.46-7.34-8.13A7.38,7.38,0,0,0,2019,377.83Zm-37.78-51.55c-3.32-1.49-6.08-1.4-8.69-2-3.09-.7-6.24-1.16-9.38-1.64-1.92-.29-2.56.32-2.7,2.33a17.19,17.19,0,0,0,0,2.38c.16,2.14.94,2.8,3.11,2.39C1969.13,328.7,1974.72,327.56,1981.17,326.28ZM38.14,507.09c.51,0,.83,0,1.14,0,.63-.06,1.39,0,1.52-.81a1.92,1.92,0,0,0-.47-1.26c-1.62-2.17-3.32-4.29-4.91-6.48s-3.09-4.46-4.59-6.72c-.55-.81-1-1.62-2.14-1.72-.64-.05-1.36-.09-1.72.54a2,2,0,0,0-.15,1.34,7.31,7.31,0,0,0,.76,1.75c1.9,3.5,3.87,7,5.72,10.51C34.39,506.32,36,507.33,38.14,507.09ZM1287.28,166.57c-1.57,1.85-1.94,4.09-2.33,6.21-.76,4.08-1.42,8.2-1.83,12.33a129.58,129.58,0,0,0-.51,17.73c.21,5,1.71,6.59,7.06,7.87-.14-.26-.2-.62-.42-.77-5.07-3.54-6.31-8.58-5.7-14.37.21-2.06.53-4.12.65-6.2a123.8,123.8,0,0,1,3-19.9C1287.37,168.61,1288.12,167.75,1287.28,166.57ZM39.76,440.43a18.13,18.13,0,0,1-7.22-8.26,8.69,8.69,0,0,0-1.33-2,2.65,2.65,0,0,0-3.12-.22,2.16,2.16,0,0,0-.62,2.6,13.49,13.49,0,0,0,4.92,6.33C34.22,440.27,36.26,441,39.76,440.43ZM1200.16,40.65c-.63-.07-1-.23-1.21-.13q-10.65,4.33-21.27,8.72a3.94,3.94,0,0,0-1.21.74,1,1,0,0,0-.14.85,1.1,1.1,0,0,0,.66.59c1,.28,1.83-.36,2.68-.74q8.73-4,17.43-8C1198.09,42.27,1199.25,42.07,1200.16,40.65ZM534.49,44c0,.64.45.85.88,1q8.58,3.57,17.16,7.12a7.08,7.08,0,0,0,1.83.43,1.06,1.06,0,0,0,.83-.33c.38-.5,0-.9-.41-1.07q-9.53-3.75-19.07-7.43A.94.94,0,0,0,534.49,44ZM27,485.64c3.72,0,5.44-1.55,5.79-5.07a1.8,1.8,0,0,0-2.14-1.92,3.57,3.57,0,0,0-1.35.43,12.21,12.21,0,0,0-4,5.2.83.83,0,0,0,.54,1.15A7.33,7.33,0,0,0,27,485.64Zm2048.2-1.56h-3.29l-38.78,0a.58.58,0,0,0-.41.2c-.38.51.65.14,0,.29C2041.49,485.13,2071.05,485,2075.18,484.08ZM847.12,42.2l.14-.3h-29.8v.3ZM21.91,500.4c0-.16.06-.36,0-.47-1.79-2.42-3.58-4.84-5.4-7.23a1.65,1.65,0,0,0-.82-.45c-.62-.16-1.35-.35-1.72.3a1.58,1.58,0,0,0,.29,1.28,26.5,26.5,0,0,0,4.87,5.84,8.87,8.87,0,0,0,2,1.15C21.32,500.89,21.65,500.55,21.91,500.4Zm1308.9-285.49c-.23-.18-.45-.49-.68-.5a9.21,9.21,0,0,0-2.35.1,24.37,24.37,0,0,0-6.9,3.06.9.9,0,0,0-.3.79.93.93,0,0,0,.64.55C1324.36,219.25,1327.4,218,1330.81,214.91ZM917.36,41.42v-.51H894.52a12.57,12.57,0,0,0-1.36.15v.35h24.19ZM1342,210a9.63,9.63,0,0,0,4.17-5.15,6.44,6.44,0,0,0,.45-3.75,1.32,1.32,0,0,0-.45-.77.49.49,0,0,0-.79.28C1344.39,203.79,1343.14,206.86,1342,210ZM2090.5,432.61c-.3,4.12-.54,8.25-1.17,12.34a4,4,0,0,0,0,1.43c.05.24.33.43.51.65.2-.2.59-.39.59-.59C2090.51,441.83,2090.5,437.22,2090.5,432.61ZM530.18,181l-.79.62c1.73,3.16,3.45,6.32,5.2,9.47.09.15.51.12.9.21a5,5,0,0,0-.29-1.33C533.55,186.93,531.86,184,530.18,181Zm1566,221.24c-.69.85-.88,1-.87,1.09q.42,6.61.86,13.22A90.93,90.93,0,0,0,2096.19,402.2Zm-1572-231.46a12.53,12.53,0,0,0,2.92,5.67A12.43,12.43,0,0,0,524.23,170.74Zm1067.85,66.91a21.25,21.25,0,0,0,7.91,0Zm21.14,1.36.23-.5c-1.09,0-2.18,0-3.26,0-.87.06-1.84-.46-2.73.48ZM12.81,428.78V429h5v-.25Zm2037.34-107.7c.09.13.16.33.26.35a3.32,3.32,0,0,0,2.54-1.67.47.47,0,0,0-.15-.37,3.27,3.27,0,0,0-1.32,0A1.83,1.83,0,0,0,2050.15,321.08ZM1036.52,40.25c0-.11,0-.22,0-.33h-5.13v.33Zm584.41,199.33v.29h5v-.29Zm392,236.56c-.6.23-1.09.59-.85,1.33a.91.91,0,0,0,.73.42c.67,0,1.2-.34,1.13-1.08C2013.9,476.32,2013.46,476.1,2012.93,476.14ZM1638.48,240.86v-.24h-4.2v.24Zm384.4,228.43a.88.88,0,0,0,1.06.64.85.85,0,0,0,.71-1,.83.83,0,0,0-1.05-.63A.88.88,0,0,0,2022.88,469.29ZM2010.63,495a1.18,1.18,0,0,0,1.29-.92c.09-.49-.3-.83-.81-.8a1,1,0,0,0-1.07,1.14C2010.05,494.6,2010.41,494.77,2010.63,495Zm19.89-30.65c-.23-.18-.45-.49-.68-.5a1.26,1.26,0,0,0-1.32,1.48.89.89,0,0,0,.66.51A1.32,1.32,0,0,0,2030.52,464.33Zm6.82,10.35a.9.9,0,0,0,1-.71.77.77,0,0,0-.43-.62.82.82,0,0,0-1,.68C2036.88,474.21,2037.19,474.47,2037.34,474.68ZM1650.55,241.54h-3.34A3.94,3.94,0,0,0,1650.55,241.54Zm11.08,1.2a3.32,3.32,0,0,0-2.64-.17A4.27,4.27,0,0,0,1661.63,242.74Zm356.48,238.62c-.21-.15-.45-.45-.64-.42a.78.78,0,0,0-.72.92.74.74,0,0,0,.61.42A.87.87,0,0,0,2018.11,481.36ZM1245.75,109.62a3,3,0,0,0-1.92-1.14.42.42,0,0,0-.21.34.53.53,0,0,0,.23.37c.39.24.81.45,1.22.67S1245.68,110,1245.75,109.62Zm-10-5.84c-1.16-.35-1.62-1.25-3.21-.72C1233.67,103.41,1234.12,104.33,1235.71,103.78ZM1045.26,41.33a2.55,2.55,0,0,0-2.92-.16Zm969.87,456.56c-.61.15-1.14.45-1.18,1.2a1,1,0,0,0,.76.23,2.44,2.44,0,0,0,1-.88C2015.87,498.17,2015.56,497.9,2015.13,497.89ZM2033,469.6c.21.15.44.45.64.42a.72.72,0,0,0,.68-.89.77.77,0,0,0-.6-.43A.82.82,0,0,0,2033,469.6ZM1406,221.81c-.13.06-.34.1-.36.19a.48.48,0,0,0,.12.42c.37.27.77.49,1.16.73,0-.14.16-.36.1-.41C1406.72,222.41,1406.36,222.12,1406,221.81Zm-19-15.25a1.58,1.58,0,0,0-1.28-1.08c-.06,0-.25.21-.23.28a1.5,1.5,0,0,0,1.26,1.08C1386.84,206.86,1386.94,206.66,1387,206.56ZM2021.38,487c.45,0,.9-.42.76-.84a.89.89,0,0,0-.58-.51.65.65,0,0,0-.75.8C2020.84,486.63,2021.18,486.79,2021.38,487Zm-4.35,3.29c-.15-.24-.25-.58-.47-.71a.57.57,0,0,0-.84.67,1,1,0,0,0,.65.55C2016.58,490.79,2016.81,490.45,2017,490.26ZM1674.09,243.65c-1.22-.15-1.65-.23-2.08-.23-.18,0-.36.18-.54.27a2.39,2.39,0,0,0,.45.09ZM1060.77,43.11c-.08-.16-.12-.33-.16-.33-.57,0-1.14,0-1.71.06.19.11.38.3.57.31A9.56,9.56,0,0,0,1060.77,43.11Zm-7.67-1.32c-.61,0-1.2,0-1.79,0a1.24,1.24,0,0,0-.06.27c.59,0,1.18.08,1.77.1A2,2,0,0,0,1053.1,41.79ZM1683,244.36l-.87.09c.18.09.36.28.53.27a10,10,0,0,0,1.2-.2Z"/><path d="M1882.82,502.79c.11,85-68.52,156.87-157,157.05a156.89,156.89,0,0,1-157.28-156.69c-.27-87.65,70.88-157.69,157.41-157.55C1811.6,345.74,1882.77,415.05,1882.82,502.79Zm-5.22.29a151.88,151.88,0,1,0-153.11,151.5C1811.5,655.14,1877.47,584.84,1877.6,503.08Z"/><path d="M475.6,669.7c-83.84.69-157-67.83-157-157.33,0-83.92,67.6-156.94,157.72-156.78C562.87,355.75,633,426,632.84,513.07S561.41,670.31,475.6,669.7Zm-.75-308.54a123,123,0,0,0-28.36,2.5,152,152,0,0,0-114.88,101,156.29,156.29,0,0,0-7.13,34.21,146.27,146.27,0,0,0,.51,32.54,149.51,149.51,0,0,0,8.54,34.87,151.68,151.68,0,0,0,33.19,52.3,152.75,152.75,0,0,0,97.34,45.63,152.35,152.35,0,0,0,146.47-81.51A152.39,152.39,0,0,0,627,525.91a150.71,150.71,0,0,0-.58-32.07,145,145,0,0,0-9.49-37.08q-21.78-53.61-73.3-79.87A142.55,142.55,0,0,0,474.85,361.16Z"/><path d="M1524.84,336.23c9.4.65,18.82.7,28.24.88a17.73,17.73,0,0,1,5.64,1c3.07,1.1,3.87,3.48,1.84,5.95-4.69,5.71-10.35,9.46-18.2,8.55-8.72-1-17.46-1.84-26.06-3.67a29.87,29.87,0,0,1-5.45-1.76,4.7,4.7,0,0,1-3-4.49,5.25,5.25,0,0,1,2.89-4.64,10,10,0,0,1,3.62-1.17A69.78,69.78,0,0,1,1524.84,336.23Zm9.39,5.06V341c-3.82,0-7.64,0-11.46,0-2.55,0-5.1,0-7.64.18-1.39.07-2.2.77-2.09,1.48.16,1,1,1.18,1.7,1.45a11.64,11.64,0,0,0,1.85.46c8.9,1.86,17.94,2.73,27,3.72,4.24.46,7.8-1.13,10.81-4.06a5.39,5.39,0,0,0,.6-.74,1.25,1.25,0,0,0-.68-1.91,21.68,21.68,0,0,0-3.31-.31C1545.38,341.28,1539.81,341.29,1534.23,341.29Z"/><path d="M1876.16,502.81c.83,80.73-65.93,150.68-150.89,150.55-81.7-.14-150.52-67.11-150.19-151.42.31-81.91,67.64-149.84,150.81-149.83C1807.84,352.13,1876.79,419.5,1876.16,502.81Zm-2.25.24c.93-81.75-67-148.66-147.88-148.71-82.11,0-148.33,66.88-148.69,147.57-.36,82.61,66.86,149.07,148,149.17C1809.09,651.18,1874.58,582.42,1873.91,503.05Z"/><path d="M325.19,512.82C324.53,432.36,389.9,362.05,476,362.13c84.26.07,150.41,68.81,150.36,150.75C626.28,592,563.2,662.54,475.67,663.53,389.48,662.61,324.82,593.26,325.19,512.82ZM475.75,660.94c5.27-.21,10.57-.12,15.81-.69A148.52,148.52,0,0,0,612,571.45a144,144,0,0,0,11.68-47.75,153.48,153.48,0,0,0-.61-28.26,148.66,148.66,0,0,0-84.68-117.27,149.93,149.93,0,0,0-49.79-13.25,144.19,144.19,0,0,0-31.57.59,145.71,145.71,0,0,0-54.28,18,148.19,148.19,0,0,0-53.33,51.34,146.26,146.26,0,0,0-21.59,65.44,144.7,144.7,0,0,0,1,34,149.07,149.07,0,0,0,77.3,109.54C427.91,655.27,451,661.33,475.75,660.94Z"/><path d="M1869.43,502.79c.55,76.27-62.08,143.08-143.54,142.69-40-.2-74.31-15-102.2-43.61-26.91-27.64-40.39-61.34-40.33-99.75.07-39.17,14.3-73.26,42.11-100.95s62.15-42,101.56-41.8C1807.39,359.79,1870.13,425.37,1869.43,502.79Zm-283.55-.55c-1,76.78,62.24,140.76,139.78,141,80.54.28,141.44-65.35,141.65-140.36.21-75.42-60.31-141.34-140.74-141.29C1643.86,361.68,1584.87,429.62,1585.88,502.24Z"/><path d="M477.46,655.28a136.58,136.58,0,0,1-69.11-17,141.67,141.67,0,0,1-54.5-52.11,139.94,139.94,0,0,1-19.18-54.85,126.4,126.4,0,0,1-1.41-19.59,153.65,153.65,0,0,1,3.43-30,143.25,143.25,0,0,1,69.59-93.95,138.68,138.68,0,0,1,53.46-17.38c36.87-4,70.51,4.56,100.65,26.23,24.1,17.31,40.94,40.19,51,68.06a141.52,141.52,0,0,1,7.27,31.72,141.93,141.93,0,0,1-11.53,74.48,144.08,144.08,0,0,1-31.94,45.16A142.24,142.24,0,0,1,545,638a143.76,143.76,0,0,1-45.12,15.61A123.11,123.11,0,0,1,477.46,655.28Zm-1.3-2.12c77.61.91,140.74-63.29,141.13-139.84.4-78.44-63.63-142.1-140.78-141.57-38.65.26-71.9,13.74-99.3,41s-40.82,60.94-41.76,99.58c1,38.39,13.82,71.92,41.2,99.32S437.42,652.7,476.16,653.16Z"/><path d="M1850.37,502.71c-.21,34.09-12.23,63.46-36.21,87.61-24.15,24.33-54,36.53-88.05,36.5-33.94,0-63.42-12.4-87.53-36.55s-36.31-53.59-36.33-87.59a123.7,123.7,0,0,1,124.33-124.11C1797.13,378.68,1851,436.37,1850.37,502.71Zm-136.77-56c-.08-1.83-.17-3.67-.26-5.5a8,8,0,0,0,.3,5.47c.11,3.64-.15,7.3.61,10.9,0,.08.28.1.78.26A39.31,39.31,0,0,0,1713.6,446.66Zm17.28-8.64-.27-10.25c-.08,3.42-.92,6.87.31,10.22,0,4.14,0,8.29.11,12.43,0,1.91.14,3.82.27,5.72,0,.19.43.51.64.49s.44-.36.53-.61a2.3,2.3,0,0,0,.11-.94q-.66-8.08-1.35-16.17A3.5,3.5,0,0,0,1730.88,438Zm-28.73,102.71-.06-.05a11.64,11.64,0,0,0,3.84,2.79c6.9,3.85,14.31,5.17,22.16,5a43,43,0,0,0,22.23-6.61,10.71,10.71,0,0,0,3.61-3.08l1.13-1.07a6.8,6.8,0,0,0,3.1-2.17,45.38,45.38,0,0,0,10.58-18.06c2.15-7,1.88-14.22,1-21.4-.13-1-.1-2.27-1.45-2.95-.66,1.05-1.22,2.17-2,3.14a8,8,0,0,1-8.54,3A8.12,8.12,0,0,1,1752,490a8.29,8.29,0,0,1,9.3-6.43c1.07.13,2.38,1.32,3.11.37.91-1.18-.53-2.26-1.11-3.32a14.76,14.76,0,0,0-1.37-2,43.81,43.81,0,1,0-66.15,57.11C1697.68,537.69,1699.47,539.79,1702.15,540.73Zm25,63.15c3.85.33,9.08-.57,14.28-1.26a82.45,82.45,0,0,0,18.51-4.7c2.36-.91,2.81-1.93,1.65-4-3.88-7-7.55-14.06-11.94-20.74a26,26,0,0,0-5-5.72,18,18,0,0,0-11.81-4.53c-8.51,0-15.59,3.06-20.66,10-5.41,7.44-8.79,15.88-11.67,24.54a5.93,5.93,0,0,0-.2.93,1.82,1.82,0,0,0,1.33,2.22,28,28,0,0,0,3.7,1A113.61,113.61,0,0,0,1727.11,603.88Zm20-173,.32,0c0,1.91-.15,3.84,0,5.74.81,8.23,5.08,14,12.77,17,6.81,2.67,13.6,2.9,20.43-.28a116.36,116.36,0,0,0,20.11-12,11.42,11.42,0,0,0,1.44-1.25,1.29,1.29,0,0,0,.17-1.74,9.51,9.51,0,0,0-.89-1.12,100.27,100.27,0,0,0-47.41-30.2,20.54,20.54,0,0,0-2.8-.61,1.53,1.53,0,0,0-1.92,1.58C1748.62,415.61,1747.89,423.23,1747.15,430.85Zm79.46,73.43c0-.62,0-1.73,0-2.85-.12-4.06-.47-4.44-4.58-3.64-6.74,1.32-13.45,2.79-20.15,4.28a28.47,28.47,0,0,0-5,1.66c-8.33,3.57-12.61,9.94-12.95,19-.26,7.26,2.33,13.42,7.13,18.76a111.58,111.58,0,0,0,15.25,13.82c3.76,2.88,4,2.8,6.47-1.22l.49-.83C1821.9,538.25,1826.11,522,1826.61,504.28Zm-131.26-65.49c-.08-8.06-1.94-15-4-21.87-2.33-7.59-1.85-7.2-9-3.76a100,100,0,0,0-39.6,34.51,10.44,10.44,0,0,0-1,1.65,1.4,1.4,0,0,0,.7,2c.28.15.55.33.84.45,7.24,2.95,14.48,5.92,21.73,8.83a25.66,25.66,0,0,0,9.41,1.42,18,18,0,0,0,14.31-6.57C1693.09,450.48,1695.82,444.82,1695.35,438.79Zm-58.58,71.15h-4.32c-5.94,0-6.63.8-5.77,6.81a101.38,101.38,0,0,0,20.39,48.54,13.54,13.54,0,0,0,1.61,1.77,1.22,1.22,0,0,0,1.73-.06,18,18,0,0,0,1.65-1.73c4.7-5.66,9.42-11.31,14-17a26.4,26.4,0,0,0,2.78-4.48c3.81-7.31,3.42-14.42-1.11-21.33a24.45,24.45,0,0,0-17.17-11.14A78.29,78.29,0,0,0,1636.77,509.94Zm65.08-60.05c.31-7.21-.58-14.38-.63-21.57-.08-11.52-.12-23-.19-34.56,0-1.12-.06-2.24-.14-3.35a1.22,1.22,0,0,0-.43-.79,1,1,0,0,0-1.29.22q-4.44,4-8.86,8.07a2.6,2.6,0,0,0-.74,3c.23.6.41,1.22.61,1.83,1.94,6.09,4,12.15,5.78,18.28a67.27,67.27,0,0,1,2.7,17,27.08,27.08,0,0,1-6.28,18.18c-5.73,7.24-13.21,10.3-22.42,8.92a38.35,38.35,0,0,1-8.74-2.51q-8.91-3.59-17.77-7.27c-3.84-1.59-7.67-3.2-11.48-4.88a3.94,3.94,0,0,0-4.08.31c-3.05,2.05-6.11,4.09-9.15,6.15a1.92,1.92,0,0,0-.63.7.74.74,0,0,0,.38,1.16,35.87,35.87,0,0,0,3.7,1c7.54,1.47,15.08,2.91,22.61,4.37,14.6,2.83,29.21,5.62,43.79,8.54a5.19,5.19,0,0,0,5.22-1.34,64.23,64.23,0,0,1,5.82-5,5.22,5.22,0,0,0,2.24-4.51C1701.82,457.89,1701.85,453.89,1701.85,449.89Zm-92.46,43.82a92.6,92.6,0,0,0,5.54,11.51,3.33,3.33,0,0,0,2.83,1.52c1.28,0,2.56.09,3.84,0,2.71-.15,5.42-.36,8.13-.56,4-.28,8,.54,12,.65a67.84,67.84,0,0,1,10.91,1.49c8.26,1.56,14.18,6.43,18.59,13.27a22.11,22.11,0,0,1,2.58,19.3,30.48,30.48,0,0,1-5.77,10.42c-3.35,4.08-6.7,8.15-10.1,12.19s-7,8.33-10.59,12.4a5.78,5.78,0,0,0-1.34,5.76c.7,2.63,1.3,5.28,2.09,7.88.29,1,.18,2.56,1.62,2.6,1,0,1.31-1.28,1.77-2.09q14.17-25.05,28.31-50.13c1.65-2.92,3.27-5.86,4.91-8.79A4.22,4.22,0,0,0,1685,527a62.31,62.31,0,0,1-4.33-11.68,3.22,3.22,0,0,0-2.2-2.33c-.75-.26-1.5-.53-2.27-.75q-32.06-9.16-64.12-18.27C1611.25,493.75,1610.37,493.09,1609.39,493.71Zm169.09,110.21v-.25c1.92,0,3.84.05,5.75,0a7.8,7.8,0,0,0,2.32-.52,1,1,0,0,0,.52-1.54,14.92,14.92,0,0,0-1.54-1.83q-17.1-18.12-34.21-36.26-5.08-5.4-10.12-10.87a4.73,4.73,0,0,0-4.68-1.59c-4.72.78-9.46,1.69-14.28.84a3.32,3.32,0,0,0-3.31,1.5c-.5.63-1,1.28-1.43,1.93q-17.82,25.56-35.63,51.12a25.35,25.35,0,0,0-1.52,2.43,1.05,1.05,0,0,0,1.06,1.59c2.22-.24,4.42-.7,6.64-.83,3.25-.19,5.27-1.5,6.24-4.82,1.25-4.28,2.93-8.44,4.47-12.64a105.84,105.84,0,0,1,9.32-19.4A27.39,27.39,0,0,1,1723.31,561c11-3.64,20.74-.56,27.75,8.44a52.41,52.41,0,0,1,4.16,6.44c3.78,6.67,7.47,13.39,11.2,20.09,1.09,1.95,2.22,3.88,3.31,5.84a3.73,3.73,0,0,0,3.48,2.12Zm-6.28-144.78a36.19,36.19,0,0,1-14.93-3.14,22.7,22.7,0,0,1-12.72-16.44,32,32,0,0,1-.47-5.71c-.2-7.69.86-15.3,1.54-22.94.36-4.13.88-8.25,1.34-12.38a5.82,5.82,0,0,0-2.08-5.55c-2.47-2-4.88-4.12-7.34-6.16a.94.94,0,0,0-1.29-.06,1.19,1.19,0,0,0-.3.87c.4,3.65.79,7.3,1.28,10.94q2.67,19.69,5.4,39.39c1,7,2,13.91,2.84,20.88a5,5,0,0,0,2.81,4.11,54.25,54.25,0,0,1,6.47,4.09,5.12,5.12,0,0,0,5.8.64c.43-.2.9-.33,1.35-.49l51.38-18.58q5.4-2,10.8-3.94c.59-.21,1.31-.36,1.46-1.07s-.47-1.11-1-1.42c-2.79-1.56-5.61-3.07-8.37-4.68a3.89,3.89,0,0,0-4.84.28c-3.42,2.61-7,5.07-10.46,7.61a105.18,105.18,0,0,1-18.63,10.8C1778.58,457.84,1774.8,459.12,1772.2,459.14Zm42.45,119.62c1.38-2.81,1.25-5.72,1.75-8.49a4.18,4.18,0,0,0-1.81-4.56c-2.84-2.07-5.62-4.23-8.42-6.35a121,121,0,0,1-18.72-17.1,27.71,27.71,0,0,1-6.64-22.28c1-8.56,5.4-14.94,13.31-18.61a47.68,47.68,0,0,1,7.67-2.67c3.55-.93,7.17-1.63,10.77-2.37,6.41-1.31,12.82-2.69,19.27-3.79,3.1-.52,4.84-2,5.59-5,.62-2.47,1.65-4.84,2.37-7.29.35-1.18,1.5-2.68.56-3.56-1.22-1.16-2.62.29-3.84.86q-20.87,9.68-41.71,19.44c-5.93,2.77-11.83,5.61-17.79,8.34a5.35,5.35,0,0,0-3.43,4.77,39.75,39.75,0,0,1-2.44,10.72,4.19,4.19,0,0,0,.67,4.46c1.11,1.36,2.16,2.77,3.25,4.15l16.37,20.67c6.64,8.4,13.26,16.81,19.94,25.18C1812.32,576.48,1813.09,577.92,1814.65,578.76Zm-137.28-82.17c2.23.12,2.85-.24,3.24-1.55.59-2,1.15-4,1.66-6,.42-1.65.06-2.44-1.41-3.05a29.52,29.52,0,0,0-3.17-1.07q-12.37-3.66-24.77-7.28c-4.89-1.43-9.77-2.9-14.68-4.29-2-.56-2.73-.25-3.43,1.49a44.33,44.33,0,0,0-2.92,11.55,1.84,1.84,0,0,0,1.53,2.11c1.55.36,3.12.69,4.68,1q15.29,2.81,30.56,5.58C1671.8,495.63,1674.94,496.17,1677.37,496.59Zm27.53,51.48a1.92,1.92,0,0,0-1-1.9c-2.12-1.43-4.25-2.83-6.37-4.26a1.7,1.7,0,0,0-2.53.31c-.8,1-1.5,2.07-2.22,3.13q-7.56,11.08-15.11,22.18c-2.51,3.7-5,7.4-7.48,11.14-1.58,2.42-1.48,2.88,1,4.64,2.08,1.48,4.22,2.89,6.39,4.23,3,1.86,3.55,1.71,5.33-1.14.34-.55.64-1.11,1-1.66q6.27-10.77,12.53-21.54,3.72-6.44,7.41-12.88C1704.29,549.5,1704.64,548.62,1704.9,548.07ZM1816.63,473a12.7,12.7,0,0,0-.45-1.51c-1-2.35-1.93-4.73-3.07-7-1.58-3.17-2-3.28-5.17-2-.3.12-.58.27-.87.4q-17.11,7.39-34.23,14.8c-1.31.56-2.61,1.18-3.88,1.85a1.74,1.74,0,0,0-.89,2.41c1.1,2.48,2.25,4.93,3.42,7.37a1.75,1.75,0,0,0,2,1,14.31,14.31,0,0,0,2.29-.68q18.86-6.88,37.71-13.8a15.8,15.8,0,0,0,2.19-1A1.87,1.87,0,0,0,1816.63,473Zm-32.49,107.59a8.82,8.82,0,0,0,1.71-.86c1.84-1.53,3.72-3,5.41-4.72,3.2-3.19,3.18-3.51,0-7q-11.88-13.19-23.81-26.33c-1.29-1.42-2.65-2.78-4-4.14a1.69,1.69,0,0,0-2.56-.06c-1.55,1.39-3.06,2.81-4.59,4.22-2.2,2-2.26,2.51-.62,4.78.18.26.39.51.59.76q12.26,15.38,24.52,30.76a15.51,15.51,0,0,0,2,2.1A4,4,0,0,0,1784.14,580.54ZM1728,443h-.12q-.51-15.3-1-30.6a13.55,13.55,0,0,0-.09-1.43c-.22-1.62-.86-2.32-2.41-2.46-3.54-.32-7,.38-10.44,1a1.56,1.56,0,0,0-1.27,1.77c0,1.43.11,2.87.28,4.29.61,5.07,1.27,10.13,1.91,15.19,1,7.91,1.94,15.82,3,23.73.34,2.59,1.22,3.34,3.71,3.42a28.77,28.77,0,0,0,3.35-.09c2.37-.2,3-.83,3.1-3.34C1728.05,450.68,1728,446.85,1728,443Zm23.32-53.13c0,2.34.44,3,2.47,3.72,1.36.46,2.75.8,4.13,1.21a113.38,113.38,0,0,1,53.68,34.4c.42.48.8,1,1.26,1.44a1.68,1.68,0,0,0,2.18.27,24.11,24.11,0,0,0,2.36-1.63,1.64,1.64,0,0,0,.44-2.49c-.38-.52-.82-1-1.23-1.47a105.71,105.71,0,0,0-11.75-11.91,118.53,118.53,0,0,0-48.1-25.73,24.51,24.51,0,0,0-3.29-.64,1.74,1.74,0,0,0-2,1.59C1751.37,389.12,1751.34,389.6,1751.31,389.89Zm-123.17,54.94a2.14,2.14,0,0,0,1.71-.95c.72-1.06,1.43-2.11,2.14-3.18a112.2,112.2,0,0,1,12.89-16,113.72,113.72,0,0,1,35.95-25c.88-.39,1.74-.8,2.58-1.25a1.75,1.75,0,0,0,.94-1.56c.12-3.4-1.65-4.73-4.75-3.57-.59.22-1.17.49-1.75.76a118.38,118.38,0,0,0-52.28,45.58,20.24,20.24,0,0,0-1.18,2.08,1.34,1.34,0,0,0,.37,1.71A6.21,6.21,0,0,0,1628.14,444.83Zm216.78,60.63c0-3,.07-6.07,0-9.1-.05-1.5-.81-2.2-2-2.29a2.82,2.82,0,0,0-3.27,2.13,13,13,0,0,0-.22,2.85,142.33,142.33,0,0,1-.65,15.31,111.39,111.39,0,0,1-13.29,43.21c-1.23,2.24-2.59,4.41-3.84,6.64a2,2,0,0,0,.44,3c2,1.89,2.83,1.8,4.46-.61,1-1.46,1.94-2.94,2.81-4.47A114.65,114.65,0,0,0,1844.92,505.46ZM1726,613.42c3.53.15,7-.47,10.49-.73a102.84,102.84,0,0,0,27-6,13.59,13.59,0,0,0,2.6-1.19,1.63,1.63,0,0,0,.67-1.18c.09-2.07-2.09-4.12-4-3.72-1.56.33-3.06.91-4.57,1.39-17.87,5.68-36,6.8-54.29,2.63-1.25-.29-2.5-.55-3.75-.8a2,2,0,0,0-2.37,1.14c-1.64,3.5-1.14,4.27,2.18,5.15.15,0,.3.1.46.13A129.69,129.69,0,0,0,1726,613.42Zm110.1-109.33a18.9,18.9,0,0,0-.53-6.17,2.42,2.42,0,0,0-2.81-2c-1.53.11-2.49.81-2.67,2.25a26.81,26.81,0,0,0-.18,4.3,92.4,92.4,0,0,1-1.26,16.7A103.48,103.48,0,0,1,1815.52,556c-.56,1-1.16,1.91-1.69,2.89a1.75,1.75,0,0,0,0,1.83c1.79,2.82,4.09,2.93,5.88.28.45-.67.86-1.35,1.27-2A111.06,111.06,0,0,0,1836.11,504.09Zm-219.24,10c.05.78.06,1.26.13,1.73.27,1.89.56,3.79.86,5.68a108.61,108.61,0,0,0,22.57,50.6,13.71,13.71,0,0,0,2,2.05,1.31,1.31,0,0,0,1.76,0,11.67,11.67,0,0,0,1.64-1.73c1-1.33,1-2,0-3.46-.36-.52-.79-1-1.18-1.5a102.15,102.15,0,0,1-21.56-53.44,10.91,10.91,0,0,0-.28-1.89,2.52,2.52,0,0,0-2-1.87c-2.55-.6-3.94.51-4,3.18Zm136.66-117.07c-2.1-.14-3,.58-3.16,2.1-.27,2.26.32,3.26,2.41,4,.75.27,1.52.48,2.29.71a104.17,104.17,0,0,1,47.8,29.74c.65.7,1.29,1.41,2,2.1a2.15,2.15,0,0,0,3,.38,15.88,15.88,0,0,0,2.25-1.74,1.42,1.42,0,0,0,.21-1.29,9.33,9.33,0,0,0-1.41-1.91,109.78,109.78,0,0,0-52.21-33.27C1755.46,397.55,1754.23,397.25,1753.53,397.06Zm-66.23,8.36a11.87,11.87,0,0,0-.26-1.21c-.65-2.08-1.63-2.69-3.55-1.89-3,1.24-5.9,2.5-8.71,4A111,111,0,0,0,1644,430.49a99,99,0,0,0-10.6,14.19c-1,1.58-.73,2.32.77,3.07,2.94,1.48,3.55,1.32,5.5-1.42.19-.26.37-.52.54-.79,10.9-16.42,25.6-28.36,43.35-36.68.87-.41,1.75-.8,2.58-1.27A2.27,2.27,0,0,0,1687.3,405.42Zm-76.64,104.89a2.25,2.25,0,0,0-2.44,2.37,29.49,29.49,0,0,0,.19,4.79,118.55,118.55,0,0,0,13.83,42.64,107.45,107.45,0,0,0,12.44,18.2,18.79,18.79,0,0,0,2.36,2.36,1.43,1.43,0,0,0,1.32,0c1.84-1.1,2.24-2.71,1.08-4.42-.72-1.06-1.57-2-2.36-3a111.91,111.91,0,0,1-21.76-47,97.31,97.31,0,0,1-1.89-13.29C1613.31,511,1612.38,510.23,1610.66,510.31Zm114.56,111a115.9,115.9,0,0,0,40.34-6.4,35.32,35.32,0,0,0,4-1.65c1.15-.58,1.38-1.59.83-2.85-.65-1.5-1.45-1.93-3-1.49-1.07.3-2.11.73-3.16,1.1a117.87,117.87,0,0,1-34.21,6.55,112.39,112.39,0,0,1-29.46-2.93,26.88,26.88,0,0,0-3.76-.65,2.46,2.46,0,0,0-2.52,2.38c-.18,1.18.55,1.75,1.55,2.05s2.15.61,3.24.87A100,100,0,0,0,1725.22,621.35Zm-21.14-198.24h.18c0,2.87,0,5.75,0,8.63q0,11.76.1,23.51a17,17,0,0,0,.67,5.68c.31.85.92,1.36,1.83,1.08a19.75,19.75,0,0,0,2.66-1.08,2.87,2.87,0,0,0,1.69-3.13c-.33-4.78-.61-9.57-1-14.35-.49-6.53-1.07-13.06-1.53-19.59s-.66-13.09-1.27-19.61c-.39-4.31-.69-8.61-.85-12.92a27.36,27.36,0,0,0-.25-2.86,3.87,3.87,0,0,0-.49-1.34.78.78,0,0,0-1.44.06c-.59,1.37-.34,2.83-.34,4.26Q1704.06,407.28,1704.08,423.11Zm26.1-35.05h.1q1,13.37,2,26.74,1.35,17.67,2.77,35.33a58.62,58.62,0,0,0,1,7.1c.29,1.41,3,2.55,4.83,2.26.93-.14,1.42-1.3,1.32-3.24,0-.8-.13-1.59-.24-2.38q-3.8-28-7.62-56c-.54-3.95-1.19-7.89-1.82-11.83-.13-.81-.48-1.61-1.51-1.42-.79.14-.79.9-.82,1.53S1730.18,387.42,1730.18,388.06Zm-105.07,99c2.17.19,2.9-.26,3.36-1.89q1.53-5.51,3-11.05c.45-1.74,0-2.7-1.84-3.27-4.7-1.47-9.44-2.82-14.19-4.16-1.42-.39-2.14,0-2.64,1.3a68.67,68.67,0,0,0-3.33,13.39,2.51,2.51,0,0,0,2.22,3.14C1616.31,485.49,1621,486.31,1625.11,487.08Zm168.47,113.14a3.13,3.13,0,0,0-1.09-2.68c-3.48-4-7-7.89-10.49-11.84-6.46-7.3-12.89-14.62-19.36-21.91q-6.36-7.18-12.79-14.29c-1.86-2-2.43-2.07-5-1-1.62.69-1.87,1.57-.67,2.92q4,4.47,8.09,8.84c3.72,4,7.5,7.87,11.23,11.82q12.82,13.59,25.65,27.2a13.78,13.78,0,0,0,2.19,1.84A1.78,1.78,0,0,0,1793.58,600.22Zm-66.93-199.34c-.7-4.18-.5-8.81-.67-13.41a10.92,10.92,0,0,0-.18-1.9,1.9,1.9,0,0,0-2-1.73c-4.13.24-8.25.53-12.36.94-1.44.15-2.12,1.21-2,2.77.53,4.91,1.13,9.8,1.72,14.69a10.9,10.9,0,0,0,.5,1.84,2.26,2.26,0,0,0,2.46,1.81c3.49-.27,7-.56,10.45-.91,1.27-.13,1.88-.92,2-2.27C1726.69,402.24,1726.65,401.76,1726.65,400.88Zm114.15,70.2c-.17-.87-.61-1.47-1.28-1.35a16,16,0,0,0-3.15,1q-29.1,12.41-58.19,24.85a27.91,27.91,0,0,0-3,1.45c-1.66,1-2,2.55-1,4.56.51,1,1.41,1.13,3.36.31.58-.24,1.15-.54,1.73-.81,6.23-2.9,12.47-5.78,18.69-8.69q19.54-9.13,39.06-18.31a22,22,0,0,0,3.26-2C1840.61,472,1840.68,471.37,1840.8,471.08Zm-1.93-5.94a2.65,2.65,0,0,0,0-.67,54.14,54.14,0,0,0-4.72-11.5,1.88,1.88,0,0,0-2.53-.72c-5,2.11-10,4.23-15,6.44-1.55.68-1.78,1.52-1.09,3.11q2,4.62,4.11,9.19c.69,1.53,1.37,1.91,3.08,1.31,4.82-1.71,9.6-3.52,14.38-5.31a3.2,3.2,0,0,0,1.19-.78A4.11,4.11,0,0,0,1838.87,465.14Zm-228.12,23c-.43,0-.59,0-.75.08-.5.09-1,.3-.94.86a1.58,1.58,0,0,0,.72,1.08,25.18,25.18,0,0,0,3.17,1.08L1675.06,509a14.86,14.86,0,0,0,2.79.57,1.57,1.57,0,0,0,1.72-1.34c.53-2.33-.22-3.66-2.51-4.4-1.06-.34-2.16-.56-3.24-.82l-60.53-14.32C1612.37,488.45,1611.42,488.3,1610.75,488.16Zm77.73-11.66c-.17-.25-.3-.65-.54-.73a32.65,32.65,0,0,0-3.67-1q-16.9-3.33-33.82-6.6-14.81-2.88-29.61-5.73c-1.56-.3-3.14-.46-4.72-.62-.18,0-.53.38-.57.62s.11.73.3.8a39.34,39.34,0,0,0,4.06,1.34c5.89,1.46,11.79,2.84,17.68,4.3q21.62,5.34,43.21,10.73c1.24.31,2.48.63,3.74.82C1686.22,480.67,1688.68,478.17,1688.48,476.5Zm108.24,98a8.73,8.73,0,0,0-1.15.92,46.3,46.3,0,0,1-7.41,6.72,7.41,7.41,0,0,0-1.05,1,1.56,1.56,0,0,0-.26,2.16q4.56,5.81,9.21,11.56a1.72,1.72,0,0,0,2.55.21,55.51,55.51,0,0,0,8.65-7.47c1.42-1.54,1.45-2.56,0-4.19-3-3.46-6.19-6.84-9.33-10.22A4.77,4.77,0,0,0,1796.72,574.5Zm-118.15,18.69a2.17,2.17,0,0,0-1-1.68q-4.79-3.19-9.61-6.32a1.7,1.7,0,0,0-2.49.63c-2.66,3.79-5.3,7.6-7.87,11.46-.78,1.16-.57,1.8.75,2.83a76.65,76.65,0,0,0,10.15,6.35c1.52.83,2.36.63,3.22-.82,2.21-3.7,4.34-7.46,6.47-11.21A5.32,5.32,0,0,0,1678.57,593.19Zm152.06-146c-.16-.76-.56-1-1.06-1-1.49-.12-2.8.59-4.13,1.07q-30.2,10.93-60.37,21.9c-1.19.44-2.38.9-3.54,1.43a1.24,1.24,0,0,0-.26,2,3.38,3.38,0,0,0,4.22,1.26l2.68-1.06q9.15-3.59,18.29-7.17l39.66-15.69c1.34-.53,2.66-1.1,3.93-1.75C1830.38,447.94,1830.51,447.37,1830.63,447.15ZM1690.4,535.92c-.22-.63-.34-1.09-.54-1.52-.93-1.9-2.42-2-3.58-.22-.69,1.07-1.31,2.19-1.94,3.3q-15,26.67-30.06,53.35a30.92,30.92,0,0,0-1.5,3,1.15,1.15,0,0,0,.44,1.63,1,1,0,0,0,1.25-.44c.82-1.17,1.63-2.36,2.38-3.58q15.06-24.43,30.08-48.9c.92-1.49,1.84-3,2.68-4.53A15.06,15.06,0,0,0,1690.4,535.92Zm78.51-8.5a1.54,1.54,0,0,0-.43.2c-1.67,1.65-2.25,3.36-.81,5,.42.48.82,1,1.23,1.46q20.34,23.55,40.69,47.08a14.78,14.78,0,0,0,2.14,1.88.86.86,0,0,0,.82-.14.91.91,0,0,0,.21-.83,32.21,32.21,0,0,0-2.1-3.17q-19.29-24.4-38.63-48.79a30.68,30.68,0,0,0-2.23-2.47C1769.61,527.47,1769.21,527.49,1768.91,527.42ZM1716,552c-.33-.49-.49-1-.84-1.22-1.85-1.07-3.32-.79-4.52,1-1.52,2.25-2.91,4.58-4.38,6.87q-14.85,23.25-29.69,46.49a25.24,25.24,0,0,0-1.57,3,.91.91,0,0,0,.3.81.88.88,0,0,0,.86,0c2-1.63,3.27-3.9,4.73-6q10.88-15.51,21.68-31.08,5.88-8.46,11.74-17C1714.91,554,1715.41,553,1716,552Zm43.8-65a4.38,4.38,0,0,0-4.52,4.46,4.77,4.77,0,0,0,4.45,4.67,4.46,4.46,0,0,0,4.67-4.79A4.28,4.28,0,0,0,1759.78,487.07ZM1825.59,439l.68-.74c-1.13-1.67-2.2-3.39-3.42-5-1.53-2-2.65-2.05-4.69-.33a1.09,1.09,0,0,0,.12,1.93C1820.7,436.25,1823.15,437.6,1825.59,439Zm-131.43-49.73c0-.15,0-.38-.12-.42-.27-.14-.62-.34-.86-.27-1.67.49-3.34,1-5,1.59-1.78.69-2.06,2.7-.63,4.24a1,1,0,0,0,1.28.15,27.21,27.21,0,0,0,5.14-4.86A1.05,1.05,0,0,0,1694.16,389.25Zm-86.75,110.09c0,1.67-.08,3.35,0,5,.12,2,1.09,2.65,3.17,2.41a1,1,0,0,0,.94-1.3A13.92,13.92,0,0,0,1607.41,499.34Zm174.51,107.94c-3.13,0-5.17,0-7.21,0a1.53,1.53,0,0,0-1.12.65,1.45,1.45,0,0,0,.43,1.7,2.25,2.25,0,0,0,2.59.62A16.15,16.15,0,0,0,1781.92,607.28Zm-41-222.6a20.4,20.4,0,0,0,5.43,4.88c.74.45,1.53-.1,1.58-1.07.11-2-.35-2.65-2.19-3C1744.54,385.19,1743.29,385.05,1740.94,384.68Zm103.19,102.59c-.13-1.09-.21-2-.38-2.94a1,1,0,0,0-.56-.65.82.82,0,0,0-.76.26,12.48,12.48,0,0,0-1.6,4.83,1.27,1.27,0,0,0,.92,1.43,1.5,1.5,0,0,0,2-.82A8.52,8.52,0,0,0,1844.13,487.27ZM1666.8,497.7l-.07.65c2.29.57,4.56,1.29,6.88,1.64,1.66.25,3.24,1.39,5,.62-1.17-1.83-3.22-1.34-4.88-1.75C1671.47,498.3,1669.12,498.07,1666.8,497.7Zm-47.18-45.51c1.91-1.27,3.36-2.19,4.76-3.17a1,1,0,0,0-.16-1.87c-1.57-.81-2.48-.67-3.22.65A7.31,7.31,0,0,0,1619.62,452.19ZM1644,587.54c-.37-1.44-.61-2.64-1-3.8a1.06,1.06,0,0,0-1.51-.67,1.38,1.38,0,0,0-.64,2A5,5,0,0,0,1644,587.54Zm44.41,25.35a19.74,19.74,0,0,0-1.93.53c-.13,0-.25.63-.13.75a2.85,2.85,0,0,0,3.33.82,1.6,1.6,0,0,0,.74-1.06c.09-.49-.33-.81-.82-.92A9.65,9.65,0,0,0,1688.4,612.89Zm133.36-41.49c-1.31-.35-1.73-.12-2,.31a3.77,3.77,0,0,0-.26,2.72.66.66,0,0,0,1.11.36,3,3,0,0,0,1.39-2.31C1822.09,571.78,1821.63,571.36,1821.76,571.4Zm-43.9-79.21a7,7,0,0,0-4.69,2A7.29,7.29,0,0,0,1777.86,492.19ZM1708.32,550l-.44-.38a13.64,13.64,0,0,0-1.08,1.33c-.13.2-.06.53-.06.8,0,0,.33.08.37,0C1707.53,551.23,1707.93,550.62,1708.32,550Zm-15.76-10.76a2.78,2.78,0,0,0-1.2,1.83c0,.09.15.23.23.34a4.5,4.5,0,0,0,1-.83,3.52,3.52,0,0,0,.35-1.22Z"/><path d="M476.74,388.7c67.67-.42,124.24,56,123.73,125.1-.48,64.57-53,123.33-125,123A123.81,123.81,0,0,1,352.25,512.53C352.22,442.26,410.09,387.9,476.74,388.7ZM453.16,551.28l0,0A9.86,9.86,0,0,0,457,554a46.62,46.62,0,0,0,12.72,4.1c19.19,3.5,40.92-7.53,48.33-28.45,2.64-7.45,2.69-15,1.83-22.73-.14-1.19-.27-2.53-1.35-3.4-1.32.42-1.34,1.73-2,2.58a8.17,8.17,0,0,1-10.25,2.54,7.94,7.94,0,0,1-3.94-9.77,8,8,0,0,1,9.15-5.24c1.07.17,2,1.11,3.42.46a11.82,11.82,0,0,0-2.65-4.91c-10.58-13.53-24.26-19.79-41.52-17.62a42,42,0,0,0-25.91,13.29,43.88,43.88,0,0,0-5.26,53.25C443,543.61,447.15,548.43,453.16,551.28Zm22.37,62.35a96,96,0,0,0,32.19-5,30.07,30.07,0,0,0,3.12-1.21,1.93,1.93,0,0,0,1-2.78,17.1,17.1,0,0,0-1-2.16c-3.31-5.83-6.61-11.67-10-17.47a31.43,31.43,0,0,0-3.29-4.7c-4.43-5.11-10-8.21-16.83-7.53-8.27.84-15.33,4.25-19.85,11.74a113.1,113.1,0,0,0-10.38,22.58,8.65,8.65,0,0,0-.37,1.39,1.53,1.53,0,0,0,1,1.92,34,34,0,0,0,3.68,1A87.5,87.5,0,0,0,475.53,613.63Zm21.81-173.17h.21a53.46,53.46,0,0,0,0,6.7c.84,6.56,3.89,11.79,9.83,15,7.13,3.88,14.49,4.72,22.14,1.57A98.06,98.06,0,0,0,549.83,452c3.28-2.39,3.28-3,.68-6-.21-.25-.42-.48-.64-.71a102.55,102.55,0,0,0-43.71-27.64,42.42,42.42,0,0,0-4.16-1.1,1.83,1.83,0,0,0-2.51,1.52,34.41,34.41,0,0,0-.71,4.26C498.26,428.35,497.81,434.41,497.34,440.46Zm79.22,73.1c0-.74,0-1.86,0-3a4.4,4.4,0,0,0-.16-.94,2.52,2.52,0,0,0-2.75-2.12,13.72,13.72,0,0,0-1.89.29l-19.18,4.11a29.74,29.74,0,0,0-7.64,2.71c-7.17,3.77-10.61,9.79-11,17.79a24.73,24.73,0,0,0,6.95,18.75,123.52,123.52,0,0,0,15.48,14.24c3.77,2.86,3.94,2.83,6.37-1.3C571.87,548.62,576.27,531.83,576.56,513.56ZM445.4,447.22c-.12-1.33-.17-3.25-.49-5.13A119.44,119.44,0,0,0,441,425.8c-1.68-5.36-2.26-5.68-7.41-3.26A99,99,0,0,0,393,457.29a15.11,15.11,0,0,0-1.16,2.08,1.27,1.27,0,0,0,.45,1.69,24.71,24.71,0,0,0,3.39,1.75c5.61,2.31,11.21,4.64,16.87,6.8a47.37,47.37,0,0,0,7.8,2.28,17.81,17.81,0,0,0,14.94-3.39C442,463.28,445.64,456.46,445.4,447.22Zm-59.15,72.55c-2.05,0-3.16,0-4.28,0-5.35.06-5.87.54-5.37,5.75a86,86,0,0,0,2.83,14.55A98.1,98.1,0,0,0,396,573.79a29.81,29.81,0,0,0,2.51,2.87,1.6,1.6,0,0,0,2.52-.12c.33-.33.63-.71.94-1.08,4.18-5,8.39-10,12.53-15.1a33.62,33.62,0,0,0,5.21-8c2.1-4.9,2.56-10,.59-14.92-3.19-8-8.77-13.64-17.43-15.61A89.64,89.64,0,0,0,386.25,519.77Zm64.8-120.38-1-.47c-2.67,2.24-5.13,4.72-7.64,7.13-3.43,3.28-3.41,3.3-1.86,7.89.21.6.43,1.2.63,1.81a189.3,189.3,0,0,1,6,20.23c1.06,4.87,1.9,9.79,1.41,14.75-1,9.86-5.6,17.58-14.47,22.36-5.48,3-11.32,3.05-17.27,1.53a66.4,66.4,0,0,1-10.35-3.79c-7.61-3.33-15.5-6-23-9.63-1.95-.95-4-1.4-5.94-.11q-4.62,3-9.17,6.13a1,1,0,0,0,.48,1.84c.77.22,1.55.36,2.34.51L414.55,478c7.69,1.5,15.4,2.91,23.07,4.51,2.76.57,5,.16,6.94-2a27.61,27.61,0,0,1,4.78-4,5.47,5.47,0,0,0,2.57-5.29c-.09-1.43,0-2.88,0-4.32-.18-6.23-.49-12.46-.56-18.69-.15-14.88-.19-29.76-.27-44.63C451,402.24,451.05,400.82,451.05,399.39Zm-71,117.17v-.07h5.27a79.07,79.07,0,0,1,18.52,2.18c8.48,2,14.36,7.37,18.42,14.88a21.57,21.57,0,0,1,2.41,9.19,24.73,24.73,0,0,1-5.26,16.55c-2.77,3.71-5.73,7.28-8.66,10.87-2.23,2.71-4.78,5.19-6.76,8.08-1.79,2.62-3.48,5.17-6.13,7.07a5.13,5.13,0,0,0-2,5.55c.86,3.57,1.91,7.09,2.92,10.62a.91.91,0,0,0,1.56.19c.81-1.18,1.62-2.37,2.32-3.62q15.18-26.92,30.32-53.88c.71-1.25,1.36-2.53,2-3.81a3.48,3.48,0,0,0,.11-3.23,63.61,63.61,0,0,1-4.4-11.64,3.73,3.73,0,0,0-2.58-2.61c-.91-.31-1.83-.59-2.75-.85q-31.11-8.88-62.21-17.74a16.79,16.79,0,0,0-2.32-.49,1,1,0,0,0-1,1.29c1.28,2.74,2.64,5.45,3.91,8.2,1.15,2.53,3.1,3.39,5.79,3.3C373.05,516.46,376.56,516.56,380.08,516.56Zm149.51,97a11.17,11.17,0,0,0,1.53,0c2-.22,4.14.39,6-.7,0-2.58-2.18-3.74-3.63-5.29q-14.7-15.8-29.56-31.46c-4-4.18-8-8.25-12-12.47-1.9-2-4-3.08-6.82-2.43a38.32,38.32,0,0,1-11.45.73c-2.94-.2-4.69,1.08-6.29,3.39-11.37,16.44-22.87,32.79-34.23,49.24-1.19,1.71-3.28,3.09-2.94,5.64,2.08.37,4.11-.14,6.16-.38,1-.11,1.88-.47,2.83-.49a4.53,4.53,0,0,0,4.69-4c1-4.71,3.29-9,4.89-13.47a99,99,0,0,1,9.37-19.39c3.9-6.23,9.53-9.84,16.26-11.92,9.23-2.85,17.35-.75,24.17,6.17a36.57,36.57,0,0,1,5.72,7.67c2.47,4.3,5.1,8.51,7.35,12.93s5.64,8.51,7.38,13.38a4.51,4.51,0,0,0,5.3,3.12C526,613.69,527.61,613.7,529.59,613.59ZM576,453c-3.3-1.84-6.37-3.53-9.43-5.26a4.8,4.8,0,0,0-6.14.77,13.09,13.09,0,0,0-1.92,2.09c-.47.67-.84,1.47-1.67,1.62-3.15.58-5.33,2.81-7.82,4.51a115.07,115.07,0,0,1-17.1,9.67,28.09,28.09,0,0,1-22.41.5c-7.31-2.79-12.26-7.9-14.43-15.56a30.47,30.47,0,0,1-.94-7.59c-.17-7.54.79-15,1.52-22.49.4-4.12.37-8.3,1.29-12.39a6.08,6.08,0,0,0-2.43-6.36c-1.25-1-2.4-2.14-3.7-3.06s-2.41-3.37-4.26-2.21c-1.3.81-.34,3-.25,4.55a3.85,3.85,0,0,0,.08.47q3.23,23.52,6.45,47.05c.9,6.49,1.88,13,2.71,19.47a5.07,5.07,0,0,0,2.75,4.17,40.46,40.46,0,0,1,6.08,3.83c2.17,1.77,4.2,1.69,6.66.79Q542.1,466.2,573.24,455A3.92,3.92,0,0,0,576,453Zm15,33.44c-1.81-.48-2.72.31-3.7.76q-27.18,12.66-54.35,25.35c-2.17,1-4.32,2.09-6.47,3.15a4.49,4.49,0,0,0-2.73,3.69,47.59,47.59,0,0,1-2.68,11.66,4.15,4.15,0,0,0,.64,4.07c.48.64,1,1.28,1.46,1.9q19.36,24.45,38.72,48.9.9,1.13,1.89,2.16a.85.85,0,0,0,1.43-.51c.39-2.37.77-4.73,1.08-7.11a5.33,5.33,0,0,0-2.19-5,7.47,7.47,0,0,0-3.28-1.91,2.93,2.93,0,0,1-2.33-1.48c-1-2-2.83-3-4.44-4.29-6.26-5-12.32-10.17-17.35-16.48s-6.66-13.71-5.82-21.64a21.73,21.73,0,0,1,6.88-13.88,28.46,28.46,0,0,1,13-6.79c4.66-1.15,9.37-2.06,14.06-3.09,3.58-.8,7.19-1.51,10.72-2.49a11.33,11.33,0,0,1,3.7-.69,23.68,23.68,0,0,0,3.31-.39,5,5,0,0,0,4.5-3.75C588.4,494.63,589.62,490.66,591,486.44ZM428.11,506.68a2.27,2.27,0,0,0,2.54-1.91c.61-2,1.15-4,1.65-6a2,2,0,0,0-1.3-2.71,26.47,26.47,0,0,0-2.73-.91L390.53,484c-.46-.13-.91-.3-1.38-.4-2.81-.62-3.88-.15-4.8,2.5a59.25,59.25,0,0,0-1.92,6.93c-1.1,5.06-1,5.19,4.26,6.16q17.69,3.27,35.39,6.51C424,506,425.86,506.31,428.11,506.68Zm26.93,51c-.23-.44-.3-.83-.53-1-2.51-1.69-5-3.37-7.58-5a1.26,1.26,0,0,0-1.71.37,17.4,17.4,0,0,0-1.16,1.52l-23.68,34.86c-.27.4-.53.8-.77,1.21a1.87,1.87,0,0,0,.34,2.59,47.6,47.6,0,0,0,9.57,6.31,1.88,1.88,0,0,0,2.49-.76c.37-.51.69-1.07,1-1.62q8.67-14.91,17.32-29.82c1.36-2.34,2.74-4.68,4.07-7.05A11.27,11.27,0,0,0,455,557.64Zm56.91-11a10.58,10.58,0,0,0-1.05.75q-2.14,1.92-4.24,3.89c-2.6,2.43-2.64,2.77-.62,5.56.37.51.77,1,1.17,1.51q7.77,9.76,15.56,19.51c3.1,3.87,6.2,7.74,9.36,11.56,1.16,1.41,1.94,1.53,3.29.52a60.28,60.28,0,0,0,5.91-4.88c3.18-3.11,3.13-3.84.19-7.08q-9.19-10.12-18.4-20.23-4.7-5.14-9.41-10.25A2.16,2.16,0,0,0,512,546.67Zm54.65-63.9a15.92,15.92,0,0,0-.6-1.91c-.86-2.05-1.73-4.11-2.7-6.12-1.72-3.55-2-3.7-5.88-2.07-8.65,3.69-17.26,7.46-25.89,11.21-4.24,1.84-8.48,3.67-12.7,5.55a1.51,1.51,0,0,0-.87,2.33c.84,1.89,1.78,3.74,2.6,5.64,1.45,3.38,1.46,3.41,4.9,2.27l1.35-.48q18.18-6.68,36.35-13.35a27.78,27.78,0,0,0,2.64-1.11C566.41,484.42,566.7,483.86,566.6,482.77ZM478,454.08h-.11l-1-31.61a13.56,13.56,0,0,0-.07-1.43c-.21-1.93-.9-2.62-2.74-2.54q-3.84.18-7.66.53c-3.58.32-3.9.75-3.64,4.55.07,1,.12,1.92.23,2.87q2,16.17,4,32.33c.3,2.37.57,4.76,1,7.12a2.23,2.23,0,0,0,2.67,2.12c1.43-.07,2.87-.22,4.29-.41,2.38-.33,2.95-.9,3-3.46C478.08,460.8,478,457.44,478,454.08Zm26-57c-1.5,0-2.27.66-2.48,1.71-.6,2.92.08,4.1,2.9,5,.46.15.93.24,1.39.36a112.29,112.29,0,0,1,53.32,32.38c1.09,1.17,2.16,2.36,3.3,3.47s2.06,1.22,3.41.37c2.36-1.49,2.59-2.79.83-5.08a31,31,0,0,0-2.2-2.52,132.91,132.91,0,0,0-14-13.09,117.45,117.45,0,0,0-43.27-21.87C506,397.54,504.75,397.29,504,397.11Zm-126,57.78a5.12,5.12,0,0,0,1.65-.83,26.53,26.53,0,0,0,2.28-3.07,112.84,112.84,0,0,1,48.41-41c1-.46,2.06-.9,3-1.45a1.9,1.9,0,0,0,.9-1.06,4.4,4.4,0,0,0-1.2-4,2.12,2.12,0,0,0-2.65-.42c-3.34,1.54-6.72,3-10,4.74a117.32,117.32,0,0,0-44.28,40.88,25.38,25.38,0,0,0-1.59,2.95,1.48,1.48,0,0,0,.67,2.05A26.26,26.26,0,0,0,377.93,454.89Zm97.9,168.22A93.65,93.65,0,0,0,498.27,621a89.19,89.19,0,0,0,16.56-4.81c2.09-.86,2.39-1.79,1.4-3.72-1.11-2.15-1.85-2.47-4.22-1.76-.92.27-1.82.61-2.73.91-18.49,6.22-37.26,6.93-56.28,2.86a22.9,22.9,0,0,0-2.82-.52c-1.67-.13-2.63.82-3.14,3-.33,1.37.24,2.37,1.81,2.88a32,32,0,0,0,4.18,1.07C460.59,622.25,468.16,623.5,475.83,623.11ZM595.06,514.65c0-2.4,0-4.8,0-7.19a9,9,0,0,0-.3-2.37,1.54,1.54,0,0,0-.94-1,4.85,4.85,0,0,0-4.06.89c-.84.68-.52,1.78-.44,2.72a93,93,0,0,1-.88,20.08A111.11,111.11,0,0,1,573.58,571q-1.11,1.85-2.13,3.75a1.72,1.72,0,0,0,.36,2.18c1.81,1.83,3.23,1.78,4.7-.25.56-.77,1.07-1.59,1.56-2.41A116.85,116.85,0,0,0,595.06,514.65Zm-92-107.71c-1.62-.22-2.43.38-2.65,1.69-.45,2.82.11,3.81,2.73,4.73.45.15.92.25,1.38.38a102.21,102.21,0,0,1,47.18,28.87c1.09,1.17,2.2,2.31,3.32,3.45a2,2,0,0,0,2.62.19c2.81-1.61,3.05-2.66,1-5.23a41.39,41.39,0,0,0-2.85-3.23,114.48,114.48,0,0,0-9.82-9.11A110.63,110.63,0,0,0,507,408C505.6,407.55,504.2,407.23,503.09,406.94Zm-67.84,4.77c-1.07.35-2.15.64-3.17,1.07a103.88,103.88,0,0,0-12.72,6.65,109.85,109.85,0,0,0-35.45,34.35c-1.77,2.72-1.42,3.61,2,4.68a2.33,2.33,0,0,0,2.61-.7c.71-.85,1.35-1.77,2-2.69,11-15.61,24.88-27.72,42.24-35.76,1.16-.53,2.32-1.08,3.45-1.67a2.26,2.26,0,0,0,1.14-2.84,9.05,9.05,0,0,0-.89-2.21C436.19,412.23,435.69,412,435.25,411.71ZM366.92,525c.25,1.73.58,4.43,1,7.1a108,108,0,0,0,22.91,50.54,15,15,0,0,0,1.59,1.78,1.23,1.23,0,0,0,1.73,0,9.06,9.06,0,0,0,1.32-1.38c1.44-1.79,1.46-2.35.13-4.21-.93-1.3-1.95-2.54-2.89-3.83a102.16,102.16,0,0,1-19.55-49.87,22.8,22.8,0,0,0-.6-3.28,2.52,2.52,0,0,0-2.5-1.87c-2.05-.14-3,.66-3.18,2.64C366.89,523.06,366.92,523.54,366.92,525Zm218.77-7.46c0-2.39,0-4.79,0-7.18a18.28,18.28,0,0,0-.23-2.86,2.07,2.07,0,0,0-2.88-1.63,3.12,3.12,0,0,0-2.58,3c0,.64-.07,1.28-.06,1.91a113.2,113.2,0,0,1-.65,12.89,102.07,102.07,0,0,1-13.12,41.18c-.8,1.39-1.61,2.76-2.36,4.17a1.64,1.64,0,0,0,.39,2.16,19,19,0,0,0,1.89,1.46c1.27.83,2,.75,2.83-.48q1.94-3,3.65-6.18A103.34,103.34,0,0,0,585.69,517.53Zm-225.08,2.55A2.08,2.08,0,0,0,358.3,522a41.46,41.46,0,0,0,.21,6.21,118.11,118.11,0,0,0,21.86,54.64c1.79,2.45,3.73,4.8,5.72,7.09,1.21,1.41,2.44,1.18,3.51-.38a2.4,2.4,0,0,0,0-3.09c-.58-.76-1.21-1.49-1.8-2.24-13.9-17.67-22.18-37.61-24.26-60.06a12.4,12.4,0,0,0-.39-2.35A2.47,2.47,0,0,0,360.61,520.08ZM476.76,631.64c3.54.23,7-.45,10.51-.68,10-.66,19.52-3.09,28.93-6.25a35,35,0,0,0,3.53-1.47,1.55,1.55,0,0,0,.91-1.55,2.83,2.83,0,0,0-3.23-2.72,10.7,10.7,0,0,0-1.82.58A106.39,106.39,0,0,1,488.15,626a119.41,119.41,0,0,1-24.86-.09,125.92,125.92,0,0,1-16-2.94c-1.57-.39-2.38.2-2.89,1.73s0,2.39,1.6,2.92a32.92,32.92,0,0,0,3.24.87A137.77,137.77,0,0,0,476.76,631.64Zm3.53-233.78c.41,5.8.73,11.06,1.15,16.31.82,10.18,1.72,20.35,2.52,30.53.47,6.05.81,12.1,1.23,18.15a17.42,17.42,0,0,0,.31,2.38c.63,3.16,1.9,4.22,5.26,4.39a1.35,1.35,0,0,0,1.51-1.47,17.07,17.07,0,0,0-.12-2.86q-1-7.83-2.12-15.66-2.22-16.12-4.46-32.25-1.38-10-2.79-19.91a12,12,0,0,0-.57-2.29,1,1,0,0,0-.76-.45,1.07,1.07,0,0,0-.78.43A4.29,4.29,0,0,0,480.29,397.86Zm-19.67,64.07.21,0c-.65-8.29-1.35-16.56-1.92-24.85-.8-11.64-1.49-23.29-2.23-34.93a11.4,11.4,0,0,0-.92-4.66.87.87,0,0,0-.77-.34.88.88,0,0,0-.62.58,32.36,32.36,0,0,0-.26,3.81q.15,33.59.32,67.16c0,4.32.6,4.27,4.44,2.59.29-.12.58-.25.87-.4a2.57,2.57,0,0,0,1.49-2.74C461,466.06,460.82,464,460.62,461.93Zm-94.71,14.89c-1.78-.21-2.81.28-3.34,1.72a64.83,64.83,0,0,0-3.14,13c-.27,1.79.33,2.6,2.27,3q6.78,1.41,13.6,2.57c1.77.3,2.65-.32,3.18-2.13.71-2.44,1.18-4.95,1.92-7.39,1.79-5.91,2.4-5.72-4.25-7.78-2.28-.7-4.58-1.35-6.87-2Zm131.76,80.89a3.79,3.79,0,0,0-.79,0c-1.31.49-3,.61-3.48,2.17-.37,1.22.87,2,1.61,2.75,6.35,6.74,12.72,13.45,19.07,20.2q12,12.74,23.92,25.5a31.16,31.16,0,0,0,2.4,2.34,2,2,0,0,0,3-.09c.71-1,.08-1.79-.52-2.55-.19-.26-.41-.49-.62-.73L521,583.24Q511.14,572.11,501.3,561c-.74-.83-1.47-1.68-2.28-2.44A6.69,6.69,0,0,0,497.67,557.71Zm25.93-48.09c-.07,2.84,1,3.65,3.44,2.62,1-.44,2-1,3-1.44l36.55-17q10.21-4.77,20.41-9.6a20,20,0,0,0,3.26-2,1.2,1.2,0,0,0,.14-1.72c-.27-.33-.88-.7-1.2-.6a56.63,56.63,0,0,0-5.39,1.93q-26.49,11.28-53,22.61-2.86,1.23-5.7,2.53A2.55,2.55,0,0,0,523.6,509.62ZM476.08,405h-.17c0-2.87.08-5.73,0-8.59a2.24,2.24,0,0,0-2.46-2.38,43,43,0,0,0-12.34,1c-1.26.3-1.73,1.07-1.59,2.51s.36,2.85.54,4.27c.42,3.47.74,7,1.27,10.42.42,2.79,1.37,3.59,4.17,3.44,3-.15,6-.52,9-.88,1.58-.19,2.14-.94,2.06-2.63C476.43,409.78,476.24,407.4,476.08,405ZM588.9,475.18a9.17,9.17,0,0,0-.17-1.08,69.1,69.1,0,0,0-4.44-11.1,1.73,1.73,0,0,0-2.44-.83c-5,2.12-10,4.24-14.94,6.46-1.64.73-1.91,1.53-1.27,3.07q1.93,4.64,4,9.23c.7,1.54,1.45,1.92,3.06,1.36,4.83-1.68,9.62-3.45,14.42-5.22a3.2,3.2,0,0,0,1.18-.76A4.79,4.79,0,0,0,588.9,475.18ZM429.75,518c.08-2.67-.44-3.46-2.85-4.26a18.66,18.66,0,0,0-1.85-.51c-6.36-1.48-12.73-3-19.1-4.45q-20.71-4.89-41.42-9.82c-1.24-.29-2.48-.62-3.73-.85-.77-.14-1.75-.3-1.91.79s.75,1.29,1.49,1.56c.9.32,1.82.56,2.74.82l52,14.89c4.14,1.18,8.29,2.34,12.45,3.44C429,520,429.71,519.41,429.75,518Zm-62.54-46.21A4.71,4.71,0,0,0,366,472c-.25.12-.55.38-.58.61a.85.85,0,0,0,.42.71,32.78,32.78,0,0,0,3.2,1q12.54,3.15,25.1,6.25c12.71,3.15,25.44,6.25,38.13,9.47,3.7.94,4.32.09,6-2.32.68-1,.36-2-.74-2.23-1.55-.38-3.12-.7-4.69-1l-62.54-12.11C369.16,472.1,368.05,471.93,367.21,471.79ZM558.78,597.5a13.85,13.85,0,0,0-1.06-1.53q-3.81-4.29-7.65-8.53c-.64-.7-1.33-1.37-2-2a1.62,1.62,0,0,0-2.52,0,70,70,0,0,1-8.16,7.32,1.87,1.87,0,0,0-.28,2.94q4.23,5.46,8.64,10.8c.85,1,1.78,1.1,3,.31a75,75,0,0,0,9.49-8C558.51,598.59,558.56,598,558.78,597.5ZM419.69,616.83a1.87,1.87,0,0,0,1.74-.86c2.27-3.84,4.55-7.68,6.75-11.56a1.92,1.92,0,0,0-.68-2.91c-3-2.06-6.1-4.08-9.21-6-1.33-.83-2.24-.61-3.26.85-2.37,3.39-4.7,6.83-6.94,10.32-1.06,1.63-.87,2.59.62,3.72a60.44,60.44,0,0,0,9.75,6A9.18,9.18,0,0,0,419.69,616.83ZM580.83,457.31c.18-.73-.65-1.53-1.2-1.39A36.6,36.6,0,0,0,576,457q-26.82,9.69-53.63,19.41c-3.45,1.25-6.91,2.5-10.34,3.82-1.6.62-1.67,1.63-.41,2.9a2.71,2.71,0,0,0,3,.93c.91-.3,1.81-.61,2.7-1l59.3-23.41c1.19-.47,2.37-1,3.51-1.54C580.46,458,580.69,457.48,580.83,457.31ZM440.3,546.52a4.48,4.48,0,0,0-1.74-3.59.92.92,0,0,0-1.3,0,10,10,0,0,0-1.38,1.91Q420,573,404.23,601.16c-.73,1.3-2.21,2.47-1.26,4.3,2.38.24,2.56-2,3.36-3.25,8.34-13.41,16.58-26.88,24.85-40.34,2.59-4.21,5.2-8.42,7.76-12.65C439.51,548.28,439.94,547.25,440.3,546.52ZM519,537.16a1.89,1.89,0,0,0-.43.2,3.93,3.93,0,0,0-.95,5.15,31,31,0,0,0,2.41,3c3,3.5,6.11,7,9.15,10.46q15.52,17.92,31.05,35.86a14.73,14.73,0,0,0,1.71,1.64.9.9,0,0,0,.83-.12,1,1,0,0,0,.27-.83c-.55-1.72-1.88-3-3-4.31q-18.54-23.52-37.15-47-1.5-1.87-3.07-3.68C519.66,537.31,519.28,537.28,519,537.16Zm-93.73,82.25a1.07,1.07,0,0,0,1.28-.41q2.67-3.69,5.27-7.43,15.93-22.82,31.86-45.65a27.91,27.91,0,0,0,2-3.26c.46-.88-.07-1.56-.84-1.94a2.71,2.71,0,0,0-3.52.44,33.24,33.24,0,0,0-2.52,3.49Q446.37,584.06,434,603.47q-4,6.27-8,12.57a15,15,0,0,0-1.17,2.58C424.79,618.81,425.12,619.15,425.26,619.41ZM509.84,506a4.21,4.21,0,0,0,4.55-4.45,4.51,4.51,0,0,0-4.45-4.67,4.74,4.74,0,0,0-4.63,4.57A4.39,4.39,0,0,0,509.84,506Zm-29.36-66.71-.19,0c0,1.08,0,2.15,0,3.22q.4,11,.86,22a4.09,4.09,0,0,0,.27,1.39c.08.2.46.31.73.41,0,0,.27-.22.27-.35a18.18,18.18,0,0,0,.12-2.85C481.88,455.18,481.17,447.24,480.48,439.31Zm95,9.54c.22-.27.44-.55.67-.82-1.16-1.67-2.24-3.39-3.49-5s-2.2-1.76-4-.55c-1.27.85-1.36,1.82-.11,2.54C570.83,446.35,573.17,447.58,575.5,448.85ZM445.24,398.79l-.59-.8c-2.07.67-4.16,1.28-6.2,2-1.77.66-2.15,2.09-1.1,3.77a1.19,1.19,0,0,0,1.61.47,4.75,4.75,0,0,0,1.15-.8C441.83,401.91,443.53,400.35,445.24,398.79Zm-86.93,110-.89.34c0,1.41,0,2.82,0,4.22a7.76,7.76,0,0,0,.29,1.86,2.08,2.08,0,0,0,2.76,1,1.41,1.41,0,0,0,.47-2C360.09,512.43,359.19,510.63,358.31,508.83Zm133-113.34c1.94,1.6,3.34,2.81,4.81,3.92a1.37,1.37,0,0,0,1.29,0,1.86,1.86,0,0,0,.51-1.23,2.36,2.36,0,0,0-1.55-2.63A7.13,7.13,0,0,0,491.33,395.49Zm102.73,100.7a10.19,10.19,0,0,0-.21-1.6,1.88,1.88,0,0,0-.71-1.13c-.49-.23-.84.29-1,.72q-.85,2.49-1.62,5c-.15.47-.16,1.06.34,1.26a2.19,2.19,0,0,0,1.36,0C594.26,499.78,594.15,498.12,594.06,496.19ZM532.11,617.74c-.09-.32-.18-.65-.26-1-2.33.34-4.67.64-7,1.06a1.14,1.14,0,0,0-.87,1.46,1.62,1.62,0,0,0,1.69,1.35,2.1,2.1,0,0,0,.91-.25C528.44,619.52,530.27,618.63,532.11,617.74ZM415,507.66c4.65,1.22,9.17,2.7,14,2.86A54.76,54.76,0,0,0,415,507.66Zm-45.76-45.45a21.26,21.26,0,0,0,5.62-3.66c.38-.35.19-.89-.25-1.18-1.35-.9-2.6-.85-3.38.21A10.16,10.16,0,0,0,369.21,462.21Zm66.1,161.67a5.41,5.41,0,0,0,4.36,1.46c.65-.07.92-.81,1-1.45a1,1,0,0,0-1.1-1.17A8,8,0,0,0,435.31,623.88ZM569,586c1.5-.85,2.8-1.83,3.15-3.44a1.33,1.33,0,0,0-1-1.45,1,1,0,0,0-1.44.71C569.41,583.15,569.23,584.56,569,586ZM464.26,460.35l-.53,0c.1,2.33.19,4.67.33,7,0,.45.25.93.83.72.19-.07.37-.55.33-.81C464.93,465,464.59,462.67,464.26,460.35ZM391.64,592.79a1.43,1.43,0,0,0-.93,1.45A2.36,2.36,0,0,0,392,596a1.07,1.07,0,0,0,.85.11.88.88,0,0,0,.44-.7,10.93,10.93,0,0,0-.53-2.19A.88.88,0,0,0,391.64,592.79Zm71.72-137.62c.18-.87.48-1.74-.31-2.48C463.08,453.52,462.77,454.4,463.36,455.17Zm63.38,47.2c0,.13-.06.31,0,.38a.48.48,0,0,0,.4.13,3.67,3.67,0,0,0,1.2-.61c.25-.23,0-.57-.39-.47A6.43,6.43,0,0,0,526.74,502.37Z"/><path d="M1753.93,538.82a37,37,0,0,1-3.76.55c-6.39.35-10-6.17-8.13-10.51.51-1.16.92-2.36,1.37-3.55l-.06.06c1.15-.51,2.28-1.07,3.46-1.51a7.88,7.88,0,0,1,8.68,1.91,8,8,0,0,1,1.37,9.21,25.7,25.7,0,0,1-1.8,2.77Zm-4.3-3a4.56,4.56,0,0,0,4.81-4.27,5,5,0,0,0-4.39-4.84c-2.61-.13-5.15,2.17-5.09,4.61A4.8,4.8,0,0,0,1749.63,535.78Z"/><path d="M1743.41,525.31c-1.54.84-3.06,1.73-4.64,2.5a25.42,25.42,0,0,1-36-17.24c-3-12.38,4.7-26.87,18.77-30.06,16-3.61,27.38,6.69,30.39,17.61,2.44,8.87.51,16.72-5.33,23.71-1,1.22-2.15,2.36-3.22,3.54Zm-15.72,1.77a21.85,21.85,0,0,0,21.94-22c.17-12.17-9.82-21.75-22-21.91-10.13-.14-22,7.09-22.09,21.77S1717.34,527.37,1727.69,527.08Z"/><path d="M1732.36,470.81a8.07,8.07,0,0,1-8.08,8.27,8.18,8.18,0,0,1-7.94-7.95,8,8,0,1,1,16-.32Zm-8.29,4.55c2.77.09,4.7-1.62,4.77-4.23a4.61,4.61,0,0,0-4.26-4.87,5,5,0,0,0-4.84,4.4A4.37,4.37,0,0,0,1724.07,475.36Z"/><path d="M1702.15,540.73a29.24,29.24,0,0,1-1.88-3.86,8,8,0,0,1,11.74-9.41,8.16,8.16,0,0,1,3.66,8.26,7.89,7.89,0,0,1-10,6.31c-1.22-.35-2.38-.89-3.57-1.35Zm5.74-2a4.23,4.23,0,0,0,4.51-4.41,4.85,4.85,0,0,0-4.89-4.73,4.64,4.64,0,0,0-4.24,4.83A4.25,4.25,0,0,0,1707.89,538.72Z"/><path d="M1693.94,487.06a8.11,8.11,0,1,1-8.07,7.92A8.45,8.45,0,0,1,1693.94,487.06Zm.22,12.88a5.06,5.06,0,0,0,4.58-5.14,4.83,4.83,0,0,0-4.91-4.25,4.76,4.76,0,0,0-4.55,5.08A5,5,0,0,0,1694.16,499.94Z"/><path d="M452.09,514.75a25.41,25.41,0,0,1,25.68-25,25,25,0,0,1,25.15,25.47c0,14.32-11.12,25.49-25.38,25.28C460.46,540.23,452.25,527,452.09,514.75Zm25.33,22.17c11.29.62,21.94-8.55,22.09-21.6A22.06,22.06,0,0,0,477.86,493a22.29,22.29,0,0,0-22.43,22.14C455.39,526.53,464.66,537.33,477.42,536.92Z"/><path d="M444.15,497.26a7.92,7.92,0,1,1-.33,15.84,7.92,7.92,0,1,1,.33-15.84Zm4.56,7.86a4.71,4.71,0,1,0-4.51,4.63A4.8,4.8,0,0,0,448.71,505.12Z"/><path d="M453.16,551.28a28.65,28.65,0,0,1-2.09-2.6,8.16,8.16,0,0,1,1.07-10.09,8,8,0,1,1,4.2,13.61,29.09,29.09,0,0,1-3.2-.94Zm.13-7.06a4.44,4.44,0,0,0,4.22,4.77,4.75,4.75,0,0,0,4.9-4.68,4.39,4.39,0,0,0-4.52-4.45A4.29,4.29,0,0,0,453.29,544.22Z"/><path d="M499.81,533.33a8.23,8.23,0,0,1,8,7.89,8.53,8.53,0,0,1-8.26,8.22,8.06,8.06,0,1,1,.27-16.11Zm4.59,8.23a4.42,4.42,0,0,0-4.46-4.63c-2.78-.09-4.82,1.56-5,4.06a5,5,0,0,0,4.71,5.08A4.94,4.94,0,0,0,504.4,541.56Z"/><path d="M474.21,473a7.67,7.67,0,0,1,8,7.71,7.93,7.93,0,0,1-8,8.31,8,8,0,0,1-.06-16Zm0,3.52a4.24,4.24,0,0,0-4.5,4.42,4.81,4.81,0,0,0,4.9,4.71,4.57,4.57,0,0,0,4.21-4.83A4.22,4.22,0,0,0,474.25,476.52Z"/></g></g></svg>