<svg xmlns="http://www.w3.org/2000/svg" viewBox="0 0 2097.12 871.92"><title>sedan_cenital</title><g id="Capa_2" data-name="Capa 2"><g id="Capa_1-2" data-name="Capa 1"><path d="M1590,837.17c-21,0-41.92.25-62.88-.11-10.21-.18-20.45-.43-30.65-1.45-5.88-.59-11.81-.68-17.7-1.19-7.8-.67-15.6-1.39-23.37-2.35-6.81-.84-13.57-2.13-20.38-3.06a54.65,54.65,0,0,0-12.46,0c-3.51.33-7,.43-10.53.46-13.28.13-26.57-.12-39.84.38-17,.64-33.9.43-50.85.91-22.06.63-44.14.38-66.2,1.09-18.71.6-37.43.14-56.12.91-21.12.86-42.24.18-63.33,1-18.55.7-37.1.52-55.65.86-3.82.07-7.64.8-11.47,0a5.89,5.89,0,0,0-1.91.08c-9.25,1.18-18.48.84-27.75,0-6.53-.56-13.06-1-19.55-2a19.76,19.76,0,0,0-2.88-.09c-29.6-.12-59.2.19-88.79-.48-32.47-.74-64.94-.29-97.41-.82-2.55,0-5.12,0-7.67.1-1.64.08-2.15,1.06-1.48,2.67.42,1,.93,2,1.43,3Q828,848.07,833.46,859c.57,1.14,1.16,2.28,1.68,3.45,1.55,3.46,1,5.24-2.34,7.08a17.3,17.3,0,0,1-7.79,2.2c-4.32.14-8.65.28-13,0a22.11,22.11,0,0,1-14.22-6.19c-5.44-5.2-10.71-10.56-15.7-16.19q-6.84-7.73-13.39-15.7a9,9,0,0,0-7-3.43c-14.7-1-29.42-.33-44.13-.66-17.59-.4-35.18-.54-52.76-1.25-8.46-.35-16.94-.28-25.39-.76-13.9-.8-27.81-1-41.73-1-1.92,0-3.84,0-5.76,0a12.07,12.07,0,0,0-6,1.4,32.07,32.07,0,0,1-12.92,3.35,60.93,60.93,0,0,1-14.84-.35,22.23,22.23,0,0,0-3.34-.33,25,25,0,0,1-12.46-3,6.48,6.48,0,0,0-4.64-.63c-5.82,1.16-11.73,1.36-17.63,1.79-9,.65-17.91.42-26.84,1-16,1-32,.86-48,.34-15.67-.5-31.36,0-47-.8-22.7-1.17-45.42-.18-68.12-1-9.91-.34-19.82-.47-29.73-.94q-14.36-.69-28.7-1.84c-7.48-.61-14.94-1.59-22.4-2.4-.8-.09-1.59-.2-2.39-.24-6.7-.37-13.41-.65-20.11-1.1a107.6,107.6,0,0,1-17-2.87,424.21,424.21,0,0,1-43.62-13.15c-6.35-2.2-12.69-4.42-19.07-6.54A176.83,176.83,0,0,1,128,791.85c-9.74-4.54-18.93-10-27.05-17.16-9.68-8.58-17.44-18.65-24.41-29.45-7.33-11.35-12.63-23.7-17.88-36.07-9.25-21.8-17.45-44-25.09-66.42-7.79-22.87-14.87-46-21.07-69.3C10.46,565.71,8.3,558,7.16,550.1q-1.45-10-2.45-20c-1-9.38-1.7-18.78-2.54-28.17,0-.48-.11-1-.11-1.44-.16-9.44-.92-18.85-1.31-28.27-.82-20.15-.94-40.31-.48-60.45.24-10.7.33-21.42,1.35-32.1.57-5.89.73-11.81,1.17-17.71,1.32-18,3.08-36,6.71-53.74a91.41,91.41,0,0,1,2.93-10.63c1.36-4.09,2.49-8.27,3.6-12.43,5.55-20.72,12.19-41.09,19.18-61.36q9.84-28.59,21.21-56.61c4.11-10.07,8.41-20.07,13.27-29.8A150.17,150.17,0,0,1,96.56,99a97.81,97.81,0,0,1,23.26-17.59A170.17,170.17,0,0,1,147.1,69.69c13.8-4.64,27.58-9.33,41.43-13.77a222.91,222.91,0,0,1,35.87-8.66c.94-.14,1.89-.34,2.84-.4,6.07-.37,12.16-.47,18.19-1.11,10.52-1.13,21.11-.46,31.61-1.59.48,0,1,0,1.44-.07,16.15-.42,32.3-.61,48.44-1.33,12.15-.54,24.3-.57,36.44-1,21.91-.71,43.83-.43,65.73-1.06,15.68-.45,31.35-.47,47-.44,11,0,22.06.44,33.08,1,4.79.26,9.58.38,14.36.73s9.54,1,14.29,1.54c2.24.28,4.5.73,6.58-.44,4.5-2.54,9.55-2.56,14.44-3a87.58,87.58,0,0,1,15.79-.3c4.83.47,9.5,1.33,13.79,3.66a10.09,10.09,0,0,0,5,1.26c10.24-.05,20.49.19,30.72-.23,5.9-.24,11.81-.56,17.73-.71,2.86-.08,5.73.07,8.59-.08,15.34-.81,30.71-.45,46-1.06,22.39-.87,44.78-.54,67.16-.78a7.31,7.31,0,0,0,6.19-2.84C777,30.42,784.6,22.21,792.16,14a102.72,102.72,0,0,1,8.71-8.24A21.07,21.07,0,0,1,811.17.89,45.67,45.67,0,0,1,828.8.84c2.66.56,5.32,1.22,7.46,3.08,1.81,1.57,2.17,2.84,1.25,5.09-.54,1.33-1.23,2.6-1.87,3.89-3.94,7.87-7.91,15.72-11.83,23.6-2,4-1.63,4.61,2.92,4.6q39.12,0,78.23-.16c8.64,0,17.28,0,25.92,0q38.14-.33,76.29-.7c3.84,0,7.67,0,11.51.21a62.64,62.64,0,0,0,10-.82,210.77,210.77,0,0,1,36.39-1.29c3.51.2,7,.76,10.48.1a7.63,7.63,0,0,1,1.91,0c13.1,1.09,26.23.28,39.33.92,17.27.84,34.55.31,51.81,1.08,14.87.66,29.75.13,44.61.88,15.5.78,31,.23,46.52,1,14.39.72,28.8.18,43.17.92,15.35.79,30.72.21,46,1,14.71.75,29.44.19,44.13.93,13.11.66,26.22.52,39.33.81a56.19,56.19,0,0,0,10-.79c8.83-1.42,17.71-2.59,26.64-3.28q16.25-1.24,32.49-2.54.72-.06,1.44-.09c19.82-.69,39.66-1.53,59.48-.72,12.32.5,24.64.11,36.93.75,12.47.65,25,.39,37.41,1.08,9,.5,17.92.24,26.84.9,9.11.67,18.25.21,27.32.92,7,.55,14.06.4,21,1.43,4.89.72,9.87.81,14.81,1.25,5.25.47,10.49,1.07,15.74,1.5,6.22.52,12.39,1.39,18.58,2.11a265.67,265.67,0,0,1,30.19,5.36c12.46,2.93,25.09,5,37.67,7.22,18.1,3.22,36.29,5.86,54.33,9.41,14,2.74,28,5,41.93,8,18.77,3.94,37.54,8,56,13.43a252.88,252.88,0,0,1,35.53,13.09c10.2,4.79,19.63,10.81,27.46,19a81.63,81.63,0,0,1,13.7,19.6c5.44,10.77,9.09,22.18,12.11,33.81,5.42,20.91,9.9,42,13.21,63.38,1.72,11.05,3.22,22.14,4.26,33.3.67,7.16,1.65,14.29,2.44,21.44.42,3.81.76,7.63,1.06,11.46.77,10.2,1.57,20.4,2.23,30.61.73,11.33,1.13,22.68,2,34,.58,7.35.51,14.71.92,22.05,1.38,24.3.95,48.62.6,72.92-.16,11.35-1,22.68-1.53,34-.35,7.35-.73,14.69-1.19,22-.48,7.5-1.06,15-1.62,22.48-.32,4.15-.76,8.28-1,12.43-.9,13.24-2.39,26.42-3.82,39.62-2,18.44-4.33,36.84-7.8,55.07-3.86,20.27-8.11,40.46-14.31,60.18-3.46,11-7.83,21.66-14.23,31.35a73.44,73.44,0,0,1-18.61,19.17c-10.22,7.37-21.58,12.48-33.35,16.71-18.55,6.66-37.63,11.38-56.86,15.6-18.13,4-36.34,7.44-54.61,10.61-11.5,2-23,4.07-34.49,6-14.33,2.44-28.7,4.72-43,7.24-7.71,1.36-15.38,3-23,4.62-10,2.15-20.08,4-30.25,5.11-6.35.73-12.68,1.66-19,2.43-3.65.44-7.31.78-11,1.13-10,1-20,2.13-30.08,2.78q-13.14.84-26.34,1.39C1643.73,837.62,1616.86,837.19,1590,837.17Zm473.17-133.58c1.83-3.92,2.22-5.5,2.15-9.6-1,3.79-2,6.6-2.12,9.62a11.63,11.63,0,0,0-1.66,5.68A11.42,11.42,0,0,0,2063.16,703.59Zm6.72-26.88a43.75,43.75,0,0,0,2.91-13.42,18.13,18.13,0,0,0,1.59-5.49c.87-4.72,1.79-9.43,2.53-14.16,1.48-9.47,3-18.94,4.24-28.44,1.26-9.66,2.25-19.36,3.27-29.05.91-8.74,1.73-17.48,2.53-26.23.49-5.41.86-10.83,1.26-16.25.56-7.48,1.15-15,1.61-22.46.49-8.29.65-16.61,1.32-24.89,1-11.79,1.1-23.63,1.38-35.43.5-20.29.53-40.58-.42-60.88-.65-13.89-1.11-27.78-1.94-41.65-.63-10.53-1.21-21.05-2-31.57-.89-11.14-1.67-22.3-2.88-33.41-1.52-14-2.86-28-4.82-41.9s-4.34-27.78-7.15-41.56a41.26,41.26,0,0,0-1.45-4.54,20.87,20.87,0,0,0-1.93-8.65,23,23,0,0,0-.31-3.33c-1.39-5.73-2.84-11.46-4.3-17.18-.07-.26-.37-.46-.57-.71-.52.79-.09,1.55.1,2.29,1.22,4.95,2.44,9.91,3.72,14.86.36,1.38.92,2.7,1.39,4.05a21.21,21.21,0,0,0,1.91,8.66c.18,1.58.25,3.19.56,4.75,4.13,20.54,7.15,41.24,9.48,62.06,1.6,14.29,3.11,28.58,4.34,42.91,1.12,13.05,2.06,26.12,2.9,39.19.76,11.64,1.36,23.29,1.88,34.94.41,9.26.64,18.53.85,27.79.36,16.13.6,32.28-.4,48.42-.57,9.24-.36,18.52-1,27.78-.64,8.44-.85,16.92-1.26,25.38,0,.47-.08.95-.12,1.43-.5,6.21-1,12.42-1.52,18.63-.75,9.55-1.45,19.11-2.21,28.67-.33,4.14-.65,8.28-1.11,12.41-1.07,9.52-2.3,19-3.33,28.56-1.42,13-3.46,26-5.54,38.91-.86,5.36-2.4,10.61-2.51,16.09a46.18,46.18,0,0,0-2.87,13.44c-1.42,2.74-1.67,5.81-2.5,8.71a2.14,2.14,0,0,0,.31,2.14C2068.73,683.85,2069.79,680.39,2069.88,676.71ZM10.69,541.38c-.1-1.52.2-3.1-.71-4.87-.11,1.93-.09,3.45.72,4.86,0,6.29,1.39,12.37,2.59,18.48.87,4.4,1.84,8.79,5.06,12.24a9.87,9.87,0,0,1,1,1.63,161.7,161.7,0,0,0,11.84,16.87A123.8,123.8,0,0,0,56.45,614c.86.6,1.62,1.58,2.91,1.32.55-1.18-.11-2.19-.42-3.23C58,608.84,57,605.64,56,602.43c-1.6-5.2-3.14-10.41-4.83-15.57-.88-2.73-1.57-3.19-4.21-2.61-5.53,1.22-10.44-.31-15.11-3.06a33.27,33.27,0,0,1-10-9.49c-5-6.87-7.74-14.65-9.46-22.87C11.84,546.34,11.76,543.74,10.69,541.38ZM53,617.19c4.21,4.82,9.29,8.72,13.86,13.17.27.26.61.1.89-.43-1.14-2.15-2.25-4.56-4.3-6.08a53.47,53.47,0,0,0-10.49-6.62,32.54,32.54,0,0,0-2.77-2.62,131.9,131.9,0,0,1-28.21-29.22c-.53-.75-.83-1.77-1.9-2-.56,1,.12,1.85.35,2.73,3.26,12.54,7.26,24.86,11.23,37.19C41.18,653,51.8,682.26,64.05,711c6.09,14.29,12.8,28.26,22.07,40.85a122.32,122.32,0,0,0,18.24,20.28c11.2,9.68,24.21,16.08,38,21.07,13.08,4.73,26.28,9.14,39.47,13.53a263.15,263.15,0,0,0,40.33,10.46,32.76,32.76,0,0,0,9.44.24,14.13,14.13,0,0,0-3.69-2c-11-4-21.93-8-32.89-12-8.4-3.09-16.93-5.86-25.06-9.65-7.82-3.66-15.74-7.14-22.58-12.56a14.73,14.73,0,0,0-4.27-2.13,85,85,0,0,1-27.49-17.2,105,105,0,0,1-26.73-38.78c-.66-1.62-1.26-3.28-2-4.89a1.17,1.17,0,0,0-1.93-.55c-3,2.14-6.46,2.59-10,2.66a5.82,5.82,0,0,1-5.56-3.08A45.69,45.69,0,0,1,66.82,712c-2.79-6.81-5.51-13.64-8.23-20.47-.47-1.19-.83-2.42-1.25-3.63-1.55-4.5,1.56-7.47,5.59-7a27.8,27.8,0,0,1,9.24,2.36c.59.3,1.14,1.26,2.08.38-.22-.59-.4-1.2-.66-1.78q-7.86-17.24-15.74-34.47c-3.65-8-7.33-16-11-24a11.27,11.27,0,0,1-1-2.68c-.58-3.24,1.62-5.22,4.81-4.38A23.43,23.43,0,0,1,53,617.19ZM921.71,183.32c-1.48-4-4.83-6.25-8.25-8.33-6.64-4-13.93-6.44-21.32-8.55-30-8.54-60-17.14-90.16-24.9q-65.06-16.68-130.27-32.68c-4.4-1.07-8.17-.1-12,1.57a.86.86,0,0,0-.39.73,1,1,0,0,0,.62.61c5.63,1.18,11.3,2.19,16.9,3.49,31.31,7.24,62.44,15.2,93.56,23.22,29.41,7.58,58.71,15.6,88,23.56,17.43,4.73,34.83,9.59,52,15.18a30.7,30.7,0,0,1,11.33,6.06,21.25,21.25,0,0,1,1.33,13.58c-1.17,5.8-2.06,11.65-3,17.49-2.77,16.72-5.59,33.43-8.24,50.17-1.83,11.53-3.49,23.08-5.09,34.64-1.32,9.5-2.49,19-3.66,28.55-.78,6.34-1.56,12.69-2.13,19.06-.83,9.4-1.46,18.81-2.2,28.21-.4,4.94-.9,9.87-1.28,14.81-.49,6.38-1.12,12.75-1.3,19.14-.28,10.23-.24,20.47-.37,30.71,0,2.24,0,4.49-.28,6.71a82.79,82.79,0,0,0-.2,15.34c.55,6.55.52,13.1.7,19.65.06,1.92,0,3.85.21,5.76,1.08,11.13,1.25,22.34,2.54,33.47.91,7.78,1.33,15.61,2.29,23.38q2.58,20.7,5.57,41.35c2.45,16.78,5.35,33.48,8.43,50.15,2.41,13,4.73,26.12,7.09,39.18.51,2.83,1,5.66,1.52,8.5.56,3.12,1.1,3.55,4.05,3.21.63-.08,1.27-.16,1.9-.28,11-2,22-4.1,33.13-5.28,7.15-.75,14.23-2.09,21.43-2.45,4.3-.22,8.6-.68,12.89-1.14,7.15-.76,14.3-1.55,21.5-1.71,1.12,0,2.24-.11,3.35-.19,6.7-.52,13.38-1.21,20.08-1.52,11.34-.53,22.69-.82,34-1.2a13.75,13.75,0,0,0,1.44-.06c9.7-1.32,19.48-.76,29.22-1.46,11.79-.84,23.66-.16,35.48-1,5.74-.4,11.51-.2,17.27-.21,32-.07,64-.22,96-.13,23.19.06,46.38-.34,69.57.8,12.13.59,24.29.56,36.44,1.1s24.62.62,36.91,1.33c6.39.37,12.8.37,19.16.9s12.77.66,19.16.87c.8,0,1.6.11,2.4.17,6.69.51,13.38,1.08,20.07,1.52,7.18.47,14.39.61,21.54,1.29,4.62.44,9.26.54,13.87,1,8.59.82,17.16,1.84,25.76,2.49,6.71.51,13.34,1.53,20,2.42,12.19,1.63,24.35,3.55,36.52,5.37,9.8,1.47,19.59,3,29.38,4.47l27,4.1q18,2.72,36,5.44c9,1.37,18,2.78,27,4.14,9.64,1.46,19.29,2.82,28.92,4.35a208.13,208.13,0,0,0,28.11,2.81,67.11,67.11,0,0,0,26.23-4.74c.47-.19,1.28-.29.91-1.45-1.19.38-2.37.78-3.56,1.13-1.69.5-3.36,1-5.07,1.44-11.24,2.77-22.55,2.12-33.83.45-13-1.92-25.89-4.11-38.84-6.12-17.54-2.71-35.08-5.35-52.61-8.07-15.48-2.4-30.94-4.9-46.42-7.3-17.37-2.7-34.76-5.32-52.14-8-3.79-.58-7.58-1.2-11.34-1.92a2.79,2.79,0,0,1-2.56-3.43,55.57,55.57,0,0,1,1.24-6.11c5.26-21.93,9.55-44.07,13.15-66.33,1.93-12,3.71-24,5.44-36.05.91-6.32,1.57-12.69,2.3-19,.86-7.46,1.72-14.93,2.49-22.4.5-4.77.88-9.55,1.22-14.34.47-6.54.8-13.08,1.27-19.62.82-11.49,1.54-23,1.65-34.49.09-9.92,0-19.84.15-29.76.18-14.24-.84-28.45-1.25-42.68,0-.64-.1-1.27-.14-1.91-.54-7.17-1.06-14.35-1.61-21.52-.41-5.26-.74-10.53-1.29-15.77-1.07-10-2.18-20-3.45-30-1.64-12.84-3.24-25.7-5.24-38.49-3.94-25.13-8.47-50.14-14.27-74.92a23.16,23.16,0,0,1-.59-3.29,2.54,2.54,0,0,1,2-2.86,28.14,28.14,0,0,1,3.74-.86q16.09-2.56,32.21-5.07l34.09-5.4c8.68-1.38,17.36-2.77,26-4.11,11.37-1.76,22.75-3.47,34.12-5.22,9.79-1.5,19.58-3.05,29.37-4.54,9.32-1.42,18.65-2.76,28-4.2,10.13-1.55,20.25-2.8,30.54-2.59a81.12,81.12,0,0,1,18.06,2.12c2.32.57,4.59,1.37,6.9,2,.51.14,1.18.6,1.53-.28a2,2,0,0,0-1.43-1.14,74.44,74.44,0,0,0-12.41-3.59,97.2,97.2,0,0,0-24.85-1c-6.67.56-13.3,1.75-19.94,2.74-16.13,2.4-32.24,4.9-48.37,7.27-18.65,2.74-37.33,5.37-56,8.07q-26.34,3.81-52.67,7.66c-17.87,2.61-35.7,5.47-53.74,6.75-9.72.68-19.42,1.75-29.14,2.47-10.36.76-20.73,1.5-31.11,1.91-9.74.38-19.45,1.48-29.22,1.27a16,16,0,0,0-2.4.09c-10.34,1.31-20.77.56-31.13,1.53-8.11.75-16.29.38-24.45.84-12.44.69-24.93.41-37.4,1-8.78.45-17.59.16-26.39.32-9.91.17-19.83-.39-29.73.57a23.82,23.82,0,0,1-5.27-.13,63.31,63.31,0,0,0-8.14-.4c-15.2,0-30.4.06-45.6-.09-18.23-.18-36.45,0-54.69-.72-16.13-.66-32.3-.4-48.44-1.18-5-.24-9.89-.28-14.84-.74s-10.27,0-15.34-.56c-8.76-1-17.57-.75-26.34-1.35-10.36-.71-20.73-1.25-31.1-2-8-.56-15.93-1.23-23.89-1.95q-13.85-1.26-27.65-2.89-20.73-2.49-41.19-6.54A14.12,14.12,0,0,1,921.71,183.32Zm-279-70.5a5.28,5.28,0,0,0-1.08-.76c-9.3-3.46-18.61-6.87-27.9-10.34a17.16,17.16,0,0,0-6.59-.92c-9.12.24-18.17,1.41-27.22,2.39-11.44,1.23-22.83,2.89-34.24,4.39-17.11,2.25-34.17,4.89-51.22,7.6q-36.7,5.83-73.18,13-47.08,9.17-93.7,20.55-40.31,9.85-80.07,21.78C223,177.88,198.73,186,174.82,195.16c-27.37,10.47-54.19,22.15-79.86,36.36-8.26,4.57-16.31,9.49-24.28,14.53a11.75,11.75,0,0,0-5.62,7.39c-.65,2.64-1.54,5.22-2.35,7.81q-3.08,9.86-6.16,19.69c-.23.76-.56,1.62.25,2.17.6.41,1.23-.08,1.77-.4.82-.49,1.62-1,2.43-1.55a428.45,428.45,0,0,1,39.71-22.34q20.6-10.31,42-19c39.27-16.1,79.56-29.17,120.41-40.55,27.27-7.6,54.73-14.42,82.33-20.68,20.43-4.63,40.91-9,61.49-12.88,16.17-3.05,32.39-5.87,48.58-8.85,15.41-2.83,30.89-5.17,46.38-7.51,7.74-1.17,15.48-2.36,23.23-3.44q11.88-1.66,23.77-3.11c6.66-.81,13.34-1.52,20-2.24q11.91-1.29,23.83-2.49A48.92,48.92,0,0,1,598,138a4.72,4.72,0,0,1,1.86.38,1.47,1.47,0,0,1,.93,1.52,2.2,2.2,0,0,1-.6,1.23,5.15,5.15,0,0,1-3.6,1c-4,.1-8,.53-11.95,1-7.62.84-15.28,1.38-22.89,2.29-12.38,1.48-24.75,3-37.09,4.77-13.93,2-27.82,4.18-41.71,6.36-25.43,4-50.76,8.52-76,13.45-39.87,7.79-79.5,16.57-118.8,26.89s-77.92,21.84-115.9,35.93c-20.85,7.73-41.42,16.15-61.46,25.83-17.59,8.5-34.8,17.67-51.1,28.48a9,9,0,0,1-3.86,1.84,1.7,1.7,0,0,0-1.65,1.94c0,1.28,0,2.56.09,3.83.2,3.35.55,6.7.66,10.05.53,14.88-.5,29.74-1,44.6q0,.48-.06,1-1.28,14.08-2.54,28.18a251.68,251.68,0,0,1-4.16,28c-1,5-1.9,10.16-4.33,14.68a20.6,20.6,0,0,0-2.32,11.05c.11,2.71.06,5.44,0,8.16a10.68,10.68,0,0,0,1.36,5.51,40.41,40.41,0,0,1,3.88,10.8q2.28,9.82,3.6,19.81c1.28,9.67,2.38,19.35,3.06,29.09.75,10.69,1.66,21.37,1.66,32.09,0,13.11.65,26.23-.7,39.32-.23,2.24.22,2.94,2.4,3.25a11.35,11.35,0,0,1,4.7,2.25,410.53,410.53,0,0,0,43.68,25c14.43,7.28,29.19,13.85,44.14,20,36.74,15.07,74.42,27.42,112.56,38.37,28,8,56.18,15.19,84.53,21.75q36.69,8.49,73.65,15.6c17.27,3.32,34.58,6.37,51.89,9.45,8.34,1.48,16.71,2.79,25.08,4.08q14.69,2.28,29.4,4.39c7.9,1.14,15.82,2.26,23.74,3.29,6.5.84,13,1.51,19.52,2.29,8.72,1,17.45,2.1,26.23,2.62a10.36,10.36,0,0,1,4.22.73,1.81,1.81,0,0,1,1.15,1.9,1.68,1.68,0,0,1-1.63,1.51c-2.55,0-5.12.07-7.66-.15-4.61-.41-9.21-1-13.82-1.51-9.53-1.07-19.07-2-28.58-3.26-12.35-1.63-24.69-3.44-37-5.34-16.9-2.6-33.81-5.17-50.66-8.09q-34.26-5.93-68.32-13c-35.71-7.36-71.21-15.61-106.45-25-39-10.38-77.48-22.21-115.27-36.33-20.08-7.51-39.86-15.76-59.22-25a440.27,440.27,0,0,1-53.2-29.63c-.84-.56-1.59-1.67-2.89-1.08-.06.18-.19.35-.15.47q4.74,15.6,9.5,31.19a7.87,7.87,0,0,0,3.59,4.33c4.18,2.67,8.27,5.49,12.52,8,24.29,14.67,49.8,26.9,76,37.74,37.28,15.44,75.55,28,114.28,39.27,31.8,9.22,63.89,17.28,96.16,24.67,18.7,4.27,37.45,8.32,56.28,12q26.82,5.24,53.71,10.11c12.43,2.24,24.91,4.17,37.37,6.17,9.63,1.54,19.26,3,28.9,4.44,8.23,1.18,16.48,2.18,24.72,3.23,6.66.85,13.31,1.74,20,2.46,5.56.59,11.14,1,16.71,1.44a17.12,17.12,0,0,0,7.52-1.15c8.7-3.24,17.41-6.41,26.12-9.61a14.17,14.17,0,0,0,2.17-1,1,1,0,0,0,.24-1.61,13.38,13.38,0,0,0-2.24-1.78,122.54,122.54,0,0,1-14.44-11.07A120.15,120.15,0,0,1,607,724.82a176.58,176.58,0,0,1-18.18-32.1c-8.74-19.5-14.73-39.89-19.3-60.71-3.47-15.77-6.17-31.69-8.26-47.72-1.72-13.16-3-26.36-4.31-39.57-.41-4.13-.77-8.28-1-12.43-.47-9.74-.84-19.49-1.25-29.23,0-.64-.07-1.28-.11-1.92-.48-8.46-1.29-16.91-1.4-25.38q-.4-31.9-.26-63.83c.08-14.07.62-28.14,1.07-42.2.23-6.87.65-13.74,1.11-20.6.35-5.26.86-10.51,1.37-15.76.65-6.68,1.48-13.35,2.06-20,1-11,2.68-21.91,4.42-32.8q2.64-16.56,6.22-33A421.3,421.3,0,0,1,584,194.94c5.48-15.37,12.07-30.3,20.83-44.18,8-12.7,17.44-24.07,29.89-32.71a43.94,43.94,0,0,1,5.71-3.51C641.25,114.15,642.34,114,642.7,112.82ZM2038.27,442.41c-.1-24.43,0-42.66-1.1-60.88-.53-8.78-.83-17.57-1.23-26.35,0-.48-.08-1-.13-1.44-.81-8.75-1.69-17.5-2.43-26.26-1.07-12.59-2.21-25.16-3.83-37.69-1.59-12.37-3.54-24.69-5.63-37-2.28-13.41-5.22-26.69-8.48-39.88-2.11-8.53-4.31-17.05-7.75-25.2-6.12-14.5-16.2-24.78-31.3-29.75-7.44-2.44-15-4.44-22.68-6.13-22.64-5-45.48-9-68.27-13.22-19.34-3.57-38.73-6.84-58.08-10.33a9.35,9.35,0,0,0-6,.78,17.54,17.54,0,0,0-6.3,5c-5.09,6.38-10.34,12.62-15.51,18.93-3.65,4.46-7.33,8.89-10.89,13.42-2.34,3-2.26,4.64.45,7a30,30,0,0,1,7.18,9.5c.7,1.43,1.57,2.78,2.33,4.19,2.07,3.79,4.38,7.47,6.14,11.4,3.67,8.17,7.1,16.44,10.53,24.72a494.62,494.62,0,0,1,25.14,78.49c2.4,10.44,4.66,20.93,6.51,31.47,1.75,9.92,2.9,19.94,4.29,29.92,1,7.44,1.68,14.92,2,22.44.23,5.11.51,10.23,1.11,15.3,1.07,9.08,1,18.21,1.35,27.3a318.43,318.43,0,0,1-.47,35.49c-.7,9.56-1,19.15-2,28.7-1.27,12.57-2.77,25.1-4.73,37.59a611.35,611.35,0,0,1-14.64,68,503.12,503.12,0,0,1-24.05,68.79c-4,9.08-8.51,17.91-13.22,26.63a30.37,30.37,0,0,1-7.18,8.93c-.61.51-1.24,1-1.82,1.56-2,1.92-2.26,3.58-.7,5.9.45.67,1,1.26,1.5,1.88,1.7,2.12,3.4,4.25,5.11,6.35q10.46,12.85,20.92,25.67c3.14,3.82,7,6,12.16,4.83.46-.11,1-.1,1.43-.19,18.58-3.2,37.18-6.3,55.74-9.64q30.45-5.49,60.81-11.35a244.18,244.18,0,0,0,30.22-7.59c13.08-4.28,23-12.35,29.29-24.67a90.22,90.22,0,0,0,6.16-15.08c3.72-12.42,6.73-25,9.44-37.69q5.13-23.93,8.38-48.19c1.19-8.88,2.22-17.77,3.2-26.67.93-8.42,1.74-16.85,2.53-25.29q.8-8.36,1.38-16.73c.46-6.54.82-13.08,1.19-19.63.52-9.25,1.23-18.51,1.46-27.77C2038.19,464.05,2038.19,450.13,2038.27,442.41ZM1544.78,804.05a65,65,0,0,0,7.85,0c8.42-1.13,16.92-.74,25.37-1.47,10-.86,20.1-1.23,30.14-2,11.31-.87,22.64-1.48,34-2.21.79-.05,1.59-.15,2.38-.22,6.37-.52,12.74-1.08,19.11-1.57,5.74-.43,11.51-.56,17.21-1.25,4.14-.51,8.29-.57,12.43-1,5.57-.54,11.13-1.09,16.7-1.55s11.17-.73,16.74-1.23c8.91-.8,17.8-1.75,26.71-2.56,8.6-.78,17.2-1.44,25.8-2.19,4-.34,8-.74,11.92-1.15,4.77-.5,9.53-1.07,14.3-1.55,7.63-.77,15.27-1.43,22.89-2.25,7.15-.77,14.29-1.68,21.42-2.55q12.85-1.56,25.69-3.2c1.57-.2,3.12-.63,4.68-1,.12,0,.31-.22.3-.31,0-.28-.07-.66-.26-.8a4.27,4.27,0,0,0-1.27-.66c-9-3-17.91-5.93-26.89-8.85-9.25-3-19-4.61-27.52-9.67a5.43,5.43,0,0,0-3.71-.56c-8.53,1.31-17.06,2.61-25.61,3.77-7,1-14,1.73-20.94,2.52s-14,1.48-21,2.22c-7.94.83-15.88,1.72-23.84,2.47-8.43.8-16.89,1.31-25.3,2.25-4,.44-8,.59-12,1-5.41.52-10.81,1.11-16.22,1.54-5.9.48-11.82.64-17.7,1.27-4.46.47-8.92.67-13.38,1-6.22.45-12.42,1.13-18.63,1.56-9.25.65-18.5,1.18-27.75,1.73a11.14,11.14,0,0,1-2.38-.11,2,2,0,0,1-1.74-2,1.84,1.84,0,0,1,1.46-1.69,23.08,23.08,0,0,1,2.36-.32c5.24-.8,10.53-.69,15.79-1,9.42-.54,18.82-1.28,28.22-1.94.48,0,1-.12,1.43-.15,6.53-.54,13.06-1.09,19.59-1.61,5.42-.42,10.87-.56,16.25-1.27,4.13-.56,8.29-.54,12.42-1,5.4-.62,10.81-1.06,16.22-1.54,4.94-.44,9.9-.63,14.8-1.3,3.5-.48,7-.54,10.51-.92q11.91-1.29,23.83-2.55c7.31-.76,14.64-1.38,21.93-2.24,9.52-1.13,19-2.43,28.53-3.68a23,23,0,0,0,3.29-.61c1.16-.32,2.6.12,3.53-1.22q-13.5-16.57-27-33.1c-4.09-5-3.34-5.14-9.47-2.76-12.2,4.72-24.82,4.29-37.43,3.37-7.15-.53-14.22-2.1-21.33-3.19q-13.27-2-26.54-4.05-18-2.71-36-5.43c-9.17-1.39-18.33-2.81-27.49-4.19q-17.79-2.68-35.57-5.33-14.7-2.21-29.4-4.39c-9.8-1.45-19.59-2.94-29.41-4.26-7-.93-14-1.66-21-2.38-4.93-.51-9.87-.82-14.81-1.24-5.89-.51-11.77-1.14-17.67-1.55-7.33-.51-14.68-.83-22-1.24-.64,0-1.27-.12-1.91-.16-6.85-.52-13.7-1.16-20.56-1.51-10-.52-20.12-.83-30.19-1.23l-1.43-.08c-9.58-.52-19.15-1.14-28.73-1.54-8.62-.36-17.25-.34-25.88-.82-11.65-.65-23.34-.85-35-1-30.87-.44-61.75-.45-92.62-.44-35.83,0-71.66,0-107.47,1.18-4.16.14-8.36-.21-12.47.25-10,1.14-20.13.47-30.18,1.47-6.82.68-13.72.53-20.59.86-11.34.56-22.66,1.29-34,2-8,.52-15.93,1.25-23.89,1.93-9.24.8-18.44,1.82-27.65,2.89-12.39,1.43-24.68,3.46-36.93,5.78a7.58,7.58,0,0,0-5.17,3,33.19,33.19,0,0,1-11.35,9.42,101.82,101.82,0,0,1-20.13,7.7q-20.53,5.86-41.12,11.49c-44.41,12.2-89,23.64-133.69,34.84-12.09,3-24.23,5.89-36.35,8.83a6.82,6.82,0,0,0-3.63,1.81c7.51,2.1,14.95,3.88,22.49,5.33a13.91,13.91,0,0,0,6.13-.59c16.16-3.91,32.31-7.88,48.47-11.79,21.75-5.26,43.49-10.59,65.28-15.68,34.41-8,68.8-16.09,103.3-23.72,23.08-5.1,46.12-10.57,69.71-13.07,7.14-.76,14.28-1.68,21.42-2.51,6.5-.75,13-1.45,19.52-2.23,6.82-.82,13.64-1.71,20.45-2.55,7.14-.88,14.27-1.8,21.41-2.59,5.87-.65,11.71-1.48,17.67-1.32,13.43.37,26.86.34,40.29.79,20.94.7,41.9.21,62.85,1,20.29.74,40.61.21,60.92.94,21.09.76,42.21.21,63.32,1,20.13.74,40.29.37,60.44.91,25.1.67,50.22.36,75.32,1.14,7.19.22,14.4.28,21.59.09a32.38,32.38,0,0,1,13.92,3c17,7.39,34.12,14.56,51.13,22,9.08,4,18.05,8.21,27,12.41a33.37,33.37,0,0,1,5.77,3.4c4.71,3.55,6.36,8.78,4.78,14.49a27,27,0,0,1-6.15,10.73,63.43,63.43,0,0,1-8.65,8.3,60.36,60.36,0,0,0-12.51,13.17C1551.26,794.31,1548.29,798.85,1544.78,804.05Zm271.44-677.92c-4.89-.75-9.29-1.49-13.72-2.08q-12.82-1.69-25.68-3.23c-10-1.19-20-2.36-30-3.43-7.62-.82-15.27-1.47-22.9-2.21-3.82-.36-7.63-.75-11.45-1.13-8.27-.81-16.53-1.66-24.81-2.42-5.25-.48-10.52-.79-15.77-1.22-4.46-.36-8.92-.79-13.37-1.18-5.73-.5-11.46-1-17.2-1.48-6-.46-12.12-.8-18.18-1.23q-11.48-.81-22.94-1.68a21.75,21.75,0,0,1-3.33-.37,2,2,0,0,1-1.8-1.94,1.9,1.9,0,0,1,1.87-1.82,35.86,35.86,0,0,1,6.22.07,116.74,116.74,0,0,0,12,.78c1.28,0,2.55.18,3.83.29,6.21.5,12.42,1,18.63,1.49,5.73.44,11.5.61,17.21,1.31,4,.49,8,.52,12,.93q8.34.84,16.69,1.58c5.1.45,10.2.75,15.29,1.24,8.27.8,16.53,1.73,24.8,2.55,8,.78,15.92,1.38,23.86,2.24,10,1.07,20,2.36,30,3.48,14.14,1.57,28.26,3.31,42.24,5.94a10.19,10.19,0,0,0,7.78-1.15c4.53-2.86,9.61-4.3,14.72-5.65,13.15-3.48,26-7.94,38.89-12.22.7-.23,1.64-.18,1.94-1.47-1.37-.31-2.72-.71-4.09-.9-7.76-1.08-15.52-2.14-23.29-3.13-6.18-.79-12.37-1.51-18.56-2.22-7.62-.87-15.24-1.74-22.86-2.54s-15-1.47-22.43-2.24c-7.79-.8-15.56-1.71-23.36-2.45-8.59-.82-17.19-1.45-25.79-2.24-8.91-.81-17.81-1.75-26.72-2.56-11-1-22-1.89-32.95-2.83A15.39,15.39,0,0,0,1681,81c-1.43,0-2.14.65-1.92,2.09.65,4.41-1.14,8.14-3,11.88a9.56,9.56,0,0,1-6.62,5.08,38.62,38.62,0,0,1-9,1c-10.24.15-20.43-1.17-30.67-1.23-.16,0-.32,0-.48,0-7.48-.58-15-1.18-22.46-1.72a57.42,57.42,0,0,1-18.45-4.93,4.86,4.86,0,0,1-3.23-4.83,46.12,46.12,0,0,1,.27-8.14c.14-.79.29-1.58.36-2.37.23-2.9-.33-3.66-3.29-4.19a30.8,30.8,0,0,0-4.29-.38c-4.48-.16-8.94-.35-13.41-.76-4.92-.46-9.91-.35-14.86-.4-2,0-2.42.77-1.41,2.31,2.82,4.27,5.59,8.58,8.55,12.75a52.38,52.38,0,0,0,10.88,11.42,67,67,0,0,1,9.62,9.36,25.31,25.31,0,0,1,5.58,10,13.34,13.34,0,0,1-5.81,15.43,45.4,45.4,0,0,1-5.9,3.2c-9.75,4.45-19.46,9-29.31,13.21-17,7.3-34.21,14.36-51.3,21.57a20.82,20.82,0,0,1-7.94,1.54c-26.23.4-52.45-.05-78.68.77-29.42.92-58.86.06-88.28,1-29.1.9-58.21.06-87.32,1s-58.21,0-87.32.95c-16.62.55-33.27.3-49.91.37a44.09,44.09,0,0,1-5.74-.33c-8.88-1.11-17.75-2.33-26.62-3.44s-17.78-2.11-26.66-3.21c-11.73-1.45-23.44-3.14-35.2-4.36-9.88-1-19.63-2.7-29.36-4.6-26.83-5.24-53.48-11.36-80.08-17.67q-56.48-13.4-112.88-27.09C752.86,110.84,731,105.3,709.14,99.8a17,17,0,0,0-8-.44c-6.7,1.54-13.4,3.06-20.09,4.63-1,.24-2.23.31-3,1.73a11.56,11.56,0,0,0,4.34,1.53q36.76,9.12,73.54,18.3c27,6.78,54,13.58,80.77,21,17.73,4.89,35.41,9.94,53.11,14.91a130.86,130.86,0,0,1,20.36,7.09c5.4,2.52,10.61,5.43,14.17,10.37,1.86,2.57,4.21,3.62,7.17,4.19,11.3,2.17,22.63,4.12,34.06,5.53,5.55.69,11.09,1.45,16.65,2,4.93.52,9.88.74,14.81,1.28,7.15.79,14.29,1.59,21.49,1.8,1.12,0,2.23.18,3.35.26,6.37.51,12.73,1.14,19.11,1.48,9.9.51,19.81.82,29.71,1.22a13.75,13.75,0,0,1,1.44.07c8.89,1.22,17.88.65,26.81,1.46,8.27.76,16.61.6,24.92.94,14.7.59,29.42.74,44.12,1,25.75.47,51.51.21,77.27.35,7,0,14.07-.07,21.09.6A69.12,69.12,0,0,0,1275,201c2.24-.07,4.47-.29,6.7-.34,20-.44,40,.1,60-1,11.81-.64,23.66-.28,35.48-1,7.65-.49,15.33-.31,23-.87,10.2-.74,20.45-.84,30.67-1.26,8-.34,16-.75,24-1.13.32,0,.64-.06,1-.08,7.81-.56,15.62-1.13,23.44-1.65,6.37-.42,12.77-.65,19.14-1.19,8.91-.76,17.8-1.81,26.71-2.56s17.76-2.25,26.63-3.41c8.08-1.05,16.13-2.31,24.2-3.47,7.59-1.09,15.18-2.16,22.77-3.27,9.8-1.44,19.6-2.92,29.4-4.36s19.61-2.85,29.41-4.3c9.64-1.42,19.28-2.9,28.92-4.32q14.7-2.16,29.42-4.26c8.85-1.28,17.66-2.9,26.57-3.74,12.89-1.21,25.54-.38,37.81,4.07.75.27,1.51.54,2.28.76a3.42,3.42,0,0,0,3.88-1.12c1.74-2.1,3.49-4.17,5.22-6.27ZM651.13,757.25c3.63-.52,7.31-.86,10.89-1.61,10.17-2.13,20.35-4.25,30.45-6.7,31.22-7.57,62.45-15.15,93.56-23.25q55.69-14.49,111.12-30c5.7-1.6,11.37-3.28,17-5.11,4.36-1.41,5.46-3.37,4.93-8-.21-1.91-.45-3.81-.8-5.7q-3.3-18.18-6.66-36.33c-5.64-30.67-10.78-61.42-14.37-92.41-1.25-10.8-2.39-21.62-3.31-32.44-1.15-13.53-2.28-27.09-2.29-40.7a19.27,19.27,0,0,0-.1-2.4,141.66,141.66,0,0,1-.59-19.65c.12-7.67.5-15.34.7-23,.3-11.67-.19-23.35,1-35,.6-5.72.82-11.48,1.31-17.21q1.18-14.1,2.51-28.18c.73-7.64,1.49-15.28,2.4-22.89,1-8.42,2.25-16.8,3.29-25.21,2.08-16.82,4.66-33.57,7.38-50.3,2.82-17.36,5.88-34.68,8.82-52,.35-2,.61-4.12.83-6.19.57-5.18-1.14-8.09-6-10.19-1.76-.75-3.59-1.34-5.41-1.94-11.7-3.87-23.56-7.18-35.41-10.52-30.94-8.71-61.94-17.2-93.07-25.2-26.49-6.81-53-13.4-79.56-20-14.89-3.72-29.82-7.28-44.94-10-1.74-.31-3.47-.8-5.17,0a101.87,101.87,0,0,0-9.93,4.77c-8.18,4.92-14.87,11.59-21,18.83a138.82,138.82,0,0,0-15.62,23.57c-9.47,17.53-16.3,36.14-21.88,55.21-3.15,10.74-5.85,21.61-8.2,32.56s-4.47,21.95-6.14,33q-3.17,20.87-5.3,41.87c-1.48,14.48-2.48,29-3.26,43.51-.65,12.13-.71,24.3-1,36.45-.68,26.06-.26,52.14.68,78.2.42,11.5,1.35,23,1.7,34.49s1.2,22.67,2.22,34c.42,4.61.63,9.26,1.25,13.85,1.47,10.93,2.7,21.89,4.37,32.8a445.48,445.48,0,0,0,13.78,62.24,248.53,248.53,0,0,0,16.74,41.81c3.16,6.15,6.94,11.87,10.67,17.64A109.44,109.44,0,0,0,623,737.22,96.42,96.42,0,0,0,641.19,752a26.78,26.78,0,0,1,4.65,3.37A7.07,7.07,0,0,0,651.13,757.25ZM1161,778.31c8.48.1,16.94-.5,25.41-.71,21.74-.54,43.49-.14,65.24-1,20.13-.75,40.29-.14,60.44-.89,22.53-.83,45.09,0,67.63-1.15,9.89-.51,19.81-.26,29.72-.79,13.25-.71,26.54-.37,39.8-1.1,10.37-.58,20.77-.33,31.16-.82,17.09-.79,34.2-1,51.31-1.25,8.32-.12,16.62-.42,24.92-1,1.43-.1,2.91,0,4.16-.87a29.47,29.47,0,0,0,9.38-10.1c1.53-2.91,1-5.56-1.14-7.95a16.1,16.1,0,0,0-5-3.75c-2.3-1.12-4.59-2.27-6.94-3.27-25.61-10.89-51.56-21-77.48-31.07a17.22,17.22,0,0,0-6.07-1.2c-7.35-.1-14.7-.43-22-.62-21.58-.54-43.17-.19-64.75-1-19.65-.72-39.33-.19-59-.9-21.56-.79-43.16-.24-64.75-1-19.65-.71-39.33.05-59-.95-8.93-.45-17.91-.07-26.86-.26a5.52,5.52,0,0,0-5.88,3.8c-1.82,4.26-3.84,8.44-5.76,12.66q-10.65,23.36-21.29,46.72c-.86,1.89-1.71,3.79-2.48,5.72-.68,1.67-.18,2.52,1.48,2.65,1.11.08,2.24,0,3.35,0ZM1215.2,167c15-.45,30-.32,45.09-.78,28.6-.87,57.24-.12,85.86-1,29.89-.88,59.8,0,89.7-1,12.14-.41,24.31-.31,36.46-.28a28.53,28.53,0,0,0,10.74-2c22.89-9.05,45.82-18,68.72-27.1,4.15-1.65,8.21-3.57,12.29-5.4a20.05,20.05,0,0,0,6.3-4.32,6.51,6.51,0,0,0,1.42-7.51,13.44,13.44,0,0,0-1.35-2.54,38.19,38.19,0,0,0-7.7-7.85,6.69,6.69,0,0,0-4-1.31c-5.75-.27-11.49-.72-17.24-.89-10.55-.31-21.09-.23-31.64-.9-9.88-.63-19.81-.32-29.72-1-10.2-.65-20.44-.31-30.67-1s-20.45-.31-30.68-1c-9.88-.64-19.8-.37-29.71-.94-12-.7-24-.45-36-1-16.45-.69-32.93-.21-49.4-1-16.12-.74-32.28-.47-48.43-.89-21.25-.56-42.52-.76-63.78-1.22-4-.08-8,0-12-.12-10.7-.25-21.41-.58-32.12-.79-5.33-.11-5.4,0-3.25,4.8q13.8,30.87,27.68,61.72c2.28,5.07,2.4,5.12,7.9,5.13ZM1752,168.91a123.71,123.71,0,0,0-20.61,1.52c-10,1.46-19.91,3-29.86,4.49q-14.7,2.24-29.38,4.5c-8.53,1.33-17,2.7-25.58,4-11.37,1.76-22.75,3.44-34.12,5.22q-20.37,3.19-40.72,6.48c-8.83,1.41-17.68,2.77-26.5,4.26-5.56.94-5.59,1-4.41,6.44,3.86,17.66,7.39,35.37,10.42,53.19,2.71,15.92,5.23,31.87,7.19,47.9,1.09,8.88,2.16,17.77,3.1,26.67,1,9.22,1.82,18.45,2.63,27.68.48,5.57.82,11.16,1.16,16.74.55,9.1,1.18,18.19,1.55,27.29.27,6.71.24,13.43.27,20.15.08,21.11.1,42.22-1.23,63.31,0,.64-.06,1.28-.11,1.91-.84,10.36-1.61,20.72-2.56,31.06-1,10.67-1.94,21.34-3.26,32-1.57,12.69-3.45,25.34-5.3,38-3.62,24.69-8.38,49.17-13.86,73.51-.59,2.65-1.24,5.3-1.73,8-.41,2.15.15,2.86,2.41,3.21,4.41.71,8.84,1.35,13.26,2q16.83,2.57,33.64,5.16c13.11,2,26.2,4.18,39.3,6.22,11.53,1.79,23.07,3.48,34.59,5.26s23.05,3.62,34.57,5.43c11.37,1.79,22.72,3.61,34.09,5.36,9,1.38,18,2.67,27.18,2.41a61.89,61.89,0,0,0,14.22-2c9.38-2.5,16.62-7.6,21.33-16.44a404.77,404.77,0,0,0,18.87-40.92,514.88,514.88,0,0,0,18.5-57,561.18,561.18,0,0,0,12.61-59.08c1.24-8,2.8-16.06,3.45-24.21.3-3.82.84-7.62,1.25-11.44.62-5.88,1.52-11.73,1.54-17.66a42.73,42.73,0,0,1,.23-4.8c1.12-9.54.72-19.16,1.42-28.73.61-8.31-.41-16.62-.61-24.93-.12-4.95-.12-9.92-.43-14.86-.36-5.9-1.12-11.78-1.46-17.68-.57-10.22-1.42-20.4-2.95-30.53-2.1-13.91-3.66-27.89-6.88-41.62-2.78-11.83-4.91-23.8-8.61-35.41-3-9.45-5.63-19-8.78-28.41-3.87-11.53-8.52-22.77-13.12-34A275.61,275.61,0,0,0,1792.08,184c-2.68-4.6-6.09-8.13-11-10.21a65.31,65.31,0,0,0-7.67-2.72C1766.52,169.11,1759.51,168.81,1752,168.91ZM74.47,237.75a4.34,4.34,0,0,0,3.26-1.08c23-14,47.23-25.61,72.05-36,36.49-15.26,73.94-27.74,111.9-38.75q41.47-12,83.55-21.69,22.42-5.17,44.94-10,31-6.58,62.12-12.12c11.64-2.09,23.29-4.13,35-6s23.35-3.69,35-5.45q11.61-1.74,23.26-3.27c8.39-1.11,16.8-2.07,25.2-3.16,8.24-1.06,16.48-2.14,24.78-2.68a7.29,7.29,0,0,0,1.84-.4.87.87,0,0,0,.12-.76,3.13,3.13,0,0,0-1.16-.78c-12.94-4.69-26-9.14-39.28-12.6a64,64,0,0,0-16.13-2.08c-23.51,0-47-.56-70.52.61-11.49.57-23,.17-34.52,1-8.45.59-16.93.24-25.4.95-7.64.63-15.33.36-23,1s-15.64.87-23.46,1.27l-1.44.11c-7.33.54-14.65,1.13-22,1.58-7.5.47-15,.8-22.5,1.2-.64,0-1.28.12-1.91.18-5.25.52-10.49,1.07-15.75,1.53s-10.53.69-15.77,1.23c-11.6,1.2-23.19,2.54-34.78,3.82-3.66.4-7.31.78-11,1.22-6.35.77-12.67,1.74-19,2.31a53.14,53.14,0,0,0-12.61,2.72,256,256,0,0,0-36.38,16.11,63.92,63.92,0,0,0-12.53,8.82,149.64,149.64,0,0,0-14.17,14.32c-7.64,8.84-14.64,18.19-21.44,27.69-10.51,14.7-20.75,29.6-31.83,43.89-.68.89-1.3,1.83-1.91,2.76q-5.9,9-11.78,18.1C76.39,234.67,75.56,236,74.47,237.75ZM596.18,774.34c-3.43-.45-6.43-.87-9.43-1.22-9.2-1.09-18.43-2-27.6-3.25-18.36-2.57-36.7-5.22-55-8.21q-31.71-5.17-63.26-11.17-49.47-9.42-98.43-21.22-45-10.85-89.34-24.15c-35.38-10.69-70.29-22.68-104.32-37.15C124.06,657.44,99.9,645.74,77,631.57a12.91,12.91,0,0,0-2.13-1.08c-.2-.08-.56.15-.81.3a.47.47,0,0,0,0,.44c.44.84.85,1.71,1.37,2.5,3.34,5.08,6.71,10.14,10,15.22,1.58,2.41,2.94,5,4.69,7.24,8.23,10.63,15.85,21.69,23.6,32.66,10,14.24,20,28.58,31.56,41.66,6.82,7.7,14.12,14.9,23.16,20a244.55,244.55,0,0,0,39.81,17.76,29.79,29.79,0,0,0,7,1.49c3.82.34,7.6,1,11.41,1.46,6,.75,12,1.5,18.07,2.2q11.66,1.35,23.33,2.6,10.72,1.17,21.45,2.25,8.58.87,17.17,1.66c4.77.44,9.54.87,14.33,1.19,6.85.46,13.72.75,20.57,1.24,11.15.8,22.29,1.9,33.45,2.51,8.3.45,16.57,1.46,24.89,1.28a14.8,14.8,0,0,1,2.4.13c8.41,1.15,16.91.69,25.36,1.43,7.95.69,16,.46,23.95.94,10.53.64,21.09.71,31.64,1,19,.47,38.06.16,57.09.3a66.9,66.9,0,0,0,18-2.49c11.91-3.19,23.53-7.23,35.19-11.18A3.93,3.93,0,0,0,596.18,774.34Zm527.7-606.42v-.31c12.31,0,24.63,0,36.95,0a40.56,40.56,0,0,0,5.72-.43c1.74-.26,2.23-1.13,1.67-2.7-.48-1.35-1.1-2.65-1.69-4q-7.44-16.65-14.9-33.28c-4.2-9.34-8.48-18.63-12.63-28-1-2.18-2.35-3.32-4.75-3.2-1,0-1.92,0-2.88,0-7.52,0-15,0-22.56.1-29.58.23-59.16-.05-88.75.71-16.3.42-32.63.24-48.94.3q-40.07.16-80.12.72c-31.66.48-63.34.29-95,.39-1,0-1.92,0-2.88,0-.63,0-1.34,0-1.69.65s0,1.21.43,1.72c2.45,3.16,5,6.24,7.32,9.5a12.38,12.38,0,0,0,7.78,5c24.42,5.76,48.79,11.77,73.21,17.55,28.31,6.7,56.64,13.28,85.16,19.06a322.41,322.41,0,0,0,34.55,5.46c6.2.57,12.37,1.44,18.56,2.21l27.1,3.41c9.2,1.16,18.39,2.35,27.58,3.48,6.66.82,13.3,1.73,20.05,1.63C1103.4,167.8,1113.64,167.92,1123.88,167.92Zm-10.63,538v-.27c-6.72,0-13.44.17-20.15-.05-7.23-.24-14.35.69-21.49,1.55-6.82.81-13.63,1.7-20.45,2.53q-9.75,1.2-19.5,2.33c-7.14.84-14.28,1.69-21.42,2.49-6.67.76-13.35,1.36-20,2.23-12.53,1.63-24.91,4.1-37.26,6.68-28.78,6-57.46,12.53-86.09,19.23-21,4.91-42,9.94-63,14.82a7.68,7.68,0,0,0-4.74,2.88c-2.71,3.57-5.52,7.06-8.27,10.58a3,3,0,0,0-.49.83c-.23.65-.22,1.33.58,1.53a9.83,9.83,0,0,0,2.36.28c12.62.15,25.25.31,37.87.74,10.7.37,21.43.17,32.14.21q24.21.09,48.42.79c9.59.29,19.19.14,28.78.17q24.22.09,48.43.79c9.59.29,19.19.14,28.78.17,16,.05,32,.34,48,.78,11.5.32,23,.09,34.54.23,11,.13,22.06-.22,33.07.62a3.18,3.18,0,0,0,3.47-2c.4-.87.78-1.76,1.18-2.63q3-6.54,6-13.09,11.16-24.44,22.3-48.87a21.76,21.76,0,0,0,1.13-3.14,1.17,1.17,0,0,0-.89-1.46,5.65,5.65,0,0,0-1.42-.19c-10.07-.27-20.13-.59-30.2-.76C1127.64,705.79,1120.44,705.88,1113.25,705.88Zm618.12,121.3A39,39,0,0,0,1739,827c4.6-.53,9.2-1.07,13.79-1.73,7.43-1.07,14.88-2.09,22.26-3.41,6.77-1.2,13.45-2.83,20.19-4.19,20-4.08,40.31-7,60.46-10.48q23.63-4.1,47.23-8.24c13.7-2.43,27.31-5.28,40.88-8.3,13.74-3.05,27.43-6.29,40.86-10.55a225.49,225.49,0,0,0,26.53-9.79,102.43,102.43,0,0,0,19.51-11.22,84,84,0,0,0,9.75-8.52,6.7,6.7,0,0,0,2.28-3.59c.52-3.89,2.4-7.28,4.07-10.71A175.36,175.36,0,0,0,2057,708.31a569.22,569.22,0,0,0,13.23-57c2.38-13.22,4.39-26.51,6-39.84,1.58-13.49,3.24-27,4.32-40.53.9-11.32,2.22-22.59,2.78-33.94.26-5.1.72-10.2,1.07-15.31.53-7.49,1.13-15,1.53-22.48.33-6.23.52-12.46.84-18.69.61-11.81.81-23.65,1-35.48.19-9.43,0-18.86-.5-28.29-.51-10.06-.34-20.14-.92-30.21-.7-12.13-1.24-24.27-2-36.39q-1.24-19.4-2.89-38.74c-.84-10-1.87-20.05-2.92-30.07q-2-19.08-4.75-38.06a591.71,591.71,0,0,0-12.71-63c-3.67-14.1-7.86-28-14.16-41.22-.89-1.88-2-3.78-2.28-5.77-.39-3.16-2.19-5.2-4.25-7.25-7.69-7.67-16.77-13.3-26.54-17.85-11.63-5.42-23.78-9.43-36.06-13-17.21-5-34.73-8.77-52.25-12.46-12.36-2.6-24.81-4.73-37.2-7.16-19.14-3.76-38.41-6.75-57.63-10-14.34-2.46-28.67-5-42.86-8.22a224.8,224.8,0,0,0-25-4.4c-7-.81-14-1.72-20.94-2.56-1.11-.13-2.23-.17-3.35-.21s-2.36,0-3.76,0a3.69,3.69,0,0,0,2.27,1.44c9.94,3.71,20.33,5.62,30.7,7.57,9.1,1.72,18.25,3.22,27.48,4.18,7.31.76,14.59,1.79,21.88,2.72,5.87.74,11.77,1.26,17.59,2.28q20.54,3.6,41,7.58,28.49,5.49,56.93,11.19c10.19,2.07,20.28,4.56,29.92,8.6a47.29,47.29,0,0,1,12.08,6.8,13.33,13.33,0,0,0,4.68,2.32,89.61,89.61,0,0,1,15,6.42c15.12,8,26,19.94,33.21,35.37a108.5,108.5,0,0,1,7.84,24.14c4.46,21.78,8.56,43.62,10.9,65.75a26.56,26.56,0,0,0,2.32,8.28c1.65,3.65,3.33,7.27,4.87,11,4.56,10.93,9.09,21.87,11.67,33.49q3.24,14.52,5.11,29.28c1.49,11.58,2.55,23.2,3.44,34.83.9,11.8,1.41,23.62,2,35.44.48,10.54.32,21.1.85,31.65.43,8.62.19,17.27.09,25.9-.1,7.84-.4,15.67-.66,23.5-.37,11.66-.61,23.34-1.27,35-.29,5.26-.52,10.54-1,15.8-.75,8.6-1.63,17.18-2.47,25.77-1,9.87-2.17,19.71-3.93,29.47a169.67,169.67,0,0,1-10.19,35.93c-2.85,6.78-5.6,13.6-8.77,20.25a30.74,30.74,0,0,0-3,10.05c-.25,2.38-.6,4.75-.89,7.13-2.32,18.75-5.9,37.27-9.74,55.75-2.3,11-5.67,21.64-11.16,31.54a72.59,72.59,0,0,1-22.56,25.1,88,88,0,0,1-22.34,10.94c-1.81.6-3.68,1.05-5.12,2.49a26,26,0,0,1-6.83,4.4,110.59,110.59,0,0,1-25.78,8.92c-15,3.47-30.07,6.16-45.16,8.94-24.05,4.43-48,9.61-72.24,12.71-6.34.81-12.69,1.56-19,2.32-6.5.77-13,1.32-19.52,2.31q-13.5,2.05-26.93,4.63a134.82,134.82,0,0,0-21.82,5.58A12.63,12.63,0,0,0,1731.37,827.18Zm98.77-74.78c1.43,1.79,3.29,2.27,5,2.81,4.43,1.36,9,2.38,13.33,4,5.59,2,11.27,2.16,17,1.67,3-.25,6-.62,9-1.07,9.63-1.44,19.27-2.9,28.9-4.45,19.42-3.12,38.7-7,57.79-11.7a218.36,218.36,0,0,0,29.76-9.22,32.9,32.9,0,0,0,16.24-14.34,142.24,142.24,0,0,0,9-18.56c6.65-16.36,11.16-33.35,15-50.54q5-22.73,8.44-45.76c1.41-9.48,2.81-19,4-28.5,1.24-10.32,2.18-20.67,3.28-31,1.21-11.29,2-22.61,2.81-33.93.42-6.07.59-12.15,1.08-18.2,1-12,1.16-24,1.42-35.94.4-18.54.47-37.09-.45-55.65-.65-13.25-1.11-26.51-2-39.75-.81-12.13-1.66-24.25-3-36.33-1.39-12.71-2.58-25.45-4.26-38.13-2.91-21.87-6.42-43.66-11.28-65.21A321.47,321.47,0,0,0,2019,180.21,152.25,152.25,0,0,0,2008.77,158a33.42,33.42,0,0,0-17-14.92c-2.37-.95-4.78-1.81-7.19-2.67-12.39-4.37-25.15-7.42-37.94-10.32-13.26-3-26.6-5.59-40-7.89-14.65-2.51-29.32-4.94-44.14-6.29a16.8,16.8,0,0,0-6.17.31q-10.38,2.92-20.75,5.94a12.89,12.89,0,0,0-2.2.94c-.56.27-1.22.65-1,1.38.11.34.69.58,1.1.77a3.48,3.48,0,0,0,.93.17c11.66,2,23.33,4,35,6.1q32.77,6,65.52,12.23a376.56,376.56,0,0,1,40.58,9.59c14.22,4.37,25.38,12.5,32.63,25.76a91.53,91.53,0,0,1,7,16.78c4,12.69,6.85,25.65,9.58,38.64,2.11,10,3.83,20.11,5.49,30.2,2.74,16.73,5,33.52,6.33,50.43.35,4.46.85,8.91,1.26,13.37.79,8.44,1.73,16.86,2.29,25.31q1.17,17.47,1.84,35,.72,18.69.93,37.4c.11,9.75.08,19.5-.41,29.26-.61,12-.08,24-1,36-.5,6.21-.45,12.46-.9,18.69-.66,8.92-1.12,17.86-2,26.77-1.14,11.46-2,22.94-3.22,34.38-1.51,14.32-3.6,28.56-5.94,42.76-2.79,16.88-6.23,33.64-10.43,50.25-2.39,9.46-4.75,18.93-8.68,27.91-5.8,13.27-14.81,23.4-28.31,29.26a119.46,119.46,0,0,1-17.35,5.54c-15.64,4.08-31.56,6.83-47.43,9.78-25.31,4.7-50.67,9.08-76,13.44C1837.58,750.8,1833.92,751.07,1830.14,752.4ZM1960.32,777a11.21,11.21,0,0,0-1.42,0,181,181,0,0,1-25.8,1.83c-4.32,0-8.64,0-12.95-.06s-8.31-.44-12.45-.62c-7.43-.31-14.93-1.76-22.34.55a35.76,35.76,0,0,1-6.14,1c-10.78,1.39-21.55,2.79-32.34,4.09q-15.45,1.88-31,3.53c-7.62.81-15.27,1.44-22.9,2.16q-6,.57-11.93,1.16c-4.76.49-9.53,1-14.3,1.49-5.09.46-10.22.62-15.28,1.28-4.14.54-8.29.63-12.42,1-5.25.52-10.49,1.09-15.74,1.53-5.57.47-11.19.59-16.73,1.28-4.29.54-8.6.63-12.9,1-5.88.56-11.77,1.09-17.66,1.55s-11.81.7-17.7,1.23c-8.11.72-16.22,1.55-24.37,1.82-.8,0-1.59.12-2.39.18-7,.54-14,1.13-21,1.61-6.69.45-13.43.47-20.09,1.24-7,.81-14,.77-21,1.39-8.75.77-17.56.86-26.35,1.11a11.3,11.3,0,0,0-6.33,1.75,66,66,0,0,1-10.19,5.36,160.36,160.36,0,0,1-25,8.43c-8.18,2.14-16.43,4-24.64,6a159.13,159.13,0,0,0,18,1.41c10.37.5,20.74,1.4,31.11,1.54,35.83.49,71.66.32,107.49.25,16.63,0,33.24-.93,49.87-1.18a28.72,28.72,0,0,0,3.34-.26c5.52-.76,11.19-.45,16.57-2.26a3.74,3.74,0,0,1,1-.11,78.78,78.78,0,0,0,20-4.61c6.63-2.33,13.11-5.13,20-6.75,8.57-2,17.17-3.79,25.86-5.16q12.06-1.9,24.18-3.54c6.49-.86,13-1.49,19.52-2.25,6-.71,12.09-1.22,18.07-2.23,14.33-2.44,28.64-5,42.94-7.7,14.61-2.71,29.2-5.53,43.8-8.34,9.88-1.9,19.76-3.84,29.46-6.62C1952.42,780.88,1956.63,779.51,1960.32,777ZM162.43,784.47l-.3.74c.52.32,1,.69,1.57,1A199.06,199.06,0,0,0,183.94,795q31.53,11.59,63.05,23.18a20.16,20.16,0,0,0,4.6,1.27c6,.73,12.06,1.44,18.11,1.9,9.88.77,19.77,1.7,29.67,1.89,14.55.29,29.08,1.42,43.64,1.2,9.12-.14,18.24-.1,27.36,0,10.55.17,21.1.63,31.65.81,14.87.24,29.74.47,44.61.82,18.39.43,36.78.28,55.17-.58,8.94-.41,17.89-.8,26.83-1.32,3.73-.22,7.72-.15,11-2.78a4.52,4.52,0,0,1,2.26-.73c3.49-.38,7-.88,10.5-1,6.23-.15,12.48-.23,18.71,0a91,91,0,0,1,14.28,1.52,57.23,57.23,0,0,0,11.87,1.17q7-.11,13.92,0c7,.13,14.08-.07,21.09.76,2.69.32,5.44.12,8.16.18a4.67,4.67,0,0,0,3.78-1.72c1.91-2.15,3.89-4.25,5.83-6.38a8.89,8.89,0,0,0,.61-.74c.71-1,.31-2-.89-2-7.35-.29-14.69-.44-22-.94s-14.69-.35-22-.89c-8.45-.62-16.94-.38-25.4-1-6.85-.53-13.74-.61-20.6-.85-9.91-.35-19.8-1.06-29.71-1.3-8.95-.22-17.9-.73-26.84-1.11l-1-.07c-8.77-.52-17.55-1.11-26.32-1.55-9.42-.48-18.87-.63-28.27-1.32-5.43-.4-10.85-.62-16.28-.84-.8,0-1.6-.09-2.4-.14-8-.53-15.94-1.1-23.92-1.57-7.5-.46-15-.81-22.51-1.21-.32,0-.63-.07-.95-.09-7.49-.54-15-1.1-22.48-1.61-6.37-.43-12.78-.59-19.13-1.28-4.31-.47-8.62-.53-12.92-.92-5.88-.53-11.77-1.09-17.66-1.59-8.76-.76-17.54-1.32-26.27-2.25-11.6-1.24-23.17-2.72-34.75-4.17-1.58-.19-2.92,0-3.76,1.38-2.45,4.15-6.44,5.29-10.86,6.12-6.92,1.29-13.75.23-20.54-.55a327.12,327.12,0,0,1-39.09-7.4C170.15,786.39,166.29,785.42,162.43,784.47Zm1.79-700.39a12.47,12.47,0,0,0,1.84-.19,401.74,401.74,0,0,1,49.83-9.77,98.74,98.74,0,0,1,18.67-.36c4.76.32,9.13,1.82,11.64,6.44a6,6,0,0,0,.57.76,2.63,2.63,0,0,0,2.54,1c2.54-.3,5.08-.6,7.61-.95,11.71-1.61,23.47-2.75,35.26-3.67,4.62-.35,9.23-.79,13.85-1.17,6.52-.55,13.05-1.13,19.58-1.61,6.05-.44,12.12-.74,18.17-1.17,6.69-.49,13.37-1.15,20.06-1.56,8.14-.5,16.28-.82,24.42-1.22a13.74,13.74,0,0,0,1.44-.09c7.92-1.2,15.95-.81,23.92-1.51,9.38-.82,18.83-.89,28.25-1.28l1.44-.08c9.09-.54,18.17-1.18,27.27-1.6,10.69-.5,21.4-.81,32.1-1.2.32,0,.64,0,1,0,10-1.34,20.12-.54,30.16-1.52,7.14-.7,14.36-.37,21.55-.9,8.76-.65,17.57-.41,26.35-1,8-.56,16-.44,23.95-.87,14.05-.74,28.12-.9,42.18-1.31,1.28,0,2.56,0,3.84-.14a1,1,0,0,0,.81-1.73A62.19,62.19,0,0,0,645,49.23a3.85,3.85,0,0,0-2.63-1c-1.28,0-2.56-.07-3.84,0-8.94.28-17.89.64-26.83.85-5.6.12-11.2,0-16.8.05a22,22,0,0,0-5.24.43c-8.77,2.15-17.78,1.87-26.7,2.07-4.59.1-9.25-.33-13.88-.59-3.51-.19-7-.56-10.07-2.59a7.4,7.4,0,0,0-3.18-1c-4-.45-8-.84-11.93-1.13-2.71-.2-5.43-.18-8.15-.29-12.13-.52-24.26-1.41-36.39-1.49-17.1-.1-34.21-.31-51.32.41-20.12.85-40.28.07-60.42,1-13.24.62-26.52.39-39.79.92q-20.58.81-41.21,1.32c-10.55.28-21.09.7-31.63,1a11.48,11.48,0,0,0-3.74.71q-18,6.72-36,13.33C204.18,67.35,193,71.22,181.9,75.34A79.9,79.9,0,0,0,164.22,84.08Zm1380.19,696.6c-5-.13-9.9.53-14.85.69-13.43.42-26.86.26-40.29,1-10.85.6-21.73.26-32.61.84-13.72.73-27.5.35-41.24,1.14-8.77.51-17.57.18-26.37.79-10,.71-20.13.52-30.2,1-14.69.69-29.42.39-44.13,1-18.21.73-36.45.16-54.69.91-20.61.84-41.26.09-61.88.93-13.75.56-27.52.31-41.28.4-6.24,0-12.48.07-18.72,0a3.81,3.81,0,0,0-3.64,1.77q-3.65,5.66-7.43,11.19a27.5,27.5,0,0,0-3.57,8.34c-.33,1.2.17,1.92,1.37,2,1.44,0,2.88,0,4.31-.07,3.36-.16,6.71-.41,10.06-.52,13.43-.44,26.86-.17,40.3-.82,15.8-.77,31.66-.27,47.48-1,13.9-.68,27.82-.18,41.74-.87,15.8-.78,31.66-.26,47.48-1.05,13.9-.69,27.82-.19,41.74-.87,15.8-.78,31.66-.26,47.48-1,13.9-.69,27.82-.18,41.74-.87,15.8-.79,31.65-.29,47.48-1,10.38-.49,20.8-.26,31.2-.38,2.87,0,5.79-.54,8.6-.16a6.88,6.88,0,0,0,6.7-2.74c.82-1,1.67-1.94,2.41-3,3.71-5.21,7-10.73,11-15.73.79-1,.31-1.77-1.06-1.79C1550.49,780.65,1547.45,780.68,1544.41,780.68Zm-400.25-719-17.75-.36c-1.05,0-1.57.58-1.3,1.49a29.49,29.49,0,0,0,3.52,8.35c2.6,3.85,5.09,7.76,7.57,11.67a2.84,2.84,0,0,0,2.73,1.48c14.71-.07,29.41.08,44.12.65,17.25.68,34.53.23,51.8,1,15,.67,30.05.36,45.08.89,18,.63,36.13.44,54.19,1.15,6.87.27,13.78-.06,20.63.45,11.33.84,22.69.45,34,1.37,8.11.65,16.28.39,24.44.88,10.52.63,21.09.41,31.63,1,9.41.57,18.85.49,28.28.86,12.78.5,25.57.7,38.35,1.17,7.83.28,15.66.16,23.49.77,6.37.5,12.79.25,19.19.29a2.48,2.48,0,0,0,1.71-.58c.68-.74.05-1.52-.44-2.12A149.11,149.11,0,0,1,1546.48,79a32.21,32.21,0,0,0-5.29-6.18c-.84-.77-1.79-1.59-3-1.31-3.85.94-7.64-.14-11.46-.21-12.31-.22-24.61-.16-36.92-.85s-24.61-.28-36.92-1c-12.13-.67-24.29-.26-36.44-1s-24.29-.28-36.44-.95c-12.44-.7-24.93-.28-37.39-1-12.13-.68-24.29-.28-36.44-1s-24.61-.28-36.92-1-24.61-.26-36.92-1c-12.12-.69-24.29-.6-36.43-.89C1178.69,62.47,1161.43,61.72,1144.16,61.65Zm334.78-16.1c2.18.5,3.67.88,5.16,1.19a300.84,300.84,0,0,1,29.21,7.68c9.3,3,18.41,6.48,26.57,12a9.14,9.14,0,0,0,5.48,1.32c12.64,0,25.24.78,37.82,1.86a5.55,5.55,0,0,0,4.47-1.23,11.73,11.73,0,0,1,5.75-2.25,48.37,48.37,0,0,1,10.48-1c4.95.17,9.92.19,14.87.16q25.44-.11,50.86-.28c1.28,0,2.57-.06,3.84,0,2.44.18,3.36,1,3.79,3.51.26,1.57.31,3.18.54,4.76a3.47,3.47,0,0,0,3.44,3.34c6.2.56,12.4,1.2,18.6,1.74,5.42.47,10.84.78,16.25,1.27,8.59.79,17.17,1.71,25.76,2.5s17.2,1.38,25.78,2.22c11.13,1.09,22.23,2.46,33.36,3.48,11.94,1.1,23.83,2.49,35.74,3.8q20,2.19,39.93,5.09c4.42.64,8.83,1.46,13.17,2.52a17,17,0,0,0,5.16.57c8.13-.45,16.27-1,24.42-1.17,13.27-.32,26.54-.31,39.72,1.72a3.18,3.18,0,0,0,2.64-.39c-1.8-.75-3.35-1.47-5-2.06a189.1,189.1,0,0,0-28.26-7.48q-26.1-5.16-52.24-10.18c-12.24-2.36-24.45-4.89-36.76-6.87-12.14-2-24.36-3.47-36.57-4.91-13.5-1.6-27-3.4-40.28-6-11.15-2.21-22.19-4.73-32.77-9.07-4.13-1.69-8.47-2.88-12.75-4.19-8.21-2.52-16.77-2.1-25.19-2.77s-16.61-.31-24.92-.86c-9.72-.64-19.48-.43-29.23-1-10.53-.61-21.09-.48-31.64-.91-16-.64-32-.47-48-1-10.54-.37-21.11-.08-31.67-.08a47.8,47.8,0,0,0-4.79.13c-10.18,1.1-20.45.48-30.64,1.59C1487.34,44.66,1483.49,44.62,1478.94,45.55ZM916.43,60.8v0H815.68c-1,0-1.92,0-2.87,0A3.41,3.41,0,0,0,810,62.32a22.31,22.31,0,0,0-1.29,2c-4.13,7.22-8.23,14.45-12.94,21.31-.36.52-.82,1.22-.28,1.73a2.65,2.65,0,0,0,1.74.5c2.71-.12,5.42-.43,8.13-.49,24.93-.58,49.88,0,74.81-.92,24.13-.85,48.28-.17,72.42-.93,31-1,62-.24,93-.94,27-.62,54-.36,81.07-.49,1.11,0,2.23,0,3.35-.14a1.17,1.17,0,0,0,.84-1.81,15.16,15.16,0,0,0-1-1.65c-3.51-5.15-7.23-10.17-9-16.3a3.67,3.67,0,0,0-4-2.81c-.8,0-1.6,0-2.4,0-34.21-.26-68.42.17-102.64-.45C980.08,60.34,948.25,60.8,916.43,60.8Zm62.89,751V812q36.46,0,72.92,0c14.08,0,28.15.11,42.22.16,6.56,0,13.11-.06,19.67,0,2.73,0,4.73-.83,5.45-3.61,1.37-5.24,4.64-9.42,7.55-13.82.85-1.29,2.67-2.5,2-4.11-.84-2-3.09-1.16-4.74-1.19-23.66-.39-47.32-.07-71-.87-24.44-.82-48.91,0-73.37-1-17.56-.7-35.16-.16-52.74-.9-18.68-.79-37.4-.21-56.1-1-17.56-.74-35.17.07-52.74-1-6.86-.4-13.75-.14-20.63-.17a17.1,17.1,0,0,0-2.86.17,1,1,0,0,0-.84,1.43,7.57,7.57,0,0,0,.9,1.68c4.27,6.39,8.1,13.05,11.76,19.79a6.2,6.2,0,0,0,6.11,3.64c12.14,0,24.29.34,36.43.42C892.65,811.94,936,811.77,979.32,811.77ZM2072,436.05h-.18c0-5.28,0-10.56,0-15.84-.1-9.27-.11-18.55-.44-27.82-.4-11-1.06-22-1.68-33.05-.31-5.58-.67-11.17-1.2-16.74-.77-8-1.73-15.89-2.6-23.83a256,256,0,0,0-4.53-26.95c-2.3-10.51-6.07-20.54-10.17-30.44-2.26-5.47-4.74-10.85-7.12-16.26a8.26,8.26,0,0,0-2.73-3.86,2,2,0,0,0-1.32-.18c-.15,0-.33.53-.33.82a6.26,6.26,0,0,0,.17,1.42q4.45,24.3,7.51,48.81c1.31,10.63,2.71,21.25,3.61,31.93.35,4.14.79,8.27,1.14,12.41.58,6.85,1.17,13.7,1.65,20.55.45,6.54.65,13.1,1.18,19.63.9,11.16,1.27,22.35,1.5,33.53.51,25.11.46,50.22-.82,75.31q-.55,11-1.13,22c0,.48-.09,1-.13,1.43l-1.53,19.12c-.42,5.26-.73,10.53-1.28,15.77-1.08,10.34-2.26,20.66-3.46,31-1.51,13-3.27,26-5.52,38.93q-2,11.1-3.84,22.21a1.6,1.6,0,0,0,.41,1.26c.4.37.91,0,1.28-.27a12,12,0,0,0,3.14-4.76c3.66-8,7.18-16.05,10.4-24.25a163.82,163.82,0,0,0,8.05-27.59c2.3-11.45,3.62-23,4.94-34.64,1.64-14.31,2.58-28.66,3.45-43,.75-12.28,1-24.6,1.25-36.91C2071.91,455.88,2071.9,446,2072,436.05ZM679.09,781.78c-3.2-.43-5.4-.82-7.62-1-5.89-.47-11.82-.63-17.69-1.3-4.45-.52-8.92-.66-13.38-1.07-6-.56-12.09-1.16-18.15-1.55a52,52,0,0,1-10-1.31,7.65,7.65,0,0,0-4.69.18c-1.81.63-3.64,1.22-5.45,1.85-13.88,4.88-27.79,9.67-42,13.6a73.61,73.61,0,0,1-20.33,2.95c-21.27-.18-42.54.41-63.81-.8-9.89-.56-19.81-.46-29.72-.9-14.53-.64-29.06-1.23-43.59-2-10.7-.53-21.38-1.06-32.06-2-9.23-.78-18.49-1.3-27.74-1.94-9.4-.65-18.81-1.25-28.21-2-8.61-.66-17.2-1.44-25.8-2.19-3-.26-6-.54-9.06-.89-6.66-.79-13.32-1.65-20-2.46-3-.37-6-.73-9.05-1-1.86-.18-2.59.39-3,2.25a5.81,5.81,0,0,0-.21,1.42,1.91,1.91,0,0,0,1.29,1.84,7.75,7.75,0,0,0,1.85.41q13.1,1.54,26.19,3c3.81.43,7.63.78,11.45,1.15,5.56.55,11.12,1.13,16.69,1.6s11.19.59,16.73,1.31c4.46.58,8.93.55,13.39,1,6.36.59,12.73,1.12,19.11,1.55,7.17.49,14.38.59,21.53,1.32,5.11.52,10.22.53,15.32.91,7.33.54,14.65,1.15,22,1.57,8.62.5,17.25.82,25.87,1.22.8,0,1.59.1,2.39.15,8.14.52,16.26,1.12,24.4,1.53,10.06.51,20.13.85,30.19,1.26.64,0,1.28.1,1.92.13,8.93.51,17.86,1.1,26.8,1.5,11,.5,22.05.85,33.07,1.26a7.73,7.73,0,0,1,1,.06c9.54,1.24,19.16.55,28.74,1.45,7.46.7,15,.51,22.51.94,13.25.74,26.53.79,39.79,1.38,3.82.16,6.17-1,8.2-4.33a72.33,72.33,0,0,1,18.14-19.63C676.83,783.7,677.54,783.07,679.09,781.78ZM611.73,96.34c.59-.11.91-.15,1.21-.23,7.67-1.89,15.57-1.43,23.35-2.29,5.55-.62,11.15-.8,16.73-1.22q11.22-.85,22.45-1.77c1.1-.09,2.2-.26,3.29-.46a.94.94,0,0,0,.52-1.51,19,19,0,0,0-1.81-1.55,76.82,76.82,0,0,1-18.29-20.13c-.44-.67-.9-1.32-1.36-2a4,4,0,0,0-3.24-1.78c-1.27-.05-2.56-.06-3.83,0-9,.3-17.89.17-26.84.81-9.88.69-19.81.35-29.71,1.06-7.64.56-15.32.34-23,.87-10.68.73-21.4,1-32.1,1.2S518,68.66,507.48,68.49c-.32,0-.64,0-1,.05-10.37.56-20.73,1.17-31.11,1.66-9.57.45-19.16.78-28.74,1.17-.32,0-.64,0-1,.06-8.77.54-17.53,1.14-26.31,1.61s-17.56.8-26.34,1.2l-1.43.1c-8.29.56-16.58,1.14-24.87,1.66-6.85.43-13.74.53-20.57,1.25-4.78.5-9.57.56-14.35,1-7.16.58-14.33,1.13-21.49,1.7-4.94.39-9.88.71-14.81,1.17q-13.37,1.28-26.7,2.69c-5.56.59-11.11,1.32-16.66,2a5.5,5.5,0,0,0-1.38.36,2.42,2.42,0,0,0,.31,4.61,29.34,29.34,0,0,0,4.78,0c3-.25,6-.62,9.05-1,9.19-1.14,18.38-2.31,27.64-2.82,4.15-.22,8.28-.67,12.41-1.11,7.15-.76,14.3-1.53,21.5-1.67,1.28,0,2.56-.07,3.83-.16,7-.52,14-1.14,21-1.57,7.81-.49,15.64-.82,23.46-1.21a13.74,13.74,0,0,0,1.43-.1c7.12-1.18,14.35-.78,21.52-1.43s14.68-.44,22-1c9.24-.66,18.53-.39,27.79-1,11.33-.68,22.69-.58,34-.85,19.34-.48,38.7-.28,58-.19a72.36,72.36,0,0,1,18,2.18c9.91,2.59,19.67,5.64,29.33,9l22.2,7.71C610.13,95.91,611.06,96.14,611.73,96.34Zm807.94,728.81-.08-.55c-2.66-.57-5.31-1.11-8-1.73a16,16,0,0,1-5.72-2.4c-1.05-.75-2.18-1.56-2-3,.21-1.64,1.5-2.33,2.94-2.81a16.93,16.93,0,0,1,5.19-.84l5.75-.11a3.92,3.92,0,0,0,3.29-1.67,1.21,1.21,0,0,0,.25-.85.91.91,0,0,0-.61-.6c-1.11-.09-2.24-.12-3.35-.11-8.48.1-16.94.27-25.42.62-16,.67-32,.28-48,1.06-13.73.66-27.5.19-41.25.86-15.81.78-31.66.26-47.49,1-13.57.68-27.17.22-40.76.85-16.61.76-33.26.31-49.89,1.08-9.42.44-18.87.23-28.31.33-1.92,0-3.85,0-5.76.19-2.55.28-5.08.66-7.59-.2a2,2,0,0,0-2.15.64l-11.07,11.33c-.33.35-.6.88-.25,1.27a1.88,1.88,0,0,0,1.23.5c1.43.07,2.88,0,4.32.05,8.48.13,16.94-.45,25.41-.66,20.63-.51,41.26-.09,61.89-.91,19.18-.76,38.38-.17,57.57-1,18.22-.77,36.46-.2,54.69-.9,20.62-.78,41.26-.32,61.89-1C1390.86,825.09,1405.27,825.27,1419.67,825.15Zm1.88-774.73c-8.29-.56-16.55-.69-24.81-1-15.49-.64-31-.25-46.52-1-14.53-.7-29.09-.25-43.65-.93-15.32-.72-30.69-.26-46-1-14.37-.69-28.77-.3-43.16-.9-16.93-.7-33.89-.37-50.84-1.06-10.7-.43-21.43-.23-32.15-.35a68.93,68.93,0,0,1-7.19-.31c-4.79-.55-9.58-.28-14.38-.37-.61,0-1.47,0-1.55.76a2.47,2.47,0,0,0,.7,1.67c2.84,3,5.81,6,8.58,9.05,1.75,1.95,3.56,3,6.27,2.33a18.22,18.22,0,0,1,4.31-.06c12.31.1,24.62.29,36.92.89,11.18.55,22.38.31,33.57.87,13.09.66,26.21.37,39.32,1,11.49.58,23,.3,34.53.89,12.92.66,25.89.34,38.84,1,11.49.61,23,.39,34.52.89,14.69.63,29.42.42,44.12,1.11,9.74.45,19.52-.12,29.25.91a1.79,1.79,0,0,0,1.78-.44,5.34,5.34,0,0,0-5.08-2.83c-1.76,0-3.52,0-5.28-.13a18,18,0,0,1-6.52-1.41c-2.35-1.12-2.49-3.25-.41-4.88,2.47-1.95,5.4-2.74,8.36-3.45C1417.19,51.2,1419.38,50.84,1421.55,50.42Zm-1187,.43a76.69,76.69,0,0,0-10.43.59,250.66,250.66,0,0,0-34.89,8.61c-13.81,4.56-27.6,9.21-41.4,13.83a164.82,164.82,0,0,0-24.67,10.53,95.8,95.8,0,0,0-23.71,17.76C89.22,112.5,81.26,124.48,74.57,137.3c-5.33,10.21-9.82,20.83-14.18,31.48-11.76,28.73-22.14,58-31.44,87.57-2.35,7.47-4.52,15-6.75,22.51-.22.76-.35,1.55-.5,2.33,0,.13.08.38.17.41.26.08.67.2.8.08.57-.55,1.07-1.18,1.58-1.78,2.79-3.3,5.49-6.68,8.38-9.88,8.11-9,17.69-16.15,27.89-22.55,4.46-2.79,7.2-6.33,9.65-12.26-4.17,4-8,7.84-12,11.54a65.79,65.79,0,0,1-6,4.84,3.16,3.16,0,0,1-4,.2A3.75,3.75,0,0,1,46.77,248a17.91,17.91,0,0,1,1.4-4.06c2.52-5.53,5.09-11,7.64-16.55q9.38-20.25,18.72-40.5c.31-.66.92-1.34.33-2.33-.84.39-1.66.82-2.52,1.17A21.45,21.45,0,0,1,63,187.43c-3.73-.19-5.45-2.43-4.72-6.11a15.58,15.58,0,0,1,.87-2.74q4.88-12,9.78-24a16.18,16.18,0,0,1,2.65-4.54,5,5,0,0,1,4.2-2c3.18.25,6.38.48,9.27,2.1.79.45,1.41,1.41,2.77.91.25-.57.61-1.28.88-2a110.34,110.34,0,0,1,13.13-25C111.35,110.72,123,99.67,138,92.66c6.23-2.92,12.43-5.8,18-9.83a34.58,34.58,0,0,1,3.78-2.08c10.62-5.67,21.84-9.87,33.16-13.88,13.26-4.69,26.48-9.51,39.72-14.28C233.37,52.34,234.3,52.35,234.51,50.85Zm784.2,765.49c-2.47-.06-4.2-.13-5.94-.14-21.1,0-42.2,0-63.29-.11-37.4-.27-74.8.44-112.19-.71-6.23-.19-12.47,0-18.7,0-7.47,0-7.82-.26-3.82,6.62,3,5.12,3,5.14,9,5.16,20.78.07,41.56.19,62.34.22,16.14,0,32.27.4,48.41.7,14.38.27,28.77.16,43.15.2,6.72,0,13.43.07,20.14,0,2.09,0,2.24-.25,1.94-2.12-.57-3.51.15-4.77,3.38-5.62a32.27,32.27,0,0,1,9-1C1014.53,819.6,1016.56,818.9,1018.71,816.34Zm-16-771.9c-2.07,0-3.66,0-5.24,0-15.18.23-30.36-.18-45.54.48-12.77.55-25.57.17-38.36.21l-88.73.23c-1.27,0-2.55,0-3.83.09a2.87,2.87,0,0,0-2.44,1.31,43.13,43.13,0,0,0-4.17,8.07,1.07,1.07,0,0,0,.86,1.45,51.32,51.32,0,0,0,5.26.26l192.31.1c1.44,0,2.88,0,4.32,0a7.55,7.55,0,0,0,1.39-.26c.13,0,.33-.2.32-.29,0-.3,0-.68-.23-.86a5.88,5.88,0,0,0-4-1.43c-2.54-.21-5.09-.47-7.62-.78C1001.44,52.32,1000.27,50.25,1002.7,44.44ZM733.22,61.68c-9.9.07-19.8.16-29.7.61-11.16.5-22.36.3-33.54.41-1.44,0-2.88,0-4.31.12a8.16,8.16,0,0,0-2.3.61.9.9,0,0,0-.5,1.19,15.19,15.19,0,0,0,1.37,2.5C670,76,677.82,82.74,686.47,88.65a7.21,7.21,0,0,0,5.49,1,78.38,78.38,0,0,1,10-.56L746.06,88c.48,0,1,0,1.44,0a3.76,3.76,0,0,0,3.5-2.1c1.47-2.65,3-5.29,4.43-8a4.39,4.39,0,0,0,.74-3.2,25.29,25.29,0,0,1-.1-11.86c.2-.91-.37-1.5-1.3-1.64a5,5,0,0,0-.95,0Zm12.7,749.15c1.92,0,3.84.07,5.75,0,2.19-.1,2.88-.91,2.49-3.08-.42-2.38-1.06-4.83-.32-7.12,1.16-3.57.21-6.57-1.64-9.52A10.25,10.25,0,0,1,751,789c-1.26-3.72-4-5.15-7.71-5.22-.64,0-1.27-.11-1.91-.1-13.59.21-27.13-1.1-40.71-1.17-3.83,0-7.66-.2-11.49-.44a6.21,6.21,0,0,0-4.08.92c-8.35,5.48-15.83,11.89-21.62,20.12-.64.91-1.26,1.85-1.81,2.82a1.39,1.39,0,0,0,.93,2.21,28,28,0,0,0,6.64.75c11.82.22,23.63.24,35.45.82C718.44,810.39,732.21,809.79,745.92,810.83Zm-680-174.1a43.81,43.81,0,0,0,2.19,5.37q12.81,28.39,25.67,56.79a391,391,0,0,0,22.38,42.37,129.78,129.78,0,0,0,19.58,25.37,46.75,46.75,0,0,0,21,11.93c21.15,5.64,42.39,10.9,64.29,12.83a43.5,43.5,0,0,0,14.3-.66,6.46,6.46,0,0,0,3.42-1.57,1.15,1.15,0,0,0,.3-.84,1,1,0,0,0-.52-.7,42.35,42.35,0,0,0-4.69-1c-6.82-.81-13.61-1.78-20.37-3a214,214,0,0,1-36.09-9.57,113.4,113.4,0,0,1-28.32-14.94,74.88,74.88,0,0,1-12.78-11.55A274.9,274.9,0,0,1,115.61,720c-11.06-16.85-21-34.4-31-51.83-5.6-9.69-11-19.49-16.51-29.22C67.62,638.14,67.42,637.1,65.89,636.73Zm0-403.46a7.1,7.1,0,0,0,2.75-3c1.09-1.95,2.12-3.93,3.24-5.87,8-13.85,15.9-27.75,24-41.53,10.92-18.62,22-37.14,35.48-54.1a101.73,101.73,0,0,1,15.09-16,108.29,108.29,0,0,1,29.9-17C195.72,88.28,216,84.67,236.5,82.25a33.26,33.26,0,0,0,3.31-.42,1.41,1.41,0,0,0,.9-.94,1.51,1.51,0,0,0-.6-1.18,11.64,11.64,0,0,0-6.35-1.81,117.41,117.41,0,0,0-24.85,1.28,456.38,456.38,0,0,0-51.48,11.29,44.64,44.64,0,0,0-17.67,9.31,101.67,101.67,0,0,0-16.08,18.34c-9.33,13.25-16.88,27.5-24.11,42-7.8,15.6-14.74,31.58-22,47.43C73.8,215.79,70.05,224.09,65.88,233.27Zm1965.87-27,.45-.24a9.49,9.49,0,0,0-.11-1.42,356,356,0,0,0-10.48-37.38,165,165,0,0,0-10.1-23.81c-3.28-6.09-7.79-10.79-14.26-13.62a191.73,191.73,0,0,0-21.16-7.71c-16.07-4.88-32.4-8.68-48.86-12-10-2-20.09-3.77-30.23-5.09a18.4,18.4,0,0,0-8.52.65c-5.29,1.81-10.64,3.43-16,5.15a6.83,6.83,0,0,0-1.28.61c-.13.07-.29.28-.26.37.08.26.19.62.39.72a4.62,4.62,0,0,0,1.37.36c7.75,1.08,15.53,2,23.24,3.25,20.64,3.47,41.21,7.29,61.55,12.26,11.8,2.88,23.52,6,34.87,10.43a39.42,39.42,0,0,1,21.46,19.52,212.62,212.62,0,0,1,15.09,38.3Q2030.33,201.44,2031.75,206.25ZM2031,671.92c-1,.55-.89,1.55-1.15,2.38-1.9,6.1-3.64,12.26-5.72,18.3-3.64,10.59-7.88,20.95-13.75,30.54a36.07,36.07,0,0,1-17.52,15,177.93,177.93,0,0,1-17.68,6.05c-14.91,4.29-30,7.62-45.26,10.54-12.54,2.41-25.14,4.56-37.74,6.63-7.56,1.25-15.18,2.11-22.77,3.18-.18,0-.31.44-.6.86.77.31,1.47.66,2.21.9,5.47,1.8,11,3.51,16.4,5.38a15.65,15.65,0,0,0,7.08.65c2.86-.34,5.72-.64,8.55-1.1,11.83-1.92,23.62-4,35.33-6.55,16.39-3.6,32.66-7.63,48.51-13.22a99.31,99.31,0,0,0,12.29-5.36,18.9,18.9,0,0,0,6.34-5,45.86,45.86,0,0,0,5.34-8,153,153,0,0,0,7.51-17.11,330.44,330.44,0,0,0,12-40.4C2030.68,674.45,2031.4,673.29,2031,671.92ZM81.77,216.49c.8.06,1.07-.61,1.43-1.07,6.86-8.44,13.35-17.16,19.63-26,9.33-13.17,18.51-26.46,28.37-39.26a200.1,200.1,0,0,1,22.41-24.94,69.92,69.92,0,0,1,14.27-10.48,247.77,247.77,0,0,1,39.87-17.61,33,33,0,0,1,6.5-1.59c7.3-.85,14.59-1.78,21.87-2.7,2.22-.28,4.44-.58,6.63-1,1.62-.33,2.15-1.38,1.91-3.29s-1.11-2.65-2.78-2.66A15.26,15.26,0,0,0,240,86c-3.49.46-7,1-10.45,1.38a240,240,0,0,0-32,6,151,151,0,0,0-30.58,11.13c-10.52,5.31-20.05,12-27.59,21.17a284,284,0,0,0-20.78,28.15C106,173.65,94.12,194,82.51,214.38,82.14,215,81.47,215.6,81.77,216.49Zm-.55,436.74c.83,1.63,1.53,3.19,2.38,4.66q10.22,17.65,20.47,35.27A429.1,429.1,0,0,0,134,738.33a91,91,0,0,0,31.09,25.83c11.89,6.07,24.54,10,37.5,13.07,10.9,2.56,22,4.08,33.07,5.62a26.3,26.3,0,0,0,4.78.16c1.81-.07,2.81-1.47,2.86-3.73,0-1.23-.84-2.06-2.59-2.28-5.71-.72-11.41-1.52-17.13-2a85,85,0,0,1-26-6.14c-8.24-3.52-16.37-7.23-24.45-11.1a90.55,90.55,0,0,1-25.49-18.5,200.33,200.33,0,0,1-15.7-18.11c-10.21-13.15-19.61-26.87-29.17-40.49-6.16-8.77-12.41-17.47-19.14-25.82C83.08,654.13,82.8,653,81.22,653.23ZM1654.72,96.94v-.19c2.4,0,4.8,0,7.2,0,.8,0,1.59-.06,2.39-.08a13.85,13.85,0,0,0,4.68-.91,5.62,5.62,0,0,0,2.68-1.93,14.68,14.68,0,0,0,3-8c.16-4.14-1.06-5.94-5-5.9-.32,0-.64,0-1,0-5.73-.4-11.5-.55-17.19-1.27-4.62-.58-9.25-.59-13.86-1-6.36-.6-12.73-1.07-19.09-1.56q-11.23-.87-22.45-1.68a31.32,31.32,0,0,0-3.35-.1,2.32,2.32,0,0,0-2.44,1.91,52.3,52.3,0,0,0-1.07,10,4,4,0,0,0,2.83,4c4.78,1.87,9.6,3.45,14.81,3.68,5.58.25,11.15.79,16.72,1.15Q1639.18,96,1654.72,96.94ZM662.86,59c2.26-.15,4.65-.41,7-.47,16.12-.41,32.25-.21,48.38-1,10.36-.48,20.76-.27,31.14-.38,1.6,0,3.2-.06,4.79-.16,2.73-.16,4.9-1.21,6.12-3.85.6-1.3,1.45-2.48,2.15-3.74,1.47-2.65,1.13-3.18-2.07-3.25-.8,0-1.59,0-2.39,0-21.72.19-43.44-.16-65.15.81-9.57.43-19.17.17-28.76.34-3.82.07-7.64.42-11.46.7a1.51,1.51,0,0,0-1.11.67,1.6,1.6,0,0,0,.35,1.26c1.93,2.35,4,4.58,5.85,7A5,5,0,0,0,662.86,59Zm431.59,725.89v.15c1.28,0,2.56,0,3.84,0,10.55.24,21.11-.22,31.64.65a5.68,5.68,0,0,0,1.43-.05,2.22,2.22,0,0,0,1.86-1.93c.17-.86-.64-1.73-1.78-1.85-1-.1-1.91-.11-2.87-.12-27.5-.23-55,.13-82.5-1-3.19-.12-6.39,0-9.59,0-22.55-.15-45.09-.13-67.63-.86-12.94-.42-25.91-.12-38.86-.27-15.5-.19-31-.51-46.51-.78-20.94-.36-41.89.17-62.83-.82-10.37-.5-20.79-.17-31.18-.19a20.59,20.59,0,0,0-3.33.27,1.21,1.21,0,0,0-1.13,1.29c0,.57.58.68,1.07.71s1.27.07,1.91.08c12.47.22,24.93.29,37.4.77,18.05.68,36.13.22,54.19,1s36.13.43,54.19.91c23.17.62,46.37.57,69.54,1.16,2.88.08,5.76,0,8.64,0,18.23.08,36.45.25,54.67.83C1075.89,785.15,1085.17,784.91,1094.45,784.91Zm-432.9,27.5c-2.43-.44-4.75.77-6.57,3.45a63.9,63.9,0,0,1-4.4,5.07c-.49.57-1.36,1.09-.87,2,.33.61,1.09.56,1.71.59,3.83.24,7.66.6,11.49.67,13.91.25,27.82.45,41.73.94,15.66.55,31.35.32,47,.49,2.87,0,5.74.37,8.61.5,1.66.07,2.11-.61,1.34-2-1.17-2.09-2.48-4.11-3.58-6.24a4.72,4.72,0,0,0-4.63-2.74c-5.92,0-11.82-.48-17.73-.7-12.3-.47-24.61-.23-36.93-.93C686.63,812.84,674.44,813.62,661.55,812.41ZM1160.87,88.58v-.16c-5,0-9.92,0-14.88,0-1.43,0-2.87.07-4.3.18-.47,0-1,.35-.93.89s.39,1,.72,1.08a11.18,11.18,0,0,0,2.82.42c6.56.1,13.1.49,19.65.68,16.78.48,33.57.21,50.35,1,15.81.71,31.64.29,47.47.91,17.89.69,35.81.36,53.71,1.06,14.53.57,29.09.15,43.64.87,12.6.63,25.25.28,37.87,1,9.08.55,18.21.5,27.31.84,12.46.48,24.93.74,37.39,1.18,7.83.27,15.65.37,23.48.76,11.65.58,23.33.45,35,1.09,8.78.48,17.59,0,26.36.89,3.33.33,6.71.13,10.07.15a7.06,7.06,0,0,0,1.88-.27,1,1,0,0,0,.53-.69,1.06,1.06,0,0,0-.39-.77,4.21,4.21,0,0,0-2.76-.55c-8.79-.17-17.57-.34-26.36-.84-10.2-.58-20.44-.29-30.67-.93-10.52-.66-21.09-.32-31.63-1-9.89-.63-19.81-.29-29.72-.93s-19.8-.32-29.71-1c-8.92-.61-17.88-.31-26.83-.93s-17.89-.54-26.83-1c-12.13-.61-24.29-.35-36.44-.93-14.84-.71-29.72-.27-44.59-1-15.48-.73-31-.37-46.51-.91-19.8-.7-39.64-.29-59.46-1.15C1165,88.51,1162.94,88.58,1160.87,88.58Zm11.22,696.66c12.63-.45,25.26-.34,37.89-.83,20.93-.83,41.89-.12,62.84-1,19.17-.8,38.37,0,57.56-1,13.09-.67,26.21,0,39.32-1,9.4-.68,18.85-.37,28.28-.91,12.12-.69,24.29-.35,36.44-1.06,10.53-.61,21.09-.28,31.64-.84,13.57-.72,27.17-.69,40.76-1,15.66-.39,31.32-1.06,47-1.23,1,0,1.92-.07,2.87-.17.68-.06,1.23-.4,1.21-1.16,0-.56-.54-.8-1-.84a32.74,32.74,0,0,0-3.83-.12c-3.51.16-7,.5-10.53.61-12.62.39-25.26.19-37.88.94-11.33.67-22.69.24-34,.9-12.45.72-24.94.29-37.4,1-11.17.66-22.37.24-33.56.89-12.29.71-24.61.47-36.92.94-20.93.79-41.89.11-62.84,1s-41.89.13-62.83.95c-21.57.84-43.18,0-64.76,1-9.42.42-18.87.23-28.31.32-1.12,0-2.24,0-3.35.12-.84.07-1.59.42-1.58,1.41,0,.83.76,1,1.37,1,1.12.09,2.24.07,3.36.07ZM1084,92.18V91.8h46.07a30.61,30.61,0,0,0,3.83-.19,1.44,1.44,0,0,0,1-.87,1.57,1.57,0,0,0-.68-1.65,4.08,4.08,0,0,0-2.73-.7c-3.2,0-6.4-.08-9.6,0-30.06.5-60.13-.09-90.2.76-29.73.84-59.49,0-89.24,1-24.77.82-49.57.17-74.36.92-20.46.63-40.95.32-61.43.52-6.07.06-12.13.43-18.2.67a2.44,2.44,0,0,0-.94.15,1.18,1.18,0,0,0-.67.58.83.83,0,0,0,.66,1.06c1.9.1,3.81.11,5.72.09,45.1-.47,90.21-.07,135.32-1,36.61-.74,73.25.14,109.88-.85C1053.57,91.83,1068.78,92.18,1084,92.18ZM759.64,69c-.38,3.6,1.63,6.61,5.24,8.74,5.54,3.26,5.26,3,8.09-1.72.09-.14.18-.27.26-.41Q787.38,51.7,801.5,27.76c2-3.44,3.89-7,5.73-10.52a10.07,10.07,0,0,0,.32-8.37c-.5-1.4-1.43-1.81-2.54-.92a69.56,69.56,0,0,0-6.17,5.31c-9.56,9.66-18.53,19.86-27.18,30.33A70.22,70.22,0,0,0,762,59.52,24.63,24.63,0,0,0,759.64,69Zm46.58,791.65a9.6,9.6,0,0,0-1-5.8c-1.3-2.56-2.56-5.15-4-7.64-9.79-16.83-19.57-33.68-29.48-50.45-3.29-5.58-2.31-6.48-9.22-2-4,2.59-5.27,6.3-4.44,10.77a30.6,30.6,0,0,0,2,6.4,67.37,67.37,0,0,0,10,16.8c5.32,6.36,10.68,12.71,16.21,18.9a208.05,208.05,0,0,0,15.46,15.69c2.6,2.36,3.48,2,4.23-1.51C806.15,861.24,806.23,860.6,806.22,860.68Zm-148.61-100c5.86,2.9,7.37,3.13,12.52,2,.47-.11.93-.25,1.4-.36,14.61-3.49,29.24-6.9,43.82-10.49,37.24-9.19,74.52-18.22,111.58-28.09,17.61-4.68,35.14-9.64,52.71-14.44,6.79-1.85,13.57-3.7,20.22-6a63,63,0,0,0,14.29-6.71c.59-.39,1.44-.68,1.26-1.92-.8.21-1.55.38-2.28.6-18.67,5.65-37.49,10.75-56.32,15.84-33,8.92-66,18-99.23,26.09-20.18,4.95-40.33,10-60.53,14.91C684.05,755.27,671,758.39,657.61,760.7ZM18.51,404.08c0,5.12,0,10.24,0,15.36a12.64,12.64,0,0,0,2,6.81,5.2,5.2,0,0,0,5.29,2.55,13,13,0,0,0,5.73-2.3c1.47-.92,1.64-2.09.23-3-3.3-2.1-4.44-5.29-5-8.88A58.9,58.9,0,0,1,26,406c-.05-8,.31-16,.66-24,.48-10.55.94-21.08,2.07-31.58a165.94,165.94,0,0,1,5.13-27.8c1.94-6.81,4.45-13.43,8.91-19a11.39,11.39,0,0,0,2.37-8.91c-.18-1.78-1-2.3-2.53-1.5a21.5,21.5,0,0,0-7,6.47c-5.39,7.2-8.38,15.42-10.18,24.12-1.49,7.21-2.13,14.55-2.91,21.86C21.6,354,21,362.29,20.25,370.57A323.48,323.48,0,0,0,18.51,404.08Zm0,61.32c-.34,11.78.62,22.3,1.34,32.83.66,9.56,1.66,19.1,2.68,28.64.72,6.83,1.34,13.69,2.9,20.4a59.22,59.22,0,0,0,9.91,22.18A20.85,20.85,0,0,0,42,575.51a1.38,1.38,0,0,0,2.21-.92c.5-2.64,1.31-5.22-.8-7.73-5.26-6.24-8.13-13.67-10.28-21.45-4-14.59-5.35-29.55-6.24-44.56-.21-3.51,0-7.06-.33-10.55-.93-9.42-.62-18.85-.68-28.29A48.15,48.15,0,0,1,27,452.5c.54-2.72,1.54-5.27,4.07-6.8s1.82-2.85-.49-4.06a13.44,13.44,0,0,0-4.45-1.73,5.32,5.32,0,0,0-5.72,2.6,12.81,12.81,0,0,0-2,6.83C18.46,455.09,18.47,460.85,18.47,465.4ZM1911.93,774.13c13.45.21,26.88.94,40.29-.56,9.89-1.1,19.6-2.79,28.93-6.38,18.25-7,32.09-18.87,40.65-36.65a102.35,102.35,0,0,0,7.42-21.24c3-12.78,5.26-25.69,7.64-38.59a3.32,3.32,0,0,0-.24-2.74c-.41,1.75-.74,3.14-1.06,4.54a322.85,322.85,0,0,1-15.51,50.88,117.45,117.45,0,0,1-6.85,14.26c-3.7,6.45-8.76,11.37-15.77,14.11-4,1.57-8,3.28-12.08,4.68-17.12,5.89-34.71,10-52.42,13.63C1926,771.51,1918.93,772.78,1911.93,774.13Zm2.78-670.79c1.21.29,2.42.63,3.64.85a544.08,544.08,0,0,1,58.29,13.66,151.72,151.72,0,0,1,24.62,9.31,28.93,28.93,0,0,1,10.25,8.46A63.94,63.94,0,0,1,2019,149c7.24,16.61,12.36,33.91,16.49,51.52.68,2.88,1.34,5.78,2,8.67a4.94,4.94,0,0,0,.25-2.89c-2.4-12.55-4.44-25.17-7.31-37.63a98.24,98.24,0,0,0-9.77-25.93A68,68,0,0,0,2006.84,125a79.57,79.57,0,0,0-25.41-15.1c-11.64-4.43-23.85-6-36.12-6.83A235.06,235.06,0,0,0,1914.71,103.34ZM798.6,117.18a4.22,4.22,0,0,0-.42-1.34c-4.38-5.7-8.77-11.39-13.23-17-1.19-1.51-1.79-1.57-3.66-.29a30.15,30.15,0,0,1-12.46,4.63,55.33,55.33,0,0,1-16.7.15,39,39,0,0,1-5.19-.83c-2.49-.68-3.29-2.46-2.26-4.8.57-1.31,1.42-2.5,2-3.8a1,1,0,0,0-.81-1.41,34.26,34.26,0,0,0-4.3-.13q-17.73.48-35.45,1a6.79,6.79,0,0,0-1.43,0c-.48.11-1.2-.4-1.48.45C713.5,97.06,794.55,116.94,798.6,117.18ZM52.52,245c2.75-.84,3.86-3,4.94-5.09,3.07-6,6.16-11.92,9-18,8.46-18.26,16.39-36.76,25-54.94,5.5-11.54,11.3-22.92,17.72-34a185.66,185.66,0,0,1,16.88-25c1.69-2.06,3.48-4,5.28-6.11-.93-.41-1.39.15-1.86.47a84.86,84.86,0,0,0-13.26,11A104.72,104.72,0,0,0,96.75,141a162.06,162.06,0,0,0-7,17.85c-4.06,11.61-8.26,23.17-13.43,34.35Q65.78,216,55.16,238.85C54.23,240.86,53.4,242.93,52.52,245ZM51.31,622.51c.63,1.67.82,2.28,1.08,2.85C58.19,638,64,650.61,69.78,663.26c3.9,8.58,7.89,17.11,11.31,25.91,3.36,8.64,6.36,17.4,9.39,26.16a104.19,104.19,0,0,0,29.05,44.44,73.19,73.19,0,0,0,8.7,6.69c.47-1.32-.38-1.74-.83-2.29a170.29,170.29,0,0,1-11.21-14.95,337.57,337.57,0,0,1-18.7-32.9c-10.95-21.69-20.36-44.09-30.41-66.19-3.37-7.41-7.09-14.67-10.7-22A12.07,12.07,0,0,0,51.31,622.51Zm653.84,155a3.77,3.77,0,0,0,2.61.86c1.92.08,3.85,0,5.75.24,10.19,1.14,20.46.23,30.66,1.13a1,1,0,0,0,1-1.64c-.6-1.13-1.35-2.18-1.89-3.33-1.21-2.58-.46-4.4,2.18-5.25a14.2,14.2,0,0,1,3.74-.75c4.94-.17,9.84-.85,14.83-.26,5.64.67,11,1.79,15.76,5.11,2.13,1.49,2.42,1.41,3.93-.5,3.28-4.14,6.54-8.29,9.71-12.51,1.21-1.61,3.14-2.82,3.29-5.09,0-.71-1.29-.64-6.3.58Q749.63,766,708.87,776C707.65,776.25,706.34,776.35,705.15,777.51Zm-695.9-434c1.05-7,2.06-14,3.14-20.91a63.3,63.3,0,0,1,6.55-20,39.61,39.61,0,0,1,10.53-12.93C35,285.39,41,282.8,48.19,284.73c.3.08.63.1.94.15a1.62,1.62,0,0,0,1.93-1c.42-1,.78-2.1,1.11-3.16q3.36-10.77,6.67-21.55c.47-1.52.91-3.06,1.3-4.6a1,1,0,0,0-.35-.82,1.27,1.27,0,0,0-.89-.05,2.62,2.62,0,0,0-.86.41,122.48,122.48,0,0,0-20,16.34A140.17,140.17,0,0,0,18.78,295.5a35.86,35.86,0,0,0-4.39,10.57c-2.65,11.23-4,22.66-5.35,34.1C8.92,341.22,8.59,342.34,9.25,343.48ZM820.34,4.13a21.11,21.11,0,0,0-7.11.92,2,2,0,0,0-1.46,2.19,15.62,15.62,0,0,0,.41,2.35,13.71,13.71,0,0,1-1.28,9.77c-1.43,2.68-2.77,5.42-4.3,8q-14.46,24.62-29,49.19c-2.55,4.3-2.64,4.91,2.95,5.88l.48.09a2.33,2.33,0,0,0,2.51-1c.63-.92,1.23-1.87,1.78-2.84,2.74-4.88,5.5-9.75,8.19-14.66,10.17-18.5,20-37.2,30.58-55.46a17,17,0,0,0,1.29-2.56,1.17,1.17,0,0,0-.79-1.52C823.23,4,821.77,4.2,820.34,4.13ZM817.65,867.9v-.19c1.28,0,2.56.06,3.83,0,2-.11,2.35-.75,1.54-2.36-.29-.57-.62-1.12-.94-1.68C814.21,849.93,806.8,836,799.31,822c-5.21-9.72-10.54-19.37-15.86-29-2.18-4-3-4.2-7.29-2.66l-.45.16a1.74,1.74,0,0,0-1.09,2.32,33.12,33.12,0,0,0,1.74,3.41c8.8,15,17.64,30,26.39,45.1,2.25,3.86,4.23,7.88,6.32,11.83a13.49,13.49,0,0,1,1.24,9.31,17.06,17.06,0,0,0-.47,2.83,1.83,1.83,0,0,0,1.61,2C813.51,867.61,815.58,867.72,817.65,867.9ZM42.41,288.42c-5.09,1.12-6.74,1.8-9.51,3.86a36.41,36.41,0,0,0-10.3,12.46,58.34,58.34,0,0,0-5.92,18.15c-1.73,10.56-3.21,21.15-4,31.83-.33,4.3-.74,8.59-1.09,12.89-.52,6.53-1.21,13.05-1.48,19.58-.31,7.51-.28,15-.31,22.53,0,3,.05,6.08.29,9.11.28,3.6,1.45,6.88,4.36,9.27.57.47,1.18,1.12,2.22.4a18.37,18.37,0,0,1-2.11-6.24c-.36-4.93-1.25-9.86-.75-14.81.44-4.47.36-8.94.58-13.41.36-7.49.72-15,1.32-22.48.71-8.75,1.6-17.49,2.55-26.22C19,338.2,19.62,331,21,324a70.85,70.85,0,0,1,4.81-15.54C29.32,300.49,33.67,293.15,42.41,288.42ZM40.74,580c-6.09-3.51-9.92-9-13.26-14.85A66.07,66.07,0,0,1,23,554.53c-3.09-8.67-3.8-17.78-4.78-26.82-.87-8.09-1.44-16.22-2.21-24.32-.92-9.7-1.71-19.41-1.82-29.16,0-1.91-.26-3.82-.35-5.73-.45-8.95-.82-17.89,1.79-26.62a1.49,1.49,0,0,0,0-.93c-.1-.22-.55-.53-.7-.46a4.6,4.6,0,0,0-1.59,1,13.8,13.8,0,0,0-3.49,9.2c-.54,12.78-.37,25.57.29,38.33.51,9.72,1.68,19.4,2.45,29.11.7,8.76,1.92,17.46,3.25,26.14a66.31,66.31,0,0,0,3.52,13.91c2.64,6.8,6.25,12.94,12,17.64A17,17,0,0,0,40.74,580ZM693.61,96.15a22.75,22.75,0,0,0-9.93-1.87q-8.61.6-17.22,1.26c-6.21.49-12.41,1.08-18.63,1.55-5.89.45-11.8.76-17.69,1.23-3,.23-5.93.67-9,1,.28.39.39.76.62.84,7.93,3,15.88,5.92,23.8,8.93a6.82,6.82,0,0,0,5.1-.14,336.51,336.51,0,0,1,39.11-11.41A8.86,8.86,0,0,0,693.61,96.15ZM620,771.93c.57.74,1.42.48,2.17.54,1.91.15,3.83.2,5.74.37,5.4.48,10.8,1.06,16.21,1.5,5.73.46,11.48.75,17.21,1.23,5.4.45,10.8,1.11,16.21,1.55,2.54.21,5.11.2,7.66.17a3.71,3.71,0,0,0,3.69-2.1,26.68,26.68,0,0,0-6.37-2,235.63,235.63,0,0,1-26.14-7.93c-2.09-.78-4.29-1.29-6.36-2.11a9.82,9.82,0,0,0-6.57-.16c-1.08.31-2.18.54-3.23.92q-9.47,3.43-18.9,7C620.8,771,620.08,771.08,620,771.93Zm211.17,92.58a21.43,21.43,0,0,0-1-2.62c-8.3-15.83-15-32.49-25-47.42a2.75,2.75,0,0,1-.42-.86c-.71-3.2-2.68-5.79-4.26-8.55-2.78-4.85-5.74-9.6-8.65-14.37a7.27,7.27,0,0,0-2.49-2.87,2,2,0,0,0-2.24.27,1.32,1.32,0,0,0-.43,1.7,11.84,11.84,0,0,0,.63,1.29q14.85,27.4,29.7,54.8c2.9,5.34,5.9,10.62,8.92,15.89a31.81,31.81,0,0,0,2.74,3.9,1.18,1.18,0,0,0,1.72.13A5.43,5.43,0,0,0,831.19,864.51Zm1.64-856.8a1.42,1.42,0,0,0-1.93-1.18c-1.42.91-2.09,2.41-2.88,3.77-3.19,5.54-6.37,11.1-9.45,16.7C811.33,40.18,804.16,53.39,797,66.58q-4.26,7.78-8.54,15.56a1.42,1.42,0,0,0,.08,1.77,2.42,2.42,0,0,0,2.67.33A12.74,12.74,0,0,0,793,82.05c2.89-4.61,5.79-9.21,8.57-13.88,2-3.42,4.22-6.79,5.48-10.62,3.93-5.1,6.69-10.88,9.61-16.56,5-9.68,9.77-19.43,14.64-29.16.5-1,1-2,1.4-3A3.35,3.35,0,0,0,832.83,7.71ZM1565,102.76c.38,1.49,1.8,2.09,2.77,3,2.64,2.56,5.33,5.07,7.18,8.31,3.09,5.44,2.13,11-2.65,15.07a26.47,26.47,0,0,1-6.49,4.05c-4.52,2-9,4.08-13.61,6-23.22,9.49-46.62,18.55-70.05,27.51a22,22,0,0,1-7.94,1.5c-13,0-25.9.08-38.84.13h-4.18c17.44.27,34.86.24,52.28.3a19.64,19.64,0,0,0,7.82-2c11.64-4.88,23.3-9.72,34.93-14.63,14.28-6,28.51-12.18,42.51-18.82,1.88-.89,3.74-1.82,5.54-2.86,4.83-2.79,6-7.18,4.39-12.37a19.57,19.57,0,0,0-3.8-6.62,75.19,75.19,0,0,0-8.07-8.19C1566.3,102.77,1565.82,102.26,1565,102.76ZM1456.83,706.65v.53c5.11,0,10.22.1,15.32,0a24.17,24.17,0,0,1,9.79,1.9c18,7.15,36,14.17,54,21.38,9.19,3.69,18.28,7.65,27.4,11.54a29.43,29.43,0,0,1,7,4.16c5.55,4.48,6.48,10,2.75,16.13a31.27,31.27,0,0,1-6,6.87c-.94.86-2,1.65-2.9,2.51-.44.41-1,.94-.44,1.56.37.37.9,0,1.23-.34,2.4-2.34,4.82-4.67,7.18-7.05a24.08,24.08,0,0,0,3.84-5.49c3.67-6.67,2.4-11.57-4.1-15.38a75.64,75.64,0,0,0-6.84-3.47c-8.43-3.86-16.84-7.78-25.35-11.46-16.88-7.3-33.83-14.43-50.72-21.68a18.3,18.3,0,0,0-7.44-1.54c-7.19,0-14.39-.08-21.59-.13ZM1597.38,70.48c4.08.21,7.26.32,10.43.56,6.36.48,12.72,1.08,19.08,1.55,6.2.46,12.42.77,18.62,1.24,8.59.64,17.18,1.38,25.76,2.07,1.89.15,2.26-.24,2.14-2.1-.28-4.12-.64-4.45-5-4.53h-1q-32.82,0-65.63.12C1600.65,69.39,1599.34,69,1597.38,70.48ZM76.2,716a26.4,26.4,0,0,0,2.83-.4,2.87,2.87,0,0,0,2.41-3.51,7.29,7.29,0,0,0-.49-1.83c-2.69-6.47-5.42-12.92-8.09-19.39A8.22,8.22,0,0,0,66,685.64c-1-.15-1.87-.41-2.81-.55a1.38,1.38,0,0,0-1.68,1.69,26.09,26.09,0,0,0,1,3.17q4,10.2,8.15,20.39c.42,1,.88,2,1.34,3.07A3.93,3.93,0,0,0,76.2,716ZM65.73,183.06c3.35-.18,6.35-1.38,8.11-5.07,3.32-6.91,6.12-14,8.91-21.16a5.64,5.64,0,0,0,.28-.91,2.19,2.19,0,0,0-1.5-2.64,20.16,20.16,0,0,0-2.79-.64c-3.36-.61-4.06-.48-5.31,2.45-3.49,8.22-6.78,16.52-10.14,24.79a2.47,2.47,0,0,0-.15.46C62.69,182.09,63.5,183.08,65.73,183.06ZM1006.62,48.39a16.76,16.76,0,0,0,5.89,1.11c3.45-.14,6.62.4,9.45,2.63,1.37,1.07,2.13.91,3.3-.49a16.6,16.6,0,0,1,9.27-5.58,37.05,37.05,0,0,1,8.52-1.23c4.31,0,8.63-.15,12.94,0,5.83.2,11.47,1.08,15.76,5.69a1.27,1.27,0,0,0,2.14-.84,14.18,14.18,0,0,0-.05-3.32,3.37,3.37,0,0,0-3.1-3.13c-1.74-.22-3.47-.62-5.21-.72a245.38,245.38,0,0,0-44.43,2.11c-3.32.42-6.61,1.11-9.89,1.81A8.12,8.12,0,0,0,1006.62,48.39Zm46,782.62c3.2,0,6.4.11,9.58,0a51,51,0,0,0,6.64-.82c2.33-.41,3.06-1.2,3.32-3.4a13,13,0,0,0-.05-2.85,1.27,1.27,0,0,0-2.14-.86c-3.94,4.16-9.14,5.16-14.43,5.46a91.93,91.93,0,0,1-19.11-.6c-4.91-.75-9.24-2.24-12.64-6.06-1.5-1.7-2.06-1.76-4.12-.31a13.72,13.72,0,0,1-8.61,2.32,38,38,0,0,0-4.75.35.88.88,0,0,0-.56.66,1,1,0,0,0,.47.75c1.66.54,3.32,1.13,5,1.51a141.11,141.11,0,0,0,15.61,2.28A198.34,198.34,0,0,0,1052.59,831Zm360-773.85c2.81.05,4.81.18,6.81.12,2.48-.08,4.69.14,6.38,2.37.89,1.18,1.68,1.13,2.79-.09,2.57-2.83,6-3.57,9.46-4,3.16-.43,6.34-.73,9.52-.87a113.46,113.46,0,0,1,12-.08c4.78.31,9.59.89,13.17,4.72.51.55,1,1.42,2,.93s.61-1.38.71-2.14.16-1.26.24-1.89c.29-2.59.16-2.76-2.17-3.23a72,72,0,0,0-15.22-1.2c-7.18.1-14.33.44-21.48,1.14-6.19.6-12.36,1.32-18.47,2.41A12.71,12.71,0,0,0,1412.63,57.16Zm-.39,761a5.63,5.63,0,0,0,3.37,1.37c5.18,1,10.38,1.71,15.63,2.26a236.47,236.47,0,0,0,25.78,1.76,108.37,108.37,0,0,0,11.93-.74c6.77-.81,5-1.83,4.5-6.27-.18-1.74-1-2.08-2.12-.87a13.84,13.84,0,0,1-7.88,4.23,38.63,38.63,0,0,1-9,.95c-4.3-.25-8.6-.47-12.89-.78-2.23-.16-4.44-.49-6.66-.73a12,12,0,0,1-8-3.74c-1-1.16-1.84-1.2-2.82,0-1.75,2.11-4,2.43-6.45,2.39C1415.87,817.92,1414.2,818.05,1412.24,818.12ZM768,776.92c-2.31-.06-5.81,1.19-8.44,2.94a10.12,10.12,0,0,0-3.95,4.65,4.37,4.37,0,0,0-.08,3.69c2,4.25,2.33,4.74,6.13,2.22,3.22-2.13,6.64-3.71,10.66-3.66a11.64,11.64,0,0,0,3.68-.92,1.63,1.63,0,0,0,1.13-2.24C775.73,780,771.61,777,768,776.92Zm708.23,33.13a12.69,12.69,0,0,0,1.91.33c6.51-.8,13.05-.52,19.58-.44a11.56,11.56,0,0,1,6.37,1.73,2.76,2.76,0,0,1,.51,4.49c-.55.58-1.22,1-1.78,1.6s-1.51.53-1.15,1.83c2.48-.71,4.92-1.37,7.35-2.09a134.25,134.25,0,0,0,19.16-7.36c.63-.29,1.6-.46,1.3-1.58C1520.64,807.72,1482.81,808.66,1476.19,810.05ZM768.92,94.93a10.53,10.53,0,0,0,9.79-6.39,1.56,1.56,0,0,0-1.11-2.24,26.86,26.86,0,0,0-4.67-1,18.47,18.47,0,0,1-8.52-2.95c-1.07-.68-2.16-1.35-3.27-2a1.62,1.62,0,0,0-2.18.3c-2.38,2.93-3.43,6.47.07,9.84A14.79,14.79,0,0,0,768.92,94.93ZM1071,816.3c2.13,2.3,4.22,2.23,6.28,2.24,4.47,0,8.93,0,13.4.08a25.53,25.53,0,0,1,8.45,1.46c3.23,1.18,4.06,4.16,2,6.91a29.37,29.37,0,0,1-2.89,2.93,5.3,5.3,0,0,0,5.79-1.85c2.75-3.1,5.77-6,8.64-9,.62-.65,1.58-1.13,1.33-2.81C1099.93,816.35,1085.8,816.24,1071,816.3Zm2-759.41a9,9,0,0,0,1.4.29q19.17,0,38.35,0a10,10,0,0,0,1.9-.16.72.72,0,0,0,.58-1.07,6.69,6.69,0,0,0-1.08-1.56c-2.72-2.92-5.65-5.67-8.17-8.76-1.86-2.27-3.91-2.62-6.82-2,1.94,1.21,3.61,2.15,4.39,4.07,1,2.42.27,4.5-2.06,5.59a13.92,13.92,0,0,1-2.27.72,26.19,26.19,0,0,1-6.65.84l-13.42,0C1077.08,55,1075,54.89,1073,56.89Zm-24.87-2.51v.06c4.79,0,9.58,0,14.36,0,1.28,0,2.55,0,3.82-.13a1.7,1.7,0,0,0,1.14-.68c.4-.63,0-1.22-.49-1.64-2.32-1.94-5.18-2.5-8-2.73a120.84,120.84,0,0,0-19.12.06c-3.34.25-6.65,1-9.36,3.22a1.7,1.7,0,0,0-.62,1.17c0,.58.61.67,1.08.67C1036.65,54.39,1042.39,54.38,1048.13,54.38ZM1046.8,819v0c-3.83,0-7.66,0-11.49,0-1.91,0-3.82,0-5.73.13a.9.9,0,0,0-.92.88,1.41,1.41,0,0,0,.38.84,9.48,9.48,0,0,0,5.1,2.44c7.89,1.71,15.87,1.29,23.83.82a14.3,14.3,0,0,0,5.94-1.72c1.4-.76,2.14-1.81,1.73-2.5-.6-1-1.65-.85-2.56-.86C1057.65,819,1052.23,819,1046.8,819ZM1532.74,67.57c-5.7-4.32-24.62-11.33-29.62-11,.54.48,1,.88,1.46,1.33a15.6,15.6,0,0,1,1.55,1.81c1.3,1.84.86,3.66-1.1,4.82a9.34,9.34,0,0,1-3.64,1.07c-2.05.26-4.09.58-6.14.88C1507.69,67,1520.08,66.75,1532.74,67.57ZM5.47,414.32A4.66,4.66,0,0,0,4.35,418c.14,11.13-.45,22.26.34,33.38,0,.23.38.43.73.81.13-1.27.19-2.37.37-3.45,1.09-6.75,4.08-12,11.1-14.11.47-.13.55-.3.25-.53C7.62,431.13,5.74,423.5,5.47,414.32ZM1453.13,816.7v-.15c1.6,0,3.2.12,4.78,0a20.35,20.35,0,0,0,8.26-2.1,1.67,1.67,0,0,0,1.06-1.91,1.51,1.51,0,0,0-1.52-.95q-2.39-.11-4.77-.12c-8.12,0-16.19,1.16-24.32.95-1.63,0-3.51-.73-4.93.83.87,2.29,3.19,1.52,4.79,2.26a1.19,1.19,0,0,0,.47.06ZM1450.25,63c4,.26,8.28.52,12.58.83a12.54,12.54,0,0,0,5.2-.6c.46-.17.94-.47.84-1a1.91,1.91,0,0,0-.66-1.18,14.28,14.28,0,0,0-7.28-2.13,125.05,125.05,0,0,0-23.92,1,11.92,11.92,0,0,0-2.72.91,1.06,1.06,0,0,0-.48.75.92.92,0,0,0,.79,1,15,15,0,0,0,2.83.36C1441.59,63,1445.75,63,1450.25,63Zm44.85-.89V62c1,0,1.91,0,2.85,0s2.08,0,2.28-1.2c.16-1-.91-1.15-1.57-1.55a5.17,5.17,0,0,0-.87-.37A96.46,96.46,0,0,0,1485,55.07a16.94,16.94,0,0,0-2.84-.34,2,2,0,0,0-1.33.37,4,4,0,0,0-1,4,2.4,2.4,0,0,0,2.41,1.92C1486.56,61.37,1490.83,61.72,1495.1,62.07ZM581.56,825.23a27.72,27.72,0,0,0-8.49-1.29q-10.74,0-21.46,0a26.35,26.35,0,0,0-3.32.25c-.22,0-.53.4-.56.64a1,1,0,0,0,.44.73,3.16,3.16,0,0,0,1.3.51c2.22.2,4.47.16,6.65.53,5.69.95,11.41.73,17.13.55A23.33,23.33,0,0,0,581.56,825.23Zm1.31-779.09c-.5-1-1.58-1-2.43-1.17-5-.79-10.06-1.88-15.22-1.06a31.73,31.73,0,0,1-4.77.37,74.56,74.56,0,0,0-10,1.1c-.57.08-1.31.16-1.2,1.08C559.71,47.84,576,47.68,582.87,46.14Zm915.88,768.41a6.52,6.52,0,0,0-1.27-.36,144.42,144.42,0,0,0-16.25.13,8.38,8.38,0,0,0-1.41.19A2.33,2.33,0,0,0,1478,817c0,2.34,1.27,3.57,3.54,3.5a9.21,9.21,0,0,0,1.9-.2,86.2,86.2,0,0,0,13.7-4.16C1497.76,815.81,1498.69,815.69,1498.75,814.55Zm-412.19,8.13v.3c-2.7,0-5.41-.08-8.11,0a2,2,0,0,0-1.75,2c-.13,1.25-.45,2.57.71,3.55a1.29,1.29,0,0,0,.89.27c.79-.07,1.57-.23,2.35-.36,4.54-.75,8.93-2.4,13.62-2.37a5.56,5.56,0,0,0,2.2-.81,1,1,0,0,0,.43-.77,1,1,0,0,0-.44-.74,3,3,0,0,0-1.32-.52C1092.28,823,1089.42,822.86,1086.56,822.68Zm1.57-772v.12c2.7-.12,5.41-.2,8.11-.38,1.33-.1,2.22-.91,2-1.6-.28-.87-1-1.13-1.81-1.32a3.82,3.82,0,0,0-1-.13,39.85,39.85,0,0,1-9.86-1.68c-1.69-.44-3.42-.71-5.15-1a1.57,1.57,0,0,0-1.65.74,3.38,3.38,0,0,0,2.62,5.22C1083.66,50.76,1085.9,50.66,1088.13,50.66ZM34.76,378.7c1.61-.2,3.33-.4,5.06-.63a2.72,2.72,0,0,0,2.49-2.46c.16-.93.36-1.86.44-2.8A1.73,1.73,0,0,0,41,370.94a26.22,26.22,0,0,0-8,.76,2.12,2.12,0,0,0-1.75,2,17.33,17.33,0,0,0,0,3.3,1.88,1.88,0,0,0,1.95,1.7C33.69,378.73,34.17,378.7,34.76,378.7ZM37.9,497.8h1.64c1.85-.1,2.61-.82,2.67-2.63a14.45,14.45,0,0,0-.16-2.37,2.18,2.18,0,0,0-1.72-2,24.49,24.49,0,0,0-7.08-.75,2.12,2.12,0,0,0-2.14,2.11,15.09,15.09,0,0,0,.08,2.85,2.13,2.13,0,0,0,1.75,2C34.81,497.33,36.7,497.6,37.9,497.8Zm-.23,10.55v.1c.95,0,1.9.06,2.84,0,1.84-.14,2.56-.91,2.63-2.66.09-2.2-.52-3.22-2.27-3.54s-3.43-.53-5.16-.7c-4.42-.44-4.88.68-3.77,4.91a2.4,2.4,0,0,0,2.42,1.89C35.46,508.38,36.56,508.35,37.67,508.35Zm.7-148v0c-1.27,0-2.54-.09-3.79,0-1.79.15-2.41.88-2.57,2.77a11.26,11.26,0,0,0,0,1.42c.09,1.82.87,2.7,2.62,2.63s3.46-.31,5.18-.55c2.92-.41,3.78-1.38,3.93-4.29a1.76,1.76,0,0,0-1.56-2C40.9,360.25,39.63,360.32,38.37,360.32Zm-.13-14.86v0c1.58-.12,3.17-.21,4.75-.36a1.75,1.75,0,0,0,1.53-1,5.33,5.33,0,0,0-.07-5c-.77-1.25-2.29-1-3.52-.85a23.73,23.73,0,0,0-4.67.86c-1.8.56-2.77,2.86-2.18,5.22.42,1.73,2,1.15,3.2,1.17C37.61,345.51,37.93,345.48,38.24,345.46Zm-.75,177.77c-.8-.05-1.59-.13-2.38-.13-1.45,0-1.92.6-1.67,2.14.13.78.32,1.56.49,2.34a2.69,2.69,0,0,0,2.22,2.19,20.27,20.27,0,0,0,6.62.68,1.87,1.87,0,0,0,1.91-2.21,13.22,13.22,0,0,0-.26-1.89c-.45-2.19-1-2.7-3.12-2.92C40,523.3,38.76,523.29,37.49,523.23Zm.22-10.39v-.14c-.94,0-1.89,0-2.84,0a4.15,4.15,0,0,0-.93.11,2,2,0,0,0-1.66,2c0,2.23,1.1,3.82,3.16,4s4.41.12,6.61.11A1.8,1.8,0,0,0,43.6,518,3.3,3.3,0,0,0,41,512.86C39.93,512.76,38.82,512.84,37.71,512.84Zm-2.18-33.53v0c-1,0-1.92-.06-2.87,0-1.72.14-2.49,1.18-2.24,2.93.3,2.18,1.1,3.06,3.27,3.47a34.86,34.86,0,0,0,3.79.52c3.13.25,4.07-.81,3.56-3.9-.33-2-1.14-2.78-3.12-3C37.13,479.25,36.33,479.31,35.53,479.31Zm1.21-89.86c.09,0,1.2,0,2.3-.16a2.1,2.1,0,0,0,2-1.77,14.14,14.14,0,0,0,.2-2.83,2.12,2.12,0,0,0-2.06-2.19,17.76,17.76,0,0,0-6.11.63,2.51,2.51,0,0,0-2,2.34c-.38,2.66.56,3.81,3.28,4C34.77,389.47,35.25,389.45,36.74,389.45ZM38,356v-.07c.95,0,1.91.06,2.86,0,2.68-.21,3.63-1.45,3.23-4.08a2.07,2.07,0,0,0-1.78-2,21.82,21.82,0,0,0-7.12.21c-1.63.34-2.43,1.8-2.22,3.7.15,1.35,1,2.08,2.64,2.22C36.42,356,37.22,356,38,356ZM765,99.46c-3.58-2.21-7.28-3.94-10.13-7a1.42,1.42,0,0,0-2.4.22c-.81,1.35-1.56,2.75-2.25,4.16a1.42,1.42,0,0,0,1.11,2.14,15,15,0,0,0,3.25.5C758,99.5,761.51,99.46,765,99.46ZM40.72,541.12h.84c2.85,0,3.67-1,3.4-3.77a2.29,2.29,0,0,0-1.9-2.37c-1.87-.3-3.74-.6-5.63-.79-1.6-.16-2.35.73-2,2.32A22.53,22.53,0,0,0,36,538.8a2.91,2.91,0,0,0,2.77,2.2C39.35,541.05,40,541.08,40.72,541.12Zm-17-106.92a38,38,0,0,1,7.45,3c5.26,2.81,5.14,3.5,5.09-3.36,0-.79,0-1.58-.06-2.37-.13-1.45-1-2-2.27-1.36C30.8,431.57,28,433.69,23.73,434.2Zm739.5,339c-4-1.26-4.05-1.34-9-.57-1.78.27-3.86-.44-5.28,1.32.74,1.9,1.43,3.81,2.23,5.68a1.15,1.15,0,0,0,2,.16C755.66,776.78,759.12,775.19,763.23,773.22ZM35.32,393.74v0c-.64,0-1.28,0-1.92,0-2.55.17-3.28,1.06-3.13,3.71.05.83.19,1.76.94,2.09,2.29,1,4.67.73,7,.06a1.34,1.34,0,0,0,.67-.64c.68-1.28,1.34-2.66.76-4.09s-2.14-1.07-3.37-1.17C36,393.72,35.64,393.74,35.32,393.74ZM1343.77,169.2l-.06.24h63.34v-.24Zm-24.11,1.22v-.22h-63.48v.22ZM35.4,474.89v.05c.63,0,1.27,0,1.9,0,1.89-.13,2.4-.8,2.17-2.81-.33-2.91-.92-3.46-3.93-3.58a19.35,19.35,0,0,0-2.85,0c-1.78.17-2.41.93-2.49,2.83-.11,2.4.57,3.25,2.82,3.46C33.81,475,34.61,474.89,35.4,474.89ZM42.11,327.6c-4.27,0-5.47.78-6.07,3.77-.46,2.29.44,3.24,2.86,3,1.1-.12,2.21-.27,3.31-.46,2.58-.45,3.66-2.41,2.7-4.88a1.88,1.88,0,0,0-1.37-1.22A10.56,10.56,0,0,0,42.11,327.6Zm1102-155.21v-.31h-57.75v.31ZM33.22,464.22c1.48,0,2.12,0,2.76,0,1.41-.11,1.94-.8,1.71-2.23a15.34,15.34,0,0,0-.5-2.33c-.7-2.19-4-3.21-5.93-1.84-1.22.87-1.47,4.68-.36,5.74a1.74,1.74,0,0,0,.8.47C32.48,464.17,33.27,464.22,33.22,464.22Zm1.23-59.82a23.06,23.06,0,0,0-2.49.2,1.76,1.76,0,0,0-1.42,1.14c-1.24,3.41,1,6.19,4.51,5.6a2.43,2.43,0,0,0,2.09-1.7,20.37,20.37,0,0,0,.78-3.24,1.5,1.5,0,0,0-1.22-1.77A18.87,18.87,0,0,0,34.45,404.4ZM1178.64,171.11l-.07.24h52.8v-.24ZM41.75,323.27c.64,0,1,0,1.27-.08,2.11-.19,2.71-.83,2.83-3,0-.31,0-.63,0-1,0-2.35-.67-2.9-2.86-2.48-2.63.52-3.9,1.9-4,4.49A1.64,1.64,0,0,0,40.19,323,12.88,12.88,0,0,0,41.75,323.27Zm3.36,226.24c0-3.24-.7-3.93-3.64-4.06a9,9,0,0,0-1.87.09,1.39,1.39,0,0,0-1.26,1.66A7.6,7.6,0,0,0,38.8,549c.83,2.24,2.23,3.14,4.71,3.06A1.36,1.36,0,0,0,44.88,551,13.35,13.35,0,0,0,45.11,549.51Zm1083.41,151.9v-.33h-43v.33Zm80.66,1.54.2.33h42.88V703Zm62.29.95c7.85.64,39.9.64,43.73,0Zm61.62,1,.06.32h43v-.32Zm105.46,1.29c0-.11.06-.21.1-.32h-43.19v.32ZM49.32,569.66c.86-9.88.7-34.53,0-39.72ZM1168.16,702.27v-.39h-20c-.52,0-.52.18,0,.38ZM50.32,324.06h.25V306.53h-.25ZM1176.48,702.12v.22c.62,0,1.23.1,1.85.1q6.17,0,12.32,0c.14,0,.39-.07.4-.13.08-.63-1-.12-.45-.21ZM1488.65,65.91c-3.24-.33-6.48-.62-9.69-1.1-.21,0-.47.31-.7.48.19.21.38.59.58.59C1482.11,65.92,1485.38,65.91,1488.65,65.91ZM49.77,336.46a39.31,39.31,0,0,0,0,10.45Zm-5.66-24.28c1.4-.4,2-1.69,1.55-3.34,0-.19-.56-.46-.7-.38a3.52,3.52,0,0,0-1.83,3C43.09,312,43.59,312.2,44.11,312.18ZM5.56,388.11h-.4c0,3.13,0,6.26,0,9.39,0,.5.16.49.39-.11Zm27.63,27.71c-.72.09-1.25.36-1.24,1.13,0,1,.94,2,1.75,1.74a1.6,1.6,0,0,0,1.19-1.77C34.81,415.9,34,415.84,33.19,415.82Zm11.9,143.24a9.72,9.72,0,0,0-.45-1.61c-.32-.72-1.61-1.18-1.93-.76-.48.61-.14,1.17.1,1.72a9.7,9.7,0,0,0,.71,1.2c.27.41.64.75,1.13.45C44.86,559.94,44.9,559.53,45.09,559.06ZM34.71,451.51c-.17-.76-.39-1.53-1.34-1.56-.8,0-1.59,1.13-1.43,2s.73.92,1.37.92C34.17,452.87,34.75,452.49,34.71,451.51ZM1457.07,47.61h6.33a.7.7,0,0,0,.44-.09c.08-.06,0-.26.07-.55C1461.58,46.39,1459.36,47.49,1457.07,47.61ZM48.46,519.87h.29v-7h-.29ZM7.51,359.29H7.26v5.06h.25Zm41,1.17h.29v-5h-.29ZM5.31,480.57h.16v-4.05H5.31ZM6.26,376h.21v-4.16H6.26Zm1.89-23h.3v-4.32h-.3ZM47.81,500.43l-.25.14v4.08l.25,0ZM1460.93,828.29v-.38h-4.15v.18ZM47.85,367.93c0,1.08-1.05,2.2,0,3.27ZM7.49,508.13H7.08l.16,3.18.25,0ZM49.88,291.92h-.49c0,.9,0,1.8,0,2.71a2.83,2.83,0,0,0,.24.71,4,4,0,0,0,.22-.85C49.89,293.63,49.88,292.77,49.88,291.92ZM8.46,520.7s-1,1.16,0,2Zm.8,7.21a6.29,6.29,0,0,0,.05,4A7.79,7.79,0,0,0,9.26,527.91Zm37.59-37.15-.44,0,.14,2.56h.3ZM6.44,495.47H6.31V498l.13,0ZM46,386.92c0-.3,0-.69-.13-.89s-.39.1-.33.54.17.84.25,1.26Zm.81-8.76a1.94,1.94,0,0,0-.16,2A2.12,2.12,0,0,0,46.79,378.16ZM46,483.86c-.05-.31,0-.7-.19-.9s-.38.1-.29.54.2.84.31,1.26C45.88,484.46,45.94,484.16,46,483.86ZM1168.37,171.21l-.86.18a2,2,0,0,0,.79.21c.32,0,.81.27,1-.32Z"/><path d="M593.32,437.17c.42-22.24.61-40.15,1.13-58.05.39-13.42,1-26.85,1.91-40.24,1-13.55,1.91-27.1,3.32-40.62,1.61-15.59,3.5-31.14,6.07-46.59,3.89-23.39,9-46.46,17.81-68.59a110,110,0,0,1,17.69-30.61c9.07-10.83,20.63-17,35-17.08a125.18,125.18,0,0,1,13.4.83c16.37,1.77,32.59,4.62,48.72,7.88q37.38,7.56,74.13,17.82c19.87,5.53,39.62,11.49,58.82,19.09a103.82,103.82,0,0,1,14.7,7,13.75,13.75,0,0,1,6.46,8,17.07,17.07,0,0,1,.63,4.25,86.09,86.09,0,0,1-1.35,18.15c-2.55,16.6-5.43,33.14-7.92,49.74-1.94,13-3.51,26-5.24,39-1.64,12.36-2.77,24.78-4,37.19-1.16,12.1-1.94,24.22-2.83,36.33-.88,12-1.36,23.94-2,35.91-1.15,20.31-1,40.62-.44,60.92.36,12.45,1.18,24.9,2.33,37.32.76,8.28,1.6,16.55,2.41,24.82.84,8.59,1.95,17.15,3.11,25.71q2.63,19.25,5.5,38.45c2,13,4.12,25.89,6.06,38.86,1.2,8.06,2.24,16.15,3.2,24.24a54.51,54.51,0,0,1,.14,7.67,9.56,9.56,0,0,1-3.43,7.14,36.12,36.12,0,0,1-7.17,4.78,143.3,143.3,0,0,1-17.06,7.66,658,658,0,0,1-69.15,21.43c-13.16,3.38-26.48,6.13-39.71,9.25q-21,4.95-42.36,8.16c-7.42,1.12-14.92,1.75-22.37,2.67a88.38,88.38,0,0,1-14.36.72,45.28,45.28,0,0,1-14.53-2.7,38.19,38.19,0,0,1-11-6.75,58.23,58.23,0,0,1-8.56-9,120.57,120.57,0,0,1-16.55-30.73c-6.75-17.83-11.46-36.25-15.45-54.88-3.56-16.6-5.76-33.4-8.29-50.15-1.07-7.11-1.52-14.31-2.25-21.46l-2.31-22.9c-.11-1.12-.25-2.23-.32-3.35q-.94-14.11-1.87-28.23c0-.32,0-.64-.05-1-.3-14.7-1.37-29.39-1.28-44.11C594.09,451.69,593,442.28,593.32,437.17Zm4.78-5.68c.07,21.12.07,42.23,1.21,63.32.43,8,.59,16,1.3,23.95.45,5.1.48,10.22,1,15.32.8,8.43,1.7,16.85,2.47,25.29.83,9.08,1.68,18.15,3.05,27.16,1.42,9.33,2.32,18.75,4.17,28,3.41,17.08,6.62,34.21,11.82,50.91,3.57,11.48,7.26,22.86,12.71,33.6,4.22,8.3,9,16.17,15.78,22.76a35.09,35.09,0,0,0,25,10.4c12.21.18,24.25-1.58,36.25-3.32,11.37-1.66,22.73-3.6,33.93-6.33,18.63-4.54,37.46-8.24,56-13.26,20.39-5.52,40.55-11.71,60.35-19.1a127.59,127.59,0,0,0,16.19-7.26,52,52,0,0,0,6-3.95,6.21,6.21,0,0,0,2.6-5.41,61.55,61.55,0,0,0-.2-6.23q-2.43-18.06-5-36.1c-1.33-9-2.91-18-4.24-27q-2.82-19-5.42-38c-1.2-8.87-2.24-17.77-3.23-26.66-.87-7.79-1.58-15.59-2.31-23.39-1.05-11.31-1.91-22.63-2.28-34q-1.36-41.49.9-83l.06-1c.83-11,1.87-22,2.42-33,.45-9.12,1.65-18.15,2.28-27.25.28-4,.68-8,1.15-11.93,1.09-9.21,2.18-18.42,3.39-27.61,1.39-10.62,2.77-21.24,4.4-31.83,2.52-16.44,5.36-32.82,7.81-49.27a85.69,85.69,0,0,0,1.31-16.72c-.21-4.2-1.89-7.42-5.59-9.4-3.25-1.73-6.54-3.37-9.9-4.86-7.46-3.33-15.2-5.93-22.92-8.56-20.75-7.08-41.87-12.92-63.11-18.3-22.93-5.82-46-11-69.35-15-7.57-1.28-15.15-2.45-22.76-3.45-5.24-.69-10.52-.75-15.76-1.43-6.14-.8-12.15.48-17.87,2.61-6.73,2.52-12.22,7.08-16.74,12.53a100.29,100.29,0,0,0-14.46,23.11,237.48,237.48,0,0,0-13.74,41.39A525,525,0,0,0,606.81,274c-2.37,17.92-3.94,35.91-5.37,53.92-.84,10.51-1.43,21.06-1.9,31.6-.42,9.58-.64,19.17-1,28.76C598.09,402.69,598.23,417.09,598.1,431.49Z"/><path d="M1832,438c.45,12.17-.41,24.32-1.22,36.44-1.07,16.1-2.82,32.15-5.15,48.15a570.68,570.68,0,0,1-11.83,59.25,434.11,434.11,0,0,1-25.85,73.7,145.92,145.92,0,0,1-7.59,15A43.51,43.51,0,0,1,1764.3,686c-7.83,4.44-16.35,5.41-25.1,4.09-14.86-2.25-29.68-4.73-44.52-7.09q-30.3-4.83-60.62-9.6-30.8-4.85-61.59-9.63c-2.53-.4-5.07-.71-7.59-1.13a17.91,17.91,0,0,1-3.23-.87c-4.7-1.81-6.76-5.13-6-10.17,1.09-7,2.5-13.85,3.58-20.8q2.88-18.48,5.5-37c1.25-8.71,2.47-17.42,3.51-26.15,1.2-10,2.22-20,3.28-30,.88-8.26,1.75-16.53,2.53-24.81.52-5.57.87-11.15,1.28-16.73q.77-10.53,1.52-21.05c0-.8.15-1.59.18-2.39.74-21.9,1.92-43.8,1-65.72-.38-9.26-1-18.51-1.56-27.77-.29-4.95-.65-9.9-.92-14.84-.53-9.58-1.56-19.12-2.38-28.68-.87-10-2.16-20-3.41-30q-1.93-15.48-4.15-30.9-3.45-23.74-8.21-47.26a34.84,34.84,0,0,1-.74-4.74,7.52,7.52,0,0,1,4.64-7.7,27.81,27.81,0,0,1,7.87-2q21.8-3.35,43.61-6.6c11.69-1.75,23.4-3.43,35.09-5.22,11.22-1.71,22.41-3.55,33.63-5.28s22.43-3.42,33.65-5.13c7.58-1.16,15.16-2.34,22.74-3.49,5.88-.88,11.75-1.21,17.62.15,10,2.32,17.62,8.06,23.67,16.12,3.49,4.64,6,9.85,8.36,15.09a449.65,449.65,0,0,1,23.25,63.47,548.77,548.77,0,0,1,14.11,65.14c1.84,11.68,3.32,23.42,4.32,35.22.81,9.56,1.42,19.13,2,28.7C1831.88,420.09,1831.83,429,1832,438Zm-4.32-.58c.58-11.17-.94-22.8-1-34.48,0-.32,0-.64-.06-.95-1.13-11.94-2-23.89-3.48-35.8-1.65-13.5-3.66-26.93-6.29-40.27A502,502,0,0,0,1800,261.44a440,440,0,0,0-18.68-46.23,59.89,59.89,0,0,0-5.67-9.45,35.45,35.45,0,0,0-15.48-12.49,31.63,31.63,0,0,0-17.34-2.39c-5.83,1-11.72,1.58-17.57,2.47-15.79,2.42-31.57,4.94-47.37,7.35q-29.62,4.53-59.25,9-25.12,3.79-50.25,7.61a25.26,25.26,0,0,0-4.18,1,4.07,4.07,0,0,0-3,4.41,42.2,42.2,0,0,0,.66,4.74c1.73,9.6,3.62,19.17,5.19,28.79,2,12,3.79,24,5.42,36,1.55,11.41,2.84,22.85,4.09,34.29.87,8.1,1.51,16.23,2.19,24.35.87,10.35,2,20.7,2.41,31.07.49,11.66,1.5,23.3,1.32,35a82.41,82.41,0,0,0,.51,12.46,15.34,15.34,0,0,1,0,3.83c-1.08,9.23-.53,18.53-1.36,27.78-.66,7.47-.37,15-1.06,22.51-.92,10-1.38,20.1-2.29,30.13-1,11.14-2.23,22.26-3.46,33.38-1.34,12.07-2.62,24.16-4.25,36.2-2.73,20.11-5.55,40.22-9.15,60.21a84.91,84.91,0,0,0-1.26,8.54c-.3,3.89.75,5.2,4.41,6.24a24.27,24.27,0,0,0,2.8.67c4.58.72,9.16,1.39,13.74,2.09,15.48,2.37,31,4.7,46.43,7.13,15,2.36,30,4.84,45,7.22q30.06,4.8,60.13,9.5a95.77,95.77,0,0,0,13.34,1.41,33,33,0,0,0,21.67-7.73,39.9,39.9,0,0,0,10.55-12.9c3.18-6.1,6.1-12.33,8.84-18.64a444.49,444.49,0,0,0,22.53-66.25A563.94,563.94,0,0,0,1821.36,522q3.63-24.45,5.18-49.1C1827.26,461.27,1828.18,449.61,1827.68,437.4Z"/></g></g></svg>