<svg xmlns="http://www.w3.org/2000/svg" viewBox="0 0 1194.49 839.37"><title>hatchback_back</title><g id="Capa_2" data-name="Capa 2"><g id="Capa_1-2" data-name="Capa 1"><path d="M1027.81,196.65c1.79.45,2.44,2.31,3.89,2.83s2.2,1.75,3,3.08a25.06,25.06,0,0,0,3.3,3.95c12.43,14,22.44,29.57,31.37,45.91,2.58,4.71,5,9.53,7.42,14.3,1.2,2.34,4.82,3.6,7.06,2.47a1.7,1.7,0,0,0,.91-1.58c0-1,0-1.93,0-2.9,0-13,0-26,0-39a33.17,33.17,0,0,1,3.45-15.25,19.46,19.46,0,0,1,8.57-8.89,14.68,14.68,0,0,1,6.81-1.67c18.58,0,37.17-.24,55.74.07,20.36.35,31.93,14.73,34.89,29.93a17.05,17.05,0,0,1,.23,3.2q0,11.76,0,23.52c0,8.85-3.66,16-10.48,21.52a48.77,48.77,0,0,1-8.13,5.2,19.32,19.32,0,0,1-9.27,2.29c-6.66,0-13.33-.09-20,.25-9.87.51-19.76.21-29.62.67-8.91.42-17.82.39-26.72.57l-1.94,0c-1.48,0-1.85.85-1.37,2.15.29.81.61,1.61.94,2.4a517.6,517.6,0,0,1,20.6,61,32.55,32.55,0,0,1,1.16,10.46c-.38,6.64-.14,13.32-.35,20-.57,18.24-.87,36.49-1.37,54.73-.23,8-.14,16.1-.58,24.14-.5,9.33-.21,18.68-.68,28-.43,8.37-.17,16.75-.62,25.11-.48,9.23-.19,18.47-.68,27.68-.43,8.27-.17,16.54-.61,24.79-.27,5-.15,10.08-.88,15.1a56.61,56.61,0,0,0-.35,8q0,38.65.06,77.33c0,30.28.14,60.57-.17,90.86-.11,11.05.18,22.14-.64,33.16-.94,12.59-4,24.65-12.8,34.38-7.24,8-16.35,12.66-27.22,12.73q-40.27.28-80.55,0c-15.24-.11-27.51-6.74-37.1-18.43a51.46,51.46,0,0,1-7.48-11.6,12.74,12.74,0,0,1-1.13-5c-.37-14-.45-27.91-.77-41.86-.17-7.94-.17-15.88-.63-23.82-.16-2.88.13-5.79.06-8.68,0-2.34-.35-2.56-2.62-2.7-1-.06-1.94,0-2.9,0H265.57c-6.17,0-5.32,0-5.43,5.46-.13,7.29.08,14.59-.24,21.87-.56,12.77-.31,25.55-.66,38.32-.11,3.86-.43,7.72-.34,11.58a13.88,13.88,0,0,1-2.34,7.27c-5.08,8.77-11.56,16.23-20.47,21.39a44.5,44.5,0,0,1-22.42,6.2c-27.17.13-54.35.31-81.51-.06-12.6-.17-22.55-6.32-29.84-16.57-4.9-6.88-7.28-14.75-8.77-23-1.57-8.63-1.11-17.33-1.29-26-.88-43.92-.36-87.84-.48-131.77,0-12.24-.09-24.49.1-36.73.14-8.73-1-17.35-1.79-26-.12-1.39-.27-2.78-.3-4.17-.27-12.77-.31-25.56-.84-38.32-.37-8.8-.18-17.61-.64-26.39s-.19-17.4-.63-26.08c-.46-8.91-.21-17.83-.66-26.72-.43-8.59-.19-17.18-.64-25.75-.46-8.8-.19-17.62-.64-26.4s-.24-17.61-.65-26.4c-.24-5.26-.29-10.51-.5-15.77a32.14,32.14,0,0,1,1.06-9.55,503.62,503.62,0,0,1,20.6-61.33c2.07-5.07,2.07-5-3.29-5.09-16.43-.27-32.86-.39-49.27-1-8.8-.31-17.6-.33-26.4-.52A18.24,18.24,0,0,1,19.83,284a39.32,39.32,0,0,1-13-9.28A24.26,24.26,0,0,1,.08,257.73c.06-7.51.26-15,0-22.55-.33-7.83,2.35-14.56,6.72-20.72,6.75-9.54,16.31-14.27,27.79-14.46,18.68-.3,37.38-.11,56.06-.06,7,0,11.64,3.84,15,9.53a27.85,27.85,0,0,1,3.56,11,74.28,74.28,0,0,1,.63,9.31c0,11.82,0,23.63,0,35.45,0,4,1.83,5.29,5.67,4.05,1.17-.38,1.57-1.39,2.06-2.33,2.47-4.77,4.85-9.58,7.41-14.3a255.29,255.29,0,0,1,29.16-43.56c2.27-2.69,5.21-4.87,6.49-8.33,2.11-1,3.65-2.85,5.44-4.15,1,.42.7,1.17.74,1.75a1.49,1.49,0,0,0,1.69,1.53q6,0,11.92,0c1.74,0,2.29-1.34,2.87-2.64q3.24-7.19,6.5-14.38c9.26-20.34,19.52-40.18,30.36-59.72q22-39.6,47.59-77,10.91-16,22.6-31.36a7,7,0,0,1,5.95-3.09c1.9,0,4.1.84,5.62-1.3.44-.62,1.23-.1,1.75.23a7.33,7.33,0,0,0,5,.77c2.45-.22,4.93-.25,7.39-.34,13.3-.48,26.61-.86,39.91-1.45q16.39-.74,32.81-1.31c11.05-.41,22.09-.89,33.14-1.3,10.83-.39,21.66-.86,32.5-1.27L487.8,4.41,520,3.15q16.72-.66,33.46-1.31c10.83-.4,21.66-.9,32.49-1.3,4.61-.16,9.21-.68,13.83-.5,7.72.3,15.43.72,23.15,1.07,2.47.12,4.94.14,7.4.23,13,.48,26,.89,38.94,1.47,10.61.47,21.23.92,31.85,1.25q16.89.53,33.78,1.32c10.94.52,21.88.85,32.82,1.29,11.15.46,22.31.87,33.46,1.31q16.25.64,32.5,1.28C844.8,9.7,856,10,867.1,10.61c6.65.34,13.32.06,19.94.92a4.47,4.47,0,0,1,.64,0c1.89.66,3.29-2.43,5.31-.7,1.67,1.45,3.7.82,5.56.88a6.23,6.23,0,0,1,5.18,2.67q8.4,11,16.38,22.34,27.51,39.18,51.06,80.86c14.35,25.46,27.59,51.48,39.34,78.25.3.69.65,1.35.93,2.05a2.91,2.91,0,0,0,3,2c3.76,0,7.52-.11,11.27,0C1028.27,200,1027.22,197.9,1027.81,196.65ZM160.11,828.94a2.27,2.27,0,0,1-3.32.75,12.84,12.84,0,0,0-2.33-1.06c-3-1-4.37.18-4,3.21.2,1.76.64,2.22,2.81,2.25,4.81.07,9.63,0,14.44,0a6,6,0,0,0,1.86-.35.8.8,0,0,0,.5-1c-.18-.51-.65-.49-1.05-.32a11.64,11.64,0,0,1-4.58,1.27c-4.44,0-4.67-.16-4.33-4.73,1.28,0,2.57,0,3.84-.16a7.93,7.93,0,0,0,6.1-3.42,23.81,23.81,0,0,1-8,1.32C160.7,826.66,160.4,827.88,160.11,828.94ZM89.86,357.84c1.76-.11,2.18-1.48,2.68-2.81q10.42-27.39,20.85-54.78c1.79-4.71,3.5-9.45,5.26-14.18,2.17-5.87,6.22-10.28,11.19-13.81a76.42,76.42,0,0,1,37.75-13.6c16.55-1.57,33.15-2.67,49.73-3.94,12.51-1,25-1.86,37.55-2.8,3.1-.23,6.21-.42,9.3-.77,2.36-.27,2.83-.78,2.85-3.05q.11-7.89,0-15.78c0-2.25-.42-2.62-2.72-2.57-2.79.06-5.57.35-8.35.5-5.9.31-11.8.51-17.69.88-13.62.88-27.24,1.16-40.8-.8A68.39,68.39,0,0,1,175.93,224c-6.2-3.15-11.25-7.49-13.86-14.18-.15-.39-.31-.82-.87-.88-.82.08-1.18.8-1.66,1.35a204.62,204.62,0,0,0-16.43,21.47,317,317,0,0,0-22.79,40.71,481.6,481.6,0,0,0-26.45,69.79c-1.52,5.14-3.27,10.23-4,15.57-.77,1.76-.41,3.59-.34,5.4s.24,3.42.3,5.13c.29,8,.13,16.09.57,24.14.49,9.1.18,18.23.67,27.35.46,8.35.22,16.72.61,25.09.46,9.64.26,19.31.7,29,.23,5,0,10,0,15,1-8.47,1.9-16.89,3.63-25.2a36.64,36.64,0,0,0,.79-10.23c-.52-6.73-.95-13.48-1.44-20.22q-1.2-16.68-2.45-33.37c-.54-7.28-1.11-14.55-1.64-21.82C90.79,371.32,90.34,364.58,89.86,357.84Zm694.57,78v-.17H885.6q15.31,0,30.61-.06c3.38,0,3.47-.07,4.53-3.32a35,35,0,0,0,1.64-11.1q0-46.08,0-92.15c0-.65,0-1.29,0-1.94-.13-2.32-.38-2.6-2.61-2.74-.86-.06-1.72,0-2.58,0q-13.86,0-27.71,0c-1.71,0-3.44.19-4.53-1.69-.63-1.07-1.89-.82-2.95-.81-3.65.05-7.29.29-10.94.44-13.94.6-27.89,1-41.83,1.5-2.58.09-5.18,0-7.73.26A44.21,44.21,0,0,1,802.11,322a102.92,102.92,0,0,1-23.79-12c-18.06-11.85-34-26.23-49-41.67a5.71,5.71,0,0,1-1.68-4.34c.06-4.4,0-8.81,0-13.21,0-3.62.28-3.86,3.84-3.81,6.65.08,13.3.26,20,.48,10.41.33,20.82.23,31.23.61,12,.44,24,.22,36.06.7,9.87.39,19.75.18,29.63.58,11.9.49,23.83.21,35.74.69,8.47.34,17,.15,25.45.32,3.43.07,6.85.53,10.29.36,2.11-.1,2.43-.35,2.46-2.48q.09-8.22,0-16.43c0-2.29-.3-2.5-2.67-2.64-4.93-.28-9.86-.51-14.79-.77-4.72-.25-9.44-.49-14.15-.76-13.61-.79-27.21-1.74-40.82-2.35-14.59-.64-29.2-.31-43.8-.49-42.31-.52-84.62,0-126.93-.71-21.37-.35-42.75-.23-64.12-.19-35.76.06-71.52.06-107.28.46-46.17.53-92.35.08-138.53.69-14.71.2-29.41.25-44.1,1.31-13.48,1-27,1.48-40.51,2.2-3.21.17-6.42.38-9.64.6-2.34.16-2.73.43-2.76,2.61q-.12,8.22,0,16.44c0,2.1.42,2.41,2.49,2.5,3.22.15,6.43-.25,9.65-.33,11.7-.3,23.4-.15,35.1-.66,10.18-.45,20.39-.16,30.59-.6,11.47-.5,23-.18,34.45-.68,10.51-.47,21-.23,31.55-.61,15.66-.56,31.34-.6,47-.86,3.24-.05,3.66.36,3.72,3.72.06,3.55-.2,7.11.08,10.63.29,3.77-1.1,6.52-3.72,9.11-9.11,9-18.4,17.75-28.34,25.79-11,8.94-22.52,17.26-35.58,23.08-7.42,3.3-15.06,5.56-23.37,5.08-9.75-.57-19.51-.83-29.27-1.21-2.36-.09-4.72-.14-7.08-.23l-27.67-1c-.86,0-2-.17-2.37.66-1.05,2.13-2.93,1.85-4.72,1.85H277.05c-.86,0-1.72,0-2.58,0a2,2,0,0,0-2.23,2.19c0,.64,0,1.29,0,1.93v94.41a29.47,29.47,0,0,0,.88,7.65c1.34,5,1.31,5.05,6.47,5.05q52.68.09,105.36.18c54.56.17,109.12-.12,163.67.36,35.43.32,70.88.19,106.32-.19C698.07,435.5,741.25,435.86,784.43,435.86ZM597.07,454.62H436.61a25.49,25.49,0,0,1-2.9,0,4.53,4.53,0,0,0-4.93,2.75c-.8,1.51-1.81,2.92-2.75,4.36q-29.67,45.46-59.31,90.94c-.62.94-2,1.88-1.38,3s2.16.57,3.27.57c15.58,0,31.15,0,46.72,0,41.67.17,83.34-.34,125,.42,19.43.35,38.88.34,58.31.16,20.94-.19,41.87,0,62.81-.42,25.34-.46,50.7-.16,76-.17h87.32c1.07,0,2.15,0,3.21-.09s1.32-.67.89-1.57a13.9,13.9,0,0,0-1-1.66l-10.22-15.65q-23.43-35.87-46.87-71.74c-1.94-3-3.9-5.92-5.77-8.93a3.71,3.71,0,0,0-3.69-2c-1.07.07-2.14,0-3.22,0Zm240.85,0H774.77c-.86,0-1.72,0-2.58,0-2.06.12-2.2.45-1.11,2.33.17.28.35.54.53.81l25.33,38.86q14.34,22,28.69,44c3,4.59,6.09,9.11,9,13.77,1.27,2.06,3.1,2.08,5.06,1.76s1.5-2.11,1.56-3.39c.24-5.15.41-10.3.55-15.45.12-4.24.2-4.37,4.34-4.38q9.18,0,18.36,0c2.15,0,4.3-.05,6.44,0s2.38.41,2.61,2.46c.06.64,0,1.29.06,1.93,0,5.16,0,10.31.09,15.46,0,3.2.09,3.25,3.15,3.61a42.19,42.19,0,0,0,4.49.34c23.62.22,47.24-.15,70.86.61,13.3.43,26.62.26,39.93.58,14.27.34,28.55.79,42.83.94,5.39.06,5.46.09,4.78-5.07A189.78,189.78,0,0,0,1029.4,511a76.31,76.31,0,0,0-9.32-18c-6.09-8.4-13.67-13.06-24.7-13-46.29.36-92.58.15-138.87.15-1.29,0-2.57,0-3.86-.07a2.15,2.15,0,0,1-2.29-2.49c0-1.64.55-2.29,2.27-2.49a25.47,25.47,0,0,1,2.9-.08q70.72,0,141.44,0a29.87,29.87,0,0,1,21.75,8.89A56.09,56.09,0,0,1,1029,498.31c6.4,12.2,10.06,25.3,12.86,38.69,1.37,6.52,2.39,13.09,3.23,19.7.3,2.36.47,2.51,2.74,2.71.74.06,1.5.06,2.25.1,6.86.36,13.71.76,20.57,1.08,3.65.17,7.29.31,10.93.66,2.81.27,3,0,3.4-2.91.18-1.38.31-2.77.41-4.17.51-7.49,1-15,1.52-22.48,1-13.06,2-26.11,3-39.16.79-10.82,1.49-21.63,2.25-32.44.19-2.69.23-2.71-2.42-3.63a89.94,89.94,0,0,0-11.84-3.08c-11.69-2.36-23.52-3.83-35.37-5.1-10.56-1.13-21.13-2.17-31.74-2.82-6.32-.39-12.63-.87-19-1.36-13.59-1-27.2-1.68-40.81-2.37-8.36-.41-16.73-.73-25.08-1.21-2.26-.13-4,.32-5.12,2.42a11.2,11.2,0,0,1-1.77,2.3c-5.41,5.68-11.38,9.64-19.87,9.49C878.74,454.39,858.33,454.62,837.92,454.62ZM424,454.9a9.7,9.7,0,0,0-3.72-.27q-63.63,0-127.27,0a17.25,17.25,0,0,1-8.6-2.22,32.52,32.52,0,0,1-11.2-10c-1-1.38-2-2.15-3.73-2-5.55.66-11.15.4-16.72.69-14.15.76-28.29,1.53-42.43,2.39-10.6.64-21.21,1.25-31.8,2.16-15.71,1.35-31.43,2.75-47,5.05-8.61,1.27-17.2,2.66-25.54,5.19-3.6,1.09-3.9,1.5-3.68,5.29.39,6.53.9,13.06,1.38,19.59,1,13.48,2,27,3,40.45.75,10.27,1.42,20.55,2.14,30.83.16,2.36.41,4.7.55,7.06.08,1.47.75,2.16,2.22,2.09.53,0,1.07,0,1.61-.06,10.48-1,21-1.28,31.49-1.75,4.31-.19,4.34-.14,4.88-4.5a209.79,209.79,0,0,1,7.84-37.13c3.06-9.78,7-19.18,12.9-27.61,7.1-10.06,16.36-15.35,29.11-15.27,46.08.28,92.15.11,138.22.11,1.08,0,2.15,0,3.22,0,2.42.11,3,.58,3,2.39,0,2-.61,2.55-3.1,2.69-1.07.06-2.15,0-3.22,0H249.89c-17.93,0-35.87.07-53.8,0a22.45,22.45,0,0,0-14.07,4.7,35.19,35.19,0,0,0-6.37,6.36c-5.13,6.48-8.53,13.88-11.37,21.56-4.42,11.93-7.1,24.31-9.07,36.84-.48,3-1.2,6-.87,9.3,1,0,1.87,0,2.72,0,7.51-.22,15-.2,22.53-.6,9.21-.48,18.45-.3,27.68-.6,15.13-.49,30.27-.41,45.41-.67,20.07-.35,40.16-.21,60.24-.32,1.82,0,3.63-.29,5.45-.42a2,2,0,0,0,2.14-2.28c0-.75,0-1.5,0-2.25,0-5.16,0-10.31.1-15.47.06-3,.47-3.32,3.39-3.39,1.82,0,3.65,0,5.47,0,6.45,0,12.89,0,19.33,0,3.55,0,3.76.24,3.91,3.87.05,1.39.05,2.79.07,4.19.06,4.08.07,8.16.2,12.24.08,2.44.78,2.94,3.14,3,2.06.1,3.08-1.1,4.06-2.61q11.47-17.72,23-35.38Q403,488,422.82,457.6C423.33,456.82,424.13,456.15,424,454.9ZM886.88,628.38c2,2.4,3.72,4.44,5.39,6.53a3.75,3.75,0,0,0,3.14,1.3c6.43.15,12.88.21,19.31.51,9.4.44,18.83-.86,28.2.59a7.86,7.86,0,0,0,1,0q11.1.24,22.21.54c17.28.49,34.54,1.25,51.8,2.18,13.28.72,26.56,1.62,39.8,3.06,4.43.48,4.53.26,3.5-3.94q-6.53-26.76-13.07-53.51c-1.71-6.94-.75-6.11-7.7-6.11H151.74c-4,0-4,0-5,3.89q-6.78,27.67-13.53,55.38c-1.06,4.34-.76,4.79,3.6,4.28,12.16-1.42,24.38-2.15,36.59-2.91,13.92-.86,27.86-1.4,41.8-2,8.69-.36,17.39-.55,26.08-.77,5.15-.14,10.3,0,15.44-.54,1.68-.18,3.32-1,5.07-.42a11.86,11.86,0,0,0,4.15.36c9.66-.19,19.32-.59,29-.5,4.21,0,7.58-.71,9.73-4.59.65-1.16,2.64-1.92,2-3.33-.54-1.15-2.35-.52-3.59-.52q-47.2,0-94.41,0c-1,0-1.94,0-2.9,0-3-.11-3.44-.62-2.94-3.49,1.89-10.87,10.49-18,20.79-17.81,13.64.26,27.28.07,40.92.07,21.27,0,42.54,0,63.8,0a12,12,0,0,0,7-1.93,103.83,103.83,0,0,1,11.22-6.33A23,23,0,0,1,357.06,596q238,.09,475.92.05c7.8-1.14,14.55,1.66,21,5.58a36.63,36.63,0,0,1,4.13,2.51c2.59,2.07,5.49,2.51,8.73,2.5,34.69-.07,69.38.08,104.07-.13,8.47-.06,18.21,5.5,20.55,17.37.68,3.44.24,3.9-3.34,4h-97A9.53,9.53,0,0,0,886.88,628.38ZM597.35,74.46q-116.46,0-232.92,0a11.36,11.36,0,0,0-6.68,1.73C341.53,86.87,325.24,97.47,309,108.1c-14.11,9.22-28.19,18.49-42.38,27.59a6.69,6.69,0,0,0-3.48,6.56c.18,6.55.32,13.09,1.55,19.55s2.92,12.58,6.55,18c2.87,4.31,6.52,7.79,11.77,8.91a61.14,61.14,0,0,0,12.14,1.32c21.37.22,42.73.16,64.09.58,27.69.53,55.4.13,83.09.65s55.19.08,82.78.65c21.25.44,42.52.34,63.78.27,29-.1,58,0,87-.54,28-.53,56-.11,84.06-.65,27.27-.52,54.54,0,81.81-.66,13.74-.34,27.49-.06,41.23-.26,8.79-.12,17.59.42,26.36-1a19,19,0,0,0,12.2-7,36.73,36.73,0,0,0,6.65-13.49c2.6-9.17,3.14-18.58,3.23-28.05a4.2,4.2,0,0,0-2.26-3.9c-6.25-4-12.44-8-18.64-12.11q-36.4-23.79-72.76-47.65a14.35,14.35,0,0,0-8.39-2.47Q713.33,74.5,597.35,74.46Zm-105,561.16H436c-3.58,0-3.84.23-3.85,3.5q0,26.75,0,53.48c0,3.14.23,3.34,3.25,3.38,17.5.18,35,.15,52.49.61,16.09.42,32.2.16,48.3.59,18.88.52,37.78.05,56.67.7,6.11.21,12.23-.16,18.34-.31,17.6-.42,35.2-.13,52.81-.63,18.13-.53,36.28-.08,54.42-.67,11.15-.36,22.33-.17,33.5-.23,2.79,0,5.58-.07,8.37-.06,1.43,0,2.24-.58,2.21-2.09,0-.75,0-1.5,0-2.26V640.09c0-.64,0-1.29,0-1.93-.14-2.09-.41-2.36-2.48-2.52-.54,0-1.08,0-1.61,0-42-.14-84,.26-125.94-.46-9.12-.16-18.25,0-27.38,0C567.48,634.84,529.91,635.93,492.33,635.62Zm597.72-184.28c-.4-1.93.12-3.07,1.5-3.79s1.61-2.1,1.71-3.55c.44-6.53.92-13.06,1.4-19.58q1.2-16.38,2.42-32.74c.56-7.59,1.2-15.18,1.7-22.78.19-2.87.82-5.81-.23-8.62-3.35-8.94-6.8-17.85-10.14-26.8a3.76,3.76,0,0,0-3.82-2.73c-13.71-.73-27.41-1.61-41.12-2.36-10.17-.56-20.36-.9-30.53-1.55-4.4-.28-8.79-.41-13.18-.67-15.42-.91-30.83-2.07-46.3-1.84-7.3.1-14.6,0-21.9,0-4.35,0-4.35,0-4.37,4.21v2.25c0,25.87.07,51.75,0,77.62,0,8.44,1,17-1.63,25.27-.38,1.19.18,1.87,1.39,2,.86.07,1.72.07,2.57.11,6.11.25,12.23.45,18.33.76q15.59.81,31.17,1.73c7.92.46,15.85.88,23.77,1.51,11.22.89,22.44,1.94,33.65,2.95,9.94.89,19.84,2.13,29.71,3.64A184,184,0,0,1,1090.05,451.34ZM105.35,451c21.43-5.47,42.84-7.31,64.2-9.36,9.61-.92,19.27-1.4,28.9-2.18,13.37-1.07,26.77-1.73,40.17-2.41,9.32-.48,18.65-.82,28-1.25,2.57-.12,2.75-.33,2-2.95a49.47,49.47,0,0,1-1.6-13.38c.06-23.2,0-46.4,0-69.6,0-7.2,0-14.39,0-21.59,0-3.67-.2-3.89-3.79-3.89-13.1,0-26.21-.07-39.31.16-7.72.14-15.43.81-23.14,1.22-5,.27-10.08.47-15.12.76-13.28.76-26.57,1.58-39.85,2.33-11.79.67-23.57,1.39-35.37,1.85-2.75.11-4,1.18-4.85,3.61-3.1,8.47-6.34,16.89-9.6,25.3a12,12,0,0,0-.79,5.35c.79,9.95,1.6,19.9,2.32,29.85q1.77,24.41,3.39,48.82c.11,1.67.51,2.83,2.14,3.56C104.54,447.81,106,448.64,105.35,451ZM597.4,725H930.86c3.62,0,3.68-.06,3.69-3.53q0-9.51,0-19c0-3.52-.13-3.62-3.61-3.66-.86,0-1.72,0-2.58,0-10.41.25-20.82.15-31.23.45-17.49.52-35,.16-52.49.66-18.24.51-36.5.13-54.75.66-17.38.49-34.78.18-52.17.61-19.85.49-39.72.19-59.58.71-15.67.41-31.34,0-47,.6-10.19.39-20.4.24-30.6.25q-21.59,0-43.15-.52c-17.49-.47-35-.16-52.5-.64-18.24-.5-36.49-.14-54.74-.66-17.39-.49-34.78-.14-52.18-.63-18.24-.51-36.49-.28-54.74-.63-21-.4-42.09-.34-63.13-.75-5.15-.1-10.31-.1-15.46-.14-.64,0-1.29,0-1.93.05a1.77,1.77,0,0,0-1.88,1.79c0,.54,0,1.07-.06,1.61-.31,6.86.2,13.75-.5,20.6-.16,1.52.59,2.17,2.07,2.14,1.18,0,2.36,0,3.54,0Zm325-508.48A27.55,27.55,0,0,0,921,204.76c-2.28-6-6.6-9.37-13-9.86-1.6-.12-3.22-.1-4.83-.06-12.23.29-24.47.17-36.71.45-24.58.57-49.18.17-73.76.66-27.7.55-55.41.14-83.11.64-24.91.46-49.83.12-74.75.39-7.29.08-14.59.31-21.89.36-9.88.07-19.76.17-29.64.1-9.44-.07-18.88-.43-28.32-.52-25.56-.26-51.11-.13-76.67-.57-30.06-.52-60.13-.13-90.2-.69-22.22-.42-44.45.06-66.67-.63-11.05-.35-22.12-.24-33.18-.19-8.69,0-14,4.64-15.76,13.16-1,4.71-.71,9.39-.23,14.1a2.06,2.06,0,0,0,2.56,2.13c2-.15,4.06-.35,6.1-.46,9.53-.51,19.08-.87,28.61-1.54,4.29-.3,8.58-.42,12.86-.69,8.89-.57,17.78-1.38,26.67-1.52,34.47-.53,68.94-.14,103.41-.61,42.52-.58,85.05,0,127.57-.67,14.27-.23,28.56.06,42.83.23,42.52.52,85.05,0,127.57.72,16.33.28,32.66-.05,49,.14,21.25.24,42.52-.54,63.75,1.16,9.73.77,19.51,1,29.26,1.56,4.82.27,9.63.72,14.45,1,4.18.22,8.36.31,12.54.67,2.67.23,2.91-.13,3-2.87C922.41,219.72,922.37,218.11,922.37,216.5Zm-325.45-166H313.42c-1.07,0-2.15,0-3.22,0-2.77.08-3.05.44-2.21,3,1.88,5.78,6,9.6,11.3,12.15a43.43,43.43,0,0,0,19,4q258.69,0,517.39,0c1.08,0,2.15,0,3.22,0a41.51,41.51,0,0,0,17.87-4.87,19.21,19.21,0,0,0,8.86-9.45c1.84-4.42,1.55-4.83-3.32-4.84H596.92Zm.51,550.46q-120,0-240,0a19.51,19.51,0,0,0-8.67,2A116.88,116.88,0,0,0,317.62,625a148.31,148.31,0,0,0-28.53,39.14A180,180,0,0,0,278,691.21c-.85,2.65-.76,2.8,1.91,2.85,3.54.07,7.09,0,10.63.07,1.78,0,2.73-.53,3.13-2.38,2.55-11.56,8.25-21.61,15.24-31,11-14.74,24.24-27.25,38.67-38.54,2.62-2.05,5.18-4.21,8.28-5.55a51.5,51.5,0,0,1,20.63-4.46q220.71,0,441.43,0a47.19,47.19,0,0,1,8.64.83,44.38,44.38,0,0,1,20.33,9.12C857.8,631,868.4,640.24,877.6,651,888,663,897.11,675.82,900.7,691.73a2.6,2.6,0,0,0,2.87,2.38c3.76-.05,7.52,0,11.28-.07,2.07,0,2.21-.34,1.68-2.35-.13-.52-.33-1-.5-1.53-7.11-21.44-17.42-41.1-32.51-58a123.56,123.56,0,0,0-37.12-29,21.36,21.36,0,0,0-9.89-2.29Q717,601,597.43,600.91Zm492.16-352.7c0,7.62,0,15.25,0,22.87,0,3.4-.39,3.66-3.67,3.63-1.63,0-3.82-1.41-4.75.22-.79,1.37,1.08,3.06,1.55,4.69.65,2.22,2.13,2.86,4.4,2.76,5.68-.23,11.37-.23,17.05-.49,9.33-.42,18.67-.3,28-.61,11.8-.4,23.61-.42,35.41-.8a10.86,10.86,0,0,0,4.4-.75,38.91,38.91,0,0,0,7.29-4.09c6.55-4.92,10.52-11.05,10.15-19.69-.32-7.61-.07-15.24-.07-22.87a16,16,0,0,0-.37-4.48c-4.11-14.87-15.56-23.58-29.29-23.55-18.58,0-37.15,0-55.73,0a11.36,11.36,0,0,0-9.44,4.6,19,19,0,0,0-3.57,7.15,38.69,38.69,0,0,0-1.34,9.87Q1089.59,237.42,1089.59,248.21ZM114,274.25c-2.56.18-4.46.4-6.36.43-2.44.05-2.8-.33-3-2.71-.05-.86,0-1.72,0-2.58q0-17.24,0-34.46c0-4,.08-8-.14-11.91a23,23,0,0,0-4-12.42C98,207,94.69,205,90,205c-18.25.14-36.5.08-54.75,0-9.11,0-16.85,3.16-22.74,10.15-4.66,5.52-7.79,11.73-7.61,19.29s0,15.25,0,22.87a17.69,17.69,0,0,0,.41,4.47c2.54,9.87,9.76,15,18.65,18.41a7.14,7.14,0,0,0,2.23.23c4.18.09,8.36.27,12.54.41,10,.36,20,.18,29.93.69,6,.3,12,.14,18,.26,7,.13,13.94.34,20.91.53,1.45,0,2.82,0,3.51-1.61C112,278.78,112.85,276.84,114,274.25ZM917.22,192c.25.5.3.76.44.86,6.35,4.38,8.81,10.76,9.68,18.12.41,3.47,0,6.85-.13,10.27-.07,3.15.32,3.52,3.43,3.67,5.79.29,11.58.54,17.37.84,4.29.22,8.57.43,12.85.74a155.53,155.53,0,0,0,39.15-1.64c7.31-1.33,14.43-3.41,20.59-7.87a20.13,20.13,0,0,0,6.36-7.15c1.9-3.76,1.3-4.72-2.89-4.75-4,0-7.94,0-11.92,0-1.4,0-3,0-3.54-1.61-.86-2.4-2.59-2.88-4.83-2.67-1.07.1-2.16-.08-3.22,0-2.47.29-3.89-.86-5.18-2.91-9.15-14.54-18.22-29.13-27-43.93-13.26-22.47-26.24-45.1-37.33-68.75-4.61-9.82-9-19.72-11.63-30.32-.75-3-1.52-6.12-1.24-9.21a7.71,7.71,0,0,0-1.71-5.62c-4.65-6.31-9.24-12.67-13.89-19-3-4.14-3.08-4.11-8.13-4.48l-.32,0c-1.61-.27-2.32.44-2.58,2q-1.92,12.24-4,24.47c-.26,1.56.32,2.25,1.82,2.24a3.29,3.29,0,0,1,3.44,2.32,5,5,0,0,0,1,1.28C902.67,59.29,911.48,69.7,920.39,80a29.11,29.11,0,0,1,4.86,7.54c1.14,2.66,2.27,5.33,3.23,8.07a135.85,135.85,0,0,1,7.61,52.88,96.69,96.69,0,0,1-2.83,19.73C930.69,178,926.46,186.56,917.22,192ZM221,226.87c4.33,0,8.93-.13,13.54-.45,9.64-.66,19.29-1,28.94-1.53,3.07-.16,3.51-.6,3.52-3.67s-.24-6.24,0-9.34c.47-7.22,2.71-13.66,8.73-18.28,1.64-1.25,1.62-1.49-.28-2.73a26.74,26.74,0,0,1-7-6.54,46.39,46.39,0,0,1-7.9-18.51,128.75,128.75,0,0,1-2.09-33.95c.87-14.76,4.48-28.8,9.86-42.46a31.15,31.15,0,0,1,5.41-9.08q8.15-9.36,16.09-18.88c4.1-5,8.71-9.49,12.24-14.91a2.94,2.94,0,0,1,2.16-1.19c2.89-.6,2.88-.63,2.4-3.61q-.85-5.25-1.72-10.49c-.66-4-1.3-8-2-12.07-.18-1-.23-2.22-1.54-2.59-2.37-.67-6.76.84-8.34,2.85-5.36,6.85-10.33,14-15.43,21a6.54,6.54,0,0,0-1.37,4.5,24.36,24.36,0,0,1-.41,5.77,84,84,0,0,1-4.85,16.67c-6.86,17.65-15.61,34.41-24.66,51-11.41,20.93-23.61,41.42-36.16,61.68-3.74,6-7.58,12-11.27,18a4.84,4.84,0,0,1-5,2.67c-1.6-.14-3.22,0-4.83,0-1,0-2.05.21-2.4,1.25-1,3.05-3.46,3.06-6,3-3.76-.05-7.52,0-11.28,0-3.21.05-3.61.67-2.35,3.67a17.55,17.55,0,0,0,4.91,6.68c5.65,4.81,12.39,7.23,19.48,8.78A126.88,126.88,0,0,0,221,226.87ZM880.71,16.7a11,11,0,0,0-4.07-.85c-5.79-.15-11.58-.39-17.37-.62q-16.24-.66-32.48-1.29Q801.88,13,777,12c-10.72-.43-21.44-.88-32.16-1.27-11.15-.42-22.29-.89-33.44-1.31-10.94-.41-21.87-.81-32.8-1.29-13.51-.6-27-1-40.53-1.49l-6.43-.26c-8.68-.34-17.36-.7-26.05-1-2.23-.07-2.51.34-1.82,2.48,1.13,3.47,2.36,6.9,3.56,10.35,1.07,3,1.08,3.11,4.37,3.05a100,100,0,0,1,18,1.32c9.08,1.51,17.81,4,25.21,9.85a5.56,5.56,0,0,0,3.61,1c10,.17,20,.1,29.93.55,7.61.35,15.22.77,22.84,1,3.75.1,7.49.39,11.24.7,11.43.93,22.88,1.77,34.3,2.89,12.71,1.25,25.4,2.62,38,4.37,10.43,1.45,20.83,2.94,31.4,2.36a20.92,20.92,0,0,1,3.54,0c3.39.38,6.22-.8,9-2.58,11.72-7.36,23.54-14.58,35.31-21.86C876.16,19.61,878.22,18.28,880.71,16.7Zm-566.8-.23c.43,1.06,1.33,1.29,2,1.72,12.51,7.74,25,15.5,37.55,23.17,7.82,4.78,4.6,3.9,14.11,3.94,7.83,0,15.63.1,23.44-1.14,14.73-2.35,29.56-3.94,44.41-5.37,11.32-1.1,22.65-2,34-2.83,14.13-1.05,28.27-1.58,42.42-2.19,7.83-.34,15.67-.24,23.51-.26A7.35,7.35,0,0,0,540.15,32a44.6,44.6,0,0,1,16.22-7.58,96.34,96.34,0,0,1,26.46-3.14c3,0,3.26-.15,4.24-2.88,1.19-3.34,2.31-6.7,3.39-10.07.79-2.48.48-2.87-2-2.94-.43,0-.86,0-1.29,0-8.79.37-17.58.83-26.37,1.1-11,.34-22.09.84-33.13,1.28s-22.3.85-33.45,1.3S472.15,10,461.1,10.4c-10.82.44-21.65.78-32.48,1.3-11.15.52-22.3.88-33.45,1.32-10.72.42-21.44.87-32.16,1.26q-22.2.81-44.4,1.53A16.83,16.83,0,0,0,313.91,16.47ZM597,574.41H826.08c1.29,0,2.58,0,3.87,0a2,2,0,0,0,2.16-2.21c0-2.8,0-5.59,0-8.38,0-1.64-.86-2.31-2.41-2.32l-3.54,0c-73.66.21-147.32-.47-221,.62-8.8.13-17.6-.21-26.4-.3-28.66-.3-57.34-.28-86-.31q-62.65,0-125.32,0l-2.58,0a2.15,2.15,0,0,0-2.42,2.36c0,1.61,0,3.22,0,4.83,0,6.05-.14,5.76,5.87,5.76Zm-364.9,68.84,0-.67c-10.38.44-20.77.95-31.16,1.32q-23.64.83-47.22,2.66a351.3,351.3,0,0,0-35.15,4c-2.11.38-4.19.93-6.26,1.46-1.18.3-1.62,1-.89,2.14.58.9,1.16,1.81,1.78,2.68a84.2,84.2,0,0,0,18.07,18.66,92.9,92.9,0,0,0,18.21,10.8,130.75,130.75,0,0,0,14,5.59,17.15,17.15,0,0,0,5.05.87c15.45.26,30.9,0,46.35.56,12.65.43,25.32.21,38,.25,2.69,0,3-.32,3.09-2.9,0-.75,0-1.5,0-2.25.08-6.65-.06-13.32.3-20,.43-7.83.17-15.66.43-23.49a6.89,6.89,0,0,0-.09-1.28,1.18,1.18,0,0,0-1.6-1.09c-.73.15-1.47.3-2.2.48l-15.92,4-23.1,5.8c-3.84,1-4.36.81-4.87-1.38s-.15-2.36,3.53-3.29l2.5-.63Zm731.12-.62c0,.2,0,.39,0,.59.72.2,1.44.41,2.17.59,6.35,1.6,12.71,3.17,19,4.82,2.09.54,2.37,1.1,1.94,2.91s-1,2.15-3,1.78c-.74-.14-1.46-.35-2.19-.53q-19.37-4.87-38.74-9.73c-3.72-.93-3.9-.8-3.83,2.93q.33,19.32.7,38.64c0,2.15,0,4.3.06,6.45s.43,2.34,2.52,2.47c.75.05,1.51,0,2.26,0,13.52-.26,27,0,40.58-.49s27.06-.31,40.59-.36a16.52,16.52,0,0,0,4.76-.64c20.66-6.24,38-17.37,50.8-35,3.27-4.48,3.14-4.81-2.19-6-11.58-2.48-23.36-3.45-35.12-4.41s-23.55-1.65-35.35-2.23c-5.47-.27-10.94-.42-16.41-.68C982.32,643.37,972.78,643,963.25,642.63Zm-161.6-6.85v-.06c-10.2,0-20.4,0-30.6,0-3.66,0-3.71.09-3.74,3.85,0,.11,0,.21,0,.32q0,26.1,0,52.19c0,.64,0,1.28,0,1.93a1.4,1.4,0,0,0,1.58,1.58l1.93,0c17.82-.22,35.63-.05,53.45-.56,15.24-.44,30.49-.24,45.74-.31,4.4,0,8.78-.56,13.19-.47,2.12,0,2.39-.54,1.65-2.62A28.42,28.42,0,0,0,883.7,689a74.26,74.26,0,0,0-8.25-13.43c-11-14.59-24.2-27-38.39-38.38a7.11,7.11,0,0,0-4.8-1.39C822.05,635.8,811.85,635.78,801.65,635.78Zm-408.88-.06v.06c-9.88,0-19.75.11-29.62-.07a10.75,10.75,0,0,0-7.57,2.74,283.78,283.78,0,0,0-23.7,21.76,140.27,140.27,0,0,0-17.1,21.3,67.07,67.07,0,0,0-5.24,10c-1,2.28-.68,2.83,1.62,2.77,4.73-.13,9.43.43,14.15.47,16.73.15,33.46.08,50.2.54,15.87.44,31.76.25,47.64.31,3.49,0,3.74-.32,3.8-3.94,0-.22,0-.43,0-.65V640.11c0-.75,0-1.5-.05-2.25a2,2,0,0,0-2.26-2.12l-2.26,0ZM278.18,440.33a11.63,11.63,0,0,0,1,1.89c4.39,4.45,9.07,7.68,15.93,7.67q301.89-.17,603.79,0a20,20,0,0,0,14.17-5.71,8.24,8.24,0,0,0,2.94-3.85C703.39,441.33,491.14,441.32,278.18,440.33ZM1033.2,209c-1,.5-1.14,1.42-1.5,2.17a24.43,24.43,0,0,1-5,7c-5,4.9-11.15,7.56-17.68,9.54a95.24,95.24,0,0,1-23.14,3.79,322.75,322.75,0,0,1-40.54-1c-5-.38-10.06-.62-15.1-.8-2.73-.1-3,.19-3,2.91-.05,4.83,0,9.67,0,14.5,0,3.46.27,3.8,3.81,4.09q13,1.06,26,2c9.63.73,19.27,1.42,28.89,2.15,10.7.82,21.4,1.68,32.09,2.5,8.14.62,16.26,1.27,24.12,3.73s15.17,5.39,21.8,10.14c5.26,3.76,9.55,8.31,11.88,14.46q13,34.33,26,68.67a5.14,5.14,0,0,0,1.36,2.51c1.23.93,1.27,2.18,1.18,3.48-.18,2.67-.42,5.34-.61,8-.5,7.17-1,14.34-1.49,21.51q-1.18,16.38-2.41,32.75c-.51,7.06-.91,14.13-1.53,21.18-.53,6-1.14,11.91.78,17.82.89,2.73,1,5.71,1.59,8.54.53,2.48.31,5.1,1.39,7.91.31-9.65.17-18.87.67-28.09.45-8.47.19-17,.63-25.43.45-8.89.4-17.81.61-26.71.3-12.45.73-24.89.88-37.34a20.51,20.51,0,0,0-.66-5.73c-1.79-6.64-3.68-13.24-5.73-19.8-9.18-29.38-20.57-57.84-35.58-84.78a236.3,236.3,0,0,0-26.73-39C1035.24,210.73,1034.5,209.5,1033.2,209ZM597.4,624H423.11c-21.91,0-43.81,0-65.72,0a10.89,10.89,0,0,0-7.37,2.48A254.3,254.3,0,0,0,327,647a140.61,140.61,0,0,0-20.14,25.46A66.49,66.49,0,0,0,298.83,691c-.69,2.87-.07,3.42,2.83,3.19,1.65-.13,2.12-1.22,2.56-2.47a65.18,65.18,0,0,1,8.29-15.59c11.9-17.1,27-31,43.19-44a6.87,6.87,0,0,1,4.53-1.24c25.34-.3,50.67-.06,76-.36,39.19-.47,78.39-.25,117.59-.27q46.06,0,92.13.09c47.57,0,95.13,0,142.7.46,14.82.16,29.64.12,44.46,0a10.42,10.42,0,0,1,7,2.44c11,8.94,21.59,18.36,31,29.07,7.81,8.94,14.86,18.37,19.19,29.56a5.41,5.41,0,0,0,.38.89A3.62,3.62,0,0,0,895,694c1.32-.69.83-1.82.58-2.83-.34-1.35-.7-2.71-1.16-4a87.23,87.23,0,0,0-13.73-24.65C870.4,649.09,858.26,637.62,845.2,627a13.4,13.4,0,0,0-9.08-3.14Q716.75,624,597.4,624Zm370.24-49.54h125c1.18,0,2.36,0,3.54,0a2.09,2.09,0,0,0,1.71-.75c1.57-2.11.06-5.81-2.57-6.11-4.37-.51-8.75-1-13.14-1.31-11.67-.71-23.35-1.43-35-1.89-14.8-.58-29.61-.95-44.41-1.33-11.16-.28-22.33-.25-33.49-.57-17.81-.51-35.64-.34-53.46-.65-24.48-.42-49-.24-73.46-.31-1.08,0-2.15,0-3.22,0a1.94,1.94,0,0,0-2.13,2.24c0,1.82,0,3.65,0,5.47,0,5.19-.51,5.23,5.33,5.23Zm-740.84,0H351.11c1.08,0,2.15,0,3.22,0,2.45-.12,2.84-.45,2.92-2.82s.08-4.72,0-7.08c-.07-2.6-.43-3-3-3-2.79-.06-5.58,0-8.37,0-25,.16-50-.14-75,.53-17.27.45-34.55,0-51.82.65-10.83.42-21.67.28-32.51.58-15.87.44-31.75.78-47.61,1.49q-13.83.63-27.64,1.48c-3.85.24-7.68.78-11.52,1.19-1,.1-2.09.11-2.4,1.23a7.07,7.07,0,0,0,.08,4.74c.66,1.45,2.24.92,3.47,1,.85.06,1.72,0,2.58,0ZM909.13,272.12h9.46c3.52,0,3.74-.17,3.77-3.54q0-4.83,0-9.66c0-3.23-.19-3.36-3.53-3.43-8.16-.19-16.31-.16-24.47-.5-11.15-.47-22.32-.2-33.49-.67-10.93-.45-21.89-.24-32.84-.62-15-.53-30-.55-45.08-.8-6-.1-12-.24-18-.35-1.12,0-2.6-.86-3.26.33s.6,2.18,1.28,3.1c3.64,4.87,8.39,8.58,13.18,12.21a3.89,3.89,0,0,0,2.11.71c1.93.16,3.85.39,5.78.44,9.23.21,18.46.15,27.69.57,10.18.47,20.39.21,30.58.68,9.11.43,18.24.34,27.37.59C882.63,271.54,895.62,271.65,909.13,272.12Zm-623.49,0c4.72-.25,9.44-.32,14.16-.52,10.08-.42,20.17-.19,30.26-.68,9.32-.45,18.66-.21,28-.6,12.76-.54,25.54-.51,38.31-.83,6.32-.15,12.67.2,19-.51a7,7,0,0,0,3.57-1.28,79.85,79.85,0,0,0,11.87-10.85,9.8,9.8,0,0,0,1.89-3c.36-.94,0-1.51-1-1.48-1.61.05-3.21.3-4.82.33-11.37.22-22.75.11-34.12.62-10.51.46-21,.14-31.55.61-11.47.51-23,.26-34.45.66-15.12.52-30.26.58-45.39.84-2.15,0-4.3,0-6.44.07s-2.63.42-2.69,2.68q-.12,5.48,0,10.95c0,2.54.51,2.93,3.11,3C278.77,272.16,282.21,272.12,285.64,272.12Zm789.48,307.43h-15.46c-1.61,0-3.22,0-4.82,0-3,.06-3.09.21-2.4,3.22,0,.21.12.41.17.62q2.4,9.86,4.78,19.7c3,12.51,6.17,25,9.1,37.53.63,2.7,1.85,4,4.64,4.25a70.78,70.78,0,0,1,12.29,2.46c2.87.84,2.9.84,4.19-1.74a79.34,79.34,0,0,0,6.78-20.73c1.39-7.39,1.82-14.9,2.57-22.36.63-6.4,1.66-12.77,1.45-19.24-.11-3.43-.27-3.68-3.66-3.7C1088.21,579.53,1081.66,579.55,1075.12,579.55Zm-955,0H106.88l-7.41,0c-1.56,0-2.4.69-2.39,2.32,0,.86,0,1.72-.09,2.58-.49,13.25.92,26.38,2.83,39.45a78.65,78.65,0,0,0,6.86,21.74c1.17,2.52,1.23,2.54,3.9,1.76a72.48,72.48,0,0,1,12.93-2.62c2.8-.27,3.74-1.64,4.33-4.16,3.1-13.17,6.35-26.3,9.56-39.44,1.52-6.26,3.09-12.51,4.59-18.77.6-2.52.38-2.75-2.24-2.87-.64,0-1.29,0-1.93,0Zm807.1-315.14h0v6.12a1.74,1.74,0,0,0,1.93,2l1.61,0c8.69.2,17.38.15,26.07.56,10,.47,19.95.2,29.93.67,9.54.45,19.09.18,28.64.62,10.07.47,20.17.14,30.26.65a11.48,11.48,0,0,1,7.33,2.72,41.29,41.29,0,0,1,9.94,12.53,52.14,52.14,0,0,1,4.72,15c.41,2.41.72,2.67,3.11,2.73,1.61,0,3.22,0,4.83,0,2.69-.08,2.9-.35,2-2.8-1.87-5-4.09-9.95-5.63-15.08a26.4,26.4,0,0,0-10.34-13.95c-9.33-6.79-20-10.43-31.22-12.14-8.57-1.31-17.31-1.47-26-2.14-6.52-.51-13-1-19.57-1.51-9.52-.76-19-1.56-28.55-2.3-6.85-.53-13.7-1-20.55-1.51-1.6-.12-3.2-.37-4.8-.43-3.57-.16-3.7,0-3.74,3.43C927.18,261.19,927.19,262.8,927.19,264.41Zm-660.14.18h0v-4.18c0-4.31-.13-4.47-4.28-4.24-3.64.2-7.28.53-10.91.82-10,.78-19.89,1.59-29.83,2.36-6.52.51-13,1-19.57,1.48-9.73.77-19.45,1.7-29.19,2.32a83.67,83.67,0,0,0-20.55,3.49c-7.81,2.52-15.34,5.6-21.76,10.87-3.81,3.12-6.82,6.81-8.18,11.67-.37,1.34-1,2.63-1.44,3.93-1.56,4.11-3.16,8.21-4.68,12.34-.85,2.32-.69,2.5,1.86,2.56,1.93.05,3.86,0,5.8,0a1.94,1.94,0,0,0,2.2-1.83c.35-2,.69-4,1.2-6,2.41-9.3,6.85-17.33,14.69-23.19,1.3-1,2.62-1.9,4.35-1.86,2.68.06,5.35-.32,8-.39,10.29-.27,20.59-.16,30.89-.66,9-.43,18-.16,27-.59,10.39-.5,20.8-.2,31.21-.69,6.75-.31,13.52-.18,20.28-.29,2.48,0,2.74-.33,2.83-2.82C267.1,268,267.05,266.31,267.05,264.59Zm612.2,51.75c-1.86-1.81-3.78-3.61-5.62-5.49a8.52,8.52,0,0,0-6.62-2.57c-16.85.07-33.71,0-50.57-.06a30.58,30.58,0,0,1-4.17-.21,56.36,56.36,0,0,1-23.38-8.36c-13.95-9-27.53-18.33-38.8-30.65a58.5,58.5,0,0,1-9.5-13.72c-1.56-3.15-2.06-3.43-5.47-3.17-2.19.17-2.52.47-2.59,2.78s.08,4.52-.06,6.76a6.34,6.34,0,0,0,2.15,5.11c6.52,6.7,13.35,13.06,20.4,19.19,11.43,10,23.38,19.23,36.86,26.34,9,4.74,18.28,7.64,28.69,6.91,11.76-.83,23.58-1,35.37-1.4,7.08-.25,14.16-.47,21.24-.73A2.16,2.16,0,0,0,879.25,316.34Zm-564.56.46c.92.14,1.33.24,1.73.26l24.46.79c1.5,0,3,.06,4.51.13,11.68.56,23.36,1.12,35.06,1.23A27.83,27.83,0,0,0,388.7,318a76,76,0,0,0,16.8-7.31c20.62-11.95,38.2-27.66,54.79-44.58a3.67,3.67,0,0,0,1.32-2.5c0-3.11,0-6.23,0-9.34a1.88,1.88,0,0,0-1.34-2,4.76,4.76,0,0,0-6.17,2.4,63.67,63.67,0,0,1-12.86,17.61c-11.92,11.94-25.79,21.28-40.18,30-7.08,4.27-14.86,5.6-22.78,5.9-11.58.44-23.18.17-34.78.2-5.8,0-11.6,0-17.4,0a5.3,5.3,0,0,0-4.12,1.4C319.73,312,317.39,314.19,314.69,316.8ZM270.16,51.24c-.84,1.21-1.68,2.41-2.51,3.64Q257.33,70.24,247.56,86a940.92,940.92,0,0,0-54.47,101.15q-1.62,3.51-3.13,7.06c-.42,1-.12,1.62,1.08,1.73,2.08.19,3.65-.22,4.84-2.25,2.71-4.63,5.71-9.1,8.53-13.66,16-25.82,31.52-51.94,45.55-78.91,6.65-12.76,13-25.68,17.76-39.28A34.74,34.74,0,0,0,270.16,51.24ZM924,51.8a20.29,20.29,0,0,0,1.24,5.74,207.67,207.67,0,0,0,11.4,28c7.12,14.94,15,29.48,23.17,43.86q18.21,32.1,38.05,63.2A21,21,0,0,0,999.5,195c.79.91,3.69,1.39,4.49.67,1.21-1.09-.06-2.13-.31-3.18a5,5,0,0,0-.39-.89q-11.55-25.37-24.58-50a955.33,955.33,0,0,0-52.39-87.23A5.86,5.86,0,0,0,924,51.8ZM350.43,75.19l-.13-.73c-3.94,0-7.88-.09-11.82,0a46.06,46.06,0,0,1-22.1-4.82c-1.52-.75-2.53-.63-3.62.67-2,2.39-4.12,4.66-6.14,7q-14.44,16.86-28.86,33.77c-4.3,5.07-8.48,10.25-12.69,15.4-1.14,1.39-2.28,2.85-1.16,5.22Zm492.82-.73a25.24,25.24,0,0,0,4.91,3.44q39.55,25.93,79.14,51.82c.53.35,1.07.72,1.62,1s1,.53,1.48.11.39-1,.36-1.5a4,4,0,0,0-1-2.3c-.94-1.17-1.87-2.35-2.82-3.52-11.31-13.88-23.06-27.4-34.68-41-3.48-4.07-7.1-8-10.62-12.08-1-1.2-2-1.67-3.6-.85-7.3,3.86-15.16,5.13-23.34,4.88C851.05,74.37,847.44,74.46,843.25,74.46ZM1026,300c-9.55,0-19.11,0-28.66,0-1.79,0-3.44.13-4.64,1.65-.82,1-2.76,1.67-2.23,3.16.44,1.22,2.29.87,3.51,1.05,11.07,1.57,22.24,1.75,33.39,2.1,10,.32,20,.11,30,.12,6.06,0,6.19.53,4.72-6.09a35.68,35.68,0,0,0-11.1-19.55c-1.45-1.29-2.91-2.47-5.07-2.48-7.4,0-14.8-.23-22.2-.53-8.9-.37-17.81-.18-26.72-.58-10.5-.48-21-.2-31.54-.71-6-.28-12-.19-18-.24s-11.78-.66-17.69-.5c-1.52,0-2.44.49-2.45,2.21,0,2,.35,2.61,2.19,2.82a49,49,0,0,0,5.13.42c15.13.23,30.25.81,45.37,1.28q14.8.47,29.63.22a139.68,139.68,0,0,1,30.67,3.17,51.2,51.2,0,0,1,13.75,4.44,9.47,9.47,0,0,1,3.92,3.25c1.73,2.79.7,4.71-2.58,4.8-.76,0-1.51,0-2.26,0ZM197.47,284.41c6.52-.23,14.89-.14,23.26-.57,10.29-.54,20.6-.64,30.9-.87,4.3-.09,8.59-.08,12.87-.49,1.48-.14,2.45-.57,2.53-2.25.09-2-.43-2.76-2.52-2.8-4.83-.1-9.65.22-14.48.4-9.33.37-18.67.15-28,.61-10.08.5-20.17.28-30.26.66-14.16.53-28.34.63-42.51.85a7.61,7.61,0,0,0-5,1.84c-7.06,5.84-10.66,13.58-12.33,22.37-.73,3.89-.64,3.91,3.36,3.92,19,.07,38,.16,57-1.33,3.63-.28,7.25-.82,10.85-1.36,1.45-.22,1.59-.86.6-1.89a10.66,10.66,0,0,0-8.46-3.58c-18,.21-36.09.1-54.13.1-1,0-1.94,0-2.9,0-2.18-.16-3-1.42-2.39-3.47a7,7,0,0,1,3-3.65,26.88,26.88,0,0,1,7.95-3.45,129.26,129.26,0,0,1,34.31-5ZM423.92,44.93a9.56,9.56,0,0,0,3.71.38H572.51c.75,0,1.5,0,2.25,0a3.17,3.17,0,0,0,3.57-2.51c1.52-4.58,3.22-9.1,4.78-13.67,1-2.81.84-3.09-2-3-7.94.29-15.85.78-23.55,3-5.81,1.69-11.42,3.78-15.92,8A4.88,4.88,0,0,1,538,38.31c-6.86.11-13.72.21-20.58.38-9.76.24-19.52.62-29.27,1-4.06.18-8.14.37-12.2.68-10.38.77-20.75,1.56-31.11,2.45C438.06,43.43,431.26,44.19,423.92,44.93ZM770,45c-2.52-.3-4.63-.61-6.75-.8-11-1-22-2-33-2.86-13.59-1-27.19-1.84-40.8-2.27-10.94-.35-21.88-.9-32.84-.72a6,6,0,0,1-4.38-1.59,33.31,33.31,0,0,0-11.18-6.22c-9.13-3.24-18.61-4.13-28.2-4.35-2.43-.06-2.57.21-1.74,2.65,1.35,4,2.76,7.91,4.16,11.85,1.66,4.66,1.67,4.66,6.6,4.67H766.52A8.74,8.74,0,0,0,770,45ZM913,641.42c-4.07,0-8.15,0-12.23,0-.83,0-1.93-.35-2.43.4-.67,1,.47,1.71.88,2.53a11,11,0,0,0,.71,1.07,166.49,166.49,0,0,1,14.16,26,182,182,0,0,1,7.45,19.88c.79,2.66,1,2.83,3.88,2.77,2.36-.06,4.71-.3,7.06-.43a2,2,0,0,0,2.06-2.31c0-.75.05-1.5,0-2.25-.37-7.39-.4-14.79-.53-22.19s.29-14.59-.51-21.87c-.3-2.65-.46-2.75-3.15-3C924.58,641.46,918.79,641.55,913,641.42Zm-616.69.24a6.57,6.57,0,0,0-3-.24c-6.43,0-12.86.12-19.3.14a76.16,76.16,0,0,0-9.31.43c-2.4.3-2.61.52-2.8,3-.3,3.85-.39,7.71-.45,11.57-.17,10.29.15,20.59-.59,30.86-.1,1.39,0,2.79,0,4.19a1.74,1.74,0,0,0,1.7,1.95c2.45.19,4.91.32,7.37.49a2.32,2.32,0,0,0,2.6-1.88c.21-.72.46-1.43.69-2.15a177.51,177.51,0,0,1,22.44-46.47C296,643,296.61,642.61,296.31,641.66Zm678-322.56c.12.21.24.42.35.63,14.67.83,29.32,1.69,44,2.48,10.17.56,20.35,1,30.53,1.53,4.82.26,9.63.68,14.44.94q9.33.51,18.65.87c2.81.11,3-.19,1.93-3-.78-2.11-1.6-4.21-2.41-6.32-1.28-3.38-1.28-3.38-4.86-3.41h-2.25c-21.14-.09-42.28.55-63.41-.58-8.26-.44-16.5-.85-24.56-2.89a2.61,2.61,0,0,0-2.7.43Zm-754,.42c-3.53-3.87-7.12-6.73-10.4-9.91a2.14,2.14,0,0,0-2.14-.23c-11.67,2.78-23.59,3-35.48,3.31-13.83.32-27.67.17-41.51.21-4.72,0-9.45,0-14.16-.08-2-.05-3.23.66-3.88,2.58-.78,2.34-1.76,4.61-2.58,6.93-1,3-.8,3.33,2.47,3.21,5.46-.21,10.93-.39,16.38-.8,4.39-.34,8.78-.43,13.17-.68,13.49-.74,27-1.59,40.45-2.33,10.07-.55,20.14-1,30.2-1.51C215.14,320.1,217.37,319.81,220.38,319.52Zm784.93,378.54h-1.47c-5.17,0-5.18,0-5.18,5.07q0,63,0,125.93c0,1,0,1.93,0,2.89,0,1.27.62,2.08,1.93,2.1,2.57,0,5.15,0,7.72,0,.66,0,1.4-.27,1.38-1,0-.94-.89-.81-1.47-.72-3,.41-5.41-.77-7.74-2.48-1.33-1-1-1.93-.31-3s1.47-1.87,2.85-1.06a22.56,22.56,0,0,0,2.22,1.3c3.34,1.49,4.72.59,4.67-3,0-.21,0-.43,0-.64.17-1.64-.44-2.45-2.19-2.2-2.52.36-4.59-.71-6.58-2.09s-2-1.68-1.07-3.3,1.51-1.84,3.37-1c.58.27,1.12.65,1.72.87,3.68,1.34,4.87.43,4.79-3.38,0-1.69-.61-2.39-2.29-2.15-2.55.36-4.57-.89-6.54-2.22s-2-1.79-1-3.33,1.64-1.78,3.44-.92a14.61,14.61,0,0,0,2.61,1.21c3.16.78,3.77.27,3.79-3,0-.65,0-1.29,0-1.94-.06-2.47-.07-2.65-2.45-2.48a9.59,9.59,0,0,1-6.53-2.26c-1.65-1.22-1.76-1.75-.7-3.42s1.43-1.65,3.16-.73a9.35,9.35,0,0,0,3.5,1.54c2.75.26,3,.13,3-2.56,0-1.07,0-2.14,0-3.22.06-1.39-.58-2-1.94-1.82a9.34,9.34,0,0,1-6.87-2.17c-1.84-1.38-2-1.73-1-3.34s1.58-1.86,3.39-.83a9.26,9.26,0,0,0,4.25,1.27c1.48.06,2.21-.34,2.16-2-.08-2.57-.07-5.15,0-7.73,0-1.52-.56-2.2-2.1-2a9.06,9.06,0,0,1-6.58-2c-2-1.43-2.12-1.72-1.21-3.29,1.06-1.81,1.64-2,3.61-.9a8.8,8.8,0,0,0,4.27,1.17c1.32,0,2-.31,2-1.77-.05-3.11,0-6.23,0-9.34,0-1.36-.52-2-1.91-1.87a9.35,9.35,0,0,1-6.61-2c-2.13-1.47-2.34-1.91-1.34-3.51s1.66-1.86,3.69-.71a9.09,9.09,0,0,0,4.28,1.16c1.42.06,1.91-.52,1.89-1.88,0-4,0-7.95,0-11.92,0-2.17-.09-2.34-2.44-2.17a9.92,9.92,0,0,1-6.56-2.18c-1.64-1.15-1.74-1.77-.67-3.45s1.47-1.72,3.15-.74a9,9,0,0,0,4.47,1.56c1.54,0,2.13-.41,2.09-2-.09-3.33,0-6.66,0-10,0-2.64-.06-2.78-2.63-2.68s-4.74-1.1-6.79-2.52a1.77,1.77,0,0,1-.54-2.74c1.06-1.81,1.59-2,3.61-1a17.27,17.27,0,0,0,1.74.83c3.63,1.2,4.65.46,4.61-3.27,0-.22,0-.43,0-.65-.1-2.49-.17-2.56-2.57-2.41Zm-808.6,68v-62.8c0-1,0-1.93,0-2.89a2,2,0,0,0-2.12-2.27l-7.72-.16c-.56,0-1.14.14-1.25.76a16,16,0,0,0,0,5.12c.09.65.68.77,1.23.79a8,8,0,0,0,4.93-1.15c1.73-1.19,2.54-.85,3.62,1,.9,1.52.7,1.9-1.24,3.3a9.19,9.19,0,0,1-6.63,2c-1.56-.18-2.1.5-2.07,2,.06,3.65,0,7.3,0,10.95,0,1.19.38,1.7,1.67,1.72a8.8,8.8,0,0,0,4.82-1.51c1.7-1,2.22-.85,3.18.62,1.09,1.66,1,2.33-.57,3.47-2.14,1.57-4.44,2.59-7.19,2.18-1.37-.21-1.93.4-1.92,1.8.05,4.19,0,8.37,0,12.56,0,1.25.57,1.64,1.77,1.67a8.94,8.94,0,0,0,5.14-1.6c1.37-.88,2.17,0,2.89,1s1,2.11-.36,3c-2.23,1.56-4.47,3-7.39,2.61-1.25-.17-2.07.21-2.06,1.71,0,3.22,0,6.44,0,9.66,0,1.29.66,1.61,1.83,1.6a8.87,8.87,0,0,0,4.58-1.25c1.81-1.05,2.33-.84,3.38.84s.86,2-1,3.33a9.32,9.32,0,0,1-6.88,2.15c-1.36-.16-2,.43-2,1.83,0,2.57,0,5.15,0,7.72.05,2.09.16,2.06,2.26,2.13a9.27,9.27,0,0,0,4.79-1.64c1.46-.8,2.15.26,2.83,1.27s.82,2-.36,2.77c-1.79,1.15-3.42,2.56-5.74,2.69-3.81.21-3.8.28-3.8,4.14,0,.54,0,1.08,0,1.61-.1,1.33.34,2,1.82,1.89a7,7,0,0,0,3.68-.94,14.54,14.54,0,0,1,1.66-1c1.3-.7,2,.15,2.59,1.1s1.25,2,0,2.81c-1.83,1.26-3.53,2.77-6,2.82-3.78.08-3.78.16-3.77,4.1,0,.43,0,.86,0,1.29.09,2.17.23,2.21,2.5,2.2,1.73,0,3-.93,4.46-1.65,1.64-.83,2.32.36,3.05,1.44s.44,2-.64,2.72c-2.24,1.51-4.48,3-7.4,2.58-1.32-.18-2.05.34-2,1.78a16.89,16.89,0,0,1,0,2.25c-.12,1.63.73,2,2.18,1.93a9.58,9.58,0,0,0,4.83-1.57c1.24-.73,2-.09,2.65.92s1.43,1.94.21,2.82c-1.89,1.37-3.75,2.84-6.31,2.92-3.63.11-3.63.19-3.56,3.7,0,.43,0,.86,0,1.29,0,1,.53,1.24,1.43,1.28a8.18,8.18,0,0,0,4.85-1.4c1.91-1.2,2.4-1,3.41.59s.92,2.26-1,3.63a9.44,9.44,0,0,1-6.93,2c-.58-.07-1.48-.28-1.57.6s.8,1.17,1.56,1.19c1.82.06,3.65.08,5.47.06,3.85,0,4-.16,4-4,0-.65,0-1.29,0-1.94Zm-26.87-46.45a1.65,1.65,0,0,0-1.52.23,9.56,9.56,0,0,1-5.31.92c-2.45-.1-3-.52-3-2.32s.45-2.44,2.85-2.44c2.17,0,3.92-.94,5.74-1.85a2.86,2.86,0,0,0,1.73-2.82c0-3.65.05-7.3,0-11,0-1.84-.45-2.13-2.16-1.34a11.19,11.19,0,0,1-6,.84c-1.17-.11-2.16-.54-2.14-1.92,0-1.73-1-2.43-2.44-2.91s-3-1.14-4.53-1.67c-2.15-.75-2.53-.55-2.59,1.63-.08,2.79-.07,5.58,0,8.37.06,2.52.35,3,2.77,2.84,2.76-.14,5,1,7.27,2.23,1.73,1,1.84,1.58.87,3.38-.83,1.55-1.24,1.68-3.11.83-1.55-.71-3-1.6-4.84-1.55-2.41.06-2.89.37-2.95,2.73-.08,3.44-.08,6.87,0,10.31.06,2.42.39,2.84,2.88,2.77,2.88-.08,5.15,1.26,7.52,2.51,1.21.62,1.32,1.5.79,2.68-.92,2.06-1.53,2.31-3.74,1.33-1.56-.7-3-1.7-4.82-1.64-2,.06-2.55.36-2.61,2.38-.1,3.21-.09,6.44,0,9.65.06,2,.48,2.53,2.52,2.5,2.73,0,5,1.08,7.25,2.33,1.9,1.05,2.1,1.65,1.3,3.27s-1.47,1.9-3.36,1.06c-1.58-.69-3.08-1.51-4.89-1.44-2.15.09-2.73.5-2.82,2.61-.1,2.57-.1,5.15,0,7.72.08,2,.5,2.57,2.49,2.56a15.16,15.16,0,0,1,7,2.13c1.49.75,2.55,1.55,1.68,3.46-.43.92.12,1.37,1.05,1.47a9.55,9.55,0,0,0,5.24-1.24,3.6,3.6,0,0,0,2.42-3.74c-.11-1.92,0-3.86,0-5.79-.07-2.35-.32-2.57-2.4-1.66a11.3,11.3,0,0,1-6,.71,2,2,0,0,1-1.93-2.13c-.11-2,.39-2.75,2.53-2.8a12.58,12.58,0,0,0,5.83-1.57,3.16,3.16,0,0,0,2-3c0-2.68.06-5.37,0-8-.06-1.8-.45-2.05-2.22-1.32a11.5,11.5,0,0,1-5.66.9c-2-.2-2.4-.79-2.43-2.66,0-1.66.85-2.3,2.37-2.36a21.06,21.06,0,0,0,2.25-.12c4.13-.58,5.72-2.4,5.73-6.53,0-2.68,0-5.37,0-8C170.27,721.25,170.51,720.36,169.84,719.62Zm864,51.56a2.94,2.94,0,0,0,0-1c-.82-1.76-.13-2.76,1.5-3.55,2.23-1.09,4.38-2.29,7-2.14A2.21,2.21,0,0,0,1045,762c0-2.69.08-5.37,0-8-.08-1.9-.68-2.29-2.68-2.41s-3.52.79-5.19,1.51-2.33.48-3.13-1-.67-2.26.91-3.17c2.32-1.33,4.66-2.68,7.52-2.5,1.27.08,2.49-.28,2.53-1.83.08-3.64.06-7.29,0-10.94a1.7,1.7,0,0,0-1.87-1.78,6.63,6.63,0,0,0-3.45.6c-.95.49-1.93.92-2.9,1.38-1.49.7-2.16-.23-2.75-1.36s-.83-2.23.6-3c2.46-1.32,4.86-2.66,7.84-2.53,2.1.08,2.51-.4,2.57-2.42q.13-5.47,0-11c0-2-.54-2.28-2.6-2.43s-3.5.8-5.15,1.57c-1.84.86-2.3.7-3.13-.84-1-1.8-.86-2.43.87-3.39,2.25-1.25,4.52-2.49,7.27-2.19,1.38.15,2.69-.15,2.72-1.93.06-3.54,0-7.08,0-10.62,0-1.17-.67-1.5-1.72-1.09-1.51.58-3,1.23-4.51,1.75s-2.85,1.39-2.9,3.36c0,1.62-1.11,2.17-2.59,2.22a12.66,12.66,0,0,1-6-.93c-1.68-.78-2.09-.48-2.13,1.41-.07,3.55,0,7.09,0,10.63a3.3,3.3,0,0,0,2.07,3.28,11.23,11.23,0,0,0,6.13,1.64,2.05,2.05,0,0,1,2.47,2.24c0,1.7-.6,2.4-2.55,2.51-2.15.13-4.29.17-6.28-1-1.17-.66-1.82-.21-1.82,1.15,0,3.76,0,7.52,0,11.28a3.2,3.2,0,0,0,2,3,13.36,13.36,0,0,0,6.47,1.62c1.69,0,2.24.85,2.23,2.5s-.55,2.3-2.29,2.47a12.52,12.52,0,0,1-6.29-1c-1.57-.67-2-.39-2.07,1.2-.09,2.79,0,5.59,0,8.38a3.08,3.08,0,0,0,1.81,2.79,13.69,13.69,0,0,0,6.78,1.68c1.61.08,2.14,1,2.1,2.63a2.09,2.09,0,0,1-2.12,2.32,12.68,12.68,0,0,1-6.31-.83c-1.87-.85-2.19-.58-2.26,1.54s0,4.3,0,6.45a2.53,2.53,0,0,0,.88,2.31C1028.35,770.86,1030.77,772.21,1033.84,771.18ZM865.57,285.89l-.18.6q13.33,11.83,26.68,23.68a5,5,0,0,0,3.57,1.14c7.83,0,15.66,0,23.49,0,3,0,3.2-.24,3.22-3.05q.07-9,0-18c0-2.84-.25-3-3.19-3.09l-30.87-.79c-3.54-.09-7.07-.15-10.61-.38C873.66,285.69,869.61,285.89,865.57,285.89Zm-536.83.31c-.77-.71-1.55-.45-2.27-.45-4.83,0-9.65.29-14.48.46-12.11.42-24.24.62-36.36.92-3.21.08-3.4.24-3.42,3.57q-.06,8.54,0,17.07c0,3.27.26,3.51,3.48,3.52,7.41,0,14.81,0,22.22,0a7.22,7.22,0,0,0,5.22-2c8.09-7.22,16.25-14.35,24.38-21.52A3,3,0,0,0,328.74,286.2Zm654.22,3c-.81-.09-1.33-.19-1.85-.2l-27.64-.76c-7.5-.2-15-.46-22.5-.63-3.63-.08-3.76.11-3.77,3.81,0,5.47,0,10.94,0,16.41,0,3.31.13,3.44,3.45,3.45,9.33,0,18.67-.05,28,0a6.51,6.51,0,0,0,5.07-2.22c5.63-5.74,11.36-11.39,17-17.09A7.46,7.46,0,0,0,983,289.22Zm-771,.19a1.2,1.2,0,0,0,.45,1.19q9.66,9.67,19.33,19.36a4.93,4.93,0,0,0,3.8,1.35c9.44,0,18.88,0,28.32,0,2.87,0,3.16-.3,3.19-3.12,0-5.69,0-11.37,0-17.06,0-3.2-.33-3.55-3.53-3.47-5.25.12-10.5.23-15.75.46-11,.5-22.08.62-33.12.91C213.73,289,212.74,288.75,212,289.41ZM942.79,622.75h28c4.29,0,8.58,0,12.87,0,2,0,2.32-.52,1.44-2.35-2.57-5.37-6.62-8.6-12.81-8.6H895.38c-.32,0-.65,0-1,0-.73.07-1.63-.22-2.07.53s.36,1.36.8,1.91c1.4,1.77,3,3.4,4.25,5.26,1.67,2.45,3.78,3.36,6.78,3.33C917.05,622.67,929.92,622.75,942.79,622.75ZM302.68,612.38a6.26,6.26,0,0,0-3.81-.59q-38,0-76,0c-.64,0-1.29,0-1.93,0-5.58.44-9.26,3.6-11.67,8.4-.88,1.77-.46,2.35,1.44,2.52,1,.08,1.93,0,2.9,0h76c1,0,1.93,0,2.89,0a3,3,0,0,0,2.36-.85C297.44,618.77,300,615.65,302.68,612.38Zm524.87,6.36A32.68,32.68,0,0,0,816.12,617q-218.91,0-437.82,0c-1.19,0-2.37-.06-3.55,0a24.18,24.18,0,0,0-8.17,1.69ZM1056.38,686c-.94.5-1.93,1.13-3,1.58-2.49,1-3.69,2.79-3.27,5.52a7.85,7.85,0,0,1,0,1V828.78c0,1,0,1.94,0,2.9.16,1.9.82,2.46,2.65,2.4s2.26-.59,2.31-3c.27-13,.27-26,.49-39,.37-21.47.43-42.94.74-64.41C1056.54,713.84,1056.38,700,1056.38,686ZM145.26,761.57V735.16c0-14,0-27.92,0-41.88,0-2.28-.55-3.81-2.76-4.87-3.63-1.75-3.78-1.79-3.73,2.42.22,17.17.07,34.34.56,51.52.53,18.78,0,37.57.69,56.35.23,6.33.07,12.67.1,19,0,4.51,0,9,.12,13.53,0,2.33.59,2.87,2.5,2.84s2.36-.59,2.47-2.92c0-1,0-1.93,0-2.9Zm35.34,4.53V702.64c0-1.08,0-2.15,0-3.22a1.67,1.67,0,0,0-1.55-1.73c-2.92-.55-3.83.19-3.89,3.28V829.52c0,1,0,1.93.08,2.89a1.63,1.63,0,0,0,1.66,1.63c3.08.31,3.91-.46,3.75-2.86,0-.86,0-1.72,0-2.58Zm834.18-.33q0,31.58,0,63.15c0,1.07,0,2.15.05,3.22a1.84,1.84,0,0,0,1.76,1.92c2.6.46,3.57-.29,3.67-2.93,0-.64,0-1.28,0-1.93V702.27c0-.75,0-1.51,0-2.26.07-1.59-.6-2.33-2.26-2.38-2.69-.07-3.14.27-3.22,3.07,0,.86,0,1.72,0,2.57ZM784.88,274.26c1.77,1.39,3,2.2,4.06,3.22,2.36,2.34,5.1,3,8.44,3.06,24.47.14,48.94-.58,73.41.39,9.86.39,19.74.52,29.6.78,4.08.11,8.15.07,12.22.47a61,61,0,0,0,7.41.09c1.89-.06,2.28-.53,2.32-2.3.06-1.94-.37-2.52-2.35-2.63-3.42-.2-6.86-.35-10.28-.45-10.4-.31-20.81-.21-31.22-.68-8.89-.4-17.8-.2-26.71-.59-10.5-.46-21-.23-31.54-.7-8.78-.39-17.59,0-26.38-.63C791.13,274.09,788.38,274.26,784.88,274.26Zm-376.2.6-.31-.63c-4.18-.05-8.34.21-12.51.36-9.87.37-19.75.17-29.62.65-9.43.46-18.88.17-28.32.63-10,.48-19.95.18-29.93.66-7.4.35-14.82.17-22.22.3-3.65.07-7.29.32-10.93.47-1.26.06-2.34.3-2.57,1.85-.31,2.05.38,3.07,2.5,3.12,3.64.09,7.29-.29,10.93-.37,15.12-.37,30.24-1,45.37-1.3,17.39-.32,34.78-.11,52.18-.13H399c1.29,0,2.59,0,3.69-.83Q405.69,277.24,408.68,274.86ZM255.43,703.75a9.39,9.39,0,0,0-3.68,1.15c-3.85,1.63-7.64,3.42-11.55,4.89-8.8,3.32-17.31,7.57-26.87,8.51-1.22.12-1.59,1-1.6,2,0,4.81,0,9.62,0,14.46,3-.81,5.84-1.49,8.66-2.38,8.7-2.73,17.15-6.13,25.57-9.62,2.47-1,4.93-2.09,7.41-3.12a2.93,2.93,0,0,0,2.06-2.93C255.42,712.48,255.43,708.21,255.43,703.75Zm728.22,31.18c0-4.95,0-9.77,0-14.58,0-1.47-.8-2.09-2.23-2.11a23.16,23.16,0,0,1-6-1.09,151.94,151.94,0,0,1-15.48-5.45c-5.86-2.37-11.66-4.91-17.52-7.32-2-.85-2.51-.57-2.54,1.63-.06,3.33.09,6.66,0,10a3.7,3.7,0,0,0,2.6,3.92c11.2,4.64,22.36,9.38,34,13C978.79,733.61,981.27,733.75,983.65,734.93ZM201.53,766q0,31.72,0,63.44c0,1,0,1.93.06,2.9.07,1.2.83,1.66,1.94,1.68s1.92-.33,2.05-1.55a17.8,17.8,0,0,0,.08-1.93q.08-33.48.63-67c.18-10.3,0-20.61.21-30.91.1-6.33-.13-12.65.37-19,.34-4.27.09-8.59.08-12.88,0-1,.11-2-1-2.48-2.31-1.06-4.29.11-4.39,2.62,0,.86,0,1.72,0,2.58Zm792.31,0V703.59c0-1,0-1.94,0-2.9-.12-2.11-.48-2.46-2.45-2.54-2.31-.09-2.91.38-2.94,2.69-.08,5.36.22,10.72.32,16.08.37,20.59.12,41.19.64,61.8.43,16.94.23,33.91.3,50.87,0,.85,0,1.71,0,2.57,0,1.34.8,1.9,2.08,1.89a1.78,1.78,0,0,0,2-2c0-1,0-1.93,0-2.89ZM811.7,302.9l.27-.62c-2.58-2.07-4.9-4.67-7.8-6.08s-4.78-3.77-7.09-5.77a218.35,218.35,0,0,0-19.8-15.38,94.74,94.74,0,0,1-9.69-7.45c-4.53-4.05-9.43-7.88-11.37-14.07a1.5,1.5,0,0,0-1.41-1.15c-2.89-.06-5.78-.11-8.67-.08a.91.91,0,0,0-.86,1.36,19.53,19.53,0,0,0,1.14,2.29,60.93,60.93,0,0,0,9.71,12.37c11.78,11.9,25.47,21.25,39.79,29.81C800.91,301.12,806.33,301.71,811.7,302.9Zm-429.15-.73.32.76c4.11-1,8.52-1,12.32-3.11,16.54-9.25,32.12-19.8,45.14-33.76a57.76,57.76,0,0,0,8-10.84c.45-.8,1.19-1.57.72-2.88-3.11,0-6.3,0-9.48,0-1.05,0-1.43.76-1.68,1.65a17.37,17.37,0,0,1-3.27,5.86,54.45,54.45,0,0,1-10.24,9.71c-8.93,6.85-18.27,13.15-26.83,20.48-1.13,1-2.49,1.72-2.77,3.39a1.64,1.64,0,0,1-1.63,1.31,5,5,0,0,0-2.68,1Zm679.28,388.27h-.1c0,1.93,0,3.86,0,5.79.07,2.76.33,3,3,2.75,1-.08,1.93-.16,2.89-.2,6.42-.3,12.84-.54,19.26-.89q4.34-.23,8.64-.76c2.45-.32,2.89-.87,3-3.34s.07-4.93,0-7.39c-.07-3-.52-3.36-3.64-3.61q-14.1-1.14-28.18-2.32c-2.83-.24-4.68,1.3-4.8,4.19C1061.76,686.58,1061.83,688.51,1061.83,690.44Zm-928.19.69h0c0-1.61,0-3.22,0-4.83-.09-3.88-2.2-5.87-6.08-5.63s-7.69.53-11.54.84c-5.45.43-10.9.86-16.34,1.35-2.08.19-2.65.75-2.72,2.82-.11,2.89,0,5.79,0,8.69A2.39,2.39,0,0,0,99.18,697c.74.12,1.48.23,2.23.3,9.93.91,19.9,1.19,29.85,1.76,1.88.11,2.26-.19,2.36-2.14S133.64,693.06,133.64,691.13ZM596.85,5.23c-.66,1.76-1.27,3.33-1.83,4.91-2.23,6.27-4.16,12.63-6.64,18.81-1.8,4.47-3.27,9.08-4.81,13.65-.68,2-.32,2.5,1.74,2.68.64.06,1.29,0,1.94,0h20.27c4.21,0,4.23,0,2.8-4.14-3.93-11.24-8.25-22.33-11.92-33.66A3.16,3.16,0,0,0,596.85,5.23Zm450.89,290a2.82,2.82,0,0,0-2-1.17,110,110,0,0,0-26.93-4.43c-8.48-.25-17,0-25.45-.1a7.23,7.23,0,0,0-5.68,2.34c-6.84,7-13.88,13.76-20.65,20.8a10.35,10.35,0,0,1-8.42,3.57c-9-.25-18-.08-27.06-.08-.86,0-1.72,0-2.58,0s-1.71.37-1.68,1.49.81,1.42,1.74,1.5c.64.05,1.29.06,1.93.06,11,0,21.91,0,32.86,0a7.53,7.53,0,0,0,5.68-2.39c6.72-6.48,13.61-12.79,20.31-19.29a7.87,7.87,0,0,1,6-2.41c10.2.09,20.4,0,30.6,0Zm-901.09,0h3.52c16.22,0,32.43,0,48.65,0a7.18,7.18,0,0,1,5.49,2.08c5.53,5.4,11.15,10.7,16.75,16,1.48,1.4,3,2.74,4.48,4.16a6.29,6.29,0,0,0,4.65,1.79c11.17-.05,22.34,0,33.51,0a9.51,9.51,0,0,0,1.92-.16,1.39,1.39,0,0,0,1.23-1.6,1.27,1.27,0,0,0-1.27-1.22c-.85-.08-1.71-.09-2.57-.09-9.45,0-18.9-.08-28.35.05a8.18,8.18,0,0,1-6.53-2.67c-6.81-7-13.86-13.77-20.64-20.81a9.59,9.59,0,0,0-7.93-3.22c-5.9.23-11.81.16-17.71,0A100.78,100.78,0,0,0,162.61,291C157.23,291.9,151.83,292.78,146.65,295.2ZM984,754.53a76.21,76.21,0,0,0-.24-13.55,2.09,2.09,0,0,0-2.29-2.11,38.85,38.85,0,0,1-9.37-2.21c-6.22-2-12.32-4.4-18.39-6.83-3.78-1.51-7.52-3.12-11.3-4.65-2.13-.86-2.32-.73-2.37,1.64,0,2,.16,4.09,0,6.11s.76,3.28,2.67,4.18c8.93,4.19,17.83,8.45,27,12.06a70,70,0,0,0,8.83,3C980.31,752.58,982.1,752.85,984,754.53Zm-772.57-.46c1.52-.33,2.32-1.27,3.53-1.5a65,65,0,0,0,11.91-3.87c8.79-3.46,17.26-7.63,25.83-11.58,1.92-.88,2.8-2.06,2.64-4.2s0-4.08,0-6.12c0-2.37-.22-2.48-2.37-1.61-4.38,1.77-8.7,3.68-13.11,5.34-8.72,3.26-17.21,7.29-26.6,8.42a1.64,1.64,0,0,0-1.57,1.73C211.62,745.05,210.77,749.41,211.42,754.07ZM119.33,718.7c3.75,0,7.5,0,11.26,0,3.42,0,3.59-.19,3.53-3.72,0-2.57-.27-5.13-.39-7.7-.14-2.89-.32-3.12-3.14-3.29-7.06-.41-14.12-.82-21.18-1.17q-4-.21-8-.61c-4.16-.43-4.45-.11-4.48,4,0,2.15,0,4.29,0,6.44,0,4,.45,4.5,4.46,5.18.53.09,1.07.1,1.6.19C108.38,718.86,113.86,718.64,119.33,718.7Zm956.48,0v-.12c3.64,0,7.29.1,10.93,0a47.07,47.07,0,0,0,9.23-1.21,2.88,2.88,0,0,0,2.5-3.2c0-2.47,0-4.93,0-7.4,0-4.76-.25-5-4.89-4.53-6.4.64-12.82,1-19.25,1.24-3.32.1-6.63.33-9.95.57-2.3.16-2.63.45-2.69,2.69-.07,2.9-.18,5.78-.4,8.67s.19,3.27,3.26,3.31C1068.3,718.73,1072.05,718.7,1075.81,718.7ZM269.08,101.62a1.85,1.85,0,0,0,1.8-.66c8.74-7.27,17.43-14.6,26.23-21.81a84,84,0,0,0,11.34-11.36c1.7-2,1.73-2.06,0-4a27.22,27.22,0,0,1-4.48-7c-.38-.82-.43-1.9-1.44-2.32-.91.37-1.32,1.16-1.87,1.8-6.89,8.08-13.66,16.27-20.72,24.2a42.83,42.83,0,0,0-9,15.45C270.36,97.8,269.72,99.68,269.08,101.62Zm655.61-.4c.06-.44.21-.78.12-1-2.11-6.43-4.31-12.77-8.95-18-5.9-6.66-11.56-13.54-17.33-20.32-1.81-2.12-3.59-4.26-5.49-6.3-1.13-1.22-1.63-1.12-2.31.45a25,25,0,0,1-5.42,8.29c-1,1-.86,1.74,0,2.74,3,3.39,5.76,6.9,9.26,9.8,9.33,7.74,18.6,15.54,27.91,23.3A2.87,2.87,0,0,0,924.69,101.22Zm59.55,662.61h-.06c0-1.61,0-3.22,0-4.83,0-1-.31-1.66-1.49-1.57-3.87.29-7.4-1-10.94-2.3a285.25,285.25,0,0,1-26.29-11.34c-5.1-2.4-5-3.13-5,3.39a5.44,5.44,0,0,0,2,4.5,94.19,94.19,0,0,0,22.21,14.12,48.54,48.54,0,0,0,15.76,4.31c3.43.29,3.73,0,3.78-3.38C984.25,765.76,984.24,764.8,984.24,763.83Zm-773-.42h-.08V767c0,.21,0,.43,0,.64.15,2.28.43,2.62,2.72,2.55a40,40,0,0,0,12.55-2.64,88.29,88.29,0,0,0,26.64-16,4,4,0,0,0,1.75-2.94c0-1.72.06-3.44,0-5.15,0-1.41-.78-1.63-1.93-1.07s-2.12,1-3.19,1.53c-7.09,3.33-14.17,6.71-21.49,9.5-5.09,2-10.09,4.33-15.77,4.05-1-.06-1.24.64-1.25,1.47C211.21,760.41,211.22,761.91,211.22,763.41ZM886.16,19.76c-2.95.94-38.94,23.2-40.63,25.08.35.54.92.46,1.43.46,10.84,0,21.67,0,32.5,0,2.48,0,2.74-.22,3.19-2.68.84-4.53,1.59-9.08,2.28-13.63C885.39,25.94,886.17,22.94,886.16,19.76Zm-577.59-.37-.63.49c1.21,7.28,2.4,14.55,3.63,21.82.57,3.36.81,3.59,4.08,3.6q15.77,0,31.53,0c.66,0,1.52.35,2.06-.81ZM118,737.39c.54,0,1.08,0,1.61,0,4.07-.14,8.16.06,12.22-.5,1.71-.24,2.44-1,2.4-2.74,0-2.58.05-5.16,0-7.73-.07-2.07-.46-2.38-2.49-2.55a14.37,14.37,0,0,0-1.61,0c-10.3.14-20.61.28-30.82-1.47-1.56-.27-2.26.35-2.28,1.83,0,2.58-.08,5.16,0,7.73,0,2.75.49,3.29,3.12,4.13a19,19,0,0,0,2.51.56C107.66,737.55,112.82,737.37,118,737.39Zm959.52-.13c3.32,0,6.66.1,10,0a30,30,0,0,0,8.55-1.38,3,3,0,0,0,2.42-3c0-2.89,0-5.79,0-8.69,0-1.53-.82-2-2.33-1.76-10,1.69-20.09,1.62-30.18,1.47-.65,0-1.29,0-1.94,0-2.3.14-2.61.39-2.71,2.64s-.09,4.51-.07,6.76c0,3.22.1,3.35,3.43,3.74A102.29,102.29,0,0,0,1077.49,737.26Zm-277.33-451a10.12,10.12,0,0,0,8.55,3.84c15.56-.17,31.12,0,46.68-.12a8,8,0,0,1,6,2.47c8.63,8.35,17.4,16.57,26.07,24.89a6.19,6.19,0,0,0,4.56,1.94c9-.05,18,0,27,0,2.46,0,3.38-.53,3.16-1.72-.34-1.9-2-1.31-3.12-1.32-6.44-.06-12.88,0-19.32,0-8.56,0-8.51-.06-15-5.89-8.21-7.4-16.55-14.65-24.77-22a9.63,9.63,0,0,0-6.94-2.66c-16.52.11-33,.05-49.57.07C802.46,285.62,801.35,285.31,800.16,286.21ZM394,286.26c-1.06-1-2.18-.64-3.2-.64-16.73,0-33.47,0-50.21-.05a8,8,0,0,0-5.75,2.27c-9.65,8.67-19.43,17.21-29.09,25.88a9.1,9.1,0,0,1-6.68,2.46c-7.61-.14-15.23-.06-22.85-.05a24.43,24.43,0,0,0-2.57.11,1.26,1.26,0,0,0-1.19,1.29,1.28,1.28,0,0,0,1,1.42,16.2,16.2,0,0,0,2.87.25c8.26,0,16.53-.07,24.79.05a8.85,8.85,0,0,0,6.84-2.79c8.3-8.08,16.78-16,25.09-24a8.62,8.62,0,0,1,6.61-2.48c15.78.09,31.55,0,47.32.09C390.13,290,392.09,288.49,394,286.26Zm667.12,463.28h0c0,1.4,0,2.79,0,4.18,0,3.44.48,3.87,4,3.44,2.76-.34,5.51-.79,8.26-1.22a149.4,149.4,0,0,0,21-4.32c3.83-1.17,4-1.5,4-5.4,0-1.28,0-2.57,0-3.85,0-1.5-.72-1.78-2.06-1.5a89,89,0,0,1-25.55,1.3c-2.23-.19-4.49-.17-6.74-.17-2.45,0-2.83.36-2.93,2.73C1061,746.33,1061.09,747.94,1061.09,749.54Zm-926.73.32h-.07c0-1.71.06-3.42,0-5.13-.1-2.38-.48-2.71-2.94-2.73-1.6,0-3.21,0-4.81.12-9.32.67-18.6.7-27.79-1.31-1.34-.29-1.74.38-1.74,1.56s0,2.57,0,3.85c0,3.83.21,4.11,3.74,5.31.91.31,1.84.56,2.77.81a188.77,188.77,0,0,0,18.59,3.59c3.06.49,6.13,1,9.22,1.28,2.53.25,3-.26,3.06-2.85C134.39,752.86,134.36,751.36,134.36,749.86Zm961.69-274.57c-.44,5.75-.92,11.49-1.33,17.24-.74,10.38-1.42,20.77-2.15,31.15-.8,11.24-1.68,22.47-2.45,33.7-.32,4.56-.24,4.56,4.38,5.11,3.36.4,3.79.07,3.8-3.27,0-22.87,0-45.73-.57-68.59A103.26,103.26,0,0,0,1096.05,475.29ZM134.86,770.06c-.11-1.39-.17-2.79-.34-4.16-.41-3.13-.65-3.34-3.71-3.78-3.81-.55-7.64-1.06-11.45-1.65a157.07,157.07,0,0,1-20.12-4.24c-1.78-.52-2.16-.23-2.22,1.56-.07,2.14.08,4.29.06,6.43a2.68,2.68,0,0,0,1.69,2.49,32.12,32.12,0,0,0,7.53,2.77,191.34,191.34,0,0,0,24.34,4.41C135.25,774.49,134.75,774.54,134.86,770.06Zm963.54-9v-2.25c0-.21,0-.43,0-.64-.15-2.21-.39-2.44-2.56-1.81a145.74,145.74,0,0,1-19.17,4c-4.14.62-8.28,1.19-12.41,1.82-1.48.23-3.07.42-3.19,2.47-.15,2.46-.4,4.92-.44,7.38,0,2.11.14,2.28,2.21,2,3.41-.36,6.81-.84,10.19-1.37,6.89-1.08,13.76-2.24,20.37-4.54C1098.3,766.45,1098.37,766.27,1098.4,761Zm-241-204.66h0c2.78,0,5.57,0,8.36,0s3-.32,3.07-2.92q.08-6.27,0-12.55c0-2.75-.37-3.08-3.24-3.1q-7.87-.07-15.76,0c-2.95,0-3.07.2-3.24,3.07-.24,4.28.07,8.58-.45,12.85-.25,2.12.25,2.58,2.57,2.65C851.57,556.42,854.47,556.35,857.37,556.35ZM336.72,537.77c-2.79,0-5.59-.06-8.38,0-2.09.06-2.5.42-2.54,2.45q-.15,6.6-.08,13.21c0,2.36.51,2.85,2.87,2.88q8.39.1,16.76,0c2.42,0,2.75-.41,2.79-2.88a109.66,109.66,0,0,0-.48-13.19c-.21-2.07-.48-2.41-2.57-2.47C342.31,537.71,339.51,537.77,336.72,537.77ZM941,757.49c-.56,3.54-1,7,2.75,9.25a13.32,13.32,0,0,1,1.45,1.27c8.22,6.84,17.08,12.56,27.39,15.78a39,39,0,0,0,9.13,1.75c2.08.12,2.49-.29,2.62-2.3.09-1.5.06-3,0-4.5-.07-3-.47-3.53-3.53-3.73a48.7,48.7,0,0,1-12.54-2.61c-9-3-16.9-7.78-24.42-13.38C943,758.41,942.41,757.38,941,757.49ZM211,780.41v1.29c0,3.86.49,4.25,4.35,3.71a51.19,51.19,0,0,0,15-4.54,104.88,104.88,0,0,0,21.44-14.15c3-2.43,2.95-5.18,2.84-8.28,0-.81-.55-1.18-1.31-.76a14.47,14.47,0,0,0-1.83,1.3,97.38,97.38,0,0,1-13,8.41,60.35,60.35,0,0,1-22.46,7.5C211.06,775.45,211.05,775.36,211,780.41Zm600.1-485.13,8.52,6.87a4,4,0,0,0,2.37.9c2.67.15,5.34.42,8,.44,10.83.05,21.66,0,32.48,0,.78,0,1.71.35,2.53-.74-2-1.9-4.13-3.71-6-5.71a7.56,7.56,0,0,0-6-2.28c-12.87.08-25.73,0-38.6.05A5.67,5.67,0,0,0,811.14,295.28Zm-481.9,7.66a1.25,1.25,0,0,0,1.3.56c11.49,0,23,.1,34.46,0,8.44-.1,8.44-.23,15-5.57.59-.48,1.2-.92,1.75-1.43s1.23-.6.82-1.45a1,1,0,0,0-.32-.13l-42.83-.07a3.64,3.64,0,0,0-2.68.9ZM983.43,714.17a1.14,1.14,0,0,0,.17-.46c0-4,0-7.93,0-11.89,0-3.5-.13-3.58-3.63-3.6-11.68-.06-23.35.14-35,.5-.46,0-1.1-.2-1.39.79C956.55,705.15,969.52,710.91,983.43,714.17Zm-731.6-14.63-.12-.65a10.39,10.39,0,0,0-1.23-.17c-8.91-.17-17.81-.35-26.72-.48-3.22,0-6.44,0-9.66,0-1.21,0-2.2.35-2.21,1.75,0,4.77,0,9.55,0,14.17C226,710.93,238.85,705.09,251.83,699.54Zm-153.15-219h-.22c-.26,3.2-.62,6.4-.76,9.61-.4,8.57-.25,17.16-.47,25.75-.37,13.94-.13,27.91-.16,41.87,0,5.34-.26,5.19,5.52,4.34a2,2,0,0,0,1.9-2.42c-.17-2.14-.37-4.27-.52-6.41-.5-7.28-1-14.56-1.48-21.84q-1.21-17-2.49-34C99.58,491.74,99.12,486.11,98.68,480.49Zm155.7,291.22c-1.12-.21-1.57.51-2.11,1a98,98,0,0,1-14.83,10.16,55.55,55.55,0,0,1-22.39,7.46c-3.54.32-4.11.11-4.08,4.36,0,.43,0,.86,0,1.29.1,3.06.56,3.5,3.7,3.29a36.8,36.8,0,0,0,11.42-3.09c9.32-3.8,17.5-9.43,25.45-15.5C254.86,778.12,255,775.17,254.38,771.71ZM941,771.2c-.63,4.2-.33,7.45,3.25,9.74,2.26,1.43,4.27,3.25,6.47,4.78,7.34,5.12,15,9.61,23.66,12.23a26,26,0,0,0,7.26,1.33c1.45,0,2.72-.39,2.63-2.07-.12-2.22,1.13-4.74-1.13-6.56-.36-.29-1-.18-1.57-.24-1.17-.13-2.35-.21-3.52-.38-10.12-1.5-19-6-27.31-11.66C947.59,776.2,944.56,773.81,941,771.2ZM170.28,793.78v-3.22c0-1.32-.59-1.86-1.79-1.15-1.87,1.1-3.88,1-5.93,1-1.67,0-2.67-.57-2.64-2.41,0-.74.07-1.61-.62-2.07-2.05-1.38-4.11-2.73-6.77-2.6-1.28.07-2,.62-2.07,1.93,0,2.14,0,4.28,0,6.43,0,1.41.68,2.25,2.16,2.18,2.4-.11,4.34,1.09,6.29,2.18s2,2.17.78,3.91-2.43.66-3.67.14c-1.54-.66-3.18-2.15-4.76-.92s-.72,3.4-.74,5.17a1.75,1.75,0,0,0,1.79,1.88c.32,0,.64,0,1,.07,3.66.55,7.48.81,8.95,5.17.07.22.49.42.77.46,2.44.38,4.37-.89,6.27-2.07,1.57-1,1-2.68,1-4.13,0-1.23-.7-1.54-1.68-1a10.66,10.66,0,0,1-6.25,1c-1.86-.15-2.33-.67-2.36-2.33s.43-2.21,2.24-2.42c.43,0,.86,0,1.29,0C168.38,800.6,170.29,798.57,170.28,793.78Zm900.28-118,7,.63c5.86.5,11.72,1,17.58,1.48,2.8.2,3.22-.22,3.27-3,.07-3.53.07-7.07,0-10.6,0-2.42-.38-2.75-2.83-2.88-3.31-.17-6.63-.19-9.94-.36a2.69,2.69,0,0,0-2.47,1.17A95.29,95.29,0,0,1,1070.56,675.82Zm-45.12,113c-.62,2.74-.23,5.09-.35,7.42a3,3,0,0,0,1.9,3,12.8,12.8,0,0,0,6.4,1.82c1.77,0,2.35.73,2.36,2.31s-.57,2.27-2.34,2.39c-2.25.15-4.51.21-6.56-1.06-.54-.33-1.22-.58-1.62.26-.53,1.13-.1,4.23.81,4.83a11.26,11.26,0,0,0,5,2.16c1.16.1,2.49.33,2.38-1.61,0-.71.58-1.14,1.15-1.43,2.37-1.22,4.62-2.65,7.49-2.65,2.61,0,2.84-.41,3-3.09,0-.53,0-1.07,0-1.61-.14-2.76-1.09-3.37-3.74-2.33-1.1.43-2.13,1-3.22,1.48-1.32.55-2-.3-2.52-1.31s-1-2,.2-2.81a15.88,15.88,0,0,1,5.5-2.59c3.77-.74,3.79-.7,3.79-4.57,0-1.39,0-2.79-.06-4.18a1.66,1.66,0,0,0-1.13-1.76c-2.27-.6-4.17.42-6.12,1.37a3.07,3.07,0,0,0-1.92,3c-.12,2.27-.49,2.37-2.8,2.58A14,14,0,0,1,1025.44,788.82Zm-890.59-5.11c-.14-4.57.85-4.25-4.45-4.91a188.68,188.68,0,0,1-26.79-5c-1.44-.4-2.84-1-4.27-1.4-1.79-.55-2.14-.33-2.23,1.44-.07,1.28.09,2.57,0,3.85A2.94,2.94,0,0,0,99.47,781l2.46.75c9.28,2.62,18.78,4.22,28.28,5.83C134.32,788.29,135,789,134.85,783.71Zm925.69-.21c0,.65,0,1.29,0,1.93.11,2.57.39,2.86,2.84,2.46,9.82-1.63,19.64-3.24,29.25-5.91,6.32-1.75,5.6-1.31,5.64-7.93,0-2.09-.3-2.24-2.31-1.57-10.1,3.39-20.58,5-31.09,6.32C1060.61,779.35,1060.6,779.25,1060.54,783.5ZM123.74,675.88c-4.68-4.83-9.18-8.84-12.69-13.74a2.16,2.16,0,0,0-2-.88c-3.22.08-6.44.07-9.66.24-2.07.11-2.43.48-2.48,2.56q-.14,5.64,0,11.27c.06,2.35.52,2.73,3,2.61s4.91-.39,7.37-.61C112.55,676.88,117.77,676.41,123.74,675.88ZM1060.43,798c0,.13,0,.56,0,1,0,3,.26,3.21,3.13,2.58s5.42-1.29,8.12-2a223.42,223.42,0,0,0,23.11-6.82c2.7-1,3.18-1.82,3-4.55-.13-2-.59-2.4-2.66-1.83a284.76,284.76,0,0,1-30.21,6.19C1060.5,793.32,1060.51,793.36,1060.43,798Zm-925.49-.16v-1c0-3.89-.58-3.68-3.39-4.12-7.62-1.2-15.23-2.46-22.75-4.25-2.92-.69-5.82-1.43-8.73-2.18-1-.26-1.91-.52-2.37.78a4.25,4.25,0,0,0,2.43,5.5c.89.37,1.81.67,2.73,1,9.13,3.15,18.5,5.45,27.87,7.72C134.94,802.34,135,802.33,134.94,797.85Zm118.78-1.12c-1.71.28-2.73,1.46-3.91,2.29-10.1,7.05-20.75,12.87-32.93,15.47-1.46.31-2.94.59-4.41.85a2,2,0,0,0-1.89,2.16c0,.75,0,1.5,0,2.25,0,1.39.67,1.94,2,1.65,1.78-.38,3.6-.6,5.34-1.11,12.73-3.72,23.88-10.43,34.38-18.35C254.15,800.58,254.39,798.88,253.72,796.73Zm687.95-.09a4.55,4.55,0,0,0,2,5.79c1.51,1,3,2.16,4.45,3.18,9.34,6.39,19.09,11.95,30.15,14.84,1.55.41,3.14.67,4.72,1,.8.15,1.47,0,1.78-.9,1-3-.13-5-3.27-5.48a69.22,69.22,0,0,1-14.81-4.22,105.92,105.92,0,0,1-21.53-12.15C944.11,798,943.22,797,941.67,796.64Zm43.15,11.06c0-2.64-.23-2.93-2.85-3.25a59.75,59.75,0,0,1-19.85-6.17,120.45,120.45,0,0,1-16.38-10.15c-.87-.63-1.69-1.32-2.59-1.91-1.34-.88-1.8-.55-1.93,1.09-.15,2,1.08,3.13,2.47,4.21a105.61,105.61,0,0,0,26.89,15.58,46.81,46.81,0,0,0,11.47,3C984.68,810.44,984.84,810.26,984.82,807.7Zm-772.54,2.62c1.27-.21,2.55-.37,3.8-.63,8.2-1.69,15.61-5.33,22.81-9.4a104.88,104.88,0,0,0,13-8.91c1.31-1,2.42-2.14,2.26-4,0-.53.06-1.17-.41-1.49-.66-.45-1.18.12-1.7.48-3.16,2.21-6.26,4.52-9.51,6.61-8.74,5.6-18,10.06-28.43,11.4-2.87.37-3.56,1.3-3.53,4.19C210.58,809.77,211,810.43,212.28,810.32Zm852.7-.14,0,.17c6.28-.78,12.58-1.48,18.84-2.39,3.07-.45,6.09-1.26,9.12-2a4.09,4.09,0,0,0,3.38-3.8c.11-.85.4-1.68.5-2.53.21-1.74-.21-2.09-2-1.57-2.16.63-4.29,1.38-6.45,2-8.64,2.59-17.38,4.79-26.18,6.76-1.32.29-1.85.8-1.73,2.13.14,1.53,1.07,1.64,2.27,1.45C1063.49,810.33,1064.24,810.26,1065,810.18Zm-931.92.3c1.47.07,2.31-.93,1.84-2.52-.32-1.13-1.31-1-2.08-1.13-7.29-1.72-14.57-3.49-21.77-5.56-3.49-1-6.94-2.15-10.43-3.18-1.93-.57-2.43-.18-2,1.79,1.07,5,.27,5,5.89,6.68.51.15,1,.24,1.57.35C114.86,808.79,123.81,809.59,133.06,810.48Zm-20.36,16c5.78,4.93,12.37,7.83,20.11,7.64,2.22-.05,2.56-.42,2.59-2.73a102.94,102.94,0,0,0-.35-12.54c-.33-3.05-.24-3.08-3.39-3.44-8.09-.92-16.22-1.65-24.24-3.13a4.35,4.35,0,0,0-2.63-.17,77.93,77.93,0,0,0,15.56,6.33c4.2,1.32,8.53,2.13,12.81,3.15,1.81.44,2.23,1.33,1.84,3.08-.34,1.54-.95,2-2.88,1.62-2.12-.37-4.21-.86-6.3-1.34s-4.31-1-6.84-1.67a5.11,5.11,0,0,0,2.71,1.73,70.86,70.86,0,0,0,11.66,3.61c1.62.4,2,1.54,1.63,3.25-.37,1.54-1.41,1.69-2.72,1.43a71.54,71.54,0,0,1-11.72-3.44C117.87,828.81,115.34,827.5,112.7,826.45Zm57.59-47c0-.73,0-1.27,0-1.81-.1-2.55-.25-2.71-2.55-1.74a11.55,11.55,0,0,1-5.35.72c-1.46-.1-2.46-.66-2.45-2.33a2.63,2.63,0,0,0-1-2.55c-1.75-1-3.49-2.11-5.65-2.06s-2.67.44-2.82,2.57a29.7,29.7,0,0,0,0,3.53c.12,2.31.4,2.74,2.62,2.7a13.62,13.62,0,0,1,6.7,1.9c1.55.8,2.88,1.55,1.78,3.64-.44.83-.12,1.41.9,1.56,2.64.38,4.83-.79,6.88-2.16C170.82,782.42,170.11,780.68,170.29,779.45ZM1045,774.18h-.06c0-.86,0-1.72,0-2.57A1.84,1.84,0,0,0,1044,770c-2.38-1.41-7.52.88-8.11,3.63s-.79,3-3.79,3a10.46,10.46,0,0,1-3.8-.51c-3.19-1.16-3.2-1.15-3.22,2.37,0,1,0,1.92,0,2.89a2.25,2.25,0,0,0,1,1.94c1.88,1.25,3.79,2.41,6.21,2.27,1.32-.08,2.2-.38,1.46-1.9s0-2.37,1.29-3c2.3-1.17,4.53-2.32,7.27-2.22,2.23.08,2.49-.38,2.64-2.69C1045,775.25,1045,774.71,1045,774.18ZM870.21,611.81l-.13.62,10.3,9.13a3.94,3.94,0,0,0,2.58,1.13c2.78,0,5.56.09,8.34,0,1.62-.05,1.87-.68.82-2-2-2.52-4.06-5-6.09-7.45a3.43,3.43,0,0,0-2.74-1.43ZM301.07,622.42c3.19.56,5.86.16,8.51.35a6.46,6.46,0,0,0,5.7-2.26,45.28,45.28,0,0,1,4-3.7c1.65-1.46,3.33-2.89,5-4.36-.4-.33-.56-.57-.71-.57q-6.25-.06-12.52-.07a2.88,2.88,0,0,0-2.27,1A123,123,0,0,0,301.07,622.42Zm641.76,185.9a6.66,6.66,0,0,0,2.49,2.84c2.4,1.81,4.76,3.67,7.23,5.37a93.92,93.92,0,0,0,20,10.83,46,46,0,0,0,10.26,2.6c.91.12,1.76-.07,1.92-1.2s0-2-1.27-2.22c-.74-.15-1.47-.3-2.21-.43a55.12,55.12,0,0,1-9-2.31c-9.4-3.23-18-8.11-26.17-13.62A10.05,10.05,0,0,0,942.83,808.32Zm-690.37-.26c-2.57,1.71-4.68,3.17-6.85,4.54-8.81,5.61-18,10.38-28.27,12.85-1.77.42-3.57.73-5.36,1.06-1.23.24-1.52,1.07-1.38,2.14.21,1.57,1.4,1.45,2.46,1.27a50.37,50.37,0,0,0,10.23-2.75c10.08-4,19-9.8,27.44-16.54A3.9,3.9,0,0,0,252.46,808.06Zm837.68,4c-8.85,1.62-17.7,2.45-26.55,3.32-3,.3-3.31.9-3.2,3.92.08,2.08.5,2.41,2.6,2a106.3,106.3,0,0,0,18.89-5.19A32.81,32.81,0,0,0,1090.14,812Zm8.3-163h0c0-1.93,0-3.86,0-5.79a2.11,2.11,0,0,0-1.85-2.26c-1.2-.21-1.78.52-2.16,1.48a93,93,0,0,1-5.79,11.82c-.79,1.38-.48,1.78,1.27,1.91,2.13.17,4.27.24,6.4.4,1.55.11,2.15-.7,2.16-2.1C1098.46,652.65,1098.44,650.83,1098.44,649ZM97,648.81h0c0,1.92,0,3.85,0,5.77,0,1.46.77,2.12,2.25,2,1.81-.17,3.62-.27,5.43-.4,1.25-.1,1.82-.68,1.13-1.89A95.94,95.94,0,0,1,100,642.5c-.29-.7-.67-1.45-1.58-1.33S97,642.14,97,643C96.94,645,97,646.89,97,648.81ZM169.9,815.68a1.88,1.88,0,0,0-1.8.34c-2,1.12-4.14.85-6.27.79A1.93,1.93,0,0,1,160,815.4c-1.16-2.76-5.06-4.54-7.92-3.8a1.87,1.87,0,0,0-1.55,1.78c-.21,1.66.46,2.65,2.33,2.63,2.83,0,5.19,1.09,7.54,2.38.65.36,1.56.67,1.55,1.48,0,2.31,1.59,1.92,2.9,1.75C168.76,821.11,170.5,819,169.9,815.68Zm855.42-.19c-.26,1.68-.66,3.18.91,4.2a10.24,10.24,0,0,0,4,1.86c1.35.19,3.17.87,3.2-1.7,0-.33.41-.77.75-1,2.23-1.24,4.37-2.73,7.07-2.79a12.64,12.64,0,0,0,2.22-.2c1.17-.26,1.4-1.19,1.39-2.22a1.94,1.94,0,0,0-1.27-2c-2.26-.85-6.79.59-7.55,2.81s-2,2.3-3.86,2.45C1029.81,817.12,1027.72,816,1025.32,815.49Zm34.64,9.13c0,2.25,0,4.5,0,6.75s.38,2.67,2.62,2.72c7.74.18,14.33-2.72,20.12-7.66a87,87,0,0,1-13,5.18c-2.26.67-4.58,1.16-6.87,1.7-1.47.35-2.22-.35-2.45-1.78-.3-1.78.12-2.49,2-3.06.72-.22,1.48-.29,2.2-.48a52.42,52.42,0,0,0,12.14-4.39,3.93,3.93,0,0,0-2.4.15l-10.66,2.47C1062,826.58,1060.55,826.65,1060,824.62ZM265.38,117l.66.47q7.66-9.12,15.34-18.22c-4.24,2.86-8,6.22-12,9.22C266.39,110.71,265.61,113.66,265.38,117Zm663.5,1.14c.65-1.27,0-2.12-.11-3a9.1,9.1,0,0,0-4.13-6.89c-3-2.2-5.79-4.77-8.68-7.17a2.5,2.5,0,0,0-2.27-1Zm105.79,716H1036c2.36,0,4.73.06,7.07-.12,1.64-.13,2.11-1.22,1.94-3.41-.1-1.37-.66-2.44-2.12-2.24-2.75.38-5.51,1-7,3.67a2.65,2.65,0,0,1-2.49,1.58c-2.26,0-4.51.19-6.55-1.11-.42-.27-1.13-.53-1.4.11s.26,1.2,1,1.35a7.75,7.75,0,0,0,1.6.15C1030.17,834.13,1032.42,834.12,1034.67,834.12Zm-9.3-8.6c2.17,2.2,4.65,3.59,7.82,3.26.63-.06,1.44,0,1.48-.84a1.27,1.27,0,0,0-1.48-1.33A24.89,24.89,0,0,1,1025.37,825.52Zm-872.63-4.26a8,8,0,0,0-1.05.14c-.45.09-.8.4-.68.88.07.25.4.61.62.61a16.08,16.08,0,0,1,6.94,2.23.76.76,0,0,0,1.09-.29.88.88,0,0,0-.29-1.15C157.54,822.37,155.68,821.11,152.74,821.26Zm889.94,0a9.1,9.1,0,0,0-6.22,2.22.9.9,0,0,0-.27,1.15.77.77,0,0,0,1.1.26,14.88,14.88,0,0,1,6.33-1.93.79.79,0,0,0,.79-.83c0-.48-.44-.69-.87-.78S1042.69,821.26,1042.68,821.25ZM222,833c6.19-1.08,12.53-4.07,15-7A118.28,118.28,0,0,1,222,833Zm751.49,0c-4.85-1.58-9.28-4.14-14-6A31.33,31.33,0,0,0,973.48,833Z"/><path d="M597.06,187.82q-54.28,0-108.57,0-61.53,0-123.07-.21c-6.11,0-12.24-.1-18.34-.47-11.24-.68-19-6.68-23.57-16.83a50.34,50.34,0,0,1-4.31-19.05,181,181,0,0,1,.59-23.17c1.57-17.18,14-28.64,31.29-28.86,13.31-.16,26.63-.21,39.93-.73,10.19-.39,20.4-.17,30.58-.63,10.52-.47,21-.19,31.55-.65,10-.44,20-.19,29.94-.63,10.84-.47,21.69-.2,32.51-.66,10-.43,20-.18,29.94-.63,10.74-.47,21.5,0,32.19-.73a272.15,272.15,0,0,1,32.8-.35c12.22.6,24.45.2,36.66,1,8.34.56,16.75.07,25.12.41,11.05.46,22.12.19,33.16.68,9.66.43,19.32.15,29,.6,11.16.52,22.33.2,33.48.69,9.45.42,18.9.16,28.33.59,11.16.51,22.33.3,33.48.7,4.72.16,9.44.27,14.16.36,16.12.31,27.9,10.61,30.38,26.53a51,51,0,0,1,.68,9c-.05,2,.21,4.07.32,6.11.59,11.4-.37,22.6-6.18,32.75-5.18,9-13.23,13.44-23.64,13.62-44.24.76-88.48.4-132.72.47q-57.83.09-115.66,0Zm-181.75-5.4c24.26.6,48.53-.09,72.8.47,21.68.51,43.38.22,65.08.16,53.37-.17,106.74.22,160.11-.38,38.34-.44,76.68-.13,115-.16,5.8,0,11.61,0,17.4-.13,6.12-.18,11.49-2.16,15.83-6.78,4.63-4.92,6.76-11,7.83-17.36,1.78-10.67,1.14-21.42-.11-32.1a24,24,0,0,0-6.11-13.6c-5.42-6-12.39-8.26-20.19-8.46-9.33-.23-18.67-.17-28-.53-11.36-.44-22.75-.23-34.12-.7-9.23-.39-18.46-.21-27.69-.59-11.26-.46-22.54-.22-33.81-.69-9.54-.41-19.1-.21-28.65-.6-11.26-.46-22.54-.22-33.81-.7-9.32-.39-18.67-.33-28-.55-12.12-.29-24.24-.69-36.37-.39-10.73.27-21.46.13-32.19.62-10.08.46-20.18.17-30.27.62-10.83.48-21.68.18-32.52.68-9.75.45-19.53.17-29.29.6-10.94.49-21.9.19-32.84.69-9.87.45-19.75.16-29.62.6-11,.5-22.11.2-33.17.68-7.18.32-14.39,0-21.58.29-13.29.48-23.53,7.12-25.83,21.74a114.18,114.18,0,0,0-1.08,26,50.69,50.69,0,0,0,3.14,14.76c4.13,10.6,11.62,15.79,23,15.8Q382.77,182.44,415.31,182.42Z"/></g></g></svg>