<svg xmlns="http://www.w3.org/2000/svg" width="1479" height="1108" viewBox="0 0 1479 1108">
  <g fill="none" fill-rule="evenodd">
    <path id="esqueleto" stroke="#000" stroke-linecap="round" stroke-linejoin="round" stroke-width="5" d="M390.315429,535.857548 C388.076429,541.082548 384.020429,546.265548 383.900429,551.538548 C383.259429,579.885548 383.598429,608.255548 383.598429,637.737548 L1093.39743,637.737548 L1093.39743,535.857548 L392.554429,535.857548 M392.554429,517.944548 C369.297429,521.845548 363.683429,536.472548 365.302429,558.277548 C367.010429,581.288548 365.549429,604.524548 365.725429,627.661548 C365.886429,648.971548 373.085429,656.029548 394.794429,656.759548 C397.030429,656.835548 399.272429,656.769548 401.510429,656.769548 C626.169429,656.769548 850.826429,656.774548 1075.48443,656.764548 C1104.20743,656.763548 1113.42343,647.563548 1113.53343,618.705548 C1113.61443,597.060548 1112.56143,575.358548 1113.81143,553.786548 C1115.22743,529.334548 1098.94743,519.112548 1077.72043,518.006548 C1070.27643,517.619548 1062.79543,517.944548 1055.33243,517.944548 L394.793429,517.944548 M1162.80943,482.119548 C1148.12543,487.175548 1155.05743,499.596548 1154.05643,509.009548 C1153.11043,517.896548 1153.85343,526.962548 1153.85343,538.096548 L1188.57143,538.096548 C1205.03543,505.525548 1196.03343,482.119548 1165.04843,482.119548 M294.033429,482.119548 C281.192429,485.640548 285.514429,496.188548 285.187429,504.514548 C284.745429,515.742548 285.077429,527.000548 285.077429,539.216548 L319.229429,539.216548 C336.264429,505.515548 327.265429,482.119548 296.272429,482.119548 M598.553429,697.074548 C595.275429,718.543548 591.997429,740.010548 588.719429,761.479548 C590.504429,761.656548 592.289429,761.832548 594.074429,762.008548 C594.820429,762.754548 595.566429,764.154548 596.313429,764.155548 C691.849429,764.253548 787.385429,764.247619 884.040429,764.247619 L884.040429,697.074548 L600.792429,697.074548 M665.726429,311.946548 C667.219429,315.677548 668.711429,319.410548 670.204429,323.141548 M437.336429,311.946548 C435.844429,315.677548 434.351429,319.410548 432.858429,323.141548 M309.707429,269.403548 C314.185429,270.149548 318.663429,270.895548 323.142429,271.642548 M822.464429,311.946548 C820.971429,316.424548 819.479429,320.902548 817.986429,325.380548 M307.468429,435.097548 L311.946429,419.423548 M1050.85443,853.811548 C1087.42643,854.558548 1123.99843,855.304548 1160.57043,856.050548 M1167.28843,419.423548 C1168.03443,425.394548 1168.78043,431.366548 1169.52643,437.336548 M1140.41843,620.944548 C1161.31643,619.451548 1182.21543,617.959548 1203.11343,616.465548 M1142.65743,459.727548 C1157.58543,455.996548 1172.51243,452.263548 1187.44043,448.532548 M871.725429,311.946548 L871.725429,379.120548 M898.594429,311.946548 L898.594429,379.120548 M750.812429,311.946548 L750.812429,379.120548 M603.031429,311.946548 L603.031429,379.120548 M576.161429,311.946548 L576.161429,379.120548 M723.943429,311.946548 L723.943429,379.120548 M963.528429,688.117548 L963.528429,739.617548 M278.359429,473.162548 C297.019429,471.669548 315.678429,470.176548 334.337429,468.684548 M867.246429,329.859548 C838.138429,328.366548 809.039429,326.624548 779.915429,325.541548 C771.744429,325.237548 763.501429,326.874548 755.291429,327.620548 M607.509429,327.620548 C644.828429,326.874548 682.146429,326.127548 719.465429,325.380548 M768.725429,479.879548 L706.030429,479.879548 M618.705429,269.403548 C636.167429,252.186548 615.435429,233.805548 619.907429,215.412548 C621.713429,207.984548 611.987429,197.752548 607.509429,188.795548 M430.619429,753.051548 C456.774429,751.159548 482.929429,749.267548 513.466429,747.058548 L513.466429,690.356548 M1187.44043,753.051548 C1203.30543,729.281548 1204.26543,701.512548 1207.24243,674.643548 C1209.70143,652.442548 1209.54943,629.904548 1209.73143,607.508548 C1210.07543,564.952548 1209.83143,522.389548 1209.83143,484.048548 C1187.83143,461.945548 1165.34743,470.802548 1144.89743,468.684548 M703.791429,482.119548 C702.907429,485.649548 702.023429,489.180548 700.708429,494.434548 L769.845429,494.434548 C771.711429,492.568548 773.188429,491.703548 773.089429,491.093548 C772.220429,485.752548 771.071429,480.455548 769.606429,473.162548 C749.377429,473.162548 729.937429,472.939548 710.516429,473.458548 C708.219429,473.519548 706.030429,477.640548 703.791429,479.879548 M999.354429,271.642548 C1001.59343,268.657548 1006.16943,265.230548 1005.70343,262.754548 C1001.87843,242.479548 998.414429,221.949548 991.924429,202.466548 C989.687429,195.750548 979.423429,187.684548 972.444429,187.306548 C949.414429,186.060548 926.210429,188.048548 903.072429,188.795548 M1046.37643,412.706548 L1192.02843,412.706548 C1183.31543,394.211548 1167.69043,391.773548 1149.36743,392.297548 C1117.29943,393.216548 1085.18743,392.554548 1051.30843,392.554548 C1048.83443,398.756548 1046.11843,405.561548 1041.41343,417.351548 C1039.56943,407.972548 1038.49443,402.502548 1037.41943,397.032548 M302.989429,390.315548 C311.200429,391.061548 319.399429,392.278548 327.622429,392.474548 C366.429429,393.400548 405.242429,394.046548 444.054429,394.794548 M269.403429,616.465548 C270.896429,648.559548 272.388429,680.653548 273.881429,712.748548 M867.246429,238.055548 C859.543429,249.108548 860.303429,259.556548 870.605429,274.178548 L870.605429,138.415548 L798.953429,138.415548 L798.953429,165.419548 C783.740429,167.322548 769.515429,169.102548 755.291429,170.881548 M603.031429,273.881548 C588.104429,273.881548 573.174429,273.727548 558.249429,273.909548 C502.270429,274.586548 446.293429,275.374548 390.315429,276.120548 M750.812429,132.817548 L750.812429,273.881548 M1003.83243,137.295548 C1002.33943,135.802548 1000.89943,133.064548 999.346429,132.999548 C958.305429,131.277548 917.254429,129.784548 876.197429,128.534043 C874.751429,128.490548 873.217429,131.324548 869.485429,135.056548 L900.833429,135.056548 L900.833429,271.642548 M576.161429,130.578548 C542.575429,132.817548 508.988429,135.056548 475.401429,137.295548 M723.943429,132.817548 L723.943429,273.881548 M871.725429,130.578548 C870.232429,129.832548 868.740429,128.433548 867.246429,128.431548 C772.457429,128.329548 677.668429,128.297548 582.879429,128.558548 C580.295429,128.565548 577.719429,131.825548 575.139429,133.568548 C575.448429,134.810548 575.756429,136.052548 576.064429,137.295548 L679.887429,137.295548 C677.316429,145.374548 675.454429,151.225548 673.841429,156.292548 C686.931429,171.893548 703.695429,168.281548 719.465429,168.642548 M379.119429,325.380548 L571.683429,325.380548 M314.185429,614.226548 C337.016429,598.887548 319.715429,578.532548 326.541429,559.368548 L283.697429,559.368548 C289.441429,578.347548 277.238429,597.402548 291.794429,614.226548 M1182.96143,616.465548 C1203.18143,601.425548 1189.66043,580.761548 1196.08443,560.488548 L1152.81243,560.488548 C1158.21743,578.347548 1146.01543,597.402548 1160.57043,614.226548 M383.598429,307.467548 C613.480429,307.467548 843.362429,307.489548 1073.24543,307.374548 C1080.70943,307.370548 1088.17243,305.975548 1095.63643,305.228548 M1106.83243,376.880548 C1105.66743,361.167548 1104.50343,345.454548 1103.18143,327.620548 L1019.50643,327.620548 L903.072429,327.620548 M571.683429,186.555548 C553.024429,186.555548 534.314429,185.766548 515.732429,186.966548 C508.851429,187.411548 497.629429,191.207548 496.341429,195.736548 C490.115429,217.630548 486.337429,240.250548 482.481429,262.748548 C482.047429,265.275548 486.597429,268.657548 488.836429,271.642548 M1097.87543,325.380548 C1098.62143,322.395548 1100.40943,319.242548 1099.96043,316.449548 C1092.09543,267.552548 1078.12343,220.396548 1057.39143,175.443548 C1047.92143,154.912548 1030.68543,141.540548 1008.27943,139.981548 C973.317429,137.547548 938.151429,138.042548 903.072429,137.295548 M573.922429,271.642548 L573.922429,137.754548 C548.514429,139.021548 520.921429,140.553548 493.311429,141.697548 C482.135429,142.160548 470.539429,139.927548 459.808429,142.160548 C437.800429,146.738548 422.832429,162.546548 415.403429,182.250548 C396.051429,233.574548 378.450429,285.600548 374.553429,341.048548 C373.658429,353.779548 371.656429,366.431548 370.163429,379.120548 M1180.72243,856.050548 C1174.86043,855.209548 1168.99943,854.366548 1158.33143,852.834548 L1158.33143,1019.50555 M354.489429,858.290548 L354.489429,1019.50555 M372.402429,1019.50555 L372.402429,854.931548 L336.576429,854.931548 L336.576429,1023.98455 C358.164429,1023.98455 377.598429,1024.02255 397.032429,1023.97455 C422.411429,1023.91355 432.450429,1014.34255 432.743429,988.157548 C433.185429,948.604548 432.858429,909.043548 432.858429,869.485548 M336.576429,856.050548 C321.026429,849.919548 316.136429,856.394548 316.268429,871.726548 C316.689429,920.983548 316.424429,970.246548 316.424429,1019.50555 M1122.50543,858.290548 L1122.50543,1021.74555 M1140.41843,858.290548 L1140.41843,1021.74555 M392.554429,1021.74555 L392.554429,853.645548 C384.904429,854.672548 379.773429,855.362548 374.641429,856.050548 M1068.76743,858.290548 L1068.76743,1021.74555 M410.467429,1021.74555 L410.467429,853.645548 C402.816429,854.672548 397.686429,855.362548 392.554429,856.050548 M1104.59243,858.290548 L1104.59243,1021.74555 M1086.67943,858.290548 L1086.67943,1021.74555 M1046.37643,755.291548 C1044.88343,761.261548 1041.95843,767.275548 1042.13443,773.196548 C1043.13743,806.797548 1045.57143,840.364548 1046.19843,873.966548 C1046.95043,914.256548 1046.15843,954.573548 1046.46843,994.875548 C1046.62143,1014.79355 1054.62743,1023.80555 1073.24543,1023.79456 C1101.60743,1023.77555 1130.18843,1020.14655 1158.23643,1022.76255 C1171.69743,1024.01855 1176.96143,1018.26055 1180.16843,1010.32655 C1184.00843,1000.82555 1184.99643,989.647548 1184.96243,979.203548 C1184.85543,945.614548 1183.13343,912.026548 1183.30243,878.444548 C1183.35543,867.983548 1188.19243,857.639548 1189.53743,847.076548 C1193.55743,815.535548 1194.77343,784.014548 1187.44043,750.812548 C1140.44343,750.812548 1095.62943,751.611548 1050.86143,750.523548 C1022.46143,749.833548 994.129429,746.334548 965.767429,744.095548 M307.468429,278.359548 C290.319429,279.442548 273.171429,280.525548 253.422429,281.772548 C238.538429,303.847548 244.623429,329.235548 247.817429,356.728548 L305.229429,356.728548 M1174.00543,392.554548 C1173.21443,381.363548 1172.42343,370.172548 1171.55243,357.848548 L1229.98243,357.848548 C1229.98243,334.531548 1230.84943,311.974548 1229.08243,289.626548 C1228.80543,286.131548 1216.78443,281.972548 1209.78043,280.945548 C1196.52143,279.001548 1182.96143,279.106548 1169.52643,278.359548 M603.031429,139.534548 L603.031429,272.440548 C615.446429,273.800548 626.029429,275.930548 636.618429,275.966548 C719.464429,276.244548 802.312429,276.120548 885.159429,276.120548 L1086.67943,276.120548 M318.663429,856.050548 C311.242429,854.993548 303.820429,853.936548 294.033429,852.542548 C294.033429,902.302548 293.333429,950.843548 294.350429,999.347548 C294.809429,1021.23855 307.342429,1026.98555 336.576429,1021.74555 M1174.00543,365.684548 C1188.93243,365.684548 1203.91043,364.915548 1218.77443,365.880548 C1237.26343,367.082548 1244.27343,357.821548 1243.29243,341.062548 C1242.15443,321.641548 1240.06243,302.277548 1238.14243,280.104548 C1212.51443,264.387548 1182.42543,273.772548 1153.85343,271.642548 M320.902429,282.837548 C299.556429,262.866548 273.107429,275.551548 248.573429,270.837548 C225.677429,296.989548 239.256429,328.237548 236.732429,356.809548 C236.522429,359.182548 249.034429,364.469548 256.012429,365.324548 C271.545429,367.226548 287.316429,367.177548 302.989429,367.923548 M410.467429,856.050548 C435.583429,851.820548 437.336429,849.628548 437.336429,822.463548 C437.336429,806.044548 437.012429,789.615548 437.429429,773.206548 C437.831429,757.435548 430.710429,750.567548 414.944429,750.698548 C373.897429,751.038548 332.844429,750.812548 287.903429,750.812548 C285.929429,784.399548 278.485429,817.986548 291.794429,851.573548 M508.988429,739.617548 C486.386429,720.204548 457.630429,718.088548 430.556429,715.696548 C384.509429,711.627548 338.069429,711.993548 291.794429,710.524548 C288.063429,710.405548 284.324429,710.508548 274.626429,710.508548 C279.640429,725.549548 283.478429,737.061548 287.316429,748.573548 M513.466429,748.573548 C530.979429,769.534548 555.450429,776.972548 580.644429,777.229548 C685.872429,778.303548 791.124429,778.344548 896.349429,777.177548 C920.211429,776.913548 947.670429,772.664548 960.174429,750.192548 C970.039429,732.464548 984.874429,728.391548 999.536429,724.659548 C1021.98043,718.946548 1045.55243,716.909548 1068.78543,715.238548 C1103.04843,712.773548 1137.42343,711.472548 1171.77243,710.869548 C1180.68743,710.711548 1189.67943,714.987548 1198.63543,717.225548 M1048.61443,394.794548 C1038.16643,394.046548 1027.71643,392.657548 1017.26743,392.650548 C833.660429,392.517548 650.052429,392.603548 466.445429,392.437548 C454.794429,392.426548 443.251429,390.949548 439.575429,405.989548 M441.815429,412.706548 C449.278429,413.453548 456.741429,414.840548 464.206429,414.849548 C579.147429,414.987548 694.088429,414.945548 809.029429,414.945548 C878.442429,414.945548 947.855429,415.013548 1017.26743,414.847548 C1024.73243,414.829548 1032.19443,413.453548 1039.65843,412.706548 M1044.13643,867.246548 C1033.31543,856.323548 1019.43443,857.861548 1006.07743,858.416548 C991.502429,859.021548 983.878429,852.927548 983.272429,835.899548 C927.722429,835.899548 871.720429,835.258548 815.760429,836.503548 C805.962429,836.720548 792.815429,842.271548 787.290429,849.810548 C769.683429,873.836548 747.375429,881.043548 717.942429,874.680548 C717.972429,874.710548 716.258429,873.380548 715.019429,871.701548 C688.846429,836.208548 651.736429,833.727548 611.971429,835.528548 C573.983429,837.248548 535.857429,835.899548 496.979429,835.899548 C492.409429,853.856548 480.992429,860.680548 461.914429,858.836548 C452.515429,857.927548 442.561429,862.768548 432.858429,865.007548 M1200.87443,473.162548 C1204.20043,453.649548 1191.76443,444.865548 1176.16643,442.285548 C1155.58443,438.879548 1134.44943,437.553548 1113.54843,437.530548 C849.334429,437.235548 585.118429,437.241548 320.903429,437.714548 C311.195429,437.731548 301.497429,443.307548 291.794429,446.293548 M1138.17943,459.727548 C899.340429,459.727548 660.501429,460.028548 421.663429,459.461548 C376.824429,459.354548 331.994429,455.780548 282.965429,453.622548 C266.948429,472.361548 259.593429,539.468548 269.981429,616.258548 C292.185429,618.492548 315.500429,620.837548 338.816429,623.183548 M1169.52643,354.489548 C1154.13143,279.663548 1132.51743,206.844548 1095.36843,139.682548 C1077.35743,107.120548 1048.61143,88.5615481 1010.54843,88.1435481 C850.828429,86.3925481 691.105429,84.5305481 531.378429,84 C500.040429,83.8975481 468.180429,87.0385481 437.487429,93.2565481 C410.203429,98.7855481 391.924429,119.709548 379.219429,144.064548 C340.955429,217.420548 318.756429,296.074548 302.652429,376.813548 C300.103429,389.591548 293.073429,401.477548 288.546429,412.706548 L432.858429,412.706548 M1138.17943,383.597548 C1138.92543,390.315548 1140.45343,397.050548 1140.29443,403.747548 C1139.02343,457.491548 1137.02143,511.219548 1136.07643,564.968548 C1135.38043,604.528548 1135.94043,644.109548 1135.94043,685.878548 L343.294429,685.878548 C343.294429,665.040548 344.278429,646.290548 343.129429,627.671548 C336.912429,526.889548 335.242429,426.152548 343.239429,325.377548 C347.739429,268.681548 365.039429,215.608548 388.174429,164.209548 C400.539429,136.737548 421.926429,119.520548 450.717429,110.256548 C494.675429,96.1135481 540.573429,98.6495481 585.131429,98.1045481 C717.201429,96.4875481 849.352429,99.1115481 981.432429,101.891548 C1034.95043,103.018548 1075.00343,125.971548 1096.30343,179.573548 C1114.86043,226.272548 1126.90143,274.208548 1135.60143,323.202548 C1138.97743,342.211548 1138.54343,361.897548 1139.84943,381.358548 L347.772429,381.358548"/>
    <g transform="translate(235 84)">
      <path id="atraz_2" d="M56.7944286,666.696711 L188.987253,666.696711 L273.988429,666.696711 C295.888524,681.63403 312.559048,690.749769 324,694.043928 C335.440952,697.338087 457.049025,697.338087 688.824219,694.043928 C701.265672,691.849436 711.459087,687.250667 719.404464,680.247619 C725.018423,675.299481 720.889315,671.22125 728.528429,664.573548 C739.387649,655.123648 754.753625,659.458063 766.552097,660.454608 C775.966364,661.249774 790.161141,664.42206 809.136429,669.971464 L950.470253,669.971464 C966.766999,639.409846 974.915371,595.067541 974.915371,536.944548 C974.915371,478.821555 974.915371,431.799889 974.915371,395.879548 L961.084429,386.923548 C968.555818,382.705519 970.333216,377.479778 966.416625,371.246325 C962.500033,365.012872 953.686843,359.040797 939.977056,353.330101 L930.048929,330.959338 L957.028429,328.706548 C949.491095,315.972849 941.990595,309.606 934.526929,309.606 C927.063262,309.606 635.15381,308.509183 58.7985731,306.315548 L52.6973309,330.959338 L74.7074286,333.351548 L70.1194286,353.336548 C53.3034281,354.583271 41.3980947,368.764271 34.4034286,395.879548 C23.9114294,436.552464 28.1528976,572.796129 34.4034286,572.796129 C37.273752,572.796129 32.8827746,603.449886 38.8814286,633.152 C40.6880633,642.097485 46.6590633,653.279055 56.7944286,666.696711 Z"/>
      <path id="atraz_1" d="M130.043706,310.794548 C133.225978,302.651644 134.932552,297.426978 135.163429,295.120548 C150.474176,142.168136 178.825865,64.0754092 237.042929,56.577 C276.085741,51.5482513 365.427034,43.7303521 505.736929,44.3565257 C543.46871,44.5249147 603.135689,43.1487586 686.476563,46.5785481 C703.206282,47.2670388 731.292927,48.3865388 770.736499,49.9370481 C803.04027,52.9227147 830.021247,95.879186 851.679429,178.806462 C873.33761,261.733738 880.055277,304.236767 871.832429,306.315548 C980.989937,309.010899 960.09127,310.503899 809.136429,310.794548 C658.181587,311.085197 431.817346,311.085197 130.043706,310.794548 Z"/>
      <path id="arriba" d="M58.7985731,308.555048 L130.043706,310.794548 C151.306619,170.766749 173.165194,91.353462 195.619429,72.5546875 C218.073664,53.755913 277.036997,44.415698 372.509429,44.5340427 L766.552097,49.9370481 C789.023658,52.2740118 807.331814,63.8834607 821.476563,84.7653946 C835.621311,105.647328 852.4066,179.49738 871.832429,306.315548 L918.853429,308.555048 L940.545208,311.012535 L939.977056,281.984682 C892.586413,126.007915 857.183204,39.2929688 833.767429,21.8398438 C810.351653,4.38671875 790.94532,-1.51204647 775.548429,4.14354808 L353.719429,1.70530257e-13 L247.452452,1.70530257e-13 C205.860918,3.06613075 175.89491,15.7080578 157.554429,37.9257813 C139.213947,60.1435047 115.329947,117.742463 85.9024286,210.722656 L58.7985731,308.555048 Z"/>
      <path id="derecha_3" d="M909.897429 187.642548L974.915371 186.837548C1000.71945 190.688881 1011.87498 193.196215 1008.38196 194.359548 1004.88894 195.522881 1004.88894 217.914215 1008.38196 261.533548 1006.5333 276.460215 1002.13769 283.923548 995.195112 283.923548 988.252537 283.923548 970.035903 283.923548 940.545208 283.923548L909.897429 187.642548z"/>
      <path id="izquierda_3" d="M91.5414286 189.820702C71.3315303 186.875933 56.0746255 185.403548 45.7707143 185.403548 35.4668031 185.403548 24.8108098 185.403548 13.8027344 185.403548 4.60091146 198.616287-1.77635684e-13 210.557954-1.77635684e-13 221.228548-1.77635684e-13 237.23444-1.77635684e-13 272.728548-1.77635684e-13 272.728548-1.77635684e-13 272.728548 4.75064779 280.713308 20.3242187 283.923548 30.9253396 286.108798 47.1188646 283.923548 67.9894286 283.923548 67.9894286 283.923548 71.1195239 275.277783 74.7074286 261.533548 76.398798 255.054396 79.7342398 247.715995 81.4249286 239.141548 84.4099286 224.002912 87.7820953 207.56263 91.5414286 189.820702z"/>
    </g>
  </g>
</svg>
