<svg xmlns="http://www.w3.org/2000/svg" width="2425" height="1108" viewBox="0 0 2425 1108">
  <g fill="none" fill-rule="evenodd">
    <path id="esqueleto" stroke="#000" stroke-width="6" d="M456.462984,654.460023 C443.601984,655.685023 430.309984,655.237023 417.951984,658.416023 C354.647984,674.697023 318.475984,728.993023 330.762984,792.050023 C344.557984,862.851023 408.987984,900.338023 476.608984,882.051023 C529.347984,867.789023 557.825984,823.760023 560.762984,779.370023 C564.658984,720.466023 528.739984,678.935023 485.801984,661.958023 C477.018984,658.485023 467.486984,656.910023 458.299984,654.460023 M1790.36298,654.460023 L1773.82698,654.460023 C1700.46298,654.460023 1649.90298,716.314023 1659.20698,788.676023 C1666.54498,845.751023 1732.12698,899.390023 1799.68898,882.859023 C1884.24898,862.170023 1914.41498,761.720023 1864.09098,698.369023 C1845.11798,674.485023 1820.15198,662.550023 1792.19998,654.460023 M1799.54998,610.364023 C1786.07598,610.364023 1772.41698,608.965023 1759.17498,610.717023 C1742.44598,612.931023 1724.94598,615.171023 1709.71198,621.826023 C1642.29198,651.281023 1596.72598,723.920023 1616.25298,805.016023 C1638.33098,896.712023 1715.56698,940.434023 1799.43798,929.224023 C1841.27898,923.632023 1877.22998,901.459023 1902.35498,865.692023 C1926.73398,830.988023 1937.91698,793.378023 1932.45898,749.923023 C1927.93198,713.888023 1912.95098,684.349023 1889.49098,658.213023 C1865.90498,631.939023 1834.63998,619.170023 1801.38698,610.364023 M1770.15198,755.513023 C1761.84998,758.860023 1756.75298,765.211023 1759.62998,773.717023 C1760.99898,777.766023 1768.46698,783.205023 1771.82898,782.400023 C1778.57898,780.784023 1784.40698,775.314023 1793.94398,769.354023 C1783.92498,762.199023 1777.95698,757.938023 1771.98998,753.676023 M1617.65398,467.053023 C1604.48698,468.831023 1589.25298,461.928023 1578.15098,475.661023 L1578.15098,543.933023 C1598.10898,548.372023 1615.39198,553.257023 1630.51498,539.420023 C1630.51498,522.173023 1630.10098,505.622023 1630.67098,489.106023 C1631.00998,479.294023 1629.95898,471.006023 1619.49198,467.053023 M151.465984,533.196023 C144.729984,537.483023 136.541984,540.543023 131.616984,546.363023 C125.215984,553.927023 132.091984,576.762023 140.441984,580.967023 C148.738984,585.146023 157.890984,577.509023 164.603984,564.574023 C172.689984,548.994023 164.649984,540.900023 153.303984,533.196023 M188.212984,536.871023 C179.701984,535.618023 174.846984,539.975023 175.672984,547.861023 C176.385984,554.670023 179.868984,561.189023 182.764984,569.709023 C200.684984,552.634023 201.010984,550.027023 190.049984,536.871023 M460.137984,740.815023 C458.299984,742.039023 455.806984,742.897023 454.844984,744.612023 C454.142984,745.862023 455.460984,748.245023 456.855984,754.517023 C459.623984,748.101023 460.798984,745.376023 461.974984,742.651023 M2304.81498,555.244023 C2302.97698,557.694023 2299.63698,560.093023 2299.54998,562.603023 C2299.04598,577.310023 2299.30298,592.042023 2299.30298,605.771023 L2314.00098,605.771023 C2314.00098,593.216023 2314.72698,581.513023 2313.66698,569.974023 C2313.20098,564.892023 2309.10198,560.144023 2306.65198,555.244023 M403.179984,797.772023 C405.017984,799.609023 406.854984,801.446023 408.691984,803.284023 M461.974984,691.206023 C463.811984,691.819023 465.649984,692.432023 467.486984,693.044023 M485.859984,797.772023 C484.634984,799.609023 483.409984,801.446023 482.184984,803.283023 M417.878984,731.628023 L417.878984,746.326023 M471.160984,722.441023 C468.098984,719.991023 465.036984,717.542023 461.974984,715.092023 M1702.17098,773.887023 C1691.75998,775.724023 1681.34798,777.562023 1670.93698,779.398023 M537.304984,777.562023 C529.955984,776.336023 522.606984,775.111023 515.256984,773.887023 M790.856984,334.765023 L818.416984,334.765023 M1975.93298,443.167023 C1976.54598,447.454023 1977.15798,451.741023 1977.76998,456.028023 M1757.29098,691.207023 L1731.22798,691.207023 C1729.61098,692.901023 1726.91498,695.729023 1724.21898,698.556023 M1797.71198,744.489023 C1798.32498,740.202023 1798.93698,735.915023 1799.54998,731.628023 M1779.33898,441.330023 C1780.56398,446.230023 1781.78898,451.129023 1783.01398,456.028023 M1786.68798,456.028023 L1790.36298,441.330023 M1797.71198,779.398023 C1797.03598,781.650023 1796.35898,783.903023 1794.46998,790.189023 C1800.82498,785.884023 1803.35998,784.167023 1805.63298,782.628023 C1802.92498,780.372023 1801.23698,778.967023 1799.54998,777.562023 M1748.10398,694.881023 C1751.16698,699.169023 1754.22898,703.455023 1757.29098,707.742023 M1753.61598,715.092023 C1751.77898,716.929023 1749.94198,718.767023 1747.21498,721.493023 C1750.85898,722.739023 1753.97698,723.804023 1759.12798,725.565023 L1759.12798,669.159023 M1702.17098,694.881023 L1718.70698,705.905023 M515.256984,694.881023 C510.357984,699.168023 505.457984,703.455023 500.558984,707.742023 M845.975984,378.861023 C840.463984,381.311023 834.952984,383.761023 829.440984,386.210023 M616.309984,738.978023 L634.683984,738.978023 M504.233984,766.537023 C501.304984,760.653023 498.376984,754.771023 495.448984,748.887023 C494.133984,749.366023 492.819984,749.847023 491.504984,750.326023 C492.535984,755.717023 493.566984,761.107023 494.650984,766.779023 C508.727984,771.247023 521.306984,770.447023 531.792984,759.188023 M1731.56798,795.935023 C1734.50598,788.784023 1737.44298,781.635023 1740.30998,774.656023 C1733.99998,771.473023 1729.10998,769.005023 1724.21898,766.537023 M1740.75498,777.562023 L1748.10398,777.562023 C1747.49198,775.111023 1746.97698,772.630023 1746.20898,770.231023 C1745.97398,769.497023 1745.04198,768.509023 1744.42998,768.509023 C1743.81698,768.509023 1743.20498,769.600023 1742.59198,770.212023 M1735.24298,687.532023 C1741.97998,685.082023 1748.71698,682.633023 1755.45398,680.183023 M1821.59798,766.537023 L1821.59798,755.457023 C1810.31098,751.242023 1801.25598,747.861023 1791.59098,744.252023 C1790.34098,746.600023 1789.05498,749.016023 1785.99098,754.773023 C1791.91798,753.289023 1794.81498,752.564023 1797.71198,751.839023 M460.137984,669.159023 L460.137984,723.667023 C461.973984,724.892023 465.648984,727.341023 469.323984,729.790023 M1738.91798,718.767023 C1739.19798,707.351023 1729.69998,706.936023 1722.38198,704.068023 M270.892984,764.699023 C263.543984,761.638023 256.193984,758.575023 248.844984,755.513023 M502.395984,698.556023 C494.159984,695.261023 485.923984,691.966023 476.159984,688.059023 C471.211984,695.946023 467.511984,701.845023 463.811984,707.742023 M461.974984,680.183023 C468.711984,683.245023 475.448984,686.308023 482.184984,689.369023 M449.113984,803.283023 C451.216984,801.810023 453.319984,800.335023 455.422984,798.860023 C455.155984,797.885023 454.889984,796.910023 454.622984,795.935023 L445.438984,795.935023 C446.050984,798.384023 446.663984,800.834023 447.275984,803.283023 M1764.63998,744.489023 C1763.16598,742.386023 1761.69198,740.283023 1760.21698,738.180023 L1757.29098,738.980023 L1757.29098,748.164023 C1759.74098,747.552023 1762.19098,746.940023 1764.63998,746.326023 M1770.15198,803.283023 C1771.65698,801.026023 1773.16098,798.770023 1777.22498,792.669023 C1769.75898,794.606023 1766.11498,795.550023 1760.65798,796.965023 C1764.50798,799.219023 1766.41198,800.332023 1768.31498,801.446023 M1639.70198,562.594023 C1641.53898,570.556023 1643.37698,578.518023 1645.21398,586.479023 M1692.98398,773.887023 L1692.98398,763.811023 C1713.75998,773.864023 1721.18298,771.682023 1726.05698,755.513023 M419.715984,748.164023 C422.054984,749.837023 424.393984,751.510023 426.733984,753.183023 C411.292984,747.025023 400.011984,752.666023 395.830984,766.537023 M1648.88898,588.316023 C1648.27598,578.518023 1647.66398,568.718023 1647.05098,558.919023 M546.491984,779.398023 C529.119984,779.682023 535.398984,764.570023 534.416984,757.245023 C532.704984,744.462023 528.069984,735.699023 512.756984,725.474023 C507.465984,733.037023 502.174984,740.601023 496.883984,748.164023 M1823.43498,748.164023 C1835.68398,738.364023 1847.93198,728.565023 1860.18098,718.767023 M1759.12798,726.116023 C1768.31498,734.397023 1777.50198,734.397023 1786.68798,726.116023 M498.721984,750.001023 C510.693984,755.017023 519.432984,753.026023 522.606984,738.978023 M1876.71698,777.562023 C1855.97398,774.445023 1835.23098,771.330023 1809.90098,767.526023 C1810.94698,777.834023 1811.67898,785.047023 1812.41098,792.260023 M430.739984,724.278023 C434.846984,728.144023 438.952984,732.009023 442.451984,735.303023 L446.817984,735.303023 C450.084984,732.690023 454.191984,729.402023 458.299984,726.116023 M478.510984,724.278023 C474.880984,728.015023 471.251984,731.750023 467.650984,735.457023 C472.975984,746.423023 476.691984,755.626023 489.534984,753.676023 M360.921984,803.283023 C382.562984,797.274023 404.202984,791.266023 425.843984,785.257023 C425.571984,783.917023 425.299984,782.576023 425.027984,781.235023 L410.159984,781.235023 C404.569984,770.854023 399.435984,764.106023 384.437984,771.276023 C371.519984,777.451023 355.409984,776.948023 340.710984,779.398023 M1823.43498,834.519023 C1831.39698,824.106023 1839.35898,813.695023 1847.31998,803.283023 M491.371984,766.537023 C485.089984,771.411023 478.807984,776.284023 470.242984,782.931023 L470.242984,771.612023 C472.407984,771.818023 474.611984,771.713023 474.694984,772.081023 C479.391984,793.104023 492.424984,799.769023 513.462984,798.477023 C522.390984,797.928023 531.792984,805.121023 540.979984,808.796023 M1700.33398,803.283023 C1708.29598,813.695023 1716.25698,824.106023 1724.21898,834.519023 M493.209984,834.519023 C501.170984,824.106023 509.132984,813.695023 517.094984,803.283023 M1942.86098,731.628023 L1982.67898,731.628023 C1974.38898,701.532023 1967.99998,673.955023 1959.14398,647.194023 C1944.98098,604.394023 1913.88198,583.652023 1869.46398,576.684023 C1821.66698,569.185023 1773.99598,565.499023 1726.10998,570.456023 C1702.93798,572.855023 1678.60898,574.133023 1657.94598,588.126023 C1655.84698,589.547023 1651.95098,588.316023 1648.88898,588.316023 M766.970984,402.746023 C773.707984,405.809023 780.325984,409.183023 787.222984,411.824023 C791.904984,413.617023 796.980984,414.383023 801.879984,415.607023 M428.902984,691.207023 C417.265984,696.719023 405.629984,702.231023 393.993984,707.742023 M375.619984,696.719023 C389.161984,708.372023 402.702984,720.026023 415.707984,731.219023 C422.258984,726.869023 426.645984,723.956023 433.755984,719.235023 C432.213984,703.325023 430.558984,686.242023 428.902984,669.159023 M1689.30998,806.958023 C1698.49598,819.207023 1707.68298,831.456023 1716.86998,843.705023 M1716.86998,854.729023 C1725.11698,838.958023 1733.36398,823.188023 1741.65798,807.328023 C1735.73198,802.061023 1730.52898,797.436023 1725.68498,793.129023 C1708.81098,798.052023 1693.54898,802.505023 1678.28598,806.958023 M1788.52598,669.159023 C1787.30098,674.671023 1786.07598,680.183023 1784.90198,685.463023 C1799.01598,693.527023 1813.06298,701.554023 1827.10898,709.580023 M425.227984,849.217023 L463.811984,849.217023 M498.721984,847.380023 C509.876984,834.893023 525.545984,825.688023 528.118984,806.958023 M362.758984,773.887023 C366.433984,760.413023 370.108984,746.939023 373.782984,733.465023 M1845.48298,733.465023 C1848.54498,746.939023 1851.60698,760.412023 1854.66998,773.887023 M1794.03798,849.217023 L1753.61598,849.217023 M1867.53098,806.958023 C1860.79398,804.509023 1854.08798,800.134023 1847.31298,800.023023 C1834.47498,799.812023 1819.89698,784.198023 1808.73598,803.283023 M1786.68798,691.207023 C1782.40998,706.923023 1783.57998,720.823023 1801.66398,730.841023 C1814.57298,719.868023 1828.19098,708.293023 1841.80798,696.719023 M1858.34398,806.958023 C1848.79598,820.432023 1839.24698,833.904023 1828.17998,849.520023 C1827.84398,848.849023 1829.31398,851.789023 1830.78398,854.729023 M1694.82198,738.978023 C1699.18198,753.840023 1709.86198,751.004023 1725.86698,747.939023 C1714.34798,739.621023 1706.21098,733.747023 1697.82498,727.691023 C1684.88798,742.198023 1681.29798,757.334023 1681.96098,773.887023 M1834.45898,702.231023 C1822.31798,688.172023 1805.60798,682.901023 1788.52598,678.346023 M428.902984,678.346023 C413.591984,686.307023 398.280984,694.269023 382.969984,702.231023 M1865.69298,773.887023 C1867.79598,756.630023 1861.90298,741.218023 1854.66998,726.116023 M1748.10398,858.403023 C1764.31298,867.856023 1781.13498,860.746023 1797.71198,860.241023 M397.667984,751.839023 C387.770984,742.714023 377.872984,733.590023 366.222984,722.850023 C357.059984,741.333023 347.661984,756.544023 353.572984,775.724023 M392.155984,847.380023 C381.744984,835.131023 370.991984,823.149023 361.092984,810.499023 C357.229984,805.562023 354.781984,802.149023 349.897984,808.796023 M761.458984,408.258023 C762.306984,412.500023 763.155984,416.742023 764.884984,425.390023 C781.611984,422.225023 799.357984,419.833023 816.395984,414.966023 C820.682984,413.741023 825.009984,404.719023 825.343984,399.047023 C826.456984,380.127023 825.765984,361.100023 825.765984,342.114023 M1746.26698,873.103023 L1801.38698,873.103023 M349.897984,722.441023 C326.071984,775.357023 339.292984,826.848023 385.579984,858.940023 C389.719984,852.045023 393.830984,845.199023 397.384984,839.279023 C388.006984,827.536023 379.057984,816.328023 370.107984,805.121023 M476.672984,869.428023 C468.429984,851.521023 460.185984,833.613023 450.966984,813.587023 C455.826984,809.689023 461.944984,804.781023 470.694984,797.763023 C482.639984,819.746023 493.418984,839.583023 504.296984,859.605023 C546.432984,831.070023 563.527984,779.147023 540.979984,722.441023 M1711.35798,768.374023 C1714.92598,761.581023 1718.49398,754.788023 1722.06398,747.990023 C1738.28198,756.865023 1739.83698,756.088023 1749.09198,732.820023 C1739.96398,725.977023 1730.25498,718.697023 1720.54498,711.417023 M449.113984,819.819023 C444.826984,817.982023 439.944984,816.906023 436.389984,814.131023 C430.932984,809.871023 426.387984,804.443023 418.301984,796.357023 C411.545984,810.826023 406.444984,821.753023 401.342984,832.681023 M438.089984,819.819023 C430.819984,832.376023 423.549984,844.932023 416.125984,857.754023 C435.026984,864.756023 452.175984,866.981023 469.323984,858.403023 M390.318984,862.078023 C427.065984,884.292023 463.811984,882.252023 500.558984,862.078023 M1823.43498,843.705023 C1816.21098,829.223023 1808.98698,814.741023 1800.14398,797.014023 C1792.13598,803.539023 1785.10898,807.041023 1781.57298,812.718023 C1777.28498,819.604023 1773.72298,822.399023 1766.47798,817.982023 M443.601984,784.910023 C449.479984,781.742023 460.560984,783.536023 457.981984,772.121023 C456.779984,766.801023 451.717984,757.902023 449.199984,758.168023 C441.706984,758.957023 434.607984,763.485023 423.280984,768.276023 C432.323984,775.516023 437.043984,779.294023 441.763984,783.073023 M2088.00998,667.321023 C2062.28698,667.934023 2036.56498,668.546023 2010.84198,669.159023 M1070.12998,489.101023 L1149.13598,489.101023 M524.443984,731.628023 C527.880984,726.743023 531.317984,721.857023 535.917984,715.321023 C516.877984,682.022023 484.459984,663.899023 443.604984,664.144023 C403.878984,664.381023 372.738984,682.683023 352.755984,717.985023 C356.111984,719.816023 358.516984,721.129023 360.921984,722.441023 M1523.94998,489.101023 L1443.10798,489.101023 M129.418984,524.010023 C110.696984,550.768023 114.939984,579.522023 122.854984,612.201023 L193.724984,612.201023 M1647.05098,391.723023 C1635.15898,428.981023 1637.47598,467.443023 1638.12598,505.632023 C1638.41898,522.807023 1641.53898,539.934023 1643.37698,557.082023 M395.830984,518.498023 C383.581984,520.947023 370.540984,521.502023 359.241984,526.223023 C331.618984,537.764023 303.490984,549.513023 289.265984,579.130023 M234.145984,520.335023 C224.346984,517.273023 214.699984,512.335023 204.717984,511.529023 C182.155984,509.706023 159.427984,509.924023 136.767984,509.312023 M766.970984,354.976023 C765.133984,360.487023 764.849984,367.538023 761.183984,371.238023 C747.166984,385.388023 732.800984,399.399023 717.164984,411.681023 C699.923984,425.223023 695.336984,443.397023 693.477984,463.378023 M1439.43298,490.938023 C1440.95198,504.225023 1449.38598,507.856023 1461.48398,507.575023 C1478.62298,507.177023 1495.77798,507.474023 1512.92598,507.474023 C1511.94098,506.449023 1510.95498,505.424023 1509.96998,504.399023 C1516.69198,500.734023 1523.41498,497.068023 1528.37498,494.364023 C1524.45698,476.468023 1520.44398,471.293023 1509.24598,470.896023 C1491.50698,470.266023 1473.67898,469.920023 1455.98998,471.049023 C1446.34298,471.665023 1435.19698,474.197023 1441.27098,489.101023 M1066.45598,490.938023 C1068.80998,500.639023 1074.13698,507.284023 1084.82998,507.417023 C1101.97498,507.630023 1119.13198,507.752023 1136.27198,507.383023 C1149.12498,507.106023 1152.73398,498.535023 1152.84098,487.264023 C1152.94798,475.992023 1147.54498,470.617023 1136.27398,470.696023 C1119.12698,470.816023 1101.97698,470.655023 1084.82898,470.752023 C1072.72898,470.820023 1065.94098,475.898023 1068.29298,489.101023 M2314.00098,439.493023 L2176.81998,439.493023 C2179.21998,446.458023 2181.29598,452.482023 2183.37098,458.506023 C2184.48898,458.402023 2185.60598,458.300023 2186.72298,458.196023 C2188.11598,452.574023 2189.50798,446.952023 2190.89998,441.330023 M2314.00098,457.866023 L2187.22598,457.866023 M888.234984,422.957023 C877.210984,398.459023 865.344984,374.290023 855.584984,349.299023 C851.773984,339.541023 847.959984,336.461023 835.286984,340.552023 C843.581984,370.466023 858.180984,397.091023 869.861984,424.794023 M1783.01398,821.657023 C1791.00998,838.175023 1799.00698,854.692023 1807.01298,871.230023 C1858.35598,855.416023 1890.56698,799.571023 1876.78398,742.636023 C1865.87798,697.581023 1814.40998,657.604023 1770.16998,661.985023 C1710.07398,667.938023 1673.97998,706.648023 1667.78498,753.744023 C1660.09098,812.226023 1693.92198,858.087023 1741.26698,870.906023 C1749.72698,851.288023 1758.10098,831.870023 1768.21998,808.405023 C1759.08498,806.579023 1750.83898,804.932023 1742.59198,803.283023 M2325.02498,481.751023 C2316.25698,484.932023 2307.48898,488.112023 2298.72098,491.292023 C2298.75098,492.357023 2298.78198,493.422023 2298.81198,494.487023 C2303.29798,495.611023 2307.78298,496.735023 2313.08298,498.064023 L2313.08298,546.977023 L2299.30298,546.977023 L2299.30298,493.083023 C2285.96198,505.248023 2281.92698,517.632023 2280.95798,531.361023 C2279.61898,550.339023 2278.56998,569.337023 2277.22398,588.314023 C2276.26898,601.793023 2285.36898,612.610023 2299.30498,614.017023 C2306.64098,614.757023 2314.00098,615.264023 2321.35098,615.876023 M1647.05098,593.828023 C1645.21398,595.053023 1643.18598,596.067023 1641.56698,597.533023 C1595.88098,638.891023 1582.82298,693.483023 1579.06998,751.839023 M269.055984,676.508023 L166.164984,676.508023 L94.5089844,676.508023 M1652.56298,459.703023 L1983.15098,459.703023 C1984.64998,453.194023 1985.80298,448.181023 1986.95698,443.167023 M2178.03898,439.493023 C2171.91498,438.880023 2165.79098,437.746023 2159.66598,437.735023 C2091.07198,437.608023 2022.47798,437.421023 1953.88598,437.729023 C1897.53898,437.981023 1841.19598,439.295023 1784.85098,439.359023 C1740.75598,439.410023 1696.65898,438.268023 1652.56298,437.655023 M1986.95698,457.866023 C1991.24398,458.479023 1995.52998,459.614023 1999.81798,459.624023 C2054.32598,459.744023 2108.83298,459.756023 2163.33998,459.623023 C2168.85398,459.609023 2174.36498,458.479023 2179.87598,457.866023 M1114.22598,198.803023 C1109.93898,197.578023 1105.61098,195.176023 1101.37198,195.324023 C1078.08498,196.139023 1054.73498,196.727023 1031.56798,199.023023 C1003.91598,201.764023 975.696984,203.434023 949.067984,210.576023 C921.329984,218.017023 895.429984,228.229023 874.295984,253.003023 C845.548984,286.702023 809.229984,313.942023 776.157984,343.952023 M2315.83898,661.810023 C2250.30698,663.034023 2184.77398,664.156023 2119.24798,665.627023 C2111.87498,665.793023 2104.54598,667.934023 2097.19698,669.159023 M1211.60498,202.478023 C1207.92998,241.674023 1204.10398,280.856023 1200.64798,320.072023 C1199.03098,338.411023 1197.51098,356.796023 1197.00998,375.189023 C1194.33998,473.174023 1191.86498,571.165023 1189.75498,669.163023 C1189.51798,680.155023 1193.38998,691.278023 1192.82198,702.209023 C1192.30898,712.109023 1188.33198,721.829023 1185.88198,731.628023 M893.746984,230.037023 C892.240984,226.231023 890.734984,222.426023 888.731984,217.363023 C838.219984,253.349023 790.026984,290.433023 739.039984,323.162023 C695.884984,350.863023 659.826984,390.814023 607.151984,402.870023 C606.262984,403.074023 605.800984,405.142023 604.785984,406.979023 C607.858984,411.075023 611.018984,415.289023 614.013984,419.282023 C618.147984,419.282023 622.068984,418.433023 625.457984,419.416023 C653.209984,427.463023 678.255984,422.618023 700.835984,404.595023 C724.681984,385.560023 748.597984,366.612023 772.482984,347.626023 M794.530984,468.890023 C755.946984,471.952023 717.361984,474.999023 678.779984,478.084023 C664.077984,479.261023 649.330984,480.099023 634.693984,481.843023 C606.484984,485.204023 578.321984,488.974023 550.171984,492.817023 C529.319984,495.665023 508.512984,498.847023 487.699984,501.975023 C459.518984,506.210023 431.352984,510.536023 403.179984,514.823023 M1259.37498,658.135023 L1547.83598,658.135023 M667.755984,762.862023 C666.530984,757.351023 664.769984,751.897023 664.164984,746.317023 C659.220984,700.681023 649.038984,656.252023 630.809984,614.125023 C612.048984,570.767023 584.650984,536.561023 531.794984,537.035023 C478.505984,537.514023 425.186984,538.412023 371.957984,540.815023 C324.145984,542.975023 291.995984,570.356023 269.055984,610.364023 M2021.86598,735.303023 C2013.66698,696.725023 2006.36598,657.835023 1990.50398,621.443023 C1977.79798,592.293023 1963.11098,561.951023 1933.22598,548.925023 C1905.31498,536.759023 1874.00398,530.496023 1843.55198,526.568023 C1809.66198,522.196023 1775.04398,522.273023 1740.75698,522.509023 C1710.45198,522.717023 1680.77498,528.728023 1652.56298,540.546023 M687.965984,467.053023 C670.817984,467.053023 653.643984,466.448023 636.525984,467.166023 C585.679984,469.299023 534.807984,471.244023 484.038984,474.639023 C447.210984,477.101023 410.395984,480.761023 373.820984,485.708023 C338.123984,490.536023 302.757984,497.781023 267.210984,503.755023 C249.359984,506.754023 237.947984,517.001023 230.343984,533.136023 C218.548984,558.163023 205.913984,582.794023 191.571984,611.761023 C230.959984,612.572023 266.543984,613.306023 302.126984,614.039023 M2009.00498,737.140023 C2007.77998,731.628023 2006.19998,726.168023 2005.38698,720.596023 C1998.92698,676.351023 1986.57498,634.057023 1962.97298,595.727023 C1949.98898,574.643023 1932.06098,557.449023 1907.83498,552.101023 C1870.92298,543.950023 1833.43298,536.731023 1795.82598,533.838023 C1746.54298,530.047023 1697.84798,537.616023 1650.72598,553.407023 M607.123984,415.607023 C601.611984,414.383023 595.959984,411.689023 590.612984,412.199023 C572.173984,413.957023 553.851984,416.918023 535.464984,419.263023 C506.077984,423.011023 476.716984,427.038023 447.260984,430.160023 C428.357984,432.164023 409.222984,432.021023 390.335984,434.134023 C351.082984,438.526023 311.784984,442.873023 272.775984,448.975023 C243.145984,453.609023 213.059984,458.327023 184.801984,467.837023 C160.088984,476.152023 132.689984,486.247023 131.052984,522.481023 C161.210984,524.101023 191.281984,525.715023 220.778984,527.299023 C208.657984,555.082023 196.597984,582.724023 184.538984,610.364023 M1977.76998,731.628023 C1979.60798,742.039023 1982.09598,752.387023 1983.13698,762.877023 C1984.89298,780.585023 1985.41598,798.417023 1987.24498,816.115023 C1987.57898,819.346023 1991.66698,822.188023 1994.02298,825.209023 C1995.60498,824.586023 1997.18598,823.964023 1998.76798,823.341023 C1996.56098,796.448023 1994.35298,769.556023 1991.99898,740.883023 C1996.56798,740.230023 2000.94098,739.539023 2005.33198,738.987023 C2034.72598,735.293023 2064.28998,732.590023 2093.45698,727.576023 C2109.74198,724.776023 2125.09398,715.439023 2141.34698,713.791023 C2181.60298,709.709023 2222.11298,707.848023 2262.56298,706.053023 C2300.17098,704.385023 2318.22298,688.818023 2321.14598,650.770023 C2324.48098,607.355023 2326.48398,563.830023 2328.57698,520.329023 C2329.34098,504.442023 2334.29098,485.214023 2327.34698,473.356023 C2317.71198,456.904023 2311.50998,443.933023 2321.22498,426.561023 C2321.60098,425.889023 2320.12698,424.181023 2319.51398,422.956023 C2097.80898,422.956023 1876.10498,422.956023 1654.40098,422.956023 M1634.18998,441.330023 C1609.07998,442.555023 1583.98098,444.134023 1558.85698,444.928023 C1511.70698,446.418023 1464.54898,447.773023 1417.38398,448.609023 C1334.09698,450.085023 1250.79898,450.999023 1167.50998,452.398023 C1108.09898,453.397023 1048.68298,454.415023 989.292984,456.201023 C961.702984,457.030023 934.192984,460.430023 906.601984,461.365023 C868.041984,462.673023 829.441984,462.969023 790.855984,463.316023 C757.775984,463.614023 724.689984,463.378023 691.719984,463.378023 C690.134984,468.808023 689.050984,472.523023 687.965984,476.239023 M1252.02598,658.135023 C1070.74298,658.135023 889.459984,658.079023 708.176984,658.215023 C688.577984,658.231023 668.979984,659.359023 649.381984,659.973023 M1647.05098,332.928023 C1643.98898,306.593023 1641.75298,280.125023 1637.56098,253.972023 C1634.96498,237.771023 1629.39798,222.045023 1623.90998,201.379023 C1590.49598,196.994023 1555.40898,188.690023 1520.27098,188.469023 C1413.10598,187.792023 1305.91998,190.170023 1198.74398,191.493023 C1170.56798,191.842023 1142.39898,192.679023 1114.22598,193.291023 M614.472984,738.978023 C612.635984,735.303023 609.807984,731.807023 609.107984,727.927023 C595.359984,651.736023 499.454984,578.681023 401.152984,606.006023 C334.028984,624.665023 275.060984,689.118023 274.543984,768.374023 C274.260984,811.728023 288.699984,849.273023 316.716984,882.381023 C377.744984,954.500023 489.407984,961.825023 559.151984,896.772023 C604.159984,854.792023 623.389984,802.601023 612.635984,740.815023 M1941.02398,731.628023 C1930.61198,710.805023 1922.46998,688.416023 1909.37898,669.442023 C1863.76698,603.332023 1773.81298,579.274023 1696.53798,617.469023 C1635.90298,647.439023 1587.04798,724.142023 1608.16798,810.706023 C1626.36198,885.277023 1690.39098,935.878023 1764.67598,940.518023 C1810.17198,943.360023 1851.50898,928.862023 1885.99098,897.082023 C1934.53498,852.343023 1951.69098,797.834023 1939.18698,733.465023 M686.128984,479.914023 C678.581984,517.557023 676.785984,555.698023 679.041984,593.813023 C681.873984,641.660023 690.922984,688.489023 706.906984,734.384023 L1514.27898,734.384023 C1537.84698,719.491023 1542.38898,692.027023 1549.10998,667.169023 C1558.79198,631.362023 1565.80398,594.816023 1564.62098,557.074023 C1563.47098,520.363023 1564.37198,483.589023 1564.37198,446.842023 M1566.20898,443.167023 C1565.59698,440.718023 1564.55998,438.289023 1564.43398,435.814023 C1561.90098,386.211023 1559.87798,336.577023 1556.80698,287.008023 C1555.70098,269.164023 1553.80198,251.029023 1549.25698,233.822023 C1543.28298,211.198023 1519.69798,199.257023 1490.87698,199.093023 C1370.22998,198.405023 1249.57598,198.803023 1128.92498,198.803023 C1125.24998,198.803023 1121.54898,198.513023 1117.90498,198.848023 C1078.70198,202.450023 1039.51298,206.200023 1000.31098,209.813023 C965.732984,212.998023 932.062984,219.185023 904.838984,242.977023 C870.870984,272.662023 837.401984,302.918023 803.717984,332.928023 M2323.18798,470.728023 C2112.50798,471.952023 1901.82698,473.148023 1691.14798,474.471023 C1678.28298,474.552023 1665.42498,475.627023 1652.56298,476.239023 M285.590984,770.212023 C286.815984,784.298023 285.611984,799.127023 289.656984,812.351023 C317.735984,904.154023 392.538984,943.689023 474.605984,928.789023 C571.649984,911.171023 621.117984,821.502023 601.511984,735.325023 C585.771984,666.147023 539.489984,624.072023 472.749984,611.707023 C413.810984,600.786023 360.222984,619.882023 320.318984,669.011023 C296.561984,698.260023 285.580984,731.442023 283.753984,768.374023 M1619.49198,202.478023 C1615.81698,197.578023 1613.07898,191.334023 1608.30798,188.007023 C1585.19698,171.890023 1557.29398,172.565023 1531.23398,170.103023 C1490.44898,166.248023 1449.23298,166.007023 1408.19898,166 C1367.77798,165.992023 1327.35198,168.063023 1286.93598,169.444023 C1256.91998,170.472023 1226.90798,173.031023 1196.90798,172.843023 C1127.87498,172.408023 1059.32598,177.606023 991.137984,187.865023 C957.573984,192.915023 923.941984,198.149023 893.746984,215.339023 M120.231984,608.527023 C107.150984,613.507023 94.7229844,619.350023 94.5719844,636.087023 C94.3359844,662.420023 93.2779844,688.829023 94.8269844,715.073023 C96.6789844,746.438023 105.705984,753.461023 136.766984,753.756023 C155.756984,753.936023 174.734984,755.124023 193.725984,755.448023 C211.481984,755.752023 229.246984,755.513023 244.332984,755.513023 C258.316984,719.394023 271.036984,683.779023 285.867984,649.066023 C298.840984,618.702023 318.678984,593.200023 351.838984,583.147023 C372.099984,577.005023 393.288984,571.250023 414.224984,570.602023 C450.897984,569.466023 487.796984,571.124023 524.413984,574.002023 C556.106984,576.493023 586.279984,584.425023 603.497984,615.850023 C620.205984,646.341023 629.411984,679.140023 634.698984,713.252023 C637.582984,731.857023 640.627984,750.438023 642.975984,765.128023 C695.200984,762.382023 743.022984,757.831023 790.857984,757.691023 C1040.73198,756.961023 1290.60998,757.478023 1540.48598,757.112023 C1560.69898,757.082023 1580.90798,753.676023 1601.11798,751.839023 M1485.36698,217.176023 C1483.52898,215.951023 1481.69398,213.659023 1479.85398,213.655023 C1405.13698,213.476023 1330.41498,213.102023 1255.70298,213.771023 C1235.95998,213.946023 1227.11898,224.382023 1226.39498,244.739023 C1224.86898,287.600023 1223.83998,330.478023 1222.64698,373.350023 C1222.51098,378.245023 1223.57298,383.372023 1222.47298,388.011023 C1216.08298,414.960023 1224.82098,426.995023 1252.02498,426.549023 C1310.21098,425.594023 1368.38798,424.039023 1426.57298,423.025023 C1450.45098,422.609023 1474.34298,422.957023 1498.22798,422.957023 C1526.68498,422.957023 1539.18698,408.366023 1535.07298,380.684023 C1533.26498,368.522023 1531.97598,356.226023 1531.40598,343.946023 C1529.87098,310.890023 1529.36598,277.777023 1527.42198,244.748023 C1526.34198,226.395023 1507.03098,213.311023 1489.04198,217.182023 C1483.52298,218.369023 1478.02098,220.669023 1472.50498,220.691023 C1409.42398,220.942023 1346.34098,220.667023 1283.26098,221.017023 C1271.61898,221.081023 1259.63698,222.038023 1248.51698,225.125023 C1243.84298,226.423023 1238.14998,234.127023 1237.79398,239.257023 C1235.63298,270.426023 1235.06998,301.703023 1233.53398,332.922023 C1233.07998,342.147023 1229.75498,351.385023 1230.28198,360.470023 C1231.35098,378.951023 1224.58898,398.606023 1237.60898,416.864023 C1247.12698,417.654023 1256.93898,419.302023 1266.72198,419.146023 C1326.74598,418.193023 1386.76198,416.761023 1446.78398,415.654023 C1463.31398,415.349023 1479.85498,415.619023 1496.38998,415.605023 C1518.95898,415.585023 1524.29598,410.713023 1523.84798,388.050023 C1522.97398,343.946023 1521.70198,299.849023 1520.18398,255.763023 C1519.50298,235.965023 1510.06998,226.468023 1489.04098,222.689023 M765.133984,389.885023 C768.681984,397.192023 766.864984,401.653023 759.982984,406.895023 C754.986984,410.700023 753.327984,418.885023 750.179984,425.117023 C751.405984,426.847023 752.631984,428.576023 753.857984,430.306023 C771.702984,430.306023 789.558984,430.709023 807.389984,430.220023 C841.082984,429.294023 874.753984,427.544023 908.446984,426.700023 C967.234984,425.228023 1026.03898,424.371023 1084.82598,422.836023 C1101.38198,422.403023 1117.88398,420.120023 1134.44198,419.394023 C1150.20498,418.702023 1153.80598,405.675023 1155.93798,395.284023 C1161.27098,369.290023 1163.90698,342.736023 1167.48398,316.389023 C1170.05998,297.420023 1171.37598,278.214023 1175.12098,259.487023 C1179.75898,236.295023 1172.06198,224.262023 1149.13898,224.695023 C1123.40198,225.182023 1097.69998,227.687023 1071.96498,228.038023 C1030.35098,228.606023 988.775984,226.403023 948.716984,242.526023 C927.412984,251.102023 908.261984,261.775023 891.868984,277.766023 C870.157984,298.943023 848.156984,319.823023 823.004984,343.976023 C823.473984,336.496023 822.236984,331.430023 824.159984,329.481023 C839.670984,313.763023 856.172984,299.021023 871.621984,283.245023 C913.571984,240.411023 964.133984,220.092023 1024.19998,220.543023 C1068.89598,220.879023 1113.60898,218.171023 1158.32398,217.269023 C1182.42598,216.782023 1189.23398,226.015023 1186.03098,250.268023 C1181.75398,282.648023 1178.65698,315.182023 1174.80998,347.620023 C1172.62698,366.025023 1170.46398,384.459023 1167.35498,402.720023 C1164.66998,418.499023 1153.06198,427.609023 1134.43198,430.272023 C1132.63098,430.529023 1130.76198,430.278023 1128.92498,430.311023 C1059.10698,431.530023 989.285984,432.639023 919.469984,434.020023 C867.408984,435.049023 815.340984,436.059023 763.305984,437.922023 C750.584984,438.377023 742.022984,435.076023 736.434984,420.210023 C743.571984,411.441023 750.986984,400.986023 759.830984,391.926023 C765.996984,385.607023 769.862984,380.039023 765.133984,371.512023"/>
    <g transform="translate(92 164.19)">
      <path id="frente" d="M24.1290447,446.173076 L210.127084,449.848076 L156.845084,593.971246 L24.1290447,589.485076 C8.04301489,580.581377 1.42108547e-14,563.433044 1.42108547e-14,538.040076 C1.42108547e-14,512.647108 0.83636129,486.597608 2.50908387,459.891576 L24.1290447,446.173076 Z"/>
      <path id="frente_i" d="M30.8550839,448.010076 C25.7929918,421.025522 23.5509787,402.843601 24.1290447,393.464312 C25.1290644,377.238699 34.3660882,363.299339 37.103007,354.307076 C44.7680839,329.123139 49.0296131,313.853218 75.8851327,306.504218 C102.740652,299.155218 238.207084,267.811955 341.756084,262.370015 C410.788751,258.742056 465.821917,252.947409 506.855584,244.986076 L524.310084,256.928076 L586.133817,256.928076 L608.043068,238.555076 C591.366717,344.055701 584.063634,412.716061 586.133817,444.536155 C588.529149,481.354004 601.478084,527.016076 608.043068,554.575576 C610.753801,565.955107 620.244905,563.971099 620.244905,572.949076 C620.244905,578.981076 621.877867,590.833139 620.244905,593.971246 C619.322534,595.74379 619.322534,597.3104 620.244905,598.671076 L550.976084,600.937076 C539.323417,514.189762 521.440151,459.198445 497.326287,435.963124 C473.212422,412.727803 452.810021,405.719787 436.119084,414.939076 C411.157875,408.206646 391.865875,404.561135 378.243084,404.002542 C340.570455,402.457803 301.495489,409.426576 298.319084,409.426576 C290.970084,409.426576 221.919351,423.367046 221.919351,446.173076 C221.919351,456.016477 192.241124,450.912324 142.146084,448.010076 C123.958576,446.956386 86.8615763,446.956386 30.8550839,448.010076 Z"/>
      <path id="izquierda_1" d="M620.970666,594.909602 C597.7461,509.265933 586.133817,449.275758 586.133817,414.939076 C586.133817,380.602394 591.939959,336.506394 603.552241,282.651076 L603.552241,244.985576 C643.017711,213.05795 672.642158,188.254117 692.425584,170.574076 C712.209009,152.894036 737.987509,128.185394 769.761084,96.4481517 L820.257912,58.449678 C853.390724,44.7262703 890.000099,36.741562 930.086037,34.4955531 C970.171974,32.2495441 1033.34499,29.5772146 1119.60508,26.4785645 L1100.95322,426.422076 L1100.95322,495.782076 L1100.95322,538.040076 L1084.91026,593.971246 L620.970666,594.909602 Z"/>
      <path id="izquierda_2" d="M1079.30283 594.909602C1087.97174 572.946283 1093.16141 555.214441 1094.87184 541.714076 1096.58228 528.213711 1096.58228 513.515378 1094.87184 497.619076L1106.74358 291.837076 1106.74358 123.777803 1119.60508 24.1592274C1292.56598 21.3464295 1396.68098 20.4972828 1431.95008 21.6117874 1484.85374 23.2835442 1524.23838 31.1265396 1531.91008 37.1880761 1537.02455 41.2291004 1545.04455 85.0787671 1555.97008 168.737076L1555.97008 227.532076C1550.7093 266.969773 1547.9533 294.690442 1547.70208 310.694083 1546.93959 359.267915 1552.42199 389.566441 1558.72608 417.867647 1564.39834 443.33231 1566.10452 459.891576 1566.10452 480.293428 1566.10452 497.199162 1539.17389 513.081064 1527.15049 534.365076 1519.13489 548.554418 1514.23044 566.315418 1512.43713 587.648076L1462.0001 594.909602 1079.30283 594.909602z"/>
      <path id="frente" d="M506.855584 244.985576L547.000099 227.532076 796.235084 51.1480761 801.747084 65.8460761 782.296084 88.8120761 698.857084 163.415342 627.867287 227.532076C605.375818 248.500718 588.005417 258.985039 575.756084 258.985039 563.506751 258.985039 545.592751 257.687052 522.014084 255.091076L506.855584 244.985576z"/>
      <path id="izquierda_3" d="M1548.0001 258.809053L2227.8121 265.058045C2224.1381 269.957378 2224.1381 280.981378 2227.8121 298.130045 2229.46681 305.853518 2239.1337 302.349715 2239.30128 331.259354 2239.43261 354.778905 2235.60289 413.106985 2227.8121 506.243593 2224.43488 528.573561 2210.31535 542.494712 2185.4535 548.007045 2160.59166 553.519378 2115.32219 556.148045 2049.6451 555.893045L2005.4951 572.943045 1900.9985 580.282045 1909.25124 662.461545 1900.9985 666.031045 1889.28385 573.730045 1867.25124 492.048111C1863.29829 472.387575 1858.02208 459.017205 1851.42262 451.937003 1841.98307 441.80983 1825.46164 430.524234 1810.11843 428.581045 1791.93868 426.278614 1752.74753 413.266512 1709.6851 412.343123 1641.06242 410.871645 1564.21378 423.401515 1559.0241 432.715045 1553.39321 442.820378 1549.71854 384.851714 1548.0001 258.809053z"/>
      <path id="arriba" d="M801.747084 65.8460761L796.235084 49.1971873C819.57037 37.6335251 838.556037 30.0606509 853.192084 26.4785645 907.255089 13.2469627 968.884707 9.95749048 1017.64936 9.95749048 1047.75743 9.95749048 1083.87525 7.08497804 1119.60508 6.03756861 1150.03186 5.14561676 1199.19218 3.73611156 1267.08604 1.80905298 1396.90778-2.22647997 1473.00219.489665867 1495.36924 9.95749048 1517.73629 19.4253151 1528.44391 27.6046693 1527.49208 34.4955531L1443.83829 24.1592274 1022.22608 31.1265396C969.434982 33.9003873 933.975539 36.2872328 915.847756 38.2870761 872.150952 43.1076743 849.447946 50.2411817 852.86945 49.1971873 858.420091 47.5035352 841.379303 53.0531649 801.747084 65.8460761z"/>
    </g>
  </g>
</svg>
