<svg xmlns="http://www.w3.org/2000/svg" width="2425" height="1108" viewBox="0 0 2425 1108">
  <g fill="none" fill-rule="evenodd">
    <path id="esqueleto" stroke="#000" stroke-width="6" d="M891.160569,146.409717 C891.144169,137.097577 889.279086,127.595706 883.908886,119.79418 C878.712712,112.245627 870.762192,107.249397 862.154747,104.302255 C850.188878,100.202275 837.533283,99.867988 825.005246,99.867988 L774.464868,99.867988 L689.889231,99.867988 L594.276165,99.867988 L511.292272,99.867988 L464.458371,99.867988 C451.089361,99.867988 437.643816,100.658531 424.880708,104.943723 C405.83627,111.334922 392.295057,125.555654 387.45969,144.966864 C387.208218,145.976951 387.353088,146.107956 386.594116,146.409717 C385.556339,146.825317 383.49263,146.409717 382.400185,146.409717 L371.626074,146.409717 C367.432143,146.409717 363.249145,146.523555 359.087103,147.094553 C351.753418,148.10193 344.365066,150.394955 338.565724,155.113817 C333.26477,159.427018 329.911811,165.46586 328.320067,172.023298 C327.383426,175.885664 327.027174,179.854639 326.997107,183.820905 C326.988907,184.899657 327.364292,186.517784 326.997107,187.49354 C326.624455,188.476523 327.186622,187.84951 326.1124,188.117843 C323.813619,188.691551 320.630131,188.117843 318.26666,188.117843 L296.619123,188.117843 C295.920287,188.117843 294.594592,188.370816 293.94769,188.117843 C293.058427,187.772714 293.436546,188.378948 293.323566,186.931577 C293.200564,185.319774 293.561371,183.831746 292.619263,182.403349 C291.282635,180.376849 288.425332,179.86006 286.455469,181.285747 C283.92435,183.117096 284.680588,186.862913 284.680588,189.517329 L284.680588,200.787305 L284.680588,205.528754 C284.680588,205.967844 284.960304,207.551639 284.680588,207.875084 C284.168532,208.466862 280.198739,207.940134 279.3687,207.940134 L267.906685,207.940134 C262.315081,207.940134 256.904791,207.66367 251.622971,209.774193 C242.766788,213.313114 236.520992,221.726294 235.748354,231.164018 C235.162497,238.307813 235.662708,245.655794 235.662708,252.813141 L235.662708,298.384535 C235.662708,306.093907 235.304633,313.895434 235.696419,321.596674 C235.926024,326.10864 237.392032,330.52845 239.909484,334.29324 C245.273306,342.315215 253.913551,345.605679 263.290901,345.605679 L303.977409,345.605679 C305.42155,345.605679 309.620036,344.892836 310.16307,346.098978 C310.43732,346.710632 310.16307,348.103794 310.16307,348.761526 L310.16307,353.625847 L310.16307,435.060773 L310.16307,476.950497 L310.16307,490.870372 L310.16307,495.157372 C310.16307,495.661512 310.399052,496.849585 310.16307,497.311262 C309.906131,497.813595 309.05058,497.968993 308.45379,498.211125 C305.601953,499.364865 302.747383,500.515896 299.895546,501.671443 C294.803241,503.730468 289.707291,505.792203 284.614986,507.851228 L284.614986,459.883811 L284.614986,392.602761 C284.614986,384.138082 284.488339,376.260664 279.670284,368.84944 C274.574334,361.009967 265.9514,355.805938 256.586807,354.914206 C250.390212,354.325139 243.996813,354.773264 237.78564,354.773264 L201.775963,354.773264 C192.283811,354.773264 183.618965,355.283728 175.822426,361.395752 C168.507875,367.131026 164.217364,375.939929 164.057005,385.157205 C163.930358,392.356112 164.054272,399.567668 164.054272,406.769285 L164.054272,461.603129 L164.054272,535.311516 L164.054272,612.374515 L164.054272,678.058218 L164.054272,717.395619 C164.054272,723.879875 164.250165,730.040687 167.209515,736.033452 C171.389779,744.503551 179.463301,750.70773 188.772316,752.617681 C193.335255,753.554587 198.08042,753.253729 202.709871,753.253729 L239.237981,753.253729 C249.787955,753.253729 260.531999,754.41289 269.912082,748.665871 C277.930937,743.750955 283.35216,735.275434 284.414538,725.987688 C284.839124,722.27801 284.612253,718.449977 284.612253,714.728554 L284.612253,685.205627 L284.612253,613.741476 L284.612253,600.172151 C291.04483,602.775069 297.473763,605.374373 303.90634,607.977291 C305.465284,608.607015 307.024227,609.236739 308.580437,609.867366 C308.883843,609.989335 309.977199,610.228757 310.160336,610.513352 C310.366252,610.834086 310.160336,611.942653 310.160336,612.309465 L310.160336,645.159899 L310.160336,699.160737 L310.160336,746.792963 L310.160336,759.908743 C310.160336,762.747468 310.417275,762.418603 307.387768,762.418603 C292.373258,762.418603 277.355103,762.412278 262.340592,762.418603 C257.239176,762.421313 252.376475,763.418752 247.965695,766.066844 C243.15584,768.951647 239.391962,773.409404 237.369254,778.611626 C235.378435,783.731632 235.665441,789.017878 235.665441,794.402602 L235.665441,843.830941 C235.665441,854.413371 235.304633,865.067175 235.680019,875.647797 C235.868623,880.967472 237.756484,886.155238 241.060241,890.355504 C244.487001,894.712975 249.344235,897.877856 254.738124,899.268308 C257.13804,899.888093 259.55709,900.07692 262.028075,900.083244 C265.839331,900.091376 269.651499,900.083244 273.462756,900.083244 L280.048403,900.083244 C281.092558,900.083244 283.149889,899.675776 284.119331,900.083244 C284.954838,900.433793 284.404515,899.835691 284.683321,900.832227 C285.039573,902.107033 284.683321,903.997108 284.683321,905.319799 L284.683321,918.489787 C284.683321,921.504691 283.845081,925.936247 287.48869,927.288752 C290.304993,928.334979 293.027449,926.285893 293.320833,923.46614 C293.395545,922.749682 292.909913,920.310294 293.370034,919.908246 C293.636084,919.674246 295.188649,919.908246 295.526678,919.908246 L306.919447,919.908246 L320.129009,919.908246 L324.937042,919.908246 C325.26596,919.908246 326.739257,919.682377 326.986173,919.908246 C327.414404,920.298549 326.994373,923.284541 326.998018,923.911554 C327.002573,925.110469 327.029907,926.308479 327.098242,927.502876 C327.232178,929.817585 327.509162,932.126873 327.966549,934.400926 C329.542804,942.221425 333.484352,949.36793 340.0946,954.075951 C347.559487,959.392011 357.029772,961.162826 366.039936,961.54048 C372.633783,961.814233 379.249498,961.379661 385.844257,961.619082 C387.205485,961.66787 387.073371,961.521507 387.421422,962.876723 C387.70934,963.998842 388.002723,965.11825 388.334375,966.225913 C389.205415,969.129689 390.275993,971.974739 391.569797,974.72131 C396.503566,985.189901 404.741092,993.561522 415.038682,998.932694 C424.223783,1003.72383 434.491307,1006.15057 444.75063,1007.30974 C451.111228,1008.0271 457.497338,1008.16262 463.891648,1008.16262 L484.736479,1008.16262 L521.403992,1008.16262 L569.480675,1008.16262 L623.824109,1008.16262 L679.977959,1008.16262 L733.279972,1008.16262 L779.066985,1008.16262 L812.803394,1008.16262 C818.362198,1008.16262 823.92009,1008.16804 829.478894,1008.16262 C837.495015,1008.1572 845.526626,1007.70636 853.391499,1006.09275 C863.634422,1003.99036 873.839078,999.826233 880.958647,991.969595 C884.349873,988.230102 886.879169,983.796739 888.517381,979.042642 C889.407555,976.454179 890.042613,973.786211 890.467199,971.083007 C890.684048,969.700687 890.845318,968.310235 890.957387,966.91617 C891.0649,965.60161 890.730516,963.56969 891.163302,962.347285 C891.516821,961.348039 890.971965,961.807006 892.191057,961.622696 C893.196033,961.470009 894.346791,961.622696 895.365434,961.622696 C897.526634,961.622696 897.135759,962.19008 897.609547,964.213869 C898.263738,967.011035 899.067355,969.773868 900.053197,972.477072 C901.890946,977.521186 904.364664,982.353886 907.597353,986.664376 C913.933351,995.119117 922.968116,1000.91583 933.063435,1004.0012 C941.761082,1006.66104 950.79038,1007.26908 959.838811,1007.26908 L998.87344,1007.26908 L1053.00003,1007.26908 L1079.08294,1007.26908 C1079.08294,1010.99683 1078.89889,1015.37869 1083.76159,1015.77713 C1086.15604,1015.97318 1088.6489,1015.77713 1091.04608,1015.77713 L1138.97243,1015.77713 L1208.82147,1015.77713 L1273.52992,1015.77713 L1295.5,1015.77713 L1302.40909,1015.77713 C1303.23458,1015.77713 1305.29646,1015.38321 1306.0363,1015.77713 C1306.12924,1015.82682 1306.37342,1015.77713 1306.48822,1015.77713 C1303.02866,1029.25972 1299.74677,1042.77935 1296.45395,1056.3017 C1295.20479,1061.42983 1293.9857,1066.56429 1292.92787,1071.7367 C1292.40215,1074.30619 1290.44687,1079.85083 1291.99397,1082.46911 C1293.06546,1084.28058 1296.6708,1084.13693 1298.48121,1083.77373 C1300.90299,1083.28676 1302.86101,1081.83577 1304.38989,1079.95654 C1306.59209,1077.2452 1308.03896,1073.93396 1309.32639,1070.72842 C1311.59237,1065.07807 1313.35905,1059.23258 1315.01366,1053.38166 C1318.10968,1042.42609 1321.15012,1030.867 1321.05446,1019.41001 C1321.04352,1018.19844 1320.99159,1016.98598 1320.87587,1015.77984 L1335.74005,1015.77984 C1338.61193,1015.77984 1342.33207,1016.45383 1345.14018,1015.54674 C1346.95059,1014.96038 1348.13688,1013.39737 1348.41113,1011.56963 C1348.54507,1010.66525 1347.91457,1007.72082 1348.47036,1007.27269 C1348.6216,1007.15253 1349.18286,1007.31335 1349.36873,1007.27269 C1350.97505,1006.93028 1353.05334,1007.27269 1354.68882,1007.27269 L1364.16275,1007.27269 L1392.98179,1007.27269 L1471.95033,1007.27269 L1544.77239,1007.27269 L1571.21703,1007.27269 L1592.10013,1007.27269 L1639.70667,1007.27269 L1706.55536,1007.27269 L1785.16401,1007.27269 L1868.05496,1007.27269 L1947.74877,1007.27269 L2016.7623,1007.27269 L2067.61702,1007.27269 L2092.83163,1007.27269 C2104.3228,1007.27269 2116.39345,1005.97349 2126.24459,999.593136 C2131.94826,995.898818 2136.34538,990.62251 2139.09243,984.453567 C2140.59671,981.074562 2141.61626,977.497696 2142.27501,973.867524 C2142.64037,971.865418 2142.89184,969.847954 2143.05949,967.821454 C2143.14696,966.748123 2142.69777,962.263262 2143.32554,961.627214 C2143.99613,960.945992 2148.94084,961.627214 2149.86746,961.627214 L2159.14276,961.627214 C2160.85751,961.627214 2162.49572,961.627214 2164.13666,961.051699 C2167.76114,959.780506 2170.4025,956.477393 2170.83711,952.699051 C2171.36283,948.131973 2170.90271,943.293853 2170.90271,938.711416 L2170.90271,903.15326 L2170.90271,839.126535 C2170.90271,835.743916 2170.34966,832.642278 2167.75567,830.189338 C2166.06006,828.589279 2163.95808,827.326218 2162.07933,825.959257 C2157.18383,822.404074 2152.29106,818.847987 2147.39647,815.291901 C2140.06552,809.964998 2132.73183,804.638096 2125.40088,799.311194 L2191.74481,799.311194 L2208.91323,799.311194 L2214.29892,799.311194 C2214.69982,799.311194 2216.43917,799.041958 2216.75168,799.311194 C2217.00589,799.530739 2216.83824,800.650148 2216.83824,801.044064 L2216.83824,807.435262 L2216.83824,827.904444 L2216.83824,847.387028 C2216.83824,848.7829 2217.32114,851.219578 2216.83824,852.54498 C2216.78722,852.685922 2216.94029,853.134047 2216.83824,853.241561 C2216.54577,853.55326 2213.86705,853.241561 2213.47708,853.241561 C2209.44169,853.241561 2205.82632,852.754586 2202.54443,855.460501 C2200.54906,857.106636 2199.03749,859.301183 2197.79107,861.536386 C2189.96446,875.567388 2189.13716,894.169082 2190.42458,909.792011 C2191.11249,918.120265 2192.57303,926.601206 2195.80298,934.360269 C2197.73093,938.991494 2200.92536,945.268854 2206.30284,946.589738 C2208.22533,947.058642 2210.35464,946.803862 2212.31084,946.803862 C2209.39795,955.822372 2204.79675,964.223807 2198.37237,971.260089 C2191.425,978.870981 2182.62896,985.078774 2173.78735,990.343336 C2169.64809,992.809829 2165.09244,994.686351 2161.15909,997.465447 C2159.49081,998.644485 2157.54828,1000.17498 2156.97882,1002.21683 C2155.64402,1007.01159 2162.35631,1008.46167 2165.80494,1008.61707 C2174.80964,1009.02092 2184.20612,1005.90573 2192.58578,1002.99473 C2202.33123,999.606689 2211.87714,995.353117 2220.44358,989.588029 C2229.26241,983.654893 2236.61249,976.019607 2241.40048,966.520447 C2245.51788,958.351205 2247.75106,949.385096 2249.11229,940.39369 C2252.57185,917.566433 2251.95137,894.148302 2252.01059,871.131314 C2252.01606,868.787694 2252.02243,866.443171 2252.0279,864.098647 C2250.57283,864.098647 2247.51781,864.786193 2247.00302,863.585472 C2246.5347,862.490458 2247.00302,860.154065 2247.00302,858.983159 L2247.00302,839.251215 L2247.00302,788.914881 L2247.00302,780.173738 C2247.00302,778.793225 2246.55657,776.54176 2247.00302,775.221779 C2247.05313,775.074513 2246.89915,774.629098 2247.00302,774.51255 C2247.2964,774.184587 2249.83299,774.507129 2250.26304,774.507129 L2256.56351,774.507129 C2257.18307,774.507129 2260.31918,774.949833 2260.77384,774.507129 C2261,774.305653 2260.80117,773.039882 2260.80117,772.747155 L2260.80117,767.36243 L2260.80117,754.655022 C2260.80117,753.880742 2261.19296,751.810876 2260.80117,751.12333 C2260.47863,750.558656 2260.48956,750.792657 2259.56932,750.735738 C2255.8264,750.501737 2251.5942,751.465747 2247.92873,750.735738 C2246.68777,750.488185 2247.11782,750.857707 2247.00575,749.57477 C2246.87091,748.024402 2247.00575,746.39995 2247.00575,744.845969 L2247.00575,726.892972 L2247.00575,675.60347 L2247.00575,636.67444 C2247.00575,636.195597 2246.68503,634.169098 2247.00575,633.783313 C2247.67088,632.982832 2252.9199,633.672185 2254.19366,633.664054 C2256.77215,633.650502 2259.13836,632.92501 2260.29823,630.401598 C2261.25583,628.310048 2260.80117,625.449639 2260.80117,623.246057 L2260.80117,602.028797 L2260.80117,556.842284 L2260.80117,484.266856 C2260.80117,482.112967 2261.21756,479.415183 2260.17431,477.416692 C2258.75204,474.691804 2256.13619,474.403595 2253.37273,474.403595 C2252.13724,474.403595 2247.55334,475.015249 2247.00302,474.192181 C2246.6413,473.653709 2247.00302,471.630823 2247.00302,471.005617 L2247.00302,455.287822 L2247.00302,362.716636 C2247.00302,361.31715 2246.74335,359.636682 2247.00302,358.258879 C2247.23627,357.022922 2246.86362,357.324683 2248.5811,357.324683 L2254.44604,357.324683 C2256.04325,357.324683 2258.48235,357.791781 2260.01304,357.324683 C2261.08089,356.998528 2260.4103,357.59934 2260.80117,356.770852 C2261.24854,355.824911 2260.80117,353.578867 2260.80117,352.548902 L2260.80117,339.716815 C2260.80117,338.616379 2261.37974,334.087248 2260.5579,333.553292 C2259.78799,333.050056 2256.9562,333.553292 2256.05236,333.553292 L2249.37013,333.553292 C2247.46041,333.553292 2247.28729,334.074599 2247.00575,332.610062 C2246.69324,330.977479 2247.00575,328.972663 2247.00575,327.312975 L2247.00575,318.316148 L2247.00575,294.164393 L2247.00575,248.549632 C2247.00575,247.60098 2246.54837,245.241098 2247.00575,244.384601 C2247.55608,243.355541 2250.66303,243.959064 2252.02972,243.959064 C2251.97232,221.295336 2252.48255,198.441878 2250.14824,175.863077 C2248.07724,155.823047 2242.58677,136.213072 2226.3559,122.858775 C2218.34525,116.268811 2208.96243,111.43069 2199.34728,107.583684 C2190.11207,103.889365 2180.16799,100.466993 2170.18839,99.5761649 C2166.35526,99.233747 2159.23023,98.9518621 2157.1975,103.185557 C2154.77025,108.246836 2163.82506,112.280863 2166.96116,113.93784 C2184.63709,123.268953 2201.62055,135.742361 2209.75694,154.46241 C2210.72182,156.684061 2211.56826,158.955403 2212.31357,161.25927 C2208.28364,161.25927 2205.14662,161.082188 2202.02691,163.933563 C2200.19098,165.613127 2198.78329,167.729974 2197.6052,169.897416 C2193.78939,176.923759 2192.03273,185.051441 2190.99768,192.899948 C2188.85744,209.130918 2189.45514,227.629615 2196.01892,242.883022 C2197.99425,247.47088 2201.32261,253.756371 2206.8149,254.710443 C2209.04261,255.098939 2211.48535,254.81615 2213.7322,254.81615 C2214.15678,254.81615 2216.5895,254.51981 2216.84371,254.81615 C2216.94849,254.939023 2216.79997,255.435936 2216.84371,255.582299 C2217.27467,257.057677 2216.84371,259.323598 2216.84371,260.846861 L2216.84371,269.936746 L2216.84371,307.214219 C2216.84371,309.378951 2216.24418,308.743806 2214.10485,308.743806 L2200.77684,308.743806 L2127.0555,308.743806 L2125.40635,308.743806 C2133.10449,303.150378 2140.80171,297.559661 2148.49803,291.966233 C2153.26141,288.505915 2158.02845,285.041983 2162.79183,281.581665 C2164.57765,280.283368 2166.65138,279.071805 2168.18026,277.450063 C2170.58017,274.899547 2170.91182,271.856635 2170.91182,268.550812 L2170.91182,243.064621 L2170.91182,168.283806 C2170.91182,160.981902 2173.06756,149.759811 2163.79225,146.883139 C2161.91533,146.302203 2159.97553,146.424173 2158.03574,146.424173 L2148.33038,146.424173 C2147.09215,146.424173 2145.84299,146.475671 2144.6075,146.424173 C2143.35834,146.372675 2143.64079,146.687988 2143.30823,145.717654 C2142.70324,143.952259 2143.1661,141.146058 2142.98296,139.244239 C2142.79071,137.243037 2142.50826,135.248159 2142.11738,133.276771 C2141.40215,129.69087 2140.32519,126.164598 2138.76352,122.847933 C2132.28811,109.097009 2118.34418,102.773571 2103.74515,101.249405 C2097.0119,100.545596 2090.16293,100.779597 2083.40144,100.779597 L2043.92855,100.779597 L1982.70427,100.779597 L1907.20713,100.779597 L1824.91934,100.779597 L1743.31854,100.779597 L1669.88784,100.779597 L1612.10672,100.779597 L1577.45462,100.779597 L1565.38762,100.779597 L1510.26334,100.779597 L1429.06891,100.779597 L1363.44478,100.779597 L1354.22414,100.779597 C1352.7882,100.779597 1350.58236,101.200617 1349.19926,100.779597 C1349.04892,100.732616 1348.58607,100.882593 1348.46489,100.779597 C1347.88723,100.281781 1348.57787,97.2641665 1348.39929,96.2649206 C1348.07401,94.4471243 1346.74741,92.9319929 1344.93426,92.4405012 C1341.97856,91.6418273 1338.26661,92.271551 1335.25806,92.271551 L1320.89501,92.271551 C1321.94736,81.2726185 1319.09006,69.8309821 1316.28742,59.272043 C1313.66337,49.3807736 1311.19785,37.8587277 1305.29373,29.2793074 C1302.71888,25.536201 1298.18509,22.8257691 1293.51464,24.5116577 C1290.58354,25.5714366 1291.78805,29.8774094 1292.17528,32.2002495 C1293.03174,37.3663326 1294.22715,42.4971801 1295.46446,47.5855642 C1298.7828,61.2109052 1302.03917,74.8507019 1305.52698,88.4362899 C1305.8559,89.7156137 1306.18482,90.9922271 1306.51009,92.271551 L1281.94056,92.271551 L1223.92345,92.271551 L1156.26112,92.271551 L1101.88033,92.271551 L1087.19929,92.271551 C1085.46814,92.271551 1083.35068,91.9779209 1081.748,92.7738843 C1080.29566,93.4966662 1079.39182,94.8627238 1079.14217,96.4275465 C1078.99183,97.380715 1079.6852,100.225765 1079.1039,100.779597 C1078.98636,100.890724 1078.44697,100.735326 1078.29117,100.779597 C1076.63109,101.252115 1074.1018,100.779597 1072.38978,100.779597 L1061.82432,100.779597 L997.596947,100.779597 C984.241604,100.779597 970.887173,100.732616 957.532741,100.779597 C944.385136,100.822964 930.761921,102.985888 919.565956,110.232679 C908.415548,117.449656 901.544717,128.984351 898.198137,141.569789 C897.923887,142.604271 897.661481,145.892025 896.927111,146.426883 C896.009603,147.056607 892.344127,146.409717 891.160569,146.409717 Z M906.25236,960.7925 L923.585124,960.7925 L960.197387,960.7925 L1010.67203,960.7925 L1070.31502,960.7925 L1133.5068,960.7925 L1195.66275,960.7925 L1251.14693,960.7925 L1295.30176,960.7925 L1322.64903,960.7925 C1324.36508,960.7925 1326.87349,961.259375 1328.53756,960.7925 C1328.86308,960.699305 1329.03632,960.835025 1329.26154,960.666733 C1330.2536,959.926608 1330.86817,956.26489 1331.28943,955.105844 C1331.85931,953.545068 1332.43011,951.982481 1333,950.421705 C1329.3354,949.2328 1325.66624,948.043896 1322.00164,946.852277 C1307.9724,942.298428 1293.92856,938.090213 1279.43064,935.252766 C1265.15247,932.457845 1250.66093,930.765873 1236.11651,930.211231 C1229.34899,929.953364 1222.57691,930.004033 1215.80483,930.004033 L1178.76128,930.004033 L1122.09994,930.004033 L1055.41954,930.004033 L987.648606,930.004033 L927.908058,930.004033 L885.31791,930.004033 L869,930.004033 C870.551916,931.313275 872.103831,932.621613 873.655747,933.929951 C884.27023,942.883832 894.885626,951.835904 905.501933,960.78888 C905.753595,960.78888 906.005257,960.78888 906.25236,960.7925 Z M544.501995,949.241089 C546.076325,952.433145 549.510482,951.977531 552.444793,951.977531 L573.005036,951.977531 L652.026205,951.977531 L748.420647,951.977531 L822.604809,951.977531 C828.081216,951.977531 833.561272,952.000495 839.03768,951.977531 C842.336842,951.967426 845.625058,949.973195 844.898093,946.125274 C844.245922,942.667749 839.50104,940.073687 837.134072,938.046387 C834.672243,935.936415 832.257844,933.741933 829.732165,931.709122 C828.824599,930.979771 827.987267,930.422195 826.8088,930.242154 C823.383765,929.723157 819.562867,930.199899 816.118677,930.199899 L746.470521,930.199899 L650.349716,930.199899 L575.362884,930.199899 C570.490304,930.199899 565.566645,929.999649 560.693153,930.199899 C559.152571,930.264199 558.01971,930.661943 556.84033,931.714633 C552.770422,935.348525 549.164786,939.679617 545.3749,943.612047 C543.945598,945.098305 543.588956,947.3874 544.501995,949.241089 Z M900.845998,151.002286 C890.229753,159.961747 879.615333,168.923019 869,177.88248 C869.337371,177.88248 869.691155,177.849881 870.024878,177.88248 C872.69558,178.1469 875.527673,177.88248 878.206581,177.88248 L893.454838,177.88248 L941.198304,177.88248 L1003.72956,177.88248 L1072.07272,177.88248 L1137.35127,177.88248 L1189.8927,177.88248 L1220.85332,177.88248 C1229.42528,177.88248 1237.98448,177.730349 1246.5382,177.084695 C1260.99227,175.992608 1275.35242,173.771307 1289.46182,170.482367 C1304.24414,167.035864 1318.58332,162.132338 1333,157.449765 C1332.43012,155.885889 1331.86023,154.323824 1331.28944,152.760854 C1330.86727,151.606284 1330.26456,148.026665 1329.28527,147.26963 C1328.70171,146.817763 1327.22366,147.07041 1326.39573,147.07041 L1317.83654,147.07041 L1285.84557,147.07041 L1238.60998,147.07041 L1180.85389,147.07041 L1118.17765,147.07041 L1055.17134,147.07041 L997.481815,147.07041 L949.741084,147.07041 L917.462887,147.07041 L905.498982,147.07041 C903.946164,148.379828 902.394257,149.690151 900.845998,151.002286 Z M556.763243,176.325841 C559.143057,178.511084 562.349285,177.929942 565.350277,177.929942 L588.944096,177.929942 L673.338564,177.929942 L767.449314,177.929942 L823.670942,177.929942 C824.64786,177.929942 825.689542,178.032604 826.663724,177.907943 C827.784764,177.764948 828.618474,177.31305 829.502353,176.637495 C832.008957,174.714407 834.3459,172.501665 836.747606,170.447499 C838.908502,168.604158 841.283756,166.856147 843.29962,164.850562 C844.056709,164.09526 844.633191,163.29596 844.875825,162.231753 C845.375686,160.074009 844.331268,157.787019 842.375606,156.761312 C839.94015,155.482614 835.908422,156.201251 833.316988,156.201251 L808.905878,156.201251 L725.798461,156.201251 L629.972858,156.201251 L561.022098,156.201251 C557.043275,156.201251 552.984182,155.973011 549.007183,156.201251 C544.838632,156.441408 542.26088,161.26196 545.382277,164.549908 C549.152216,168.455664 552.761616,172.662991 556.763243,176.325841 Z M441.826929,248.523237 C438.934084,243.494967 434.631159,239.31498 429.508715,236.556026 C427.329088,235.382523 425.037707,234.518881 422.660923,233.839532 C416.698064,232.133028 410.717943,230.490664 404.746908,228.813972 C395.780361,226.298934 386.811996,223.783895 377.843632,221.268857 C374.057676,220.20647 369.687517,218.19462 365.70713,218.008521 C360.541076,217.770026 360.011387,222.586 360.011387,226.391983 L360.011387,249.6859 L360.011387,291.017811 L360.011387,343.595123 L360.011387,401.184444 L360.011387,457.650851 L360.011387,506.059017 L360.011387,540.293894 L360.011387,553.973029 L360.011387,565.563526 L360.011387,598.23102 L360.011387,645.883952 L360.011387,701.669203 L360.011387,759.394033 L360.011387,812.902741 L360.011387,855.286197 L360.011387,880.422127 C360.011387,884.094409 359.563469,888.837207 364.286147,889.866169 C367.351618,890.534678 371.446483,888.521924 374.276638,887.728748 C382.831609,885.330246 391.385671,882.929939 399.941551,880.531437 C407.032837,878.539462 414.124123,876.5511 421.216317,874.563642 C423.601279,873.895133 425.941721,873.191392 428.182222,872.119068 C433.432772,869.604029 437.931037,865.626402 441.059198,860.737254 C444.111041,855.970967 445.807316,850.414214 445.965405,844.767121 C446.036273,842.270151 445.976308,839.763243 445.976308,837.264465 L445.976308,816.917407 L445.976308,785.165046 L445.976308,744.011104 L445.976308,695.294882 L445.976308,641.546776 L445.976308,584.628674 L445.976308,526.346452 L445.976308,469.322653 L445.976308,415.360444 L445.976308,366.321711 L445.976308,324.742272 L445.976308,292.455105 L445.976308,271.463929 L445.976308,264.047998 C445.976308,258.624043 444.534428,253.233514 441.826929,248.523237 Z M1387.86872,187.761103 C1385.13092,183.85352 1381.04797,181.198459 1376.3066,180.365251 C1366.1499,178.579547 1355.1777,183.766765 1345.79084,186.729082 C1336.18298,189.758272 1326.67739,192.527198 1319.35803,199.790207 C1312.67152,206.422435 1309.11366,215.31029 1307.75664,224.469254 C1306.81786,230.814107 1307.01785,237.247523 1307.01785,243.641175 L1307.01785,278.881723 L1307.01785,333.040253 L1307.01785,396.19689 L1307.01785,459.367081 L1307.01785,512.556849 L1307.01785,546.608132 L1307.01785,555.884577 L1307.01785,581.271218 L1307.01785,629.238524 L1307.01785,689.925358 L1307.01785,754.060697 L1307.01785,812.429549 L1307.01785,855.083119 C1307.01785,861.005946 1306.99411,866.931484 1307.01785,872.858829 C1307.05712,882.762439 1308.67624,892.962461 1314.00024,901.520467 C1318.64938,908.995844 1325.83724,914.340305 1334.0479,917.497821 C1341.03485,920.185414 1348.37156,922.124747 1355.51011,924.376758 C1360.26792,925.880509 1365.00839,927.529755 1370.02738,927.917441 C1375.6226,928.349408 1381.23701,927.132129 1385.38936,923.178457 C1390.54077,918.275 1392.4512,910.821311 1393.33792,904.042684 C1393.99178,899.027168 1394,893.986349 1394,888.942819 L1394,870.836356 L1394,839.679613 L1394,797.833043 L1394,747.055242 L1394,689.870232 L1394,628.178488 L1394,563.796439 L1394,499.36288 L1394,436.448435 L1394,377.678341 L1394,324.880778 L1394,279.974292 L1394,245.435013 L1394,223.082984 L1394,215.209076 C1393.94521,206.054631 1393.33062,195.544641 1387.86872,187.761103 Z M218.341478,754 L251.191308,754 C256.661565,754 261.868986,753.481001 266.909397,751.18077 C277.951212,746.14359 284.843333,735.090004 284.964712,723.134047 C285.04411,715.162806 284.964712,707.183428 284.964712,699.213092 L284.964712,643.585297 L284.964712,570.341386 L284.964712,494.146235 L284.964712,429.69908 L284.964712,391.093356 C284.964712,382.641092 284.157954,374.713252 278.845581,367.626298 C275.056374,362.569226 269.702934,358.739124 263.668677,356.762589 C258.274168,354.995824 252.77562,355.208306 247.180334,355.208306 L211.604502,355.208306 C204.882128,355.208306 197.799268,354.590752 191.105185,355.482272 C178.273719,357.195691 167.616119,366.960823 164.900156,379.503591 C163.423533,386.313866 164.208388,393.939711 164.208388,400.8395 L164.208388,450.181443 L164.208388,520.305937 L164.208388,596.85643 L164.208388,665.464616 L164.208388,711.878829 C164.208388,719.0562 163.531223,726.64859 165.995302,733.523966 C170.346684,745.667992 182.244538,753.975587 195.245752,753.992767 C202.941893,753.992767 210.641685,753.992767 218.341478,754 Z M293.260341,250.930352 L313.208144,250.930352 L324.67091,250.930352 C326.27702,250.930352 326.437268,251.358036 326.71793,250.093774 C327.164273,248.078829 326.71793,245.46978 326.71793,243.410993 L326.71793,231.808956 L326.71793,204.573201 L326.71793,193.931215 C326.71793,192.83069 327.352588,189.322431 326.71793,188.389222 C326.285168,187.753959 323.832547,188.136012 322.920849,188.136012 L310.260291,188.136012 L297.607881,188.136012 C296.758653,188.136012 293.72117,187.730696 293.260341,188.319432 C292.674573,189.070116 293.260341,192.537216 293.260341,193.451636 L293.260341,204.099886 L293.260341,249.951511 L293.260341,250.930352 Z M289.547137,259 C292.441909,258.97583 293.867112,256.687718 293.93181,254.163276 C294.085237,248.147583 293.93181,242.110405 293.93181,236.094712 L293.93181,186.850179 C293.93181,184.387505 293.528835,181.82994 290.597093,181.130795 C287.673669,180.43344 285.361179,182.624871 285.164312,185.322086 C284.79461,190.36739 285.164312,195.571143 285.164312,200.628085 L285.164312,229.303783 L285.164312,251.824138 C285.164312,254.310982 284.814019,257.13979 287.509151,258.51212 C288.134873,258.833494 288.838232,259 289.547137,259 Z M328,497.000278 L315.510136,497.000278 C312.633548,497.000278 311.029794,496.954118 308.448075,498.050435 C300.629893,501.366316 292.814484,504.683158 285,508 L328,497.000278 Z M284.771173,208.01449 L279.964995,208.01449 C273.989747,208.01449 268.011792,207.981888 262.037446,208.01449 C259.439512,208.028074 256.892093,208.300665 254.388875,209.035122 C248.897131,210.649841 244.047654,214.154585 240.774077,218.868331 C237.744958,223.229791 236.292641,228.342915 236.244831,233.630823 C236.169058,242.091113 236.244831,250.556837 236.244831,259.019845 C236.244831,279.725007 235.690966,300.511675 236.249342,321.210497 C236.569573,333.012521 245.129225,343.310312 256.718897,345.545379 C259.002012,345.986416 261.286029,346 263.597108,346 L279.601465,346 L310,346 L284.771173,208.01449 Z M1465,461.5 L1529,461.5 L1465,461.5 Z M1465,470.5 L1529,470.5 L1465,470.5 Z M1465,481.5 L1529,481.5 L1465,481.5 Z M1465,491.5 L1529,491.5 L1465,491.5 Z M1465,500.5 L1529,500.5 L1465,500.5 Z M1465,510.5 L1529,510.5 L1465,510.5 Z M1465,520.5 L1529,520.5 L1465,520.5 Z M1465,529.5 L1529,529.5 L1465,529.5 Z M1465,539.5 L1529,539.5 L1465,539.5 Z M1465,549.5 L1529,549.5 L1465,549.5 Z M1553.10812,372.918063 C1561.12398,372.918063 1569.03553,373.401273 1576.92787,372.020801 C1589.02165,369.909226 1601.11177,367.797652 1613.20555,365.683383 C1617.57352,364.919049 1621.94148,364.1619 1626.30761,363.393074 C1628.44218,363.017644 1630.37638,362.444617 1631.66646,360.565666 C1633.22553,358.28883 1632.72871,355.240475 1632.72871,352.664552 C1632.72871,349.125801 1633.4625,344.862235 1632.51644,341.389948 C1630.97842,335.745909 1622.10068,335.988413 1617.52319,335.189948 C1605.15584,333.028975 1592.78666,330.865307 1580.41931,328.705232 C1577.58572,328.211244 1574.67801,327.460382 1571.80874,327.200814 C1567.25321,326.790355 1562.46712,327.200814 1557.89696,327.200814 C1552.66803,327.200814 1542.92109,325.348808 1542.14979,332.893353 C1541.82041,336.133915 1542.13698,339.547821 1542.13698,342.799161 L1542.13698,361.367723 C1542.13698,365.960914 1541.63284,372.912674 1548.36411,372.918063 L1553.10812,372.918063 Z M2098.2714,540.882855 L2109.56321,540.882855 C2110.16957,540.882855 2112.3763,541.216868 2112.72708,540.756884 C2113.34115,539.953342 2112.72708,535.589215 2112.72708,534.545184 C2112.72708,533.501152 2113.34115,529.137025 2112.72708,528.333483 C2112.3763,527.873499 2110.16957,528.206558 2109.56321,528.206558 L2102.32293,528.206558 C2101.76546,528.206558 2098.67707,527.741802 2098.2714,528.206558 C2097.66075,528.912759 2098.2714,533.566046 2098.2714,534.545184 L2098.2714,540.882855 Z M2098.2714,500.882658 L2109.56321,500.882658 C2110.16957,500.882658 2112.3763,501.216666 2112.72708,500.757643 C2113.34115,499.954114 2112.72708,495.590053 2112.72708,494.545084 C2112.72708,493.501068 2113.34115,489.137008 2112.72708,488.333478 C2112.3763,487.874455 2110.16957,488.206555 2109.56321,488.206555 L2102.32293,488.206555 C2101.76546,488.206555 2098.67707,487.741806 2098.2714,488.206555 C2097.66075,488.91179 2098.2714,493.565961 2098.2714,494.545084 L2098.2714,500.882658 Z M2098.2714,461.883461 L2109.56321,461.883461 C2110.16957,461.883461 2112.3763,462.216522 2112.72708,461.756535 C2113.34115,460.953943 2112.72708,456.588836 2112.72708,455.544798 C2112.72708,454.500761 2113.34115,450.136608 2112.72708,449.333061 C2112.3763,448.873074 2110.16957,449.206135 2109.56321,449.206135 L2102.32293,449.206135 C2101.76546,449.206135 2098.67707,448.742331 2098.2714,449.206135 C2097.66075,449.91234 2098.2714,454.56661 2098.2714,455.544798 L2098.2714,461.883461 Z M2098.2714,423.883456 L2109.56321,423.883456 C2110.16957,423.883456 2112.3763,424.216531 2112.72708,423.756525 C2113.34115,422.953901 2112.72708,418.588615 2112.72708,417.545489 C2112.72708,416.500455 2113.34115,412.136124 2112.72708,411.332545 C2112.3763,410.872539 2110.16957,411.206568 2109.56321,411.206568 L2102.32293,411.206568 C2101.76546,411.206568 2098.67707,410.74179 2098.2714,411.206568 C2097.66075,411.911847 2098.2714,416.566306 2098.2714,417.545489 L2098.2714,423.883456 Z M2106.5,528 L2106.5,500 L2106.5,528 Z M2106.5,488 L2106.5,462 L2106.5,488 Z M2106.5,449 L2106.5,423 L2106.5,449 Z M2157.15809,356.920439 L2214.39004,356.920439 L2247.50979,356.920439 L2257.7424,356.920439 C2258.93657,356.920439 2260.27422,357.284931 2260.71102,356.453601 C2261.36123,355.220073 2260.71102,351.935152 2260.71102,350.555288 L2260.71102,341.407067 C2260.71102,340.085557 2261.45839,333.925097 2260.44313,333.298457 C2259.35702,332.626929 2255.65193,333.298457 2254.41145,333.298457 L2242.06203,333.298457 L2172.45342,333.298457 L2161.09294,333.298457 C2160.34466,333.298457 2156.73764,332.76698 2156.14464,333.298457 C2155.83951,333.574071 2156.11195,335.611996 2156.11195,336.035741 L2156.11195,344.036619 L2156.11195,356.920439 L2157.15809,356.920439 Z M2246.5,244 L2246.5,333 L2246.5,244 Z M2213.35217,254.846477 C2213.90096,254.846477 2216.57953,255.20989 2216.90809,254.818453 C2217.03432,254.666579 2216.88839,253.944274 2216.90809,253.753528 C2217.11489,251.771936 2216.90809,249.65203 2216.90809,247.658685 L2216.90809,224.011564 L2216.90809,169.849549 L2216.90809,162.975449 C2216.90809,161.162907 2217.21695,161.227995 2215.2492,161.227995 C2213.8177,161.227995 2208.84372,160.521059 2208.24032,161.596832 C2207.6996,162.565028 2208.24032,165.459671 2208.24032,166.547197 L2208.24032,217.997178 L2208.24032,254.842861 C2209.94398,254.842861 2211.64584,254.842861 2213.35217,254.846477 Z M2208,161 C2202.49933,161.041755 2198.9071,166.928329 2196.8157,171.3217 C2193.43542,178.426436 2191.81864,186.370814 2190.90835,194.14454 C2189.05064,209.987002 2189.72362,227.809205 2195.93893,242.704913 C2197.98141,247.601163 2201.75571,254.901058 2207.90218,255 L2208,161 Z M2228.14257,244 L2252,244 L2251.98347,236.945631 C2251.92284,213.857614 2252.55023,190.367217 2249.06145,167.470423 C2247.68909,158.45127 2245.43764,149.456586 2241.28749,141.263041 C2236.45942,131.733661 2229.04921,124.074813 2220.15825,118.124274 C2211.52265,112.341395 2201.89682,108.074698 2192.0735,104.677109 C2183.62437,101.75531 2174.15103,98.6305066 2165.07268,99.0356072 C2161.59584,99.1914849 2154.82956,100.646041 2156.17436,105.455591 C2156.7494,107.504657 2158.7069,109.038964 2160.38882,110.22164 C2164.35526,113.009313 2168.94818,114.891626 2173.1213,117.366636 C2182.03339,122.647445 2190.90139,128.873488 2197.90558,136.508773 C2204.38251,143.565861 2209.02319,151.994129 2211.95806,161.039564 L2228.14257,244 Z M556.761323,176.279305 C559.204767,178.554666 562.704393,177.918041 565.799969,177.918041 L589.331462,177.918041 L672.280884,177.918041 L765.140896,177.918041 L822.597869,177.918041 C823.788124,177.918041 825.015775,178.00323 826.206031,177.918041 C829.08271,177.71194 831.024514,175.337649 833.104041,173.561512 C835.922348,171.151497 838.744303,168.74423 841.563522,166.336963 C842.588692,165.46126 843.809046,164.632274 844.451146,163.404824 C845.657819,161.098319 844.807767,158.15702 842.558594,156.857205 C840.120622,155.44747 835.867624,156.201344 833.234468,156.201344 L809.270653,156.201344 L728.221079,156.201344 L633.982013,156.201344 L563.726827,156.201344 C558.974013,156.201344 554.199309,156.067607 549.450143,156.201344 C545.213562,156.323173 542.043195,160.988398 545.419691,164.544337 C549.183817,168.441948 552.795628,172.595124 556.761323,176.279305 Z M891,147 C890.969936,130.100363 884.03691,114.909483 868.472677,107.174916 C856.434175,101.191072 842.551724,100.012367 829.316113,100.003244 C818.666038,99.9959453 808.01323,100.003244 797.363155,100.003244 L732.394964,100.003244 L650.728293,100.003244 L567.584824,100.003244 L500.006498,100.003244 L463.285149,100.003244 C451.163742,100.003244 438.990405,100.79148 427.321786,104.310261 C411.014143,109.229439 397.359453,119.742903 390.604991,135.665456 C389.054399,139.321996 387.880066,143.129979 387,147 L891,147 Z M1079,101.129845 L1044.77201,101.129845 L983.966881,101.129845 C973.521309,101.129845 963.001041,100.774861 952.557291,101.238792 C940.194222,101.78988 927.54148,104.676057 917.408354,112.067177 C907.460147,119.323929 901.305941,130.231301 898.175093,141.95214 C897.72874,143.622655 897.353439,145.307696 897,147 L1079,101.129845 Z M1364.046,146.649 L1364.954,146.351 L1364.046,146.649 Z M2113.42174,318 C2118.9461,313.983881 2124.47046,309.970471 2129.99573,305.954352 C2139.53383,299.0221 2149.0692,292.092556 2158.60821,285.163915 C2162.0574,282.656889 2167.16017,280.099289 2169.46571,276.317074 C2171.10016,273.636651 2170.9308,270.736773 2170.9308,267.73936 L2170.9308,243.1351 L2170.9308,172.900431 C2170.9308,167.653377 2171.0865,162.382842 2170.9308,157.137593 C2170.82973,153.800611 2169.38376,150.734561 2166.55283,148.793783 C2163.59261,146.764501 2160.26725,147.009243 2156.87724,147.009243 L2136.31136,147.009243 L2100.31243,147.009243 L2051.38084,147.009243 L1992.24279,147.009243 L1924.96527,147.009243 L1852.2426,147.009243 L1776.57427,147.009243 L1700.45613,147.009243 L1626.6499,147.009243 L1556.87562,147.009243 L1494.61618,147.009243 L1441.65719,147.009243 L1400.73487,147.009243 L1374.34961,147.009243 L1365,147.009243 L2113.42174,318 Z M1571,100.146404 L1543.70155,100.146404 L1480.49876,100.146404 L1409.66668,100.146404 L1358.73815,100.146404 L1352.32984,100.146404 C1351.82474,100.146404 1349.79795,99.8169956 1349.38551,100.146404 C1348.61241,100.760508 1349.24106,105.72444 1349.24106,106.788401 L1349.24106,123.587297 L1349.24106,127 L1571,100.146404 Z M1309.33261,100.770146 C1309.88883,102.249106 1310.49716,104.100492 1312.35543,103.995748 C1314.53358,103.873993 1316.76745,101.655552 1317.97514,100.049466 C1320.44444,96.7629864 1320.9126,92.4505454 1320.98808,88.4720344 C1321.26664,73.6886966 1316.61649,58.2759949 1312.02924,44.364635 C1309.843,37.7352753 1306.69887,25.0898053 1297.94491,24.0799582 C1296.59435,23.924184 1294.92748,23.9644704 1293.65509,24.4864038 C1291.96037,25.1838071 1291.9442,26.6941014 1292.02507,28.3359982 C1292.34227,34.645752 1294.24905,41.1032228 1295.71374,47.2240779 C1299.63334,63.5929115 1303.40737,80.0306796 1307.91195,96.2535866 C1308.34956,97.7701478 1308.77908,99.2956614 1309.33261,100.770146 Z M1314,104.738319 C1318.86229,118.051396 1323.72457,131.364472 1328.58596,144.677549 C1330.58972,150.165848 1332.39429,155.784351 1334.61899,161.192732 C1335.5335,163.416966 1337.38516,165.042264 1339.9168,164.999163 C1341.39269,164.974918 1342.87583,164.294268 1344.25121,163.848883 C1348.5494,162.461543 1352.84578,161.075998 1357.14397,159.688658 C1360.44163,158.624582 1365.57284,158.049891 1366.76532,154.161747 C1367.63908,151.318822 1365.91329,149.342424 1364.21737,147.325618 C1359.76345,142.025889 1355.30952,136.723466 1350.85559,131.42284 C1340.85938,119.527633 1330.86498,107.632427 1320.86877,95.7363229 C1320.66142,95.4911812 1320.4577,95.2451416 1320.25035,95 L1314,104.738319 Z M1349,100 C1349,95.9519165 1349.08875,91.4943502 1343.99945,91.1961196 C1336.38541,90.7548505 1328.6307,91.1961196 1321,91.1961196 L1349,100 Z M1306,92.2299374 L1270.26618,92.2299374 L1192.76261,92.2299374 L1115.97535,92.2299374 L1091.77889,92.2299374 C1088.96,92.2299374 1085.28117,91.5948931 1082.51591,92.4355273 C1080.43879,93.0678305 1079.28523,94.8898139 1079.12161,96.9831759 C1078.84799,100.526632 1079.12161,104.199838 1079.12161,107.74969 L1079.12161,144.382155 L1079.12161,147 L1306,92.2299374 Z M905.501933,147 C894.885626,156.015491 884.27023,165.02916 873.655747,174.04374 C872.103831,175.36108 870.551916,176.678421 869,177.995761 L885.31791,177.995761 L927.908058,177.995761 L987.648606,177.995761 L1055.41954,177.995761 L1122.09994,177.995761 L1178.76128,177.995761 L1215.80483,177.995761 C1222.57691,177.995761 1229.34899,178.047689 1236.11651,177.788048 C1250.66093,177.22959 1265.15247,175.525065 1279.43064,172.712734 C1293.92856,169.855764 1307.9724,165.617681 1322.00164,161.032499 C1325.66624,159.835414 1329.3354,158.635595 1333,157.43851 L905.501933,147 Z M1333,950.561737 C1329.3354,949.36468 1325.66624,948.167623 1322.00164,946.967833 C1307.9724,942.382759 1293.92856,938.145687 1279.43064,935.288784 C1265.15247,932.474698 1250.66093,930.771124 1236.11651,930.21268 C1229.34899,929.953044 1222.57691,930.00406 1215.80483,930.00406 L1178.76128,930.00406 L1122.09994,930.00406 L1055.41954,930.00406 L987.648606,930.00406 L927.908058,930.00406 L885.31791,930.00406 L869,930.00406 C870.551916,931.322281 872.103831,932.63959 873.655747,933.956899 C884.27023,942.972177 894.885626,951.985633 905.501933,961 L1333,950.561737 Z M1079.12161,961 L1079.12161,963.617864 L1079.12161,1000.25059 C1079.12161,1003.80047 1078.84799,1007.4737 1079.12161,1011.01718 C1079.28523,1013.11147 1080.43879,1014.93256 1082.51591,1015.56486 C1085.28117,1016.40459 1088.96,1015.77046 1091.77889,1015.77046 L1115.97535,1015.77046 L1192.76261,1015.77046 L1270.26618,1015.77046 L1306,1015.77046 L1079.12161,961 Z M1321,1016.80388 C1328.6307,1016.80388 1336.38541,1017.24515 1343.99945,1016.80388 C1349.08875,1016.50939 1349,1012.04808 1349,1008 L1321,1016.80388 Z M1320.25035,1014 C1320.4577,1013.75306 1320.66142,1013.50792 1320.86877,1013.26188 C1330.86498,1001.36668 1340.85938,989.470583 1350.85559,977.575383 C1355.30952,972.275657 1359.76345,966.973237 1364.21737,961.67351 C1365.91329,959.656705 1367.63908,957.680308 1366.76532,954.837384 C1365.57284,950.95014 1360.44163,950.374552 1357.14397,949.311374 C1352.84578,947.923137 1348.5494,946.538491 1344.25121,945.150254 C1342.87583,944.704868 1341.39269,944.024219 1339.9168,944.000872 C1337.38516,943.956873 1335.5335,945.58217 1334.61899,947.8073 C1332.39429,953.213883 1330.58972,958.833281 1328.58596,964.322476 C1323.72457,977.635546 1318.86229,990.947718 1314,1004.26079 L1320.25035,1014 Z M1307.91195,1011.74794 C1303.40737,1027.9712 1299.63334,1044.40842 1295.71374,1060.7767 C1294.24905,1066.89735 1292.34227,1073.35461 1292.02507,1079.66415 C1291.9442,1081.30599 1291.96037,1082.81623 1293.65509,1083.51361 C1294.92748,1084.03553 1296.59435,1084.07581 1297.94491,1083.92004 C1306.69887,1082.91023 1309.843,1070.26519 1312.02924,1063.63515 C1316.61649,1049.72426 1321.26664,1034.31297 1320.98808,1019.53013 C1320.9126,1015.55086 1320.44444,1011.23677 1317.97514,1007.9504 C1316.76745,1006.34347 1314.53358,1004.126 1312.35543,1004.00425 C1310.49716,1003.89951 1309.88883,1005.75084 1309.33261,1007.22975 C1308.77908,1008.70687 1308.34956,1010.23322 1307.91195,1011.74794 Z M1349.24106,981 L1349.24106,984.411224 L1349.24106,1001.21091 C1349.24106,1002.27589 1348.61241,1007.2385 1349.38551,1007.85358 C1349.79795,1008.18302 1351.82474,1007.85358 1352.32984,1007.85358 L1358.73815,1007.85358 L1409.66668,1007.85358 L1480.49876,1007.85358 L1543.70155,1007.85358 L1571,1007.85358 L1349.24106,981 Z M1365,960.990751 L1374.34961,960.990751 L1400.73487,960.990751 L1441.65719,960.990751 L1494.61618,960.990751 L1556.87562,960.990751 L1626.6499,960.990751 L1700.45613,960.990751 L1776.57427,960.990751 L1852.2426,960.990751 L1924.96527,960.990751 L1992.24279,960.990751 L2051.38084,960.990751 L2100.31243,960.990751 L2136.31136,960.990751 L2156.87724,960.990751 C2160.26725,960.990751 2163.59261,961.235489 2166.55283,959.207142 C2169.38376,957.265491 2170.82973,954.19949 2170.9308,950.862561 C2171.0865,945.616493 2170.9308,940.346042 2170.9308,935.100877 L2170.9308,864.866421 L2170.9308,840.262551 C2170.9308,837.265185 2171.10016,834.365353 2169.46571,831.684973 C2167.16017,827.903722 2162.0574,825.345259 2158.60821,822.836466 C2149.0692,815.90613 2139.53383,808.977599 2129.99573,802.045456 C2124.47046,798.028498 2118.9461,794.016055 2113.42174,790 L1365,960.990751 Z M1364.046,961.3515 L1364.954,961.6485 L1364.046,961.3515 Z M897,961 C897.353439,962.69143 897.72874,964.375596 898.175093,966.046143 C901.305941,977.768122 907.460147,988.676617 917.408354,995.931697 C927.54148,1003.32478 940.194222,1006.2101 952.557291,1006.7612 C963.001041,1007.22514 973.521309,1006.87015 983.966881,1006.87015 L1044.77201,1006.87015 L1079,1006.87015 L897,961 Z M387,961 C387.880066,964.873712 389.054399,968.678087 390.604991,972.334666 C397.359453,988.258303 411.014143,998.771881 427.321786,1003.6902 C438.990405,1007.20902 451.163742,1007.99635 463.285149,1007.99635 L500.006498,1007.99635 L567.584824,1007.99635 L650.728293,1007.99635 L732.394964,1007.99635 L797.363155,1007.99635 C808.01323,1007.99635 818.666038,1008.00456 829.316113,1007.99635 C842.551724,1007.98905 856.434175,1006.80942 868.472677,1000.82643 C884.03691,993.090863 890.969936,977.899819 891,961 L387,961 Z M545.419691,943.456196 C542.043195,947.012095 545.213562,951.677265 549.450143,951.798177 C554.199309,951.933744 558.974013,951.798177 563.726827,951.798177 L633.982013,951.798177 L728.221079,951.798177 L809.270653,951.798177 L833.234468,951.798177 C835.867624,951.798177 840.120622,952.552958 842.558594,951.143239 C844.807767,949.84344 845.657819,946.902175 844.451146,944.596612 C843.809046,943.368261 842.588692,942.539284 841.563522,941.663591 C838.744303,939.256352 835.922348,936.849113 833.104041,934.439126 C831.024514,932.663009 829.08271,930.288746 826.206031,930.081731 C825.015775,929.997459 823.788124,930.081731 822.597869,930.081731 L765.140896,930.081731 L672.280884,930.081731 L589.331462,930.081731 L565.799969,930.081731 C562.704393,930.081731 559.204767,929.446029 556.761323,931.720449 C552.795628,935.409167 549.183817,939.562295 545.419691,943.456196 Z M2211.95806,946.960355 C2209.02319,956.006686 2204.38251,964.434946 2197.90558,971.492027 C2190.90139,979.126399 2182.03339,985.353342 2173.1213,990.633239 C2168.94818,993.108247 2164.35526,994.991465 2160.38882,997.778228 C2158.7069,998.960903 2156.7494,1000.49521 2156.17436,1002.54427 C2154.82956,1007.35291 2161.59584,1008.80837 2165.07268,1008.96425 C2174.15103,1009.37026 2183.62437,1006.24455 2192.0735,1003.32366 C2201.89682,999.925168 2211.52265,995.658475 2220.15825,989.876508 C2229.04921,983.925069 2236.45942,976.266228 2241.28749,966.736858 C2245.43764,958.543321 2247.68909,949.548646 2249.06145,940.529502 C2252.55023,917.632731 2251.92284,894.14145 2251.98347,871.054363 L2252,864 L2228.14257,864 L2211.95806,946.960355 Z M2207.90218,853 C2201.75571,853.098034 2197.98141,860.39793 2195.93893,865.295087 C2189.72362,880.190795 2189.05064,898.012998 2190.90835,913.856368 C2191.81864,921.628278 2193.43542,929.573564 2196.8157,936.6783 C2198.9071,941.071671 2202.49933,946.959153 2208,947 L2207.90218,853 Z M2208.24032,853.157133 L2208.24032,890.002742 L2208.24032,941.453523 C2208.24032,942.540142 2207.6996,945.43478 2208.24032,946.40207 C2208.84372,947.478745 2213.8177,946.772714 2215.2492,946.772714 C2217.21695,946.772714 2216.90809,946.837802 2216.90809,945.02436 L2216.90809,938.151177 L2216.90809,883.987464 L2216.90809,860.340391 C2216.90809,858.347954 2217.11489,856.228053 2216.90809,854.246464 C2216.88839,854.056622 2217.03432,853.333415 2216.90809,853.180637 C2216.57953,852.790105 2213.90096,853.154421 2213.35217,853.154421 C2211.64584,853.157133 2209.94398,853.157133 2208.24032,853.157133 Z M2246.5,864 L2246.5,775 L2246.5,864 Z M2156.11195,751.07956 L2156.11195,763.963165 L2156.11195,771.96391 C2156.11195,772.38675 2155.83951,774.42554 2156.14464,774.701149 C2156.73764,775.229026 2160.34466,774.701149 2161.09294,774.701149 L2172.45342,774.701149 L2242.06203,774.701149 L2254.41145,774.701149 C2255.65193,774.701149 2259.35702,775.373564 2260.44313,774.701149 C2261.45839,774.07452 2260.71102,767.915059 2260.71102,766.591776 L2260.71102,757.444605 C2260.71102,756.065661 2261.36123,752.780795 2260.71102,751.54639 C2260.27422,750.715073 2258.93657,751.07956 2257.7424,751.07956 L2247.50979,751.07956 L2214.39004,751.07956 L2157.15809,751.07956 L2156.11195,751.07956 Z M2106.5,659 L2106.5,685 L2106.5,659 Z M2106.5,620 L2106.5,646 L2106.5,620 Z M2106.5,580 L2106.5,608 L2106.5,580 Z M2098.2714,690.455091 C2098.2714,691.433233 2097.66075,696.08728 2098.2714,696.79345 C2098.67707,697.258187 2101.76546,696.79345 2102.32293,696.79345 L2109.56321,696.79345 C2110.16957,696.79345 2112.3763,697.125541 2112.72708,696.66653 C2113.34115,695.863023 2112.72708,691.500033 2112.72708,690.455091 C2112.72708,689.410149 2113.34115,685.046205 2112.72708,684.242697 C2112.3763,683.783686 2110.16957,684.116731 2109.56321,684.116731 L2098.2714,684.116731 L2098.2714,690.455091 Z M2098.2714,652.454885 C2098.2714,653.433057 2097.66075,658.087251 2098.2714,658.793444 C2098.67707,659.258195 2101.76546,658.793444 2102.32293,658.793444 L2109.56321,658.793444 C2110.16957,658.793444 2112.3763,659.125545 2112.72708,658.667474 C2113.34115,657.863941 2112.72708,653.499859 2112.72708,652.454885 C2112.72708,651.40991 2113.34115,647.046782 2112.72708,646.242295 C2112.3763,645.784224 2110.16957,646.116325 2109.56321,646.116325 L2098.2714,646.116325 L2098.2714,652.454885 Z M2098.2714,613.455148 C2098.2714,614.433361 2097.66075,619.087744 2098.2714,619.793011 C2098.67707,620.258736 2101.76546,619.793011 2102.32293,619.793011 L2109.56321,619.793011 C2110.16957,619.793011 2112.3763,620.126081 2112.72708,619.667991 C2113.34115,618.864425 2112.72708,614.500165 2112.72708,613.455148 C2112.72708,612.410131 2113.34115,608.046825 2112.72708,607.242305 C2112.3763,606.784215 2110.16957,607.11633 2109.56321,607.11633 L2098.2714,607.11633 L2098.2714,613.455148 Z M2098.2714,574.45461 C2098.2714,575.433778 2097.66075,580.087213 2098.2714,580.793435 C2098.67707,581.258206 2101.76546,580.793435 2102.32293,580.793435 L2109.56321,580.793435 C2110.16957,580.793435 2112.3763,581.125551 2112.72708,580.66746 C2113.34115,579.863894 2112.72708,575.499629 2112.72708,574.45461 C2112.72708,573.410546 2113.34115,569.046281 2112.72708,568.242715 C2112.3763,567.78367 2110.16957,568.11674 2109.56321,568.11674 L2098.2714,568.11674 L2098.2714,574.45461 Z M1571,961 C1588.88236,960.257599 1606.72921,959.259941 1624.56878,957.803001 C1642.79174,956.314603 1660.95915,954.381303 1679.11837,952.28712 C1696.57908,950.272031 1714.01338,947.865968 1731.39305,945.255879 C1748.83464,942.635004 1766.23342,939.754379 1783.60671,936.716466 C1801.2186,933.638107 1818.80226,930.41684 1836.33765,926.942114 C1853.8785,923.464692 1871.36745,919.735609 1888.82543,915.880694 C1906.62128,911.954775 1924.38617,907.906621 1942.09641,903.614894 C1959.1801,899.477759 1976.20277,895.107838 1993.19265,890.616579 C2010.39382,886.069596 2027.5704,881.421049 2044.66775,876.501966 C2062.59929,871.346501 2080.43339,865.89803 2098.24199,860.349794 C2101.8292,859.234394 2105.41369,858.1154 2109,857 L1571,961 Z M1548.36411,735.082837 C1541.63284,735.088226 1542.13698,742.039188 1542.13698,746.632446 L1542.13698,765.201279 C1542.13698,768.452666 1541.82041,771.865724 1542.14979,775.107231 C1542.92109,782.651886 1552.66803,780.798955 1557.89696,780.798955 C1562.46712,780.798955 1567.25321,781.210318 1571.80874,780.798955 C1574.67801,780.539383 1577.58572,779.78851 1580.41931,779.295413 C1592.78666,777.134408 1605.15584,774.971607 1617.52319,772.811501 C1622.10068,772.011228 1630.97842,772.255532 1632.51644,766.611411 C1633.4625,763.137277 1632.72871,758.873649 1632.72871,755.336643 C1632.72871,752.760682 1633.22553,749.707791 1631.66646,747.434515 C1630.37638,745.554638 1628.44218,744.982502 1626.30761,744.607065 C1621.94148,743.837331 1617.57352,743.081069 1613.20555,742.317622 C1601.11177,740.205119 1589.02165,738.090819 1576.92787,735.979214 C1569.03553,734.598721 1561.12398,735.081939 1553.10812,735.081939 C1551.528,735.082837 1549.94697,735.082837 1548.36411,735.082837 Z M1465,558.5 L1529,558.5 L1465,558.5 Z M1465,568.5 L1529,568.5 L1465,568.5 Z M1465,578.5 L1529,578.5 L1465,578.5 Z M1465,587.5 L1529,587.5 L1465,587.5 Z M1465,597.5 L1529,597.5 L1465,597.5 Z M1465,607.5 L1529,607.5 L1465,607.5 Z M1465,616.5 L1529,616.5 L1465,616.5 Z M1465,627.5 L1529,627.5 L1465,627.5 Z M1465,637.5 L1529,637.5 L1465,637.5 Z M1465,646.5 L1529,646.5 L1465,646.5 Z M310,762 L279.601465,762 L263.597108,762 C261.286029,762 259.002012,762.013584 256.718897,762.454619 C245.129225,764.68968 236.569573,774.988347 236.249342,786.788525 C235.690966,807.489098 236.244831,828.2748 236.244831,848.979901 C236.244831,857.442884 236.169058,865.907678 236.244831,874.367944 C236.292641,879.655837 237.744958,884.769851 240.774077,889.131298 C244.047654,893.84503 248.897131,897.348859 254.388875,898.963573 C256.892093,899.698933 259.439512,899.971523 262.037446,899.985108 C268.011792,900.018615 273.989747,899.985108 279.964995,899.985108 L284.771173,899.985108 L310,762 Z M285,600 C292.814484,603.316847 300.629893,606.633694 308.448075,609.949579 C311.029794,611.044936 312.633548,610.999737 315.510136,610.999737 L328,610.999737 L285,600 Z M287.509151,849.486981 C284.814019,850.859299 285.164312,853.68898 285.164312,856.175804 L285.164312,878.695975 L285.164312,907.37144 C285.164312,912.429236 284.79461,917.631156 285.164312,922.67821 C285.361179,925.375403 287.673669,927.56592 290.597093,926.869466 C293.528835,926.168537 293.93181,923.611888 293.93181,921.149234 L293.93181,871.905101 C293.93181,865.890353 294.085237,859.852329 293.93181,853.836685 C293.867112,851.312263 292.441909,849.02417 289.547137,849 C288.838232,849.002686 288.134873,849.170085 287.509151,849.486981 Z M293.260341,858.046991 L293.260341,903.899083 L293.260341,914.546754 C293.260341,915.462096 292.674573,918.930194 293.260341,919.6809 C293.72117,920.269653 296.758653,919.863431 297.607881,919.863431 L310.260291,919.863431 L322.920849,919.863431 C323.832547,919.863431 326.285168,920.2446 326.71793,919.610213 C327.352588,918.676976 326.71793,915.168614 326.71793,914.068056 L326.71793,903.425754 L326.71793,876.189191 L326.71793,864.588598 C326.71793,862.53154 327.164273,859.921518 326.71793,857.906514 C326.437268,856.64132 326.27702,857.069911 324.67091,857.069911 L313.208144,857.069911 L293.260341,857.069911 L293.260341,858.046991 Z M445.969249,263.993031 C445.955622,254.726709 441.722262,245.763059 434.530093,239.864994 C427.207107,233.859413 417.239633,232.261116 408.352302,229.767449 C394.648389,225.924853 380.961736,221.387463 367.088852,218.192678 C362.542078,217.147325 360.017506,220.506548 360.01478,224.617484 C360.012055,230.713417 360.01478,236.806638 360.01478,242.90257 L360.01478,278.625256 L360.01478,326.251588 L360.01478,380.250324 L360.01478,435.092028 L360.01478,485.241843 L360.01478,525.167623 L360.01478,549.336317 L360.01478,555.651801 L360.01478,574.919897 L360.01478,611.354543 L360.01478,659.423591 L360.01478,713.593993 L360.01478,768.334505 L360.01478,818.112077 L360.01478,857.393659 L360.01478,880.647105 C360.01478,884.099389 359.561466,888.307904 363.675819,889.723692 C366.308497,890.628098 369.552559,889.082206 372.048969,888.381991 C379.78439,886.210874 387.520719,884.043372 395.255231,881.872255 C402.919793,879.721015 410.586172,877.572486 418.251642,875.421246 C421.774597,874.431911 425.33389,873.568162 428.622466,871.927402 C436.947468,867.774 443.104009,859.968641 445.177084,850.939036 C446.245417,846.29413 445.967432,841.461294 445.967432,836.729651 L445.967432,807.563684 L445.967432,762.68942 L445.967432,709.29061 L445.967432,654.552809 L445.967432,605.662476 L445.967432,569.805169 L445.967432,554.165539 L445.967432,543.717435 L445.967432,511.790364 L445.967432,465.209384 L445.967432,411.164569 L445.967432,356.836054 L445.967432,309.411203 L445.967432,276.076475 C445.969249,272.045046 445.969249,268.019039 445.969249,263.993031 Z M310.5,252 L310.5,282.186167 L310.5,354.639293 L310.5,441.944266 L310.5,517.363606 L310.5,553.990874 L310.5,578.181369 L310.5,646.921081 L310.5,733.829415 L310.5,812.155336 L310.5,854.989697 L310.5,857 L310.5,252 Z M1465.06788,655.814637 L1523.58236,655.814637 C1524.41516,655.814637 1528.21468,656.300904 1528.70762,655.698257 C1529.36548,654.898036 1528.70762,650.823857 1528.70762,649.845007 L1528.70762,619.339181 L1528.70762,556.059484 L1528.70762,514.344251 L1528.70762,476.395559 C1528.70762,468.762336 1529.2862,460.877409 1528.70762,453.261328 C1528.59008,451.697875 1528.48074,452.132719 1526.72403,452.132719 L1513.80292,452.132719 L1476.80449,452.132719 L1470.03824,452.132719 C1468.80271,452.132719 1467.12892,451.834102 1465.92619,452.132719 C1464.64146,452.452085 1465.06788,452.609964 1465.06788,454.221232 L1465.06788,479.503519 L1465.06788,547.870528 L1465.06788,584.55709 L1465.06788,651.499579 L1465.06788,655.814637 Z M1453.27581,553.950665 L1453.27581,632.618952 C1453.27581,640.952227 1452.63211,649.564031 1453.31147,657.878316 C1453.71835,662.826735 1457.28701,667.111386 1462.13667,668.42174 C1464.34114,669.017684 1466.67271,668.844056 1468.93204,668.844056 L1490.3477,668.844056 C1502.86501,668.844056 1515.4381,669.19493 1527.95266,668.844056 C1532.96416,668.702982 1537.48739,665.779328 1539.24658,661.048849 C1539.88662,659.325222 1539.98263,657.576274 1539.98537,655.76312 L1539.98537,642.542919 L1539.98537,555.851537 L1539.98537,487.205788 C1539.98537,475.43159 1540.01829,463.661912 1539.98537,451.888618 C1539.9744,447.456564 1538.32493,443.372671 1534.4079,440.908409 C1532.44207,439.674921 1530.23668,439.114245 1527.92797,439.051847 C1523.63058,438.935191 1519.3149,439.051847 1515.01841,439.051847 L1468.40447,439.051847 C1463.51275,439.051847 1459.00506,439.5447 1455.77744,443.69099 C1452.6824,447.668174 1453.27855,452.565047 1453.27855,457.274726 L1453.27855,546.465638 C1453.27581,548.964264 1453.27581,551.45656 1453.27581,553.950665 Z M1393.97856,215.189053 C1393.92288,205.9259 1393.30393,195.174317 1387.59463,187.378809 C1384.77284,183.525338 1380.61092,181.001241 1375.86017,180.268323 C1372.09353,179.686326 1368.22099,180.112882 1364.52921,180.955152 C1357.44051,182.574622 1350.51249,185.209876 1343.59268,187.394172 C1334.38331,190.30235 1325.5181,193.312649 1318.69414,200.445728 C1312.11211,207.324862 1308.77453,216.433478 1307.59415,225.715609 C1306.80631,231.929603 1307.02906,238.250236 1307.02906,244.499475 L1307.02906,280.619444 L1307.02906,335.30006 L1307.02906,398.622068 L1307.02906,461.59795 L1307.02906,514.237962 L1307.02906,547.466923 L1307.02906,556.314364 L1307.02906,582.717512 L1307.02906,631.349515 L1307.02906,692.33992 L1307.02906,756.683134 L1307.02906,814.376759 L1307.02906,856.389901 C1307.02906,861.895377 1307.00624,867.400853 1307.02906,872.904521 C1307.07288,883.140982 1308.82931,893.713629 1314.5879,902.420088 C1319.46829,909.794462 1326.87376,914.929411 1335.17662,917.912598 C1342.45337,920.527066 1349.94649,922.621895 1357.31909,924.947172 C1361.79323,926.360593 1366.2692,927.767689 1371.00169,927.974641 C1376.44169,928.214128 1381.78582,926.776306 1385.70218,922.853247 C1390.90208,917.640578 1392.68315,909.835129 1393.46734,902.805074 C1394.1511,896.702238 1393.9813,890.528911 1393.9813,884.398964 L1393.9813,850.437083 L1393.9813,797.902807 L1393.9813,735.619176 L1393.9813,671.495567 L1393.9813,614.456236 L1393.9813,572.581364 L1393.9813,554.21321 L1393.9813,541.950603 L1393.9813,504.678388 L1393.9813,450.345705 L1393.9813,387.035446 L1393.9813,323.662829 L1393.9813,268.122774 L1393.9813,229.269045 C1393.97856,224.57963 1393.97856,219.884793 1393.97856,215.189053 Z M2143,145.981215 C2142.93071,137.805665 2141.88954,129.504869 2138.32931,122.047221 C2131.08852,106.894137 2115.06888,101.127325 2099.16229,100.266024 C2092.38555,99.8993586 2085.54682,100.126256 2078.76553,100.126256 L2031.65478,100.126256 L1961.31186,100.126256 L1877.06628,100.126256 L1788.41898,100.126256 L1704.03026,100.126256 L1633.40289,100.126256 L1585.76882,100.126256 L1573.40969,100.126256 C1572.74323,100.126256 1571.28814,99.8421806 1570.67365,100.126256 C1569.88958,100.492013 1570.18315,100.592756 1570.18315,101.895144 L1570.18315,139.513745 C1570.18315,141.21638 1569.77106,143.511669 1570.18315,145.173462 C1570.5059,146.484019 1570.89884,146.011166 1572.60648,146.081957 C1577.46589,146.287072 1582.33168,146.453161 1587.18926,146.726345 C1607.30339,147.858106 1627.38379,149.349273 1647.43227,151.348689 C1666.8927,153.291834 1686.3112,155.657915 1705.68684,158.301718 C1725.61771,161.022666 1745.50483,164.086682 1765.34544,167.392116 C1785.02468,170.665785 1804.62187,174.376911 1824.20995,178.142492 C1841.89984,181.542315 1859.56147,185.131825 1877.14287,189.044435 C1898.37658,193.771152 1919.55831,198.631284 1940.71453,203.695623 C1959.29972,208.14371 1977.78189,213.036515 1996.24309,217.959271 C2013.96762,222.685987 2031.67302,227.524337 2049.25259,232.754765 C2069.15429,238.676775 2088.97576,244.774856 2108.78355,251 L2143,145.981215 Z M1660,770 C1661.64478,769.621475 1663.29046,769.244757 1664.9316,768.869845 C1677.09949,766.082854 1689.27011,763.298572 1701.43801,760.51158 C1721.93082,755.818412 1742.41999,751.127051 1762.9128,746.43569 C1787.50072,740.807502 1812.08408,735.177508 1836.67109,729.54932 C1861.12338,723.950944 1885.57476,718.352569 1910.02706,712.755097 C1930.17489,708.139621 1950.32273,703.52776 1970.47057,698.915898 C1981.95215,696.286098 1993.43555,693.659911 2004.91531,691.031015 C2014.14682,688.917057 2022.70202,685.671137 2030.03116,679.481034 C2040.59978,670.555433 2047.13247,657.447085 2047.84973,643.690096 C2048.14191,638.067328 2047.918,632.387647 2047.918,626.758556 L2047.918,590.790551 L2047.918,549.289216 L2047.918,482.290293 C2047.918,469.529755 2048.66256,457.03572 2042.95363,445.182196 C2036.94887,432.71436 2025.80771,423.08772 2012.54573,418.888712 C2005.96571,416.80547 1999.00977,415.615691 1992.29413,414.078102 C1976.15219,410.384999 1960.0139,406.687379 1943.87287,402.993373 C1921.16821,397.794301 1898.46173,392.595228 1875.75525,387.396156 C1850.7104,381.663174 1825.66647,375.929288 1800.62253,370.194499 C1777.3954,364.877081 1754.171,359.56147 1730.94478,354.242245 C1713.94086,350.349491 1696.93603,346.454929 1679.93211,342.562175 C1673.28929,341.041751 1666.64738,339.520424 1660.00546,338 L1660,770 Z M2106.5,540 L2106.5,568 L2106.5,540 Z M2247,633.763145 C2251.0013,633.763145 2257.61845,635.208649 2260.07286,630.957697 C2261.56138,628.376504 2260.81073,624.212013 2260.81073,621.425478 L2260.81073,569.653027 L2260.81073,544.705703 L2260.81073,492.391977 C2260.81073,488.403107 2261.16462,484.240417 2260.80252,480.263255 C2260.36381,475.429598 2256.13723,475 2252.16876,475 L2247,475 L2247,633.763145 Z M2246.5,358 L2246.5,359.302356 L2246.5,387.092258 L2246.5,438.190083 L2246.5,494.600219 L2246.5,539.234101 L2246.5,554.829876 L2246.5,578.593578 L2246.5,627.79879 L2246.5,684.472466 L2246.5,731.524234 L2246.5,751 L2246.5,358 Z M1426.5,146 L1426.5,148.626234 L1426.5,169.174887 L1426.5,206.32018 L1426.5,255.50057 L1426.5,312.149991 L1426.5,371.703282 L1426.5,429.597994 L1426.5,481.268966 L1426.5,522.150131 L1426.5,547.603077 L1426.5,554.670576 L1426.5,570.536502 L1426.5,604.100567 L1426.5,650.797611 L1426.5,706.066993 L1426.5,765.337222 L1426.5,823.789918 L1426.5,877.409765 L1426.5,921.360296 L1426.5,951.079967 L1426.5,962 L1426.5,146 Z M1329,146.016935 L1314.53738,146.016935 L1274.09307,146.016935 L1212.08738,146.016935 L1133.38522,146.016935 L1041.55693,146.016935 L941.390876,146.016935 L837.305571,146.016935 L734.252463,146.016935 L635.540419,146.016935 L546.137291,146.016935 L470.458846,146.016935 L413.168654,146.016935 L378.061159,146.016935 C370.782931,146.016935 363.450042,145.785433 356.251985,147.034278 C348.626654,148.352754 341.066007,151.248337 335.563379,156.826992 C330.140011,162.325164 327.493465,169.747695 326.647117,177.282361 C325.433624,188.079757 326.299103,199.360052 326.299103,210.184578 L326.299103,288.220634 L326.299103,389.487371 L326.299103,484.985549 L326.299103,545.53326 L326.299103,563.742336 L326.299103,626.506498 L326.299103,722.828497 L326.299103,823.213536 L326.299103,899.847017 L326.299103,920.054606 C326.299103,924.323828 326.263573,928.581294 326.928626,932.815248 C328.079258,940.13921 331.10297,947.16837 336.683036,952.236092 C342.657578,957.666441 350.6373,960.23557 358.534118,961.303554 C365.258438,962.21238 372.125791,961.970931 378.899307,961.970931 L414.911457,961.970931 L473.296708,961.970931 L549.637472,961.970931 L639.019647,961.970931 L737.987691,961.970931 L841.685808,961.970931 L945.694587,961.970931 L1045.09355,961.970931 L1136.53192,961.970931 L1215.05643,961.970931 L1276.24948,961.970931 L1315.55045,961.970931 L1329,961.970931 L1329,146.016935 Z M2098.01417,696.749176 L2111.26548,696.749176 C2113.12876,696.749176 2112.95591,696.536904 2112.95591,698.24321 L2112.95591,749.083717 L2112.95591,819.648362 L2112.95591,839.780783 C2112.95591,843.795886 2113.02239,847.874219 2112.13241,851.807123 C2111.77961,853.368 2111.26548,855.468139 2109.93317,856.476205 C2107.92628,857.993724 2105.90876,855.88907 2104.74398,854.286641 C2101.84623,850.29683 2100.43237,845.074035 2099.45374,840.292043 C2097.7376,831.902329 2098.01683,823.377123 2098.01683,814.865466 L2098.01683,765.267879 L2098.01683,693.889375 L2098.01683,621.632877 L2098.01683,568.583837 L2098.01683,552.434903 L2098.01683,517.598804 L2098.01683,452.580331 L2098.01683,378.306797 L2098.01683,314.847395 C2098.01683,304.274441 2097.99644,293.703293 2098.01683,283.130339 C2098.03633,273.627778 2098.98748,262.104568 2104.52858,254.040941 C2105.61003,252.465611 2107.55575,250.135135 2109.64242,251.327472 C2111.12188,252.172947 2111.70781,254.413094 2112.07834,255.969455 C2113.00378,259.849968 2112.95768,263.896686 2112.95768,267.864818 L2112.95768,320.280655 L2112.95768,390.343073 L2112.95768,409.381617 C2112.95768,411.07076 2113.37342,411.26045 2111.59878,411.26045 L2098.01683,411.26045 L2098.01417,696.749176 Z"/>
    <g transform="translate(164 19.627)">
      <path id="frente" d="M1186.5,964.372711 C1185.67328,956.256063 1191.17328,948.922729 1203,942.372711 C1214.82672,935.822692 1235.20701,928.822692 1264.14086,921.372711 L1258.7627,145.372711 L1186.5,126.372711 L1186.5,75.8727106 L1962,84.3727106 L2007,141.372711 L2007,257.372711 L1961.203,305.197467 L1955.02783,789.162911 L2007,812.974911 L2007,935.922911 L1962,986.372394 C1562.83679,982.744727 1359.92318,982.744727 1353.25918,986.372394 C1348.44049,988.995534 1253.8263,994.536332 1187.02145,988.372711 C1173.06894,987.085409 1201.49429,970.820533 1186.5,969.974216 C1169.14961,968.994915 1169.14961,967.127746 1186.5,964.372711 Z"/>
      <path id="frente" d="M1968.95312,776.080511 L2051.19518,781.81968 L2053.92168,837.372711 C2047.73137,833.085466 2043.09081,831.752133 2040,833.372711 C2034.75999,836.120155 2026,844.023365 2026,855.872711 C2026,870.856664 2024.37791,887.259598 2026,900.161773 C2028.00445,916.105316 2037.81222,926.118953 2044,931.093414 C2051.46345,937.093414 2034.4564,954.258791 1992.97882,982.589545 C1995.13233,985.587632 1996.92766,987.581812 1998.36482,988.572085 C2006.27514,994.022669 2019.03826,992.622877 2036.65418,984.372711 C2047.7524,979.175016 2070.34225,965.993976 2079.33673,944.944976 C2085.45204,930.633859 2089.3498,897.109771 2091.03001,844.372711 L2083,839.198955 C2083,815.462812 2083,797.690001 2083,785.880523 C2083,774.071045 2083,765.901774 2083,761.372711 L2097,755.372711 L2097,730.773112 L2082.5,726.668181 L2088,621.006691 L2100.26918,608.372711 L2100.26918,455.372711 L2088,447.411922 L2088,342.245758 L2100.26918,338.372711 L2100.26918,311.608986 L2079.33673,311.608986 C2084.55342,312.214175 2087.44117,306.676433 2088,294.995758 C2088.55883,283.315082 2086.89216,263.329399 2083,235.038708 C2088.42009,231.363465 2091.09676,223.974799 2091.03001,212.872711 C2090.96327,201.770622 2089.95326,185.083773 2088,162.812164 C2087.57706,147.671616 2085.9104,137.536851 2083,132.407867 C2080.03362,127.180223 2081.40098,127.531646 2079.33673,123.368804 C2072.76541,110.116828 2064.02105,96.1811477 2040,86.8609919 C1999.33333,71.082346 1983.33333,73.0146377 1992,92.6578669 C2017.33333,105.985992 2031.66667,115.10383 2035,120.011383 C2038.33333,124.918935 2042.83333,132.039377 2048.5,141.372711 C2043.48109,139.197994 2039.53248,139.197994 2036.65418,141.372711 C2033.77588,143.547428 2030.22448,149.214094 2026,158.372711 C2024.35407,183.159318 2023.89893,199.39174 2024.63459,207.069976 C2026.74855,229.133874 2037.90202,238.985992 2044,238.985992 C2047.49641,238.985992 2049.01595,237.815903 2051.19518,242.462554 C2052.7172,245.707868 2051.35431,248.540971 2051.19518,259.999664 C2051.13373,264.424636 2051.13373,272.916172 2051.19518,285.474273 L1965.99573,286.327063 L1949,298.372711 L1949,770.120927 L1968.95312,776.080511 Z"/>
      <path id="none" d="M1142 868.622711C1142 868.780799 1142 873.880523 1150 889.372711 1151.53035 891.485584 1161.03678 897.977414 1165 900.622711 1181.90037 904.563504 1193.56704 907.146837 1200 908.372711 1206.43296 909.598584 1212.25848 910.348584 1217.47656 910.622711 1224.07982 907.591883 1228.2543 904.258549 1230 900.622711 1231.7457 896.986872 1232.3726 890.320205 1231.8807 880.622711L1231.8807 188.622711C1229.24635 178.272884 1226.57569 171.443252 1223.86872 168.133814 1220.65496 164.204793 1214.43122 162.546024 1210.60547 160.372711 1204.7278 157.033757 1187.66312 159.896743 1169 169.767242 1163.11144 172.881568 1154.44477 179.166724 1143 188.622711 1143.66667 199.956044 1143.66667 214.289377 1143 231.622711 1142 257.622711 1142 868.122711 1142 868.622711zM196 868.872711L196 208.403961C191.911458 200.383127 195.389323 197.039377 206.433594 198.372711 217.477865 199.706044 237.169572 205.891386 265.508715 216.928737 276.502905 227.907011 282 237.392242 282 245.384429 282 253.376617 282 448.039377 282 829.372711 286.90963 838.341363 280.970371 846.047719 264.182222 852.491778 247.394074 858.935837 224.666667 864.396148 196 868.872711z"/>
      <path id="arriba" d="M158.735659,922.876711 L158.735659,296.876711 L158.735659,186.876711 C142.370884,145.543377 161.024645,125.042044 214.696942,125.372711 C268.369239,125.708711 437.382145,125.876711 721.735659,125.876711 L1151.73566,125.876711 L1194.73566,125.876711 L1256.73566,141.376711 L1256.73566,926.001011 L1195.73566,939.876711 L204.555972,940.093411 C191.437404,943.1157 181.69782,943.431866 175.337222,941.041911 C168.976623,938.651955 163.442769,932.596888 158.735659,922.876711 Z"/>
      <path id="izquierda_1" d="M733 947.305411L710.13217 908.372711 1099.39062 914.577811 1165 927.497011 1204.21889 932.913304 1185 997.428818 1157 996.372711C1155.97342 1041.65274 1148.28839 1064.29276 1133.94491 1064.29276 1119.60143 1064.29276 1122.28646 1042.00478 1142 997.428818L915 999.307459 908.636869 984.372711 795.734375 988.372711C773.392141 985.029753 758.957246 980.529753 752.429687 974.872711 745.902129 969.215668 739.425567 960.026568 733 947.305411z"/>
      <path id="derecha_1" d="M1176.5 147.372711L1203 136.372711 1187.02145 104.372711 1185 71.3727106 1157 71.3727106C1156.48465 59.3471574 1155.58162 50.3471574 1154.29091 44.3727106 1152.76174 37.2944809 1151.1827 23.09754 1150 19.8175798 1146.28723 9.52100036 1140.21945 4.37271063 1135.73828 4.37271063 1131.3579 4.37271063 1128.26873-5.46588829 1128 4.37271063 1127.79743 11.7891378 1132.4641 34.1224711 1142 71.3727106L915 72.3727106 915 80.3727106 778.085938 81.3727106C762.061529 85.4642639 751.756841 89.6309306 747.171875 93.8727106 738.436106 101.954604 743.131929 115.698 733 126.372711 714.333333 146.039377 702.796875 156.706044 698.390625 158.372711L1090.73828 160.372711C1116.62915 154.383152 1133.71639 150.049819 1142 147.372711 1150.28361 144.695602 1157.95028 141.028936 1165 136.372711L1176.5 147.372711z"/>
      <path id="derecha_3" d="M223 126.372711C233.003037 94.3727106 251.089734 79.3727106 277.26009 81.3727106 303.430447 83.3727106 432.177083 83.0393773 663.5 80.3727106 687.895632 82.8720226 703.439689 86.0451997 710.13217 89.8922419 726.061699 99.0490205 727 123.238501 727 126.372711 727 131.482086 559 131.482086 223 126.372711z"/>
      <path id="izquierda_3" d="M224.334375 946.598624C231.127083 969.114682 250.348958 983.039377 282 988.372711 313.651042 993.706044 441.423079 993.706044 665.316113 988.372711 691.701101 990.514462 708.915278 985.170994 716.958647 972.342306 725.002016 959.513617 729.0237 949.190419 729.0237 941.372711L224.334375 946.598624z"/>
      <path id="atraz_1" d="M162 904.708311L134.999841 904.708311 121 910.622711 121 880.372711C109.036093 881.275791 100.166302 881.275791 94.390625 880.372711 88.6149482 879.469631 81.1514065 876.915764 72 872.711111L72 767.487832 99.6953125 732.990392 24.772316 732.990392C16.9365175 730.725021 11.4030372 727.447513 8.171875 723.157867 4.9407128 718.868221 2.21675447 711.183269 0 700.103011L0 369.896148C2.60725999 358.730161 5.33121832 351.096047 8.171875 346.993804 11.0125317 342.891562 16.2573233 339.017864 23.90625 335.372711L81 336.068911C90.6024955 332.444533 95.0660371 329.212466 94.390625 326.372711 93.7152129 323.532955 87.5548326 319.630702 75.9094842 314.665951 73.3031614 286.381976 72 264.092823 72 247.798492 72 231.504161 73.3031614 219.862234 75.9094842 212.872711 74.3070924 208.019187 74.3070924 203.85252 75.9094842 200.372711 77.511876 196.892901 81.2724839 192.892901 87.191308 188.372711L121 188.372711 121 159.039825C125.081734 159.316285 128.081734 160.093914 130 161.372711 131.918266 162.651508 133.584879 164.984841 134.999841 168.372711L164 168.372711 162 904.708311z"/>
    </g>
  </g>
</svg>
