<svg xmlns="http://www.w3.org/2000/svg" viewBox="0 0 1839 800.91"><title>camioneta_cenital</title><g id="Capa_2" data-name="Capa 2"><g id="Capa_1-2" data-name="Capa 1"><path d="M1779.23,135.43c7.84,0,15.68,0,23.52,0,5.65,0,6,.19,7,5.61,2.75,14.13,5.5,28.26,8,42.42q3.85,21.5,7.25,43.05c2,12.8,3.73,25.64,5.37,38.48,1.32,10.31,2.42,20.64,3.42,31,.6,6.2.81,12.44,1.17,18.67.07,1.11.07,2.23.09,3.35,0,1.51.31,2.88,1.89,3.57a3.4,3.4,0,0,1,2,3.5c0,1.28,0,2.56,0,3.84q0,71.52,0,143c0,1,0,1.92,0,2.88,0,1.87-.32,3.46-2.25,4.36-1.55.71-1.59,2.23-1.68,3.7-.23,4-.53,8-.74,12-1,20.31-3.73,40.43-6.55,60.54-3.6,25.67-8,51.19-12.71,76.67-1.6,8.65-3.24,17.29-5,25.91-1.45,7.21-1.21,6.71-8.4,6.73h-18.49c1.07.91,2,.61,2.89.61,4.16,0,8.32,0,12.48,0,1.12,0,2.24,0,3.36,0,4.37.28,5.38,1.26,5.42,5.53a34.78,34.78,0,0,1-.38,6.21,185.33,185.33,0,0,1-7.83,31.14,89.33,89.33,0,0,1-3.64,8.35,11.64,11.64,0,0,1-9.16,6.86c-7.89,1.36-15.8,2.5-23.73,3.48q-14.28,1.75-28.58,3.41c-7.46.85-14.94,1.6-22.41,2.39q-11,1.16-21.95,2.29-11.92,1.24-23.85,2.45l-25.29,2.53-12.41,1.2c-12.89,1.26-25.77,2.58-38.67,3.74-6.21.56-12.44.84-18.66,1.25-1.6.1-3.2.17-4.79.34-2.42.26-4.54.85-6.19,3.06a10.39,10.39,0,0,1-8.41,3.94c-1.44,0-2.88,0-4.32,0H1283.55c-1.28,0-2.56,0-3.84,0-2.88,0-5.4-.75-7.08-3.26a4.88,4.88,0,0,0-4.56-2.09c-4.16,0-8.32-.14-12.47,0a85.48,85.48,0,0,1-23.32-2.4,67.76,67.76,0,0,0-15.69-1.61q-117.6.08-235.2,0c-3.66,0-7.34.25-11-.76a14.68,14.68,0,0,0-3.82-.14c-9.6,0-19.2-.13-28.8.1-8.94.22-17.87,1-26.82,1.26-7,.26-14.07.27-21.11.3a96.34,96.34,0,0,1-12.93-.59,51.86,51.86,0,0,0-6.71-.27c-26.08.06-52.17-.28-78.24.32-36.31.82-72.62.37-108.93.75-1.12,0-2.25,0-3.36.1a1.3,1.3,0,0,0-1.2,2c.57,1.32,1.22,2.61,1.86,3.9l20.82,41.64c.64,1.29,1.3,2.57,1.85,3.9s.06,2.57-1.52,2.84a67.31,67.31,0,0,1-7.6,1,83.85,83.85,0,0,1-18.66-.71,29.49,29.49,0,0,1-16.82-8.46,105,105,0,0,1-16.31-22.45c-3.31-5.84-6.33-11.85-9.47-17.79-.52-1-1-2-1.53-3a3.93,3.93,0,0,0-3.45-2.23c-3.19-.22-6.37-.59-9.56-.67-7.68-.17-15.36-.13-23-.31a132.19,132.19,0,0,0-21.5,1.62q-14.49,2-29,4a36.26,36.26,0,0,1-4.78.2q-8.64,0-17.28-.08a9.65,9.65,0,0,0-6.66,2.1,18,18,0,0,1-12,3.9q-117.36-.23-234.72-.27H239.36c-1.6,0-3.21,0-4.8-.14-3.56-.33-6.62-1.83-8.11-5.16-1.34-3-3.55-3.34-6.27-3-8,1.06-16,.9-24,.59-22-.85-43.62-3.87-64.51-11.22-16-5.65-30.59-13.75-43.26-25.17-3.94-3.55-7.26-7.67-10.81-11.57A285,285,0,0,1,56.2,674.48C41,653.12,30.43,629.61,23.38,604.43a390.68,390.68,0,0,1-10.82-53.57c-1.3-9.66-2.6-19.33-3.46-29Q7.72,506.3,6.69,490.74c-.57-8.62-.54-17.26-1.35-25.87-.45-4.77-.25-9.59-.38-14.39-.06-2.35.39-4.85-2.23-6.4-.53-.31-.75-1.39-.86-2.15a57.38,57.38,0,0,1-.56-5.72C1.06,430.14.81,424.07.5,418a278.21,278.21,0,0,1,.37-38.84c.39-4.45.28-9,.44-13.43.07-1.75.24-3.51.43-5.25a4.16,4.16,0,0,1,1.71-3.29,3.6,3.6,0,0,0,1.46-3.35l0-1c.37-10.39.64-20.78,1.13-31.17.35-7.34,1-14.67,1.53-22q.53-7.18,1.12-14.35a512.47,512.47,0,0,1,10.5-71.12,272,272,0,0,1,14.11-45.3A213,213,0,0,1,63.2,118.23,318.7,318.7,0,0,1,86.29,91.91,110.5,110.5,0,0,1,119,69.53c16.11-7.45,33.15-11.66,50.67-14.06,7.77-1.07,15.57-1.71,23.41-2,5.59-.22,11.17-.69,16.77-.38l10.06.56c.8,0,1.6,0,2.4,0a3.63,3.63,0,0,0,3.57-2,23.75,23.75,0,0,1,1.24-2A8.26,8.26,0,0,1,233.53,46c1.75-.13,3.52-.14,5.28-.14,18.08,0,36.16.26,54.24-.05C362,44.6,431,45.55,499.9,45.09c1.6,0,3.21.07,4.8,0a14.29,14.29,0,0,1,10.94,4,8,8,0,0,0,6.45,2.17c9.57-.37,19.12-.57,28.71,1,13.09,2.07,26.25,3.9,39.49,4.95a16.22,16.22,0,0,0,2.87.07c10.06-.92,20.15-.49,30.22-.77,6.7-.19,6,.49,9-5.63,5.21-10.65,10.71-21.12,17.52-30.85a78.66,78.66,0,0,1,9.5-11.42,25.85,25.85,0,0,1,12.45-6.84A64.2,64.2,0,0,1,694.29.46c2.06.26,4.14.36,6.19.7,1.82.3,2.36,1.41,1.64,3.15-.56,1.33-1.23,2.61-1.87,3.9L680.93,46.85c-.64,1.28-1.25,2.58-1.78,3.92-.4,1,.21,1.86,1.35,2,.63.09,1.28.11,1.91.15,10.23.58,20.46.58,30.7.61,38.72.11,77.44,0,116.15.47,13.27.15,26.55.4,39.82.49a41,41,0,0,0,7.17-.45,28.31,28.31,0,0,1,4.78-.32c12.32,0,24.67-.44,37,.26,15,.85,30.07.62,45.1.85a49.74,49.74,0,0,0,10-.64,39.81,39.81,0,0,1,7.17-.29h211.2c9.28,0,18.56,0,27.84,0a54,54,0,0,0,12.86-1.26,104,104,0,0,1,28.09-2.75c2.71.11,5.44,0,8.16,0a6.53,6.53,0,0,0,5.22-1.9,6.74,6.74,0,0,1,5.25-1.93c1.28,0,2.56,0,3.84,0h264.48c1.12,0,2.24,0,3.36,0a11.38,11.38,0,0,1,8.73,3.3,8.65,8.65,0,0,0,6,2.4c14.05.85,28.07,1.9,42.06,3.51,8.09.94,16.24,1.47,24.35,2.25,8.28.79,16.55,1.67,24.82,2.49,7.79.77,15.59,1.5,23.39,2.27,7.32.73,14.64,1.46,22,2.24q11.44,1.22,22.88,2.5c10.17,1.15,20.34,2.29,30.5,3.53,8.09,1,16.17,2.08,24.25,3.21,2.85.39,5.66,1,8.49,1.56a9.08,9.08,0,0,1,5.85,3.85,23,23,0,0,1,3.1,5.39c1.32,3.44,2.76,6.84,3.79,10.36a213.08,213.08,0,0,1,6.09,25.66,36.75,36.75,0,0,1,.49,7.17c-.13,3.85-1.08,4.8-4.87,5-1.11.05-2.24,0-3.36,0-4.16,0-8.32.11-12.47,0-2.9-.1-5.37.55-7.38,2.69-1.83,1.47-1.91,1.5-1.25,2.92a70.83,70.83,0,0,1,3.37,9.9c.33,1.14.68,2.28,1,3.42a43.5,43.5,0,0,0-2.18-12.13A12.87,12.87,0,0,1,1779.23,135.43ZM245.53,134a9.89,9.89,0,0,0,4.92-.13c16.56-2.75,33.11-5.58,49.69-8.21,13.58-2.16,27.2-4.11,40.81-6.07q19.46-2.81,38.95-5.43c10.78-1.45,21.57-2.8,32.35-4.16q14.28-1.78,28.57-3.49c6.82-.82,13.66-1.56,20.49-2.33,7.46-.84,14.93-1.69,22.4-2.49q10.73-1.15,21.47-2.24l25.28-2.55c6.37-.65,12.79-1,19.08-2a45,45,0,0,1,18.05.92c1.56.36,3.1.8,4.64,1.23,10.49,2.87,20.95,5.86,31.47,8.62,24.75,6.49,49.6,12.61,74.61,18.07,18.75,4.1,37.54,8,56.44,11.33,23.15,4.06,46.38,7.6,69.77,10.15,14,1.52,28,2.5,42.06,3.39,8,.5,16,.49,24,.91,11.18.59,22.38.45,33.57,1,14.86.66,29.74.44,44.61.92,21.9.7,43.83.25,65.73,1.05,9.59.35,19.2.15,28.8.21,19.35.11,38.7.19,58,.75,9.43.27,18.88.06,28.32.17,30.55.36,61.1-.27,91.65.76,10.07.34,20.16.08,30.24.1q15.6,0,31.2.07a32.44,32.44,0,0,1,4.29.3,1.2,1.2,0,0,1,1,1.42,22.49,22.49,0,0,1-.93,3.2c-1.36,3.93-2.92,7.79-4.1,11.78a95.27,95.27,0,0,0-2.57,11.21c-.63,3.81.17,4.6,3.89,4.75h1c25.59.18,51.18.13,76.77.75,15.35.38,30.72.19,46.08.25,23.67.08,47.34.22,71,.74,14.55.32,29.12.17,43.68.22,23.51.08,47,.21,70.53.74,12.79.3,25.6.14,38.4.19,3.84,0,7.68.11,11.52.07a5.92,5.92,0,0,1,5.76,3.55,23.22,23.22,0,0,1,1.41,3.55c1.13,3.76-2,9.61-7,9.37-1.92-.09-3.84,0-5.76,0-10.07-.13-20.14-.37-30.22-.56-33.42-.64-66.85-.17-100.29-1-33.73-.8-67.49-.17-101.24-1-33.42-.79-66.86-.16-100.29-.95-33.74-.8-67.5-.16-101.25-1-33.42-.8-66.86-.14-100.29-1-33.74-.82-67.51.11-101.25-1-9.11-.3-18.24,0-27.36-.16-23.67-.37-47.35.49-71-1q-8.87-.56-17.71-1.23-6.69-.49-13.38-1.1c-5.25-.47-10.5-1-15.76-1.47-8.11-.76-16.24-1.43-24.35-2.31-9.69-1-19.37-2.2-29-3.42q-12.86-1.61-25.67-3.46c-10.45-1.51-20.82-3.44-31.16-5.56-3-.61-3.26-.36-4,2.52-.29,1.24-.5,2.51-.72,3.77-.82,4.73-1.65,9.45-2.42,14.19-2,12.62-4.24,25.23-6.07,37.89-2.32,16-4.5,32-6.23,48-1.36,12.56-2.74,25.1-3.75,37.7-.4,4.94-.77,9.88-1,14.83-.54,9.74-1.37,19.47-1.57,29.21-.3,14.87-.17,29.75-.22,44.63,0,13.28.16,26.55,1.07,39.8.44,6.38.66,12.78,1.23,19.15q1.59,17.67,3.48,35.32c1.31,12.08,2.63,24.16,4.27,36.2q4.54,33.51,10.41,66.82c.56,3.15,1.18,6.29,1.8,9.42a1.72,1.72,0,0,0,2.1,1.48c1.43-.19,2.85-.45,4.25-.76,16.59-3.55,33.38-5.93,50.19-8.11,15.69-2,31.42-3.84,47.2-5.14,4-.33,8-.76,11.93-1.13,5.41-.51,10.82-1,16.24-1.51q10.26-.88,20.55-1.66c5.74-.42,11.48-1,17.23-1.1,26.55-.47,53.1-.09,79.65-.78,33.1-.86,66.22-.16,99.33-1,33.74-.84,67.5-.12,101.25-1,33.42-.84,66.86-.12,100.29-.95,33.74-.85,67.5-.12,101.25-1,33.42-.83,66.86-.12,100.29-1,33.9-.85,67.82,0,101.73-1,14.71-.44,29.43-.21,44.15-.28h2.4a6.38,6.38,0,0,1,5.55,3.22c2,3,1.5,6,0,9.1a6.76,6.76,0,0,1-6.86,4.18c-5.28-.13-10.56,0-15.84.06-27.83.23-55.67,0-83.49.77-10.08.3-20.16.12-30.24.2-28,.22-56-.06-84,.76-9.91.29-19.84.1-29.76.19-28.47.24-56.94-.07-85.41.77-9,.27-17.92.11-26.88.17a38.74,38.74,0,0,0-4.31.2,2.27,2.27,0,0,0-2.24,2.6,31.57,31.57,0,0,0,.56,5.23,118.16,118.16,0,0,0,5.83,19.27c.4,1,.87,2.07,1.19,3.13.55,1.76-.1,2.69-2,2.93a25,25,0,0,1-2.87.15c-2.56,0-5.12.06-7.68.08-42.71.29-85.42-.15-128.13.75-34.7.73-69.42-.07-104.13,1-13.27.4-26.56.22-39.84.31l-23.94.18v.31h3.35q130.06,0,260.15,0c22.07,0,44.14.3,66.21-.53,21.42-.81,42.86-.22,64.29-1,19.18-.71,38.38-.19,57.58-.9,21.41-.78,42.86-.22,64.28-1,19.18-.71,38.38-.2,57.58-.9,21.57-.78,43.18-.16,64.77-1,11.5-.46,23-.36,34.55-.29,9.61.06,19.19-.49,28.76-1.14a140.33,140.33,0,0,0,19-2.7c4.87-1,9.08-3,12.27-6.92,1.31-1.61,2.77-3.1,4-4.74a133.51,133.51,0,0,0,15.35-25.41,263.9,263.9,0,0,0,16-45.16c6-22.47,9.46-45.38,12.21-68.42.56-4.65,0-5.22-4.77-5.28-3.2-.05-6.4,0-9.6-.14-1.88-.08-2.57-.76-2.72-2.68-.31-4-.59-8-.69-12-.44-16.15-.26-32.3-.81-48.46-.73-21.26-.46-42.54-1.17-63.81-.41-12.46-.41-24.95-.6-37.42,0-2.63.64-3.46,3.26-3.71,1.27-.12,2.56-.09,3.84-.1,3,0,6.08.05,9.12,0,3.87-.11,4.49-.78,4.42-4.54,0-1.44-.13-2.88-.3-4.3-.49-4.13-1-8.25-1.56-12.38a434.17,434.17,0,0,0-9.93-53.26c-4.77-18.81-10.95-37.12-20-54.38A132.71,132.71,0,0,0,1714,166.43a25.43,25.43,0,0,0-16.12-9.45,199.14,199.14,0,0,0-28.6-3c-14.55-.5-29.1-.28-43.66-.8-20.61-.75-41.25-.23-61.89-1-20-.73-40-.21-60-.94-20.61-.76-41.26-.2-61.89-1-20-.75-40-.22-60-.95-20.61-.76-41.26-.12-61.89-1-12.62-.52-25.27-.34-37.91-.35q-146.88,0-293.75,0c-18.07,0-36.14.08-54.22-.52q-21.81-.74-43.64-1.4c-6.71-.2-13.41-.68-20.12-1-.47,0-1-.09-1.43-.13l-21-1.55c-5.58-.41-11.17-.74-16.74-1.26q-12.42-1.16-24.81-2.52c-9.54-1-19.09-2-28.59-3.3-15.53-2.11-31-4.34-46.45-7.18-16.84-3.1-33.62-6.43-50.17-10.85a16,16,0,0,0-4.69-.87c-4.38.18-8.58-.79-12.83-1.54-16.39-2.9-32.52-7-48.62-11.17a187.22,187.22,0,0,1-21.06-6.55c-2.69-1-5.53-2-7.56-4.07-2.29-2.31-4.88-2.71-7.87-2.56-9.1.43-18.21.78-27.32,1.17-.16,0-.32,0-.48,0-10.37.54-20.75,1.13-31.13,1.62-9.74.45-19.49.8-29.24,1.19q-.48,0-1,.06C479,96.47,468.63,96.83,458.3,98c-10.64,1.23-21.33,2-31.95,3.35-15.39,2-30.74,4.18-46.08,6.42-19.79,2.89-39.47,6.38-59.08,10.24s-39.18,8-58.75,12C257,131.22,251.59,132.56,245.53,134ZM447.67,575.8c1.41,0,2.54.07,3.65,0a1.47,1.47,0,0,0,1.41-1.62,14.8,14.8,0,0,0-.31-2.37c-2.17-11.63-4.08-23.31-5.45-35.06-.85-7.31-1.62-14.62-2.25-22-.54-6.21-.61-12.46-1.26-18.65-1.1-10.36-.7-20.77-1.37-31.15-.56-8.76-.24-17.59-.22-26.39,0-7.36-.14-14.73.31-22.07.42-6.87.59-13.74.45-20.61-.11-5.6-.59-11.18-.62-16.77-.08-17.44-.58-34.87.54-52.29.47-7.34.44-14.69.92-22,.77-11.65,1.67-23.28,3-34.88,1.39-12.4,3.11-24.74,5.57-37,.34-1.72.65-3.46.85-5.2a1.45,1.45,0,0,0-1.41-1.62,11.23,11.23,0,0,0-2.39,0q-11.47.9-22.94,1.84c-4.62.38-9.24.79-13.86,1.19-5.73.49-11.46,1-17.2,1.48s-11.48.82-17.22,1.26c-4.14.32-8.28.69-12.42,1-6.21.52-12.42,1.07-18.64,1.57-5.42.43-10.84.77-16.26,1.23-9.71.81-19.42,1.72-29.14,2.5-9.88.8-19.77,1.49-29.65,2.23-4.46.34-8.93.69-13.39,1.08-9.39.81-18.78,1.7-28.18,2.45-10,.81-20.09,1.48-30.13,2.24-4.46.34-8.92.75-13.38,1.14-5.73.5-11.46,1-17.2,1.49s-11.48.78-17.22,1.26c-9.71.81-19.42,1.73-29.14,2.52-9.88.79-19.77,1.45-29.65,2.22-11.63.91-23.26,1.88-34.89,2.83-.8.06-1.59.16-2.39.24a4.67,4.67,0,0,0-4.56,4.13c-.66,3.29-1.48,6.55-2.2,9.83a587.55,587.55,0,0,0-11.58,74.84c-.41,4.62-.78,9.24-1.06,13.87-.51,8.3-1.31,16.59-1.47,24.89-.25,12.94-.37,25.89.45,38.85.66,10.37,1.23,20.74,2.09,31.1.83,10,2,20,3.43,30,2.16,15.36,4.85,30.64,8.32,45.77.75,3.27,1.55,6.53,2.33,9.8a3.57,3.57,0,0,0,3.62,3.15c4.15.23,8.29.66,12.43,1,5.74.43,11.5.64,17.21,1.3,4.3.5,8.62.59,12.92,1,9.39.84,18.78,1.71,28.18,2.47,9.88.8,19.77,1.48,29.65,2.23,4.46.34,8.93.69,13.39,1.08,5.41.48,10.81,1.05,16.23,1.48,9.88.78,19.77,1.47,29.65,2.22,4.62.35,9.24.74,13.86,1.13,9.4.81,18.79,1.67,28.19,2.44,5.73.47,11.48.79,17.22,1.22,4.62.34,9.24.73,13.86,1.12,9.4.81,18.79,1.69,28.19,2.45,9.72.78,19.45,1.46,29.17,2.19,4.46.34,8.93.69,13.39,1.08,5.57.49,11.13,1.07,16.71,1.52,5.9.47,11.8.81,17.7,1.25,4.3.32,8.6.7,12.9,1.07q14.58,1.24,29.15,2.5C439.68,575.2,443.83,575.5,447.67,575.8ZM537,683.45a21.13,21.13,0,0,0,6.74-.8c1.68-.53,3.39-1,5.1-1.37Q579.42,674,610,666.65c14.93-3.59,29.84-7.25,44.77-10.83q40.82-9.8,81.64-19.55a32.18,32.18,0,0,0,3.22-.95,2.18,2.18,0,0,0,1.52-2.21,26.81,26.81,0,0,0-.3-3.81c-.46-2.84-1-5.66-1.52-8.5-2.81-16.87-5.75-33.73-8.37-50.63-1.94-12.48-3.5-25-5.15-37.53-1.2-9.2-2.35-18.4-3.38-27.61-.85-7.62-1.52-15.27-2.18-22.91-.49-5.74-.79-11.48-1.24-17.22-.79-10-1.58-20.09-1.67-30.16-.12-14.88-.1-29.75-.17-44.63-.08-15.84.2-31.66,1.25-47.47.06-.8.1-1.6.17-2.39.83-9.72,1.64-19.43,2.52-29.14.7-7.64,1.35-15.29,2.28-22.9,1.67-13.65,3.5-27.27,5.31-40.9,2.12-15.85,4.68-31.63,7.4-47.39,1.58-9.13,3.27-18.25,4.87-27.39.83-4.76.3-5.55-4.29-6.75-.62-.17-1.25-.28-1.88-.43Q702.83,157.7,670.87,150,628.42,139.86,586,129.62q-21.91-5.3-43.81-10.68a17,17,0,0,0-9,.14c-2.14.65-4.24,1.46-6.4,2a64.16,64.16,0,0,0-30.44,18.32c-9.07,9.46-15.81,20.5-21.26,32.32a186.25,186.25,0,0,0-10.29,28.37c-2.94,10.63-6.09,21.22-8.28,32a437.84,437.84,0,0,0-6.45,44.12c-1.24,12.72-2.16,25.48-2.88,38.25-.6,10.69-.86,21.41-1,32.12-.13,11.67-.23,23.33.43,35,.48,8.61.33,17.27.24,25.9-.09,8-.51,16-.7,24-.33,14.24.32,28.46.61,42.69.2,9.92.76,19.82,1.41,29.7q1.15,17.46,3.4,34.83c2.11,16.52,4.82,32.89,9.23,49,3.21,11.72,6.44,23.44,10.89,34.75a127.34,127.34,0,0,0,21.22,36.3c6.7,7.89,14.53,14.4,24.09,18.63,5.28,2.34,10.87,3.79,16.34,5.56A14.62,14.62,0,0,0,537,683.45Zm-.68,18a2.31,2.31,0,0,0,1.24-.42c.51-.47.19-1.22-.16-1.75a27,27,0,0,1-3.74-9.29,4.27,4.27,0,0,0-3.09-3.35c-2-.62-3.93-1.36-5.93-1.92a67.55,67.55,0,0,1-29.11-17,109.78,109.78,0,0,1-19.43-26.06,156,156,0,0,1-8.64-18.19,6,6,0,0,0-5.32-4.13c-4.75-.63-9.45-1.59-14.18-2.41q-25.51-4.47-51-8.92-29.76-5.18-59.53-10.31l-56.7-9.87q-29.53-5.11-59.07-10.22c-17-3-34-6-51-8.93q-26.7-4.63-53.4-9.22-28.35-4.93-56.69-9.92c-1.26-.22-2.53-.4-3.8-.54-1.91-.2-2.57.57-2.16,2.58.22,1.09.52,2.18.83,3.25,1.9,6.44,3.74,12.9,5.75,19.31a177.85,177.85,0,0,0,7.36,20.28A89.5,89.5,0,0,1,73,606.63c.9,3.07,1.88,6.11,3,9.12.76,2.1,1.77,4.1,2.68,6.15a5.6,5.6,0,0,0,3.92,3.21c4.15,1.17,8.28,2.44,12.4,3.72,28.6,8.82,57.69,15.69,87,21.89q37.07,7.88,74.42,14.21,23.4,4,46.85,7.72c14.68,2.31,29.39,4.44,44.1,6.57,10,1.44,20,2.79,29.93,4.11,11.25,1.48,22.51,2.88,33.77,4.29,9.35,1.17,18.71,2.34,28.07,3.44s18.74,2.15,28.11,3.19q12.15,1.37,24.31,2.66,10.73,1.15,21.45,2.25C520.54,699.94,528.18,700.68,536.35,701.48Zm2-601c-6.56.6-13.22,1.14-19.87,1.82-11,1.12-21.93,2.32-32.9,3.49-10,1.06-20,2-30,3.22q-26,3.08-51.89,6.39c-16.49,2.11-33,4.28-49.44,6.63-22.63,3.24-45.26,6.51-67.85,10.07-21.63,3.41-43.21,7.25-64.74,11.3q-35.37,6.66-70.43,14.76c-22.3,5.13-44.32,11.31-66.18,18.05-5.47,1.68-5.5,1.68-7.79,6.82-.52,1.17-1,2.37-1.4,3.58-.37,1-.69,2.12-1,3.2a184.94,184.94,0,0,1-6.56,18.51c-4.48,10.62-7.8,21.66-11,32.72-.86,2.92-1.69,5.84-2.43,8.79-.67,2.69.18,3.53,3,3.11.32,0,.63-.14.94-.2L149.41,237,237.8,221.6c15.44-2.67,30.89-5.29,46.33-8,17.33-3,34.64-6.11,52-9.13q35-6.11,70-12.12c17.8-3.08,35.62-6.09,53.41-9.26,7.63-1.36,6.12-.38,9.1-7.33,5.45-12.7,12.07-24.71,21.07-35.31s20.12-18.65,33.7-22.8c2.14-.65,4.23-1.47,6.39-2.06,2.36-.65,3.86-1.81,4.33-4.45a21.58,21.58,0,0,1,4.09-9.12A1.31,1.31,0,0,0,538.31,100.49Zm662.27,543.83V644h47.51q13.92,0,27.83-.06a12.9,12.9,0,0,0,4.75-.47,1.51,1.51,0,0,0,1.07-1.87c-.18-.77-.46-1.52-.71-2.28a107.9,107.9,0,0,1-5.17-20.43,11,11,0,0,0-.41-1.87,2.84,2.84,0,0,0-2.76-2.25c-1.43-.07-2.87-.08-4.31-.08-24.15.1-48.29.06-72.43.72-9.76.27-19.52,0-29.27.18-26.55.34-53.09-.12-79.64.7-18.22.56-36.46.16-54.7.33-22.7.23-45.41,0-68.11.62-19.66.56-39.35.21-59,.3-4.32,0-8.66,0-13,.34-11,1-22,2.14-32.9,3.47q-20,2.41-39.93,5.26c-16,2.31-31.93,4.8-47.87,7.35-9.94,1.59-19.9,3-29.71,5.41-25.14,6.24-50.37,12.1-75.56,18.13L564.14,682l-23.77,5.75c-1.77.43-2.32,1.33-1.94,3.15.06.31.16.62.25.93A16,16,0,0,0,553,703.53a44,44,0,0,0,16.12-1.74c10.78-3,21.55-6.06,32.38-8.89,30.79-8.07,61.7-15.61,92.86-22.06,25.21-5.22,50.53-9.85,76-13.61q26.36-3.87,52.85-6.21c10.67-.94,21.37-1.44,32.07-1.95,8.46-.41,16.94-.41,25.4-.87,12.29-.65,24.62-.38,36.93-.93,16.44-.75,32.92-.35,49.39-.95,22.21-.8,44.45-.32,66.68-.94,31.32-.86,62.68-.22,94-1C1152,643.87,1176.27,644.32,1200.58,644.32Zm53-457.27H1269c1.12,0,2.25,0,3.36-.05,2.38-.17,3.19-.76,3.49-3.14.92-7.35,3.09-14.37,5.46-21.34,1.16-3.42.86-3.75-2.87-3.84h-1c-35.19-.34-70.37.05-105.56-.7-36.93-.79-73.89,0-110.83-1-25.74-.71-51.49,0-77.24-1-18.37-.69-36.78-.07-55.16-1-13.73-.66-27.5-.14-41.25-1-10-.61-20.13-.44-30.2-.93-11.5-.56-23-1.07-34.47-2-13.23-1.06-26.41-2.53-39.56-4.26-18.24-2.39-36.39-5.35-54.47-8.67-24.07-4.42-48-9.48-71.84-15q-42.52-9.89-84.54-21.8a85.26,85.26,0,0,0-13.6-2.8A22.11,22.11,0,0,0,547,100.48c-4.69,2.1-7.33,6-8.58,10.92a2,2,0,0,0,1.44,2.62c.61.2,1.25.3,1.87.45q40.1,9.68,80.21,19.36,50.13,12.07,100.28,24.11c13.53,3.27,27.07,6.35,40.85,8.43,23.08,3.49,46.11,7.28,69.24,10.42,15.53,2.11,31.05,4.19,46.65,5.72a281,281,0,0,0,31.1,1.69c7.36-.1,14.72,0,22.08.07,23.19.27,46.37,0,69.56.66,18.54.54,37.11.22,55.67.29q36.95.12,73.88.72c21.43.38,42.87.28,64.3.32C1214.91,186.29,1234.25,186.45,1253.6,187.05Zm-1065,556.77c-.65-1.21-1.68-1.17-2.56-1.41-15.09-4.26-30.15-8.6-44.82-14.16a60,60,0,0,1-10.46-4.79c-5.38-3.34-9.45-7.7-9.74-14.48-.1-2.2-1.49-3.42-3-4.65-10.68-8.75-18.8-19.55-25.32-31.64A244.78,244.78,0,0,1,73.3,624.22c-1-3.41-2.45-5.9-5.62-7.83a78.48,78.48,0,0,1-18.55-15.83c-2.91-3.37-6.06-6.61-7.83-10.83-1.24-3-2.61-5.85-3.79-8.82-8.12-20.49-12.94-41.83-16.21-63.55C20,508.67,18.88,500,17.85,491.21c-.89-7.61-1.59-15.26-2.27-22.9-.49-5.57-.77-11.17-1.23-16.74-.82-9.72-1.6-19.44-1.76-29.2,0-1.76-.08-3.52-.25-5.27a170.14,170.14,0,0,1-.26-28.28c.59-8.46.72-16.93,1.31-25.38.74-10.69,1.42-21.38,2.39-32,1.19-13,2.59-26.09,4.39-39.08,2.48-17.76,5.75-35.35,10.88-52.56A168.45,168.45,0,0,1,41.8,211.55a28.7,28.7,0,0,1,2.42-4.12c6.09-8.15,13.2-15.33,21.86-20.64,4.5-2.76,6.6-6.4,8-11.25A226.1,226.1,0,0,1,92.23,130.2c6.33-11.78,13.88-22.63,24.37-31.18.74-.6,1.4-1.31,2.14-1.92a6.1,6.1,0,0,0,2.3-4.55c.25-5.19,3.15-8.94,7-12.09a26.71,26.71,0,0,1,7-4.12c2.37-1,4.75-1.92,7.14-2.82,14.82-5.62,30-10,45.29-14.24.95-.27,1.87-.64,2.81-1a26.24,26.24,0,0,0-6.84-.12c-4.3.44-8.58,1-12.86,1.52a172.22,172.22,0,0,0-45.81,12C110.14,77.84,97,86.25,86.23,98a340.82,340.82,0,0,0-26,31.37,206,206,0,0,0-24,43.63,295,295,0,0,0-14.51,49.67c-2.33,11.12-4.07,22.34-5.56,33.59C14.94,265.65,14,275,13.09,284.42c-.56,5.73-.81,11.48-1.27,17.22-.83,10.2-1.56,20.4-1.76,30.64-.15,8.15-1.11,16.27-.91,24.44A7.16,7.16,0,0,1,9,358.63a4.12,4.12,0,0,1-.92,2.13c-2.38,1.81-2.36,4.45-2.5,7-.45,8.14-.71,16.29-1.13,24.43-.73,14.26,1,28.45,1.12,42.68a13,13,0,0,0,.38,2.84,4,4,0,0,0,.9,2.17c2.37,1.83,2.28,4.36,2.36,6.94.33,10.7.71,21.41,1.08,32.12,0,.64.06,1.27.11,1.91.53,7.5,1,15,1.61,22.48.7,8.93,1.31,17.86,2.27,26.76,1.2,11.12,2.66,22.22,4.52,33.26,3.31,19.75,7.74,39.22,14.54,58.09a206.7,206.7,0,0,0,21.44,43.34A276.62,276.62,0,0,0,80.08,697.3c3.4,3.81,6.75,7.71,10.46,11.22a111.63,111.63,0,0,0,32.84,21.31c19,8.19,39,12.11,59.52,14C184.74,744,186.61,743.82,188.58,743.82Zm932-31.65H1218c6.15,0,6.17,0,6.18-6.07q0-22.08,0-44.15c0-1,0-1.93,0-2.88-.18-2.25-.76-2.87-2.88-3-1.11-.09-2.24-.07-3.36-.07H1023.51c-6.13,0-6.15,0-6.16,6.09q0,22.08,0,44.16c0,1,0,1.92,0,2.87.16,2.28.71,2.89,2.85,3,1.6.1,3.2.06,4.8.06Zm0-569.33h97.35c6.25,0,6.27,0,6.27-6.45q0-21.58,0-43.16c0-1.44,0-2.88-.15-4.31a2.21,2.21,0,0,0-2.15-2.18c-1.75-.14-3.51-.18-5.26-.18H1024.79c-1.12,0-2.24,0-3.35,0-3.4.14-3.92.65-4.07,3.87,0,.48,0,1,0,1.44q0,23,0,46a21.15,21.15,0,0,0,.15,2.87,2,2,0,0,0,1.87,1.88c1.59.14,3.19.16,4.79.16Zm714.19,257.37q0-33.6,0-67.19c0-1.44,0-2.88,0-4.32,0-1.18-.33-2.3-1.53-2.75-1.81-.69-2.21-2.09-2.29-3.81-.26-5.75-.52-11.5-.87-17.24-.37-5.9-.68-11.82-1.3-17.7-1.06-9.85-2.2-19.7-3.57-29.51-2-14.09-4-28.18-6.27-42.22-2.59-15.94-5.44-31.84-8.29-47.73-1.38-7.72-3-15.39-4.54-23.07-.81-4-1.35-4.38-5.47-4.46-3.84-.07-7.68,0-11.52,0-2.83,0-3.84.79-3.15,4.22,2.83,14,4.47,28.1,6.22,42.22,1.06,8.56,2,17.14,3.39,25.67,2.17,12.92,4.06,25.91,4.24,39.06a16.64,16.64,0,0,0,2.51,8.61,39.55,39.55,0,0,1,5.91,17.09c.39,4.45.65,8.93.81,13.4.33,9.75.35,19.5.93,29.25.6,10,.34,20.13.89,30.2.68,12.61.43,25.26,1,37.89.54,11.81.19,23.65-.42,35.48-.65,12.77-.34,25.58-1.06,38.37-.54,9.57-.29,19.17-.86,28.76-.61,10.21-.51,20.46-1.07,30.68a44.11,44.11,0,0,1-6.59,21.76,12.22,12.22,0,0,0-2.11,6.71,218.49,218.49,0,0,1-3.44,33.37c-1.79,10.73-2.92,21.54-4.3,32.32-1.09,8.56-2.18,17.12-3.43,25.66-.81,5.54-1.9,11-2.84,16.55-.32,1.93.28,2.87,2.13,2.91,4.8.1,9.6.07,14.4.05a3.28,3.28,0,0,0,3.48-2.69c.27-1.08.49-2.18.7-3.28q1.84-9.66,3.68-19.32c5.92-31.27,11.25-62.63,15.31-94.2,2.1-16.33,4.16-32.67,4.78-49.15.17-4.47.48-8.93.72-13.4.07-1.48.21-2.91,1.75-3.67s2.13-2.25,2.1-4c0-1.43,0-2.87,0-4.31ZM804.63,707.55v-.23H931.74c1,0,1.92,0,2.88,0,3.6-.12,3.93-.39,4.92-3.93.12-.46.23-.93.34-1.4,1.87-7.93,3.76-15.86,5.6-23.8,1.45-6.23,2.87-12.46,4.22-18.71.64-2.92.23-3.35-2.76-3.43-.64,0-1.28,0-1.91,0l-39.79,1c-.32,0-.64,0-1,0l-29.19,1.62c-7.18.4-14.36.78-21.53,1.23q-6.7.42-13.38,1c-8.59.8-17.18,1.59-25.76,2.51-12.55,1.34-25.12,2.59-37.63,4.23-22.5,3-44.9,6.56-67.12,11.26-9.85,2.08-19.64,4.43-29.4,6.93-3.16.81-5,2.26-5.58,5.59-.69,3.92-1.82,7.78-2.74,11.66-.15.62-.27,1.25-.36,1.88-.22,1.68.29,2.31,2.09,2.4,1.6.09,3.2.06,4.8.06Zm-.3-616.08v-.14h-9.12l-120-.1a24.84,24.84,0,0,0-3.34.19,1.43,1.43,0,0,0-1.28,1.71,15.1,15.1,0,0,0,.33,1.88c.95,4,2,8.07,2.84,12.15a5.81,5.81,0,0,0,4.94,5c7.79,1.8,15.5,3.94,23.3,5.69q25.05,5.63,50.44,9.41c10.12,1.51,20.26,2.88,30.4,4.22,6.18.82,12.38,1.49,18.58,2.18,7.46.84,14.93,1.73,22.41,2.4,9.55.85,19.12,1.45,28.68,2.24,10.2.84,20.4,1.59,30.63,1.87.8,0,1.61,0,2.4.12,10.67,1.13,21.4.81,32.1,1.47,8.77.55,17.59.32,26.38.41,6.39.07,6.47-.06,5-6.51-2.92-12.46-5.94-24.89-8.7-37.38-1.7-7.68-1.69-6.83-8.32-6.83Q868.16,91.45,804.33,91.47ZM137.08,694.68a4.42,4.42,0,0,0,2.18,2.4c23,16.35,48.67,24.42,76.84,24.69,3.2,0,6.4,0,9.6,0,23.49.34,47,.12,70.5.75,30.68.82,61.39.18,92.09,1,29.89.78,59.79.25,89.69.94,32.45.74,64.92.15,97.37,1,13.1.37,26.22.19,39.34.25,1.43,0,2.87,0,4.31-.12a1.29,1.29,0,0,0,1.28-1.62,12.89,12.89,0,0,0-.41-1.38c-1.8-5.05-2.27-5.42-7.57-5.46-5.75,0-11.51,0-17.27,0a19.17,19.17,0,0,1-6.18-.65c-4.15-1.4-8.48-1.56-12.77-1.79-6.87-.37-13.73-.49-20.6-.93-14-.88-28.09-1.48-42.15-2-13.09-.47-26.18-1.24-39.27-1.84-14.05-.63-28.1-1.31-42.15-2-13.57-.62-27.14-1.17-40.71-1.93q-20.82-1.18-41.66-1.95c-13.58-.5-27.14-1.23-40.71-1.87-13.73-.64-27.47-1.17-41.19-2-6.7-.39-13.41-.47-20.12-.89-14-.9-28.09-1.41-42.14-2-6.39-.28-12.78-.42-19.16-.85-10.21-.68-20.44-.87-30.67-1.3-2.87-.12-5.73-.44-8.61-.52C143.77,694.61,140.59,694.68,137.08,694.68ZM603,84.24h0c3.51,0,7,0,10.55,0,4.14-.06,4.43-.29,6-4.16.23-.59.48-1.19.66-1.8.37-1.19-.07-1.94-1.25-2s-2.55-.07-3.83-.06c-9.11.12-18.22.33-27.33.53-30.85.7-61.72.14-92.58,1-29.57.81-59.16.14-88.74.94-30.53.84-61.08,0-91.62,1-11.66.39-23.35.08-35,.26-17.58.29-35.18-.38-52.76.72a11.93,11.93,0,0,1-2.39,0c-5.27-.76-10.51-.2-15.78.08a127.76,127.76,0,0,0-47.28,11.36,134.16,134.16,0,0,0-22.37,13c-.61.44-1.49.88-1.06,1.85.29.65,1.06.6,1.69.6,1.12,0,2.24,0,3.36-.05,5.74-.28,11.49-.62,17.23-.86,10.71-.45,21.41-.84,32.11-1.25l1.44-.08c9.26-.52,18.51-1.11,27.77-1.54,10.69-.49,21.4-.84,32.1-1.25l1.44-.08c9.89-.53,19.79-1.13,29.68-1.59,10.22-.47,20.45-.82,30.67-1.23l1,0c9.57-.53,19.15-1.12,28.72-1.56,10.54-.49,21.09-.84,31.63-1.25a7.73,7.73,0,0,0,1-.06c9.22-1.18,18.52-.75,27.77-1.46,13.38-1,26.82-1.35,40.23-2,13.73-.64,27.46-1.31,41.19-1.92,6.71-.3,13.41-.45,20.12-.88,14-.89,28.1-1.4,42.15-2,10.22-.45,20.45-.83,30.67-1.2a11,11,0,0,0,6-1.48,10.43,10.43,0,0,1,6-1.48C595.65,84.26,599.33,84.24,603,84.24ZM126.29,711.5a2,2,0,0,0,.39,2.35,18.42,18.42,0,0,0,6.59,6.18,48.48,48.48,0,0,0,6.06,2.85c21.55,8.26,43.67,14.63,66,20.13a33,33,0,0,0,7.61.8c30.23.35,60.46.11,90.69.79,36.3.82,72.61.23,108.92,1,31.83.65,63.67.38,95.51.53,1.6,0,3.2.09,4.79.2,9.91.69,19.83.29,29.74.35a11.36,11.36,0,0,0,1.43-.15c9.35-1.29,18.7-2.52,28-3.9A144.63,144.63,0,0,1,597,740.86c8.16.19,16.32.21,24.48.31,1.28,0,2.56,0,3.84,0,1.5-.08,2.08-.89,1.55-2.2-.78-1.93-1.77-3.77-2.48-5.72-.82-2.26-2.27-3.39-4.68-3.23-.48,0-1,0-1.44,0-27-.3-54.06-.11-81.09-.83-30.22-.79-60.46-.14-90.69-.95s-60.46-.18-90.68-1c-29.9-.78-59.82,0-89.73-1-15.19-.48-30.4-.17-45.59-.25-5.44,0-10.89.28-16.28-.68a4.93,4.93,0,0,0-5.07,1.89,16,16,0,0,1-8.46,5.2,30.32,30.32,0,0,1-11.87,1,88.34,88.34,0,0,1-21.36-5.33,137.43,137.43,0,0,1-27.09-14.34C129,712.9,127.92,711.69,126.29,711.5Zm.12-621.15c1.28.26,2-.74,2.88-1.34a137.51,137.51,0,0,1,15.62-9.39c8.86-4.53,18-8.25,27.88-10.08A41.81,41.81,0,0,1,188,69.05c4,.74,7.83,2.1,10.52,5.27a6.45,6.45,0,0,0,6.38,2.3c7.65-1,15.33-.57,23-.7,24.95-.43,49.89-.08,74.85-.77,31-.87,62-.17,93.07-1,29.42-.79,58.86-.14,88.28-.94,30.7-.83,61.42,0,92.12-1,12.15-.4,24.32-.18,36.47-.25,2.56,0,5.12-.07,7.68-.1a3.43,3.43,0,0,0,3.4-2.18c1-2.2,2-4.37,2.91-6.59.66-1.59.12-2.37-1.78-2.33-6.56.12-13.12-.11-19.66.46a87.14,87.14,0,0,1-16.78.16c-10.81-1.14-21.58-2.6-32.35-4.09a135.59,135.59,0,0,0-21.49-1.61c-9.12.21-18.24.11-27.36.18-26.39.23-52.78,0-79.16.77-9.43.3-18.88.09-28.31.2-24.95.29-49.9.17-74.85.68-37.74.78-75.49,0-113.23,1.11a35.56,35.56,0,0,0-7.62.76,611.47,611.47,0,0,0-59.29,17.68A75.07,75.07,0,0,0,133.4,82a16.42,16.42,0,0,0-6.58,6.14C126.45,88.8,125.94,89.49,126.41,90.35ZM1445,744.72c22.55-.06,45.1.53,67.64-.51,12-.56,24-.45,36-1.08,10.69-.56,21.39-1,32.07-1.92,4.45-.39,8.92-.75,13.37-1.14,7.33-.63,14.67-1.22,21.91-2.51q20.77-3.7,41.53-7.57,30.18-5.6,60.35-11.27c1.88-.35,3.75-.78,5.61-1.25a1.37,1.37,0,0,0,.56-2,3.33,3.33,0,0,0-2.67-1.79c-1.12-.06-2.24-.11-3.36-.06-5.11.22-10.22.52-15.33.71-8.78.32-17.57.29-26.36.85-9.89.62-19.82.38-29.72,1-8.61.56-17.26.35-25.89.88-10.36.64-20.77.41-31.16,1.07-8.45.54-16.93.31-25.4.87-9.73.64-19.49.37-29.24,1-8.93.58-17.89.34-26.84.92-9.57.62-19.18.36-28.76,1-8.93.59-17.9.33-26.85.92-9.56.63-19.17.37-28.76,1-9.25.61-18.53.44-27.8.93-14.37.76-28.77.91-43.15,1.32-1,0-1.92,0-2.88.09-2.53.18-3.14.73-3.26,3.14-.1,1.92-.06,3.84,0,5.76,0,2.08,0,4.16.11,6.23.09,1.6.81,2.23,2.42,2.44a17.64,17.64,0,0,0,1.92.1c12.79.17,25.58.52,38.37.77C1407.89,745,1426.45,744.72,1445,744.72Zm3.55-691.54c-7.84-.2-15.66.43-23.49.56-15.2.24-30.4.28-45.59.28-9.44,0-18.87.45-28.29.81-.64,0-1.29,0-1.92.12-1.85.25-2.61.91-2.65,2.77q-.15,5.76,0,11.52c.05,1.84.8,2.55,2.71,2.7,4.14.33,8.29.64,12.44.79,8.79.31,17.58.3,26.37.84,10.21.63,20.46.42,30.68,1.06,8.29.52,16.62.35,24.93.85,10.37.63,20.78.42,31.16,1.07,8.13.51,16.3.4,24.45.84,10.69.56,21.42.53,32.12,1.11,7.82.42,15.66.39,23.49.8,11,.57,22,.53,33.08,1.13,7.82.42,15.66.41,23.49.79,11.17.54,22.37.69,33.56,1.14,14.54.59,29.09.87,43.64,1.29.63,0,1.28,0,1.91.11,10,1.13,20.15.24,30.2,1.15a3.19,3.19,0,0,0,3.33-2.24c.28-.64.19-1.37-.54-1.57A46.47,46.47,0,0,0,1719,80q-27.57-5.19-55.16-10.34c-13.52-2.53-27-5.11-40.55-7.62-14.8-2.75-29.81-3.78-44.77-5.07-9.56-.81-19.14-1.31-28.72-1.77-9.27-.45-18.54-.69-27.81-.93C1497.5,53.65,1473,54,1448.56,53.18ZM405,702.42c-2.74-.47-4.78-.89-6.83-1.16-17.28-2.26-34.47-5.16-51.63-8.17-23.63-4.15-47.15-8.82-70.61-13.83q-45.29-9.66-90.14-21.12-50-12.71-99.49-27.2c-.71-.21-1.47-.76-2.26,0,.07,1.68,1.2,2.9,2,4.24a367.18,367.18,0,0,0,23.54,33.86,155.8,155.8,0,0,0,16.33,17.54,11.24,11.24,0,0,0,7.72,3.32l2.88.11,32.59,1.26,1.44.07c9.58.53,19.15,1.11,28.73,1.56,10.54.48,21.09.84,31.63,1.26l1,0c9.58.52,19.15,1.11,28.73,1.56,10.54.49,21.09.84,31.63,1.26l1.44.08c9.58.52,19.15,1.11,28.73,1.55,10.7.49,21.41.84,32.11,1.26l1.44.09c9.42.51,18.83,1.08,28.25,1.53,5.43.26,10.88.08,16.29.81A38.21,38.21,0,0,0,405,702.42Zm-4.4-602.08c-5.41,0-9.68-.16-13.93,0-10.06.44-20.1,1.1-30.16,1.56s-20.12.82-30.19,1.22l-.95,0c-10.06.54-20.11,1.14-30.16,1.6-10.38.48-20.77.83-31.15,1.24l-1,0c-9.09.52-18.18,1.11-27.28,1.53-10.86.51-21.72.86-32.59,1.27-.47,0-1,0-1.43.07-8.9,1.16-17.88.87-26.81,1.41-13.56.83-27.14,1.28-40.71,1.94a13.65,13.65,0,0,0-9.36,4,136.35,136.35,0,0,0-12.86,13.57A368.27,368.27,0,0,0,85.37,168a13.14,13.14,0,0,0-1.24,2.56.69.69,0,0,0,.83.87c1.24-.25,2.47-.6,3.69-1,26.21-7.82,52.58-15,79-21.91,51.06-13.33,102.44-25.24,154.3-35.07q29-5.49,58.12-10C386.56,102.45,393,101.49,400.59,100.34ZM1629.52,599.41c-6.4-.16-12.78.47-19.17.57-33.43.53-66.86.1-100.28.92-33.74.82-67.5.13-101.24,1-33.42.82-66.86.12-100.29,1s-66.85.13-100.28,1-67.17.11-100.76,1-67.17.16-100.76.93c-28.78.66-57.59.44-86.38.48-7.06,0-14.06.67-21.07,1.15-4.78.32-9.58.52-14.36,1q-8.34.79-16.71,1.52c-8.6.76-17.21,1.36-25.8,2.27-12.87,1.36-25.73,2.9-38.59,4.42q-23.58,2.78-46.94,7.08c-3,.55-5.95,1.25-8.9,1.95a3,3,0,0,0-2.41,3.16,17.58,17.58,0,0,0,0,1.92c.2,2,1.17,2.86,3.21,2.57,4.43-.65,8.85-1.4,13.27-2.1,10.89-1.74,21.78-3.54,32.68-5.2q18.5-2.8,37-5.4c8.71-1.22,17.44-2.29,26.16-3.36,6.67-.82,13.34-1.6,20-2.25,6.2-.61,12.41-1.27,18.64-1.48,15.5-.5,31-.32,46.53-.62,41.57-.79,83.17-.13,124.75-1,39.66-.83,79.34-.09,119-1,38.69-.84,77.41-.11,116.12-1,38.37-.83,76.77-.1,115.15-1,38.06-.85,76.14.05,114.2-1,15.19-.42,30.4-.19,45.6-.25l58.55-.22a24.75,24.75,0,0,0,6.19-.57,4.34,4.34,0,0,0,3.52-4.46c-.17-1.83-1.63-2.93-4.24-3C1637.84,599.36,1633.68,599.41,1629.52,599.41Zm10.8-397.16c.8,0,1.61.07,2.4,0,2.85-.3,4.15-2.52,3.08-5.15a3.73,3.73,0,0,0-3.55-2.73c-1,0-1.92-.05-2.88-.06-31-.39-62-.12-93.08-.8-38.22-.84-76.46-.15-114.69-1s-76.45-.16-114.68-1c-38.86-.82-77.73-.25-116.6-.94-42.38-.77-84.78-.07-127.16-1.08-5.12-.12-10.24,0-15.36-.07-32.46-.41-64.94.18-97.41-.82-14.22-.44-28.47-.06-42.71-.2-10.07-.1-20.15.35-30.2-.85-7.93-.94-15.93-1.37-23.86-2.35q-20-2.46-39.93-5.34c-16.61-2.4-33.21-5-49.8-7.51-7.9-1.22-15.77-2.62-23.67-3.86-3.57-.56-4.75.56-4.65,4.09.06,2.06.62,2.84,2.63,3.48a24.23,24.23,0,0,0,2.8.66c4.55.88,9.1,1.8,13.67,2.59,13.86,2.41,27.78,4.46,41.77,6,12.86,1.45,25.72,3,38.59,4.37,8.91.92,17.84,1.52,26.76,2.26l13.87,1.15c6.05.5,12.09,1.13,18.16,1.49,11,.65,22.06.56,33.08.8,33.58.7,67.18.16,100.77,1s67.49.13,101.24,1c33.1.81,66.21.16,99.32,1,33.74.81,67.5.17,101.25,1,33.41.79,66.85.16,100.28.95,33.74.8,67.49.24,101.24,1C1574.1,201.93,1607.22,201.46,1640.32,202.25ZM1780,399.06h-.09c0-.64,0-1.28,0-1.92.31-16.79,0-33.57-1-50.34,0-.79-.1-1.59-.17-2.39q-.81-10.52-1.63-21c-.41-5.09-.76-10.2-1.27-15.28-.78-7.63-1.65-15.25-2.52-22.88-1.06-9.36-2-18.75-3.27-28.09-2-14.88-4.2-29.75-6.45-44.6-1.12-7.43-2.48-14.82-3.85-22.2a27.82,27.82,0,0,0-4.25-11.12c-2.92-4.16-6.63-5.44-11.27-3.56-3.55,1.44-7,3.13-10.44,4.85-2.28,1.14-2.5,1.9-1.41,4.2,1.7,3.62,3.59,7.15,5.22,10.79,8.53,19.06,14.37,39,18.8,59.33,3.17,14.54,5.53,29.21,7.37,44,.85,6.82,1.52,13.66,2.13,20.5.51,5.73.74,11.48,1.22,17.22.93,11,1.23,22,1.55,33,.23,8.3.2,16.63.14,24.94-.13,16.62.24,33.25-.73,49.87-.61,10.53-1.19,21.05-1.94,31.58-.58,8-1.4,15.92-2.38,23.84a466.27,466.27,0,0,1-8.39,48.66c-5.11,21.85-11.65,43.22-22,63.24-.51,1-1,2-1.42,3a1.74,1.74,0,0,0,.87,2.43c4.17,2,8.33,4.05,12.57,5.92,3,1.3,5.64.35,8-1.61a14,14,0,0,0,3.64-5,32.29,32.29,0,0,0,2.57-7.72c1.42-7.54,2.82-15.09,4-22.67,1.91-12.48,3.68-25,5.42-37.48,1.14-8.23,2.23-16.47,3.16-24.73,1.18-10.48,2-21,3.27-31.47,1.58-13.5,2.54-27.05,3.35-40.6.71-12,1.52-23.93,1.23-35.94C1779.91,410.26,1780,404.66,1780,399.06ZM104.46,552.36l-.16.44c1.08.24,2.15.54,3.24.73q11.58,2,23.16,4,29.76,5.15,59.54,10.31,25.27,4.39,50.54,8.83,35.21,6.14,70.41,12.21l45.82,8q30,5.21,60,10.38,21.5,3.72,43,7.41a11.77,11.77,0,0,0,2.36.21,1.11,1.11,0,0,0,1.06-1.33,12.57,12.57,0,0,0-.6-2.3c-1.66-5.51-3.38-11-5-16.54-1-3.53-1.8-7.13-2.78-10.67-.84-3-1.52-3.54-4.69-3.8q-11.94-1-23.89-1.93c-9.88-.76-19.76-1.46-29.64-2.22-4.63-.35-9.24-.74-13.86-1.14-5.73-.49-11.46-1-17.19-1.49s-11.48-.78-17.22-1.26c-9.71-.8-19.42-1.73-29.13-2.51-9.88-.8-19.76-1.47-29.64-2.23-4.47-.34-8.92-.75-13.38-1.13-6-.51-12.1-1.05-18.15-1.54-5.58-.45-11.16-.8-16.74-1.26-9.71-.81-19.42-1.72-29.13-2.5-9.88-.79-19.76-1.48-29.64-2.23-4.15-.32-8.29-.68-12.43-1-9.71-.83-19.42-1.69-29.13-2.51q-11-.93-22-1.79C114.33,553.07,109.39,552.73,104.46,552.36Zm.74-303.31c3.91.76,7.68-.11,11.49-.39q14.82-1.11,29.64-2.21c4.46-.35,8.92-.76,13.38-1.14,5.73-.5,11.46-1,17.19-1.49s11.5-.65,17.21-1.31c4.3-.5,8.61-.59,12.91-1,9.39-.84,18.77-1.69,28.17-2.47,5.89-.48,11.8-.81,17.69-1.25,4.31-.32,8.6-.71,12.9-1.08,9.87-.83,19.74-1.71,29.62-2.51,9.71-.78,19.45-1.34,29.15-2.27,4.3-.42,8.61-.59,12.91-1,9.39-.82,18.78-1.71,28.17-2.46,10-.81,20.08-1.48,30.12-2.24,4.46-.34,8.92-.74,13.38-1.13,5.73-.5,11.46-1,17.19-1.51,8.28-.68,16.56-1.37,24.85-2a3.69,3.69,0,0,0,3.76-3c.31-1.24.65-2.48.94-3.72,1.82-7.63,4-15.15,6.48-22.58,1.91-5.72,1.89-5.75-3.91-4.74l-65.67,11.42-94,16.33-88.35,15.35-88.34,15.36Zm1690.27-1c-.66-9.77-1.78-19.62-3.27-29.42A612.44,612.44,0,0,0,1778,152c-.75-2.78-1.61-5.53-2.52-8.26-1-3-1.75-3.5-5-3.14-2.06.23-4.11.65-6.14,1.07-5.14,1.05-5.21,1.11-3.61,6.31,4.3,14.08,7.87,28.36,11,42.73q9.26,42.18,14.6,85c2.22,17.93,3.89,35.91,5.27,53.91,1,12.59,1.69,25.22,1.91,37.84.42,23,.73,46-.43,69.07-.6,12-1.17,23.94-2,35.9s-1.93,23.9-3.29,35.81q-2.94,26-7.24,51.76c-3.66,21.77-8,43.4-13.2,64.84-2.32,9.48-4.77,18.92-7.21,28.37-.58,2.26-.61,3.23,2.26,4.39a26.37,26.37,0,0,0,7.94,1.68c3.46.27,4.28-.21,5.27-3.48,1.54-5,3-10.12,4.31-15.23a571.4,571.4,0,0,0,14.18-73.9c.65-5.39.89-10.83,1.28-16.25a7.18,7.18,0,0,0-1.23-5,7.19,7.19,0,0,1-1-5.48c.78-6.35,1.68-12.69,2.06-19.07.41-7,.4-14.07.4-21.1,0-16.8-.19-33.59-.2-50.39,0-17.75.13-35.5.13-53.26,0-28.79-.24-57.58,0-86.37.14-16,0-32-2.47-47.84a7,7,0,0,1,1.09-5.47,8.38,8.38,0,0,0,1.31-5.48C1795.45,250.06,1795.47,249.1,1795.47,248Zm-141.19-99.39c1.76,0,3.52,0,5.28,0,6.8,0,5.88.25,10.45-4.28,12.61-12.5,24.78-25.44,38-37.34a17.33,17.33,0,0,0,1.34-1.37,1.39,1.39,0,0,0,.37-.85c0-.55-.52-.77-1-.8-4.62-.3-9.24-.66-13.88-.82-9.26-.31-18.53-.33-27.8-.94-8.29-.55-16.61-.37-24.92-.9-9.41-.61-18.86-.41-28.28-1-8.45-.55-16.93-.36-25.4-.91-9.41-.6-18.86-.4-28.28-1-8.13-.54-16.29-.39-24.44-.89-11.49-.7-23-.81-34.52-1.19-5.43-.18-10.88-.18-16.29-.64a23.68,23.68,0,0,0-12.57,2,301.39,301.39,0,0,0-46.94,27,152.57,152.57,0,0,0-20.52,17.29c-.62.63-1.78,1.21-1.23,2.31.39.76,1.43.45,2.2.49s1.28,0,1.92,0c19.18.37,38.37.17,57.56.84,21.41.75,42.85.26,64.27,1,19,.67,38,.25,57.08.89C1609.18,148.23,1631.75,147.5,1654.28,148.62Zm-166,554.11c5-.1,9.9-.55,14.85-.79,9.26-.46,18.53-.35,27.8-1,8.6-.58,17.25-.34,25.88-.92,9.08-.61,18.21-.4,27.32-1,8.44-.56,16.93-.35,25.4-.91,9.56-.62,19.17-.39,28.75-1,8.29-.55,16.62-.4,24.93-.89,12.44-.72,24.92-.87,37.39-1.26,2.23-.07,4.47-.06,6.71-.12a7.89,7.89,0,0,0,1.89-.24.72.72,0,0,0,.43-1.13,19.23,19.23,0,0,0-1.93-2.11q-18.37-18.27-36.77-36.52c-.8-.79-1.62-1.55-2.37-2.38a6.5,6.5,0,0,0-5.52-2.35c-.79,0-1.59,0-2.39,0-14.71.17-29.42.25-44.13.76-19.33.67-38.68.16-58,.91-20.29.8-40.61.32-60.91.92-23.82.7-47.65.38-71.47,1.15-5.92.19-11.84.12-17.76.18-1.11,0-2.23.05-3.35.14a.93.93,0,0,0-.61,1.45,17,17,0,0,0,1.23,1.46,126.32,126.32,0,0,0,14.72,13c16.25,12.35,33.93,22.27,52.4,30.87a18.06,18.06,0,0,0,8.82,1.78C1483.79,702.64,1486,702.73,1488.28,702.73Zm218.23-3.52c-6.23,0-12.46.23-18.69.61-9.09.57-18.21.39-27.31,1-8.45.57-16.93.35-25.4.91-9.57.62-19.17.4-28.76,1-8.29.55-16.61.35-24.92.89-9.4.61-18.85.44-28.27,1-8.13.52-16.29.35-24.44.87-10,.63-20.13.42-30.19,1.08-7.81.51-15.65.34-23.48.84-9.89.64-19.82.42-29.72,1.08-7.65.5-15.33.34-23,.83-10.2.64-20.44.57-30.67,1.07-14.37.71-28.76.91-43.14,1.33-.8,0-1.6.05-2.4.14-1.42.17-2.85.35-4.27.59-.93.16-1.49,1.08-1,1.72,1.75,2.27,3.52,4.54,5.42,6.68a3.64,3.64,0,0,0,2.16.85,23.5,23.5,0,0,0,3.36.07c6.23,0,12.45-.4,18.68-.72,9.1-.48,18.21-.32,27.32-.93,9.4-.62,18.85-.34,28.28-1,9.08-.61,18.21-.32,27.31-.94,9.41-.63,18.85-.36,28.28-1s19.17-.34,28.76-1c9.24-.61,18.53-.34,27.79-1s18.53-.34,27.8-1,18.53-.35,27.8-1,18.53-.35,27.79-1c9.41-.61,18.85-.36,28.28-1s18.85-.41,28.28-.95c12.44-.71,24.92-.84,37.38-1.23,1.28,0,2.56-.07,3.83-.23a2,2,0,0,0,1.82-1.92c.12-2.07.17-4.16.1-6.23-.06-1.9-.77-2.42-2.8-2.33Zm5.33-599.49c1,0,1.92,0,2.88,0,6.83.16,6.74.12,6.61-7,0-.32,0-.64-.08-.95a2.31,2.31,0,0,0-2.11-2.25c-2.7-.31-5.4-.67-8.11-.76-9.59-.31-19.18-.33-28.76-.94-8.93-.57-17.89-.34-26.84-.92-9.56-.61-19.16-.39-28.75-1-9.4-.59-18.85-.36-28.27-1s-18.85-.39-28.28-1c-9.08-.57-18.2-.36-27.31-.94-9.4-.59-18.85-.36-28.27-1-9.09-.59-18.21-.36-27.32-.93-9.56-.6-19.17-.4-28.75-1-9.25-.57-18.53-.35-27.79-.93-9.57-.61-19.17-.39-28.76-1-8.92-.57-17.89-.28-26.83-.93-8.6-.62-17.27,0-25.88-.91a3.55,3.55,0,0,0-3.35,1.44c-1.58,2-3.22,4-4.78,6-1.06,1.38-.56,2.32,1.31,2.4,7.83.35,15.65.7,23.48,1,13.9.45,27.8.84,41.7,1.26.32,0,.64,0,1,.05,11.14,1.18,22.36.52,33.53,1.43,8.27.67,16.6.38,24.91.91,9.57.61,19.17.42,28.75,1,8.29.53,16.61.36,24.92.88,9.72.62,19.49.42,29.23,1.06,7.81.5,15.65.37,23.48.85,9.88.61,19.81.42,29.71,1.06,8,.52,16,.37,24,.86,10,.63,20.12.42,30.18,1.08,7.49.49,15,.38,22.52.83C1690.42,99.15,1701.15,98.72,1711.84,99.72Zm72.44,296c-.16,18.79.3,34.29-.82,49.79-.67,9.25-1.18,18.5-1.92,27.74-1,13.07-2.43,26.1-3.79,39.13-1.52,14.47-3.34,28.9-5.31,43.31s-4.31,28.77-6.58,43.14a119,119,0,0,1-3,14.56,23.46,23.46,0,0,1-5.71,10.4c-3.84,3.83-8.35,5.23-13.59,3.2-1.93-.76-3.82-1.65-5.7-2.52-2.18-1-4.31-2.13-6.5-3.1s-2.65-.77-4,1.14c-2.6,3.64-5.14,7.33-7.74,11-1.38,2-1.29,2.51.82,3.68.56.31,1.14.59,1.72.87,9.63,4.68,19.26,9.39,28.9,14,4.19,2,4.47,1.86,5.76-2.85,6.49-23.77,11.84-47.8,16.41-72,2.87-15.24,5.32-30.55,7.45-45.91q1.71-12.35,3.06-24.75c.88-8.26,1.39-16.56,2.31-24.82,1.28-11.45,1.9-22.95,2.38-34.43.59-14.06,1.41-28.11,1.23-42.19-.15-11.2.26-22.42-.34-33.59-.56-10.53-.38-21.09-1.44-31.61-.7-6.84-.72-13.73-1.33-20.58-1-11.46-2.32-22.89-3.47-34.34-1.42-14.16-3.54-28.23-5.75-42.28a799.64,799.64,0,0,0-17.37-82.08q-1.55-5.81-3.29-11.54c-1.43-4.68-1.61-4.72-5.84-2.7l-.85.43-25.89,12.58c-1.3.63-2.6,1.24-3.86,2-1.76,1-2,1.88-.77,3.43,2.82,3.49,5.28,7.22,7.78,10.94,1.43,2.15,1.86,2.24,4.36,1.07,3.33-1.56,6.59-3.27,10-4.78,7.57-3.39,14.32-1.15,18.4,6a39.64,39.64,0,0,1,4.23,12.18c2.24,11.3,4,22.67,5.68,34.06,1.59,10.75,3.14,21.51,4.53,32.29,1.21,9.35,2.2,18.73,3.26,28.1.84,7.47,1.69,14.93,2.46,22.4.5,4.93.89,9.87,1.27,14.81.43,5.58.74,11.16,1.2,16.74,1,12.75,1.75,25.52,1.73,38.32C1784.27,384.32,1784.28,391.68,1784.28,395.76ZM1234.81,742l.18-.62-2.48-1.37a25.43,25.43,0,0,1-9.5-9.29c-2.62-4.46-1.69-4.79-8.74-4.76h-3.36l-93.59.12-130.54.16c-1.28,0-2.56,0-3.84.08a2.75,2.75,0,0,0-2.82,2.17c-.7,3.11-1.35,6.25-1.92,9.39-.22,1.21.58,2.08,2,2.17,1.92.12,3.84.13,5.76.13q116.14,0,232.29,0a49.55,49.55,0,0,1,14.25,1.54A13.75,13.75,0,0,0,1234.81,742Zm121.61-598.08v.07c4.79,0,9.59-.1,14.37,0a10.36,10.36,0,0,0,7.43-2.67c3.51-3,7.16-5.88,10.79-8.76,15.52-12.29,30.89-24.79,47.32-35.89a7.53,7.53,0,0,0,1.14-.88,1.18,1.18,0,0,0,.41-.78c0-.58-.56-.72-1-.75-4.94-.28-9.88-.61-14.82-.8-4.79-.18-9.61,0-14.37-.38-12-1-24-.26-35.89-1.52-3.27-.34-5.72.79-8.08,3.12-15,14.82-30.1,29.52-45.17,44.26-.8.78-1.55,1.61-2.29,2.45a.88.88,0,0,0,.46,1.48,13.58,13.58,0,0,0,1.91.19ZM1438.58,704c-.21-1.1-1.22-1.38-2-1.91-4-2.89-8.12-5.69-12.11-8.62-15.2-11.2-29.9-23-44.61-34.84-5.18-4.16-3.89-3.83-10.84-3.79q-22.79.13-45.57.36c-1.91,0-3.82.28-5.73.46-.62.06-1.36.11-1.64.75s.31,1.17.76,1.6c1.63,1.53,3.31,3,4.91,4.58,13.85,13.51,27.43,27.29,41.46,40.61a11.31,11.31,0,0,0,9,3.51c8.3-.38,16.61-.44,24.92-.89,12.92-.7,25.87-.87,38.81-1.3C1436.82,704.47,1437.84,704.84,1438.58,704ZM1234.16,57.32c-.11-.1-.22-.28-.32-.28a10.85,10.85,0,0,0-2.36.16c-5,1.34-10.09,1.46-15.23,1.46q-114.68,0-229.35,0c-1.6,0-3.2,0-4.8,0a15.72,15.72,0,0,0-2.37.23A1.79,1.79,0,0,0,978.22,61c.57,3,1.19,6,1.87,8.92a2.55,2.55,0,0,0,2.46,2c1.43.12,2.87.14,4.31.16,37.9.37,75.79,0,113.69.55,38.06.61,76.13.2,114.2.23,1.28,0,2.56,0,3.83-.1a3.08,3.08,0,0,0,2.7-1.71c.39-.7.76-1.41,1.15-2.11a26.41,26.41,0,0,1,10-10.13C1233.05,58.38,1233.94,58.25,1234.16,57.32ZM24.24,401.21h.06v1.91c.15,10.24,0,20.49.53,30.7.65,11.64,1.31,23.29,2.41,34.91q1.43,15,3.42,30c1.8,13.31,4.27,26.51,7.31,39.6a265,265,0,0,0,14.65,45.59c1.08,2.49,2.41,4.88,3.57,7.33a7.29,7.29,0,0,0,6,4.26c1.23.18,1.75-.37,1.37-1.66-.17-.61-.4-1.21-.62-1.81a426.15,426.15,0,0,1-13.81-44.4c-3.88-15.19-7-30.54-9.64-46-2-11.66-3.54-23.38-4.85-35.14-.85-7.62-1.58-15.25-2-22.92-.5-8.61-1.3-17.21-1.52-25.83a556.85,556.85,0,0,1,1.56-60.86c.92-11,1.92-22,3.32-32.9,1.88-14.59,4.21-29.1,7.22-43.51,4.88-23.34,10.78-46.4,19.12-68.78.28-.75.55-1.51.77-2.27s.4-1.6-.33-2.21a2.43,2.43,0,0,0-2.28-.25,5,5,0,0,0-3.1,2.11c-.67,1.09-1.27,2.22-1.87,3.35-6.06,11.53-10.1,23.83-13.64,36.3a406,406,0,0,0-11.32,55.89C29.19,314.3,28,324,27.22,333.69c-.36,4.46-.72,8.92-1,13.39-.53,8.13-1.24,16.26-1.52,24.4C24.36,381.38,24.38,391.3,24.24,401.21Zm1739.42-1.64c0-4.48,0-8.95,0-13.43,0-5.11.12-10.24-.24-15.33-.74-10.67-1.21-21.37-2.59-32-.62-4.75-1.19-9.51-1.92-14.24-.34-2.18-1-2.71-3.16-2.86-1.75-.13-3.52-.1-5.27-.09-6.6,0-6.75.11-6.63,6.72.23,12.46.18,24.92.69,37.38.75,18.35.06,36.74,1.06,55.1.3,5.58.14,11.19.19,16.78.11,12.78.11,25.56.83,38.33a23.57,23.57,0,0,0,.15,2.38c.22,1.57.93,2.41,2.43,2.49a71.46,71.46,0,0,0,7.17,0c1.55-.08,2.12-.77,2.48-2.44.17-.78.23-1.58.36-2.37,1.69-10.9,2.59-21.9,3.31-32.88.7-10.67,1.5-21.36,1.17-32.08C1763.56,407.24,1763.66,403.4,1763.66,399.57Zm-32.32-294.69a54,54,0,0,0-12.87.86,12.53,12.53,0,0,0-5.94,2.91c-2.58,2.38-5.28,4.64-7.78,7.11q-14.82,14.67-29.54,29.44c-.46.45-.92.89-1.34,1.37s-1,1-.62,1.63a2,2,0,0,0,1.2.59c.62.13,1.27.13,1.91.21,7,.83,14,1.24,20.92,2.55,3.14.59,6.37,1,9.24,2.43s5.08.81,7.67-.48c11.3-5.63,22.67-11.11,34-16.66,2.3-1.12,4.58-2.28,6.86-3.42a8.77,8.77,0,0,0,3.28-2.73,4.08,4.08,0,0,0,.37-4.88c-1.61-2.76-3-5.65-4.59-8.42-1.11-1.93-2.43-3.75-3.64-5.63a14.16,14.16,0,0,0-12.43-6.88Zm-912-22.57H969.07c1.75,0,3.52,0,5.27-.13A2.1,2.1,0,0,0,976.42,80c.17-2.42-.77-3.5-3.26-3.71-.63-.06-1.28,0-1.92,0-24.3-.27-48.61-.16-72.91-.85-24.93-.7-49.88-.2-74.83-.92-27-.79-54-.24-81.07-1-22.54-.61-45.1-.37-67.65-.51-1.6,0-3.2-.08-4.8-.11a2.63,2.63,0,0,0-2.47,1.18A9.18,9.18,0,0,1,663.45,78a2,2,0,0,0-1.07,2.43,2,2,0,0,0,2,1.76c1.76.11,3.52.14,5.28.14ZM1731.6,694.1c2.55-.19,5.09-.4,7.64-.56,4.67-.29,8.08-2.7,10.79-6.33a100.27,100.27,0,0,0,9-15.25,3.69,3.69,0,0,0-.21-3.65c-1.06-1.95-2.88-2.9-4.77-3.82q-14.88-7.23-29.73-14.5c-3.59-1.75-7.19-3.49-10.74-5.32a7,7,0,0,0-6.41-.33,36.5,36.5,0,0,1-6.42,1.92,142.22,142.22,0,0,1-23.25,3.07c-1.23.06-2.89-.41-3.53.87-.84,1.68,1,2.52,1.88,3.45q12.32,12.45,24.73,24.77c3.63,3.61,7.36,7.11,11,10.69a13.19,13.19,0,0,0,7.6,3.75C1723.31,693.43,1727.4,694.21,1731.6,694.1ZM821.21,716.43H673.94c-1.76,0-3.53,0-5.28,0a17.62,17.62,0,0,0-3.31.48,2.61,2.61,0,0,0-2.24,2.2,3,3,0,0,0,1.34,3.32,12,12,0,0,1,2.29,1.7,5.13,5.13,0,0,0,3.89,1.55H674c17.74-.29,35.48-.12,53.23-.69,26.2-.82,52.43-.15,78.65-1,26.52-.82,53.07-.06,79.6-1,13.42-.47,26.87-.31,40.3-.31,15.35,0,30.69-.33,46-.8a11,11,0,0,0,3.29-.48c1.24-.43,1.38-1.65,1.31-2.81a1.92,1.92,0,0,0-1.68-2c-1.9-.18-3.82-.24-5.73-.24Zm446.84-4.26h23c1.12,0,2.24,0,3.35,0,3.21-.09,3.55-.66,2-3.24-.41-.69-.86-1.35-1.3-2q-8.43-13.11-16.87-26.21c-4.69-7.25-9.43-14.46-14.06-21.75a5.82,5.82,0,0,0-5.52-3c-5.75.11-11.51,0-17.27,0a13.61,13.61,0,0,0-1.91.12,2.23,2.23,0,0,0-2.2,2.11,19,19,0,0,0-.13,2.39c-.24,15.83.41,31.64.62,47.46a7.46,7.46,0,0,0,0,1c.24,2.33.91,3,3.37,3.13,1.11.07,2.24,0,3.35,0Zm.1-625.62c-7.83,0-15.65,0-23.48,0a41,41,0,0,0-4.3.16,2.55,2.55,0,0,0-2.47,2.48,12.06,12.06,0,0,0-.14,1.9c0,6.71-.27,13.4-.5,20.1-.3,8.46-.1,16.93-.12,25.39,0,1.12,0,2.24.06,3.36.16,2.12.77,2.8,3,2.83,6.39.07,12.77,0,19.16.06a4.69,4.69,0,0,0,4.34-2.44c1.34-2.18,2.73-4.32,4.11-6.47q13.89-21.54,27.77-43.08c.35-.54.71-1.07,1-1.62.91-1.63.53-2.48-1.19-2.61-1-.07-1.91-.07-2.87-.07ZM245.51,667.45l-.27.58c.76.22,1.5.5,2.27.67,15.31,3.31,30.61,6.7,45.95,9.89,25.36,5.27,50.82,10,76.41,14,15.63,2.47,31.29,4.83,47,6.89,12.83,1.69,25.68,3.26,38.6,4.24,4.3.33,8.59.79,12.89,1.16,5.9.49,11.78,1.11,17.68,1.41,10.54.52,21.09.85,31.63,1.26l1.92.08q17.73.87,35.44,1.74c3.19.16,6.38.46,9.57.59,4.8.2,9.59.27,14.39.45a5.3,5.3,0,0,0,5-2.24,14.85,14.85,0,0,1,6.48-4.81c2.34-1,4.71-2,7.14-2.79,21.47-7,43.43-12.08,65.59-16.3,6.44-1.23,12.86-2.49,19.19-4.24,5.85-1.61,11.78-3,17.7-4.33,16.38-3.74,32.89-6.75,49.48-9.32,11.54-1.78,23.09-3.46,34.66-4.93,11.1-1.42,22.23-2.54,33.36-3.73,4.44-.48,8.91-.84,13.37-1.2q8.13-.65,16.26-1.22,12-.87,23.91-1.7c1.45-.1,2.9-.16,4.35-.24a18.11,18.11,0,0,0-4.79-.39c-6.71.09-13.42.46-20.12.75q-15.35.66-30.62,2c-11.95,1-23.86,2.36-35.75,3.91-20.93,2.73-41.75,6.16-62.48,10.11-48.09,9.16-95.67,20.55-142.82,33.71-4.77,1.33-9.55,2.68-14.38,3.76a39.77,39.77,0,0,1-14.31.22c-4.27-.61-8.56-1.1-12.85-1.55-4.77-.5-9.55-.87-14.32-1.35-8-.8-15.9-1.65-23.84-2.47-7.32-.76-14.64-1.47-21.94-2.28-10.17-1.12-20.33-2.31-30.49-3.49-9.05-1-18.1-2.08-27.14-3.21q-17.61-2.19-35.2-4.51-16.17-2.13-32.31-4.4c-9.34-1.32-18.66-2.77-28-4.09-19.47-2.74-38.86-6-58.26-9.21C259,669.76,252.27,668.6,245.51,667.45Zm617,71.86a22.76,22.76,0,0,1-7.23-8.37,5,5,0,0,0-5.43-3c-.79.08-1.6,0-2.4,0-10.7.16-21.4.25-32.1.55-26.67.74-53.35.17-80,1-19.8.59-39.63.33-59.44.46-1.44,0-2.88,0-4.31.19a1,1,0,0,0-.87,1.42c.5,1.34,1.13,2.64,1.76,3.93,2.9,5.85,2.57,5.56,9.11,5.5,25.88-.24,51.76-.13,77.64-.59,32.59-.59,65.2-.32,97.8-.44A12.38,12.38,0,0,0,862.53,739.31ZM739.15,58v-.35H682.52c-1.6,0-3.2,0-4.8.11a3.06,3.06,0,0,0-2.54,1.14,25.34,25.34,0,0,0-3.78,7.7c-.19.71.35,1.2,1,1.37a8.58,8.58,0,0,0,1.89.24c6.08.06,12.15.43,18.21.55,26.55.53,53.11-.06,79.65,1,7.19.29,14.4.1,21.6.15q24,.14,48,.32c2.71,0,5.42.28,8.13.52,2.53.23,4.3-.59,5.38-3a20.08,20.08,0,0,1,4.51-6.17,7.71,7.71,0,0,0,1.2-1.47.7.7,0,0,0-.47-1.11,17,17,0,0,0-2.85-.24c-20.95-.34-41.9,0-62.85-.64C776.28,57.61,757.71,58,739.15,58Zm420,24.28H1329c1.6,0,3.2,0,4.8,0a4.14,4.14,0,0,0,3.63-2c.45-.66,1.12-1.36.88-2.15-.37-1.16-1.54-.88-2.45-.93s-1.6,0-2.4,0L1177.05,77l-162.67-.19a35.07,35.07,0,0,1-3.84-.06c-7.82-.86-15.66-.35-23.49-.48a23,23,0,0,0-2.88.08c-1.81.18-2.56,1-2.53,2.81s.74,2.88,2.37,3,3.51.12,5.27.12ZM672.09,711.74l-.18.39h18.22l281.2,0c1.28,0,2.56,0,3.84-.12a2.27,2.27,0,0,0,2.25-2.09c.35-2.37.73-4.74.94-7.12.49-5.42.89-10.84,1.33-16.25q1.13-13.86,2.26-27.72c0-.16,0-.32,0-.48a2.07,2.07,0,0,0-2-2.29,31.17,31.17,0,0,0-3.35-.14c-5.28,0-10.56,0-15.83,0-5.74,0-5.74,0-7.06,5.44-.27,1.08-.55,2.17-.81,3.26-3.11,13.39-6.27,26.78-9.33,40.18-1.57,6.88-1.7,6.73-8.6,6.73l-63.34.06-176.59.11Zm487,4.69H987.3a28.59,28.59,0,0,0-3.82.22c-1.34.2-2,1.42-2,3.4,0,1.17.68,1.74,2.3,1.84.95.07,1.92.05,2.88.05h33.1c38.22-.06,76.44,0,114.66-.21s76.74.25,115.12-.52c27.82-.56,55.65-.18,83.48-.23,1.43,0,2.87,0,4.3-.19a1,1,0,0,0,.79-1.41c-.66-1.54-1.67-2.76-3.51-2.85s-3.51-.1-5.27-.1ZM796.84,86.6l-.2.51h5.25l133.32.11c1.59,0,3.19,0,4.78.15a2.76,2.76,0,0,1,2.48,2,22.43,22.43,0,0,1,.7,2.29q3,12.84,5.93,25.69c1.69,7.31,3.36,14.64,5.13,21.94.74,3,1.28,3.47,4.23,3.5,6.71.07,13.42.05,20.14.06a11.32,11.32,0,0,0,1.43-.09,2,2,0,0,0,1.93-2.3c-.3-4.78-.62-9.56-1-14.34-.49-6.21-1-12.41-1.57-18.62-.4-4.77-.79-9.55-1.23-14.32a32.39,32.39,0,0,0-.63-3.78c-.46-2.15-1-2.6-3.26-2.75-1.59-.1-3.19-.07-4.79-.07l-168.33,0ZM646.51,75c1.92-.09,3.84-.16,5.75-.27a2.56,2.56,0,0,0,2.66-2.28c.55-3.55,2.27-6.63,3.83-9.78Q672,35.82,685.21,8.9c.42-.86.84-1.73,1.2-2.61.46-1.15,0-2-1.23-1.93-3.65.35-7.34.59-10.94,1.26a23,23,0,0,0-12.83,7,90.05,90.05,0,0,0-8.14,10.05,174.72,174.72,0,0,0-12.48,21c-3.65,7.1-7,14.36-10.39,21.61-1.66,3.57-1.22,4.61,2.23,6.53a24.69,24.69,0,0,0,2.6,1.23A30.38,30.38,0,0,0,646.51,75ZM1807.88,398.45c.26-3.26-.61-9-.78-14.73-.32-11.19-.19-22.38-.83-33.57-.67-11.64-.59-23.33-1-35-.41-12.15-.93-24.29-1.31-36.43-.16-5.56-2.23-10.59-4.71-15.46-.22-.43-.62-.83-1.15-.52a1,1,0,0,0-.34.84c.38,4,.89,7.93,1.19,11.91.53,6.85,1.16,13.71,1.33,20.57.13,5.26-.54,10.53-.56,15.8-.09,19.19-.14,38.39,0,57.58,0,10.23-.36,20.47.56,30.69a29.72,29.72,0,0,1-.18,4.31c-.1,1.75-.3,3.5-.3,5.26q-.09,37.91-.11,75.81a87.5,87.5,0,0,0,.21,9.59c1.18,10.42,0,20.75-.88,31.1-.32,4-.83,7.94-1.22,11.92,0,.47.1,1,.73,1a1.1,1.1,0,0,0,.73-.51,32.32,32.32,0,0,0,4.68-14.46c.38-6.23.53-12.46.87-18.69.53-9.57.5-19.17.93-28.76.71-15.81.83-31.64,1.24-47.47C1807.2,419.82,1807.52,410.39,1807.88,398.45ZM646.59,726a28.64,28.64,0,0,0-11.24,1.92,14.81,14.81,0,0,0-4.57,2.56,2.13,2.13,0,0,0-.7,2.57c.36.89.68,1.8,1.07,2.67,5.94,13.09,12.19,26,20,38.14a82.69,82.69,0,0,0,11.2,14.3,21.26,21.26,0,0,0,7.1,4.79A44.14,44.14,0,0,0,684,795.6c1.51.06,2.09-.79,1.49-2.12-1.45-3.2-2.92-6.39-4.47-9.54q-11.78-23.84-23.58-47.65c-.92-1.86-2.17-3.66-2.35-5.73-.41-4.51-1.28-4.44-5.58-4.57C648.68,726,647.89,726,646.59,726Zm366.52-41.42V663c0-1.28,0-2.56-.07-3.83-.18-2.39-.83-3.14-3.27-3.16q-10.07-.12-20.12,0c-2.41,0-3,.72-3.21,3.22-.35,4.78-.63,9.55-.93,14.33-.12,2.07-.15,4.15-.33,6.22-.78,9.06-1.61,18.11-2.41,27.17a18.33,18.33,0,0,0,0,2.87,2.09,2.09,0,0,0,2.09,2.19,28.61,28.61,0,0,0,3.34.14q9.59,0,19.16,0c5.56,0,5.73-.18,5.76-5.56C1013.14,699.26,1013.11,691.92,1013.11,684.57Zm0-569.27h0q0-11,0-22c0-1.28,0-2.56-.11-3.83a2.62,2.62,0,0,0-2.69-2.77,19,19,0,0,0-2.39-.1q-10.06,0-20.12,0a21.15,21.15,0,0,0-2.87.16,2.19,2.19,0,0,0-2.15,2.16,13.63,13.63,0,0,0,0,2.39c.35,4,.78,7.94,1.08,11.91.6,7.8,1.15,15.6,1.7,23.4.32,4.45.57,8.92.93,13.37.18,2.14.83,2.67,3.08,2.84.63.05,1.27.05,1.91.05,5.59,0,11.18,0,16.77,0,4.47,0,4.82-.39,4.85-5C1013.14,130.31,1013.11,122.8,1013.11,115.3ZM15.83,401.07h.32c0,2.56-.1,5.12,0,7.68q.75,15.08,1.62,30.15c.37,6.55.65,13.1,1.24,19.62,1,11.46,2.27,22.9,3.47,34.34a421.76,421.76,0,0,0,7.84,49.7A232.19,232.19,0,0,0,42.91,582.8c.94,2.2,2,4.37,3.06,6.51A4.5,4.5,0,0,0,50.15,592a.77.77,0,0,0,.86-.91,9.51,9.51,0,0,0-.77-2.23c-6-12.62-10.29-25.83-13.87-39.3C29.88,525.11,26,500.17,23.45,475c-1.29-12.71-2.12-25.48-2.85-38.24-.6-10.53-.74-21.1-.89-31.64-.19-13.41.48-26.84.88-40.27.16-5.26.46-10.54.94-15.79,1.07-11.61,2-23.24,3.41-34.82a501.85,501.85,0,0,1,8.47-49.61c4.1-18,9.25-35.58,17.19-52.28a9.06,9.06,0,0,0,.49-1.35A.93.93,0,0,0,50,209.9a5.44,5.44,0,0,0-4.35,3.35c-1.58,3.67-3.33,7.27-4.78,11-7.59,19.47-12,39.75-15.24,60.33-1.74,11.21-3.07,22.48-4.18,33.78-1.05,10.65-2.19,21.29-2.77,32-.32,5.9-.77,11.8-1.1,17.7C17,379.05,16.41,390.06,15.83,401.07ZM1668.38,65.57l-.31.47c1.23.28,2.46.6,3.71.83L1726.44,77a27.26,27.26,0,0,0,3.79.55c5.76.24,11.44,1.12,17.14,1.88a43.07,43.07,0,0,1,8.87,2,16.55,16.55,0,0,0,6.58,1,29.74,29.74,0,0,1,5.74.14,7,7,0,0,1,6.36,5.66c.15.62.34,1.23.46,1.86,1.8,9.59,4.36,19,6.71,28.46.5,2,1,4,1.49,6,1,3.67,1.19,3.86,4.85,3.93,3,.07,6.08,0,9.11,0,5.06,0,6.17-.18,5.21-6.21A174.75,174.75,0,0,0,1795,91.22a79.34,79.34,0,0,0-3.29-7.44A8.31,8.31,0,0,0,1785,79c-11.19-1.9-22.45-3.27-33.71-4.65-10-1.22-20-2.17-30-3.26-13.5-1.46-27-2.95-40.49-4.39C1676.65,66.26,1672.51,65.94,1668.38,65.57Zm1.8,666.76c2,0,3.2.09,4.39,0,4.14-.37,8.27-.79,12.4-1.22,7.78-.82,15.57-1.67,23.35-2.5,10-1.07,20-2.08,30-3.22s20-2.38,30-3.68c5.07-.66,10.1-1.6,15.16-2.33a7.94,7.94,0,0,0,6-4.25,48.83,48.83,0,0,0,4-9.21,192.61,192.61,0,0,0,6.63-26,49.59,49.59,0,0,0,.86-6.16c.16-2.45-.61-3.41-2.88-3.48-4.32-.12-8.63-.06-12.95,0a3.06,3.06,0,0,0-3.2,2.36c-.23.76-.46,1.53-.65,2.31-2.78,11.16-5.74,22.28-7.92,33.59a23.89,23.89,0,0,1-.59,2.32,6.84,6.84,0,0,1-4.91,4.81,9.7,9.7,0,0,1-4.22.64c-4.62-.95-8.81.52-13.09,1.77a34.81,34.81,0,0,1-5.17,1c-3.8.49-7.62.84-11.43,1.3s-7.63.78-11.4,1.46q-22.17,4-44.3,8.25C1677.16,730.69,1673.94,730.87,1670.18,732.33Zm-337.47-20.51a26.94,26.94,0,0,0-3.88-5.39q-15.09-18.63-30.23-37.21c-2.53-3.1-5.12-6.15-7.51-9.35-2.08-2.78-4.55-4.23-8.15-4-3.34.25-6.71.06-10.07.06-.32,0-.64,0-.95,0-1.08.11-2.42-.36-3.12.7s.39,2,.9,3c.38.7.86,1.35,1.29,2q8.31,12.9,16.63,25.8c4.68,7.25,9.43,14.46,14.05,21.75a5.81,5.81,0,0,0,5.52,3c7.83-.1,15.67,0,23.5-.06A16,16,0,0,0,1332.71,711.82Zm-55.25-569.08v.09c2.08,0,4.17-.11,6.24,0a7.06,7.06,0,0,0,6.53-3.15c3.51-4.56,7.23-9,10.85-13.43q14.37-17.7,28.71-35.39c.6-.75,1.18-1.51,1.71-2.31a1.16,1.16,0,0,0-.75-1.84,25,25,0,0,0-2.87-.18q-9.11,0-18.23,0c-6.73,0-6-.23-9.57,5.25q-14.47,22.35-28.86,44.75-1.31,2-2.46,4.12c-.59,1.07-.13,2,1,2C1272.35,142.78,1274.9,142.74,1277.46,142.74ZM82.93,639a2.46,2.46,0,0,0,0,.89A202.33,202.33,0,0,0,96.16,670.2c5.41,9.86,11.68,19.08,20,26.82a139.66,139.66,0,0,0,32.19,22.4,96.33,96.33,0,0,0,22.91,8.41c5.78,1.26,11.62,2.32,17.55.66a13.17,13.17,0,0,0,4.79-2.12,1.87,1.87,0,0,0,.63-1.19c0-.53-.48-.81-1-.89A167.61,167.61,0,0,1,176,720.22a115.56,115.56,0,0,1-35.43-16.68c-3.38-2.41-6.67-5-9.94-7.53a137.4,137.4,0,0,1-22.9-22.45,377.8,377.8,0,0,1-23.07-32.43C84.16,640.37,84,639.35,82.93,639ZM84,161.8c.54-.77,1.11-1.51,1.6-2.31,4.27-7,9-13.57,13.83-20.15,6.24-8.5,12.64-16.88,20.41-24.1,5-4.68,10.49-8.84,15.89-13.1a115.66,115.66,0,0,1,43.2-21c4.64-1.2,9.33-2.15,14-3.25.69-.17,1.67,0,1.8-1.33a14,14,0,0,0-8.65-3.35,51.77,51.77,0,0,0-17.56,1.7,123.73,123.73,0,0,0-36.58,17.49c-15,10.26-27.23,23.06-35.69,39.34a248.5,248.5,0,0,0-10.4,22.63C84.92,156.68,83.84,159,84,161.8Zm1631.09-3.33c.93.48,1.6-.11,2.27-.42,2.45-1.16,4.87-2.4,7.31-3.6,11.48-5.6,23-11.16,34.43-16.81a81,81,0,0,0,7-4.1c3.48-2.19,4.7-5.53,4.36-9.47a22.87,22.87,0,0,0-1.07-4.65q-2.52-8.25-5.14-16.46c-1.21-3.8-2.6-7.56-3.66-11.4a8.36,8.36,0,0,0-6.09-6.15c-2-.6-4-1.07-6-1.48-1.71-.35-3.46-.56-5.21-.77-3.32-.4-6.65-.78-10-1.12-1.26-.12-2.65-.28-3.61.79-1.71,1.9-3.56,3.88-3.84,6.48a67.22,67.22,0,0,0-.07,9.09,1.81,1.81,0,0,0,2.27,1.86c3.86-.56,7.65.2,11.46.45a17.1,17.1,0,0,1,13.16,6.86,112.91,112.91,0,0,1,10.55,17.66,6.38,6.38,0,0,1-.13,6,11.81,11.81,0,0,1-4.74,5.25c-1,.54-2,1-3,1.53q-18.94,9.27-37.87,18.55C1716.58,157,1715.33,157.12,1715.09,158.47Zm44.28,503.22c1.32,1.91,2.34,3.26,3.21,4.69a7.28,7.28,0,0,1,.07,8.12c-2.56,4.24-4.61,8.76-7.45,12.83a47.42,47.42,0,0,1-4.51,5.58,14.65,14.65,0,0,1-7.84,4.31,37.2,37.2,0,0,1-7.58,1c-1.92,0-3.84,0-5.75,0-3.27.11-3.76.61-3.88,4-.06,1.59,0,3.19,0,4.79a10.39,10.39,0,0,0,1.86,5.81,6.18,6.18,0,0,0,6.28,3.37,145.65,145.65,0,0,0,18-2.36c.78-.15,1.52-.46,2.29-.68a9,9,0,0,0,6.74-6.67c2.31-8,5-15.83,7.48-23.74.72-2.28,1.43-4.57,2-6.9.76-3.27.41-6.47-1.87-9A16.16,16.16,0,0,0,1759.37,661.69ZM602,88.54v-.07c-2.24,0-4.48,0-6.71,0-1.76,0-3.51.15-5.25.34a1.47,1.47,0,0,0-1,.87,1.56,1.56,0,0,0,.39,1.27,14.23,14.23,0,0,0,5.44,3c4.84,1.64,9.68,3.33,14.58,4.76,15.2,4.44,30.63,8,46.1,11.29,3.9.84,7.85,1.51,11.8,2.1,2.06.31,3-.81,2.55-2.88-1.37-5.75-2.87-11.47-4.34-17.19a8.77,8.77,0,0,0-.72-1.77,3,3,0,0,0-2.25-1.6c-2.54-.43-3.9.15-5.19,2.35a28.14,28.14,0,0,0-1.32,2.56,7.56,7.56,0,0,1-4.6,3.94,15.7,15.7,0,0,1-4.7.83c-2.71.13-5.41.4-8.13.5-4.95.18-9.9.4-14.86.37-4.24,0-6.9-2.24-8-6.25-.16-.61-.17-1.27-.31-1.89-.44-1.88-.93-2.41-2.95-2.47C609.07,88.46,605.55,88.54,602,88.54Zm864.16,615,.12-.7a9.3,9.3,0,0,0-1.19-.77c-7.38-3.47-14.57-7.32-21.62-11.43-16.1-9.36-31.29-19.93-44.07-33.65-.33-.35-.69-.67-1-1a5.19,5.19,0,0,0-4.28-1.76c-3.19.05-6.39.05-9.59.07a1,1,0,0,0-.47.06,1.65,1.65,0,0,0-.77.47,1,1,0,0,0,.33,1.24c.83.76,1.67,1.49,2.54,2.2,2.61,2.11,5.24,4.2,7.86,6.3,13.5,10.78,27.06,21.48,41.19,31.43,3.14,2.21,6.43,4.19,9.68,6.22a10.66,10.66,0,0,0,5.94,1.62Zm-83.1-560.56c.11.32.23.65.35,1a105.91,105.91,0,0,0,11.41.14,5,5,0,0,0,3.4-1.57c.69-.67,1.38-1.34,2-2A167.54,167.54,0,0,1,1426,119a280.94,280.94,0,0,1,36-21c1.22-.61,2.69-.91,3.8-2.6-4.4-.32-8.48-.54-12.54-.93a14.19,14.19,0,0,0-9.52,2.52c-3.72,2.48-7.48,4.91-11.13,7.49-13.46,9.48-26.25,19.84-39.19,30C1389.89,137.19,1386.52,140.1,1383.09,142.93ZM669.47,690.2c-.13-1-.62-1.37-1.31-1.37a13.52,13.52,0,0,0-2.36.32q-29,5.33-57.39,13.55c-4.6,1.33-9.13,2.95-13.65,4.54a10.52,10.52,0,0,0-4.55,2.56.76.76,0,0,0,.24,1.2,2.84,2.84,0,0,0,1.36.38c6.88,0,13.75.08,20.63,0,2.21,0,2.4-.36,2.88-2.94,1-5.31,3.76-7.64,9.22-7.72q1,0,1.92,0c7,.31,14,.61,21.08.94a11.84,11.84,0,0,1,2.37.31c3.06.76,5.69,2.1,7,5.26a11.63,11.63,0,0,0,1.41,2.5,3.73,3.73,0,0,0,6.56-.71,13.86,13.86,0,0,0,.76-2.28q1.83-7.44,3.62-14.91A15,15,0,0,0,669.47,690.2Zm581.23-636v.48c1.19,0,2.38,0,3.57,0l35.44.1A42.61,42.61,0,0,1,1301,56.38c7.46,2.1,13.4,6,15.83,13.83a3.68,3.68,0,0,0,4,2.74h17.72a6.16,6.16,0,0,0,1-.07c1.81-.24,2.61-.91,2.65-2.77.08-4.47,0-8.94,0-13.41a2.72,2.72,0,0,0-.08-.47,2.13,2.13,0,0,0-1.89-1.88c-1.42-.14-2.86-.16-4.3-.16H1250.7Zm34.71,689.16-.05.46a6,6,0,0,0,.93.15q25.39,0,50.8.06a21.13,21.13,0,0,0,2.39-.09c1.83-.21,2.64-.89,2.68-2.74q.16-6.47,0-12.94c0-2.21-.74-2.84-2.9-3-6.4-.38-12.76.63-19.15.62a3.3,3.3,0,0,0-3.19,2.46c-.28.74-.56,1.49-.88,2.22a17.94,17.94,0,0,1-7.12,8.19,29.23,29.23,0,0,1-14.46,4.55C1291.47,743.45,1288.44,743.35,1285.41,743.35ZM628,94.88c6.94-.32,13-.59,19-.88a11,11,0,0,0,1.9-.22,5,5,0,0,0,3.42-2.39c1.59-2.74,2.85-5.64,5-8.09,1.53-1.74-.06-4.21-2.49-4.23a34.64,34.64,0,0,0-4.77.32,25.49,25.49,0,0,1-5.24,0c-5.8-.47-11.34-1.69-16.31-4.91a1.4,1.4,0,0,0-2.34.68c-2,4.85-4.07,9.7-5.89,14.63-1,2.75.41,4.78,3.31,5A40.25,40.25,0,0,0,628,94.88Zm635.51-31.66h15.8a15.55,15.55,0,0,1,11.12,4.8,10.15,10.15,0,0,1,1.27,1.44c1.43,2.06,3.45,2.64,5.83,2.57,2.56-.08,5.11,0,7.66,0,1.44,0,2.88,0,4.31-.06,2.64-.18,3.25-1.49,1.85-3.84a13,13,0,0,0-4.31-4.42,24.31,24.31,0,0,0-11.64-4c-3.5-.2-7-.6-10.5-.63-13.88-.13-27.77-.61-41.63.67a20.46,20.46,0,0,0-13.17,6.1c-1.34,1.36-2.79,2.66-3.5,4.5a1,1,0,0,0,.76,1.47c3.36.42,6.51.71,8.88-2.82,2.75-4.1,6.91-5.92,11.94-5.8S1258.43,63.22,1263.54,63.22Zm5.93,675.9h0c7.84,0,15.67.06,23.51,0a25.52,25.52,0,0,0,14.06-4.18,12.21,12.21,0,0,0,4.86-5.78c.69-1.72.06-2.83-1.88-2.88-3.83-.1-7.68.09-11.51-.12a7.55,7.55,0,0,0-7,3.19c-3.48,4.48-8.26,6.31-13.91,6.19-5.27-.11-10.55,0-15.83,0-4.32,0-8.64-.06-13,0a15.24,15.24,0,0,1-12.88-6.2,13.87,13.87,0,0,1-.87-1.15,4.29,4.29,0,0,0-4.1-2c-1,0-1.92,0-2.88,0-1.51.07-2,.93-1.35,2.2a18.79,18.79,0,0,0,7.32,7.42,23.59,23.59,0,0,0,11.9,3.25C1253.8,739.14,1261.63,739.12,1269.47,739.12ZM902.11,59v-.11h-11c-5.27,0-10.56-.22-15.82,0-6.91.34-12,4-15.57,9.76a1.31,1.31,0,0,0,1.09,2.07c3.48.42,6.42.05,8.72-3.33,2.56-3.77,6.49-5.38,11.21-5.3,10.22.18,20.46.13,30.69.15a16.85,16.85,0,0,1,9.12,2.5,16.09,16.09,0,0,1,4.21,3.89,6.3,6.3,0,0,0,5.36,2.57c2.87,0,5.74.32,8.61.45,1.43.07,2.88.1,4.31,0,2.17-.09,2.72-1.12,1.75-3.19a14,14,0,0,0-5.88-6.13A22.94,22.94,0,0,0,927.05,59C918.74,59,910.42,59,902.11,59ZM648.7,720.87c2.24,0,4.48.07,6.72,0,1.73-.07,2.8-1.88,1.71-3-2.18-2.24-3.33-5.05-4.75-7.72a5.58,5.58,0,0,0-4.56-3.09c-1.27-.14-2.56-.14-3.83-.18-5.12-.15-10.24-.08-15.34-.72a22.49,22.49,0,0,0-5.25,0,2.93,2.93,0,0,0-2.61,3.43,11.67,11.67,0,0,0,.74,2.75c.82,2.25,1.69,4.49,2.57,6.71.65,1.64,1.28,3.28,2,4.87s1.67,1.83,3.12,1C635.32,721.5,641.86,720.46,648.7,720.87Zm238,19.07c5.65.41,12.64-.75,19.69-.62s14.39-.05,21.59,0A20.72,20.72,0,0,0,939.38,736a13.23,13.23,0,0,0,5.55-6.42c.6-1.54,0-2.5-1.69-2.53-4.15-.07-8.31,0-12.47-.05a6.83,6.83,0,0,0-6.13,2.94,15.8,15.8,0,0,1-12.85,6.44c-10.55.16-21.11.17-31.66.2a13.46,13.46,0,0,1-9.83-4.32,22,22,0,0,1-2.17-2.55,4.29,4.29,0,0,0-3.72-1.81c-1.12,0-2.24,0-3.35.07-1.44.11-1.95,1.11-1.13,2.34,3.88,5.81,9.26,9.17,16.3,9.57C879.26,740.08,882.3,739.94,886.74,739.94Zm475.1-33.18c-1.56-1.64-2.69-2.93-3.92-4.13-7.11-6.91-14.27-13.76-21.36-20.69s-14.34-14.15-21.51-21.23c-1.25-1.23-2.5-2.47-3.82-3.64s-2.74-1.37-2.92-.68c-.3,1.15.66,1.7,1.26,2.37,6.28,7,12.58,14.06,18.86,21.1,6.81,7.64,13.55,15.33,20.41,22.93,4.47,5,4.54,4.89,11.22,4.48A14,14,0,0,0,1361.84,706.76Zm-4.77-615.44a7.48,7.48,0,0,0-7,2.77c-13.1,14.81-26.32,29.52-39.48,44.27-.75.83-1.45,1.7-2.12,2.6-.36.49-.83,1.15,0,1.61a1.63,1.63,0,0,0,1.33-.22,16.69,16.69,0,0,0,2.2-1.83c7.79-7.54,15.6-15.07,23.35-22.65s15.71-15.42,23.53-23.16c.84-.83,2.64-1.35,2-2.8-.43-1-2-.46-3.11-.59C1357.63,91.3,1357.47,91.32,1357.07,91.32ZM942.75,59.6c3.68,3.1,6,6.28,7.19,10.2.51,1.7,1.85,2,3.38,2,5.11,0,10.22.11,15.32.14,7.31,0,7.31,0,5.82-7.23-1-4.71-1.4-5.11-6.38-5.13C960,59.57,951.83,59.6,942.75,59.6Zm15.17,679.52v0c2.71,0,5.42,0,8.13,0,1.43,0,2.86-.08,4.3-.11a3.27,3.27,0,0,0,3.46-2.68q.68-2.79,1.13-5.61c.52-3.27,0-3.92-3.45-4-4.3-.06-8.61,0-12.91.06-1.75,0-3.5.07-5.26.07a3.32,3.32,0,0,0-3.58,2.51,20.74,20.74,0,0,1-5,8.05c-.69.72-.28,1.63.75,1.64C949.63,739.15,953.77,739.12,957.92,739.12ZM661.49,73.52a1.57,1.57,0,0,0,1.57-1.3c.67-3,2.38-5.58,3.67-8.31,2.33-4.91,5.38-9.43,7.91-14.2,7.19-13.55,13.83-27.4,20.69-41.13a16,16,0,0,0,.76-1.75c.36-1-.35-1.78-1.53-1.82a3.31,3.31,0,0,0-3.24,1.62c-.41.68-.81,1.38-1.16,2.09q-14.73,29.91-29.42,59.82a18.07,18.07,0,0,0-1.16,3.13C659.32,72.59,660.23,73.51,661.49,73.52Zm567,610.35q0,11.28,0,22.55a32.53,32.53,0,0,0,.17,3.83,1.84,1.84,0,0,0,2,1.72,1.89,1.89,0,0,0,2.13-1.53,21.14,21.14,0,0,0,.31-3.81q0-22.78-.13-45.58a22.89,22.89,0,0,0-.14-2.87,2,2,0,0,0-2.23-2c-1.18.06-1.85.77-2,2.26-.1,1.28-.09,2.56-.09,3.84Q1228.44,673.08,1228.45,683.87Zm0-569c0,7.52,0,15,0,22.55a25.63,25.63,0,0,0,.26,3.82,1.71,1.71,0,0,0,1.73,1.37,1.9,1.9,0,0,0,2.16-1.46,36.23,36.23,0,0,0,.27-4.3q.09-17.26.14-34.55c0-3.51,0-7,0-10.55a19.45,19.45,0,0,0-.3-3.33,1.93,1.93,0,0,0-2.08-1.62,1.86,1.86,0,0,0-2,1.69,34.83,34.83,0,0,0-.19,3.83Q1228.44,103.62,1228.45,114.9ZM661.28,728.32a1.14,1.14,0,0,0-.85,1.49,33.34,33.34,0,0,0,1.64,4q9.13,18.71,18.33,37.38,5.07,10.3,10.19,20.59a21.08,21.08,0,0,0,1.71,2.85,2,2,0,0,0,2.61.14,1.41,1.41,0,0,0,.31-1.73c-.3-.74-.64-1.47-1-2.18q-14.76-29.54-29.55-59.06a20.6,20.6,0,0,0-1.73-2.85A1.51,1.51,0,0,0,661.28,728.32ZM1263.74,72.87v.06c6.37,0,12.75,0,19.12,0,1.28,0,2.55-.08,3.82-.18a1,1,0,0,0,.68-1.47,7.29,7.29,0,0,0-.92-1.08,10.78,10.78,0,0,0-7.45-2.71c-10.2,0-20.4,0-30.6,0-.64,0-1.28,0-1.91.08a9.34,9.34,0,0,0-5.89,2.87c-.46.46-.85,1-.48,1.68a1.84,1.84,0,0,0,1.16.64,15.69,15.69,0,0,0,2.38.1Zm.47,653c-6.23,0-12.46,0-18.7,0-1.43,0-2.87.07-4.31.16-.46,0-1,.2-1,.77a2.18,2.18,0,0,0,.49,1.27,7.53,7.53,0,0,0,1.4,1.3c2.16,1.61,4.65,1.93,7.27,1.93,9.27,0,18.54,0,27.81,0a18.6,18.6,0,0,0,3.81-.29,10.11,10.11,0,0,0,6.2-3.35c.42-.52.2-1.48-.41-1.55-1.11-.11-2.22-.21-3.33-.21C1277,725.83,1270.61,725.84,1264.21,725.84Zm508.73-60.5c.52,1.38.76,2.14,1.08,2.86a12.46,12.46,0,0,1,.36,9.35c-.4,1.22-.74,2.45-1.13,3.67q-3.93,12.35-7.86,24.69a36.85,36.85,0,0,0-1.05,3.69,1.84,1.84,0,0,0,2.14,2.37c2.84-.24,4-1.3,4.71-4.52,1.25-5.46,2.42-10.93,3.71-16.38,1.33-5.6,2.83-11.16,4.12-16.77C1780.17,669.29,1778.82,667.23,1772.94,665.34Zm2.32-540.7c-.11.91-.13,1.4-.24,1.86-.34,1.39-.74,2.77-1.09,4.17-.17.71-.83,1.59.14,2.06.41.2,1.24-.17,1.74-.5,3.54-2.31,4.17-4.19,3.13-8.54-2.59-10.72-5.13-21.46-7.7-32.18a18.74,18.74,0,0,0-.47-1.86c-.82-2.35-2.29-3.22-4.81-2.89a1.78,1.78,0,0,0-1.57,2c.22,1.09.55,2.17.88,3.24Q1769.65,106,1774,120C1774.55,121.62,1774.92,123.33,1775.26,124.64ZM895.71,732.36v-.14h13.88a19.45,19.45,0,0,0,5.67-.73,10.87,10.87,0,0,0,4.86-2.91,1.07,1.07,0,0,0,.28-.83.92.92,0,0,0-.63-.57c-1.11-.08-2.23-.11-3.35-.08-8.92.19-17.84.43-26.77.61-4.14.09-8.29.07-12.43.11-1,0-1.92,0-2.87.15a1.13,1.13,0,0,0-.75.46c-.31.47-.06.92.31,1.26a10.48,10.48,0,0,0,7.45,2.67C886.14,732.32,890.93,732.36,895.71,732.36Zm399.65-76.17c-.23.11-.45.15-.49.25-.09.28-.24.67-.12.86.8,1.19,1.61,2.38,2.51,3.49q12.23,15.11,24.48,30.19,5.9,7.26,11.81,14.52c.91,1.11,1.75,2.33,3.34,2.56a1.87,1.87,0,0,0,1.78-.44,1.32,1.32,0,0,0,0-1.74,15.63,15.63,0,0,0-1.16-1.52q-19.12-22.49-38.25-45a30.24,30.24,0,0,0-2.7-2.73A3.63,3.63,0,0,0,1295.36,656.19Zm-.18-513.55a3.49,3.49,0,0,0,1.2-.47,26.3,26.3,0,0,0,2.31-2.41q9.76-11.47,19.52-23t19.46-23c.51-.61,1-1.24,1.44-1.9s-.09-1.22-.87-1.29a3.81,3.81,0,0,0-3.48,1.13c-1,1.08-1.9,2.16-2.8,3.28q-18.11,22.29-36.17,44.59a14.54,14.54,0,0,0-1.34,2c-.1.19.1.57.22.83S1294.93,142.52,1295.18,142.64ZM896.37,70.92v.24c6.37,0,12.74,0,19.12,0q1.66,0,3.33-.15a1.13,1.13,0,0,0,.71-.53,1,1,0,0,0-.36-1.25,11.58,11.58,0,0,0-7.95-2.7c-9.88,0-19.75-.09-29.63-.11a18.51,18.51,0,0,0-3.33.21,6.87,6.87,0,0,0-4.75,2.91.7.7,0,0,0,.43,1.12,15,15,0,0,0,2.84.26C883.31,70.93,889.84,70.92,896.37,70.92Zm404.89,71,.58.56a5.77,5.77,0,0,0,1.17-.73c2.11-2.19,4.22-4.36,6.25-6.63q15.33-17.13,30.62-34.32c2.44-2.75,4.83-5.54,7.21-8.33a.89.89,0,0,0,0-1.28,2,2,0,0,0-1.31-.37c-1.6.17-2.37,1.49-3.29,2.57q-15.7,18.42-31.4,36.84C1307.78,134.09,1304.53,138,1301.26,141.9ZM1347,706.78c0-.31,0-.7-.13-.92-.86-1.15-1.72-2.3-2.67-3.37q-18.23-20.36-36.51-40.64c-1.66-1.84-2.67-4.42-5.35-5.23,0,0-.3.26-.27.34.81,2.55,3,4,4.64,6q17.27,20.54,34.7,40.94a24.16,24.16,0,0,0,3.07,3,3.29,3.29,0,0,0,1.8.41C1346.5,707.3,1346.75,707,1347,706.78ZM53.46,203.62c.6.7,1.23.45,1.82.29,2.92-.77,5.82-1.64,8.76-2.32a4.18,4.18,0,0,0,3.37-3c.71-2.28,1.49-4.53,2.19-6.81a1.64,1.64,0,0,0-.1-1.31c-.54-.52-1.19-.1-1.7.24A72.11,72.11,0,0,0,54,202.46,4.47,4.47,0,0,0,53.46,203.62Zm.18,394.22c-.11.44-.23.64-.17.71a57.79,57.79,0,0,0,14.94,13.07,1.05,1.05,0,0,0,.9,0,1,1,0,0,0,.33-1.25c-.7-2.27-1.44-4.53-2.16-6.8a4.1,4.1,0,0,0-2.91-2.9C60.94,599.7,57.28,598.79,53.64,597.84ZM1715.37,640.2c.13.27.19.67.39.77q18.27,9,36.57,17.84c.2.09.56-.13.84-.21-.12-.27-.18-.68-.39-.78q-18.27-9-36.56-17.84C1716,639.89,1715.66,640.12,1715.37,640.2Zm67.12,7.9c-1.41,4.63-2.57,8.41-3.69,12.21a.75.75,0,0,0,.58,1.05,1,1,0,0,0,.75-.44C1781.16,658.88,1782.35,652.67,1782.49,648.1Zm-887.91,4.45-.12-.15H887v.15Zm356.13,91.26.12-.07a3.34,3.34,0,0,0-.88-.25c-1.71,0-3.43,0-5.14,0v.34Z"/><path d="M1292.53,506.3H969q-3.12,0-6.24-.16a2.32,2.32,0,0,1-2.26-2.11,25.54,25.54,0,0,1-.26-3.82q0-24.48,0-49c0-5.7.3-5.94,6-6h649.43c2.08,0,4.17,0,6.24.13a2.44,2.44,0,0,1,2.53,2.38,25.75,25.75,0,0,1,.24,3.83q0,24.24,0,48.48a25.71,25.71,0,0,1-.39,4.28,2.13,2.13,0,0,1-2,1.78c-.79.09-1.59.15-2.39.17-1.6,0-3.2,0-4.8,0Zm-.51-56.81H970c-5.43.06-5.56.17-5.57,5.76q0,20.63,0,41.27c0,.64,0,1.28,0,1.92.16,2.85.66,3.42,3.37,3.56,1.92.1,3.84.05,5.76.05h640.17c6-.05,6.17-.18,6.18-6.24q0-20.15,0-40.31a27.52,27.52,0,0,0-.09-2.87c-.22-2.13-.91-2.9-3-3s-3.84-.1-5.76-.1Z"/><path d="M1292.57,357.39H969.11c-1.91,0-3.84,0-5.75-.11s-2.78-.93-3-3a31.16,31.16,0,0,1-.1-3.35q0-24,0-48c0-6.35.17-6.48,6.41-6.52H1615c2.08,0,4.16,0,6.23.07,2.36.12,3,.82,3.3,3.23a31.35,31.35,0,0,1,.11,3.36q0,23.74,0,47.51a29,29,0,0,1-.43,4.75,2.21,2.21,0,0,1-2,1.83,17.13,17.13,0,0,1-2.38.23c-1.76,0-3.52,0-5.28,0Zm-.83-4.2h322c6,0,6.18-.14,6.19-6.2q0-19.91,0-39.83c0-.64,0-1.28,0-1.92-.16-3.88-.73-4.49-4.44-4.64-1.6-.07-3.2,0-4.8,0H970c-5.35.08-5.56.26-5.57,5.81q0,20.64,0,41.28c0,.79,0,1.6,0,2.39.18,2.41.75,3,3.31,3.1,1.75.09,3.52.05,5.28.05Z"/><path d="M784,559.94c-4.46,0-8.93.08-13.39,0a9,9,0,0,1-8.42-11.64,22.25,22.25,0,0,1,1.26-3.09,7.43,7.43,0,0,1,7.53-4.73c8.92.16,17.85,0,26.78,0a10.39,10.39,0,0,1,5.11,1A8.89,8.89,0,0,1,807.07,553a14.16,14.16,0,0,1-2.5,4,7.41,7.41,0,0,1-6.21,3c-4.78-.1-9.56,0-14.35,0Zm.59-4.27c4.15,0,8.3-.06,12.44,0,2.77,0,4.49-1.33,5.7-3.61,1.66-3.12.35-6.2-3.1-7.05a16.12,16.12,0,0,0-3.81-.27c-7.5,0-15,0-22.5,0-1,0-1.91,0-2.87.08a2.94,2.94,0,0,0-2.14.91c-1.67,1.9-2.57,4-1.78,6.6.73,2.35,2,3.26,5.13,3.31C776,555.73,780.29,555.68,784.6,555.67Z"/><path d="M658.84,399.54c.14,5.92.23,11.84.42,17.75.07,1.91.39,3.82.64,5.72.31,2.33,1.79,3.61,3.94,4.34a17.73,17.73,0,0,0,5.7.6h32.15c1.44,0,2.88,0,4.32.06,2.58.16,3.26.83,3.7,3.47.07.47.11.95.14,1.43.39,6.23.72,12.45,1.16,18.67s1,12.42,1.51,18.64q.59,7.15,1.18,14.33c.73,8.92,1.35,17.85,2.21,26.76,1,10.66,2.3,21.29,3.39,31.94,1.12,11,2.53,21.92,4.15,32.83,1.56,10.43,3.14,20.87,5.73,31.11a91.59,91.59,0,0,0,3.71,11.9c1,2.57.62,3.35-2.14,4.11-3.86,1.06-7.75,2-11.62,3Q675.86,637,632.58,647.88c-2.94.74-5.85,1.64-8.73,2.59A66.31,66.31,0,0,1,602.64,654c-16,0-30-5.54-42-16.11a94,94,0,0,1-20.48-26.4C533,598.12,528,584,524.31,569.33a399.15,399.15,0,0,1-7.63-41c-1.73-12-3.52-24-5.21-36.07q-2.34-16.62-4.53-33.26c-1.06-7.92-2.18-15.84-3-23.79-.71-6.67-1.36-13.37-1.51-20.07-.24-10.55-.28-21.12,0-31.66a243.54,243.54,0,0,1,2.32-27.22c1.5-10.45,2.74-20.92,4.19-31.37,1.73-12.51,3.54-25,5.35-37.51,1.39-9.65,2.77-19.3,4.27-28.94,3.07-19.8,7.51-39.26,15.31-57.81a121.93,121.93,0,0,1,15.86-27.86A76.29,76.29,0,0,1,571,153.64a62.84,62.84,0,0,1,23.45-8c10.73-1.55,21,.06,31.13,3.57,1.66.58,3.35,1.07,5.06,1.49l94.91,23.83c1.71.43,3.43.8,5.12,1.31,2.76.83,3.21,1.57,2.16,4.12a102.2,102.2,0,0,0-5.22,18.44c-2.13,10.17-3.76,20.44-5.09,30.75Q720.14,248,718,266.78c-.91,8.1-1.54,16.23-2.29,24.35-.84,9.07-1.69,18.14-2.5,27.21q-.6,6.69-1.07,13.38c-.45,6.22-.83,12.44-1.24,18.66q-.52,8.13-1.07,16.27a12.59,12.59,0,0,1-.42,2.35,2.23,2.23,0,0,1-2,1.79c-1.43.13-2.87.19-4.3.19q-15.84,0-31.67,0a37.44,37.44,0,0,0-6.68.58c-2.89.51-4.63,2-5,5-.17,1.59-.46,3.17-.51,4.76C659.09,387.39,659,393.47,658.84,399.54Zm25.47-32.78v0c5.76,0,11.52.06,17.27,0,3.38,0,3.91-.61,4.12-3.87.18-2.87.23-5.75.45-8.62.45-6.06,1-12.1,1.47-18.16s.81-12.12,1.26-18.18c.31-4.14.67-8.29,1.06-12.42q1.2-12.4,2.46-24.81c1.05-10.5,2-21,3.23-31.48,1.59-13.18,3.2-26.35,5.53-39.42,1.46-8.18,2.85-16.39,5.32-24.35,1.8-5.8,1.78-5.82-4.22-7.32-23.43-5.86-46.87-11.66-70.27-17.61-10.85-2.76-21.75-5.26-32.45-8.63a57.58,57.58,0,0,0-28.45-1.27c-11.16,2.14-20.68,7.44-29,15.06-9.6,8.8-16.45,19.53-21.86,31.24-8.24,17.85-13.16,36.7-16.4,56-1.61,9.61-3,19.27-4.39,28.92q-2.69,18.27-5.24,36.56c-1.53,10.92-2.93,21.86-4.46,32.78a323,323,0,0,0-3.2,39.65c-.18,11.51-.29,23,.83,34.52.49,5.09.8,10.2,1.42,15.27,1.06,8.73,2.28,17.44,3.47,26.15,1.4,10.29,2.8,20.59,4.28,30.87,1.71,11.87,3.55,23.72,5.24,35.59a317.53,317.53,0,0,0,7.1,36.71c3.4,12.86,7.62,25.43,13.77,37.28A94.12,94.12,0,0,0,563,634.26a57.84,57.84,0,0,0,16.42,10.66c14.36,6,28.9,6.23,43.59,1.3,2.12-.71,4.26-1.4,6.42-2Q675.74,632.59,722,621c1.09-.27,2.18-.52,3.24-.87,2.17-.71,2.61-1.46,2.1-3.53-.23-.93-.58-1.83-.82-2.76-.89-3.4-1.84-6.79-2.61-10.22-2.34-10.46-4-21.05-5.48-31.65-1.14-8.07-2.1-16.17-3.05-24.27-.83-7.14-1.56-14.3-2.29-21.45-.84-8.27-1.72-16.54-2.45-24.82-.81-9.23-1.33-18.49-2.27-27.72-.46-4.46-.61-8.93-1-13.39-.59-7-1.21-14-1.57-21-.36-7.23,0-7-7.36-7-9.76,0-19.52,0-29.27,0a21.25,21.25,0,0,1-7.56-1.11,9,9,0,0,1-6.21-7.29,45.88,45.88,0,0,1-.43-5.25c-.22-5.43-.09-10.87-.76-16.28a23.05,23.05,0,0,1,0-5.75c.68-5.42.54-10.86.76-16.29a36.09,36.09,0,0,1,.38-4.77,9.39,9.39,0,0,1,6.92-7.81,22.22,22.22,0,0,1,6.63-.92C674.07,366.77,679.19,366.76,684.31,366.76Z"/><path d="M1515.23,100c16.12.73,32.28.35,48.4,1,9.58.41,19.17.3,28.74.9,9.1.57,18.21.42,27.3,1,6.06.37,12.12.59,18.19.72a12.86,12.86,0,0,1,9.1,3.67c2.7,2.66,3.35,5.79,1.71,9.19a25.13,25.13,0,0,1-2.89,4.38c-3.83,5-8.42,9.19-12.92,13.5-3.34,3.21-6.9,6.19-10.26,9.37a11.06,11.06,0,0,1-8.63,3.32c-6.54-.34-13.09-.13-19.64-.56-7-.47-14.06-.24-21.09-.31-8.47-.08-17,.12-25.41-.27-19.49-.9-39-.28-58.47-1-15.18-.6-30.36-.39-45.53-.79-2,0-4.2.68-5.77-1.28.28-2.15,2.11-3.12,3.49-4.34a344.7,344.7,0,0,1,34.57-27.34c2-1.35,4.07-2.55,6-3.91,7.5-5.2,15.92-7.2,24.92-7.22C1509.79,100,1512.51,100,1515.23,100Zm-67.41,39.46c.94.79,2.1.44,3.17.46,16.93.31,33.86.22,50.8.84,19.64.71,39.31.08,59,1,5.11.25,10.23.06,15.34.18,12.14.26,24.3-.3,36.42.78a9.67,9.67,0,0,0,8.19-3c2.59-2.59,5.48-4.9,8.12-7.45q5.87-5.66,11.55-11.5a30.18,30.18,0,0,0,3.8-4.92c1.64-2.64,1-4.85-1.54-6.59a9.62,9.62,0,0,0-5.49-1.38c-7.34-.17-14.68-.37-22-.81-9.56-.58-19.15-.43-28.73-1-10-.59-20.12-.6-30.18-.89-17.73-.52-35.48-.27-53.22-.46a26.82,26.82,0,0,0-13.76,3.48c-1.39.78-2.81,1.53-4.17,2.36-13.19,8-25.06,17.66-36.7,27.68C1448,138.56,1447.65,138.89,1447.82,139.47Z"/><path d="M1526.69,698.2c-8.37,0-15.25-.13-22.12,0-7.29.18-13.83-2-20-5.57a191.15,191.15,0,0,1-17.5-11.78c-9.12-6.76-17.76-14.13-26.35-21.55a18.82,18.82,0,0,1-2.28-2.44,1.29,1.29,0,0,1,.94-2.11c1.27-.13,2.55-.16,3.83-.21,22.69-.81,45.4-.51,68.08-1.19,18.7-.55,37.41-.17,56.09-.94,15-.62,30.05-.44,45.07-.77,1,0,1.92,0,2.88,0a8.39,8.39,0,0,1,6.5,2.43c7.44,6.56,14.66,13.35,21.47,20.56a41.26,41.26,0,0,1,4,4.78c4.5,6.57,1.37,13.7-6.58,15a61,61,0,0,1-7.63.72c-13.74.46-27.49.66-41.22,1.33-12.14.59-24.3.45-36.42,1.08C1545.32,698,1535.26,697.94,1526.69,698.2Zm-5.88-4.29c8.47-.09,16.93-.2,25.39-.53,14.37-.55,28.75-.58,43.12-1.2,13.09-.57,26.19-.81,39.28-1.25,3.51-.12,7-.49,10.52-.71a7.22,7.22,0,0,0,4.36-1.76,3.78,3.78,0,0,0,1.13-5.11,20.54,20.54,0,0,0-4-5.33c-6.33-6.56-12.84-12.91-19.66-19a11.54,11.54,0,0,0-8.62-3.17c-11.17.33-22.35.3-33.54.72-18.51.7-37.06.35-55.59.93-21.39.68-42.82.35-64.22,1.15-2.71.1-5.43.06-8.15.11a6.51,6.51,0,0,0-1.87.28.73.73,0,0,0-.38,1.15,9.27,9.27,0,0,0,1.65,1.72c6.85,5.5,13.63,11.1,20.61,16.43a118.24,118.24,0,0,0,20.23,12.8,25.87,25.87,0,0,0,11.54,2.76C1508.66,693.89,1514.74,693.91,1520.81,693.91Z"/><path d="M782.76,552.06c-3.19,0-6.39,0-9.58,0a6.79,6.79,0,0,1-3.7-.73,1.81,1.81,0,0,1-.89-1.59,1.56,1.56,0,0,1,.88-1.57,8.05,8.05,0,0,1,2.73-.71q10.53-.09,21.07,0a9,9,0,0,1,2.77.63,1.75,1.75,0,0,1,1.07,1.93,1.71,1.71,0,0,1-1,1.49,6.91,6.91,0,0,1-3.26.57C789.46,552.07,786.11,552.06,782.76,552.06Z"/></g></g></svg>