<svg xmlns="http://www.w3.org/2000/svg" viewBox="0 0 1010.38 942"><defs><style>.cls-1{fill:none;stroke:#000;stroke-linecap:round;stroke-linejoin:round;stroke-width:2px;}</style></defs><title>pickup_back</title><g id="Capa_2" data-name="Capa 2"><g id="Capa_1-2" data-name="Capa 1"><path class="cls-1" d="M113.77,298.36H905.85c-1.31-19.46-.87-39.15-4.25-58.16-8.7-49-20.74-96.93-39.3-143.63C841,43,801,20,747.43,18.89c-132.08-2.78-264.23-5.4-396.3-3.78-44.56.54-90.45-2-134.41,12.15-28.79,9.26-50.18,26.48-62.55,53.95-23.13,51.4-40.43,104.47-44.93,161.17-8,100.77-6.33,201.51-.11,302.29,1.15,18.62.16,37.37.16,58.21H901.94c0-41.77-.56-81.35.14-120.91.94-53.75,2.94-107.48,4.21-161.22.16-6.7-1.36-13.43-2.11-20.15"/><path class="cls-1" d="M935.53,271.49c-15.4-74.83-37-147.64-74.16-214.81-18-32.56-46.76-51.12-84.82-51.54C616.83,3.39,457.1,1.53,297.38,1a468.2,468.2,0,0,0-93.89,9.26c-27.29,5.53-45.57,26.45-58.27,50.81-38.27,73.35-60.46,152-76.57,232.74-2.55,12.78-9.58,24.67-14.1,35.9H198.86"/><path class="cls-1" d="M904.18,376.73q-358.26,0-716.52-.27c-44.84-.1-89.67-3.68-138.69-5.84-16,18.74-23.38,85.85-13,162.64l68.84,6.92"/><path class="cls-1" d="M57.79,363.29c9.71-3,19.41-8.56,29.11-8.57q396.33-.72,792.65-.19a386.87,386.87,0,0,1,62.62,4.76c15.59,2.58,28,11.36,24.7,30.87"/><path class="cls-1" d="M810.14,784.25c-10.82-10.93-24.71-9.39-38.06-8.83-14.58.6-22.2-5.49-22.81-22.52-55.55,0-111.55-.64-167.51.6-9.8.22-22.94,5.77-28.47,13.31-17.61,24-39.92,31.23-69.35,24.87a17.22,17.22,0,0,1-2.92-3c-26.17-35.49-63.28-38-103-36.17-38,1.72-76.11.37-115,.37-4.57,18-16,24.78-35.07,22.94-9.39-.91-19.35,3.93-29,6.17"/><path class="cls-1" d="M805.66,329.71c-7.47.74-14.93,2.12-22.39,2.14q-104.13.24-208.24.1-172.41,0-344.82-.1c-7.47,0-14.93-1.4-22.4-2.14"/><path class="cls-1" d="M814.61,311.79c-10.44-.74-20.89-2.13-31.34-2.14q-275.42-.19-550.82-.21c-11.66,0-23.2-1.49-26.87,13.55"/><path class="cls-1" d="M964.64,634.23c-9-2.24-17.95-6.52-26.87-6.36-34.35.6-68.72,1.9-103,4.37-23.23,1.67-46.8,3.71-69.24,9.42-14.67,3.73-29.5,7.81-39.37,25.53-12.5,22.47-40,26.72-63.82,27q-157.85,1.76-315.71.05c-25.19-.26-49.66-7.69-67.17-28.66"/><path class="cls-1" d="M275,656.62c-22.6-19.42-51.36-21.53-78.43-23.92-46.05-4.07-92.49-3.71-138.77-5.17-3.73-.12-7.47,0-17.16,0,5,15,8.85,26.55,12.69,38.06"/><path class="cls-1" d="M176.47,773.05c25.11-4.23,26.87-6.42,26.87-33.58,0-16.42-.33-32.85.09-49.26.4-15.77-6.72-22.64-22.49-22.51-41,.34-82.1.11-127,.11-2,33.59-9.41,67.18,3.89,100.76"/><path class="cls-1" d="M86.9,199.84c-21.34-20-47.79-7.29-72.33-12-22.89,26.15-9.31,57.4-11.84,86-.21,2.37,12.3,7.66,19.28,8.52,15.53,1.9,31.31,1.85,47,2.6"/><path class="cls-1" d="M919.85,188.64c28.58,2.13,58.66-7.25,84.29,8.47,1.92,22.17,4,41.53,5.15,60.95,1,16.76-6,26-24.52,24.82-14.86-1-29.84-.19-44.76-.19"/><path class="cls-1" d="M84.66,773.05,60,769.54c0,49.76-.7,98.3.32,146.81.46,21.89,13,27.64,42.23,22.4"/><path class="cls-1" d="M369,56.54v132.9c12.42,1.36,23,3.49,33.59,3.53,82.84.28,165.69.15,248.54.15H852.68"/><path class="cls-1" d="M940,309.56c-.8-11.2-1.59-22.39-2.46-34.71H996c0-23.32.87-45.87-.9-68.22-.27-3.5-12.3-7.66-19.3-8.68-13.26-1.95-26.82-1.84-40.25-2.59"/><path class="cls-1" d="M73.47,195.36l-54,3.41c-14.88,22.08-8.8,47.47-5.6,75H71.23"/><path class="cls-1" d="M731.77,661.1c28.36,2.24,56.69,5.73,85.09,6.42,44.77,1.09,89.58.29,136.58.29,7.33,33.21,6.12,64.73,2.1,96.27-1.35,10.56-6.19,20.9-6.24,31.36-.17,33.59,1.56,67.18,1.66,100.76,0,10.45-1,21.63-4.79,31.13-3.21,7.93-8.47,13.69-21.93,12.43-28-2.61-56.63,1-85,1-18.62,0-26.63-9-26.78-28.91-.31-40.31.48-80.62-.27-120.91-.63-33.6-3.06-67.17-4.07-100.77-.17-5.92,2.75-11.94,4.25-17.91"/><path class="cls-1" d="M852.68,775.29V938.75"/><path class="cls-1" d="M870.59,775.29V938.75"/><path class="cls-1" d="M158.55,773.05l17.92-2.4v168.1"/><path class="cls-1" d="M834.77,775.29V938.75"/><path class="cls-1" d="M140.64,773.05l17.91-2.4v168.1"/><path class="cls-1" d="M906.42,775.29V938.75"/><path class="cls-1" d="M888.51,775.29V938.75"/><path class="cls-1" d="M102.58,773.05c-15.55-6.13-20.44.35-20.31,15.68.42,49.25.15,98.52.15,147.78"/><path class="cls-1" d="M138.4,936.51V771.93H102.58V941c21.58,0,41,0,60.45,0,25.38-.07,35.42-9.64,35.71-35.82.44-39.55.12-79.12.12-118.67"/><path class="cls-1" d="M120.49,775.29V936.51"/><path class="cls-1" d="M946.72,773.05l-22.39-3.22V936.51"/><path class="cls-1" d="M339.92,188.64V54.76c-25.41,1.26-53,2.79-80.61,3.94-11.18.46-22.77-1.77-33.5.46-22,4.58-37,20.39-44.41,40.09-19.35,51.33-37,103.35-40.85,158.8-.89,12.73-2.89,25.38-4.39,38.07"/><path class="cls-1" d="M669.07,54.3c35.08.74,70.25.25,105.21,2.68,22.4,1.56,39.64,14.93,49.11,35.46a539.84,539.84,0,0,1,42.57,141c.45,2.79-1.34,6-2.08,8.93"/><path class="cls-1" d="M337.68,103.56c-18.66,0-37.37-.79-55.95.41-6.88.44-18.1,4.24-19.39,8.77-6.22,21.89-10,44.51-13.86,67-.43,2.53,4.12,5.91,6.36,8.89"/><path class="cls-1" d="M872.83,293.88c-1.16-15.71-2.33-31.42-3.65-49.26H669.07"/><path class="cls-1" d="M149.6,224.47q344.82,0,689.65-.1c7.46,0,14.92-1.39,22.39-2.14"/><path class="cls-1" d="M949,533.47c20.22-15,6.7-35.71,13.12-56H918.81c5.41,17.86-6.8,36.91,7.76,53.74"/><path class="cls-1" d="M80.19,531.23c22.83-15.34,5.53-35.7,12.35-54.86H49.7c5.74,19-6.46,38,8.09,54.86"/><path class="cls-1" d="M145.12,242.38H337.68"/><path class="cls-1" d="M485.47,85.64c-15.77-.36-32.54,3.25-45.63-12.35,1.61-5.06,3.48-10.91,6.05-19H342.06c-.3-1.25-.61-2.49-.92-3.73,2.58-1.74,5.16-5,7.74-5q142.19-.39,284.37-.13c1.49,0,3,1.4,4.47,2.15"/><path class="cls-1" d="M489.94,49.82V190.88"/><path class="cls-1" d="M342.16,47.58,241.4,54.3"/><path class="cls-1" d="M769.83,54.3c-1.49-1.5-2.93-4.23-4.48-4.3q-61.56-2.58-123.15-4.46c-1.45,0-3,2.79-6.71,6.52h31.34V188.64"/><path class="cls-1" d="M516.81,49.82V190.88"/><path class="cls-1" d="M369,190.88c-14.93,0-29.86-.15-44.78,0q-84,1-167.93,2.21"/><path class="cls-1" d="M521.29,87.88,565,82.42v-27h71.66V191.18c-10.31-14.62-11.07-25.07-3.36-36.12"/><path class="cls-1" d="M35.4,533.47q2.25,48.13,4.48,96.28"/><path class="cls-1" d="M210.05,311.79c-38.81-.74-77.62-1.39-116.43-2.31-8.22-.2-16.42-1.42-24.63-2.16"/><path class="cls-1" d="M812.38,329.71H958c-8.71-18.5-24.34-20.94-42.66-20.41-32.07.92-64.18.26-98.06.26-2.48,6.2-5.19,13-9.9,24.79-1.84-9.38-2.92-14.85-4-20.32"/><path class="cls-1" d="M669.07,105.8c23.14-.75,46.34-2.74,69.37-1.49,7,.38,17.25,8.44,19.48,15.16,6.49,19.48,10,40,13.78,60.29.47,2.47-4.11,5.9-6.35,8.88"/><path class="cls-1" d="M469.79,399.12c-.88,3.53-1.77,7.06-3.08,12.32h69.14c1.86-1.87,3.34-2.74,3.24-3.34-.87-5.35-2-10.64-3.48-17.94-20.23,0-39.67-.22-59.09.3-2.3.06-4.49,4.18-6.73,6.42"/><path class="cls-1" d="M910.9,385.69c20.45,2.11,42.93-6.74,64.93,15.36,0,38.34.25,80.9-.1,123.46-.18,22.4,0,44.93-2.49,67.14-3,26.86-3.93,54.63-19.8,78.4"/><path class="cls-1" d="M279.47,607.36v56.7l-82.85,6"/><path class="cls-1" d="M384.7,186.4c17.47-17.21-3.26-35.59,1.21-54,1.8-7.42-7.92-17.66-12.4-26.61"/><path class="cls-1" d="M534.73,396.88H472"/><path class="cls-1" d="M485.47,242.38l-112,2.24"/><path class="cls-1" d="M633.25,246.86c-29.11-1.49-58.21-3.23-87.33-4.32-8.18-.3-16.42,1.33-24.63,2.08"/><path class="cls-1" d="M100.34,385.69l-56,4.47"/><path class="cls-1" d="M729.53,605.12v51.5"/><path class="cls-1" d="M489.94,229v67.17"/><path class="cls-1" d="M342.16,229v67.17"/><path class="cls-1" d="M369,229v67.17"/><path class="cls-1" d="M516.81,229v67.17"/><path class="cls-1" d="M664.59,229v67.17"/><path class="cls-1" d="M637.72,229v67.17"/><path class="cls-1" d="M953.44,365.53l-44.78,11.2"/><path class="cls-1" d="M969.11,533.47,906.42,538"/><path class="cls-1" d="M933.29,336.42q1.11,9,2.24,17.92"/><path class="cls-1" d="M816.85,770.81l109.72,2.24"/><path class="cls-1" d="M78,336.42q-2.25,7.84-4.48,15.68"/><path class="cls-1" d="M588.46,229,584,242.38"/><path class="cls-1" d="M89.14,188.64,75.71,186.4"/><path class="cls-1" d="M203.34,229q-2.25,5.6-4.48,11.19"/><path class="cls-1" d="M431.73,229l4.47,11.19"/><path class="cls-1" d="M364.55,614.07l-9.83,64.41,5.35.53c.75.75,1.5,2.15,2.24,2.15,95.54.09,191.07.09,287.73.09V614.07H366.79"/><path class="cls-1" d="M60,399.12c-12.84,3.52-8.52,14.07-8.84,22.4-.44,11.22-.11,22.48-.11,34.7H85.23c17-33.7,8-57.1-23-57.1"/><path class="cls-1" d="M928.81,399.12c-14.69,5.06-7.75,17.48-8.75,26.89-.95,8.89-.21,17.95-.21,29.09h34.72c16.47-32.57,7.46-56-23.52-56"/><path class="cls-1" d="M158.55,435c-23.25,3.9-28.87,18.52-27.25,40.33,1.71,23,.25,46.25.42,69.38.17,21.31,7.37,28.37,29.07,29.1,2.24.08,4.48,0,6.72,0h674c28.73,0,37.94-9.21,38-38.06.08-21.65-1-43.35.28-64.92,1.42-24.46-14.86-34.68-36.09-35.78-7.44-.39-14.92-.06-22.39-.06H160.79"/><path class="cls-1" d="M156.32,452.86c-2.24,5.22-6.3,10.41-6.42,15.68-.64,28.35-.3,56.72-.3,86.2H859.4V452.86H158.55"/></g></g></svg>