<svg xmlns="http://www.w3.org/2000/svg" viewBox="0 0 2239 777.34"><defs><style>.cls-1{fill:none;stroke:#000;stroke-linecap:round;stroke-linejoin:round;stroke-width:2px;}</style></defs><title>pickup_left</title><g id="Capa_2" data-name="Capa 2"><g id="Capa_1-2" data-name="Capa 1"><path class="cls-1" d="M672.13,224.89c3.55,7.3,1.74,11.76-5.15,17-5,3.8-6.65,12-9.8,18.22l3.68,5.19c17.84,0,35.7.4,53.53-.09,33.69-.93,67.36-2.68,101.06-3.52,58.79-1.47,117.59-2.33,176.38-3.86,16.55-.44,33.05-2.72,49.61-3.45,15.77-.69,19.37-13.72,21.5-24.11,5.33-26,8-52.54,11.54-78.89,2.58-19,3.9-38.18,7.64-56.9,4.64-23.19-3.06-35.23-26-34.79-25.74.48-51.44,3-77.17,3.34-41.62.57-83.19-1.64-123.25,14.49-21.31,8.57-40.46,19.25-56.85,35.24C777.16,133.94,755.16,154.82,730,179c.46-7.48-.77-12.55,1.15-14.5,15.51-15.72,32-30.46,47.46-46.23,42-42.84,92.51-63.16,152.58-62.71,44.7.34,89.41-2.37,134.12-3.27,24.11-.49,30.91,8.74,27.71,33-4.28,32.38-7.37,64.91-11.22,97.35-2.18,18.41-4.35,36.84-7.45,55.1-2.69,15.78-14.3,24.89-32.93,27.55a43.85,43.85,0,0,1-5.5,0c-69.82,1.22-139.64,2.33-209.46,3.71-52.06,1-104.13,2-156.16,3.9-12.72.46-21.29-2.84-26.88-17.71,7.14-8.77,14.56-19.22,23.4-28.28,6.17-6.32,10-11.89,5.3-20.42"/><path class="cls-1" d="M1396,57.69c21,3.78,30.46,13.28,31.14,33.07q2.28,66.13,3.67,132.29c.45,22.66-4.89,27.54-27.46,27.55-16.54,0-33.08-.25-49.61.05-60,1.11-120,2.54-180.06,3.5-9.78.15-19.59-1.5-29.11-2.29-13-18.25-6.26-37.91-7.33-56.39-.52-9.09,2.8-18.32,3.25-27.55,1.54-31.22,2.1-62.49,4.26-93.66.36-5.13,6-12.84,10.73-14.13,11.12-3.09,23.1-4.05,34.74-4.11,63.08-.35,126.16-.08,189.24-.33,5.52,0,11-2.32,16.54-3.51,18-3.87,37.3,9.22,38.38,27.57,1.95,33,2.45,66.14,4,99.2a364.79,364.79,0,0,0,3.66,36.73c4.12,27.69-8.38,42.28-36.84,42.28-23.89,0-47.78-.35-71.66.07-58.18,1-116.36,2.56-174.55,3.52-27.2.45-35.94-11.59-29.55-38.54,1.1-4.64,0-9.76.18-14.66,1.19-42.87,2.22-85.75,3.74-128.61.73-20.36,9.57-30.79,29.31-31,74.72-.67,149.44-.29,224.15-.11,1.84,0,3.68,2.29,5.52,3.52"/><path class="cls-1" d="M1508.12,586.84c-20.21,1.84-40.42,5.24-60.63,5.27-249.88.37-499.76-.15-749.63.58-47.84.14-95.66,4.69-147.88,7.44-2.35-14.69-5.4-33.27-8.28-51.88-5.29-34.11-14.49-66.91-31.2-97.4-17.22-31.43-47.39-39.36-79.09-41.85-36.61-2.88-73.51-4.53-110.19-3.4-20.93.65-42.12,6.4-62.38,12.55-33.16,10.05-53,35.55-66,65.92-14.83,34.71-27.55,70.32-41.54,106.44-15.08,0-32.85.24-50.6-.06-19-.33-38-1.51-57-1.69-31.06-.3-40.09-7.32-41.94-38.69-1.55-26.24-.49-52.65-.26-79,.15-16.74,12.58-22.58,25.66-27.56"/><path class="cls-1" d="M800.75,50.34c30.19-17.19,63.82-22.42,97.39-27.47a1325.18,1325.18,0,0,1,205.77-15c30,.19,60-2.37,90-3.4C1234.35,3.06,1274.78,1,1315.2,1c41,0,82.25.25,123,4.1,26.06,2.47,54,1.79,77.08,17.91,4.77,3.32,7.51,9.57,11.18,14.47"/><path class="cls-1" d="M190.75,603.37c1.83-36.93,12.81-70.11,36.57-99.36,39.9-49.13,93.49-68.22,152.43-57.3,66.74,12.36,113,54.44,128.76,123.62,19.61,86.17-29.86,175.84-126.9,193.46-82.07,14.9-156.87-24.64-185-116.44-4-13.22-2.84-28.05-4.07-42.14"/><path class="cls-1" d="M2230.19,305.73q-316,1.83-632,3.74c-12.87.08-25.73,1.16-38.59,1.77"/><path class="cls-1" d="M710.72,167.93c33.68-30,67.15-60.27,101.12-89.95,27.22-23.8,60.89-30,95.47-33.17,39.2-3.61,78.39-7.36,117.6-11,3.64-.34,7.34-.05,11-.05,120.65,0,241.3-.39,362,.29,28.82.17,52.4,12.11,58.38,34.73,4.54,17.21,6.44,35.34,7.55,53.19,3.07,49.57,5.09,99.2,7.62,148.81.13,2.47,1.17,4.9,1.78,7.35"/><path class="cls-1" d="M593.13,314.91c-7.55,37.65-9.34,75.79-7.09,113.9a517.58,517.58,0,0,0,27.87,140.57h807.37c23.57-14.89,28.11-42.35,34.83-67.21,9.68-35.81,16.69-72.35,15.51-110.1-1.15-36.71-.25-73.48-.25-110.23"/><path class="cls-1" d="M1846.19,568.47c12.5,64.36-4.65,118.87-53.2,163.61-34.48,31.78-75.82,46.28-121.31,43.44-74.29-4.64-138.32-55.24-156.51-129.81-21.12-86.57,27.73-163.27,88.37-193.24,77.27-38.19,167.23-14.14,212.84,52,13.09,19,21.23,41.37,31.64,62.19"/><path class="cls-1" d="M519.64,575.81c10.75,61.79-8.48,114-53.49,156-69.74,65.06-181.4,57.73-242.43-14.39-28-33.11-42.46-70.65-42.18-114C182.06,524.12,241,459.66,308.15,441c98.3-27.33,194.21,45.73,208,121.92.7,3.88,3.53,7.37,5.36,11.05"/><path class="cls-1" d="M1021.23,28.29c28.17-.61,56.34-1.45,84.51-1.8,107.18-1.32,214.37-3.7,321.53-3,35.14.22,70.23,8.52,103.64,12.91,5.49,20.67,11,36.39,13.65,52.59,4.19,26.16,6.43,52.62,9.49,79"/><path class="cls-1" d="M556.38,495c19.6-.61,39.2-1.74,58.8-1.75Q887.1,493,1159,493.13"/><path class="cls-1" d="M595,311.24c1.08-3.72,2.17-7.43,3.75-12.86,33,0,66.06.23,99.14-.06,38.58-.35,77.18-.65,115.74-1.95,27.59-.94,55.1-4.34,82.69-5.17,59.39-1.78,118.81-2.8,178.22-3.8,83.29-1.4,166.59-2.31,249.87-3.79,47.17-.84,94.33-2.19,141.48-3.68,25.12-.8,50.22-2.37,75.33-3.6"/><path class="cls-1" d="M1561.4,258h665.11c.62,1.22,2.09,2.93,1.71,3.6-9.71,17.37-3.51,30.34,6.13,46.8,6.94,11.85,2,31.08,1.23,47-2.1,43.5-4.1,87-7.43,130.44-2.93,38.05-21,53.61-58.59,55.28-40.45,1.8-81,3.66-121.21,7.74-16.26,1.65-31.61,11-47.89,13.79-29.17,5-58.73,7.71-88.13,11.41-4.39.55-8.76,1.24-13.33,1.89,2.35,28.68,4.56,55.57,6.77,82.46l-4.75,1.87c-2.35-3-6.44-5.86-6.77-9.09-1.83-17.7-2.36-35.53-4.11-53.24-1-10.49-3.53-20.84-5.37-31.25"/><path class="cls-1" d="M91.54,445.36l36.24-83.06-89.73-4.82c1.64-36.23,29-46.33,53.75-54.64,28.26-9.51,58.35-14.23,88-18.86,39-6.11,78.3-10.45,117.56-14.85,18.88-2.11,38-2,56.92-4,29.46-3.12,58.82-7.15,88.21-10.9,18.38-2.34,36.7-5.3,55.14-7.06,5.35-.51,11,2.18,16.51,3.41"/><path class="cls-1" d="M1557.73,388.41c47.12-15.79,95.81-23.36,145.1-19.57,37.6,2.89,75.09,10.11,112,18.26,24.23,5.35,42.16,22.54,55.14,43.63,23.61,38.33,36,80.62,42.42,124.87.81,5.57,2.39,11,3.62,16.54"/><path class="cls-1" d="M595,302.05c-17.15,0-34.33-.6-51.44.12-50.85,2.13-101.72,4.07-152.49,7.47-36.83,2.46-73.64,6.12-110.22,11.07-35.7,4.83-71.06,12.07-106.61,18-17.85,3-29.26,13.25-36.87,29.39-11.79,25-24.43,49.65-38.77,78.62L209.13,449"/><path class="cls-1" d="M1559.56,375.55a231.25,231.25,0,0,1,88.2-18c34.28-.24,68.9-.31,102.79,4.06,30.45,3.93,61.77,10.19,89.68,22.36,29.88,13,44.57,43.36,57.27,72.51,15.87,36.4,23.17,75.28,31.37,113.86"/><path class="cls-1" d="M176.06,445.36C199,405.36,231.15,378,279,375.82c53.23-2.41,106.55-3.31,159.84-3.78,52.85-.48,80.25,33.73,99,77.09,18.23,42.12,28.41,86.55,33.36,132.19.6,5.58,2.36,11,3.59,16.54"/><path class="cls-1" d="M1677.15,149.55,1602,28.4l24.56-17.5c42.92,66.4,83.77,129,123.67,192.19,4.22,6.69,3.36,16.86,3.94,25.48.62,9.14.14,18.36.14,27.55"/><path class="cls-1" d="M1454.84,493.13H1166.38"/><path class="cls-1" d="M310.18,349.82Q352.44,343.4,394.7,337c20.81-3.13,41.62-6.31,62.47-9.16,28.15-3.85,56.31-7.62,84.52-11,14.64-1.74,29.39-2.58,44.09-3.76q57.87-4.62,115.75-9.19"/><path class="cls-1" d="M679.48,182.63q-35.82,28.47-71.64,57c-22.58,18-47.63,22.87-75.38,14.83-3.39-1-7.31-.14-11.45-.14L511.79,242c1-1.84,1.47-3.91,2.36-4.11,52.68-12.06,88.74-52,131.89-79.71,51-32.73,99.18-69.81,149.69-105.8l5,12.68"/><path class="cls-1" d="M1118.6,37.48c-3.67,39.19-7.5,78.38-10.95,117.59-1.62,18.34-3.14,36.73-3.64,55.12q-4,147-7.26,294c-.23,11,3.64,22.12,3.07,33.05-.51,9.9-4.49,19.62-6.94,29.42"/><path class="cls-1" d="M2222.84,496.81c-65.53,1.22-131.07,2.35-196.59,3.82-7.38.16-14.7,2.3-22,3.53"/><path class="cls-1" d="M683.16,179c33.07-30,69.39-57.25,98.14-90.95,21.13-24.77,47-35,74.77-42.42,26.63-7.15,54.85-8.82,82.5-11.56,23.17-2.29,46.51-2.88,69.8-3.7,4.24-.14,8.57,2.26,12.86,3.48"/><path class="cls-1" d="M2086.88,292.87c-5.52.61-11,1.74-16.54,1.75q-81.77.21-163.52,0c-4.29,0-8.58-1.14-12.86-1.75"/><path class="cls-1" d="M1559.56,272.66c44.1.61,88.2,1.75,132.29,1.7,56.35-.06,112.69-1.38,169-1.63,68.59-.31,137.18-.12,205.78,0,6.12,0,12.24,1.14,18.37,1.75"/><path class="cls-1" d="M1894,278.17c-1.16,5-2.31,10-3.81,16.53H1559.56"/><path class="cls-1" d="M176.06,511.51H1.51"/><path class="cls-1" d="M1486.07,586.84c3.75-58.36,16.81-113,62.5-154.31a45.32,45.32,0,0,1,5.48-3.7"/><path class="cls-1" d="M2232,316.75l-26.31,9.54.09,3.2,14.27,3.57V382H2206.3v-53.9c-13.34,12.17-17.37,24.55-18.34,38.28-1.34,19-2.39,38-3.74,56.95-.95,13.48,8.15,24.3,22.09,25.71,7.33.74,14.69,1.24,22,1.86"/><path class="cls-1" d="M1649.59,638.28l25.63,5.13-27,62.5c-47.35-12.82-81.18-58.68-73.49-117.17,6.2-47.09,42.29-85.8,102.39-91.75,44.24-4.39,95.71,35.59,106.61,80.65,13.79,56.93-18.42,112.78-69.77,128.59q-12-24.81-24-49.57"/><path class="cls-1" d="M776.86,259.79c-11.68-27.7-26.28-54.32-34.57-84.24,12.67-4.09,16.48-1,20.29,8.75,9.77,25,21.63,49.16,32.66,73.66"/><path class="cls-1" d="M2221,292.87H2094.23"/><path class="cls-1" d="M2097.9,276.33q-2.08,8.43-4.18,16.87l-3.35.31c-2.07-6-4.15-12.05-6.55-19H2221"/><path class="cls-1" d="M975.29,324.1c-2.35-13.2,4.44-18.28,16.54-18.35,17.15-.09,34.3.07,51.44-.05,11.28-.08,16.68,5.29,16.57,16.56s-3.72,19.85-16.57,20.12c-17.14.37-34.29.25-51.44,0-10.69-.14-16-6.78-18.37-16.48"/><path class="cls-1" d="M1348.27,324.1c-6.07-14.9,5.07-17.43,14.72-18.05,17.69-1.13,35.52-.78,53.26-.15,11.19.39,15.21,5.57,19.13,23.46l-18.41,10,3,3.07c-17.15,0-34.31-.29-51.45.11-12.09.28-20.53-3.36-22-16.64"/><path class="cls-1" d="M1699.2,184.46H1576.1V153.23h128.15c2.67,10.68,6.5,21.36-3.21,31.23"/><path class="cls-1" d="M600.48,298.38c1.86-20,6.44-38.16,23.69-51.7,15.63-12.28,30-26.29,44-40.44,3.67-3.7,4-10.75,5.79-16.26"/><path class="cls-1" d="M43.77,344.31c22.66.61,45.39.4,67.95,2.22,10,.81,19.63,5.74,29.43,8.81"/><path class="cls-1" d="M196.27,414.13c14.22-29.62,42.35-41.37,70-52.91,11.3-4.72,24.34-5.27,36.59-7.72"/><path class="cls-1" d="M1554.05,226.72c-11.89,37.26-9.57,75.72-8.92,113.91.29,17.18,3.41,34.3,5.25,51.45"/><path class="cls-1" d="M36.42,359c-18.72,26.76-14.48,55.51-6.56,88.19h70.87"/><path class="cls-1" d="M1431,324.1h-80.84"/><path class="cls-1" d="M431.44,566.63l11.48-16.31c-19-33.3-51.46-51.42-92.32-51.18-39.72.24-70.86,18.54-90.84,53.85l8.16,4.45"/><path class="cls-1" d="M1056.14,324.1h-79"/><path class="cls-1" d="M1995,502.32l-77.17,1.84"/><path class="cls-1" d="M348.76,618.07l-18.48-14.79c11.33-4.79,18.43-9.32,25.92-10.11,2.52-.27,7.58,8.63,8.78,14,2.58,11.42-8.5,9.62-14.38,12.79"/><path class="cls-1" d="M1673.48,653c7.24,4.42,10.81,1.62,15.09-5.26,3.54-5.68,10.57-9.18,18.57-15.71l23.3,46.7"/><path class="cls-1" d="M1702.88,186.3c13.58,21.31,22.72,43.79,18.37,69.82"/><path class="cls-1" d="M1592.64,188.14v68"/><path class="cls-1" d="M407.56,697.08c-36.75,20.17-73.49,22.21-110.24,0"/><path class="cls-1" d="M345.09,654.82l-22,37.93c18.9,7,36.05,9.23,53.19.65"/><path class="cls-1" d="M308.34,667.68c5.1-10.93,10.21-21.85,17-36.32,8.09,8.08,12.63,13.51,18.09,17.77,3.56,2.78,8.44,3.85,12.72,5.69"/><path class="cls-1" d="M1627.54,546.42l28.55,21.4c-9.25,23.27-10.81,24-27,15.17l-10.7,20.38"/><path class="cls-1" d="M448,557.44c22.55,56.71,5.45,108.63-36.68,137.16l-33.61-61.84L358,648.59c9.22,20,17.46,37.93,25.7,55.84"/><path class="cls-1" d="M256.9,557.44c-23.83,52.92-10.61,104.41,35.68,136.5l11.81-19.66-27.28-34.16"/><path class="cls-1" d="M1653.27,708.1h55.12"/><path class="cls-1" d="M668.46,243.26c.85,4.24,1.7,8.48,3.42,17.13,16.73-3.17,34.48-5.56,51.52-10.42,4.28-1.23,8.61-10.25,8.94-15.92,1.12-18.92.43-38,.43-56.94"/><path class="cls-1" d="M256.9,643.8c4.88-6.65,7.33-3.24,11.19,1.7,9.9,12.65,20.65,24.63,31.07,36.88"/><path class="cls-1" d="M304.67,586.84l-31.45-29c-9.16,18.48-18.56,33.69-12.65,52.87"/><path class="cls-1" d="M1704.71,695.24c-16.57.51-33.4,7.62-49.61-1.84"/><path class="cls-1" d="M1761.67,561.12c7.23,15.1,13.13,30.51,11,47.77"/><path class="cls-1" d="M290,537.23l45.93-23.88"/><path class="cls-1" d="M1695.53,513.35c17.08,4.55,33.79,9.82,45.93,23.88"/><path class="cls-1" d="M1601.82,574c4.36,14.86,15,12,31,9l-28-20.25c-12.93,14.51-16.52,29.64-15.86,46.2"/><path class="cls-1" d="M1765.34,642l-30.16,42.56c-.34-.67,1.13,2.27,2.6,5.21"/><path class="cls-1" d="M1693.69,526.21c-4.28,15.71-3.11,29.61,15,39.63l40.15-34.12"/><path class="cls-1" d="M1715.74,638.28c11.16-19.08,25.74-3.47,38.57-3.26,6.78.11,13.48,4.49,20.22,6.94"/><path class="cls-1" d="M1701,684.22h-40.42"/><path class="cls-1" d="M1752.48,568.47q4.61,20.21,9.19,40.42"/><path class="cls-1" d="M280.78,568.47q-5.5,20.21-11,40.42"/><path class="cls-1" d="M435.12,642c-2.57,18.73-18.24,27.93-29.4,40.42"/><path class="cls-1" d="M370.81,684.22H332.23"/><path class="cls-1" d="M1695.53,504.16c-1.23,5.51-2.45,11-3.63,16.3l42.21,24.12"/><path class="cls-1" d="M1585.29,642l47.39-13.83,16,14.2q-12.45,23.79-24.79,47.4"/><path class="cls-1" d="M1596.31,642l27.56,36.75"/><path class="cls-1" d="M282.62,531.72l40.09,34.5,18.05-12c-1.55-15.91-3.2-33-4.86-50.08"/><path class="cls-1" d="M335.9,526.21,301,542.74"/><path class="cls-1" d="M674,237.75c6.74,3.06,13.36,6.43,20.25,9.07,4.69,1.8,9.76,2.56,14.66,3.79"/><path class="cls-1" d="M1849.86,566.63h39.82c-8.29-30.1-14.68-57.67-23.54-84.44-14.16-42.8-45.26-63.54-89.68-70.51-47.79-7.5-95.46-11.18-143.35-6.22-23.17,2.39-47.5,3.67-68.16,17.67-2.1,1.42-6,.19-9.06.19"/><path class="cls-1" d="M424.09,638.28l-23.88,31.24"/><path class="cls-1" d="M1607.33,638.28l23.89,31.24"/><path class="cls-1" d="M398.37,601.54l-21.13,16.39V606.61c2.17.21,4.37.1,4.45.47,4.7,21,17.73,27.69,38.77,26.4,8.93-.55,18.33,6.64,27.52,10.32"/><path class="cls-1" d="M1754.32,638.28l-23.88,31.24"/><path class="cls-1" d="M247.71,614.4c14.7-2.45,30.81-1.95,43.73-8.12,15-7.17,20.13-.43,25.72,10H332l.81,4-64.92,18"/><path class="cls-1" d="M385.51,559.28l-10.86,11.18c5.33,11,9,20.17,21.88,18.22"/><path class="cls-1" d="M337.74,559.28l11.71,11h4.37l11.48-9.18"/><path class="cls-1" d="M1719.41,627.26c-.73-7.21-1.46-14.43-2.51-24.73l66.82,10"/><path class="cls-1" d="M429.61,574c-3.18,14-11.92,16-23.89,11"/><path class="cls-1" d="M1666.13,561.12q13.78,12.42,27.56,0"/><path class="cls-1" d="M1767.18,553.77l-36.75,29.39"/><path class="cls-1" d="M403.88,583.16q8-11.34,15.88-22.69c15.31,10.23,19.95,19,21.66,31.78,1,7.32-5.3,22.43,12.07,22.15"/><path class="cls-1" d="M1554.05,393.92q.92,14.7,1.84,29.4"/><path class="cls-1" d="M326.72,583.16l7,5c-15.44-6.15-26.72-.51-30.9,13.36"/><path class="cls-1" d="M1600,608.89V598.81c20.78,10.05,28.2,7.87,33.08-8.3"/><path class="cls-1" d="M1546.7,397.59q2.76,12,5.51,23.89"/><path class="cls-1" d="M1675.32,636.45l-7.66-4.48,16.57-4.3c-4.07,6.1-5.57,8.36-7.08,10.61"/><path class="cls-1" d="M1671.64,581.33l-7.35,1.83V574l2.93-.8,4.42,6.31"/><path class="cls-1" d="M354.28,638.28q-.93-3.67-1.84-7.35h9.18c.27,1,.54,2,.8,2.93l-6.31,4.42"/><path class="cls-1" d="M369,515.18l20.21,9.19"/><path class="cls-1" d="M409.4,533.56l-26.24-10.5-12.35,19.68"/><path class="cls-1" d="M155.84,590.51l22,9.19"/><path class="cls-1" d="M1629.38,539.07c7.32,2.87,16.82,3.28,16.54,14.7"/><path class="cls-1" d="M367.14,504.16v54.51l9.18,6.12"/><path class="cls-1" d="M1728.6,601.54V590.46l-30-11.21c-1.25,2.35-2.53,4.77-5.6,10.52l11.72-2.93"/><path class="cls-1" d="M1662.45,515.18l-20.21,7.35"/><path class="cls-1" d="M1647.76,612.56h7.34c-.61-2.45-1.12-4.93-1.89-7.33-.24-.73-1.17-1.72-1.78-1.72s-1.23,1.09-1.84,1.7"/><path class="cls-1" d="M1631.22,601.54l16.09,8.12-8.74,21.27"/><path class="cls-1" d="M438.79,594.19c-10.48,11.26-23.06,12.06-37.14,7.59-1.08-5.67-2.11-11.06-3.14-16.45l3.94-1.44q4.4,8.82,8.78,17.65"/><path class="cls-1" d="M541.68,574H523.31"/><path class="cls-1" d="M753,213.86l-16.54,7.35"/><path class="cls-1" d="M422.26,529.88l-14.7,12.86"/><path class="cls-1" d="M1609.17,529.88l16.54,11"/><path class="cls-1" d="M1666.13,504.16v56.4l-11.92-4.07,6.41-6.4"/><path class="cls-1" d="M1655.1,529.88l9.19,12.86"/><path class="cls-1" d="M1704.71,614.4c-.67,2.25-1.35,4.5-3.24,10.79l11.16-7.56-6.08-5.07"/><path class="cls-1" d="M1697.36,276.33q-1.83,7.35-3.67,14.7"/><path class="cls-1" d="M1686.34,276.33q1.83,7.35,3.67,14.7"/><path class="cls-1" d="M1706.55,566.63q-.91,6.43-1.84,12.86"/><path class="cls-1" d="M1631.22,533.56l7-7.35h26.06"/><path class="cls-1" d="M1882.93,278.17q.93,6.42,1.84,12.86"/><path class="cls-1" d="M725.42,169.77H697.86"/><path class="cls-1" d="M422.26,608.89l22.05,3.67"/><path class="cls-1" d="M1609.17,608.89l-31.23,5.51"/><path class="cls-1" d="M369,550.09l9.18,7.35"/><path class="cls-1" d="M324.88,566.63v14.7"/><path class="cls-1" d="M392.86,632.77l-3.67,5.51"/><path class="cls-1" d="M369,526.21l5.51,1.83"/><path class="cls-1" d="M310.18,632.77l5.51,5.51"/><path class="cls-1" d="M2213.65,390.24c2.45,4.9,6.55,9.65,7,14.73,1.06,11.54.33,23.25.33,35.8h-14.7c0-13.73-.25-28.46.25-43.17.09-2.51,3.43-4.91,5.26-7.36"/><path class="cls-1" d="M367.14,575.81c-1.84,1.23-4.33,2.09-5.3,3.8-.7,1.25.62,3.64,2,9.91,2.76-6.42,3.94-9.14,5.12-11.87"/><path class="cls-1" d="M97.05,371.87c11,13.16,10.64,15.76-7.29,32.84-2.89-8.52-6.37-15-7.09-21.85-.82-7.89,4-12.24,12.54-11"/><path class="cls-1" d="M60.3,368.2c11.35,7.7,19.39,15.79,11.3,31.37-6.71,12.94-15.86,20.58-24.16,16.4s-15.22-27-8.82-34.61c4.92-5.82,13.11-8.88,19.85-13.16"/><path class="cls-1" d="M1526.49,302.05c10.47,4,11.52,12.24,11.18,22.06-.57,16.51-.15,33.06-.15,50.31-15.13,13.84-32.41,8.95-52.37,4.51V310.66c11.1-13.73,26.34-6.83,39.5-8.61"/><path class="cls-1" d="M1679,588.68l22,15.67c-9.53,6-15.36,11.43-22.11,13-3.36.81-10.83-4.63-12.2-8.68-2.88-8.51,2.22-14.86,10.52-18.21"/><path class="cls-1" d="M1708.39,445.36c33.25,8.81,64.52,21.58,88.1,47.85s38.44,55.68,43,91.71c5.46,43.46-5.73,81.07-30.11,115.77-25.12,35.77-61.07,57.94-102.91,63.53-83.87,11.21-161.11-32.51-183.19-124.2-19.52-81.1,26-153.74,93.46-183.19,15.24-6.66,32.74-8.9,49.47-11.11,13.24-1.76,26.9-.36,40.37-.36"/><path class="cls-1" d="M1699.2,489.46c28,8.09,52.92,20,71.89,43.91,50.33,63.35,20.16,163.8-64.4,184.49-67.56,16.53-133.15-37.11-140.48-94.18-9.31-72.37,41.25-134.22,114.62-134.22h16.53"/><path class="cls-1" d="M365.3,489.46c9.19,2.45,18.72,4,27.5,7.5,42.94,17,78.86,58.51,75,117.41-2.93,44.39-31.41,88.42-84.15,102.68-67.62,18.29-132-19.2-145.85-90C225.48,564,261.65,509.7,325,493.42c12.36-3.18,25.65-2.73,38.51-4"/></g></g></svg>