<svg xmlns="http://www.w3.org/2000/svg" viewBox="0 0 1886.57 602.3"><title>coupe_left</title><g id="Capa_2" data-name="Capa 2"><g id="Capa_1-2" data-name="Capa 1"><path d="M1119.18,1.23c6.06.13,12.15.45,18.2.93,5.1.41,10.22.54,15.31.94,9.72.77,19.42,1.69,29.13,2.56,8,.71,15.93,1.3,23.87,2.21,11.9,1.37,23.78,3,35.67,4.46,17,2.17,33.85,4.83,50.72,7.62,23,3.8,46,8.2,68.78,13q43.41,9.21,86.29,20.65,51.72,13.7,102.56,30.35c28,9.12,55.7,19,83.21,29.45,30.51,11.59,60.67,24,90.36,37.59,5.27,2.4,10.45,4.42,16.37,4.93,7.46.64,14.86,2.1,22.26,3.4a190.36,190.36,0,0,1,38.77,10.71A98.38,98.38,0,0,1,1830,187.94c11.17,10.09,18.88,22.46,24.11,36.47A239.13,239.13,0,0,1,1865.53,268c1.72,10.09,3.08,20.22,4,30.43s1.76,20.39,1.75,30.63c0,4.64,0,9.28,0,13.92,0,1.44-.06,2.89.06,4.32a14.16,14.16,0,0,0,8.25,12.08,13.82,13.82,0,0,0,3.58,1.33c2.37.43,3,1.91,3.21,4.07.62,8.24.18,10.38-4,17.85a13.81,13.81,0,0,1-.72,1.24,10.61,10.61,0,0,0-1.68,6.38c.07,3.36-.1,6.72,0,10.08a17.05,17.05,0,0,1-2.49,9.6c-1,1.66-2,3.27-3.06,4.88a4.17,4.17,0,0,0-.82,3.6c.61,2.15-.05,4.08-1,6-1.8,3.57-3.6,7.14-5.29,10.76a9.13,9.13,0,0,1-9.12,5.75c-2.08,0-4.16.05-6.24,0a8.49,8.49,0,0,0-5.67,2.15c-4.09,3.34-8.33,6.49-12.45,9.79a89,89,0,0,1-36,17.3c-15.26,3.55-30.5,7.19-45.83,10.43-28.32,6-56.74,11.44-85.16,16.88a25.47,25.47,0,0,1-3.81.37,1.88,1.88,0,0,1-2-1.68,24.57,24.57,0,0,1-.09-6.69c.19-2.71.43-5.42.46-8.14.08-7.67-.06-15.33-.54-23a283.19,283.19,0,0,0-3.16-29.07c-3.8-22.75-10.77-44.41-22.17-64.55a163.06,163.06,0,0,0-42.76-49.35,173.84,173.84,0,0,0-35.44-21c-15.92-7.1-32.56-11.57-50-12.44a206.26,206.26,0,0,0-45.88,2.55c-24.28,4.25-46.86,12.73-67.48,26.27a120,120,0,0,0-17.71,13.92c-11.31,10.94-19.69,23.94-26.51,38-8.85,18.23-14.74,37.47-19,57.23q-4.1,18.76-6.4,37.83c-1,8.09-1.63,16.22-2.22,24.35-.48,6.7-.65,13.42-1,20.12a11.65,11.65,0,0,1-.12,1.44,2.52,2.52,0,0,1-2.52,2.42,41.19,41.19,0,0,1-4.31.24c-18.06.35-36.13,0-54.21.75-21.73.85-43.49.13-65.24,1s-43.5.11-65.24,1c-21.1.84-42.22.11-63.33.94-21.89.87-43.82.12-65.72,1-21.58.84-43.18.12-64.77,1-21.89.84-43.82.12-65.72,1-21.74.84-43.5.13-65.25,1s-43.49.12-65.24,1-43.5.13-65.25,1-43.81.13-65.72,1-43.82,0-65.73,1c-11.5.5-23,.27-34.55.35-1.12,0-2.25,0-3.36-.07-1.85-.17-2.56-.86-2.84-2.65a13.53,13.53,0,0,1-.14-1.91c-.18-11.36-1-22.68-1.78-34-.75-10.38-1.85-20.71-3.37-31a351,351,0,0,0-10.29-48.29c-5.23-17.72-12-34.79-21.66-50.59-7.31-11.93-16-22.77-26.88-31.69a193,193,0,0,0-27.27-18.7,170.21,170.21,0,0,0-69.49-21.86,151.47,151.47,0,0,0-35.91,1,158.87,158.87,0,0,0-55.8,19.64,192.54,192.54,0,0,0-43.14,34.11A151.18,151.18,0,0,0,176.73,377c-8.53,19.82-12.14,40.68-13.25,62.07a192.7,192.7,0,0,0,1.11,29.22,194.8,194.8,0,0,0,6.68,35.31,32.78,32.78,0,0,1,.84,3.24,1.74,1.74,0,0,1-1.86,2.2,21.29,21.29,0,0,1-4.3-.13,76.89,76.89,0,0,0-9.09-.57c-8.31-.37-16.61-.78-24.91-1.18l-1-.08c-7.49-.52-15-1.09-22.48-1.55s-15-.82-22.5-1.23c-.48,0-1-.09-1.44-.13-6.21-.52-12.41-1.05-18.63-1.54-5.41-.43-10.85-.68-16.25-1.25a75.21,75.21,0,0,1-15.08-2.74c-10.79-3.45-18.95-9.83-22.88-20.82A41.09,41.09,0,0,1,9.5,463.7c.07-24.48.07-48.95.17-73.43a11.8,11.8,0,0,0-2.52-7.55c-1.94-2.54-3.7-5.22-5.57-7.81A7.83,7.83,0,0,1,.08,369c1-7.45,1.68-14.94,2.88-22.35a528.24,528.24,0,0,1,17.21-71.8,45.51,45.51,0,0,1,6.09-12.44,136.19,136.19,0,0,1,26.18-27.9c21-17.16,44.82-28.88,70.63-36.75,22.26-6.78,45.17-10.28,68.14-13.46,8.39-1.16,16.8-2.14,25.21-3.15,10-1.19,20-2.4,30-3.46,7.94-.84,15.93-1.33,23.86-2.24,3.82-.45,7.65-.65,11.46-1,5.57-.53,11.13-1.13,16.7-1.6s11.19-.58,16.73-1.25c4.15-.5,8.29-.61,12.43-1,6-.5,12.1-1.13,18.15-1.57,6.7-.48,13.43-.58,20.1-1.27,5.1-.53,10.21-.62,15.31-1,7.18-.5,14.34-1.16,21.51-1.6,8-.49,16-.8,23.95-1.19l1.44-.1c7.81-.53,15.62-1.16,23.44-1.57,9.26-.49,18.53-.8,27.79-1.17a9.24,9.24,0,0,0,4.16-.94c6.15-3.35,12.92-4.62,19.72-5.69a279.4,279.4,0,0,1,32.94-2.75,16.26,16.26,0,0,0,6.91-1.69c4.57-2.31,9.21-4.47,13.82-6.69,17-8.18,34-16.42,51-24.51q41.83-19.86,84.29-38.35,52.1-22.81,105-43.57a154.5,154.5,0,0,1,16.72-6c18.56-4.85,37.23-9.28,56.09-12.84q18.38-3.45,36.84-6.42c9.46-1.53,19-2.79,28.49-4,7.13-.89,14.3-1.52,21.45-2.23,8.9-.88,17.8-1.85,26.72-2.54q15.06-1.15,30.15-1.88,14.85-.7,29.72-1c7.68-.15,15.36,0,23.51,0C1084-.47,1101.6.84,1119.18,1.23Zm-1088,298c1.67.7,3.08,0,4.48.14a6.5,6.5,0,0,1,3.92,1.52,3.39,3.39,0,0,1,.08,5.07c-2.07,2-4.51,2.08-7.11,1.33-1.06-.3-1.77-1.36-2.94-1.33-.67.36-.74,1-.87,1.63a7.05,7.05,0,0,0,0,1.38c6.4-1,6.4-1,11.38,1.76,1.07-3,2-6,3.19-9S45.74,295.93,47,293c.77-1.2,1.6-2.37,2.3-3.62a107.3,107.3,0,0,1,11.91-16.7c2-2.3,1.21-3.62-1.69-4.14a6.85,6.85,0,0,0-3.29.36,17.38,17.38,0,0,0-5.17,2.43,47.37,47.37,0,0,0-14.71,16l-1,1.94A31.74,31.74,0,0,0,31.13,299.22ZM1362.38,149.93c3.19-1.05,6.37-2.13,9.55-3.21a17.45,17.45,0,0,0,7.82-5.35q13.35-15.74,26.69-31.48c.82-1,1.58-2,2.31-3.06a1.74,1.74,0,0,0-.47-2.52,23.05,23.05,0,0,0-6.61-3.84c-9.15-3.84-18.42-7.33-27.78-10.62q-4.76-1.68-9.48-3.41a7.9,7.9,0,0,1-2.1-1.09,1.44,1.44,0,0,1-.34-1.26,1.47,1.47,0,0,1,.93-.92,7.05,7.05,0,0,1,3.71.73c6.48,2.3,13,4.55,19.41,7,6,2.26,11.9,4.71,17.84,7.08a31.64,31.64,0,0,1,7.79,4.68c2.19,1.72,2.36,3,.62,5.28-1.86,2.41-3.83,4.72-5.79,7q-12.09,14.3-24.19,28.57a18.61,18.61,0,0,1-7.7,5.55c-9,3.41-18,6.51-27.55,8.19-3.14.56-6.28,1.19-9.38,2a31.9,31.9,0,0,1-6.66.74c-10.55.32-21.11.47-31.64,1.06-12.45.69-24.9,1.28-37.35,1.92-11.49.59-23,1.29-34.47,1.92-11,.6-22,1.38-33,1.9-10.06.46-20.1,1.21-30.15,1.85-1.35.09-1.75.8-1.09,1.85.16.28.35.54.53.8l.58.77c10.63,13.85,16.28,29.58,17.69,46.91.22,2.71.47,5.42.72,8.12s.79,3.21,3.63,3.33c1.28.05,2.56,0,3.84,0,10.55-.27,21.1-.58,31.65-.8,7-.14,14.08-.14,21.12-.19a117.87,117.87,0,0,0,12.46-.49c2-.23,4.16-.49,6.17.33a1.26,1.26,0,0,1,.85,1.51,1.17,1.17,0,0,1-1,.94,23.54,23.54,0,0,1-2.37.27c-10.7.79-21.42.77-32.13.87-4.64,0-9.28,0-13.92.11-8.79.22-17.58.52-26.37.8a15.38,15.38,0,0,0-1.91.16,2.24,2.24,0,0,0-1.95,1.85,46.49,46.49,0,0,0-.79,5.21c-1.22,17.22-5.52,33.74-11.12,50-10,29-24.14,56.08-40,82.25a734.3,734.3,0,0,1-43.45,63.28,32.73,32.73,0,0,0-2.44,3.54,1,1,0,0,0,.73,1.44,19.57,19.57,0,0,0,2.87.14c5.44.07,10.86-.37,16.29-.62,7.35-.34,14.73,0,22.07-.41,12.94-.7,25.91-.45,38.84-1.09,9.6-.47,19.2-.3,28.77-.88,9.91-.59,19.83-.42,29.72-1,8-.49,16-.26,24-.95,8.93-.77,17.91-.31,26.82-1.42,2.85-.35,5.76-.16,8.63-.35,3.82-.26,7.64-.67,11.46-1a2.78,2.78,0,0,0,2.67-2.33c.48-1.85.95-3.71,1.39-5.58,7.55-32.13,20.35-62,39.36-89,14.43-20.52,32.09-37.76,53.73-50.67a160.85,160.85,0,0,1,49.35-19.39,225,225,0,0,1,28-4c9.4-.78,18.8-1.56,28.23-1.5,8.32.05,16.6.67,24.88,1.46a204.42,204.42,0,0,1,36.24,6.82c27.62,7.78,51.94,21.35,72.58,41.41a183.31,183.31,0,0,1,31.86,41.86c9.57,17,16.41,35,21.69,53.7a358.19,358.19,0,0,1,10.13,52.23c.44,3.49.78,7,1.05,10.5a16.18,16.18,0,0,1-.26,3.8,1.25,1.25,0,0,1-2.22.21,6.8,6.8,0,0,1-.67-2.25c-.66-5.4-1.22-10.8-1.89-16.2-3.57-28.56-10.23-56.31-21.9-82.72-8.34-18.86-19-36.25-32.93-51.55a160.64,160.64,0,0,0-55.36-39.7,186.24,186.24,0,0,0-49.28-13.75c-6.66-.92-13.33-1.5-20-2a176.72,176.72,0,0,0-19.65-.55c-7.5.27-15,1-22.48,1.47-5.91.39-11.75,1.24-17.6,2.13a159.84,159.84,0,0,0-41.3,12.14,161.78,161.78,0,0,0-52.69,37.78,201.33,201.33,0,0,0-26.83,36.15,259.46,259.46,0,0,0-28.68,71.95c-.55,2.33-1.12,4.67-1.53,7a4.13,4.13,0,0,1-3.86,3.63c-.63.1-1.27.2-1.9.26-3.5.31-7,.7-10.51.88-8.94.46-17.9.64-26.83,1.25-9.74.66-19.51.51-29.24,1.12-7.83.5-15.67.34-23.48.83-11.5.73-23,.41-34.52,1.08-10.4.6-20.8.29-31.17.88-12.31.71-24.62.52-36.92,1-6.07.24-12.14.6-18.21.66a6.46,6.46,0,0,0-5.45,2.43c-3,3.76-6,7.45-9,11.2a1.81,1.81,0,0,0-.44,1.3c.12.73.84.89,1.48.92,1.12.05,2.24.06,3.36,0,6.24-.08,12.46-.25,18.7-.61,8-.46,16,0,24-.46,13.42-.72,26.87-.43,40.28-1.08,10.23-.5,20.47-.31,30.69-.85,12.79-.68,25.59-.42,38.36-1.06,10.4-.53,20.8-.31,31.17-.88,12-.66,24-.48,36-1,7.51-.35,15-.59,22.53-.76.8,0,1.6-.05,2.39-.13a2.33,2.33,0,0,0,2.23-2.13q1-6.15,2-12.31c3.59-22.17,9-43.88,17.22-64.8a173.08,173.08,0,0,1,21-38.72c8.72-11.92,19.59-21.47,31.93-29.42a180.46,180.46,0,0,1,67.1-26,205.43,205.43,0,0,1,45.86-2.91,148.44,148.44,0,0,1,54.62,13.51A176.89,176.89,0,0,1,1602,317.36a167.6,167.6,0,0,1,41.8,53.82A205.15,205.15,0,0,1,1662,428.6a293.64,293.64,0,0,1,3.65,56.89c-.05,1.75-.09,3.52,0,5.27s.83,2.32,2.49,2.07c3.16-.48,6.31-1,9.45-1.61,29.82-5.77,59.64-11.54,89.3-18.07,12.8-2.82,25.57-5.81,38.18-9.41a57.37,57.37,0,0,0,15.73-6.95,242.17,242.17,0,0,0,28.55-21.86c6-5.3,11.92-10.67,17.05-16.85a90.92,90.92,0,0,0,6.9-9.21,14.66,14.66,0,0,0,2.47-8.61c-.1-3.36.07-6.72,0-10.08a14.61,14.61,0,0,1,2.1-8.24c.91-1.5,1.78-3,2.55-4.61a11,11,0,0,0,1.07-3.15c.3-1.93-.64-3.11-2.8-2.42-5.63,1.82-11.23,3.74-16.93,5.31-18.67,5.16-37.63,9-56.68,12.38-11.34,2-22.67,4-34,5.91-11.67,1.92-23.37,3.69-35.06,5.46-8.22,1.24-16.45,2.37-24.69,3.51a21.24,21.24,0,0,1-4.29.19c-1.58-.11-2.65-2.57-1.55-3.71,1.94-2,3.7-4.05,7-4.47a582.83,582.83,0,0,0,60.44-10.5c12-2.82,24-5.77,35.39-10.44,3.26-1.33,6.5-2.72,9.63-4.33,8.31-4.27,14.68-10.77,20-18.28a26.09,26.09,0,0,0,4.53-18.21,122.72,122.72,0,0,0-2.34-14.67c-1.81-8.12-3.67-16.22-5.51-24.33-.22-.93-.48-1.86-.78-2.77-1.5-4.55-1.2-5.44-7-6.42a29.86,29.86,0,0,1-9.36-3.65,94.61,94.61,0,0,1-29.71-25.36,46.42,46.42,0,0,1-5.63-9.47c-3.3-7.41-3.77-14.79.25-22.14,1.12-2.05.94-2.58-1.12-3.88a111.51,111.51,0,0,0-26-12.13,130.39,130.39,0,0,0-31.51-5.86c-5.1-.31-10.18-1-15.26-1.51-4-.41-8-.56-12-1-8.74-1-17.52-1.5-26.27-2.28-5.25-.46-10.5-1-15.74-1.56-4-.39-8-.47-12-1-5.55-.67-11.16-.83-16.73-1.27-6.38-.49-12.74-1-19.11-1.57-.48,0-1-.13-1.43-.15-7.19-.4-14.37-.77-21.55-1.2-8.14-.5-16.27-1.06-24.4-1.59q-1-.07-1.92-.12c-24.29-1-48.6-1.49-72.91-1.2-2.72,0-5.44.12-8.16.05-10.41-.27-20.8.54-31.15,1.25-19.3,1.33-38.52,3.51-57.44,7.82-3.1.71-6.31.94-9.47,1.42a209.7,209.7,0,0,0-52.75,15.61,236,236,0,0,0-50.64,30,249.41,249.41,0,0,0-51.9,54.87,302.19,302.19,0,0,0-36.15,70.19c-1.53,4.21-3,8.45-4.48,12.67-.38,1.05-.59,2.21-1.51,2.94a1.32,1.32,0,0,1-2.14-.77c-.29-1.32.34-2.5.73-3.71,2.54-7.93,5.42-15.73,8.57-23.43a304.8,304.8,0,0,1,29.86-56.28c22-32.24,49.42-58.61,83.41-78a229.68,229.68,0,0,1,68.8-26.06c3.6-.72,7.26-1.14,10.88-1.78,7.08-1.26,14.14-2.63,21.22-3.85,8.82-1.52,17.68-2.77,26.61-3.49,5.42-.43,10.82-1,16.23-1.51.79-.07,1.59-.16,2.39-.18,12.62-.43,25.23-1.34,37.88-1.18,14.4.19,28.8.05,43.19.26,9.27.13,18.54.57,27.8,1q15.81.78,31.6,1.81c6.7.43,13.38,1.09,20.07,1.59,5.9.43,11.8.74,17.7,1.19,6,.47,12.1,1.06,18.15,1.58,4.61.41,9.23.78,13.85,1.19,6.52.58,13,1.21,19.57,1.77,4.94.43,9.88.77,14.81,1.2,5.57.49,11.14,1.06,16.71,1.57,4.61.43,9.22.92,13.85,1.22a136.6,136.6,0,0,1,35.69,6.82A120,120,0,0,1,1782,218.57c.55.33,1.11.65,1.62,1a3.12,3.12,0,0,0,4.33-.32,27.71,27.71,0,0,1,2.29-1.75,44.44,44.44,0,0,1,17.46-7.56,24.74,24.74,0,0,1,14.07,1.68,34.51,34.51,0,0,1,13.7,10.24,80.28,80.28,0,0,1,10.62,16.51c6.95,14.52,11.44,29.84,14.47,45.61.86,4.47.26,5.17-4.16,5.29a67.66,67.66,0,0,1-11-.38,62.28,62.28,0,0,0-6.7-.43c-2,0-2.58.67-1.93,2.73,2.87,9,4.3,18.37,6.44,27.55,1,4.51,1.63,9.13,2.39,13.7a29,29,0,0,1-5.17,22.32c-6.41,9-14.31,16.32-24.54,20.92-11.44,5.13-23.42,8.55-35.51,11.65-2.63.68-5.27,1.3-8,1.95.92.84,1.9.32,2.81.24s1.88-.41,2.82-.56c1.11-.19,2.23-.27,3.33-.46,20.94-3.69,41.88-7.36,62.59-12.2a287.73,287.73,0,0,0,30.92-8.71,17.5,17.5,0,0,0,5.27-2.35c0-1.57-1.39-1.55-2.28-2-7.32-3.66-10.82-9.66-10.94-17.75,0-1,0-1.92,0-2.88,0-3.52.06-7,.07-10.56,0-10.72-.79-21.39-1.72-32.07a364.32,364.32,0,0,0-5.14-37.53A211.46,211.46,0,0,0,1849,222.86a85.51,85.51,0,0,0-20.72-30.81c-8.3-7.78-17.9-13.4-28.3-17.75a180.89,180.89,0,0,0-36.37-10.44c-9.11-1.73-18.26-3.19-27.49-4.12a31.6,31.6,0,0,1-10.1-2.82c-11.49-5.25-23.07-10.31-34.62-15.44-.73-.33-1.48-.6-2.22-.89a3.34,3.34,0,0,0-3.21.22c-2.55,1.64-5.41,1.77-8.32,1.82-7.56.11-15-1.22-22.36-2.49-25.56-4.41-50.6-11.08-75.67-17.6q-35.05-9.12-69.75-19.56c-26.81-8-54-14.89-80.75-23-22-6.65-44.1-13.3-65.47-22A119.63,119.63,0,0,1,1348,50.68a54.93,54.93,0,0,1-5.2-3.43,14.8,14.8,0,0,1-3-3c-2-2.73-1.48-5.62,1.32-7.46a49.24,49.24,0,0,1,5.09-2.53c-4.86-1-9.32-2-13.82-2.84-15.88-2.89-31.75-5.9-47.67-8.53q-22.71-3.73-45.53-6.76c-12.19-1.64-24.44-2.85-36.67-4.22-7.94-.88-15.88-1.78-23.83-2.54-5.57-.53-11.16-.8-16.74-1.23-6.7-.5-13.38-1-20.08-1.57-.47,0-1-.11-1.43-.13-8.78-.38-17.57-.7-26.35-1.13-24.46-1.2-48.93-1.07-73.41-.81-9.91.1-19.82.53-29.72,1-9.41.46-18.82,1.1-28.22,1.85-8.92.71-17.83,1.61-26.73,2.53-9.53,1-19.07,2-28.58,3.23-9.2,1.18-18.37,2.55-27.52,4-14.84,2.38-29.62,5.11-44.3,8.34-11.39,2.51-22.74,5.25-34.11,7.9a12.51,12.51,0,0,0-1.73.7c-.14,1.23.82,1.24,1.47,1.48,2.54,1,5.11,1.85,7.64,2.85A11.93,11.93,0,0,1,831.73,40a2.92,2.92,0,0,1,.2,4.28,10.22,10.22,0,0,1-4.54,2.58c-2.43.79-4.89,1.49-7.33,2.26C804.64,54,789.63,59.94,774.73,66.18,762.18,71.43,749.8,77,737.48,82.79c-17.12,8-34,16.5-50.61,25.39Q650.24,127.74,615,149.74a54.92,54.92,0,0,0-7,5.08,53.94,53.94,0,0,1-13,8.14,100.17,100.17,0,0,1-32.32,8.5c-1,.09-1.91.3-2.86.33-6.24.2-9.12,4.58-11.64,9.36-.62,1.18.07,2.24,1.44,2.34s2.56.07,3.84.06c8.16-.08,16.33.08,24.47-.31,15.35-.74,30.7-.8,46-.77a9.54,9.54,0,0,0,6.85-2.9c5-4.71,10.43-9,15.83-13.23a515,515,0,0,1,55.47-37.82A603.66,603.66,0,0,1,803.07,80.65,630.33,630.33,0,0,1,908,52.12c11.63-2.12,23.33-3.9,35.09-5.25q14.28-1.62,28.61-2.89c15.47-1.33,30.95-2,46.47-1.8,4.81.07,9.57-.6,14.36-.7,18.24-.37,36.49-.63,54.71.17,8.93.39,17.9.3,26.82,1.34,6.5.75,13.08.76,19.61,1.24,5.42.4,10.83,1,16.23,1.5,3.82.38,7.63.82,11.45,1.19,20.37,2,40.6,4.93,60.76,8.42q35.72,6.18,70.7,15.53a618.42,618.42,0,0,1,93.1,32.88c1.6.71,3.2,1.46,4.75,2.29s1.86,1.73.85,3.53c-.23.42-.5.82-.76,1.22a175.6,175.6,0,0,1-30,35.4c-2.14,1.9-4.47,3.6-7.65,6.16A44.66,44.66,0,0,0,1362.38,149.93ZM571.56,291.28c1.06,21.42.25,42.87,1,64.28.83,23.67.4,47.34.94,71,.17,7.19.54,14.37.58,21.57a10.94,10.94,0,0,0,.21,1.9,2.39,2.39,0,0,0,2.24,2.14c1.11.11,2.24.13,3.35.13,10.88-.07,21.78.22,32.63-.33,16.79-.84,33.6-.24,50.37-1,16-.7,32-.25,48-.95,16.15-.72,32.31-.25,48.44-1,15.19-.69,30.39-.24,45.56-.94,15.51-.71,31-.27,46.53-1,14.39-.66,28.79-.25,43.16-.94,14.71-.7,29.44-.27,44.13-1,13.75-.67,27.51-.25,41.24-.94s27.52-.28,41.25-1c12.63-.65,25.26-.55,37.89-.87,5.27-.13,10.53-.55,15.81-.71a6.43,6.43,0,0,0,5.31-2.72c.39-.52.8-1,1.19-1.51a706.6,706.6,0,0,0,53.88-79.92c11.06-19.31,21-39.19,28.86-60a238.11,238.11,0,0,0,12.23-43.84,126.46,126.46,0,0,0,1.74-17.16c.07-2.07-.41-2.71-2.42-2.68-6.71.11-13.43-.33-20.13.52a7,7,0,0,0-4.89,2.61c-1.3,1.61-2.84,3-4.27,4.54-4.07,4.31-9.27,5.42-14.9,5.1-2.38-.14-4.8-1.11-7.09-.82s-3.54,3-5.58,4.31a29.57,29.57,0,0,1-14.88,4.8,34,34,0,0,1-11.41-1.07c-4.66-1.44-9-3.49-12.09-7.4a3.66,3.66,0,0,0-4.62-1.27,22.93,22.93,0,0,1-8.51,1.15c-4.76-.19-7-1.86-8.41-6.35-.19-.61-.23-1.26-.43-1.86a2.07,2.07,0,0,0-1.74-1.47,24.82,24.82,0,0,0-3.34-.16c-12,.09-24-.2-36,.4-15.67.77-31.36.22-47,1-16,.75-32,.22-48,1s-32,.23-48,1-32,.23-48,1-32,.22-48,1-31.67.21-47.48.95-31.67.23-47.48,1c-16.15.75-32.31.22-48.44,1-15.83.74-31.66.52-47.49.87-4.63.11-9.26.43-13.89.69-2.35.14-2.79.62-2.75,2.92q.21,11.52.45,23h.08C571.51,278.48,571.25,284.9,571.56,291.28Zm-417.19-66.1a498.38,498.38,0,0,0-56.43,15.38c-13.49,4.65-26.57,10.21-38.74,17.75a62.56,62.56,0,0,0-12.11,9.4c1,1,1.59.06,2.14-.25a24,24,0,0,1,6.64-2.68c5.66-1.2,10.14.79,12.8,5.9a23.75,23.75,0,0,1,2.42,11.63,52.77,52.77,0,0,1-1.69,11.85,85,85,0,0,1-19.64,37.42,43.76,43.76,0,0,1-9.49,8,19.91,19.91,0,0,1-7.55,2.92,10.67,10.67,0,0,1-11.42-5.27c-2.46-4.14-2.88-8.75-2.66-13.44.45-9.74,3.38-18.83,7.48-27.6.67-1.44,1.31-2.9,1.95-4.36,0-.07-.17-.23-.41-.53A83.57,83.57,0,0,0,21.09,303a92.57,92.57,0,0,0-7.92,23.08,44.13,44.13,0,0,0-.28,14.81C14.3,350,19.53,356.32,28,360a52.43,52.43,0,0,0,18.21,3.81c8.62.46,17.25.78,25.87,1.26a63.1,63.1,0,0,1,7.09,1,.8.8,0,0,1,.56,1.12c-.11.27-.34.63-.58.68a9.45,9.45,0,0,1-2.36.27c-3-.14-6.06-.34-9.09-.53-1.12-.07-2.23-.23-3.35-.29-7.18-.37-14.37-.62-21.55-1.13a46.33,46.33,0,0,1-18-4.69,26.75,26.75,0,0,1-14.44-18.72c-.35-1.53-.64-3.09-1.06-5.15-1.42,3.55-1.54,6.77-2.08,9.88-.84,4.88-1.39,9.81-2,14.73a19.69,19.69,0,0,0-.09,3.35,2.18,2.18,0,0,0,1.67,2.09,24.68,24.68,0,0,0,5.67.92c8,.56,15.93,1.18,23.9,1.77.32,0,.64.06,1,.07,12.78.39,25.54,1.63,38.35,1.12a8,8,0,0,1,3.78.3,1.9,1.9,0,0,1,1.21,1.89c0,.74-.55,1.1-1.14,1.37a9.74,9.74,0,0,1-4.23.69c-8.15,0-16.32.41-24.44-.69-.63-.09-1.28-.08-1.92-.11-7.82-.4-15.65-.72-23.46-1.23-5.58-.37-11.14-1-16.71-1.53a13.52,13.52,0,0,0-1.91,0,1,1,0,0,0-.76,1.41c2.11,3,4.24,6,6.42,9a3.62,3.62,0,0,0,3,1.3c1.28,0,2.56,0,3.84.1,13.2.63,26,2.95,38.15,8.46A54.79,54.79,0,0,1,77.86,408c10.68,13.27,19.81,27.5,26.42,43.27.44,1,1,2,1.48,3,1.81,3.45,3.25,6.94,2.37,11-.29,1.32.47,2.09,1.86,2.22a37.8,37.8,0,0,0,3.84.13q20.39,0,40.79-.12c5.46,0,5.62-.36,5.13-5.81a181.45,181.45,0,0,1,0-30.66,204.51,204.51,0,0,1,3.14-23.27c5.39-27.23,16.61-51.8,34.86-72.74,22.41-25.7,49.55-44.71,82.22-55.26a162.19,162.19,0,0,1,99.55,1,191.11,191.11,0,0,1,53.85,28c15.88,11.66,28.28,26.28,37.94,43.35,10.33,18.25,17.19,37.8,22.32,58a387.09,387.09,0,0,1,7.59,39.07c.12.79.15,1.59.32,2.37a2.47,2.47,0,0,0,2.63,2.3,50.74,50.74,0,0,0,7.19,0c8.46-.84,16.94-.58,25.42-.71,8.15-.12,16.31-.09,24.47-.2a44.24,44.24,0,0,0,6.19-.57c1.68-.26,2.28-1.05,2.22-2.6-.77-23.34-.11-46.71-.84-70-.66-21.27-.2-42.55-.93-63.8-.64-18.71-.52-37.42-.91-56.13-.07-3.51-.38-7-.66-10.53-.19-2.34-.91-3.07-3.4-3-5.6.05-11.19-.07-16.78.39-4.94.41-9.91.45-14.86.53-11.36.18-22.69.92-34,1.26-6.86.2-13.76.23-20.59.84-9.41.85-18.87.32-28.25,1.46-.48.06-1,.07-1.44.09-10.7.42-21.41.76-32.11,1.27-8.3.4-16.59,1-24.88,1.53-.32,0-.64.06-1,.07-8.94.41-17.89.76-26.82,1.25-7.82.43-15.63,1-23.44,1.54-1.76.11-3.51.19-5.27.26-21.86.88-43.24,4.42-63.92,11.69a182.51,182.51,0,0,0-105.51,95,29.86,29.86,0,0,1-2.07,3.76,1.19,1.19,0,0,1-1.71.25,1.53,1.53,0,0,1-.6-1.2,18.7,18.7,0,0,1,1-3.19,118.28,118.28,0,0,1,8.77-17.05,185.29,185.29,0,0,1,84-74.67,203.78,203.78,0,0,1,50-14.79,199.39,199.39,0,0,1,20-2.36c10.37-.67,20.75-1.21,31.1-2,7.66-.55,15.36-.31,23-1.44a3.88,3.88,0,0,1,.48,0c9.1-.41,18.21-.77,27.31-1.23s18.18-1,27.28-1.55c.48,0,1-.08,1.44-.1,10.86-.41,21.73-.77,32.59-1.24,10.53-.46,21.07-1,31.6-1.56.48,0,1-.07,1.44-.08,9.59-.15,19.18-.56,28.76-1,11.18-.53,22.37-.75,33.56-1.11a23.78,23.78,0,0,0,2.39-.17,2.58,2.58,0,0,0,2.1-1.75,11.68,11.68,0,0,0,.55-1.83c1.53-7.32,4.82-13.89,8.68-20.18a141.63,141.63,0,0,1,15.26-20.31c2.88-3.22,5.8-6.4,8.69-9.6.42-.46.93-.89.8-1.63-.22-.18-.46-.52-.7-.53a134.14,134.14,0,0,0-16.77.35,65.22,65.22,0,0,1-6.71.25c-7.84.11-15.69-.09-23.51.34-11.35.62-22.71.45-34,1.06-7.51.41-15.05.21-22.52.9-9.57.88-19.19.23-28.73,1.48-.47.06-1,.06-1.44.08-9.58.4-19.17.73-28.74,1.24-7.34.39-14.67,1-22,1.51l-1.44.12c-7.5.41-15,.74-22.5,1.24-6.06.4-12.1,1-18.15,1.52-4.46.41-8.93.41-13.39,1-5.54.69-11.15.83-16.73,1.29s-11.13,1.07-16.7,1.59c-4.77.44-9.55.83-14.33,1.26-3.81.35-7.64.68-11.45,1.11-14,1.56-28,3-41.91,4.79-14.9,1.89-29.8,3.78-44.62,6.29-4.57.77-9.16,1.42-13.73,2.18a27.09,27.09,0,0,0-4.18,1c-22.41,7.69-44.64,15.81-65.73,26.72a176.82,176.82,0,0,0-16.62,9.59c-.93.62-1.85,1.26-2.72,2s-1,1.75.09,2.34c8,4.45,9.22,12.14,8.59,19.92-1.35,16.76-8.46,31-20.79,42.53a27,27,0,0,1-12,6.75c-6.48,1.59-12.26-1-15.22-7a16.85,16.85,0,0,1-1.83-6.43c-.33-5.11-.43-10.22.8-15.27,2.93-12.06,8.34-22.78,17-31.75a33.72,33.72,0,0,1,12.11-8.44,12.93,12.93,0,0,0,3.66-2.23A110.64,110.64,0,0,1,121.86,244a359.56,359.56,0,0,1,42.73-19.55l3.51-1.38-.18-.74C163.4,223.29,158.88,224.2,154.37,225.18Zm951.08-54.5c-9.27.46-18.55.3-27.8.87-10.54.66-21.11.38-31.63,1-9.43.58-18.88.31-28.28.9-10.39.66-20.8.37-31.16,1-9.59.6-19.19.31-28.76.92-10.23.65-20.47.36-30.68,1-9.59.6-19.19.32-28.76.92-10.22.64-20.47.35-30.67,1-9.75.61-19.52.31-29.24.94-10.07.65-20.16.34-30.2,1-9.75.62-19.52.33-29.24,1-10.39.66-20.8.33-31.16,1-9.75.62-19.51.3-29.24.94-10.06.65-20.15.33-30.19,1-9.75.63-19.52.35-29.24.94-8.79.54-17.61.24-26.36,1-7.19.61-14.36.57-21.54.71a7.53,7.53,0,0,0-5.56,2.26c-10.65,10.68-20.5,22-28.13,35.09a53.75,53.75,0,0,0-5.47,12.24,26.49,26.49,0,0,0-.85,3.73c-.31,2.08.17,2.71,2.17,2.75a73,73,0,0,0,8.63-.1c7.19-.75,14.39-.54,21.58-.67,7.35-.13,14.73.14,22.07-.23,13.9-.71,27.82-.48,41.72-.93,19-.62,38.07-.42,57.08-1.09,15.35-.54,30.71-.2,46-.91,16.31-.74,32.63-.26,48.92-1,15.67-.69,31.35-.24,47-.94,16.31-.73,32.63-.26,48.92-1,15.35-.68,30.71-.25,46-.93,16.47-.73,32.95-.28,49.4-1,15.51-.68,31-.59,46.53-.82a18.08,18.08,0,0,0,7-1.2c3.75-1.62,7.8-1.67,11.75-2.18a9.36,9.36,0,0,0,5.48-2.56c6.92-6.53,15.37-8.19,24.48-7.08a25.73,25.73,0,0,1,14.73,6.41,6.31,6.31,0,0,0,4.74,1.87c4.8-.16,9.6.15,14.38-.48,4.39-.58,8.63-.2,12.41,2.42a4.51,4.51,0,0,0,3.2.79c6.53-.78,13.1-.47,19.65-.76,2.69-.11,3.36-.87,3.2-3.64-.63-10.73-2.06-21.31-5.84-31.47a82.58,82.58,0,0,0-12.21-21.65c-.68-.88-1.48-1.68-2.24-2.5a5.39,5.39,0,0,0-4.27-1.81c-3.36,0-6.72,0-11.61,0C1131,170.35,1118.22,170.05,1105.45,170.68ZM963.21,151.54c17.27-.45,34.54-.43,51.79-1,10.07-.36,20.15-.3,30.2-.89,9.27-.54,18.55-.41,27.8-1,7.18-.46,14.4-.28,21.55-.92,9.09-.81,18.22-.42,27.29-1.45a5.81,5.81,0,0,0,5.3-3.93c7-15.77,14.21-31.48,21.31-47.22q5.13-11.37,10.19-22.78c.39-.87.81-1.74,1.12-2.64a1.84,1.84,0,0,0-1.69-2.72c-2.69-.37-5.39-.71-8.09-1-8.43-.77-16.87-1.47-25.31-2.22-5.89-.52-11.77-1.12-17.66-1.6-4.77-.39-9.57-.53-14.35-.94-8-.68-16-.77-23.94-1.21-19.65-1.07-39.32-1.18-59-.81-9.1.17-18.19,1-27.27,1.52-4.47.27-8.93.62-13.39,1A588.85,588.85,0,0,0,858,82.32a400.56,400.56,0,0,0-43.51,15c-7.55,3.13-14.84,6.74-21.14,12.11a38.29,38.29,0,0,0-7.5,8.67c-5.34,8.37-4.41,20.49,1.17,28.62a4.46,4.46,0,0,0,3.56,2.11c3.51.25,7,.75,10.52.79,16.3.2,32.6.94,48.9,1.42,22.39.65,44.77.5,67.15.56C932.51,151.62,947.87,151.94,963.21,151.54Zm-191.8,24.94c10.26-1.65,20.64-2.33,31-3.44,5.72-.61,11.47-.82,17.21-1.23q10.77-.76,21.52-1.57c.48,0,.95-.1,1.43-.12,6.07-.23,12.14-.43,18.2-.93,6.37-.51,12.77-.51,19.16-.87,12.61-.69,25.25-.84,37.88-1.28,17.26-.6,34.54-.57,51.79-1.19,23.36-.84,46.71-.34,70-.86,22.07-.49,44.14-.61,66.21-.6,10.24,0,20.48,0,30.71.12,5,.05,9.9.43,14.86.5s5.08,0,7.16-4.6c1.64-3.64,3.27-7.29,4.85-11a1.31,1.31,0,0,0-1.29-2c-2.71,0-5.43.1-8.14.24-2.24.12-4.46.42-6.69.54-10.69.61-21.38,1.18-32.08,1.77l-.48,0c-8.3.36-16.6.9-24.91,1-12.63.22-25.25,1-37.87,1.37-9.59.3-19.19.3-28.77.84-15.66.89-31.34.46-47,1-36.94,1.27-73.89.57-110.84.5-12.29-1-24.63-.26-36.92-1-8.79-.51-17.58-.56-26.36-.91-4.15-.17-8.29-.57-12.44-.74a5.6,5.6,0,0,1-4.79-2.7c-8-12.23-8.62-26.07,1.51-37.64a57.25,57.25,0,0,1,15.84-12.29c7.75-4.25,16-7.27,24.27-10.29A533.16,533.16,0,0,1,911.1,66.44Q929.48,63,948,60.68c7.45-.93,15-1.46,22.42-2.24,10-1,20.08-1.38,30.13-2,14.71-.92,29.42-.64,44.13-.53,9.42.07,18.86.51,28.28,1q15.32.74,30.63,1.85c9.71.72,19.41,1.68,29.12,2.56,7.8.7,15.61,1.33,23.39,2.19,9.21,1,18.4,2.2,27.58,3.43q13.54,1.83,27,3.9c18.65,2.83,37.17,6.39,55.52,10.81,16,3.86,31.85,8.41,47,14.89a32.17,32.17,0,0,1,6.38,3.31,26.45,26.45,0,0,1,3,2.38c4.72,4.55,4.59,9.7-.34,14.1a33.81,33.81,0,0,1-8.14,5,111.47,111.47,0,0,1-19,6.68,412.31,412.31,0,0,1-49.35,9.86c-10.44,1.49-20.88,3-31.34,4.38-7.13.92-14.3,1.54-21.44,2.34-4.61.51-9.2,1.12-13.8,1.67a3.89,3.89,0,0,0-3.35,2.36q-2.84,6.36-5.66,12.71a4.86,4.86,0,0,0-.27.92,1.36,1.36,0,0,0,1.19,1.72c1.59,0,3.19,0,4.78-.09,2.71-.17,5.42-.44,8.13-.61l27.27-1.71c.32,0,.64-.05,1-.06,8.62-.41,17.25-.76,25.86-1.24,8-.44,16-1,23.92-1.55.8,0,1.6-.1,2.4-.13,5.75-.23,11.5-.6,17.24-.8,11.35-.4,22.66-1.41,34-1.4,6.07,0,12.14-.49,18.2-.8a25.49,25.49,0,0,0,10.45-3.28,66.83,66.83,0,0,0,14.13-9.86,169.12,169.12,0,0,0,25.74-29.65c.28-.4.55-.79.81-1.2,1.51-2.4,1.43-2.84-1-4-4.82-2.16-9.63-4.33-14.51-6.35a628.42,628.42,0,0,0-80.42-27.06q-28.31-7.5-57.06-12.9c-15.24-2.87-30.54-5.33-45.93-7.27-11.1-1.39-22.19-2.83-33.33-3.84-7.32-.67-14.64-1.34-22-1.9-11.32-.88-22.65-1.36-34-2-22.07-1.23-44.14-1-66.2-.46-12.46.3-24.94.27-37.4.83-7.34.33-14.67,1-22,1.56-4,.3-8,.72-11.94,1.07a590.26,590.26,0,0,0-83.66,13.82,614.41,614.41,0,0,0-111.57,37.94,586.5,586.5,0,0,0-85.57,47.31,441.7,441.7,0,0,0-39.17,29.32A31,31,0,0,0,637,180a.87.87,0,0,0,.67,1.38,19.26,19.26,0,0,0,2.4.09c6.23-.18,12.46-.11,18.69-.6s12.79-.26,19.19-.47c5.91-.18,11.82-.51,17.72-.81,1.94-.1,2.31-.69,1.69-2.41-.11-.3-.28-.57-.41-.86a13.17,13.17,0,0,1-.18-10.75c4.22-10,9.62-19.18,18.06-26.21a41.84,41.84,0,0,1,18.09-8.5c4.35-1,8.81-1.52,13.25-2a25.77,25.77,0,0,1,11.34,1.44,22.82,22.82,0,0,1,13.11,11.32c3.84,7.13,4.94,14.81,4.23,22.78a14.76,14.76,0,0,1-3.7,8.19c-.91,1.09-1.89,2.12-3.1,3.46A4.55,4.55,0,0,0,771.41,176.48ZM551.6,498.11c25.9-1.14,51.83-.26,77.72-1,25.11-.75,50.23-.23,75.32-.95,17.27-.5,34.54-.54,51.81-.76,3.52-.05,7,0,10.55-.07,30.39-.8,60.79-.45,91.17-1.13,25.11-.57,50.22-.15,75.32-.91,25.58-.78,51.18-.21,76.75-1,25.27-.76,50.55-.18,75.8-.95,25.59-.77,51.19-.19,76.76-1,25.27-.76,50.55-.18,75.8-.95,24.63-.74,49.26-.56,73.88-.86,4.54-.06,5.06-.51,5.26-4.83a111.31,111.31,0,0,1,.89-12,15.6,15.6,0,0,0,.06-3.35,2,2,0,0,0-2.13-2.12c-1.59-.06-3.19,0-4.79.11-2.55.15-5.09.51-7.65.54-16.63.17-33.24.93-49.87,1.37-13.1.34-26.23.19-39.32.89-14.23.75-28.47.25-42.68.95-15.51.76-31,.24-46.52,1-15.83.75-31.67.22-47.48.95-16.79.76-33.59.22-50.36,1-17,.76-33.91.19-50.84.95-17.59.8-35.19.2-52.76,1-17.91.78-35.83.21-53.72,1-18.23.77-36.47.21-54.68,1-18.55.77-37.11.19-55.64.95-19.19.79-38.39.19-57.56,1s-38.39.18-57.56,1-38.39.19-57.56,1c-20,.8-40,.42-60,.94-6.22.16-12.45.55-18.68.64a9.4,9.4,0,0,0-1.91.22,2.11,2.11,0,0,0-1.8,2A44.9,44.9,0,0,0,505.7,496a2.71,2.71,0,0,0,2.72,2.28c1.27.06,2.55.08,3.83.08h20.64v-.16C539.13,498.16,545.38,498.39,551.6,498.11ZM62.77,251.34c14.73-8.28,30.51-14,46.6-18.88a656.58,656.58,0,0,1,74.69-17.4c16.68-3,33.4-5.66,50.19-7.94,12.35-1.68,24.7-3.33,37.09-4.72,10-1.12,20-2.41,30-3.46,8.26-.87,16.55-1.48,24.82-2.24,8.91-.82,17.81-1.74,26.73-2.51,5.89-.51,11.79-.81,17.69-1.26,6.37-.48,12.74-1,19.11-1.52.64,0,1.27-.14,1.91-.18,7.34-.4,14.69-.76,22-1.21,7.49-.47,15-1,22.47-1.54.48,0,1-.1,1.44-.12,9.26-.4,18.53-.76,27.79-1.21,9.74-.48,19.47-1,29.2-1.56l1.92-.09,41.24-1.22c.64,0,1.28-.06,1.92,0,2,.12,3.35-.6,3.92-2.68a23.33,23.33,0,0,1,3.53-6.78c1.25-1.85.92-2.4-1.47-2.43q-8.16-.09-16.31-.07a33.79,33.79,0,0,1-8.58-.84c-2.93-.75-5.85-1.57-8.7-2.58a3.74,3.74,0,0,1-2.39-5.4,35.74,35.74,0,0,1,2.43-4.11.88.88,0,0,0-.64-1.41,20.78,20.78,0,0,0-3.35.07c-6,.88-12,1.76-17.79,3.82a18.37,18.37,0,0,0-3.12,1.22c-3.29,2-6.87,2.35-10.61,2.47-9.58.31-19.18.6-28.75,1.22-10.84.7-21.69,1.38-32.55,1.89-10.37.48-20.74,1.24-31.1,1.91-9.25.61-18.5,1.21-27.74,1.92-10.36.79-20.7,1.73-31.05,2.54-5.9.47-11.8.77-17.7,1.24-5.1.41-10.18,1-15.27,1.42s-9.87.86-14.8,1.33q-13.6,1.29-27.2,2.65c-7.31.72-14.63,1.45-21.94,2.24-6.35.68-12.71,1.38-19.05,2.2-8.71,1.12-17.43,2.25-26.12,3.55-22.31,3.33-44.55,7-66,14.36a231.15,231.15,0,0,0-35.51,15.66c-1,.54-1.93,1.14-2.91,1.69a3.67,3.67,0,0,0-2.2,3.83c.29,4-1.14,7.55-3.17,10.88a60.74,60.74,0,0,1-8.23,10.59l-4.63,4.79.44.62A16.27,16.27,0,0,0,62.77,251.34ZM1251.41,492.19c-18.86.71-37.73.68-56.6.82-6.4.05-12.8-.14-19.19.12-22.22.88-44.45.72-66.68.88-2.55,0-5.12-.06-7.67,0-28,1.05-56,.35-83.95,1.11-24.79.68-49.58.13-74.35.92-25.9.83-51.82.15-77.71,1-24.63.79-49.26.19-73.87.93-17.91.54-35.81.58-53.72.76-7.36.08-14.73-.17-22.07.14-26.54,1.12-53.1.22-79.63,1.05-24,.76-48,.21-72,.91-17.75.52-35.49.62-53.24.78-.48,0-1,0-1.44,0-2.5.19-3.18.79-3.27,3.15q-.1,2.88.08,5.76c.15,2.25.76,2.86,2.89,3,1.11.08,2.24.06,3.36.06,10.87,0,21.76.24,32.62-.24,21.91-1,43.83-.23,65.72-1,21.59-.75,43.18-.2,64.75-1,21.91-.77,43.83-.2,65.72-1,21.59-.76,43.19-.2,64.75-1,21.91-.76,43.83-.2,65.72-1,21.59-.75,43.19-.2,64.76-1,21.91-.77,43.83-.2,65.72-1,21.43-.75,42.87-.2,64.28-1,21.9-.77,43.82-.21,65.71-1,21.59-.74,43.19-.2,64.76-1,21.9-.77,43.82-.22,65.71-1,16.47-.57,32.94-.5,49.4-.78,4.52-.08,4.89-.46,4.94-5,0-.64,0-1.28,0-1.92-.16-2.43-.81-3.14-3.15-3.34-1.12-.1-2.24-.06-3.36-.06h-32.15v.36C1269.32,492.13,1260.35,491.86,1251.41,492.19ZM622.48,471.3c21.1-.59,42.21-.55,63.3-1.14,15.35-.43,30.71-.19,46-.91,14.87-.69,29.75-.25,44.59-1,13.91-.67,27.83-.26,41.71-1s27.83-.28,41.71-1c12.95-.66,25.91-.26,38.84-.94s25.91-.29,38.83-1c12.47-.66,25-.28,37.39-.95s25-.3,37.39-1c12.15-.65,24.29-.58,36.44-.88,3.83-.1,7.65-.47,11.48-.72a4.58,4.58,0,0,0,3.4-1.55q5.21-6.27,10.33-12.6c.57-.7,0-1.62-1-1.63a78.88,78.88,0,0,0-9.1.09c-4.47.49-8.94.52-13.41.58-7,.11-14.09-.14-21.11.28-14.22.86-28.46.34-42.66,1-13.11.65-26.23.26-39.32.9-15.34.74-30.7.32-46,1-13.75.64-27.51.24-41.23.89-16,.76-32,.31-48,1-14.87.67-29.74.22-44.59.91-16.46.75-32.94.26-49.39,1-15.66.71-31.34.22-47,.92-17.27.78-34.55.27-51.79,1-13.27.56-26.53.5-39.79.77-5.25.1-5.41.24-5.43,5.4,0,2.39,0,4.8.09,7.19.14,2.61.88,3.25,3.6,3.44,1,.07,1.91,0,2.87,0h26.39v-.35C612.25,471.32,617.37,471.45,622.48,471.3ZM1678.39,136q-31.87-13.29-64.31-25.21c-23.27-8.57-46.66-16.76-70.26-24.37-36.68-11.82-73.66-22.65-111-32.25-22.31-5.74-44.75-10.87-67.19-16-6.45-1.49-12.68-.58-19,.67-1.25.25-2.67.56-3,2-.46,1.72,1,2.62,2.09,3.44a63.23,63.23,0,0,0,10.82,6.17c9.16,4.22,18.62,7.7,28.13,11C1409.14,70,1434,77.4,1459,84.21c26.38,7.2,52.56,15.09,78.86,22.54,26.62,7.53,53.29,14.82,80.19,21.28,14.15,3.39,28.35,6.53,42.71,8.87a84.59,84.59,0,0,0,17.18,1.44c1,0,2.22.33,3.14-.56C1680.62,136.47,1679.35,136.43,1678.39,136ZM1200.7,140.5c6.35-.73,12.71-1.38,19-2.24,12-1.65,24.07-3.29,36.06-5.19a361.71,361.71,0,0,0,35.68-7.35,126.26,126.26,0,0,0,17.78-5.76,73.15,73.15,0,0,0,6.91-3.33,21.07,21.07,0,0,0,4.21-3.14c3.29-3.17,3.13-6.4-.44-9.4a30.28,30.28,0,0,0-7.79-4.66,236.63,236.63,0,0,0-23.93-8.57,529.25,529.25,0,0,0-64.5-14.66c-2.52-.42-5-1-7.55-1.39-1.41-.23-2.85-.32-4.28-.47a3.48,3.48,0,0,0-3.8,2.29c-1.51,3.35-3,6.71-4.53,10.06l-22.68,50.83c-.45,1-.93,2-1.32,3.09-.48,1.32.23,2.19,1.62,2.1Q1190.95,141.61,1200.7,140.5ZM822.85,40.65c-3.76-1.35-7.51-2.73-11.3-4-1.1-.36-2.2.22-3.25.61-3.44,1.29-6.89,2.58-10.32,3.91C762.82,54.9,728,69.48,693.43,84.6q-45.93,20.1-91.24,41.58c-18.93,9-37.69,18.29-56.52,27.47-2.45,1.19-4.84,2.5-7.68,2.5a3.14,3.14,0,0,0-1.39.31c-5,2.53-10.38,4.24-15,7.45a16.57,16.57,0,0,0-1.83,1.52,1,1,0,0,0,.4,1.56,12.07,12.07,0,0,0,4.67.95c10.87,0,21.78.45,32.62-.15C571.25,167,584.64,164,597,157.24a37.23,37.23,0,0,0,8-5.3,56.28,56.28,0,0,1,9.34-6.7q36.74-22.69,74.88-43a1010.41,1010.41,0,0,1,99.13-46.11c11.59-4.6,23.23-9.08,35.27-12.43.85-.24,1.92-.27,2.49-1.36C825.31,41.2,824,41.06,822.85,40.65Zm442.16,418c-10.71.51-21.44.25-32.12.89-12,.7-24,.33-36,1-11,.63-22.07.29-33.08.92-12.31.7-24.63.33-36.92,1-11.35.63-22.71.28-34,.92-12.62.71-25.27.31-37.88,1-11.67.64-23.35.26-35,.91-12.94.73-25.91.31-38.83,1-12,.64-24,.26-36,.91-13.43.74-26.88.3-40.28,1-12.15.65-24.31.27-36.44.89-14.71.75-29.43.34-44.12,1.05-12.79.61-25.59.26-38.36.86-16,.76-32,.36-48,1.06-13.75.61-27.5.29-41.24.85-15.82.65-31.66.49-47.48,1-24.3.72-48.62.38-72.91,1.08-21.91.63-43.81.42-65.72.64-1.44,0-2.88,0-4.32.11-.62,0-1.4.22-1.42,1,0,1.05.85,1.17,1.67,1.24.31,0,.63,0,.95,0,4.8,0,9.63.25,14.4-.14,8.94-.73,17.9-.53,26.85-.67,8.79-.14,17.6.13,26.39-.22,20.94-.84,41.91-.35,62.84-1.06,18.87-.64,37.75-.18,56.6-.92,19.18-.76,38.39-.22,57.55-1,18.55-.73,37.11-.2,55.64-1s37.11-.22,55.64-1c17.6-.72,35.2-.22,52.77-.94,17.91-.73,35.83-.25,53.72-1,16.79-.68,33.59-.22,50.36-.95s33.59-.23,50.36-1c16-.7,32-.25,48-1,15.35-.68,30.71-.26,46-1,14.39-.66,28.8-.27,43.16-1,13.27-.63,26.56-.29,39.8-1,11.52-.59,23-.34,34.53-.95,9-.48,17.89-.62,26.84-.91,2.71-.08,5.41-.49,8.11-.78a3.83,3.83,0,0,0,1.38-.38,2,2,0,0,0,1-2,1.68,1.68,0,0,0-1.35-1.74,36.18,36.18,0,0,0-4.29-.25c-2.4,0-4.8,0-7.2,0C1292.83,458.46,1278.9,458,1265,458.68ZM1855.45,285.9a1.84,1.84,0,0,0,1.68-2,12.14,12.14,0,0,0-.28-1.89c-2.91-13.81-6.79-27.31-12.77-40.15a79.48,79.48,0,0,0-10.5-17.14c-4.25-5.16-9.3-9.17-15.84-11.14a22.67,22.67,0,0,0-13.23.33,41.12,41.12,0,0,0-12.36,6.24,9.32,9.32,0,0,0-1.73,1.65,1.56,1.56,0,0,0,0,2.18,17.61,17.61,0,0,0,2.14,1.9c17.73,14,30.4,31.83,39.28,52.46,3.23,7.51,3.25,6.55,9.72,6.95,1.59.1,3.17.47,4.76.59,1.43.1,2.88,0,4.32,0S1853.85,286,1855.45,285.9ZM63.06,478.32c-1.43,0-2.87.08-4.3.17a.94.94,0,0,0-.64,1.45,21.65,21.65,0,0,0,2,2.1c6.68,6,13.78,11.43,22,15.2a33.22,33.22,0,0,0,11.47,3.17c9.4.73,18.81,1.29,28.22,1.78,8.3.44,16.58,1.1,24.88,1.61,3,.18,6.08.14,9.11.29,2.87.14,5.74.41,8.61.59,1.44.1,2.38-.68,2.08-1.89-1.8-7.3-3.34-14.65-4.67-22.05a2.46,2.46,0,0,0-2.29-2.12c-1.43-.15-2.87-.2-4.31-.21q-23.26,0-46.55,0v-.1ZM1163.41,144a3.75,3.75,0,0,0,3.7-2.53c1.1-2.48,2.23-5,3.35-7.43q12.39-27.33,24.76-54.64c.79-1.75,1.49-3.53,2.14-5.34a1.66,1.66,0,0,0-1.31-2.18q-3.3-.63-6.62-1.09c-4.59-.63-9.19-1.21-13.78-1.82-3.5-.46-4.14-.22-5.66,3-2.68,5.63-5.25,11.32-7.85,17q-9.47,20.73-18.92,41.47-2.51,5.46-5,10.91a14.41,14.41,0,0,0-.67,1.8,1.45,1.45,0,0,0,1.43,2c2.39.07,4.79,0,7.19,0C1152,145.21,1157.64,143.89,1163.41,144ZM56.2,414.65c.08-1.59.16-3.19.15-4.79,0-3.73-1.27-5.33-4.8-6-2.66-.49-5.37-.77-8.07-1.08-2.53-.3-5.08-.52-7.62-.76-.63-.06-1.27-.1-1.91-.11-5.34-.1-8.4,2.26-9.57,7.47-.45,2-.71,4.09-1,6.15Q20.18,436.87,17,458.19a23.25,23.25,0,0,0-.35,3.8,2.61,2.61,0,0,0,2.38,2.58,17,17,0,0,0,2.86.2q9.11,0,18.21,0c4.53,0,8.79-1.54,13.16-2.46a2,2,0,0,0,1.46-2.2c0-3.51,0-7,0-10.53h-.34Q55.29,432.11,56.2,414.65ZM19,416c.34-2.21.67-4.42,1.06-6.63A16.38,16.38,0,0,1,21.93,404c2.69-4.73,7.05-6.39,12.15-6.08,5.74.34,11.46,1,17.17,1.68a14.36,14.36,0,0,1,8.11,3.83,35.63,35.63,0,0,1,7.82,10.24A204.52,204.52,0,0,1,81,448.34a39.34,39.34,0,0,1,1.37,8,13.93,13.93,0,0,1-2.83,9.45c-.75,1-.34,1.9.89,1.94,3,.07,6.07.08,9.11.07s6.08-.07,9.11-.15a5.33,5.33,0,0,0,3.9-1.58,5,5,0,0,0,1.46-4.83,14.46,14.46,0,0,0-1.08-3.17c-3.62-6.76-6.32-14-10.13-20.66a203.25,203.25,0,0,0-18.68-27.27C67,401.38,57.54,396.23,47,392.91a98.77,98.77,0,0,0-26.36-4.62,31.37,31.37,0,0,0-3.36,0c-1.82.15-2.57.87-2.78,2.68a25,25,0,0,0-.11,2.87q0,23.5,0,47c0,.47.07.94.11,1.42l.51.18Q17,429.23,19,416ZM565.1,472.22c4.65,0,4.81-.21,4.82-4.91,0-2.88,0-5.76-.11-8.63-.11-2.32-1-3.07-3.44-2.89-14.2,1-28.44.47-42.65.81-5.91.14-11.81.44-17.72.68a9.23,9.23,0,0,0-1.89.24,1.87,1.87,0,0,0-1.56,2.1c.27,3.18.55,6.37,1,9.53.33,2.3,1.21,3,3.51,3.14,1.27.09,2.56.06,3.83.06h26.38v-.11C546.56,472.24,555.83,472.26,565.1,472.22ZM1823,267.6a127.65,127.65,0,0,0-27-34.52c-2.26-2-4.62-3.93-7-5.74-2-1.47-2.9-1.12-4.16,1.09-2.45,4.29-2.42,8.85-1.35,13.47a34.76,34.76,0,0,0,6.29,12.82A89.17,89.17,0,0,0,1821,280.94c3.57,1.85,4.93,2.09,9.21,2.29A104.53,104.53,0,0,0,1823,267.6ZM714,162.6c1.9-.18,3.81-.38,5.69-.71,10.68-1.86,21.42-3.3,32.17-4.64,5.57-.69,11.14-.67,16.7-1.17,1.56-.13,2-.66,1.76-2.13-.89-4.92-2.33-9.63-5.56-13.57-4.56-5.56-10.17-7.94-17.39-5.9a78,78,0,0,0-16.48,6.35A38.21,38.21,0,0,0,715,156.36a16.43,16.43,0,0,0-2,5.29C713.13,162.25,713.48,162.65,714,162.6ZM18.35,302.16c9.74-19.75,23.23-36.68,39.11-51.79A83.43,83.43,0,0,0,68.76,238c1.1-1.56,2.15-3.18,3.09-4.84a13.47,13.47,0,0,0,1.73-5c.1-.78.22-1.68-.48-2.24s-1.55-.17-2.2.27c-2.65,1.78-5.31,3.56-7.9,5.44A142.66,142.66,0,0,0,32.4,261.2c-1.44,1.91-2.78,3.91-4.13,5.89a28.06,28.06,0,0,0-3.42,7.36q-4.22,13.26-7.79,26.7c-.24.9-.76,1.79-.15,2.76C17.91,303.76,18,302.83,18.35,302.16Zm22,27.88c.08,1-.46,2.48.9,2.92,1.19.39,2-.74,2.81-1.49a66.56,66.56,0,0,0,11-13.83,90.6,90.6,0,0,0,9.49-21.36,76.22,76.22,0,0,0,2.27-12.69,20.46,20.46,0,0,0-1.14-8.94,1,1,0,0,0-1.57-.53A10,10,0,0,0,62,276.05c-10.91,13.33-18.52,28.22-21.16,45.4-.31,2-.35,4.13-.49,5.95C40.33,328.44,40.28,329.24,40.34,330ZM59.53,487.16c-2.24-2-4.52-4-6.62-6.22a8.09,8.09,0,0,0-6.38-2.64c-5.11.09-10.22,0-15.32,0-4.84.06-9.58-.23-13.86-2.84a.85.85,0,0,0-1.26.19A1.83,1.83,0,0,0,16,477a21.56,21.56,0,0,0,3.31,6.34A30,30,0,0,0,29.38,492,42.08,42.08,0,0,0,43,496.32q10.67,1.41,21.42,2c2.7.15,5.39.55,8.09.79.78.07,1.57,0,2.36,0C69.56,495,64.28,491.45,59.53,487.16Zm-1.63-30c.19,2.69,1.23,3.73,3.94,3.82,4.14.14,8.29.13,12.44,0,2.5-.08,3.29-1,3.45-3.63A27.37,27.37,0,0,0,76.21,447c-2.45-7.42-5.16-14.75-8.3-21.91a82.8,82.8,0,0,0-5.66-11.59,11.26,11.26,0,0,0-1.51-1.8c-.11-.11-.73,0-.77.16a6.83,6.83,0,0,0-.37,1.85c-.36,7.8-.74,15.6-1,23.4-.16,4.3-1,8.56-.72,12.57C57.86,452.42,57.73,454.82,57.9,457.2ZM85.4,319a13.21,13.21,0,0,0,1.22,1.47c.77.79,1.52,1.75,2.84,1.31S90.93,320.19,91,319c.28-3.66.48-7.32.89-11,1.47-13.18,5.34-25.58,12.54-36.81,1.63-2.54,3.59-4.87,5.37-7.32a1.3,1.3,0,0,0-.68-1.95,8.39,8.39,0,0,0-9.56,2.29c-6.15,7.18-11.53,14.89-15.23,23.65-2.12,5-3.72,10.19-3.6,15.87A24.05,24.05,0,0,0,85.4,319Zm9.7-1.44c1.29.48,2.32-1.38,3.3-2.37,8.7-8.75,13.89-19.37,16.31-31.36a42.37,42.37,0,0,0,.25-12.87,7.85,7.85,0,0,0-.37-1.87c-.37-1-.43-2.38-1.66-2.74s-2,.81-2.66,1.63a53.85,53.85,0,0,0-6.49,10,89.53,89.53,0,0,0-9.58,35.31C94.52,314.71,93.32,316.84,95.1,317.51ZM833.49,175.43c7.19-.5,14.37-.49,21.56-.74,12.46-.44,24.92-.7,37.37-1.18,9.11-.36,18.22-.31,27.31-.85,10.7-.63,21.42-.4,32.1-1,9.43-.56,18.86-.31,28.27-.89,10.38-.65,20.78-.39,31.14-1,9.42-.57,18.84-.62,28.27-.82.6,0,1.2,0,2.52,0a8,8,0,0,0-4.47-.63c-20,.1-40-.11-59.95.47-14.54.43-29.1.3-43.62,1-10.06.47-20.14.31-30.18.92-8.3.5-16.61.56-24.91.91q-18.67.79-37.33,1.9c-9.39.56-18.77,1.34-29.29,2.1C820.11,175.53,826.83,175.9,833.49,175.43Zm-85-4.05c-11.33,0-22.62-.87-33.92-1.49-2.26-.13-3,.38-3.06,2.55-.2,6.07.51,6.2,5.66,6.1,3.19-.07,6.37-.13,9.55-.48,2.85-.31,5.73-.26,8.6-.3,4.95-.08,9.9,0,14.84-.17a27.39,27.39,0,0,0,13.61-4,13.13,13.13,0,0,0,1.53-1.13,6.09,6.09,0,0,0,.72-1.05Zm-32.23-4.53c15.29.81,30.59,1.62,45.92,1.12a18.65,18.65,0,0,0,5.65-.85c2.51-.87,3.78-4.55,2.3-6.72a3.09,3.09,0,0,0-2.95-1.24c-1.91.12-3.8.45-5.71.53-10.22.44-20.29,2.14-30.4,3.56-4.57.65-9.12,1.5-13.68,2.27a2.15,2.15,0,0,0-1.87,1C716,166.72,716.12,166.84,716.27,166.85Zm456-23.83a2.69,2.69,0,0,0,2.87-1.31,40.72,40.72,0,0,0,2-3.83q8.84-19.69,17.63-39.4c2.87-6.41,5.76-12.83,8.62-19.25.59-1.31,1.1-2.66,1.6-4a1.53,1.53,0,0,0-.79-2,1.94,1.94,0,0,0-2.58.46,14.66,14.66,0,0,0-1.14,2.1q-6.54,14.4-13.06,28.83-6.83,15.08-13.65,30.14c-.86,1.89-1.66,3.81-2.46,5.72a8.45,8.45,0,0,0-.33,1.29A1.39,1.39,0,0,0,1172.26,143Zm-41.71,2.56a1.13,1.13,0,0,0,.91.08,4.09,4.09,0,0,0,1.46-1.14,28.91,28.91,0,0,0,1.76-3.41q11.37-24.84,22.73-49.69l8.16-17.88c.53-1.16,1.08-2.31,1.58-3.49.32-.76.49-1.59-.48-2a1.83,1.83,0,0,0-2.2.48,13.67,13.67,0,0,0-1.73,2.83q-9.09,20.09-18.13,40.2-6.31,14-12.63,28c-.78,1.73-1.46,3.51-2.13,5.11C1130.19,145.12,1130.31,145.45,1130.55,145.58Zm-42.82,96.68a30.11,30.11,0,0,0-3.8.31,1.26,1.26,0,0,0-.72,1.92,18.08,18.08,0,0,0,2.32,2.39c8.08,6.51,23.89,6.52,32,.08a22.87,22.87,0,0,0,2.09-2,1.51,1.51,0,0,0,.41-1.73,1.65,1.65,0,0,0-1.59-.88c-1.27-.09-2.55-.13-3.83-.13h-13.43C1096.69,242.25,1092.21,242.23,1087.73,242.26ZM27.18,473.16l4.32,0,122.81,0c1.6,0,3.2-.06,4.79-.15.2,0,.37-.38.56-.59-.21-.18-.41-.51-.64-.53a27.44,27.44,0,0,0-2.87-.13l-28.3.05c-13.11,0-26.23,0-39.34.13q-23.73.22-47.46.7a83.25,83.25,0,0,1-17.62-1.58,7.26,7.26,0,0,0-1.4,0A6.64,6.64,0,0,0,27.18,473.16Zm689.2-329.53a42.66,42.66,0,0,0-6.94,7.87,92.81,92.81,0,0,0-7.55,12.74,15.08,15.08,0,0,0-1.78,7.36,7.53,7.53,0,0,0,4.16,6.52,1.84,1.84,0,0,0,2.84-1.44,40.9,40.9,0,0,0,.09-4.29c-.19-13.91,6-24.46,17.07-32.42,1.23-.88,2.48-1.72,3.72-2.58A26,26,0,0,0,716.38,143.63ZM85.81,275.54a65.37,65.37,0,0,0-11.15,25.17,44,44,0,0,0-.51,12.38,13.11,13.11,0,0,0,2.62,7.08c1.64,2.1,3.68,3.52,6.53,3.27a.89.89,0,0,0,.75-1.39c-.39-.69-.84-1.35-1.27-2a28.66,28.66,0,0,1-4.52-21.41c1.38-8,4.74-15.17,8.8-22.08.8-1.36,1.66-2.68,2.5-4C87.59,272.91,86.72,274.27,85.81,275.54ZM1108.58,224a29.67,29.67,0,0,0-17.89,1.17,16.33,16.33,0,0,0-5,2.86,1.05,1.05,0,0,0-.35.8,1.08,1.08,0,0,0,.62.6,2.43,2.43,0,0,0,.94.11c9.75,0,19.49-.18,29.2-1.06.14,0,.27-.14,1-.54A19.14,19.14,0,0,0,1108.58,224Zm20.2,10.83c-.4,0-1.11.31-1.14.55-.14,1,.76.85,1.31.88,2.55.15,5.11.17,7.66.35a25.32,25.32,0,0,1,3.76.67.84.84,0,0,1,.47.69.93.93,0,0,1-.66.53c-1.11.1-2.22.15-3.34.16-2.24,0-4.48,0-6.71,0a11.92,11.92,0,0,0-2.39.17,2.13,2.13,0,0,0-1.7,2.06c-.1,1.15.63,1.7,1.67,2,6.51,1.65,12.37.85,17-4.47.63-.72,1.29-1.42,1.89-2.16a.91.91,0,0,0-.6-1.46c-3,0-6.07,0-9.11,0v.07C1134.21,234.8,1131.49,234.77,1128.78,234.82Zm39.84-87.31a5.14,5.14,0,0,0-1.15,1.49c-2,4.32-4,8.63-5.9,13-.62,1.42.39,2.45,1.94,2.23a3.14,3.14,0,0,0,2.59-1.85q3.11-6.93,6.11-13.92a1.23,1.23,0,0,0-1-1.77A3.13,3.13,0,0,0,1168.62,147.51ZM1065,236c-2.57.36-3.52,2.74-2.16,5a1.8,1.8,0,0,0,2.38,1,49.35,49.35,0,0,1,9.82-3.38,1.42,1.42,0,0,0,.78-.49c.25-.37.57-.86.49-1.22a1.37,1.37,0,0,0-.92-.91c-1.73-.09-3.46,0-5.19,0h0A39,39,0,0,0,1065,236ZM23.24,329.9a12.07,12.07,0,0,0,2.11,5.78,6.84,6.84,0,0,0,4.71,3,2.14,2.14,0,0,0,2.22-.53c.63-.85-.08-1.5-.67-2a24.54,24.54,0,0,1-8.17-14.83A31.38,31.38,0,0,0,23.24,329.9Zm1088.67-95c-8.6.84-17.21.53-25.81.73-1.44,0-2.87.1-4.3.2-.48,0-.94.35-.87.9s.62.64,1.09.61c3.66-.24,7.31-.57,11-.75,3.82-.19,7.65-.31,11.47-.37,4.62-.06,9.25,0,13.88,0a4.38,4.38,0,0,0,4-1.33C1118.23,234.89,1115,234.64,1111.91,234.94Zm754.64,194.14c1.33-2.51,2.56-5.08,3.92-7.77-2,.78-2,.79-4,2.9-1.1,1.14-2.25,2.23-3.31,3.4s-2.67,2.18-3.35,3.92C1864.32,432.43,1864.87,432.25,1866.55,429.08ZM29.68,317c-1-.39-1.66.36-1.71,1.62s.48,2.29,1.3,2.12a16.71,16.71,0,0,1,7.51,0c.68.17,1.18-.34,1.33-1s.24-1.54.48-3.18C35.22,317.87,32.47,318.1,29.68,317Zm-.16,8.77c.3,1.46,2.32,2.58,4.16,2.32,1.6-.24,3-1.43,3-2.54,0-1.34-1.56-2.45-3.49-2.49C31,323,29.23,324.35,29.52,325.78ZM518.09,158.27a18.33,18.33,0,0,0-4,4c-1,1.39-1.34,2.85-.69,2.9,1.21.11,1.34-1.12,2-1.68,1.33-1.1,2.65-2.23,4.06-3.23s2.64-1.68,4.6-2.9A6.06,6.06,0,0,0,518.09,158.27ZM1121.58,239a278.37,278.37,0,0,0-29.46,0ZM33.88,314.88c1.64-.06,2.92-1,2.76-1.95a3.13,3.13,0,0,0-2.9-2,4.29,4.29,0,0,0-.94.1,2.58,2.58,0,0,0-2.27,2.06c0,.91,1,1.67,2.41,1.78l.47,0ZM1861.39,437a1.65,1.65,0,0,0,.42-.78c0-.11-.08-.38-.17-.4-2.35-.48-4.7-.81-7,.36a1,1,0,0,0-.4.77.89.89,0,0,0,.57.62c.78.11,1.59.1,2.22.13C1858.65,437.53,1860.15,438,1861.39,437ZM1053.47,167.76v.14H1070v-.14ZM33.07,304.34a3.16,3.16,0,0,0,1.22.66,2.68,2.68,0,0,0,3-.91,1.09,1.09,0,0,0,.19-.87c-.55-1.24-1.68-1.31-2.79-1.18a4.51,4.51,0,0,0-1.69.69c-.19.12-.21.54-.31.83C32.78,303.82,32.86,304.17,33.07,304.34ZM33.64,332a3.84,3.84,0,0,0,2.5,2,.87.87,0,0,0,.78-.33,2.61,2.61,0,0,0-.11-2.66c-.39-.63-2.32-.46-3,.19a1.36,1.36,0,0,0-.2.4A1.12,1.12,0,0,0,33.64,332ZM61,464.37a49,49,0,0,0,10.49,0ZM1069.86,242.62c3.4.09,3.41.1,6.73-1.84C1073.87,241.16,1071.94,241.31,1069.86,242.62Zm74.23-11.39v-.15H1141l0,.15Z"/><path d="M1492.12,288.2a157.05,157.05,0,1,1,1.09,314.1c-90.43.1-158.15-74.1-157.25-157C1335.11,362,1402.73,288.66,1492.12,288.2Zm.63,5.12c-85.58.1-151.73,70.26-151.72,151.84,0,82.94,67.39,152.11,152,152,85.61-.1,152.56-70.73,151.48-151.83C1645.69,364.35,1578.92,293.22,1492.75,293.32Z"/><path d="M485.94,436.34c.11,43.4-15.19,80.84-45.6,111.56s-68,46.39-111.24,46.38-80.65-15.46-111.31-46.17c-30.4-30.45-45.84-67.54-46-110.43a156.78,156.78,0,0,1,156.9-157.41C414.3,279.76,485.72,349.46,485.94,436.34ZM177,437.7c.13,83.17,66.64,151.13,152.54,151.66,41.48-1.07,77.47-15.38,106.85-45,29.6-29.83,44.39-66.05,44.27-108-.26-84.78-70-151.59-152-150.9C248.72,284.81,176.9,349.73,177,437.7Z"/><path d="M36.35,287.37c1.06-.33,2.1-.69,3.17-1,3.59-.93,7.43,1.55,7.46,5.23,0,.47,0,.94.05,1.42a34.06,34.06,0,0,1-3.15,2.06,5.7,5.7,0,0,1-4.58.36c-3-1-4.2-3.11-4-6.16Zm2.43,3.87c.22,1.16,1.1,1.48,2.11,1.52a4.21,4.21,0,0,0,1.4-.21,1.59,1.59,0,0,0,.3-2.94,10.18,10.18,0,0,0-1.46-.56C39.59,289.12,38.58,290.19,38.78,291.24Z"/><path d="M1506.59,155.84c-20.78,0-41.58-.42-62.35.12-20.94.55-41.88.27-62.81.7a23.48,23.48,0,0,0-4.26.5,1.77,1.77,0,0,0,.06,3.44,27,27,0,0,0,3.81.26c17.43-.09,34.87.2,52.28-.41,23.18-.82,46.35-.38,69.52-.51,22.23-.12,44.46-.36,66.68.16,17.25.41,34.52.3,51.77,1,8.94.34,17.91.23,26.82.95,8.13.66,16.29.41,24.4,1.43,5.54.7,11.15.79,16.72,1.3,3.65.34,7.27,1,10.92,1.45a21.09,21.09,0,0,0,3.8.23,1.65,1.65,0,0,0,1.48-1.62,1.49,1.49,0,0,0-.78-1.61,7.74,7.74,0,0,0-2.22-.82c-5.38-.78-10.72-1.71-16.16-2.08-6.37-.44-12.73-1-19.09-1.56-.48,0-1-.1-1.44-.12-8-.36-16-.76-23.94-1.06-20.93-.81-41.88-.69-62.8-1.29C1554.86,155.55,1530.73,156,1506.59,155.84Z"/><path d="M1705.84,410.73c3.71-.47,7.68-.91,11.64-1.49,26.08-3.81,52.16-7.62,78.14-12.12,18.27-3.17,36.5-6.52,54.57-10.69a193.86,193.86,0,0,0,23.53-6.64c1.34-.49,2.78-.81,3.8-1.93a1,1,0,0,0,.26-1.3c-.24-.36-.67-.83-1-.83a6.89,6.89,0,0,0-2.32.42c-19.68,6.91-40.13,10.65-60.55,14.46q-21.67,4-43.45,7.5c-13.88,2.23-27.81,4.15-41.72,6.18-6.79,1-13.6,1.9-20.4,2.91a23.92,23.92,0,0,0-4.15,1.09,1.44,1.44,0,0,0-.7,1.12,1.21,1.21,0,0,0,1.16,1.26C1705,410.71,1705.27,410.71,1705.84,410.73Z"/><path d="M1492.15,592.07c-78.29,0-146.87-62.65-147.14-146.63A146.41,146.41,0,0,1,1491.83,298c85.93-.1,148,70.23,147.2,146.85C1639.93,525,1573.59,592.06,1492.15,592.07Zm-136.83-147c0,74.67,61.25,136.81,136.75,136.79,75,0,137.07-61,136.85-137.16-.22-77.73-64.5-137.56-137-136.36C1418.15,307.46,1355.32,369,1355.32,445.12Z"/><path d="M327.86,290a147,147,0,1,1,.28,294.07c-82.87,0-147.58-67.64-147-147.14C180.68,357.42,245.44,290.14,327.86,290Zm.88,10.16A136.63,136.63,0,0,0,191.3,436.78c-.18,75.05,60.09,137,136.42,137.13,79.59.14,137.83-65.25,137-136.35C466,365.87,407.71,300.59,328.74,300.16Z"/><path d="M1491.87,321c34.1.74,63.82,12.29,88.07,36.54s36.45,53.61,36.47,87.56c0,34.11-12.32,63.76-36.61,88s-53.72,36.28-87.64,36.23c-34.09-.06-63.73-12.34-87.91-36.71-23.91-24.1-35.45-53.45-36.28-85.57C1368.62,377.19,1421.92,322.17,1491.87,321Zm37.64,159.42c-.5-.87-1.44-1.24-1.36-.72a2.62,2.62,0,0,0,.64,1.22,12.88,12.88,0,0,0,1.43,1.23,6.56,6.56,0,0,0,.54,1.27,12.46,12.46,0,0,0,1.22,1.31c.74-1-.35-1.22-.69-1.73a4.19,4.19,0,0,0-1.09-.83A11.58,11.58,0,0,0,1529.51,480.42Zm-63.64,1.71a9.81,9.81,0,0,0,3.63,3.07,43.32,43.32,0,0,0,45.16-.22,14.56,14.56,0,0,0,2.13-1.89l-.06.05c4.43-1.94,7.43-5.55,10.18-9.24,19.92-26.67,4.6-63.28-26.44-69.44a43.91,43.91,0,0,0-47.66,23.42c-.28.56-.47,1.17-.71,1.8,1.38.81,2.14-.44,3.1-.74a8.24,8.24,0,0,1,10.58,5.58,8,8,0,0,1-6.14,9.8,7.78,7.78,0,0,1-7.45-2.28,32.44,32.44,0,0,1-2.42-3,21,21,0,0,0-1.72,9.3c.53,10,3.61,19.14,10,26.95,2.22,2.7,4.43,5.5,7.84,6.88ZM1521.79,542c4-1.23,4.1-1.5,2.51-5.32a94.14,94.14,0,0,0-12.23-21.62c-5.56-7.16-13.13-9.88-21.91-9.47a16.8,16.8,0,0,0-10.37,4.5,24.13,24.13,0,0,0-6,7.41c-3.43,7-6.8,14.09-10.18,21.15a8.21,8.21,0,0,0-.61,1.81,1.37,1.37,0,0,0,.77,1.59,27.68,27.68,0,0,0,3.66,1.14,103,103,0,0,0,54.35-1.19Zm-66-143.67c6.72-3.66,10.29-9.34,10.8-17a40.06,40.06,0,0,0-.75-9.52c-1-6-2-12-2.88-18-.39-2.62-1.51-3.5-4.36-2.4-.44.17-.91.29-1.35.46-17.18,6.43-31.32,17.06-42.9,31.16-3.58,4.35-3.48,4.5,1.29,7.43a102.82,102.82,0,0,0,18,9,25.56,25.56,0,0,0,10.49,1.87A22.92,22.92,0,0,0,1455.77,398.34Zm-54.21,90.18a97.49,97.49,0,0,0,8.38,14.53c2.31,3.24,3,3.33,6,.57,5.61-5.24,11.12-10.55,15.74-16.75,4.94-6.61,5.37-14,3.82-21.51-1.42-6.92-6.08-11.42-12.71-13.87-3.94-1.45-8.08-1.89-12.18-2.55s-8.22-1.18-12.34-1.75l-.94-.14c-4.46-.47-5.14.13-5,4.87A101.78,101.78,0,0,0,1401.56,488.52ZM1527,395.94a18.9,18.9,0,0,0,17.69,4.88,26.56,26.56,0,0,0,5.89-1.93q9.32-4.35,18.52-9c4.69-2.37,4.73-2.92,1.49-7a100.24,100.24,0,0,0-39.38-29.62,53.35,53.35,0,0,0-5.39-2c-2-.63-2.83-.13-3.62,1.94-1.58,4.11-3.4,15.66-3.5,23.28C1517.79,383.76,1521.06,390.38,1527,395.94Zm25.13,85.7a33.09,33.09,0,0,0,3.6,5.06c5,5.4,10.06,10.69,15.12,16a12.26,12.26,0,0,0,1.42,1.27,1.42,1.42,0,0,0,2.12-.2,24,24,0,0,0,1.72-2.29,98,98,0,0,0,15.37-38.87,76.68,76.68,0,0,0,1.11-12.38,22.79,22.79,0,0,0-.1-2.86,2,2,0,0,0-2.2-2c-8.28.6-16.53,1.34-24.5,3.91a24.16,24.16,0,0,0-12.87,10.2c-2.35,3.53-3.87,7.34-3.47,11.46A17.23,17.23,0,0,0,1552.11,481.64ZM1512.87,384c.4,6.07.83,12.13,1.06,18.2a6,6,0,0,0,3.16,5.46,33.41,33.41,0,0,1,5.42,3.95,5.09,5.09,0,0,0,5.3,1.13c4.93-1.36,9.88-2.63,14.82-4,11.42-3.09,22.81-6.29,34.27-9.23,4.09-1,3.41-2.33,1.82-4.91-2.83-4.61-2.61-4.8-7.69-2.13-6.23,3.26-12.61,6.26-19,9.22a35.86,35.86,0,0,1-6.37,2.05c-8.74,2.15-16.19-.43-22.3-6.72a28.34,28.34,0,0,1-8.13-23.66,158.9,158.9,0,0,1,3.67-21.25c.54-2.24.16-2.79-2-3.51a20.79,20.79,0,0,0-2.32-.6c-3-.57-4.23-1.32-3.66,2.94.23,1.73.19,3.51.28,5.27H1511Q1512,370.15,1512.87,384Zm75.37,50.7-32.86,12c-4.35,1.59-8.67,3.26-13.05,4.76a5.26,5.26,0,0,0-3.94,4.32,47,47,0,0,1-3.11,10.55,4,4,0,0,0,.35,4.07c.36.53.69,1.08,1,1.61q12.66,19.2,25.32,38.41c3,4.61,3.39,4.58,7.15.33.32-.36.64-.72.92-1.1,1-1.34,1-2-.24-3.37s-2.43-2.54-3.65-3.8c-4.68-4.8-9.45-9.53-13.78-14.66a27.18,27.18,0,0,1-6.3-12.73,18.16,18.16,0,0,1,.08-8.07c2.44-9.36,7.75-16.38,16.87-20.09a49.21,49.21,0,0,1,8.26-2.42,77,77,0,0,1,15.64-2,12.19,12.19,0,0,0,1.91-.14c2.77-.42,3.57-1.32,3.56-4.11a16.15,16.15,0,0,0-.36-3.32c-.07-.35-.64-.61-1-1C1590.06,434.2,1589.13,434.4,1588.24,434.72ZM1450.08,536.81a30.78,30.78,0,0,0,7.47,3.18,1.71,1.71,0,0,0,2-.88c.49-.81.89-1.69,1.3-2.55,2.92-6,5.77-12.13,8.76-18.15a37.22,37.22,0,0,1,3.95-6.56c6.07-7.66,13.87-10.94,23.68-9a28.78,28.78,0,0,1,18.57,11.71,106.21,106.21,0,0,1,10.39,18.33c.47,1,.85,2.07,1.32,3.08,1.58,3.39,2,3.53,5.45,1.87,2.64-1.29,2.88-2,1.07-4.28q-6.82-8.67-13.78-17.24c-5-6.22-10.06-12.43-15.09-18.64-.61-.74-1.22-1.48-1.84-2.21A4,4,0,0,0,1500,494c-1.11.08-2.24.12-3.33.31a21.45,21.45,0,0,1-9.06,0c-3.48-.88-5.63.47-7.74,3.14-6.44,8.16-13.1,16.14-19.67,24.19q-4.86,6-9.68,11.92c-.48.61-.84,1.32-1.28,2C1449.55,536.07,1449.73,536.57,1450.08,536.81Zm91.71-101.27q19.7-5.07,39.38-10.16c4.73-1.24,4.87-1.46,3.45-6.27a65.77,65.77,0,0,0-2.63-7.19c-1-2.44-1.87-2.71-4.54-1.89-.91.28-1.81.62-2.71,1q-17.71,6.57-35.44,13.17c-1.19.44-2.36,1-3.51,1.52a1.52,1.52,0,0,0-.87,2q1.24,3.62,2.62,7.19c.41,1.06,1.33,1.27,3,1C1540.55,435.81,1541.17,435.7,1541.79,435.54Zm-106.87-32.17a87.06,87.06,0,0,1-15.73-7c-1.81-1-3.56-2.15-5.38-3.15-1.49-.82-2.91-2.52-4.75-1.68-2.13,1-3,3.21-3.79,5.3a1.23,1.23,0,0,0,.76,1.57,19.53,19.53,0,0,0,2.67,1c15.66,4.47,31.34,8.89,47,13.43a5.57,5.57,0,0,0,5.72-1.12,60.21,60.21,0,0,1,5.8-4.24,5.62,5.62,0,0,0,2.78-4.23c.15-1.27.37-2.54.41-3.81.16-4.47.49-8.92.86-13.38.6-7.32.86-14.66,1.28-22,.1-1.75.29-3.5.42-5.25.16-2.23.35-4.46.41-6.69,0-1.38.43-3.1-1.27-3.79a5.15,5.15,0,0,0-5,.92,2.35,2.35,0,0,0-.9,1.58,14.89,14.89,0,0,0,.17,3.33c1,6.46,2.06,12.92,3.08,19.39a32.34,32.34,0,0,1-.08,11.44,22.3,22.3,0,0,1-11.78,16,29.92,29.92,0,0,1-14.77,3.7A21.89,21.89,0,0,1,1434.92,403.37Zm-42.63,37.47c.1,1.67.6,2.3,2.22,2.61s3.46.61,5.2.85c5.22.72,10.45,1.4,15.67,2.1a35.72,35.72,0,0,1,10.58,3c6.76,3.2,11.26,8.36,12.92,15.71,1.93,8.52.65,16.45-4.59,23.68a110.13,110.13,0,0,1-15.22,16.56c-.59.54-1.25,1-1.84,1.54-2.35,2.14-2.35,3.22,0,5.49,1.18,1.15,2.13,1.09,3.2-.24.5-.62.94-1.29,1.39-2l24.89-36.43c.46-.66.86-1.36,1.35-2a5.2,5.2,0,0,0,.53-5.83,34.33,34.33,0,0,1-2.85-9.63c-.39-2.78-1.86-4.13-4.36-5.06-8.09-3-16.12-6.16-24.18-9.26l-19.24-7.4c-.9-.34-1.79-.69-2.71-1-1.23-.38-2-.05-2.19,1.09-.36,1.72-.6,3.46-.75,4.36C1392.29,440.2,1392.27,440.52,1392.29,440.84Zm153.44,86.37c2.69-2,5.39-4,8-6.1,1.21-1,1.27-2,.31-3.39-1.27-1.84-2.65-3.6-4-5.35q-10.53-13.35-21.08-26.68c-.3-.37-.58-.76-.88-1.13-2.6-3.17-3-3.21-6.09-.64-1.1.92-2.3,1.72-3.44,2.59-2.12,1.64-2.15,1.89-.66,4.29.34.54.71,1.07,1.06,1.6q10.89,16.05,21.78,32.1a27.34,27.34,0,0,0,2,2.65,4.88,4.88,0,0,0,1.32.74A6.71,6.71,0,0,0,1545.73,527.21ZM1404.08,411a41,41,0,0,0-3.9,10.74,1.81,1.81,0,0,0,1.07,2,24.64,24.64,0,0,0,3.57,1.33q18.14,5.25,36.28,10.46c.77.22,1.54.4,2.32.57,2.21.47,2.51.32,3.24-1.61.9-2.39,1.8-4.77,2.66-7.17a1.52,1.52,0,0,0-.8-2c-1.15-.54-2.35-1-3.55-1.41q-18.48-6.54-37-13.06c-.75-.27-1.53-.44-1.88-.54C1405,410.09,1404.37,410.38,1404.08,411Zm53.85,71.37a24.24,24.24,0,0,0-1.94,2.12q-12,15.24-24.07,30.51c-2.7,3.44-2.67,4.18.64,7.11a40.19,40.19,0,0,0,5,3.71c2.64,1.69,3.38,1.54,5.16-.92s3.69-5.23,5.5-7.87q8.28-12.06,16.53-24.15c.54-.79,1.1-1.57,1.59-2.4,1-1.76.93-2.49-.57-3.71-1.73-1.42-3.47-2.82-5.25-4.17a8.38,8.38,0,0,0-1.55-.75A4.69,4.69,0,0,0,1457.93,482.33Zm29.17-86.16a18.85,18.85,0,0,0,.28,2.38,1.87,1.87,0,0,0,1.61,1.57c2.07.13,4.15.15,6.21.08a2.06,2.06,0,0,0,2-1.79,9.79,9.79,0,0,0,.17-1.43q.51-9.09,1-18.18c.37-7.18.77-14.35,1.05-21.54.23-6.12,0-6.25-5.92-6.33-1.76,0-3.52,0-5.27.08-2.13.14-2.7.82-2.85,3,0,.32,0,.64,0,1v3.63C1486.6,370.94,1485.93,383.6,1487.1,396.17ZM1396,378.1a14.58,14.58,0,0,0,2.4,1.53,2.11,2.11,0,0,0,2.62-.48,33.35,33.35,0,0,0,2.12-2.6A113.2,113.2,0,0,1,1443,344.29a111,111,0,0,1,14.17-5.77,3.4,3.4,0,0,0,2.31-1.56c.53-1.12-.29-4.21-1.34-4.81a2.21,2.21,0,0,0-1.37-.28,17.68,17.68,0,0,0-2.77.74,119.51,119.51,0,0,0-37.75,21.22,117.84,117.84,0,0,0-19.07,20.1,7.21,7.21,0,0,0-1.65,3C1395.63,377.28,1395.69,377.85,1396,378.1Zm132-39.65a30.94,30.94,0,0,0,3.1,1.26,112.46,112.46,0,0,1,50,35.94c1,1.24,2,2.52,3,3.74a3.56,3.56,0,0,0,5.59-.64,1.64,1.64,0,0,0,0-1.34,16.18,16.18,0,0,0-1.52-2.43,117.67,117.67,0,0,0-46.73-38c-3.48-1.59-7.06-3-10.66-4.3-2.51-.92-3.46-.24-4,2.41-.06.31-.07.64-.11.95A2.34,2.34,0,0,0,1528,338.45Zm-2.37,212.37a22.44,22.44,0,0,0,2.26-.8c1.29-.54,1.59-1.3,1-2.69a18.06,18.06,0,0,0-.82-1.72,2.21,2.21,0,0,0-2.78-1.26l-6,1.66a102.06,102.06,0,0,1-53,.26c-1.24-.33-2.48-.62-3.72-.93a2.21,2.21,0,0,0-2.68,1.42c-1.52,2.91-1.19,3.93,2,4.81a113.68,113.68,0,0,0,16.38,3.41,93,93,0,0,0,12.74.9A112.3,112.3,0,0,0,1525.64,550.82Zm-146-67.49a116.25,116.25,0,0,0,14.77,29.49c.91,1.32,1.85,2.61,2.86,3.85s1.83,1.48,2.82.78c1.84-1.3,2.31-2.49,1.45-4-.64-1.1-1.39-2.14-2.11-3.2a112.46,112.46,0,0,1-18.55-45.85,94,94,0,0,1-1.48-13.81,31.19,31.19,0,0,0-.18-3.35,2.27,2.27,0,0,0-2.56-2.26c-1.55,0-2.6.63-2.72,2.09-.15,1.9,0,3.82,0,5.74A103.66,103.66,0,0,0,1379.6,483.33ZM1525,347.38a31.91,31.91,0,0,0,3.09,1.28,104.34,104.34,0,0,1,46.24,33.76c.4.5.78,1,1.2,1.49,1.3,1.47,2,1.58,3.74.67,2.45-1.24,2.78-2.23,1.12-4.46a104.06,104.06,0,0,0-13.78-15.28,111.8,111.8,0,0,0-35.33-21.68c-.75-.28-1.48-.59-2.24-.85-3.32-1.12-4.11-1-4.82,3.39A1.55,1.55,0,0,0,1525,347.38ZM1392.83,492.27a112.5,112.5,0,0,0,9.26,16.21,35.88,35.88,0,0,0,2.37,3,1.46,1.46,0,0,0,2.13.25,14.94,14.94,0,0,0,1.81-1.55c1.06-1.08,1.16-1.71.38-3s-1.77-2.65-2.66-4a101.27,101.27,0,0,1-16.46-44.51c-.39-3.18-.68-6.35-.82-9.54-.12-2.58-1.1-3.36-3.64-3.24a2.25,2.25,0,0,0-2.48,2.32c-.07.8,0,1.6,0,2.92A111.78,111.78,0,0,0,1392.83,492.27Zm62.81-149.79a105.05,105.05,0,0,0-23.91,11.95A114.8,114.8,0,0,0,1405,379.57c-2.14,2.75-1.94,3.4,1.1,5,1.61.87,2.18.8,3.3-.55s2-2.5,3-3.74a102.47,102.47,0,0,1,42-30.68c1.33-.54,2.7-1,4-1.53,3.15-1.28,3.61-2.41,2.29-5.47a2.07,2.07,0,0,0-1.72-1.16C1458.07,341.76,1456.83,342.06,1455.64,342.48ZM1602,447.13a2.16,2.16,0,0,0-2.22-2.07c-1.59-.13-2.82.44-3.06,1.69a47.26,47.26,0,0,0-.84,6.16c-1,18.15-6.87,34.66-16.6,49.89-.68,1.08-1.45,2.11-2.07,3.22-1,1.76.69,4.8,2.77,5.09a1.66,1.66,0,0,0,1.26-.5,17.45,17.45,0,0,0,1.76-2.25,108,108,0,0,0,18.22-46.92,50.69,50.69,0,0,0,.81-9.53C1602,450.32,1602.08,448.72,1602,447.13Zm3.54.33c-.08.79-.06,1.59-.08,2.39-.41,21.32-6.9,40.72-18.54,58.49-1.05,1.6-2.17,3.16-3.11,4.81-.78,1.35.24,3.34,1.81,3.79a1.7,1.7,0,0,0,1.74-.53,32.8,32.8,0,0,0,2.06-2.64,118.31,118.31,0,0,0,20.46-51,103.7,103.7,0,0,0,1-14.29,11.08,11.08,0,0,0-.17-2.38,1.64,1.64,0,0,0-1.61-1.48C1606.9,444.44,1605.7,445.39,1605.5,447.46Zm-77.66,111.31c.91-.3,1.81-.63,2.72-.94,2.53-.86,2.1-2.53,1-4.11a1.61,1.61,0,0,0-1.64-.77,30.22,30.22,0,0,0-3.24.84,112.72,112.72,0,0,1-37.8,5.32,119.46,119.46,0,0,1-26.95-4.16c-.92-.25-1.84-.55-2.77-.77-1.84-.43-2.67.06-3.23,1.83a2,2,0,0,0,1.16,2.75,8.1,8.1,0,0,0,1.33.55,120.09,120.09,0,0,0,20.65,4.14c4.29.45,8.6.65,12.72.94C1504.12,563.78,1516.19,562.61,1527.84,558.77Zm-47.76-209.08c0-1.05.28-2.38-1.23-2.73-1.08-.25-2,.83-2.24,2.53-.28,2.22-.58,4.44-.72,6.66-.44,7-.77,14-1.23,21-.47,7.32-1,14.63-1.55,21.94-.09,1.4-.79,3.16.43,4.09,1.43,1.1,3-.24,4.46-.74a2.84,2.84,0,0,0,1.92-3c0-2.08.07-4.15.08-6.22q0-9.58,0-19.15h.1C1480.1,366,1480.11,357.83,1480.08,349.69Zm24.27,46.37c0,1,.06,1.92,0,2.87a3.66,3.66,0,0,0,2.78,3.95c.45.15.9.31,1.36.44,1.4.41,2.26-.09,2.25-1.52,0-2.87-.13-5.74-.28-8.6-.14-2.71-.41-5.4-.58-8.11q-.86-13.11-1.66-26.23c-.16-2.55-.21-5.1-.34-7.65a22.69,22.69,0,0,0-.26-2.85c-.16-1-1.32-1.8-2.07-1.55a1.78,1.78,0,0,0-1.14,1.9c-.06,2.07-.08,4.14-.08,6.21q0,9.57,0,19.14Zm-58.39,138a14.92,14.92,0,0,0,2.35-2.35q6.69-8.13,13.32-16.3l16-19.65a13.79,13.79,0,0,0,1.15-1.52,1,1,0,0,0-.56-1.55c-.73-.31-1.5-.53-2.25-.8a2.63,2.63,0,0,0-3.36,1c-1,1.28-2,2.48-3,3.75q-12.09,15.75-24.14,31.52c-.78,1-1.53,2-2.24,3.11a4.48,4.48,0,0,0-.39,1.13C1442.92,533.57,1445.13,534.71,1446,534.07Zm-4.09-91.6c-4.64-1.69-9.32-3.29-14-4.91q-14.46-5-28.92-10a32.6,32.6,0,0,0-3.2-.95,1.23,1.23,0,0,0-1.59.69c-.36.91-.66,2,.27,2.62a15.91,15.91,0,0,0,3.42,1.66q16.49,6.38,33,12.7c3.57,1.37,7.13,2.78,10.72,4.07,2.18.78,3.06.13,3.05-2S1444.27,443.35,1441.87,442.47Zm97.48,5.43a1.28,1.28,0,0,0,1.44,1,12.17,12.17,0,0,0,2.29-.64q22.28-8.1,44.54-16.22a17.6,17.6,0,0,0,3-1.44,1.38,1.38,0,0,0,.44-1.71,1.28,1.28,0,0,0-1.5-.89,20.42,20.42,0,0,0-2.77.7l-43,13.39c-.76.24-1.51.53-2.27.77-1.79.57-2.54,1.81-2.34,4.24A2.63,2.63,0,0,0,1539.35,447.9Zm38.2-45.75q-22.89,6.12-45.75,12.3c-.46.12-.92.26-1.37.41-2.62.83-2.87,1.56-1.25,3.61s2,2,4.53,1.34c.46-.13.92-.26,1.37-.41q21.63-7,43.23-14a28.48,28.48,0,0,0,3.54-1.43,1.14,1.14,0,0,0,.52-1.62c-.18-.37-.65-.61-1-.93C1580,401.64,1578.77,401.82,1577.55,402.15ZM1455.2,417.91a1.55,1.55,0,0,0-.59-2.4,21.16,21.16,0,0,0-2.7-1q-22.31-6.33-44.63-12.64a22.85,22.85,0,0,0-3.27-.67,1.35,1.35,0,0,0-1.43,1,1.23,1.23,0,0,0,.6,1.62,23,23,0,0,0,3.12,1.19q21.42,6.81,42.86,13.57c1.06.34,2.14.6,2.77.78A3.4,3.4,0,0,0,1455.2,417.91Zm107.23,99.32c0-1.23-.73-2.09-1.33-3q-4-6.23-8.09-12.43-8.44-12.77-16.92-25.52c-.44-.66-.86-1.34-1.33-2-1.12-1.55-1.91-2-2.59-1.54-1.18.84-2,2.6-1.47,3.76a19.08,19.08,0,0,0,2,3.27q10.42,14.6,20.9,29.16c2,2.85,4.08,5.71,6.15,8.54.37.51.78,1,1.46,1C1561.68,518.59,1562.41,517.75,1562.43,517.23Zm-112.11-43.55a22.69,22.69,0,0,0-2.07,2.62q-12.72,18.61-25.39,37.25a9.52,9.52,0,0,0-1.2,2.56c-.09.32.28.89.59,1.2a.89.89,0,0,0,1.3,0,29.2,29.2,0,0,0,2.18-2.54q13-17.25,25.9-34.53a22.44,22.44,0,0,0,1.86-2.78,3.14,3.14,0,0,0-1.43-4.08,3.49,3.49,0,0,0-.59-.2C1451.15,473.3,1450.61,473.37,1450.32,473.68Zm90.25,59.16a17.79,17.79,0,0,0-1.46-2.45q-13.39-18-26.83-36.09c-.38-.51-.74-1-1.16-1.52a3.07,3.07,0,0,0-4.6-.11,1.4,1.4,0,0,0-.3,1.27,23,23,0,0,0,2.14,3.15q12.3,15.27,24.64,30.52c1.6,2,3.26,3.92,4.94,5.84a1.77,1.77,0,0,0,1.6.74C1540.19,534.27,1540.85,533.37,1540.57,532.84ZM1498.63,333c1.55-.08,2.23-.85,2.4-2.39.24-2.25-.28-3.39-1.93-3.75a27.16,27.16,0,0,0-12.23-.19c-2.07.5-2.64,1.45-2.43,3.88.15,1.73.83,2.4,2.8,2.48s3.8,0,5.7,0v0C1494.84,333,1496.74,333.08,1498.63,333Zm90.57,75.63q1.82,5.7,3.68,11.38c.55,1.65,1.13,1.94,2.89,1.6a10.81,10.81,0,0,0,1.39-.33,2.23,2.23,0,0,0,1.61-3,68.91,68.91,0,0,0-3.89-11.81c-1-2.09-4-2.35-5.63-.57a3.71,3.71,0,0,0-.44,1A17.64,17.64,0,0,0,1589.2,408.62Zm8.93-3.34c1.26,3.94,2.52,7.89,3.84,11.81.78,2.29,2.46,2.88,4.44,1.66a2,2,0,0,0,1.09-2,18.85,18.85,0,0,0-.47-2.33,88.71,88.71,0,0,0-3.85-11.79,1.85,1.85,0,0,0-2.24-1.31c-1.89.38-3.07,1.36-3.06,2.76A8.09,8.09,0,0,0,1598.13,405.28Zm-100-62.76c1.43-.09,2.06-1,2.16-2.62.12-1.91-.48-3.14-1.92-3.31a58.66,58.66,0,0,0-11.85,0c-1.27.11-1.85,1-1.72,2.39a7.23,7.23,0,0,0,.25,1.39c.43,1.59,1,2.15,2.64,2.24s3.48,0,5.22,0v0C1494.61,342.55,1496.36,342.63,1498.09,342.52ZM1383,416.83c1.23-3.61,2.47-7.22,3.59-10.86.52-1.69-.07-2.57-1.84-3.3-2.21-.9-3.12-.56-4.1,1.69a68.48,68.48,0,0,0-3.26,10.46,1.92,1.92,0,0,0,1.41,2.6c.75.25,1.53.39,2.13.54C1382,418,1382.69,417.68,1383,416.83Zm178.35,110c-1.08-1.26-2-1.43-3.32-.5-3,2.12-5.94,4.27-8.87,6.48-1.43,1.07-1.45,2.11-.28,3.68,1.44,1.93,2.53,2.28,4.43,1,3-2.08,5.9-4.33,8.81-6.55a3.84,3.84,0,0,0,.73-1.07A4.4,4.4,0,0,0,1561.33,526.87ZM1422,530.05a55,55,0,0,0,9.9,7.53,1.6,1.6,0,0,0,2.16-.39,14.19,14.19,0,0,0,1.16-1.52c1.27-1.93,1.16-2.42-.83-3.88q-3.86-2.85-7.73-5.68c-1.87-1.37-2.43-1.28-3.94.6-.49.62-.89,1.3-1.33,2A4.45,4.45,0,0,0,1422,530.05Zm-31-109.53a1.8,1.8,0,0,0,1-.95c1.28-3.76,2.5-7.52,3.7-11.3a1.55,1.55,0,0,0-.94-1.95,20.74,20.74,0,0,0-2.66-1,1.35,1.35,0,0,0-1.68.53,57.19,57.19,0,0,0-3.86,11.21A3.61,3.61,0,0,0,1391.06,420.52Zm26.08,116.74a51.92,51.92,0,0,0,10,7.34c1,.57,1.89.15,2.78-1.13s1-2.28.07-3c-3.31-2.52-6.66-5-10-7.41a1.58,1.58,0,0,0-1.8-.18,3.65,3.65,0,0,0-1.87,2.9A4.87,4.87,0,0,0,1417.14,537.26ZM1564,533.71c-3.21,2.34-6.4,4.71-9.6,7.06-.67.49-1.29,1.06-1,2a3.83,3.83,0,0,0,2,2.58,1.66,1.66,0,0,0,1.35-.15,64.32,64.32,0,0,0,10.74-7.88,1.7,1.7,0,0,0,.31-2.18,3.65,3.65,0,0,0-2.42-2.08A9.39,9.39,0,0,0,1564,533.71ZM1455.47,548a11.24,11.24,0,0,0,1.15-2.58,1.89,1.89,0,0,0-1.08-2.38c-2.45-1.14-4.91-2.26-7.41-3.26-2-.8-4.64,1-4.75,3.22a1.64,1.64,0,0,0,.53,1.24,34.53,34.53,0,0,0,9.92,4.52,2.52,2.52,0,0,0,.62,0C1454.73,548.51,1455.26,548.34,1455.47,548Zm-72.64-107.5a2,2,0,0,0,1.79,1.9,9.18,9.18,0,0,0,1.89.09,2.1,2.1,0,0,0,2.27-2c.31-2.35.54-4.71.77-7.07a2.34,2.34,0,0,0-1.27-2.36,11.94,11.94,0,0,0-2.16-1,1.66,1.66,0,0,0-2.43,1.42c-.34,2.5-.57,5-.86,7.67A10.88,10.88,0,0,0,1382.83,440.48Zm75,.89a5.1,5.1,0,0,0,4.88-4.83,5,5,0,0,0-4.88-4.81,4.59,4.59,0,0,0-4.28,4.77A5,5,0,0,0,1457.83,441.37Zm55.72-96.83a35.22,35.22,0,0,0,4.64.91c2.12.21,4-2.64,3.15-4.68a2.29,2.29,0,0,0-1.4-1.14c-2.45-.61-4.92-1.16-7.41-1.6-1.56-.28-2.27.49-2.29,2.19C1510.21,343,1510.84,343.89,1513.55,344.54Zm66.59,45.95c1,1.79,2,3.6,3.16,5.31s4.73,1.47,5.73-.19a1.79,1.79,0,0,0,.13-1.36,22.52,22.52,0,0,0-4.07-6.93,2.33,2.33,0,0,0-3-.4c-1,.48-2.06.9-2.27,2.35A5.2,5.2,0,0,0,1580.14,390.49Zm-7.33,121.09c-1.19,1.29-2.25,2.7-3.46,4-2.37,2.49-2,2.94-.12,5.72,1,1.44,1.88,1.5,3.06.21,1.62-1.76,3.19-3.56,4.73-5.38a1.86,1.86,0,0,0-.07-2.61,6.67,6.67,0,0,0-3-2.46A3.37,3.37,0,0,0,1572.81,511.58Zm-176.7-116.22c1.11,1.58,4.84,1.69,5.83.14,1.12-1.75,2.14-3.56,3.15-5.37a1.78,1.78,0,0,0-.59-2.52l-.39-.28c-2.54-1.82-3.36-1.73-5,.8-1,1.61-1.94,3.3-2.86,5a6.78,6.78,0,0,0-.45,1.31A3,3,0,0,0,1396.11,395.36Zm199.68,42.88c.06,2.94,1.28,3.75,4.45,3.18a1.84,1.84,0,0,0,1.59-1.58,16.51,16.51,0,0,0-.57-7.55,1.94,1.94,0,0,0-2.68-1.23c-2.13.73-2.77,1.57-2.88,3.84,0,.48,0,1,0,1.43h.1C1595.79,437,1595.78,437.61,1595.79,438.24ZM1472,338.11a55.17,55.17,0,0,0-6,1.34c-1.5.44-1.94,1.66-1.55,3.47s1.4,2.66,2.91,2.49a25.84,25.84,0,0,0,3.23-.7c3.15-.8,3.67-1.45,3.67-4.49C1474.22,338.47,1473.61,337.82,1472,338.11Zm61.16,209.15a1.65,1.65,0,0,0,1.33.15,44.89,44.89,0,0,0,4.39-1.72c1.09-.51,2.75-.7,2.72-2.24s-1.42-2.73-2.69-3.67a1.72,1.72,0,0,0-1.33-.26,20.73,20.73,0,0,0-5.94,2.8c-.22.17-.29.54-.46.89A5.9,5.9,0,0,0,1533.11,547.26ZM1414.22,520.9a21.59,21.59,0,0,0,1.93-2.65c.79-1.38-.11-2.41-1-3.32-1.05-1.09-1.83-2.77-3.74-2.37a4.56,4.56,0,0,0-2.92,2.22,1.6,1.6,0,0,0-.17,1.32,13.14,13.14,0,0,0,4.62,5.19c.12.08.31,0,.47.05S1414.05,521.12,1414.22,520.9Zm68.41-121.71a1,1,0,0,0,.41.76c.65.23.87-.34.87-.78,0-6.15.27-12.32-1.3-18.49C1482.61,386.85,1482.6,393,1482.63,399.19Zm-87.24-15a1.38,1.38,0,0,0-.14-2.37c-1.53-1.14-2.64-1.11-3.64.3s-1.87,2.91-2.72,4.41c-.35.62-1.06,1.19-.51,2.36A69.63,69.63,0,0,0,1395.39,384.23Zm127.52-49.37a3,3,0,0,0,1-2.06,1.8,1.8,0,0,0-.78-2.08,15,15,0,0,0-6.33-1.71c-.21,0-.47.31-.65.53a.45.45,0,0,0,0,.43c1.72,2.11,4,3.44,6,5C1522.61,334.91,1522.8,334.94,1522.91,334.86Zm-24.43,12.62c.17,0,.47-.44.46-.67s-.3-.61-.51-.63a41.88,41.88,0,0,0-11.35,0c-.21,0-.49.43-.49.65s.33.61.52.61c1.89.05,3.79,0,5.69,0v.06C1494.69,347.51,1496.59,347.53,1498.48,347.48Zm-60.77,193.64a1.87,1.87,0,0,0,2.16.46,6.18,6.18,0,0,0,2.77-3.62c.09-.32-.25-.89-.56-1.17a2,2,0,0,0-2.18-.4A5.8,5.8,0,0,0,1437,540,4,4,0,0,0,1437.71,541.12Zm169.35-101.61c-.24.6-.31,1.38.4,1.62a2.83,2.83,0,0,0,1.79-.21,2.18,2.18,0,0,0,1.33-1.83,18.94,18.94,0,0,0-.36-6.72A73.09,73.09,0,0,0,1607.06,439.51ZM1400.55,410a.87.87,0,0,0-.27-.82c-.17-.11-.6,0-.83.17a1.9,1.9,0,0,0-.55.75,53.11,53.11,0,0,0-3.52,11.15l1,.25C1397.79,417.67,1399.19,413.84,1400.55,410Zm-26.66,29.39a2,2,0,0,0,1.71,2,2.43,2.43,0,0,0,1.36-.17,1,1,0,0,0,.42-1.24,16.15,16.15,0,0,0-3.51-6.66C1373.87,435.33,1373.82,437.36,1373.89,439.39Zm89.16-109c-.91.48-.83,2.58,0,3.46a1,1,0,0,0,1.31.08,25.5,25.5,0,0,0,4.59-4.59C1466.39,328.64,1464.69,329.49,1463.05,330.34Zm-82.84,99.23a2.58,2.58,0,0,0-2-2.41,2.05,2.05,0,0,0-1.34,0c-.5.21-.52.78-.36,1.24a19,19,0,0,0,2.86,5.93A8.06,8.06,0,0,0,1380.21,429.57Zm10.13-2.73a1.56,1.56,0,0,0-.22-1.74,5.63,5.63,0,0,0-3.77-1.59,1.3,1.3,0,0,0-1.43.94,1.64,1.64,0,0,0,.24,1.75,5.71,5.71,0,0,0,3.59,1.63A1.65,1.65,0,0,0,1390.34,426.84Zm59.92,129.62a1.07,1.07,0,0,0,.47,0,1.86,1.86,0,0,0,1.6-1.54,1.29,1.29,0,0,0-1.28-1.62c-2.06-.06-4.12,0-6.18,0A10.64,10.64,0,0,0,1450.26,556.46Zm-8.71-9.34a2.19,2.19,0,0,0-2.83,1.07,2,2,0,0,0-.17,1.29c0,.19.47.46.73.46,2.17,0,4.34,0,6.51,0l0-.85C1444.39,548.44,1443,547.73,1441.55,547.12Zm-64.74-123.85a6.2,6.2,0,0,0,3,1.23,1.29,1.29,0,0,0,1.47-.92,1.6,1.6,0,0,0-.17-1.79,5.74,5.74,0,0,0-3.91-1.44c-.68,0-1.08.56-1.26,2.18C1376,422.3,1376.29,422.85,1376.81,423.27Zm220.53-29.45a.63.63,0,0,0,.05-1.13c-1.2-.79-2.44-1.52-3.7-2.2-.65-.34-1.46-1.14-2.09-.26-.5.7.2,1.5.54,2.19.7,1.38,1.68,2.34,4,1.88A5.69,5.69,0,0,0,1597.34,393.82Zm-124.47-63.5a14.21,14.21,0,0,0-2,1.93c-.59.75-2.31,1.26-1.28,2.46.67.79,2.07.25,3.07-.2,1.49-.66,2.08-2,1.7-3.92,0-.23-.41-.39-.63-.58A2.48,2.48,0,0,0,1472.87,330.32Zm38.89.69c-.58-.47-1.35-1.11-2-.14a1.85,1.85,0,0,0,.18,2.21c1.42,1.7,3.26,2.11,6,1.57C1514.3,333.18,1513.06,332.06,1511.76,331Zm63.69,192.11a15.94,15.94,0,0,0-1.91,2,2.74,2.74,0,0,0,1.31,3.85c.21.09.74,0,.8-.18a13.07,13.07,0,0,0,1.19-5.4c0-.21-.37-.4-.56-.61C1576,522.91,1575.64,522.93,1575.45,523.12ZM1479.89,338a1.07,1.07,0,0,0-1.6-.32,4,4,0,0,0-.82,1.11c-.51,1.31-1,2.69-.11,4a1.37,1.37,0,0,0,1.25.21c1.63-.71,1.48-2.23,1.54-3.77C1480.08,338.9,1480,338.44,1479.89,338Zm107,77.38,2.18,6.87c1.13-1.2.22-2.28,0-3.34a36.6,36.6,0,0,0-1.13-3.65c-.4-1.22-.81-2.43-1.24-3.63a5.86,5.86,0,0,0-2.31-3.49C1585.06,411.06,1586.22,413.15,1586.94,415.37Zm6.23-32.66a1.8,1.8,0,0,0-2.18-.38c-.59.26-1.22.58-1.18,1.31a1.62,1.62,0,0,0,.66,1.14c1.47.91,3,1.72,5.1,2.91A9.08,9.08,0,0,0,1593.17,382.71Zm-199.41,18a5.14,5.14,0,0,0,3.89,1.23,1.55,1.55,0,0,0,1-.86,1.4,1.4,0,0,0-.21-1.24,4.77,4.77,0,0,0-4.34-1.07c-.32.08-.5.69-.7,1C1393.53,400.18,1393.56,400.57,1393.76,400.72Zm214.39,28.47c.21-.58-.51-1.2-1.15-1.06-1.82.4-2.48,1.23-2.32,2.93a13.76,13.76,0,0,0,.26,1.4c.13.6.28,1.2.42,1.8l.83.16C1606.85,432.68,1607.53,431,1608.15,429.19Zm-171.76,116a1.46,1.46,0,0,0-1.31-1.19,2.9,2.9,0,0,0-3.11,2.79,1.94,1.94,0,0,0,1.58,1.55A3.21,3.21,0,0,0,1436.39,545.2Zm63.89-144.91c.44-.39.81-.56.83-.75a91.79,91.79,0,0,0-.3-14.92C1500.63,389.77,1500.46,394.92,1500.28,400.29Zm-21.45-72.6c-1.13.4-1.11,1.43-1.13,2.34a14.27,14.27,0,0,0,.27,2.76c0,.19.47.42.73.43a1,1,0,0,0,.8-.34,3.8,3.8,0,0,0,.64-2.66C1480.16,328.48,1479.61,327.42,1478.83,327.69Zm61.76,111.15a1,1,0,0,0-.6.65c0,.67.52.68,1,.55,3.18-1,6.36-2,9.53-3l-.28-.89C1547,437.07,1543.78,437.93,1540.59,438.84Zm54.79-12.44a1.26,1.26,0,0,0-.2,1.73,1.48,1.48,0,0,0,1.21.5,16.65,16.65,0,0,0,3.13-1.11,1.14,1.14,0,0,0,.52-1.63c-.21-.45-.61-.71-1.54-.7A5.72,5.72,0,0,0,1595.38,426.4Zm-206.11-28a.93.93,0,0,0-.27-1.24,4.48,4.48,0,0,0-3-1.11,1.68,1.68,0,0,0-1.63.64c-.37.53.1,1.3,1.13,1.69.86.34,1.75.6,2.65.89A4.84,4.84,0,0,0,1389.27,398.39Zm115.34-56.94c.16.62.52,1.21,1.22,1.22,1,0,1.2-.76,1.24-1.57a10.75,10.75,0,0,0,0-1.39c-.12-1.59-.77-2.59-1.58-2.37-1.22.32-1,1.4-1.1,2.45A13.81,13.81,0,0,0,1504.61,341.45Zm61.59,184.62c.26.18.87,0,1.25-.17a.87.87,0,0,0,.38-.76,5.77,5.77,0,0,0-2.47-3.78c-.26-.18-.87,0-1.24.15-.21.09-.28.51-.45.84A6.3,6.3,0,0,0,1566.2,526.07ZM1546.34,541a5.64,5.64,0,0,0-3-4.06c-.28-.15-.89.15-1.26.39a.94.94,0,0,0-.18.86,8.15,8.15,0,0,0,2.54,3.38,2.75,2.75,0,0,0,.88.28C1545.89,541.76,1546.43,541.45,1546.34,541Zm-9,11.57c-.81,0-1.6.28-1.53,1.34a1.5,1.5,0,0,0,2.16,1.08c1.15-.4,2.24-1,4.06-1.75A9.39,9.39,0,0,0,1537.31,552.55Zm53.42-151.3c.66-.23,1.17-.68.82-1.41a1.66,1.66,0,0,0-1.1-.74,4.41,4.41,0,0,0-3.53,1.11,1.22,1.22,0,0,0-.33.83c0,.55.44.8,1,.95A6.32,6.32,0,0,0,1590.73,401.25ZM1418.79,520.42a4.53,4.53,0,0,0-2.43,3.69,1,1,0,0,0,.41.77.92.92,0,0,0,.82.12,5.2,5.2,0,0,0,2.53-3.69c.05-.48-.4-.8-.88-.93C1419.09,520.39,1418.91,520.35,1418.79,520.42Zm-29.88-127.74c-.43.36-.17.84.29,1.09.87.46,1.82.72,2.57-.1a5.31,5.31,0,0,0,1.88-3.89A14.25,14.25,0,0,0,1388.91,392.68Zm55.35,47.66c.34-1.42-.74-1.36-1.27-1.53-2.54-.8-5.1-1.49-7.65-2.22l-.37.62Zm60.87-107.57a1.18,1.18,0,0,0,.83.29,1,1,0,0,0,.69-.51,5.83,5.83,0,0,0-.3-3.71c-.16-.39-.56-.92-.9-1-.84-.09-.89.69-1,1.3a7.42,7.42,0,0,0-.06.94C1504.47,331.05,1504.34,332.06,1505.13,332.77ZM1604,424a1.2,1.2,0,0,0,.19,1.2c1.16.81,3.58-.22,4.16-1.7.13-.35-.32-1-1-1C1606.31,422.58,1604.88,422.69,1604,424Zm-59.67,125.86c.72.09,1.75.43,1.86-.77.08-.81-1.14-1.89-1.88-1.92-.9,0-.9,0-3.9,2C1541.88,549.37,1543.11,549.67,1544.36,549.83Zm38.92-28.58a1.51,1.51,0,0,0-.33-1.74,1.43,1.43,0,0,0-.75-.49.9.9,0,0,0-.75.38c-.52,1.44-1.22,2.87-.77,4.58C1582.22,523.52,1582.71,522.32,1583.28,521.25Zm-179.41-.47a1,1,0,0,0-1.6-.48,1.2,1.2,0,0,0-.51,1.64,7.94,7.94,0,0,0,2.86,3.33A8.34,8.34,0,0,0,1403.87,520.78ZM1600.1,398.05a.89.89,0,0,0,.24-.8.93.93,0,0,0-.62-.59,6.23,6.23,0,0,0-3.61.77,1,1,0,0,0-.42.77c0,.54.41.81,1,1A5.13,5.13,0,0,0,1600.1,398.05Zm-27.62,134c-.38-1.78-1.45-2.95-2.54-2.79a.92.92,0,0,0-.61.59,3.5,3.5,0,0,0,2.05,3.28c.11.06.3,0,.4,0A1,1,0,0,0,1572.48,532Zm-163.7-5.81a.76.76,0,0,0,1,.63,1.65,1.65,0,0,0,.83-1c.3-1.79-1-2.75-2.7-3.63C1408.2,523.57,1408.45,524.91,1408.78,526.23Zm4.15,2.28a5,5,0,0,0-1.72,2.72c0,.23.21.55.39.78a.48.48,0,0,0,.44.08,3.57,3.57,0,0,0,2.32-3.18c0-.19-.41-.39-.66-.61C1413.49,528.35,1413.12,528.33,1412.93,528.51Zm138.41,19.13a4.25,4.25,0,0,0-2.07-2.92.91.91,0,0,0-1.18.93,3.81,3.81,0,0,0,2.31,2.71c.13,0,.3,0,.46,0C1551,548.1,1551.38,547.83,1551.34,547.64ZM1450.14,422a4.55,4.55,0,0,0-2.58-.78c.25,1.43,1.53,1,2.39,1.3.11,0,.27-.1.41-.16C1450.29,422.24,1450.25,422,1450.14,422Zm64.67,70.51a.43.43,0,0,0,.28-.26c.1-.41-.71-1.36-1.08-1.3-.11,0-.2.17-.3.26C1513.64,491.61,1514.44,492.57,1514.81,492.51Z"/><path d="M328.12,313.21c70.76-.11,124.3,57.17,124.25,124.14-.06,69.42-57,123.89-124,123.94-68.52.05-124.63-56.08-124.16-124.16A123.54,123.54,0,0,1,328.12,313.21Zm27.15,160.25c9.16-6.9,14.34-16.21,15.94-27.43a41.27,41.27,0,0,0-.5-16.23c-4.72-18.1-16.23-29.74-34.57-33.28-21.3-4.11-38.43,6.83-46.55,22-.44.82-1.11,1.61-.84,2.78,1.3.63,2.36-.45,3.54-.64a8.06,8.06,0,0,1,7,13.89,8.22,8.22,0,0,1-11.26-.77,32.32,32.32,0,0,1-2.34-3.57c-1,.84-1,2-1.11,3-1.66,15.32,2.78,28.42,14.24,38.95a8.38,8.38,0,0,0,3.6,2.3l-.06-.05a12.37,12.37,0,0,0,2,2c5.62,3.54,11.64,6,18.34,6.49,5.6.37,11.18.45,16.68-1.05a46.58,46.58,0,0,0,10.16-4.22,7.73,7.73,0,0,0,2.9-2.45ZM357,534.32c.77-.22,1.54-.46,2.28-.75,1.87-.74,2.32-1.52,1.62-3.28-3.56-9-7.76-17.64-14.22-24.86-6.28-7-14.51-9.05-23.61-7.15-4.91,1-8.55,4.23-11.38,8.27a42.87,42.87,0,0,0-3.41,5.77c-2.76,5.59-5.4,11.24-8.08,16.87-.27.57-.55,1.16-.77,1.75-.73,1.95-.3,2.92,1.79,3.63a61,61,0,0,0,12.63,2.75c4.9.57,9.81,1.5,14.8,1.21A114.81,114.81,0,0,0,357,534.32ZM301.24,360c-.73-4.41-1.4-8.82-2.13-13.23a19.06,19.06,0,0,0-.74-2.76,1.47,1.47,0,0,0-1.87-1,13.25,13.25,0,0,0-1.83.55,99.58,99.58,0,0,0-45.14,32.67c-2.65,3.35-2.58,3.47,1,5.73a104.87,104.87,0,0,0,17.84,9.2,31,31,0,0,0,8.26,2.35,24.69,24.69,0,0,0,19.81-6.53,17.47,17.47,0,0,0,5.89-13.14c0-1.12,0-2.23,0-2.55A56.7,56.7,0,0,0,301.24,360Zm-66,115.26A94.08,94.08,0,0,0,245.89,495c2.48,3.51,2.66,3.43,5.83.84a100.78,100.78,0,0,0,13.69-14,29.15,29.15,0,0,0,6.18-11.22,26,26,0,0,0-.64-15.09,18.65,18.65,0,0,0-10.88-11.43,30.57,30.57,0,0,0-7.81-2.2l-19.41-2.7a18.89,18.89,0,0,0-2.38-.15,1.68,1.68,0,0,0-1.9,1.7c-.08,1.58,0,3.18,0,5.61A96.42,96.42,0,0,0,235.27,475.22Zm127-87.87c5.8,5.84,12.88,7.3,20.75,4.91a21.42,21.42,0,0,0,3.14-1.15q10.56-5.14,21.06-10.37a5.69,5.69,0,0,0,1.21-.78,1.39,1.39,0,0,0,.42-1.71,10.89,10.89,0,0,0-1.24-2,100.63,100.63,0,0,0-45.17-32.75l-.46-.14c-2.52-.77-3.08-.5-3.82,2a83.75,83.75,0,0,0-2.68,13.13c-.43,3.31-1.2,6.61-1,9.88C354.08,375.94,357.09,382.19,362.23,387.35Zm66.56,52.74c-.14-1.91-.79-2.57-2.65-2.69a13.63,13.63,0,0,0-2.39,0c-6.83.74-13.65,1.45-20.31,3.31-7.8,2.19-13,7.19-16.43,14.32a18.57,18.57,0,0,0,.47,17.51,26.25,26.25,0,0,0,3.76,5.54c5.29,5.77,10.74,11.4,16.13,17.09a7.2,7.2,0,0,0,.71.64c1,.83,1.71.82,2.45-.09a15.8,15.8,0,0,0,1.12-1.56A98.85,98.85,0,0,0,428,450.11c.29-2.54.61-5.07.91-7.61l-.14,0C428.8,441.69,428.85,440.88,428.79,440.09ZM353.8,349c.17-.78.37-1.56.52-2.34.33-1.68,1.64-3.58.34-5-1.54-1.72-4.05-1.65-6.25-1.89a1.42,1.42,0,0,0-1.52,1.52c0,2.39,0,4.78.16,7.17.14,2.71.41,5.41.58,8.12q.87,13.62,1.7,27.24c.19,3.35.32,6.7.37,10.05a6,6,0,0,0,3,5.57,48.67,48.67,0,0,1,5.43,3.93,6.27,6.27,0,0,0,6.23,1.23c5.52-1.58,11.11-3,16.66-4.45q15.26-4.12,30.5-8.29c.62-.17,1.26-.25,1.87-.44,2.67-.85,3-1.65,1.65-4.18-.23-.42-.47-.83-.72-1.24-2.2-3.65-2.67-3.82-6.42-2-6,3-12,6-18,8.94a31.83,31.83,0,0,1-10.47,3.24c-8,.92-14.87-1.37-20.29-7.37-5.2-5.76-8.47-12.37-8.11-18.16A105.86,105.86,0,0,1,353.8,349Zm69,78.27q-13.31,4.8-26.6,9.64c-6,2.18-12,4.41-18,6.52-2.16.76-3.45,1.9-3.81,4.33a38.22,38.22,0,0,1-3,10.1,4.69,4.69,0,0,0,.5,5c.37.52.69,1.07,1.05,1.6q12.68,19.23,25.35,38.44c.62.93,1.27,1.84,2,2.72a1.34,1.34,0,0,0,2.08.24,4.25,4.25,0,0,0,.68-.66c4.62-5.45,5-4.85,0-9.91-3.93-4-7.82-8-11.69-12a38.38,38.38,0,0,1-7-9.66,22.29,22.29,0,0,1,.32-21.2c3.72-7.09,9.22-12.21,17.08-14.46a91.51,91.51,0,0,1,16-3c2.86-.28,5.72-.56,8.58-.91,1.87-.23,2.57-1,2.41-2.86a25.24,25.24,0,0,0-.74-3.74c-.17-.69-.74-1-1.67-1.14C425.26,426.52,424,426.85,422.83,427.28ZM322.13,486.2a6.06,6.06,0,0,0-5.75,2.64c-3,3.77-6.06,7.42-9.09,11.14q-10,12.24-20,24.51c-.6.74-1.23,1.47-1.78,2.25a1.32,1.32,0,0,0,.34,2.06,27.87,27.87,0,0,0,8,3.2,1.41,1.41,0,0,0,1.62-.73c.55-1,1.06-2,1.54-3l8-16.89a41.25,41.25,0,0,1,5.06-8.11c6-7.42,13.76-10.13,23-8.54a27.89,27.89,0,0,1,18.62,11.56,115.29,115.29,0,0,1,10.42,18.29c.48,1,.91,2,1.39,3,1.63,3.45,2.4,3.71,5.89,2a13.72,13.72,0,0,0,1.24-.71,1.36,1.36,0,0,0,.53-2,26.93,26.93,0,0,0-1.74-2.28c-9.71-12.07-19.47-24.1-29.1-36.23a5.43,5.43,0,0,0-5.75-2.32,35.43,35.43,0,0,1-5.74.06v.09C326.6,486.25,324.35,486.41,322.13,486.2Zm91.71-84.37q-20.64,7.67-41.27,15.36a5.24,5.24,0,0,0-.87.39,1.55,1.55,0,0,0-.89,2c.88,2.39,1.81,4.76,2.77,7.13a2,2,0,0,0,2.33,1.26c1.42-.22,2.81-.58,4.2-.94,12.05-3.1,24.09-6.23,36.14-9.31,5.9-1.51,6.05-1.28,4.12-7.3-.83-2.57-1.88-5.08-2.87-7.6a2.12,2.12,0,0,0-2.09-1.36A12.59,12.59,0,0,0,413.84,401.83Zm-145.73-7.39A99,99,0,0,1,251,385.93c-1-.58-1.89-1.2-2.87-1.74-2.91-1.63-3.49-1.45-5.28,1.54-.25.41-.48.83-.7,1.26-1.27,2.49-1,3.42,1.74,4.22,5.67,1.69,11.37,3.26,17.06,4.88q13.83,3.93,27.67,7.85c1.53.43,3.09.81,4.65,1.13a4.25,4.25,0,0,0,3.6-.88c2.3-1.73,4.61-3.45,7-5.09a4.89,4.89,0,0,0,2.23-4c.19-3.19.56-6.37.76-9.56.43-6.86.77-13.72,1.21-20.57.47-7.34,1-14.67,1.5-22a12.06,12.06,0,0,0,0-1.9,1.25,1.25,0,0,0-1.27-1.19,9.5,9.5,0,0,0-1.89.24c-4.11.61-4.83,1.48-4.06,5.66,1.41,7.69,2.42,15.46,3.48,23.22a25.25,25.25,0,0,1-1.58,12.25,20.69,20.69,0,0,1-6.69,9.19c-5.33,4.24-11.53,6.05-17.95,6.49A34.89,34.89,0,0,1,268.11,394.44Zm-39.49,38.42a2.73,2.73,0,0,0,2.71,2.83c5.06.72,10.14,1.31,15.19,2.06a90.35,90.35,0,0,1,10.37,1.84c16.89,4.58,24.26,23.19,15.24,38.25A61.1,61.1,0,0,1,264,488.49a129.07,129.07,0,0,1-11.07,10.62c-2.17,1.8-2.14,2.59-.2,4.69a8.87,8.87,0,0,0,1,1,1.47,1.47,0,0,0,2.14-.06,25.43,25.43,0,0,0,2-2.69q12.86-18.81,25.69-37.64c.45-.66.9-1.32,1.31-2a2.88,2.88,0,0,0,.33-2.74,68.28,68.28,0,0,1-4-12.8,4,4,0,0,0-2.71-3.08c-2.83-1.1-5.64-2.27-8.47-3.36q-17.91-6.89-35.83-13.74c-5.32-2-5.58-1.87-5.64,3.8A21.16,21.16,0,0,0,228.62,432.86Zm153,86.49a56.89,56.89,0,0,0,8.35-6.4c1.05-1,1.09-1.74.31-3a20.69,20.69,0,0,0-1.39-1.94q-12.3-15.63-24.62-31.23c-.4-.5-.79-1-1.22-1.48-1.38-1.47-2.17-1.6-3.7-.48q-2.52,1.83-4.95,3.79c-1.75,1.42-1.89,2-.58,4.05,2.7,4.14,5.49,8.24,8.27,12.33q7.13,10.51,14.28,21c.72,1.05,1.46,2.09,2.25,3.09a1.87,1.87,0,0,0,1.84.73A6.1,6.1,0,0,0,381.57,519.35ZM237.31,415.85a20.21,20.21,0,0,0,2.27.77L275.51,427c1.07.31,2.14.64,3.23.91,2.76.69,3.12.48,4.17-2.33.73-2,1.5-3.88,2.18-5.84.57-1.65.29-2.31-1.42-2.94-4.65-1.72-9.33-3.36-14-5l-24.45-8.57c-1.05-.36-2.13-.69-3.21-1a1.7,1.7,0,0,0-2,.91,40.59,40.59,0,0,0-3.74,10C236,414.92,236.52,415.52,237.31,415.85Zm56.12,59c-1.08,1.18-2.08,2.43-3.07,3.68q-11.16,14.1-22.3,28.2c-3,3.77-2.93,4.16.63,7.42a30.28,30.28,0,0,0,6.24,4.42,2,2,0,0,0,3-.58c.51-.61.95-1.28,1.41-1.93q10.72-15.6,21.45-31.21c3.25-4.7,2.94-4.76-1.31-7.93-1-.76-2-1.59-3-2.34a8.18,8.18,0,0,0-1.48-.65A6.51,6.51,0,0,0,293.43,474.88Zm29.42-86.36a12.2,12.2,0,0,0,.15,1.91,2.17,2.17,0,0,0,2.26,2.05,48.76,48.76,0,0,0,5.27,0c1.57-.09,2.22-.68,2.48-2.4.36-2.36.61-4.75.75-7.14.64-11,1.19-22,1.85-33,.39-6.48.22-6.74-6.34-6.79h-2.4c-5,.09-5.3.44-5.28,5.62,0,2.72,0,5.43,0,8.15C322,367.44,322.94,378,322.85,388.52Zm-32.5-64a113.63,113.63,0,0,0-22.64,10.32A123.16,123.16,0,0,0,246,351.33a112.26,112.26,0,0,0-13.52,15.53,6.68,6.68,0,0,0-.94,1.66,1.58,1.58,0,0,0,.11,1.32,6,6,0,0,0,3.67,2.06,2.24,2.24,0,0,0,2-1c1.53-1.85,3-3.74,4.54-5.57A111.62,111.62,0,0,1,289.14,332c1.5-.56,3-1.08,4.47-1.73,2-.87,2.52-4.65.85-6.07a4.6,4.6,0,0,0-1.07-.45C292.49,324,291.4,324.18,290.35,324.53Zm73.43,5.84c.88.39,1.78.7,2.68,1a114.21,114.21,0,0,1,46.38,31.22c2.34,2.61,4.57,5.33,6.66,8.15,1.72,2.31,2.77,2.75,5.47.48a1.63,1.63,0,0,0,.46-2.15,30.32,30.32,0,0,0-2.08-3.21,118.93,118.93,0,0,0-53.69-40.15c-1.19-.45-2.4-.87-3.63-1.2-1.58-.42-2.37,0-2.88,1.64-.25.75-.4,1.54-.49,1.89A1.93,1.93,0,0,0,363.78,330.37Zm-4,213c.92-.29,1.82-.62,2.74-.89,3.22-1,3-2.51,1.44-5a2.24,2.24,0,0,0-2.49-1c-1.4.29-2.78.71-4.17,1.1A120.32,120.32,0,0,1,337,541.19c-11.8,1.24-23.27-.23-34.68-3-1.24-.29-2.48-.64-3.74-.86a2.41,2.41,0,0,0-2.46,1.13c-1.74,2.47-1.24,4,1.68,5a88.47,88.47,0,0,0,16.86,3.57c4.59.59,9.23.76,13.6,1.1C339.07,547.45,349.58,546.58,359.73,543.38ZM219,484.24a119,119,0,0,0,13.3,23.24,22.31,22.31,0,0,0,1.45,1.91,1.45,1.45,0,0,0,2.13.14,12.13,12.13,0,0,0,1.72-1.64,1.7,1.7,0,0,0,.09-2.21c-.71-1.06-1.46-2.1-2.19-3.15A114.08,114.08,0,0,1,216,451.06c-.26-2.05-.19-4.15-.38-6.21s-.43-3.81-.72-5.7a2.8,2.8,0,0,0-1.78-2.1c-2.09-1-3.5-.23-3.64,2-.08,1.27,0,2.55,0,4.23A118.89,118.89,0,0,0,219,484.24Zm72.84-149.89A109.18,109.18,0,0,0,266,347.65a110.85,110.85,0,0,0-23.62,22.25c-.4.5-.82,1-1.2,1.5-2.12,2.85-1.78,4.07,1.4,5.34a2.38,2.38,0,0,0,3-.85c1.44-1.72,2.83-3.46,4.28-5.17a102.56,102.56,0,0,1,42.68-29.88c1.05-.4,2.13-.71,3.14-1.19,1.85-.89,2.32-4.35.81-5.77a2.69,2.69,0,0,0-.85-.41A9.46,9.46,0,0,0,291.87,334.35Zm69.77,5.23c1.31.59,2.63,1.15,4,1.67a103.51,103.51,0,0,1,40.23,27.8c2,2.26,3.84,4.7,5.85,7,1.35,1.52,4.73.89,5.68-1a1.72,1.72,0,0,0-.06-1.35,12.22,12.22,0,0,0-1.3-2,106.91,106.91,0,0,0-35.79-30.54,99,99,0,0,0-14-6.35c-.9-.31-1.81-.62-2.74-.84a2,2,0,0,0-2.65,1.43,16.16,16.16,0,0,0-.54,2A2.47,2.47,0,0,0,361.64,339.58ZM432.24,440a113.43,113.43,0,0,1-1.77,16.66,101.14,101.14,0,0,1-15.26,38c-.71,1.06-1.45,2.11-2.11,3.2-.91,1.53-.83,2.07.35,3.42,2.26,2.62,3.06,2.62,5-.21a108.15,108.15,0,0,0,18-43.48c.83-4.71,1.21-9.5,1.75-14.26a19.73,19.73,0,0,0,.06-3.35c-.12-2.09-1-2.86-3-2.81S432.32,438,432.24,440ZM235.59,496.56c1.46,2.29,3,4.52,4.61,6.73a1.51,1.51,0,0,0,2.44.41,17,17,0,0,0,1.76-1.63,2.21,2.21,0,0,0,.24-3l-2.92-4.4a102.5,102.5,0,0,1-16.14-43.73c-.44-3.33-.63-6.69-1-10a3.07,3.07,0,0,0-1.69-2.7c-2.26-1.12-3.84-.33-4,2.11-.08,1.44,0,2.88,0,4.32A107.68,107.68,0,0,0,235.59,496.56ZM447,438.79a2.17,2.17,0,0,0-2.46-2.3c-1.6,0-2.51.64-2.71,2.09-.13.94-.12,1.91-.16,2.86-.89,21.41-7,41.17-18.89,59.05-1,1.46-2,2.88-2.92,4.39A2.81,2.81,0,0,0,421.7,509a1.66,1.66,0,0,0,1.31-.33,14.86,14.86,0,0,0,1.88-2.15,116,116,0,0,0,20.32-48.17c.9-5.35,1.41-10.77,2.1-16.15l-.27,0C447,441,447.1,439.9,447,438.79ZM363,551c1.22-.36,2.44-.75,3.64-1.2,1.57-.58,2-1.3,1.69-2.4-.56-1.75-1.64-2.58-3.12-2.28-.78.16-1.53.45-2.3.68a100.42,100.42,0,0,1-19.63,4.34c-6.66.61-13.3,1.34-20.07.85a130.14,130.14,0,0,1-27.8-4.76c-2-.6-3.42.4-3.79,2.47a1.44,1.44,0,0,0,.69,1.65,21.64,21.64,0,0,0,3.08,1.26,121.87,121.87,0,0,0,14.5,3.23c6.16,1.11,12.39,1.19,19.75,1.17C340.35,556.35,351.8,554.37,363,551ZM340.11,389c0,4.68-.13,5,5.11,6.52,1.19.34,1.9-.24,1.82-1.45q-.62-9.09-1.27-18.17c0-.8-.15-1.59-.19-2.39-.42-8.3-.8-16.6-1.27-24.9-.14-2.55-.48-5.09-.76-7.63a3.35,3.35,0,0,0-.4-1.37,1.42,1.42,0,0,0-1.59-.79c-.42.12-1,.48-1.06.81a21.93,21.93,0,0,0-.38,3.79c0,7.68,0,15.35,0,23C340.11,374,340.1,381.51,340.11,389Zm-24.24-44.95a10.21,10.21,0,0,0-.42-4.26,1.7,1.7,0,0,0-1.05-.86,1.3,1.3,0,0,0-1.57.79,11.05,11.05,0,0,0-.55,2.78c-.42,7-.75,14-1.2,21.06-.45,6.85-1.07,13.69-1.51,20.54-.22,3.35-.25,6.71-.29,10.06a1.23,1.23,0,0,0,1.61,1.26,23.07,23.07,0,0,0,3.14-1.14,2.59,2.59,0,0,0,1.51-2.29c.09-1.11.15-2.23.15-3.35,0-7.51,0-15,0-22.53h.18C315.88,358.78,315.89,351.43,315.87,344.08ZM280.13,525.9a1.77,1.77,0,0,0,2.22,0,25.24,25.24,0,0,0,2.22-2.5q11.65-14.26,23.3-28.56c2.12-2.6,4.25-5.18,6.3-7.83,1.08-1.39.75-2.12-1-2.77-.3-.11-.61-.2-.91-.32a2.67,2.67,0,0,0-3.42.81c-.82,1-1.66,1.94-2.44,2.95q-12.53,16.33-25,32.69c-.68.89-1.32,1.81-1.92,2.75a5.37,5.37,0,0,0-.45,1.19A2.24,2.24,0,0,0,280.13,525.9Zm-1.53-91.14c-1.05-.39-2.08-.83-3.14-1.19q-20.15-6.94-40.31-13.87c-1.06-.37-2.13-.7-3.21-1a1.53,1.53,0,0,0-1.95.95,1.92,1.92,0,0,0,.75,2.51,16.11,16.11,0,0,0,2.61,1.17l37.11,14.29c2.68,1,5.35,2.08,8.06,3,1.69.6,2.36.05,2.41-1.76v-.66A3.14,3.14,0,0,0,278.6,434.76ZM368.77,412c4.44-1.3,8.84-2.69,13.24-4.11q16.15-5.19,32.29-10.45a37.52,37.52,0,0,0,3.58-1.34,1.22,1.22,0,0,0,.59-1.62,1.41,1.41,0,0,0-1.45-1,12.37,12.37,0,0,0-2.32.46q-11.55,3-23.1,6.13-12,3.23-24,6.51a24.76,24.76,0,0,0-3.13,1.11c-.22.09-.29.51-.44.78C364.26,410.48,366.88,412.54,368.77,412Zm9.32,28.58c4.08-1.39,8.12-2.89,12.17-4.36q16.2-5.88,32.41-11.79c1.19-.44,2.38-.92,3.53-1.47a1.4,1.4,0,0,0,.83-1.57,1.52,1.52,0,0,0-1.78-1.24,24.12,24.12,0,0,0-3.71.89q-17.84,5.57-35.65,11.16c-2.59.82-5.22,1.52-7.78,2.41-2.21.77-2.69,1.61-2.73,3.94C375.35,440.47,376.21,441.2,378.09,440.57ZM239.26,393.44a2.15,2.15,0,0,0-.88,1,1.45,1.45,0,0,0,.44,1.23,8.57,8.57,0,0,0,2.16,1l44.8,14.14c.61.19,1.23.35,1.84.55a3,3,0,0,0,3.39-1.12c1.21-1.32,1.09-2.33-.56-2.82-4.75-1.43-9.51-2.79-14.27-4.15q-15.44-4.42-30.88-8.84c-1.69-.48-3.4-.87-4.88-1.24A3.49,3.49,0,0,0,239.26,393.44Zm129,77.76q7.95,11.12,15.92,22.2c3.63,5.06,7.24,10.14,10.9,15.18.63.86,1.19,2,2.62,1.62,1-.26.94-1.6-.07-3.31-.65-1.1-1.37-2.16-2.08-3.22q-11.52-17.39-23-34.76c-.62-.93-1.24-1.87-1.88-2.78s-1.12-1.7-2.26-1.32a3.73,3.73,0,0,0-2,3.18A8.57,8.57,0,0,0,368.23,471.2Zm-108.87,38c1.33-.7,2-2,2.9-3.12q7.35-9.75,14.65-19.53,5.18-6.88,10.34-13.79c.66-.89,1.36-1.77,2-2.71,1.12-1.73.68-3.62-1.19-4.91a1.34,1.34,0,0,0-1.28.05,27.18,27.18,0,0,0-2.37,3q-10.25,15-20.47,30.08c-1.8,2.63-3.62,5.25-5.41,7.89a2.7,2.7,0,0,0-.62,2.21A1.21,1.21,0,0,0,259.36,509.17Zm83-22.83a16.27,16.27,0,0,0,1.34,2q14.44,17.93,28.92,35.82a13.18,13.18,0,0,0,2,2c.27.2.91.07,1.32-.09a.9.9,0,0,0,.54-1.19,13.79,13.79,0,0,0-1.41-2.48q-13.43-18.11-26.88-36.18a16,16,0,0,0-1.53-1.83,3,3,0,0,0-4.23.58,2.18,2.18,0,0,0-.16.45A2.48,2.48,0,0,0,342.4,486.34ZM334.58,325c1.38,0,2-.57,2.15-2a11.73,11.73,0,0,0,0-2.37,2.14,2.14,0,0,0-2.17-2.12c-3.8-.1-7.62-.13-11.42,0a2.28,2.28,0,0,0-2.45,2.4,11.06,11.06,0,0,0,.07,2.37,1.77,1.77,0,0,0,1.91,1.71c2.06-.05,4.13-.18,6.3-.28C330.78,324.75,332.68,324.89,334.58,325Zm99.21,88a1.7,1.7,0,0,0,1-1.93,14.89,14.89,0,0,0-.45-2.34c-1.14-3.48-2.25-7-3.52-10.4-.76-2.05-1.62-2.28-3.74-1.39a6.37,6.37,0,0,0-1.27.66,1.79,1.79,0,0,0-.85,2.05c1.37,4.23,2.75,8.47,4.21,12.67.34,1,1.23,1.43,3.12,1.19A8.46,8.46,0,0,0,433.79,413Zm1.14-18.9a1.81,1.81,0,0,0-1,2.36c1.35,4.24,2.69,8.48,4.1,12.7.77,2.3,1.59,2.63,4,1.86,1.52-.48,1.89-.94,1.59-2.4A84.16,84.16,0,0,0,439.31,395a2.41,2.41,0,0,0-2.59-1.61C436.39,393.49,435.64,393.73,434.93,394.08Zm-100.75-60c1.58-.14,2.35-1.31,2.35-3.07a2.49,2.49,0,0,0-2.12-2.76,44.82,44.82,0,0,0-11-.08c-1.85.2-2.63,1.43-2.53,3.41.09,1.72.85,2.52,2.76,2.62,1.75.09,3.51,0,5.26,0v-.11C330.68,334.11,332.44,334.23,334.18,334.08Zm54.13,196c3.11-2.19,6.23-4.36,9.24-6.68,1.54-1.2,1.53-2.06.44-3.68a9.49,9.49,0,0,0-1.17-1.49,1.63,1.63,0,0,0-2.16-.32c-1.05.69-2,1.53-3,2.27-1.93,1.39-3.88,2.74-5.8,4.14-2.24,1.62-2.33,2.35-.64,4.61.7.94,1.23,1.38,2,1.49A3.39,3.39,0,0,0,388.31,530.09ZM216.38,409.9c1.43.34,2.24.05,2.68-1.21,1.22-3.6,2.41-7.21,3.53-10.85.51-1.66.13-2.34-1.38-3a7.39,7.39,0,0,0-1.33-.5,2.16,2.16,0,0,0-2.79,1.19,67.13,67.13,0,0,0-3.58,10.81,4.9,4.9,0,0,0-.06.94C213.5,408.59,214.45,409.44,216.38,409.9ZM269.9,529.16a12.9,12.9,0,0,0,1.74-2.22,1.79,1.79,0,0,0-.49-2.53c-2.91-2.2-5.83-4.39-8.78-6.53a2,2,0,0,0-3,.18,12,12,0,0,0-1,1c-1.47,1.71-1.45,2.41.42,3.87,2.49,2,5.05,3.84,7.62,5.7a14.9,14.9,0,0,0,2.07,1.05C269.06,529.51,269.61,529.46,269.9,529.16ZM223.25,411.7a11.86,11.86,0,0,0,2.21.85,2.06,2.06,0,0,0,2.7-1.32q1.78-5.16,3.42-10.38a2,2,0,0,0-1.2-2.74,11.14,11.14,0,0,0-1.78-.65,1.86,1.86,0,0,0-2.43.93,59.44,59.44,0,0,0-3.71,11.23C222.39,410.82,222.63,411.4,223.25,411.7Zm43.4,122.51c.35-.86-.16-1.49-.85-2-3.18-2.36-6.34-4.74-9.53-7.1-1.21-.9-2-.81-2.85.24-1.54,1.83-1.59,2.94.26,4.42,2.84,2.28,5.82,4.39,8.77,6.52a7.42,7.42,0,0,0,1.61.7A4.11,4.11,0,0,0,266.65,534.21Zm24.78,5.8a18.08,18.08,0,0,0,1.44-3,1.46,1.46,0,0,0-.92-1.93c-2.61-1.14-5.21-2.33-7.88-3.33-2-.77-4.57,1-4.77,3.29a1.56,1.56,0,0,0,.52,1.23,38.59,38.59,0,0,0,10,4.38,2.81,2.81,0,0,0,.61.05C290.69,540.54,291.21,540.37,291.43,540ZM399.81,525.9c-3.11,2.24-6.21,4.49-9.26,6.8-1.51,1.14-1.43,2.67.07,4a1.56,1.56,0,0,0,1.76.42,43.12,43.12,0,0,0,10.79-7.83c1.05-1,.62-2.76-.74-3.7a6.32,6.32,0,0,0-1-.43A7.87,7.87,0,0,0,399.81,525.9ZM219.16,432.17a3.38,3.38,0,0,0,4.05,2.34,1.88,1.88,0,0,0,1.36-1.21,19.64,19.64,0,0,0,.61-8.88c-.17-1.31-2.64-2.65-4.19-2.43a1.6,1.6,0,0,0-1,.84c-.9,2.08-.84,4.31-1,6.86A18.47,18.47,0,0,0,219.16,432.17Zm126.89-100.4c0,2.74.91,4.07,3.58,4.81,1.52.41,3.08.71,4.63,1a2,2,0,0,0,2.62-1.39,12.7,12.7,0,0,0,.62-2.27,1.68,1.68,0,0,0-.95-2c-2.78-1.23-5.8-1.44-8.27-2C346.79,330,346.06,330.73,346.05,331.77Zm-47.61,96.66a4.24,4.24,0,0,0-4.4-4.55,4.81,4.81,0,0,0-4.74,4.9,4.44,4.44,0,0,0,4.77,4.25A4.28,4.28,0,0,0,298.44,428.43ZM408.7,503.86c-1.42,1.52-2.8,3.08-4.18,4.63a2.37,2.37,0,0,0-.36,3.07,25.41,25.41,0,0,0,1.59,2.39,1.13,1.13,0,0,0,1.67.34,35.71,35.71,0,0,0,6-6.83,1.37,1.37,0,0,0-.16-1.77,30.9,30.9,0,0,0-2.43-2.29c-.21-.18-.59-.16-1-.25A5.19,5.19,0,0,0,408.7,503.86Zm7.09-123.35a1.73,1.73,0,0,0,0,1.36c1.15,2.09,2.37,4.14,3.61,6.18a2.11,2.11,0,0,0,2.48,1,18.25,18.25,0,0,0,2.72-.85,1.27,1.27,0,0,0,.74-1.59,29.18,29.18,0,0,0-4.61-7.76c-.18-.22-.55-.29-.83-.42C418.88,378.28,416.22,379.57,415.79,380.51ZM232,387.05c.81,1.59,4.37,2.18,5.46.73a56.73,56.73,0,0,0,3.76-6.1,1.39,1.39,0,0,0-.39-1.75,17.8,17.8,0,0,0-2.86-1.67,1.44,1.44,0,0,0-1.73.48,26.84,26.84,0,0,0-4.35,7.39,1.22,1.22,0,0,0,0,.47A2.35,2.35,0,0,0,232,387.05Zm205.44,38.18c-.29-2-1.44-2.61-3.4-2-2.2.7-2.77,1.54-2.53,3.85.13,1.26.32,2.52.53,3.77a3.4,3.4,0,0,0,5.2,2.6,1.65,1.65,0,0,0,.83-1.61c-.06-.94-.16-1.89-.25-2.83h0C437.71,427.75,437.66,426.48,437.47,425.23ZM303,331c-2.71.68-3.07,1.33-2.5,4.06.51,2.5.92,2.74,3.63,2.18.93-.2,1.88-.35,2.78-.62,2.59-.78,3.47-2.34,2.88-5.1-.17-.84-.74-1.37-2-1.45C306.42,330.36,304.7,330.61,303,331Zm64.69,203.4a1.52,1.52,0,0,0-.45,1.27,15.19,15.19,0,0,0,1.19,3.09,1.53,1.53,0,0,0,2.06.69c2-.91,4.05-1.87,6-2.9a1.39,1.39,0,0,0,.57-2.05,16.36,16.36,0,0,0-1.7-2.29,2.39,2.39,0,0,0-2.13-.63A17.2,17.2,0,0,0,367.7,534.43Zm-120.38-30a17.35,17.35,0,0,0-2.24,1.76,1.9,1.9,0,0,0-.19,3,41.18,41.18,0,0,0,3.26,3.48,1.62,1.62,0,0,0,2.5-.28c1.82-2.12,1.91-3.31.28-5.5-.75-1-1.37-2.18-2.67-2.6C247.92,504.33,247.55,504.28,247.32,504.45Zm75.45-166.66a1.45,1.45,0,0,0-1,.87.81.81,0,0,0,.76,1q5.73.08,11.48,0a.93.93,0,0,0,1-.87,1.15,1.15,0,0,0-1.25-1.14c-1.75,0-3.51,0-5.27,0v-.23C326.59,337.54,324.68,337.6,322.77,337.79Zm-3.95,46.62c0,2.38,0,4.77.11,7.15a.8.8,0,0,0,.59.55.78.78,0,0,0,.6-.52,16.91,16.91,0,0,0,.1-3.33c-.88-7.45-.63-14.94-.87-22.42,0-.47-.1-.94-.15-1.41h-.39C318.81,371.09,318.8,377.75,318.82,384.41Zm38.9-58a1.27,1.27,0,0,0,1.91-.77c.81-2.06.43-3.05-1.61-3.59-2.28-.61-4.61-1.06-6.92-1.58-.09.27-.18.55-.26.82C353.13,323.05,355.39,324.8,357.72,326.46Zm-21.15,65.47c0,.07.26.1.39.15.17-.23.49-.45.49-.67,0-7.33,0-14.67,0-22C337.87,377.06,335.39,384.44,336.57,391.93ZM230.28,377.09c.86-.52,2.31-.94,1.81-2.36a3.41,3.41,0,0,0-2.61-1.83,1.64,1.64,0,0,0-1.27.34c-1.09,1-2.93,4.63-3.65,7.13C226.9,379.83,228.45,378.19,230.28,377.09ZM286,548.31c1.22.41,2-.15,2.55-1.49.35-.87,0-1.8-.85-1.82-2.53,0-5.05,0-7.58,0l-.26.94C281.94,546.73,284,547.6,286,548.31Zm-76.4-117c.2,1.26,1.22,2,2.81,2a1,1,0,0,0,1-1.26,12.13,12.13,0,0,0-1.16-3.11c-.55-1-.47-2.93-2-2.6-1.06.23-.51,2-.79,2.88C209.55,430.06,209.55,430.7,209.64,431.33Zm23.43-19.53c.73-2.11,1.56-4.19,2.14-6.34.4-1.51,2.18-2.82.85-4.65-1.62.82-1.71,2.57-2.24,4-.84,2.23-1.44,4.56-2.08,6.86-.16.55-.36,1.21.3,1.64C232.82,413.07,232.87,412.39,233.07,411.8ZM276,533.37a5.71,5.71,0,0,0,2.41-2.77,1.94,1.94,0,0,0-2-2.46c-1.39.13-3.32,2.7-3.12,4.15C273.41,533.23,275,533.89,276,533.37ZM225.73,416.51a15.88,15.88,0,0,0-2.68-1,1.44,1.44,0,0,0-1.68.6,1.92,1.92,0,0,0,.16,2.23,5.05,5.05,0,0,0,2.89,1.53,1.7,1.7,0,0,0,2.16-1.81A1.59,1.59,0,0,0,225.73,416.51Zm217.69,14.42c-.3.81-.16,1.59.81,1.87a1.94,1.94,0,0,0,2.61-1.28,9,9,0,0,0-.83-5.8C444.44,427.39,444.05,429.23,443.42,430.93ZM313.21,333.14c.14.83.52,1.5,1.43,1.59a1.45,1.45,0,0,0,1.61-1.36,10.42,10.42,0,0,0,0-2.79,1.46,1.46,0,0,0-2.89-.22c-.14.61-.2,1.23-.26,1.6C313.16,332.52,313.16,332.84,313.21,333.14ZM215,426.55c1.07-2.3,1.56-4,1.37-5.23a2.2,2.2,0,0,0-.6-1.25,4.09,4.09,0,0,0-3.63-1.23C212.69,421.62,214,424,215,426.55Zm125.58-92.47a1.39,1.39,0,0,0,2.31,0,4.35,4.35,0,0,0-.16-4.1,1.72,1.72,0,0,0-1.15-.67,1.2,1.2,0,0,0-1.32,1.08,15.07,15.07,0,0,0-.21,1.63A10,10,0,0,0,340.62,334.08Zm87.64,50.34c1.66,2.7,1.81,2.72,5.27,1.05-2.57-2.69-3.51-3.22-6.67-3.63C427.37,382.78,427.77,383.63,428.26,384.42ZM298.9,325.8a.72.72,0,0,0,1.15.34c1.29-1.16,2.52-2.38,3.73-3.63a1,1,0,0,0,.11-.87.93.93,0,0,0-.74-.43,15.28,15.28,0,0,0-2.79.42c-1.67.48-2,1-1.79,3A7,7,0,0,0,298.9,325.8Zm77,105.17a1,1,0,0,0-.5.7c0,.12.41.5.57.46a79.25,79.25,0,0,0,12.8-4.13A79.55,79.55,0,0,0,375.91,431Zm34.19,85.38c-1.49,1.63-1.47,2.2-.07,4.15.29.4.69.82,1.16.6a1.8,1.8,0,0,0,.84-1.05c.42-1.85.75-3.72,1.21-6A6.08,6.08,0,0,0,410.1,516.35ZM217.22,415.59a1.61,1.61,0,0,0,0-1.34,4.05,4.05,0,0,0-4.61-1.49,1.57,1.57,0,0,0-.38,2.11,6.49,6.49,0,0,0,4,1.56C216.56,416.18,217.05,416,217.22,415.59Zm91.29-89.06c1.92-.56,2.32-1.32,2.17-3.51a.85.85,0,0,0-1.3-.77,27.22,27.22,0,0,0-4.68,4.56C306.24,327.64,307.38,326.86,308.51,326.53ZM348,323.18c-.49-.39-1.16-.68-1.7-.17a1.82,1.82,0,0,0-.19,2.2,1.8,1.8,0,0,0,1,.93c1.48.43,3,.74,4.5,1.09l.38-.8C350.62,325.34,349.33,324.23,348,323.18Zm-75.4,214.1a1.84,1.84,0,0,0-.69-1.15,1.62,1.62,0,0,0-1.76-.4,4.28,4.28,0,0,0-2.16,2.43,1.53,1.53,0,0,0,1.39,2A3.43,3.43,0,0,0,272.58,537.28Zm149-136.68c-.1-.25-.45-.59-.66-.57-.65.06-.59.62-.41,1,1.77,4,3.13,8.25,4.73,12.35A47.9,47.9,0,0,0,421.58,400.6Zm9.7,20A4.73,4.73,0,0,0,436,419a1.25,1.25,0,0,0-.5-1.61,4.73,4.73,0,0,0-4.67,1.56,2.4,2.4,0,0,0-.14.6C430.81,419.83,431,420.5,431.28,420.56Zm-5.22-44.46a6.84,6.84,0,0,0,4.34,2.59c.14,0,.55-.42.52-.59a5.1,5.1,0,0,0-2.49-3.81,1.56,1.56,0,0,0-1.78.2,4.65,4.65,0,0,0-.72,1A2.09,2.09,0,0,0,426.06,376.1ZM277.72,539.16a2.14,2.14,0,0,0-2.91.77c-.36.5-.93,1.14-.84,1.6.22,1.11,1.25.69,2,.62,1.56-.16,3.1-.42,4.65-.63l.07-.88C279.67,540.14,278.71,539.63,277.72,539.16ZM220.27,389.75a6.44,6.44,0,0,0,4.39,1.39c.51,0,1.08-1.07.82-1.5a5.06,5.06,0,0,0-5-1.52c-.23.1-.32.51-.47.78C220.06,389.19,220.07,389.58,220.27,389.75Zm9.65,3.11a5.92,5.92,0,0,0,3.5,1.08,1.15,1.15,0,0,0,1.22-1.14,1.56,1.56,0,0,0-.54-1.17,6.24,6.24,0,0,0-3.51-1.05c-.66,0-1.12.44-1.33,1.27A3.44,3.44,0,0,0,229.92,392.86Zm85.14-73c-1.15.42-1.1,1.48-1.15,2.38s-.68,2.31.77,2.92c.95.4,1.71-.83,1.73-2.75C316.43,320.69,315.83,319.55,315.06,319.83Zm126,105.69c0,.13.17.36.25.35.29,0,.69,0,.83-.17a9.79,9.79,0,0,0,1.76-3.8,1.13,1.13,0,0,0-.77-1.48,1.53,1.53,0,0,0-1.65.59c-.72.76-.64,1.72-.67,2.93C440.86,424.29,440.94,424.91,441.06,425.52ZM340.31,323.89c.12.48.42,1,.93.91a1.5,1.5,0,0,0,1-.75,5.25,5.25,0,0,0,0-3.28c-.12-.47-.39-.94-.93-.94-.76,0-1.07.56-1.18,1.22-.07.47-.06.95-.09,1.5A12,12,0,0,0,340.31,323.89Zm41.86,208.88a5.21,5.21,0,0,0-2.65-3.73.94.94,0,0,0-.89.09c-.29.31-.68.84-.59,1.15a4.53,4.53,0,0,0,3.15,3.27,1.28,1.28,0,0,0,.46-.08C381.84,533.24,382.2,533,382.17,532.77Zm21.44-15.68c.14-1.19-.68-2-1.26-2.89-.74-1.14-1.66-1.49-2.19-.89-.77.87-.39,1.71.13,2.52a4.74,4.74,0,0,0,2.18,2.08C403.18,517.87,403.55,517.6,403.61,517.09ZM373,544.51c-.61,0-1.27-.13-1.53.65s.84,1.9,1.67,1.85a9.09,9.09,0,0,0,4.93-2.08ZM254.78,512.13a6.23,6.23,0,0,0-2.45,3.82.81.81,0,0,0,.78,1c1.43-.09,3.28-2.5,3.11-4a2.28,2.28,0,0,0-.45-.9C255.08,512.08,254.88,512.05,254.78,512.13ZM422.85,393.8c1.19.7,3.8-.1,4.36-1.38a.84.84,0,0,0-.22-.8,3.49,3.49,0,0,0-4.48.93c-.12.22,0,.59.06.89C422.66,393.56,422.73,393.73,422.85,393.8Zm17.61,22a.82.82,0,0,0,.21,1.25c1.26.69,3.58-.17,4-1.49.14-.48-.27-.85-.83-1.05A3.81,3.81,0,0,0,440.46,415.8ZM381.22,541.29a.9.9,0,0,0,.45-.72,1.29,1.29,0,0,0-.44-.81,1.81,1.81,0,0,0-1.75-.53,5.52,5.52,0,0,0-3.49,2A12.84,12.84,0,0,0,381.22,541.29ZM225.15,384.64a.88.88,0,0,0,0,.85,1.11,1.11,0,0,0,.82.39c2.12,0,2.49-.4,3.23-3.77A8.82,8.82,0,0,0,225.15,384.64ZM432.31,391a4.89,4.89,0,0,0,3.89-1,.92.92,0,0,0,.17-.82,1,1,0,0,0-.65-.54,4.42,4.42,0,0,0-3.79,1.27c-.09.08-.08.28-.12.43C432,390.52,432.11,391,432.31,391ZM240,516.34c.18,0,.55-.32.59-.54a4.75,4.75,0,0,0-.71-3.13.84.84,0,0,0-1.14-.46,4.36,4.36,0,0,0-.91.84C237.62,514.41,238.84,516.21,240,516.34Zm176.94-1.56c.11.23.48.54.66.5a3.24,3.24,0,0,0,1.88-3,1.32,1.32,0,0,0-1.32-1.15,1,1,0,0,0-1,.84c-.16.61-.24,1.24-.32,1.71A3.71,3.71,0,0,0,416.9,514.78ZM407.26,525c.18.12.58,0,.85-.15a.52.52,0,0,0,.24-.38,3.22,3.22,0,0,0-2.18-3.3c-.49-.13-.85.29-1,.86A4.39,4.39,0,0,0,407.26,525Zm-159.33-.9a1,1,0,0,0,.81-.3c.74-.95,2-1.65,1.61-3.15a.87.87,0,0,0-.76-.37,4,4,0,0,0-2.35,3.21C247.5,523.75,247.69,524.07,247.93,524.11Zm-3.1-6c.14.39.47,1,.77,1,.73.08,1-.62,1.15-1.2a2.49,2.49,0,0,0-1.7-2.9c-.18-.06-.49.26-.9.48C244.37,516.36,244.54,517.27,244.83,518.14Zm142.26,21.1a3.47,3.47,0,0,0-1.93-2.5,1,1,0,0,0-.84.17.91.91,0,0,0-.26.8,3.36,3.36,0,0,0,2.16,2.31c.13.05.31,0,.46,0C386.83,539.74,387.14,539.44,387.09,539.24Zm-22.11-66c.75,1,1.52,1.95,2.51,3.21-.6-2.67-.62-2.66-3.48-4.69C364.33,472.24,364.63,472.75,365,473.22Zm-86.72-41.59a4.33,4.33,0,0,0,1.34.11c-.31-1.31-1.44-1.05-2.19-1.36s-1.77-.53-3.79-1.1C275.51,431.05,277,431.06,278.26,431.63Zm5.89-17.74c.65.33,1.89.91,2,.54.18-1.24-1.08-.87-1.82-1.05-.1,0-.24.12-.37.19C284,413.68,284.05,413.84,284.15,413.89Zm66.49,69.73c.1-.4-.69-1.34-1.08-1.28a.44.44,0,0,0-.29.26c-.1.4.7,1.32,1.09,1.29C350.45,483.8,350.62,483.73,350.64,483.62Z"/><path d="M352.46,475.22a23.83,23.83,0,0,1-4.28.23c-4.35-.54-7.76-4.64-7.26-8.69a7.46,7.46,0,0,1,4.92-6.56c3-1.07,6.05-.94,8.53,1.41s3.37,5,2.25,8.27c-.42,1.2-.9,2.39-1.35,3.58Zm-8.19-7.42a4.85,4.85,0,0,0,4.74,4.44,5,5,0,0,0,4.74-5,4.92,4.92,0,0,0-4.7-4.51A5.29,5.29,0,0,0,344.27,467.8Z"/><path d="M1465.84,447.63a25.37,25.37,0,0,1,25.53-25.21c12,.06,25.26,8.79,25.26,25.42a24.74,24.74,0,0,1-25.48,25.06C1478.12,473.45,1465.7,462.1,1465.84,447.63Zm47.43.2c.18-13.26-11.44-22.41-22.21-22.23-9.73.17-21.71,7.62-21.88,22.07-.14,12.6,10.39,22.63,22.23,22C1501.49,470.23,1513.07,462.21,1513.27,447.83Z"/><path d="M1465.93,482.18c-.78-1.2-1.64-2.35-2.31-3.6a6.61,6.61,0,0,1-.62-4.18,8.09,8.09,0,0,1,16.06,1.83,8,8,0,0,1-8.61,7.17,18.54,18.54,0,0,1-4.58-1.27Zm9.48-6.61a4.27,4.27,0,0,0-4.25-4.68,4.82,4.82,0,0,0-4.88,4.75A4.56,4.56,0,0,0,1471,480,4.22,4.22,0,0,0,1475.41,475.57Z"/><path d="M1500.07,413.85a8.05,8.05,0,1,1-7.94-8.4A8.18,8.18,0,0,1,1500.07,413.85Zm-12.76-.35a5.06,5.06,0,0,0,4.85,4.84c2.23-.08,4.29-2.4,4.31-4.84a4.6,4.6,0,0,0-4.26-4.79A5,5,0,0,0,1487.31,413.5Z"/><path d="M1523.78,427.42a8.52,8.52,0,0,1,8.33,8.23,8.12,8.12,0,0,1-16.23-.06A8.55,8.55,0,0,1,1523.78,427.42Zm-4.58,8.27a5.27,5.27,0,0,0,4.57,4.7,5.2,5.2,0,0,0,5-4.74,4.79,4.79,0,1,0-9.58,0Z"/><path d="M1516.79,483.09a36.52,36.52,0,0,1-4.3.28,7.77,7.77,0,0,1-7.36-6.39,8,8,0,0,1,4.55-8.69,7.93,7.93,0,0,1,9.92,11.63,34.77,34.77,0,0,1-2.87,3.22Zm.75-7.58a4.26,4.26,0,0,0-4.37-4.61,4.54,4.54,0,0,0-4.74,4.81,4.36,4.36,0,0,0,4.68,4.34A4.25,4.25,0,0,0,1517.54,475.51Z"/><path d="M352.63,439.5A25.64,25.64,0,0,1,327,465.08c-13.93-.05-25-11.89-25.06-25.07-.05-15.91,13.71-26.12,25.08-25.37C340.43,413.83,352.56,425.6,352.63,439.5Zm-47.39.07a22,22,0,1,0,44.05.18c.06-10.79-9-22.32-22-21.89C314.92,417.35,305.23,428.38,305.24,439.57Z"/><path d="M328.16,397.49a8.07,8.07,0,0,1,7.9,8,8.09,8.09,0,0,1-16.18-.3A8.4,8.4,0,0,1,328.16,397.49ZM327.94,410a4.46,4.46,0,0,0,4.77-4.73,4.85,4.85,0,0,0-4.74-4.43,4.58,4.58,0,0,0,0,9.16Z"/><path d="M302.41,474.5a28.84,28.84,0,0,1-2.34-3,8.06,8.06,0,0,1,1.26-9.66,8.31,8.31,0,0,1,10.12-.95A8,8,0,0,1,306,475.47a28.18,28.18,0,0,1-3.67-1Zm4.32-2.3a4.76,4.76,0,0,0,4.91-4.66,5,5,0,0,0-4.31-4.87c-2.44-.19-4.76,2.11-4.83,4.78A4.45,4.45,0,0,0,306.73,472.2Z"/><path d="M352.05,427.6a7.94,7.94,0,1,1,15.88,0,7.94,7.94,0,0,1-15.88,0Zm12.5.19a4.46,4.46,0,0,0-4.14-4.89,4.58,4.58,0,0,0-5,4.6,4.57,4.57,0,0,0,9.12.29Z"/></g></g></svg>