<svg xmlns="http://www.w3.org/2000/svg" viewBox="0 0 1035.16 677"><title>coupe_back</title><g id="Capa_2" data-name="Capa 2"><g id="Capa_1-2" data-name="Capa 1"><path d="M129.19,173.49a16.74,16.74,0,0,0-4.29.69,115.57,115.57,0,0,1-24.39,2.27c-11.48-.31-22.64-2.19-32.93-7.76A49.12,49.12,0,0,1,54.92,159c-4.93-5.31-6.8-12.6-3.13-20a30.94,30.94,0,0,1,5.54-7.81,47.93,47.93,0,0,1,16-10.86c8.75-3.67,17.74-6.49,27.2-7.38,10.85-1,21.49-.11,31.56,4.64a21.39,21.39,0,0,1,7.83,6.26,53.43,53.43,0,0,1,8.31,15.45,6.11,6.11,0,0,0,1.27,2.77c.62-1,1.2-1.85,1.73-2.75Q162.3,120.58,172,101.12a250.66,250.66,0,0,1,34.11-51.83,114.85,114.85,0,0,1,22.61-20.63,40.51,40.51,0,0,1,9.52-4.74A405.75,405.75,0,0,1,292.69,9.69c12-2.36,24-4.24,36.08-5.73,7.85-1,15.73-1.67,23.61-2.37C368.53.15,384.7,0,400.9,0q123.48.08,247,0c8.19,0,16.37.21,24.53.76,17.21,1.15,34.36,2.92,51.41,5.59a475,475,0,0,1,57.83,12.57c5.56,1.6,11,3.5,16.53,5.26A35.52,35.52,0,0,1,807.38,29c10.91,7.48,19.83,17,28,27.32a262.73,262.73,0,0,1,29.18,46.5c6.18,12.54,13,24.75,20.11,36.75.44.74.66,1.67,1.66,2.12.84-.63.92-1.66,1.25-2.53a55.47,55.47,0,0,1,7.86-14.79,21.12,21.12,0,0,1,8.4-6.8,57.29,57.29,0,0,1,20.91-4.84c15.25-.53,29.45,3.35,42.87,10.23A37.92,37.92,0,0,1,983,137.29c4.58,7.65,3.48,15.89-2.72,22.24-8.33,8.54-18.64,13.19-30.17,15.4a82.44,82.44,0,0,1-19.38,1.51,128.88,128.88,0,0,1-22.47-2.78,2.37,2.37,0,0,0-1.58-.1c-.4.74.28,1.12.6,1.57a101,101,0,0,0,31.11,28.42A109.71,109.71,0,0,0,966,215.44c5,1.38,9,4.57,12.74,8a51,51,0,0,1,11.36,16.35,78.31,78.31,0,0,1,6.61,23.81,13.6,13.6,0,0,0,.54,2.61,165.42,165.42,0,0,0,25.19,49.48,20.61,20.61,0,0,1,2.66,5.2c2.83,7.36,4.21,15.05,5.23,22.84,1,7.51,1,15.08,1.38,22.62a54.65,54.65,0,0,1-.26,6.13c-.32,5.61.48,11.2.43,16.8-.08,7.48.13,15-.14,22.43-.28,8-.49,16-1.28,24a8.81,8.81,0,0,0,.36,3.42,95.34,95.34,0,0,1,3.84,26.3c.55,50.28.51,100.56.45,150.84,0,9.52,0,19-.54,28.55-.67,12.41-6.38,21.67-17.51,27.33A43.88,43.88,0,0,1,997,677q-39.64,0-79.3,0A56.56,56.56,0,0,1,891,670.51a43.3,43.3,0,0,1-14.52-11.94,7.48,7.48,0,0,1-1.68-4.92c0-2.4,0-4.81-.1-7.21s-.24-2.7-2.58-2.58c-5.51.27-11,.65-16.51,1a3.25,3.25,0,0,0-2,.74c-3,2.44-6.5,3.65-10.1,4.66a149.53,149.53,0,0,1-24.4,4.32c-10.61,1.13-21.25,1.78-31.92,2.26-6.35.29-12.62.35-18.83-1a60,60,0,0,1-25.31-12.67,72,72,0,0,1-11.74-12,4.32,4.32,0,0,0-3.84-1.86c-8.37.11-16.74-.1-25.1.25-10.49.43-21,.14-31.49.49-12.63.42-25.27.18-37.89.59-10.33.33-20.65.13-31,.47-12.63.43-25.28.19-37.9.59-10.86.36-21.71.21-32.56.48-6.76.16-13.51.71-20.27.29-8.72-.53-17.44-.16-26.15-.45-14.5-.48-29-.22-43.51-.67-10.14-.32-20.29-.08-30.42-.45-12.81-.46-25.63-.16-38.43-.61-10.95-.39-21.89-.07-32.83-.49-10.41-.41-20.82-.26-31.22-.49a5.26,5.26,0,0,0-4.75,2.22,69.7,69.7,0,0,1-25.81,20.64,55.56,55.56,0,0,1-28.37,4.72c-1-.08-1.95-.16-2.93-.18-9.87-.2-19.7-1-29.52-2.06a158.58,158.58,0,0,1-24.68-4.24c-3.8-1-7.49-2.3-10.63-4.79a3.48,3.48,0,0,0-2-.77c-5.68-.33-11.36-.71-17-1-2.41-.12-2.58.11-2.64,2.51a52.45,52.45,0,0,0-.05,6.14c.31,3.43-1.26,6-3.47,8.3-7.64,8.16-17.12,12.88-28,15.05A60.31,60.31,0,0,1,117,677q-39.37,0-78.75,0a43.65,43.65,0,0,1-20.78-5.16C6.48,665.94,1.09,656.46.57,644.1,0,629.25,0,614.38,0,599.52c0-32.3-.08-64.61.22-96.91.14-14.06,0-28.12.4-42.17a74.1,74.1,0,0,1,3.7-21,13.86,13.86,0,0,0,.69-6c-.39-3.35-.48-6.74-.63-10.12-.56-12.36-1-24.73-.46-37.09.39-9.08.05-18.15.34-27.22a138.17,138.17,0,0,1,4.16-31.41,44.35,44.35,0,0,1,7-14.85,160.33,160.33,0,0,0,23-46.43c.93-2.94,1-6.13,1.63-9.17,2.08-10,5.55-19.5,11.73-27.82a44,44,0,0,1,12.72-11.63,25.29,25.29,0,0,1,5.86-2.5c23.29-6.94,42.77-19.49,57.4-39.13A5.13,5.13,0,0,0,129.19,173.49ZM969.86,662.92c2.55-.69,5.07-1.5,7.78-1.24.69.06,1.58,0,1.52-1s-.94-.92-1.63-1a14.72,14.72,0,0,0-5.73.72,2.47,2.47,0,0,0-1.93,2.48c-2.91.25-5.8.38-8.59-.71-.52-.2-1.09-.16-1.29.5a.86.86,0,0,0,.55,1.07,14.55,14.55,0,0,0,5.6,1.32c1.39,0,2-1,2.81-1.67A5.75,5.75,0,0,1,969.86,662.92ZM65.24,652.22c2.53-.35,5.13.18,7.62-.86,2.32-1,2.65-1.26,2.56-3.67-.07-2.07-.44-2.42-2.38-1.8a17.2,17.2,0,0,1-6.05.55c-.89,0-1.66-.35-1.72-1.31-.11-1.58-1.23-2-2.43-2.39a14.42,14.42,0,0,0-5.26-.57c-1.35,0-1.92.72-1.91,2,0,.53,0,1.07,0,1.6.12,1.68.35,2,2.11,2a15.82,15.82,0,0,1,5.19,1c2.53.86,2.54.83,2.29,3.49-.92,1.18-2,.79-3.15.38a11.21,11.21,0,0,0-4.69-.83c-1,.08-1.67.49-1.72,1.6s.34,1.92,1.59,2c.45,0,.89,0,1.33.06,3.18.26,6.38.47,8.67,3.19a1.72,1.72,0,0,0,1.24.39,11.91,11.91,0,0,0,5.91-1.38,1.37,1.37,0,0,0,.78-1.78c-.31-.94-1.07-.76-1.78-.52a13.36,13.36,0,0,1-4.44.75C65.2,656.08,65.13,656.05,65.24,652.22ZM517.65,4H404.71c-14.94,0-29.88-.15-44.81,1-7.26.58-14.54,1.07-21.78,1.86-13.26,1.44-26.46,3.31-39.58,5.74a405,405,0,0,0-60.15,15.47,28.23,28.23,0,0,0-6,2.92c-10,6.43-18.25,14.77-25.76,23.85a258.57,258.57,0,0,0-31.36,48.56c-2.57,5.08-5.09,10.19-7.78,15.21-9.16,17.11-19.2,33.71-29.89,49.91-4.17,6.31-8.28,12.65-13.45,18.23A113.74,113.74,0,0,1,71.34,219.1a20.06,20.06,0,0,0-4.65,2,41.05,41.05,0,0,0-13.85,13.82,5.5,5.5,0,0,0-.88,3.54c.19,2.39.4,4.79.56,7.18A181.1,181.1,0,0,0,55,266a137.53,137.53,0,0,0,6.55,23.63c1.86,4.94,1.73,9.51-2.17,13.88A73.65,73.65,0,0,0,48,320.89a18.54,18.54,0,0,0-1.83,6.1,90.29,90.29,0,0,0-.64,9.58c0,6.68,0,13.35.51,20,.45,6.48.7,13,1.26,19.43.94,11.08,2.06,22.14,3.1,33.2.23,2.5.46,2.86,2.92,3.39q12.64,2.73,25.47,4.52c9.77,1.39,19.57,2.49,29.4,3.39,8.67.78,17.37,1.36,26.06,1.87,7.9.46,15.81.76,23.72,1.06,11,.42,22,.65,33.06,1.11,6.49.27,13,.21,19.48.47,9.51.38,19,.2,28.55.58,6.31.25,12.63.1,19,.13,3.62,0,3.64,0,2.92-3.52-5.79-28.25-12.13-56.36-20.15-84.07-3.39-11.71-7-23.37-11.92-34.54-10.34-23.35-20.86-46.61-31.17-70-3.95-9-4.68-18.25-1.3-27.58a28.68,28.68,0,0,1,14.39-16.45c2.57-1.29,2.62-1.19,2.06-3.94,0-.26-.12-.52-.19-.78a218.48,218.48,0,0,1-4.86-32.69c-.76-9.23-.76-18.49-.66-27.74a125,125,0,0,1,2.17-21.75c1.73-9.12,4.71-17.69,10.92-24.87,4-4.61,8.25-8.81,13.79-11.56a99.56,99.56,0,0,1,19-6.93c19.33-5.14,39.13-7.24,59-9,8.07-.73,16.17-.62,24.25-.94,11.82-.47,23.65-.72,35.48-1.06,14-.41,27.92-.63,41.88-1.14,6.48-.24,13-.12,19.47-.45,8.53-.43,17.08-.18,25.61-.58s16.9-.32,25.35-.45c24-.35,48.05-.6,72.07.2,9.6.32,19.22.08,28.82.55,7.28.36,14.58.27,21.88.48,14.22.41,28.45.73,42.68,1.11,12.27.33,24.54.7,36.81,1,7.91.22,15.82.61,23.74.63,4.81,0,9.6.31,14.38.71,11.87,1,23.73,2.17,35.48,4.15,10.62,1.79,21.18,3.86,31.38,7.42,7.24,2.53,14.19,5.52,19.78,11.18s10,11.54,12.48,19A100.92,100.92,0,0,1,828.4,121a254,254,0,0,1-.56,31.21,213.92,213.92,0,0,1-2.6,21.71c-.77,4-1.63,8-2.46,12-.5,2.42-.53,2.48,1.65,3.41a23.63,23.63,0,0,1,7,4.8c10.74,10.16,12.5,25.36,7,38.26-8.71,20.46-17.91,40.72-27.15,61a316.62,316.62,0,0,0-16,43.27c-5.65,19.4-10.46,39-14.84,58.73-2,9.2-4,18.44-5.9,27.66-.54,2.62-.42,2.68,2.28,2.71h1.06c8.45-.18,16.9-.16,25.35-.35,17.17-.37,34.33-.71,51.49-1.24,8.8-.27,17.6-.63,26.4-1,11.37-.43,22.74-.95,34.1-1.7q10.77-.71,21.52-1.83,13.51-1.39,27-3.57,9.62-1.57,19.14-3.58c1.4-.3,2.2-.87,2.34-2.4.47-5.22,1.12-10.43,1.56-15.66.83-9.83,1.71-19.66,2.38-29.52.72-10.74,1.14-21.49.87-32.26a30.29,30.29,0,0,0-4.23-15.5,111.31,111.31,0,0,0-10.35-14.88,10.06,10.06,0,0,1-2.24-8.94,24.06,24.06,0,0,1,1.27-4.63c6.29-16.22,8.23-33.25,9.26-50.44a5.57,5.57,0,0,0-.93-3.54,44.41,44.41,0,0,0-7.28-8.83c-3.07-2.72-6.22-5.45-10.28-6.53a114,114,0,0,1-25.15-10.25,109.11,109.11,0,0,1-32-26.27c-4.22-5.1-7.64-10.72-11.27-16.22a564,564,0,0,1-35.07-60.46A281.09,281.09,0,0,0,839,67.89c-8.12-11.43-17.06-22.14-27.9-31.12-4-3.29-8-6.54-13-8.32q-11.55-4.15-23.42-7.33a489,489,0,0,0-62-12.35Q692.3,6,671.67,4.73C663.06,4.19,654.43,4,645.8,4Q581.72,4,517.65,4ZM8.28,402.19a1.9,1.9,0,0,0-.45,1.51c.65,13.5.7,27,1.89,40.49.59,6.64,1.25,13.27,1.93,19.89.92,8.92,2.24,17.81,3.52,26.69,1,7,2.28,14,3.37,21.07a3.34,3.34,0,0,0,3,3.14c3.39.7,6.75,1.61,10.1,2.5a121.23,121.23,0,0,1,20.65,7.15c4,1.91,8.06,3.94,9.81,8.52a1.55,1.55,0,0,0,1.49.93c1.77.17,3.54.4,5.31.52,3.72.24,7.45.39,11.17.64,7.36.49,14.72.91,22.06,1.59,3.28.3,6.57.35,9.84.6,5.94.46,11.86,1,17.8,1.42,6.56.46,13.12.78,19.68,1.19q11.85.75,23.68,1.55c5.94.39,11.89.77,17.83,1.2,8.68.63,17.37,1.32,26.06,1.93,6.47.45,13,.7,19.42,1.27,2.93.26,5.86.33,8.79.56q9.44.76,18.88,1.4c6.38.44,12.77.8,19.16,1.24,9,.62,18.08,1.44,27.13,1.9,10.21.52,20.44.85,30.67,1.06,11.47.24,22.95.44,34.42.53,61.41.48,122.81.17,184.22.22,37.37,0,74.75.23,112.12-.49,15.21-.3,30.41-.43,45.62-1.09,6.84-.29,13.67-.58,20.5-1.11,10.19-.78,20.4-1.44,30.59-2.14l30.86-2.14q15.57-1.08,31.13-2.15c9-.6,17.93-1.08,26.88-1.77,3-.23,6-.29,9-.61,7.35-.77,14.73-.83,22.09-1.41,3.54-.28,7.1-.43,10.63-.72,7.17-.58,14.37-.79,21.53-1.49,3.28-.32,6.56-.41,9.84-.63,6.2-.43,12.39-1.15,18.6-1.4,7.55-.3,15.05-1.23,22.59-1.65a2,2,0,0,0,2.08-1.31c1.08-2.94,3.42-4.69,6-6.25a58.23,58.23,0,0,1,10.68-4.82,208.45,208.45,0,0,1,23.85-6.82c2.18-.5,2.24-.53,2.58-2.73a32.15,32.15,0,0,1,.45-3.43c1.62-5.86,2.13-11.91,3.07-17.87,1.72-10.9,3.07-21.84,4.16-32.82,1-9.92,1.73-19.84,2.39-29.78.48-7.28.34-14.59.89-21.86a28.47,28.47,0,0,0,0-3.2c0-.86-.51-1.08-1.26-.77-.41.17-.81.38-1.21.57a122.32,122.32,0,0,1-16.3,6.58c-8.73,2.75-17.54,5.14-26.5,7-21.27,4.5-42.8,7-64.44,8.69-9.13.72-18.28,1.15-27.42,1.59s-18.31.77-27.46,1.07c-12.18.4-24.36.88-36.54,1-15.4.18-30.78.82-46.18.72-1.42,0-2.84,0-4.27,0-3.17,0-3.16,0-4,2.94-3.73,12.35-7.53,24.68-11.18,37.05-2.95,10-6,19.89-8.29,30.07-4.23,18.83-15.67,31.77-33.82,38.61a73.87,73.87,0,0,1-20.27,4.41,69.28,69.28,0,0,1-14.11.2c-6.81-.85-13.68-.63-20.52-.63q-147.24,0-294.48,0c-6.23,0-12.45.06-18.66.61a81.75,81.75,0,0,1-26.45-2.26c-9.58-2.29-18.33-6.34-25.68-13a51.5,51.5,0,0,1-15.72-27.34c-1.59-7-3.21-14-5.41-20.91-1.3-4.07-2.49-8.17-3.73-12.26q-5.28-17.49-10.57-35c-.73-2.38-.79-2.42-3.11-2.45-10.76-.13-21.53,0-32.29-.48-7.91-.36-15.83-.23-23.74-.48-12.36-.39-24.72-.67-37.08-1.12q-13.06-.48-26.12-1.05c-9-.38-17.93-.95-26.89-1.62-8.15-.61-16.3-1.38-24.41-2.38a380.57,380.57,0,0,1-42.55-7.33c-12.9-3.08-25.67-6.55-37.57-12.62A9.7,9.7,0,0,0,8.28,402.19Zm878,182c3.65.18,6.26-.25,8.8.25a121.37,121.37,0,0,1,27,8.19,42.54,42.54,0,0,1,13.24,8.85c3.92,4,6.31,8.76,5.8,14.64a15.35,15.35,0,0,1-3.37,8.55c-1,1.22-.06,2,.15,2.86s1.21.55,1.83.47a38.68,38.68,0,0,0,9-2.22c12-4.44,21.27-12.73,30-21.76a9.27,9.27,0,0,0,1-1.57,14.34,14.34,0,0,1,3.55-4.27,7.07,7.07,0,0,0,1.75-2c3.12-4.77,6-9.69,8.7-14.69A224.19,224.19,0,0,0,1009,545.15c.2-.6.4-1.19.54-1.79.26-1.08-.25-1.53-1.29-1.37-5.58.83-11.19.26-16.79.39a77.6,77.6,0,0,1-8.74-.83,10.83,10.83,0,0,1-6.47-2.83,2.88,2.88,0,0,0-2.17-.83c-5.41.31-10.84.43-16.23.9-2.58.23-5.15.29-7.72.48-6.2.48-12.39,1-18.59,1.47s-12.61.64-18.88,1.22c-2.93.28-5.86.31-8.78.56-3.72.32-7.43.65-11.15.9-3.9.26-7.83.26-11.71.7-2.66.3-5.33.19-8,.54-8.39,1.09-16.84,1.31-25.25,2-6,.47-12.07.8-18.1,1.22-6.65.47-13.29,1-19.94,1.45-6.12.42-12.25.78-18.37,1.2-7.18.49-14.36,1-21.54,1.51-5.77.4-11.54.76-17.3,1.17-9,.63-17.9,1.43-26.86,1.89-9.86.51-19.73.79-29.6,1-10.67.28-21.35.29-32,.52-21.88.47-43.77.12-65.66.43-18.24.26-36.48.11-54.72-.12-19.13-.24-38.26-.16-57.39.11-18.5.26-37,.13-55.52-.12-25.89-.35-51.79-.06-77.68-.63q-17.74-.39-35.47-1c-11.74-.4-23.43-1.37-35.14-2.16-10.29-.69-20.58-1.36-30.86-2.14s-20.75-1.45-31.12-2.17c-10.11-.7-20.22-1.5-30.33-2.1-11.89-.69-23.76-1.66-35.62-2.67-8.23-.7-16.49-1.13-24.73-1.67-8.78-.56-17.57-1-26.33-1.73-2.84-.23-5.69-.24-8.51-.54-7.07-.75-14.18-1-21.27-1.51-3.63-.26-7.26-.5-10.88-.87a4.07,4.07,0,0,0-3.43,1A8.91,8.91,0,0,1,55,541.18a71.24,71.24,0,0,1-9.52,1.13,163.86,163.86,0,0,1-18.14-.18c-1.21-.11-1.37.36-1.14,1.38a46,46,0,0,0,1.6,5.65,257.91,257.91,0,0,0,9.89,24.2c6.66,14.08,14.52,27.31,26.25,37.91,7.77,7,16.3,12.63,26.37,15.72a21.25,21.25,0,0,0,6,1.1c2,0,2.47-.61,1.79-2.39a38.57,38.57,0,0,0-1.81-3.57c-3.39-6.75-2.22-13,2.43-18.63a37.12,37.12,0,0,1,11.64-9.21c8.12-4.24,16.83-6.72,25.65-8.9a45.9,45.9,0,0,1,11.1-1.14c4.46,0,8.87.72,13.32.56,2.31-.08,4.63,0,6.94,0,12.73.07,25.44.54,38.15,1,6.84.26,13.69.28,20.54.48,13.78.41,27.57.63,41.35,1.14,6.48.25,13,.28,19.47.47,13.78.4,27.57.62,41.35,1.14,6.48.24,13,.27,19.47.46,13.87.4,27.74.62,41.61,1.14,6.4.24,12.81.27,19.21.46,14,.4,27.92.63,41.88,1.15,6.31.23,12.63.27,18.94.45q21.08.59,42.15,1.12c13,.33,26-.5,38.94-.82,14.58-.35,29.17-.65,43.75-1.15,5.87-.2,11.74-.25,17.6-.43,13.61-.41,27.22-.59,40.82-1.13,6.66-.26,13.33-.25,20-.46,13.69-.45,27.39-.61,41.08-1.14,6.58-.26,13.16-.25,19.74-.46,13.78-.45,27.57-.61,41.35-1.15,6.49-.25,13-.24,19.47-.45,13.78-.45,27.57-.61,41.35-1.15,6.48-.26,13-.18,19.47-.46C865.86,584.53,876.63,585,886.31,584.22ZM650.73,251.55v.17q31.63,0,63.27,0c17.08,0,34.16.17,51.25.38a75,75,0,0,0,19.49-2.74c11.26-2.87,18.87-9.9,23.49-20.37,5-11.37,8.06-23.36,11-35.38a1.83,1.83,0,0,0-1.43-2.56,93.59,93.59,0,0,0-12.68-3.15,4,4,0,0,0-3.6,1.22,41,41,0,0,1-16.23,9.46c-3.41,1-6.87,1.85-10.35,2.56-9.61,2-19.39,2.52-29.15,3.08s-19.55.82-29.33,1c-7.82.17-15.65.05-23.48-.24-11.2-.42-22.41-.12-33.62-.56-10.49-.41-21-.11-31.49-.52-11-.43-22.06-.12-33.09-.55-10.48-.41-21-.11-31.49-.51-11.28-.43-22.59-.2-33.89-.54-9.77-.3-19.56-.21-29.35.21-11.29.47-22.59.09-33.89.56-10.49.44-21,.07-31.49.52-11,.46-22.06.08-33.09.55-10.49.44-21,.09-31.49.51-11.55.45-23.12.19-34.69.56-13,.42-26-.28-38.94-.8-9.78-.39-19.53-1-29.24-2.22a104.49,104.49,0,0,1-17.93-4,40.14,40.14,0,0,1-15-9,4.2,4.2,0,0,0-3.84-1.27,89.39,89.39,0,0,0-11.4,2.79c-2.72.89-2.95,1.26-2.25,4.07,1.15,4.66,2.29,9.33,3.61,13.95,2.26,7.87,4.52,15.76,8.47,23,2.56,4.7,5.55,9.12,10.12,12.2a38.4,38.4,0,0,0,8.81,4.4,72.25,72.25,0,0,0,21.2,3.75c6.67.28,13.34-.22,20-.26,73.32-.41,146.65.15,220-.57,9.16-.09,18.32.19,27.48.23C574.55,251.65,612.64,251.55,650.73,251.55Zm-132.49-202c-11.92.13-23.84-.2-35.76.28-10.57.42-21.17.15-31.75.63-6.75.3-13.51.23-20.27.43-14.67.44-29.35.64-44,1.18-5.78.22-11.56.24-17.34.43-12.71.43-25.42.78-38.14,1.12-9.51.25-19,.72-28.48,1.64-9.91,1-19.79,2.15-29.6,3.86a169.75,169.75,0,0,0-28.45,7.06c-6.39,2.29-12.44,5.1-17.36,10.1a29.66,29.66,0,0,0-7,10.56,64.31,64.31,0,0,0-3.57,19.35,209.32,209.32,0,0,0,3.53,47A63.86,63.86,0,0,0,230,178c5.28,7.79,12.11,13.77,21.24,16.6a96.42,96.42,0,0,0,12.68,3.08,233.9,233.9,0,0,0,26,2.52c10.65.59,21.33.84,32,1.09,6,.15,12.09,0,18.14-.25,11.11-.43,22.23-.08,33.35-.56,10.49-.44,21-.21,31.49-.49,19.12-.49,38.25-.55,57.37-.79,1.07,0,2.14,0,3.21-.07,13.05-.92,26.13-.38,39.2-.89,11.34-.44,22.75-.31,34.14.3s22.94.18,34.42.61c10,.39,20.1.13,30.15.49,11.64.42,23.3.16,34.95.59,10.05.37,20.1.13,30.16.48,11.55.41,23.12.12,34.69.59,5.5.22,11-.14,16.53-.24,11.3-.22,22.58-.65,33.86-1.35,4.34-.27,8.66-.85,13-1.3a121.35,121.35,0,0,0,14.12-2.74,38.63,38.63,0,0,0,19.53-10.87c7.65-7.75,12.28-17.26,14.64-27.74a184.35,184.35,0,0,0,4.4-36,138.81,138.81,0,0,0-1.13-25C816,82.84,809,73.57,796.7,68.32c-1.88-.8-3.79-1.55-5.71-2.24a171,171,0,0,0-27.93-6.95c-8.23-1.45-16.52-2.48-24.83-3.4-7.24-.8-14.51-1.37-21.78-1.86-5.76-.38-11.55-.32-17.33-.51-12.44-.4-24.89-.63-37.34-1.13-6.39-.25-12.8-.28-19.2-.47-14.14-.42-28.28-.63-42.41-1.13-7.65-.27-15.3-.16-22.95-.47-10-.41-19.92-.25-29.88-.55C537.65,49.31,527.94,49.54,518.24,49.54ZM510,426.15h0q111.74,0,223.46,0c11.21,0,22.42-.45,33.63-.4h.53c2.06-.1,2.25-.24,2.74-2.17.11-.43.16-.88.24-1.31,6-29.12,12.47-58.11,20.82-86.65,3.25-11.1,6.66-22.17,11.33-32.77,9.58-21.74,19.31-43.41,29-65.09,2.44-5.45,4.91-10.86,5.36-16.95.67-9-1.55-16.94-8-23.41a19.39,19.39,0,0,0-5.07-3.87c-2.37-1.16-2.63-1.06-3.27,1.41-1,3.79-1.87,7.6-2.88,11.38a157.5,157.5,0,0,1-8.09,23.72,45.61,45.61,0,0,1-7.7,11.49c-4.2,4.75-9.78,7.32-15.72,9.14A86.72,86.72,0,0,1,764.5,254c-5,.23-10-.42-14.92-.42-116.85-.05-233.7-.45-350.54-.08-40.84.14-81.69-.52-122.52.51a99.89,99.89,0,0,1-13.06-.54,66.44,66.44,0,0,1-19.13-4.59,30.82,30.82,0,0,1-12.64-9.52,61.38,61.38,0,0,1-9-17.45,269.73,269.73,0,0,1-7.57-26.42c-.73-3.06-1.09-3.21-3.89-1.67a7.84,7.84,0,0,0-.69.41,26.67,26.67,0,0,0-9.5,11.3,31.44,31.44,0,0,0,.22,25.93c8.49,19.5,17.22,38.89,26,58.28a314.82,314.82,0,0,1,13.8,35c6.76,21.58,12.26,43.49,17.26,65.53,2.46,10.85,4.81,21.71,7,32.62.57,2.85.63,2.89,3.43,2.94,7.21.12,14.41.34,21.62.34Q400.13,426.18,510,426.15Zm8.15,4H370.27c-.81,0-1.61,0-2.41,0a2.81,2.81,0,0,0-2.84,2,10.75,10.75,0,0,0-.63,4.45V491c0,4.1,0,8.19,0,12.28,0,3.6,1.36,5.4,4.7,6.58a16.18,16.18,0,0,0,5.52.74l282.13,0c2,0,3.92,0,5.87,0a11.76,11.76,0,0,0,5.15-1.23,5.59,5.59,0,0,0,3.5-5.23c0-.71,0-1.43,0-2.14V436.61a24,24,0,0,0-.06-2.4c-.31-3.06-1.38-4-4.42-4.08H518.14ZM735.2,629c0,.89.47,1.19.79,1.59a67.24,67.24,0,0,0,9.26,9.22c10.74,8.9,22.93,13.94,37,13.28,5.42-.25,10.84-.41,16.26-.76,9.94-.63,19.85-1.47,29.71-2.9a91.41,91.41,0,0,0,16.9-3.8c2.44-.85,4.85-1.8,6.66-3.78a3.33,3.33,0,0,1,2.4-.95c7.53-.59,15.08-.66,22.62-1.4,6.73-.66,13.45-1.32,20.12-2.35A125.38,125.38,0,0,0,921,631.19,39.26,39.26,0,0,0,932.5,625a12.93,12.93,0,0,0,3.34-16.8c-2.17-4-5.64-6.83-9.45-9.2-6.65-4.13-14-6.43-21.49-8.61a53.11,53.11,0,0,0-18.17-2.21c-5.86.34-11.73.23-17.6.45-13.24.5-26.5.65-39.74,1.14-6,.22-12.09.24-18.14.43-14.23.43-28.46.64-42.68,1.17-6.05.23-12.1.24-18.14.43-14.41.44-28.82.66-43.22,1.18-5.86.21-11.73.14-17.6.43-8.89.43-17.79.57-26.68.67-10,.11-19.92.75-29.89.68-2.75,0-5.5.26-8.26.39a2.13,2.13,0,0,0-2,1c-1.57,2.74-4.22,4-7,5a47.23,47.23,0,0,1-8,2.06,192.48,192.48,0,0,1-32.94,2.61c-37,.08-74,0-111.06,0a234.51,234.51,0,0,1-33-2.15A53.18,53.18,0,0,1,419.37,601c-2.35-.89-4.66-2-6-4.2a3.32,3.32,0,0,0-3.06-1.63c-9.5-.61-19-.52-28.54-.84-13.51-.45-27-.74-40.55-1.09s-27.21-.6-40.81-1.11c-6.49-.24-13-.28-19.47-.46-13.7-.39-27.39-.62-41.08-1.14-6.58-.25-13.17-.29-19.75-.45-9.33-.23-18.67-.53-28-.73-11.11-.23-22.22-.7-33.33-1-4.8-.13-9.61-.14-14.41-.15a24.33,24.33,0,0,0-5.06.29c-8.62,1.86-17.14,4.12-25.14,7.93a38.91,38.91,0,0,0-12.28,8.82c-5.36,5.88-4.64,15.94,2.08,20.44A50,50,0,0,0,114.07,631a133.33,133.33,0,0,0,24.56,6.13c6.66,1.13,13.39,1.7,20.11,2.38,7.27.74,14.56.69,21.83,1.32,1.46.13,2.75.24,3.82,1.44a10.68,10.68,0,0,0,3.82,2.4,53.36,53.36,0,0,0,10.46,3.14c14.5,3,29.23,4,44,4.82,2.67.16,5.36,0,8,.28a49,49,0,0,0,16.43-1.13c12.77-3,22.91-10.29,31.52-19.92a7,7,0,0,0,2-2.81,9.24,9.24,0,0,0-1.18-.23c-7.44-.53-14.89-1.08-22.34-1.57-4.65-.3-5.43-1.25-4.51-5.83,0-.17.08-.34.12-.51,1.34-5.27,5.11-7.95,10.05-9.26,3.91-1,7.91-.81,11.92-.76,19.67.26,39.33.09,59,.55,17.52.41,35.05.13,52.58.49,20.73.42,41.46.38,62.2.57,37.37.33,74.75.54,112.12-.26,18.33-.39,36.66,0,55-.5,18.94-.5,37.9-.07,56.85-.53,14.86-.35,29.73-.18,44.59-.26,2.49,0,5-.13,7.47-.18,3.91-.09,7.84.16,11.48,1.88,4.46,2.11,7.13,5.52,7.38,10.56.16,3.13-.38,3.73-3.54,4-3.63.27-7.28.37-10.91.69C744.35,628.24,739.8,628.21,735.2,629ZM518,512.44H374.65a20.12,20.12,0,0,1-4.24-.41c-5.65-1.23-7.84-3.89-7.84-9.65q0-33.11,0-66.2c0-1,.1-2,.14-2.93s1.11-1.89.32-2.74-1.86-.36-2.82-.38c-2,0-4.1,0-6.14,0q-38.31,0-76.62-.08c-2.4,0-4.79-.24-7.19-.26-1.71,0-1.87.27-1.59,1.87.06.35.15.69.24,1,4.65,18.1,9.68,36.08,16.39,53.56a135,135,0,0,0,9.89,21c3.37,5.64,8.26,9.2,14.22,11.53a94.89,94.89,0,0,0,20.66,5.17c5.62.86,11.27,1.48,17,1.79,8.44.47,16.88,1.06,25.32.75,4.8-.18,9.6-.33,14.41-.33H646c6.31,0,12.63.3,18.94.35a287.23,287.23,0,0,0,31.16-1.37A149.54,149.54,0,0,0,722,520.31c9.62-2.74,16.77-8.27,21.06-17.42,1.74-3.7,3.58-7.36,5.15-11.14a360.72,360.72,0,0,0,13.75-41c1.74-6.17,3.32-12.38,4.91-18.58.59-2.26.42-2.46-1.94-2.42s-4.44.26-6.66.26q-41,.06-82,.08c-.89,0-1.78,0-2.67,0s-1.52.45-1.12,1.52a10.17,10.17,0,0,1,.6,3.67q0,34.17,0,68.34c0,3.77-1.89,6.21-5.23,7.59a17.6,17.6,0,0,1-6.79,1.17ZM313.68,615.06V615h-3.21c-7.65,0-15.3,0-23,0a14.21,14.21,0,0,0-7.14,1.89,7.37,7.37,0,0,0-3.34,3.69c-.86,2.19-.57,2.62,1.77,2.76q5.71.36,11.44.75c6.56.44,13.12,1.09,19.69,1.29,10.58.33,21.17.14,31.76.49,12.36.41,24.73.16,37.1.59,10.57.36,21.17.13,31.75.48,12.63.41,25.27.16,37.9.59,10.32.35,20.64.34,31,.43,15.74.14,31.48.87,47.23.36,12-.4,24-.06,36-.55,10.93-.44,21.88-.07,32.83-.49,12.17-.48,24.37-.1,36.56-.58,10.93-.43,21.88-.17,32.83-.48,17.43-.49,34.87-.53,52.31-.75,3.74,0,7.49.09,11.21-.13,9.49-.58,19-1.38,28.47-2,2.59-.16,2.66-.76,1.71-3-1.1-2.58-3.36-3.82-5.87-4.67-2.76-.93-5.62-.81-8.47-.79-20.55.16-41.11.09-61.66.55-15.75.35-31.5.14-47.25.42-27.4.48-54.81.5-82.22.76-9.52.09-19-.16-28.56.34-6.13.33-12.27-.11-18.41-.22-19-.33-38.08-.06-57.12-.54-18.15-.45-36.3-.07-54.46-.51-19.12-.47-38.26,0-57.39-.57C329.35,614.86,321.51,615.06,313.68,615.06Zm435.8-121c-.73.47-.83,1.31-1.14,2-1.66,3.65-3.5,7.19-5.43,10.71a29.71,29.71,0,0,1-16.1,13.71,91.83,91.83,0,0,1-15.67,4.3,206.59,206.59,0,0,1-23,2.78c-7.37.56-14.76.64-22.12.65-6.31,0-12.63-.22-19-.23q-130.27,0-260.56,0c-9.33,0-18.66.34-28,.1a221.27,221.27,0,0,1-31.05-2.77c-7.2-1.21-14.32-2.8-21-5.89A27,27,0,0,1,295,510.09a88.42,88.42,0,0,1-7.15-13.1l-1.39-3.07a12.17,12.17,0,0,0,.57,5.75c3.49,13.77,11,24.54,23.58,31.54a62.39,62.39,0,0,0,22,7,74.71,74.71,0,0,0,17.81.77c3.26-.32,6.55-.61,9.83-.61q157.65-.06,315.29,0a28.78,28.78,0,0,1,2.94.08,97.56,97.56,0,0,0,16.75.59A86.69,86.69,0,0,0,713,536.15a52.12,52.12,0,0,0,21.21-11.4c8.74-7.92,13.33-18.07,15.45-29.48C749.76,494.87,749.92,494.41,749.48,494ZM49.63,240.85c-.59,1.28-1.25,2.54-1.75,3.85A72.58,72.58,0,0,0,44,258c-.56,3.15-.76,6.41-1.71,9.43A164.82,164.82,0,0,1,19,314.6,43.6,43.6,0,0,0,12,330,139.29,139.29,0,0,0,8.3,359.58c-.27,9.33-.13,18.68-.22,28,0,2.4-.14,4.8-.32,7.19a3.37,3.37,0,0,0,2.16,3.58c2.94,1.47,5.89,2.93,9,4.15s3.16,1.23,3.38-2.19c.35-5.33.36-10.66.59-16,.5-12,1-24,1.64-36,.67-12.69,1.19-25.39,1.8-38.09a19.48,19.48,0,0,1,.36-2.64.82.82,0,0,1,.91-.78c.5.06.67.53.75,1a3.85,3.85,0,0,1,.05,1.07c-.47,3.27-.34,6.57-.52,9.85-.49,8.61-1,17.22-1.41,25.83-.29,5.77-.33,11.56-.75,17.32-.3,4.18-.27,8.36-.5,12.53-.49,8.7-.88,17.4-1,26.12-.06,4.06-.06,4.07,3.92,5.36q8.13,2.61,16.42,4.67c4.2,1.05,4.41.8,3.94-3.45-.71-6.36-1.38-12.73-1.91-19.11-.65-7.79-1.28-15.59-1.83-23.39-.75-10.75-1.12-21.49-.83-32.26A31.46,31.46,0,0,1,47.8,317.3a104.21,104.21,0,0,1,11-16,8.48,8.48,0,0,0,2-6.92,19.24,19.24,0,0,0-1.12-4.65c-4.74-12.3-7.23-25.08-8.51-38.15C50.83,248,50.84,244.44,49.63,240.85Zm936-.88c-.63,6.19-1.09,11.77-1.78,17.32a131.16,131.16,0,0,1-7.63,31.83A25.25,25.25,0,0,0,975,294a8.27,8.27,0,0,0,1.91,7.18A101.44,101.44,0,0,1,988.25,318a25.93,25.93,0,0,1,3.2,9.82q.39,3.72.45,7.45c.22,12.73-.49,25.42-1.51,38.11-.8,10-1.65,20-2.72,30-.22,2-.46,4.06-.56,6.1-.07,1.56.42,2,1.94,1.62a213.35,213.35,0,0,0,21-6,2.21,2.21,0,0,0,1.65-2.6c-.65-14.48-1.23-29-1.84-43.44-.39-9.33-.78-18.66-1.23-28-.22-4.61-.56-9.23-.85-13.84-.18-2.84,0-5.69-.4-8.53-.1-.69-.16-1.66.7-1.78,1.13-.16,1,1,1.21,1.69a5.35,5.35,0,0,1,.08,1.06c.09,3.29.32,6.57.5,9.86.51,9.23.77,18.48,1.31,27.71.23,3.91.3,7.82.53,11.73.7,11.54,1.08,23.09,1.49,34.65.09,2.67.17,5.33.42,8,.18,1.91.28,2,2.09,1.35,3.18-1.16,6.18-2.73,9.27-4.11,2.28-1,3.07-2.47,3-5-.27-6.13-.66-12.26-.54-18.4a223.92,223.92,0,0,0-1.08-30.64,94.48,94.48,0,0,0-4.78-21.85,17.57,17.57,0,0,0-2.28-4.79,157.61,157.61,0,0,1-19.56-33.9c-3.45-8-6.69-16-7.8-24.85A59,59,0,0,0,985.65,240ZM98.31,167.92c6.32-.07,10.77-.07,15.18-.71a51.89,51.89,0,0,0,15.6-4.32,9.07,9.07,0,0,0,3-2.12c2.92-3.43,4.77-7.23,4.6-11.89a50.73,50.73,0,0,0-.6-6.63,31.34,31.34,0,0,0-13.3-21.34,9.12,9.12,0,0,0-3.9-1.58,73.66,73.66,0,0,0-12.77-.52,74.39,74.39,0,0,0-28.66,6.53c-7.32,3.19-12.16,8.9-15.11,16.12a15.93,15.93,0,0,0,6.67,19.73,39.11,39.11,0,0,0,8.75,3.88A64.43,64.43,0,0,0,98.31,167.92Zm837.22,0a78.93,78.93,0,0,0,12.76-.67c6.25-1.06,12.34-2.52,17.91-5.75a16.12,16.12,0,0,0,6.72-21c-3.17-6.82-7.93-12.17-15-15.24A79.44,79.44,0,0,0,919.13,119c-1.91.15-3.9.27-5.61,1.45a33.74,33.74,0,0,0-6.26,5.36c-6.37,7.22-8.76,15.83-8.17,25.2a14.06,14.06,0,0,0,8.49,12.35,37.74,37.74,0,0,0,6.54,2.26A79.58,79.58,0,0,0,935.53,167.88ZM617.92,595.67a4.62,4.62,0,0,0-2.92-.36c-8.61.7-17.25.25-25.86.81-7,.45-14,.29-21.07.52-14,.46-27.91.65-41.87,1.15-7.46.27-14.93,0-22.4-.27-13.77-.41-27.55-.68-41.33-1.13-11.56-.37-23.12-.49-34.68-.74-1.15,0-2.3-.19-3.46-.2-2.09,0-4.18,0-6.59,0a7,7,0,0,0,3.17,1.83,53,53,0,0,0,13.24,2.94,251.32,251.32,0,0,0,29.54,1.68c13.08,0,26.16.08,39.23,0,28.55-.23,57.11.63,85.66-.52a123.42,123.42,0,0,0,20.1-2.33C611.8,598.38,614.94,597.71,617.92,595.67ZM41.59,671.94a1.59,1.59,0,0,0,.17-.49c-.07-13.35-.12-26.7-.23-40,0-2.16-.3-2.34-2.51-2.57-6.46-.67-12.91-1.36-19.36-2a130.55,130.55,0,0,1-12.91-2c-.7-.15-1.42-.41-2,.25-1.11,1.27-.26,4.87,1.36,5.46a27.68,27.68,0,0,0,4.1,1.14,190.55,190.55,0,0,0,20.6,2.8c2.92.25,5.84.51,8.75.9,1.43.2,1.78.87,1.61,2.22s-.68,1.75-2.19,1.63c-8.24-.69-16.47-1.45-24.64-2.75A74,74,0,0,1,6,634.8c-1-.28-1.47,0-1.55,1.12-.19,2.59.23,3.25,2.93,3.78,6.1,1.22,12.27,2,18.45,2.79,4.5.54,9,1,13.5,1.6,1.76.22,2.37,1.46,1.66,3-.54,1.21-1.6,1-2.53.86-6.45-.77-12.88-1.58-19.32-2.37-4.32-.54-8.63-1.19-12.9-2.08-.52-.11-1.09-.26-1.43.32a1.71,1.71,0,0,0,.11,1.54c.44,1.06,1.45,1.21,2.4,1.45,7.07,1.81,14.28,2.93,21.46,4.17,3.5.61,7,1.09,10.53,1.69,1.83.31,2.4,1.49,1.61,3.06-.66,1.3-1.83.92-2.82.77-5.8-.91-11.59-1.83-17.37-2.87-4.37-.79-8.71-1.76-13.07-2.64-1.8-.36-2,0-1.55,1.78S8,655,9.51,655.25a186.78,186.78,0,0,0,19.6,2.19c3.36.26,6.74.37,10.11.63,1.73.14,2.31,1.11,1.88,2.73-.34,1.3-1.35,1.23-2.33,1.21-6.41-.14-12.77-.82-19.15-1.38l-2.84-.27a60.76,60.76,0,0,0,11.34,2.92c3.66.71,7.35,1.31,11.07,1.69,1.16.12,2.09.45,2,1.9s-.54,2-2.12,2.08c-.48,0-1,0-2,0C40.85,669.63,40.85,669.63,41.59,671.94Zm81.18-553.39c1.73,1.37,3,2.3,4.22,3.37,7.88,7.1,11.4,16.11,11.54,26.58.11,8.39-3.8,14.22-11.62,17.26a36.69,36.69,0,0,1-3.8,1.25c-11.86,3.2-23.91,3.4-36,1.91A49.27,49.27,0,0,1,68.68,163a18,18,0,0,1-7.6-23.28,31.17,31.17,0,0,1,5.57-8.41,43,43,0,0,1,7.8-6.89c-6,2.07-10.73,5.83-15,10.35a23.25,23.25,0,0,0-3.84,5.42A13.7,13.7,0,0,0,58,156.5a45.26,45.26,0,0,0,3.51,3.28c9.29,7.78,20.29,11.12,32.13,12.26a94.87,94.87,0,0,0,16.77.06,133.52,133.52,0,0,0,20.76-3.39A4.41,4.41,0,0,0,134,166.8c3.94-5.93,7.8-11.91,11.53-18a3.85,3.85,0,0,0,.46-3.29,66.77,66.77,0,0,0-6.74-15.92C135.57,123.41,130,120.23,122.77,118.55Zm789.66.27a23.5,23.5,0,0,0-5.78,1.8,17.75,17.75,0,0,0-8.29,6.43c-4.05,5.45-6.55,11.57-8.47,18a5,5,0,0,0,.74,4.5c3.55,5.43,7.08,10.89,10.52,16.39a6.26,6.26,0,0,0,4.16,3,150.11,150.11,0,0,0,15.48,2.74A92.45,92.45,0,0,0,950,170.9c10.16-2,19.21-6.19,26.8-13.44,5.8-5.53,6.33-13.05,2.06-19.32a39.35,39.35,0,0,0-13.21-11.8c-1.73-1-3.61-1.75-5.87-2.82.44.59.51.77.63.84,5.81,3,10,7.7,13.16,13.25a18.27,18.27,0,0,1,2.57,12.28c-1,6.3-4.47,10.69-10,13.63-7.55,4-15.72,5.65-24.12,6.07a106.72,106.72,0,0,1-18.91-.5,59.72,59.72,0,0,1-15.74-3.9c-6.31-2.67-9.42-7.75-10.1-14.26a34.44,34.44,0,0,1,2.14-15.21A34.8,34.8,0,0,1,912.43,118.82Zm-683.61,65.3a5.58,5.58,0,0,0-1.35-2.63A73.48,73.48,0,0,1,221,170.14c-3.59-7.87-5.17-16.23-6.35-24.71q-1.65-11.76-2.31-23.62a128.26,128.26,0,0,1,.61-21.29c.27-2.44.66-4.87,1-7.3a11.59,11.59,0,0,0-1.21,3A109,109,0,0,0,209.08,122a267,267,0,0,0,2.71,48.68c.72,5,1.91,9.95,3,14.91.41,2,.66,2.09,2.54,1.47A103.93,103.93,0,0,1,228.82,184.12Zm593.26-89.4c0,.67.06,1.36.17,2a97.18,97.18,0,0,1,1.3,15.13,222.75,222.75,0,0,1-4,42.42,67.12,67.12,0,0,1-11.77,27.77c-.39.54-1,1-.75,2.09,3.34.77,6.81,1.48,10.18,2.58s3.24,1,4-2.29c3.86-16.72,5.3-33.69,5.5-50.81A157.22,157.22,0,0,0,825,105.45C824.36,101.8,823.78,98.13,822.08,94.72ZM20.14,519A131,131,0,0,0,24,536a2.73,2.73,0,0,0,2.38,2.18,45.23,45.23,0,0,0,5.29.66c7.19.15,14.38.27,21.52-1a8.09,8.09,0,0,0,4-2c1.25-1.09,1.31-2.16.33-3.51a8.94,8.94,0,0,0-2.65-2.21,46.11,46.11,0,0,0-6.64-3.39A172.19,172.19,0,0,0,23,519.07,5.3,5.3,0,0,0,20.14,519Zm995.55,0a4.18,4.18,0,0,0-2.82.1c-3.36.83-6.74,1.62-10.07,2.57-7.09,2-14.14,4.18-20.66,7.76a13.19,13.19,0,0,0-3.92,3.15c-1,1.17-.9,2,.15,3a7.41,7.41,0,0,0,4.16,2.19c7.22,1.31,14.5,1.16,21.78,1a38.3,38.3,0,0,0,4.75-.6,2.14,2.14,0,0,0,2-1.56c.84-2.89,2-5.67,2.75-8.6S1013.86,521.83,1015.69,519Zm2.65,141.42c-.76,0-1.53,0-2.3.13-6.18.7-12.38,1.15-18.6,1.46-.62,0-1.24,0-1.86,0a1.49,1.49,0,0,1-1.57-1.48c-.23-1.49.37-2.3,2-2.44,2.92-.25,5.85-.43,8.78-.59,6.13-.31,12.23-1,18.3-1.76a28.78,28.78,0,0,0,4.67-1.09c.85-.26,1.82-2.4,1.45-3.17-.57-1.18-1.54-.44-2.32-.27-7.64,1.71-15.36,3-23.07,4.3q-3.68.63-7.38,1.11c-.87.12-1.77.16-2.22-1-.69-1.7-.19-2.65,1.74-3,3.51-.58,7-1.08,10.54-1.67,6.75-1.12,13.49-2.3,20.16-3.84a19.28,19.28,0,0,0,2.8-.86,1.65,1.65,0,0,0,1-2.21c-.31-1-1.12-.62-1.8-.48-5.75,1.16-11.57,2-17.39,2.69q-7.39.93-14.83,1.7c-1.7.17-2.33-.46-2.42-2-.07-1.28.31-1.68,2-1.88,4.5-.55,9-1.05,13.5-1.6,6.18-.76,12.35-1.54,18.45-2.8,2.5-.52,2.92-1.2,2.8-3.65-.07-1.29-.67-1.47-1.74-1.19-1.38.35-2.76.72-4.15,1-9.45,1.75-19,2.65-28.57,3.48-1.09.09-1.84-.22-2.71-1.57v34.56c.62-2.62.62-2.62,4.4-3.35h-2.27c-1,0-1.43-.52-1.63-1.42-.32-1.52.18-2.26,1.88-2.53,2.63-.41,5.28-.73,7.91-1.15A78.88,78.88,0,0,0,1018.34,660.41Zm-28.72-63.77a58,58,0,0,1-4,5.69,8,8,0,0,0-1.92,5.85q.07,30.32,0,60.61c0,.62,0,1.25,0,1.87.11,2.05.45,2.34,2.66,2.33s2.55-.28,2.65-2.36c.14-3.37.31-6.75.34-10.13.1-12,.14-24,.22-36,0-1.24.07-2.49.13-3.73.39-7.74.2-15.48.23-23.22C990,597.36,989.88,597.2,989.62,596.64Zm-944-.76-.48.17c0,.88,0,1.77,0,2.65,0,5.95.23,11.91.32,17.86.25,17.68.2,35.37.63,53.05,0,.71,0,1.43.12,2.13a1.34,1.34,0,0,0,1,1.14c2.55.9,4.18-.16,4.24-2.8,0-.62,0-1.24,0-1.86V636.48q0-14.81,0-29.6c0-1.15.15-2.34-.55-3.37C49.1,601,47.33,598.42,45.58,595.88Zm-19.85,4.51c4.35,0,8.7,0,13.05,0,2.28,0,2.28,0,2.3-2.39,0-1.15,0-2.31,0-3.46-.07-2.28-.17-2.47-2.45-2.44-6.93.09-13.83-.56-20.75-.65-4-.05-8-.4-12-.62-1.76-.09-1.83-.05-1.9,1.66,0,1.15,0,2.31,0,3.46,0,3.22.13,3.35,3.38,3.77.36,0,.72,0,1.07.08C14.19,600.6,20,600.28,25.73,600.39Zm983.45,0v-.11c4.09,0,8.19.07,12.27,0a53,53,0,0,0,7.94-.87,1.87,1.87,0,0,0,1.76-2.2c-.05-1.51,0-3,0-4.53-.05-1.9-.11-1.93-2-1.82-3.46.2-6.92.47-10.38.59-7.29.25-14.57.43-21.86.63-.27,0-.53,0-.8,0a1.69,1.69,0,0,0-2,1.92c0,1.42-.05,2.85,0,4.27,0,2.06,0,2.1,2,2.11C1000.47,600.4,1004.82,600.39,1009.18,600.39ZM40.89,587.88c-1.56-3-3-5.56-4.2-8.2a3.25,3.25,0,0,0-3.56-2.08L19,578.29c-4,.19-8,.3-12,.49-2.71.13-3,.52-3,3.2,0,.62,0,1.25,0,1.87,0,2.54.36,3,2.92,3,5.06.12,10.1.76,15.17.66,2.05,0,4.09.21,6.12.28C32.28,588,36.35,587.88,40.89,587.88Zm960.52.18c3.57.18,7.09-.56,10.65-.5,5.34.1,10.65-.5,16-.66,2.74-.08,3.07-.49,3.13-3.13,0-.71,0-1.42,0-2.13-.06-2.23-.38-2.58-2.6-2.83-.61-.07-1.24-.06-1.86-.08-6-.23-12.08-.42-18.11-.7-2.22-.1-4.42-.42-6.65-.42a2.52,2.52,0,0,0-2.58,1.45c-1.28,2.54-2.66,5-3.94,7.57-.56,1.09-.37,1.37.93,1.41C998,588.09,999.72,588.06,1001.41,588.06Zm-55.71,43.7a8.26,8.26,0,0,1-5.25.61,13.55,13.55,0,0,0-2.91-.22c-3,.15-3.34.47-3.34,3.47q0,17.05,0,34.11c0,.54,0,1.07,0,1.6A1.48,1.48,0,0,0,935.9,673c2.76,0,5.51,0,8.26,0a1.4,1.4,0,0,0,1.5-1.51c0-.71,0-1.42,0-2.13V631.76Zm-856.19-.42c0,.49-.06.84-.06,1.19v37.56c0,.44,0,.89,0,1.33A1.39,1.39,0,0,0,91,672.94c2.76,0,5.51,0,8.26,0,1.24,0,1.73-.71,1.73-1.87,0-.53,0-1.07,0-1.6V635.93c0-.54,0-1.07,0-1.6a1.9,1.9,0,0,0-1.92-2.1,16.3,16.3,0,0,0-4.24.11C93,632.61,91.1,633,89.51,631.34ZM1009.35,612c5.87,0,11.74.32,17.58-.49,4.2-.58,4.21-.51,4.21-4.64q0-1.07,0-2.13c0-1-.52-1.43-1.54-1.29-1.59.2-3.18.41-4.77.53-7,.52-14,.64-21,.56-2.49,0-5-.17-7.46-.15-2.06,0-2.19.19-2.27,2.35,0,1,0,2,0,2.93,0,2.17.08,2.28,2.26,2.31C1000.64,612,1005,612,1009.35,612Zm-983.79.12H28c2.67,0,5.34,0,8-.09,6-.18,5.18,1.05,5.15-5.86,0-1.19-.52-1.82-1.76-1.79-.71,0-1.43,0-2.14,0-3.82-.08-7.63.54-11.45.24-6.73-.54-13.52.12-20.2-1.2-1-.2-1.5.34-1.53,1.33,0,.44,0,.89,0,1.33,0,5,0,4.85,5.05,5.52C14.55,612.32,20.06,612,25.56,612.12ZM9.82,574.69c5.56,0,10.32-.65,15.12-.62,2.3,0,4.61-.25,6.91-.44,1.37-.11,1.6-.42,1.07-1.68-1-2.3-2-4.54-3-6.82a1.87,1.87,0,0,0-2.1-1.2c-5.13.35-10.27.62-15.4,1-2,.14-4.07.32-6.09.56S4.06,566.06,4,568s0,3.56,0,5.33c0,1.3.55,1.7,1.81,1.58C7.38,574.73,9,574.73,9.82,574.69ZM993.93,620c0,.8,0,1.6,0,2.4.07,2.26.41,2.55,2.74,2.4.27,0,.53,0,.8-.08,4.85-.49,9.71-.94,14.56-1.47a147.4,147.4,0,0,0,15.8-2.31c3.18-.71,3.44-1.12,3.29-4.32-.08-1.73-.15-1.81-1.9-1.49a55.93,55.93,0,0,1-10.33,1c-6.93,0-13.86,0-20.79-.08C994,616,994,615.94,993.93,620Zm-952.71.24V618.9c0-3,0-2.9-3.14-2.92-10.73-.08-21.5.94-32.19-.88-.62-.1-1.26-.13-1.64.54a3.75,3.75,0,0,0,2.06,5,55.06,55.06,0,0,0,8.36,1.6c7.22.95,14.46,1.69,21.71,2.34C41.26,625,41.25,625.12,41.22,620.24ZM1024,574.73h2.44l2.14.06c2.58.08,2.58.08,2.6-2.61,0-1.25,0-2.5,0-3.74-.05-2.55-.34-2.88-2.94-3.06-6.73-.46-13.48-.85-20.21-1.34a2,2,0,0,0-2.31,1.27c-.91,2.21-1.93,4.39-2.84,6.61-.59,1.43-.45,1.64,1.19,1.73C1010.87,574,1017.71,574.39,1024,574.73ZM79.69,649.86q0,9.72,0,19.46c0,.71,0,1.42,0,2.13.07.93.6,1.36,1.53,1.52,3.37.56,4.16-.06,4.16-3.44q0-18.53,0-37c0-.63,0-1.25,0-1.87a1.76,1.76,0,0,0-1.06-1.7c-1.14-.5-2.26-1-3.41-1.51-.79-.33-1.17.08-1.2.87,0,.62,0,1.24,0,1.86Zm875.78,0q0-9.6,0-19.22c0-.71,0-1.42-.08-2.13,0-.46-.3-.94-.84-.82a13.16,13.16,0,0,0-4.15,1.76c-1.06.69-.66,2-.67,3q0,18.69,0,37.38c0,.62,0,1.24.06,1.87a1.34,1.34,0,0,0,1.14,1.28c3.15.86,4.55-.13,4.55-3.33C955.48,663,955.47,656.42,955.47,649.83ZM998.24,635c7.17-.49,14.32-1.24,21.42-2.32a49.87,49.87,0,0,0,9.08-2,2.63,2.63,0,0,0,2.11-2.67c0-.62.17-1.24.19-1.85,0-1.68-.16-1.9-1.85-1.52-2.94.65-5.92,1.13-8.9,1.56-7.55,1.09-15.16,1.63-22.73,2.52-1.16.13-2.7-.6-3.44.65-.63,1-.19,2.43-.25,3.67,0,.26,0,.53,0,.8.05,1.08.56,1.63,1.71,1.46C996.48,635.23,997.37,635.13,998.24,635ZM6.29,449.9a1.47,1.47,0,0,0-.57,1.22,97.32,97.32,0,0,0-1.18,12.74c0,10-.06,19.94-.09,29.91,0,.62,0,1.24,0,1.87,0,1,.52,1.26,1.39,1,1.3-.32,2.59-.65,3.87-1,1.93-.57,2-.77,1.75-2.87-.63-4.49-1.28-9-1.88-13.47C8.29,469.54,7.23,459.75,6.29,449.9ZM105,652.36c0,6,0,12.09,0,18.13,0,2.2.43,2.57,2.43,2.49,1.65-.06,1.94-.34,2.07-2.07,0-.62,0-1.24,0-1.86.17-7.46-.09-14.93.36-22.39.23-3.71.11-7.46.08-11.19a3.48,3.48,0,0,0-3.61-3.38,1.19,1.19,0,0,0-1.29,1.08,19,19,0,0,0-.08,2.13Zm825.22.28c0-5.78,0-11.56,0-17.35,0-1,.51-2.39-.62-2.94-1.35-.65-2.5.51-3.62,1.16-.91.53-.75,1.55-.73,2.42.1,4.54.27,9.07.32,13.6.09,6.94.09,13.89.15,20.83,0,2.2.25,2.47,1.78,2.62,2.16.2,2.72-.24,2.73-2.45C930.21,664.57,930.19,658.6,930.19,652.64ZM19.11,552a59.86,59.86,0,0,0-10.82.73C3.7,553.34,4,552.3,4,557.43c0,.71,0,1.42,0,2.13.07,2,.08,2,2.19,1.87,6.3-.41,12.57-1.12,18.89-1.22a9.45,9.45,0,0,0,1.07-.07c1-.13,1.38-.73,1-1.69-.63-1.76-1.33-3.49-1.91-5.27a2,2,0,0,0-2.65-1.51C21.42,551.88,20.17,551.89,19.11,552Zm997.46,0c-1.33-.09-2.67-.13-4-.28a1.7,1.7,0,0,0-2,1.27c-.63,1.76-1.35,3.49-1.95,5.26-.54,1.59-.35,1.86,1.36,2,2.49.14,5,.13,7.46.39,4.07.42,8.16.6,12.23.93,1.06.08,1.48-.35,1.48-1.35,0-1.6,0-3.2,0-4.8-.06-2-.08-2-2.08-2.35A82.72,82.72,0,0,0,1016.57,552ZM4,543.87c0,.88,0,1.77,0,2.66,0,2.37.38,2.67,2.63,2.39a112.74,112.74,0,0,1,12.72-1,10.34,10.34,0,0,0,1.85-.13c1.47-.29,1.79-.76,1.4-2.23-.46-1.8-1.05-3.58-1.59-5.36-.82-2.67-.82-2.74-3.72-2.61a64.79,64.79,0,0,0-8.48.69C3.11,539.33,4.17,537.92,4,543.87Zm1027.09-.14c0-1.06,0-2.13,0-3.19s-.5-1.58-1.52-1.75a103.6,103.6,0,0,0-12.18-1.23,2.2,2.2,0,0,0-2.52,1.82c-.55,2-1.19,3.91-1.76,5.87s-.26,2.59,1.93,2.64c3.29.07,6.56.27,9.83.61,1.41.15,2.82.37,4.23.47,1.58.1,1.87-.17,2-1.77C1031.17,546.05,1031.12,544.89,1031.12,543.73Zm-1.84-92.16c-.24,2.45-.46,4.9-.73,7.35-1.21,10.87-2.53,21.73-4.1,32.55-.56,3.78-.49,3.79,3.16,4.74,3.1.8,3.12.8,3.11-2.31,0-10.85,0-21.71-.14-32.56A41.6,41.6,0,0,0,1029.28,451.57ZM979.49,645.14c0-2.6-.29-2.91-2.83-3a12.5,12.5,0,0,0-4.95.87c-.87.33-1.63.73-1.72,1.8-.12,1.42-1.11,1.62-2.27,1.65a14.24,14.24,0,0,1-6-.82c-.54-.23-1.21-.53-1.71.09-1,1.2,0,4.64,1.44,5.27a15.89,15.89,0,0,0,6.51,1.13c1.58,0,2,.48,2,1.85s-.41,2-2.08,2.08a14.57,14.57,0,0,1-6-.69c-.66-.24-1.47-.53-1.85.37s.13,1.71,1.07,2.09a16.8,16.8,0,0,0,2.27.76c2,.47,4,1.28,5.44-1.07.24-.38.91-.52,1.4-.7a16.57,16.57,0,0,1,6.74-1.39,2.34,2.34,0,0,0,2.21-.63,2.17,2.17,0,0,0,.21-2c-.26-.83-1-.9-1.72-1a12.85,12.85,0,0,0-4.93,1c-1.76.54-2.15.32-2.61-1.19s-.27-1.93,1.44-2.54a15.67,15.67,0,0,1,5.42-1.26C979.25,647.77,979.46,647.47,979.49,645.14Zm-832.33-2.91c-3-.34-5.31-1.32-7.7-.48a80.06,80.06,0,0,1-23.7,4.77c-1.56.06-1.85.53-1.84,2.28s.31,2.21,1.86,2.27a29.62,29.62,0,0,0,5.32-.29,92.18,92.18,0,0,0,21.71-6.35A17.9,17.9,0,0,0,147.16,642.23Zm741.34.16a2.84,2.84,0,0,0,1.65,1.1,106.25,106.25,0,0,0,18.11,6.18,43.43,43.43,0,0,0,10.52,1.43c.79,0,1.64.11,2.17-.69a2.49,2.49,0,0,0-2-3.92,68.47,68.47,0,0,1-20.06-3.77A16.65,16.65,0,0,0,888.5,642.39Zm91-16.87h0c0-.36,0-.71,0-1.07-.1-2.22-.3-2.41-2.46-2.52a13.19,13.19,0,0,0-5.2.85A2.43,2.43,0,0,0,970,625c-.23,2.07-.4,2.1-2.5,2.22a14.28,14.28,0,0,1-6-.91c-1.05-.41-1.61-.07-1.73,1.18-.4,4.17.52,5.4,4.65,5.94a21.13,21.13,0,0,0,2.39.1c.89,0,1.59-.19,1.57-1.31s.79-1.27,1.55-1.55a19.46,19.46,0,0,1,7.24-1.51c2,.05,2.25-.34,2.36-2.33C979.51,626.4,979.49,626,979.49,625.52ZM59.17,621.94c-3.36,0-3.48.08-3.51,3.22,0,.53,0,1.06,0,1.59.1,2.16.31,2.48,2.52,2.43a19.13,19.13,0,0,1,7,1.47c.85.3,1.72.56,1.69,1.73,0,1,.64,1.16,1.41,1.16a19,19,0,0,0,2.39-.07c4.19-.49,5.15-1.68,4.76-5.84-.14-1.48-.42-1.77-1.87-1.24a16.14,16.14,0,0,1-6.27.84c-1.25,0-2.13-.5-2.07-1.85.07-1.68-.89-2.34-2.31-2.75A10.38,10.38,0,0,0,59.17,621.94ZM4.34,531c0,.62,0,1.24,0,1.86.1,1.82.22,2,2.12,1.71,3.61-.5,7.23-.82,10.87-1,1.57-.09,1.7-.26,1.39-1.8-.37-1.83-.84-3.64-1.29-5.45a1.68,1.68,0,0,0-2.17-1.41c-2.27.4-4.56.72-6.83,1.16C4.34,526.84,4.35,526.87,4.34,531Zm112.35,133.9c.42,0,1-.07,1.65-.16,12.77-2,24.72-6.38,36.26-12a5.3,5.3,0,0,0,1.32-.87,1.2,1.2,0,0,0,.3-1.47c-.34-.66-.91-.33-1.38-.12-2,.91-4,1.89-6.05,2.77-9.49,4.13-19.25,7.33-29.57,8.6-1.32.17-2.64.29-4,.44a1.3,1.3,0,0,0-1.32,1.38c0,1,.54,1.44,1.48,1.48C115.77,664.94,116.13,664.92,116.69,664.92ZM1031.1,531.06V530c0-3,0-3.06-3-3.66-2.52-.51-5.08-.81-7.6-1.33-1.34-.27-2,.17-2.32,1.44-.39,1.73-.84,3.45-1.19,5.19s-.22,1.79,1.52,1.94c2.91.27,5.84.45,8.74.83C1031.59,535,1031.07,535.41,1031.1,531.06ZM116.35,658c.39,0,1-.06,1.62-.14a103.32,103.32,0,0,0,27.59-7.74c3.18-1.37,6.28-2.91,9.4-4.41.7-.33,1.69-.74,1.25-1.71-.51-1.14-1.48-.53-2.29-.21a7.79,7.79,0,0,0-.72.34c-2,.93-4,1.9-6,2.8a97.86,97.86,0,0,1-25.91,7.85,54.81,54.81,0,0,1-5.57.36c-1,0-1.78.33-1.73,1.52s.94,1.35,1.89,1.34Zm802.26,0c1.15-.07,2.4.27,2.57-1.33.11-1.06-.48-1.46-2.25-1.55-1.59-.07-3.19-.09-4.78-.31A100.27,100.27,0,0,1,887,646.42c-2-.92-4-1.89-6.05-2.81-.65-.29-1.46-.59-1.92.18s.26,1.3.86,1.67A24,24,0,0,0,882,646.6a136.12,136.12,0,0,0,20.83,8.2A92.85,92.85,0,0,0,918.61,658ZM6.11,522.37c2.63-.42,5.51-.86,8.38-1.36.84-.14,1.59-.6,1.45-1.58-.34-2.27-.76-4.53-1.2-6.78a1,1,0,0,0-1.19-.83c-2.94.51-6.28.45-8.53,2.4-1.63,1.41-.44,4.2-.65,6.37a4.69,4.69,0,0,0,0,.53C4.41,522.09,4.81,522.63,6.11,522.37Zm1025-3.29c-.07-1-.18-2-.21-2.92a2.79,2.79,0,0,0-2.47-3c-1.74-.34-3.46-.84-5.21-1.14s-2.09.06-2.46,1.65-.62,3.14-.88,4.72c-.34,2.05,0,2.44,2.09,2.8,1.84.32,3.69.58,5.52.93C1031.11,522.84,1031.11,522.86,1031.12,519.08ZM966.3,642.46c.53-.34,2.05.62,2-1,0-1.46.86-1.74,1.86-2.17a19.23,19.23,0,0,1,7.59-1.17c1.41,0,1.69-.55,1.7-2.41s-.27-2.31-1.67-2.47a13.18,13.18,0,0,0-6.74,1.23,1.41,1.41,0,0,0-1,1.15c-.08,2-1.49,2.13-3,2.17a14.18,14.18,0,0,1-4.48-.57c-.81-.25-1.74-1-2.48-.25s-.36,1.85-.31,2.81a1.55,1.55,0,0,0,1.09,1.39A13.28,13.28,0,0,0,966.3,642.46ZM58.94,633.21c-2.94,0-3.23.19-3.27,2.35s.27,2.67,2.59,2.58a17.51,17.51,0,0,1,7,1.28c.85.32,1.69.66,1.51,1.85-.15,1,.53,1.13,1.32,1.2a12.17,12.17,0,0,0,5.94-1.23,3,3,0,0,0,1.19-3.91c-.68-1.3-1.72-.4-2.55-.15a14.93,14.93,0,0,1-5.27.58c-1.16,0-2.14-.34-2.26-1.74-.09-1-.81-1.5-1.71-1.8C61.94,633.74,60.46,633.07,58.94,633.21Zm859.57,30.7c.56,0,1.09,0,1.62,0s1.16-.11,1.23-.76c.09-.82-.55-1-1.21-1.09-1.06-.09-2.13-.11-3.19-.25a106.86,106.86,0,0,1-27.19-7.37c-3-1.26-6-2.67-9-4-.47-.21-1-.59-1.44,0a1.16,1.16,0,0,0,.41,1.64,13,13,0,0,0,1.87,1,151.64,151.64,0,0,0,24.1,8.52A83.44,83.44,0,0,0,918.51,663.91Zm-37.28-6.63c.29.46.32.56.39.6,11.8,6.12,24,11.14,37.38,12.4a2.42,2.42,0,0,1,2.57,2.26c.12-4.46.12-4.42-3.46-4.68a69.1,69.1,0,0,1-8.93-1.4A147.1,147.1,0,0,1,881.23,657.28ZM4.43,500.14c0,2.85,0,5.32,0,7.8,0,1.1.56,1.6,1.74,1.33,2.07-.49,4.15-.94,6.24-1.38a1.3,1.3,0,0,0,1.18-1.71c-.26-1.49-.49-3-.75-4.47-.43-2.52-.56-2.6-3.13-2C8.11,500.12,6.57,501,4.43,500.14Zm1026.32-.06a3.81,3.81,0,0,1-3.4.16c-.86-.23-1.72-.41-2.58-.63-1.11-.28-1.69.17-1.85,1.28-.25,1.75-.48,3.51-.79,5.25-.2,1.09.09,1.66,1.24,1.86,1.74.32,3.45.78,5.19,1.13s2.11.16,2.17-1.57C1030.81,505.26,1030.75,503,1030.75,500.08ZM131.1,639.89c-3.65-1-7.28-1.88-10.87-2.86a16,16,0,0,0-4.79-.12,1.39,1.39,0,0,0-1.44,1.56c0,.62-.06,1.24,0,1.87.09,1.87.29,2.14,2.24,2.11A50.28,50.28,0,0,0,131.1,639.89Zm773.45-.15a42.64,42.64,0,0,0,14.78,2.73c1.18,0,1.86-.48,1.85-1.72,0-.71,0-1.41,0-2.12,0-1.23-.65-1.77-1.83-1.74a19.86,19.86,0,0,0-3.71.15C911.92,637.86,908.24,638.83,904.55,639.74ZM71.86,622.37c-2.16-1.62-4.13-3-6-4.51-2.6-2.15-5.1-4.44-7.66-6.64-.58-.5-1.09-1.49-1.94-1.14s-.56,1.55-.62,2.39,0,1.78,0,2.67c.06,2.57.21,2.83,2.73,2.75a19,19,0,0,1,7,1.44c1.07.37,1.68.94,1.32,2.17-.21.74-.23,1.56.75,1.64C68.82,623.24,70.28,623.63,71.86,622.37ZM979.1,609.69a118.57,118.57,0,0,1-15.68,12.84c1.49,1,2.77.61,4,.7,1,.07,1.62-.33,1.21-1.4-.62-1.64.24-2.21,1.6-2.67a17.39,17.39,0,0,1,7-1.25c1,.07,2.1,0,2.18-1.37A21.69,21.69,0,0,0,979.1,609.69Zm-865.38,62.4c.27-1.57,1.41-1.73,2.62-1.81,1-.06,1.94-.18,2.91-.32,9.67-1.34,18.72-4.68,27.56-8.69.67-.3,1.3-.69,1.95-1a40.76,40.76,0,0,0-5.78,1.91c-8.9,3.39-18,6.08-27.53,6.85C113.63,669.14,113.56,669.31,113.72,672.09Zm-53.2.9c.89,0,1.78,0,2.67,0a4.72,4.72,0,0,0,1.3-.22.91.91,0,0,0,.57-1.09c-.08-.52-.48-.31-.81-.27a7.82,7.82,0,0,1-3.08-.73,10.32,10.32,0,0,0-3.12-.64c-1.76,0-2.34.37-2.29,1.5.06,1.39,1.08,1.43,2.09,1.46S59.63,673,60.52,673Zm909.56-2.25c.28,2,.27,2.16,1.44,2.2,2.11.08,4.22,0,6.34,0a1.35,1.35,0,0,0,1.52-1.44c0-1.19-.75-1.42-1.74-1.47a12.74,12.74,0,0,0-4.35.93C972.25,671.28,971.18,672,970.08,670.74ZM59,659.63c-.79.09-1.58.15-2.36.28a.78.78,0,0,0-.64.75.82.82,0,0,0,.74.93,6.54,6.54,0,0,0,1.32.11,13.66,13.66,0,0,1,5.49.74c.49.19,1.09.37,1.39-.25s-.17-1.15-.78-1.41A12.41,12.41,0,0,0,59,659.63Zm7.8,3.55c.1,1.16.59,1.76,1.66,1.86a12,12,0,0,0,6.2-1.26.87.87,0,0,0,.53-1.09.77.77,0,0,0-1.07-.51C71.73,663.18,69.22,663,66.75,663.18ZM921.59,117h12.22A65.64,65.64,0,0,0,921.59,117Zm-819.84,0h12.43A66.17,66.17,0,0,0,101.75,117ZM56.93,665.93c2.66-.28,5,1,7.5,1.37A10.36,10.36,0,0,0,56.93,665.93Zm913.92,1.6c1.17-.37,2.36-.68,3.51-1.11a19.35,19.35,0,0,1,3.92-.53A9.29,9.29,0,0,0,970.85,667.53Z"/><path d="M518.55,19.17c16.1.81,32.56.5,49,.81,10.67.2,21.34.61,32,1.06,10.13.43,20.25.93,30.37,1.58,11.35.72,22.7,1.62,34,2.48,7.36.55,14.72,1.08,22.07,1.75,8.23.75,16.45,1.63,24.67,2.47,7.34.76,14.68,1.48,22,2.32,7.86.92,15.7,1.93,23.55,3,7.14.93,14.3,1.72,21.4,2.91a77.12,77.12,0,0,1,42.62,21.62c4.28,4.24,7.36,9.37,10.5,14.43a211.79,211.79,0,0,1,27.86,70.36,125.5,125.5,0,0,1,2.45,17.16,17.37,17.37,0,0,0,1.92,6.07,102.56,102.56,0,0,0,10.55,17.3c4.58,6.35,9.45,12.48,14.54,18.44a56.11,56.11,0,0,1,9.66,15.59,24.93,24.93,0,0,1,.86,2.52c1.63,5.88.66,8.8-4.13,12.6-5.54,4.4-11.8,7.63-18,10.91q-12.16,6.41-24.75,12a12.36,12.36,0,0,0-4.62,3.52c-1.63,2-1.22,3.4,1.3,4.1a21.82,21.82,0,0,0,6.07.75,235.11,235.11,0,0,1,25,1.28,424.51,424.51,0,0,1,45.83,7.1c10.19,2.13,20.3,4.57,30.32,7.43a22.15,22.15,0,0,1,2.24.81.69.69,0,0,1,.37.89.69.69,0,0,1-.83.5,16.47,16.47,0,0,1-1.82-.41c-13.26-3.79-26.69-6.87-40.26-9.39-10.57-2-21.2-3.6-31.91-4.7-7.79-.8-15.57-1.51-23.41-1.65-3-.05-6-.26-9.06-.37a12.23,12.23,0,0,1-3.65-.75c-3.24-1.16-4-3.44-2-6.23a12.08,12.08,0,0,1,5.1-4.16c7.79-3.51,15.48-7.24,23.09-11.12,5.07-2.59,10.07-5.31,14.91-8.32a42.52,42.52,0,0,0,7-5.35,6.73,6.73,0,0,0,2-6.07,27.57,27.57,0,0,0-3.67-10.23A76.83,76.83,0,0,0,885,202a205.35,205.35,0,0,1-20.34-27.74l-.68-1.15a40.1,40.1,0,0,1-5.28-16c-1.74-16.93-6.36-33.17-12.6-49A215.43,215.43,0,0,0,825.39,68.4,60,60,0,0,0,810.2,52.82,77.41,77.41,0,0,0,773.77,38.7c-10.06-1.25-20.08-2.75-30.14-4-8.56-1.06-17.13-1.94-25.71-2.86C710,31,702,30.12,694.05,29.36c-6.9-.66-13.81-1.2-20.72-1.78q-8.64-.73-17.28-1.44c-2.83-.22-5.67-.43-8.51-.58-10.48-.58-20.94-1.4-31.42-1.85q-12-.51-24-1.07c-16.62-.8-33.25-1-49.89-1-9.7,0-19.39-.64-29.09-.36-16,.46-32,.28-48,.56-10.23.18-20.45.6-30.67,1.08q-10.51.49-21,1.06c-9.5.51-19,1.27-28.47,1.94-8,.57-16,1.07-23.94,1.76-10.54.92-21.06,2-31.59,3-7.52.74-15,1.47-22.54,2.34-9.45,1.09-18.89,2.29-28.32,3.51-7,.89-13.95,1.67-20.87,2.88-16.82,2.94-31.28,10.43-42.9,23.11a67.08,67.08,0,0,0-6.94,9.78,210.55,210.55,0,0,0-28.95,71.9,143.43,143.43,0,0,0-2.44,16.89,20.13,20.13,0,0,1-2.14,6.84,109.73,109.73,0,0,1-11.44,18.62c-4.66,6.41-9.67,12.54-14.79,18.59A51.46,51.46,0,0,0,140,218.26a23.89,23.89,0,0,0-1.14,3.27c-1.07,4.1-.61,7.66,3.11,10.46a97.63,97.63,0,0,0,11.2,7.23c10.34,5.77,21,10.92,31.8,15.75a12.6,12.6,0,0,1,5.65,4.71c1.67,2.61.86,4.85-2.08,5.88a13,13,0,0,1-3.65.74c-3.47.14-6.93.35-10.4.43a308.7,308.7,0,0,0-30.81,2.62,442.93,442.93,0,0,0-51.07,9.73c-4.14,1-8.25,2.2-12.37,3.31-.52.13-1,.33-1.54.42s-1.13.17-1.29-.54c-.11-.53.3-.82.72-1,.83-.31,1.67-.6,2.53-.84a460.61,460.61,0,0,1,52.11-11.33c9.49-1.5,19-2.62,28.58-3.48a178.23,178.23,0,0,1,18.92-.78c2.06,0,4.07-.39,6.11-.53a4.54,4.54,0,0,0,1.28-.36c2-.79,2.4-1.93,1.18-3.69a11,11,0,0,0-4.74-3.76c-7.71-3.46-15.36-7.08-22.86-11-5.13-2.67-10.24-5.38-15.13-8.48a50.5,50.5,0,0,1-7-5.36,8.15,8.15,0,0,1-2.66-7.46c.64-5.17,3-9.62,5.69-14,2.51-4.13,5.74-7.7,8.81-11.39a229,229,0,0,0,16.52-22.3c2-3.07,3.6-6.34,5.29-9.57s1.82-6.65,2.24-10.09a202.47,202.47,0,0,1,15.5-55.87A231.21,231.21,0,0,1,208,68.67c6.29-9.92,14.92-17.11,25.07-22.65a80.71,80.71,0,0,1,29.63-9.2c8.56-1,17.08-2.34,25.63-3.42,6.79-.87,13.6-1.6,20.4-2.36,7.6-.85,15.19-1.69,22.8-2.46,6.45-.66,12.92-1.21,19.38-1.8,5.31-.48,10.62-1,15.94-1.4q8.37-.68,16.75-1.25c7-.5,14-1,21-1.46,3.28-.23,6.57-.28,9.86-.53,5.4-.42,10.84-.41,16.25-.75,11.72-.74,23.47-.77,35.19-1.38.54,0,1.07,0,1.6-.05C484.4,19.79,501.3,19.9,518.55,19.17Z"/><path d="M113.12,293.27c9.95.25,21.38.84,32.8,2,12.56,1.29,25.17,2.56,37.42,5.51,12.68,3.06,23.54,9.39,30.82,20.84,5,7.89,8.3,16.5,11.09,25.34a372.37,372.37,0,0,1,9.65,38.54,24.3,24.3,0,0,1,.1,9.27,18.92,18.92,0,0,1-10.31,13.82,37.71,37.71,0,0,1-15.65,4,102.1,102.1,0,0,1-16.76-.82c-4.86-.49-9.74-.82-14.61-1.25q-11.41-1-22.83-2c-6.46-.57-12.92-1.14-19.38-1.75s-12.91-1.3-19.36-1.92-12.92-1.23-19.38-1.8c-8.38-.74-16.54-2.37-24.24-5.88-8.83-4-14.82-10.49-17.49-20a127.31,127.31,0,0,1-3.6-18.3,207.75,207.75,0,0,1-1.54-27.42,37,37,0,0,1,7.75-22.58c6-7.82,14-12.11,23.7-13.48A231.6,231.6,0,0,1,113.12,293.27Zm-1.8,4a222.33,222.33,0,0,0-22.64,1.17,67.82,67.82,0,0,0-11.57,1.84c-13.67,3.71-22.58,16-23,30.05a185.39,185.39,0,0,0,1.72,30.87,81,81,0,0,0,4.09,17.64,22.86,22.86,0,0,0,5.64,8.93c4.62,4.33,10.19,6.74,16.12,8.54C90.42,399,99.55,399,108.55,400c6.18.69,12.38,1.26,18.57,1.87,6.54.63,13.09,1.27,19.63,1.88,4.78.44,9.56.84,14.35,1.26q11,1,22,1.95c4.86.43,9.75.68,14.6,1.26a66.14,66.14,0,0,0,12.26.24,32.8,32.8,0,0,0,11.61-2.78c5-2.3,8.37-6,9.38-11.51a19.71,19.71,0,0,0-.06-7.69c-1.14-5.4-2.24-10.8-3.51-16.17-2.92-12.3-6.21-24.49-11.15-36.17-2.41-5.68-5.22-11.2-9.46-15.7a47.75,47.75,0,0,0-26.06-14.2,386.17,386.17,0,0,0-40.67-5.53C130.5,297.91,120.92,297.48,111.32,297.27Z"/><path d="M924.21,293.29c10.94.13,21.86.56,32.65,2.58a33.4,33.4,0,0,1,23.79,16.85,38.53,38.53,0,0,1,5.24,20.42c-.27,12.64-.89,25.24-3.57,37.64-.51,2.35-1.19,4.66-1.82,7-2.58,9.33-8.75,15.47-17.36,19.41a62.42,62.42,0,0,1-19.22,5.27c-9.45,1-18.92,1.84-28.38,2.76-10.17,1-20.33,2.05-30.5,3-7,.66-14,1.17-21,1.78-7.17.63-14.34,1.31-21.51,1.93-7.79.68-15.59,1.43-23.35-.37a28.54,28.54,0,0,1-11-4.65c-6.66-5-9-12-7.57-19.87,3.37-18.48,7.77-36.74,15-54.15,2.94-7.09,6.54-13.9,12.33-19.15a54.74,54.74,0,0,1,27.07-13.56c10.49-2,21.05-3.45,31.65-4.59,8.12-.87,16.27-1.62,24.45-1.86C915.5,293.58,919.85,293.2,924.21,293.29Zm57.42,44.17c-.11-4.53.24-8.79-.71-13-3-13.47-12.93-23-26.32-25a215.28,215.28,0,0,0-28.69-2.16c-5-.08-10,.29-14.94.42-6.31.17-12.6.7-18.88,1.3q-14.21,1.35-28.29,3.67c-6.48,1.07-13,1.92-19,4.83-6.89,3.31-13.35,7.17-17.94,13.48a61,61,0,0,0-6.87,12c-7.44,17.55-11.77,36-15.32,54.62-1.61,8.43,2.55,15.27,10.54,18.51a35.56,35.56,0,0,0,12,2.42,84,84,0,0,0,12.78-.47c5-.54,9.92-.81,14.88-1.24,7.17-.63,14.33-1.32,21.5-2,6.73-.6,13.46-1.13,20.19-1.77,8.13-.78,16.26-1.67,24.39-2.47,7.7-.76,15.42-1.32,23.08-2.26s14.84-2.91,21.42-6.94a23.51,23.51,0,0,0,10.3-12.18,66.63,66.63,0,0,0,2.63-9A174,174,0,0,0,981.63,337.46Z"/><path d="M115.09,219.08a22.15,22.15,0,0,1,11.61,2.41c3,1.67,3.67,3.67,2,6.85a20,20,0,0,1-6.92,7.28,76.8,76.8,0,0,1-25.1,10.83,128.61,128.61,0,0,1-17.31,3.09,27.14,27.14,0,0,1-9.55-.3c-3.49-.91-4.86-2.87-4.53-6.44a9.94,9.94,0,0,1,2.74-5.94,31.28,31.28,0,0,1,8.55-6.31c10.67-5.71,21.89-9.84,34-11.35.45,0,.89-.11,1.33-.12C113,219.06,114,219.08,115.09,219.08Zm-.06,4h-3.2a9.77,9.77,0,0,0-1.06.11A94.06,94.06,0,0,0,78.62,234a32.23,32.23,0,0,0-6.75,4.72,5.71,5.71,0,0,0-2.28,4.06c0,2,.37,2.6,2.29,2.88a16.82,16.82,0,0,0,2.66.11A97.23,97.23,0,0,0,103,240.45a64.54,64.54,0,0,0,16.69-8.18,17.25,17.25,0,0,0,4.92-4.82c1.07-1.7.91-2.24-.94-3A18.86,18.86,0,0,0,115,223.09Z"/><path d="M920.89,219.05a61.94,61.94,0,0,1,18.31,3.18c8.43,2.64,16.58,5.93,24,10.85a22.7,22.7,0,0,1,4.82,4.19,9.43,9.43,0,0,1,2.43,6.33c0,2.92-1.26,4.66-4,5.52a21.89,21.89,0,0,1-8.74.53c-9.39-1-18.68-2.57-27.56-5.91-6-2.26-11.85-4.87-17-8.75a27.34,27.34,0,0,1-4.12-3.78,11.49,11.49,0,0,1-2.49-4.37c-.72-2.38-.25-3.63,1.88-5a21.11,21.11,0,0,1,9.63-2.83C918.93,219,919.91,219.05,920.89,219.05Zm39.4,26.66c.89,0,1.79,0,2.67,0,3.34-.19,3.76-1,2.78-4.56a5.51,5.51,0,0,0-1.38-1.93,17.52,17.52,0,0,0-3.72-3,89.3,89.3,0,0,0-23.84-10.51A55.11,55.11,0,0,0,918.68,223a18.77,18.77,0,0,0-7.23,1.66,1.37,1.37,0,0,0-.69,2.17,11.45,11.45,0,0,0,1.74,2.35,26.31,26.31,0,0,0,6.1,4.72,77.23,77.23,0,0,0,20.15,8.34C945.84,244,953,245.49,960.29,245.71Z"/><path d="M939,513.26a13.69,13.69,0,0,1-1.6,6.93,5.38,5.38,0,0,1-5.23,3,5,5,0,0,1-4.65-3.42,15.65,15.65,0,0,1-.16-12.2,9.44,9.44,0,0,1,1.19-2.07c2.3-3,4.79-3.08,7.3-.29A12.3,12.3,0,0,1,939,513.26Zm-4,.57a8.39,8.39,0,0,0-1.61-5.51c-.86-1.12-1.7-1.12-2.21.1a13.19,13.19,0,0,0-.1,9.86c.57,1.56,1.9,1.56,2.78.14A8.45,8.45,0,0,0,935,513.83Z"/><path d="M109.17,514a12.22,12.22,0,0,1-.73,5.29c-.93,2.13-2.21,3.84-4.84,3.91A5.51,5.51,0,0,1,98,519.52c-1.9-4.65-1.76-9.21,1.17-13.42,2.8-4,6.31-3.78,8.66.5C109,508.78,109.18,509.55,109.17,514Zm-8.52-.47a11.42,11.42,0,0,0,.95,4.55c.3.67.73,1.3,1.53,1.33,1,0,1.39-.73,1.66-1.48a13.87,13.87,0,0,0,.8-5,9.17,9.17,0,0,0-1.12-4.61c-.62-1.06-1.3-1.1-2.09-.15A8.8,8.8,0,0,0,100.65,513.52Z"/><path d="M950.07,613.87a37.54,37.54,0,0,1-10,11l9.44-11.44Z"/><path d="M519.88,62.61c8.82.32,19.49.42,30.17.64,10.13.21,20.26.65,30.4,1,8.62.32,17.24.63,25.85,1.08,7.82.41,15.63.73,23.45,1.06,11.11.46,22.21,1,33.31,1.58q15.72.78,31.43,1.61,15.06.78,30.1,1.61c9.5.52,19,.93,28.5,1.62,6.81.49,13.69.39,20.41,2a32.77,32.77,0,0,1,12.43,5.29,17.71,17.71,0,0,1,7.39,12.46c1.09,8.4.28,16.69-.83,25-1.88,14.12-4.83,28.05-7.73,42a36.17,36.17,0,0,1-3,8.81c-5.15,10.29-14.92,15.24-26.29,13.41q-14.22-2.28-28.56-3.63c-8.76-.82-17.52-1.74-26.28-2.48-6.2-.52-12.42-.83-18.63-1.22-7.81-.49-15.62-1-23.43-1.46-4.08-.24-8.17-.28-12.26-.54-6.65-.42-13.33-.43-20-.71-14.22-.58-28.45-.86-42.68-1.23-6.49-.17-13-.19-19.48-.35-23.48-.57-47-.63-70.47-.37-12.45.13-24.91.18-37.36.55-7.3.22-14.59.25-21.88.47-10.85.31-21.7.61-32.54,1.09-7.9.35-15.81.68-23.72,1.07-10.21.5-20.4,1.25-30.6,1.94-8,.54-16,1-23.94,1.76-9.38.85-18.77,1.68-28.1,3-5.28.75-10.56,1.53-15.85,2.19-7.41.93-14.21-.53-19.88-5.65a28,28,0,0,1-8.25-14.39c-1.2-4.83-2.12-9.73-3.13-14.61-2.35-11.32-4.43-22.7-5.77-34.19a81.21,81.21,0,0,1-.27-20.49,17.47,17.47,0,0,1,6.41-11.6c4.54-3.72,10-5.47,15.6-6.51a92.12,92.12,0,0,1,12.2-1.18c8-.38,16-.91,24-1.41,3.46-.22,6.93-.29,10.39-.52,8.61-.57,17.23-.83,25.84-1.29,8.17-.42,16.34-.94,24.5-1.41,3.73-.21,7.46-.24,11.19-.52,5.59-.41,11.2-.45,16.8-.73,9-.43,17.93-.94,26.9-1.4,4.62-.23,9.24-.2,13.86-.57,3.81-.31,7.64-.27,11.46-.48,7.46-.41,14.94-.43,22.4-.76,13.69-.62,27.38-1,41.08-1.16C509.3,62.88,513.66,62.68,519.88,62.61ZM792,101.31a69.68,69.68,0,0,0-.54-8.78,15.56,15.56,0,0,0-5.87-10.41c-3.44-2.84-7.51-4.33-11.78-5.42-6.26-1.62-12.69-1.61-19.07-2-9.58-.59-19.17-1-28.76-1.63q-15.16-.94-30.36-1.61C685.34,71,675,70.4,664.74,69.88c-11.1-.55-22.2-1-33.3-1.61-7.82-.4-15.64-.71-23.46-1.06-8.61-.38-17.23-.72-25.85-1.07-10.13-.41-20.27-.7-30.4-1.06-10.31-.38-20.64,0-31-.57-5.52-.27-11,.39-16.54.42-8.09,0-16.18.08-24.27.38-10.84.42-21.69.69-32.53,1.19-6.58.3-13.17.3-19.73.73-4.27.27-8.54.3-12.8.51-8.88.44-17.76,1-26.64,1.42-5.68.28-11.38.32-17.06.72-3.82.27-7.64.34-11.46.54q-14.25.72-28.5,1.53c-4,.24-8,.41-12,.62-11.09.57-22.18,1.34-33.28,1.94-6.12.33-12.26.48-18.36,1.17-5.35.6-10.54,1.87-15.16,4.76-4.13,2.58-7.28,6-8.09,11.06a54.64,54.64,0,0,0-.72,9.57c.21,10.26,1.83,20.37,3.64,30.43,1.58,8.84,3.39,17.65,5.16,26.46A32.7,32.7,0,0,0,258,171.44c5,6.69,11.76,9.58,20,8.72,7.6-.79,15.14-2.06,22.74-2.95,12.1-1.42,24.23-2.49,36.36-3.47,10.72-.86,21.46-1.53,32.2-2.12,11.63-.64,23.27-1.15,34.91-1.62,10.58-.42,21.16-.72,31.74-1,7.91-.24,15.83-.17,23.75-.5,11.29-.47,22.59-.25,33.89-.46,17.88-.34,35.77-.39,53.66.17,12.44.39,24.9.23,37.36.53,10.94.27,21.88.59,32.82.85,4.8.11,9.61.13,14.4.49s9.42.3,14.13.56L671.77,172c4.26.23,8.53.37,12.79.69,8.15.6,16.3,1.27,24.45,2,6.56.55,13.12,1,19.65,1.79,9.71,1.13,19.39,2.56,29.1,3.71a20.71,20.71,0,0,0,17.37-5.75c4.69-4.42,6.8-10.13,8.06-16.23,2-10,4.22-20,5.84-30.13C790.46,119.19,791.88,110.32,792,101.31Z"/><path d="M483.69,273.08H508c23.39,0,46.79-.19,70.18.11,13.61.17,27.23,0,40.83.5,9,.33,18,.05,26.94.5,8,.41,16,.11,24,.55,6.76.37,13.52.21,20.28.48,12.71.5,25.43.61,38.13,1.15,7.2.31,14.4.13,21.59.79,14.16,1.32,24.16,8.33,29.66,21.45a49.84,49.84,0,0,1,3.63,21.11c-.9,30.09-8.84,58.42-21,85.75-1.08,2.44-2.4,4.78-3.37,7.26s-2.52,3-5,3c-10.59-.06-21.18-.06-31.76.12-24.11.41-48.23.22-72.33.63-19.22.32-38.44,0-57.65.5-19.75.48-39.5.17-59.25.54-7.83.15-15.65.49-23.48.24-19.48-.63-39-.07-58.45-.56s-39.15,0-58.71-.54-39,0-58.45-.53c-17.26-.45-34.52-.19-51.78-.44a11.8,11.8,0,0,0-1.33,0,3.34,3.34,0,0,1-3.55-2.21c-2.21-4.57-4.35-9.16-6.31-13.84a242.52,242.52,0,0,1-16.5-57.84,140.81,140.81,0,0,1-1.81-27.65A42.22,42.22,0,0,1,261.79,289c5-6.21,11.71-9.68,19.46-11.25a53.87,53.87,0,0,1,8.48-.9q11.86-.47,23.74-.67c8.89-.15,17.78-.5,26.67-.72,6.67-.17,13.35-.12,20-.48,7.91-.43,15.84-.16,23.74-.56,8.72-.44,17.44-.14,26.14-.5,13.43-.56,26.87-.16,40.3-.58C461.45,273,472.57,273.21,483.69,273.08Zm34.09,143c6.32-.11,12.63-.21,19-.35,19.66-.45,39.33,0,59-.55,19.3-.5,38.62,0,57.93-.52,20.1-.51,40.22-.05,60.32-.55,12.64-.32,25.28-.16,37.92-.22.71,0,1.43-.07,2.13,0a2.93,2.93,0,0,0,3.29-2.09c.62-1.47,1.41-2.87,2.09-4.32a250.74,250.74,0,0,0,16.19-46,190,190,0,0,0,5.8-44.35,46,46,0,0,0-4.14-19.42A31.36,31.36,0,0,0,765,283.61c-5.88-3.65-12.42-4.69-19.14-5-5.16-.21-10.32-.28-15.47-.45-12.89-.42-25.79-.67-38.68-1.15-6.4-.24-12.8-.16-19.21-.47-8.26-.39-16.54-.2-24.81-.56-8.71-.38-17.43-.21-26.15-.5-13.16-.43-26.33-.39-39.5-.51-17.16-.16-34.32-.4-51.49.21-10.45.37-21,0-31.46-.22-17.34-.35-34.69-.34-52.05.18-13.78.41-27.58.06-41.36.62-7.83.32-15.66.11-23.49.45-9.59.42-19.21.19-28.81.67-4.8.24-9.6.21-14.4.39-14.67.56-29.34.88-44,1.25a104.94,104.94,0,0,0-10.92.56c-10,1.27-18,5.86-23.4,14.54A42.73,42.73,0,0,0,254.32,316a159.92,159.92,0,0,0,2.21,27.63,245.84,245.84,0,0,0,21.54,67.66,4.13,4.13,0,0,0,4.28,2.71c15.83.08,31.67,0,47.51.37,20.73.45,41.46.12,62.2.58,18.23.41,36.48.15,54.72.48C470.44,415.82,494.12,415.46,517.78,416.1Z"/><path d="M202.79,629.91c-10.22-.37-20.45-.41-30.63-1.2-11.24-.87-22.51-1.73-33.55-4.2-5.2-1.17-10.38-2.49-15.12-5.07a14.21,14.21,0,0,1-5.4-4.65c-1.71-2.65-1.43-4,1.12-5.85a20.08,20.08,0,0,1,4-2.14A74.21,74.21,0,0,1,142,602c6.33-.87,12.69-1.39,19.07-1.82,5.77-.4,11.56-.52,17.31-.56s11.54,0,17.31.55c4.86.45,9.74.73,14.6,1.24,10.43,1.12,20.81,2.55,30.93,5.45a44.62,44.62,0,0,1,8.91,3.51,15.07,15.07,0,0,1,4.79,3.78c2,2.51,1.88,4-.45,6.21a18.24,18.24,0,0,1-5,3.12,52.11,52.11,0,0,1-12.75,3.78,144.4,144.4,0,0,1-23.85,2.28C209.54,629.54,206.17,630,202.79,629.91Zm-28.1-26.26c-5.68.36-12.61,0-19.54.57a152.7,152.7,0,0,0-20.56,2.87,49,49,0,0,0-11.86,4c-1.9,1-2,1.72-.35,3.17a20.51,20.51,0,0,0,7.46,4c10.76,3.7,22,5,33.23,6,7,.63,14,.94,21,1,9.69.15,19.36.78,29.06.25a199.48,199.48,0,0,0,20.43-1.82c5.35-.86,10.68-2,15.54-4.55,3.43-1.83,3.44-2.64.11-4.74a38.48,38.48,0,0,0-10.88-4.27c-12.86-3.43-26-4.67-39.23-5.84C191.4,603.65,183.67,603.63,174.69,603.65Z"/><path d="M857.7,599.52c4.54.64,10.15.14,15.75.56,5.4.41,10.79.86,16.19,1.31a38,38,0,0,1,4,.53c6.35,1.24,12.8,2.13,18.79,4.81a21.29,21.29,0,0,1,4.63,2.61c1.88,1.49,2.18,3.09.89,5.14a13.47,13.47,0,0,1-4.18,4,39.32,39.32,0,0,1-11.05,4.58,131.61,131.61,0,0,1-19.9,3.71c-13.69,1.61-27.42,2.33-41.2,2.78-8.37.28-16.72.1-25.05-.33-9.32-.48-18.61-1.54-27.5-4.69a23.17,23.17,0,0,1-7.5-4c-2.71-2.32-2.83-4.08-.49-6.79a17,17,0,0,1,5.83-4.14,72.13,72.13,0,0,1,16.81-5.07,276.14,276.14,0,0,1,28.51-3.86C840.34,600,848.51,599.76,857.7,599.52Zm1.3,4.13c-5.8.12-12.81,0-19.83.54-9.93.77-19.82,1.7-29.64,3.36-6.84,1.15-13.62,2.57-20,5.31a17,17,0,0,0-4.37,2.54c-1.53,1.26-1.53,1.69,0,2.83a10.7,10.7,0,0,0,1.57,1,40.32,40.32,0,0,0,10.06,3.45c12.76,2.82,25.74,3,38.71,3.09,3,0,6-.21,9.06-.31,6.21-.2,12.44-.29,18.64-.69,3.46-.23,6.94-.19,10.38-.56a200.78,200.78,0,0,0,24.75-3.71,44.84,44.84,0,0,0,13.44-5c1.18-.73,2.81-1.46,2.61-3.07s-1.9-1.69-3.09-2.2c-7.36-3.14-15.19-4.3-23-5.37C878.89,603.61,869.55,603.76,859,603.65Z"/><path d="M942.12,665.68c-1.91.19-3.42-.6-4.94-1.27s-1.64-1.17-1.07-2.67a1.62,1.62,0,0,1,2.5-1,11.68,11.68,0,0,0,4.85,1c1.37,0,1.84.68,1.8,2,0,1.13-.47,1.87-1.71,1.89C943,665.69,942.5,665.68,942.12,665.68Z"/><path d="M942.23,658.78c-2.05.08-3.81-.84-5.59-1.64-1.12-.5-.92-1.36-.56-2.24s.74-1.78,1.9-1.34a15.8,15.8,0,0,0,5.94,1.28c1,0,1.29.82,1.33,1.68s0,1.84-1.17,2.09A12.72,12.72,0,0,1,942.23,658.78Z"/><path d="M941.88,642.82a9,9,0,0,1-4.9-1.25c-1.35-.64-1.47-1.12-.86-2.54s1-1.64,2.45-1.07a13.1,13.1,0,0,0,4.38.93c1.85.06,2.37.65,2.29,2.17-.07,1.34-.52,1.68-2.37,1.76Z"/><path d="M942.16,650.76c-2.19.17-3.84-.77-5.53-1.52-1.13-.5-.9-1.37-.53-2.24s.77-1.77,1.91-1.32a15,15,0,0,0,5.69,1.17c1.28,0,1.57.94,1.56,2s-.48,1.88-1.73,1.89Z"/><path d="M942.27,672.65c-2.19.21-3.84-.74-5.55-1.46-1.09-.47-1.06-1.27-.67-2.2s.83-1.91,2.11-1.39a13.3,13.3,0,0,0,5.42,1.13c1.26,0,1.69.81,1.68,1.93s-.33,1.94-1.62,2C943.11,672.66,942.58,672.65,942.27,672.65Z"/><path d="M93,665.71c-2.64,0-3.3-.54-3.14-2.29.09-1,.56-1.69,1.65-1.66a12.68,12.68,0,0,0,5.14-1c1.4-.57,1.87-.27,2.43,1.1s.42,1.84-1,2.5C96.46,665.12,94.77,665.94,93,665.71Z"/><path d="M93.3,642.79H91.52c-1.12,0-1.56-.68-1.6-1.71S90.15,639,91.4,639a15.72,15.72,0,0,0,5.69-1.17c1.06-.48,1.62.23,2,1.17s.64,1.93-.6,2.48C96.76,642.19,95.1,643.1,93.3,642.79Z"/><path d="M93.12,658.74c-2.54,0-3.2-.45-3.21-2,0-1.11.39-2,1.67-1.91a13,13,0,0,0,5.17-1.08c1.36-.52,1.82-.18,2.41,1.22a1.54,1.54,0,0,1-.9,2.35C96.54,658,94.89,659,93.12,658.74Z"/><path d="M93.25,650.79c-2.79,0-3.4-.43-3.34-2,0-1.1.47-1.93,1.72-1.93a11.92,11.92,0,0,0,5.16-1.07c1.13-.53,1.83,0,2.27,1.07.55,1.44.47,1.94-.85,2.58C96.53,650.24,94.82,651,93.25,650.79Z"/><path d="M93.11,672.68c-2.73,0-3.36-.48-3.19-2.23.11-1,.58-1.71,1.66-1.71a11.79,11.79,0,0,0,5.17-1.07c1.11-.52,1.84-.12,2.29,1,.57,1.43.5,2-.79,2.6A9.41,9.41,0,0,1,93.11,672.68Z"/><path d="M129.91,348.7c-16.31-1.36-32.16-3.4-47.53-8.23a58.21,58.21,0,0,1-14.1-6.27A20.75,20.75,0,0,1,60.94,327c-1.89-3.41-1.55-6.4,1.06-9.32a19.33,19.33,0,0,1,5.78-4.24c6.16-3.16,12.8-4.87,19.53-6.17a230.29,230.29,0,0,1,27-3.39c8.29-.59,16.52.11,24.78.51,7.29.36,14.53,1.17,21.74,2.24a145.79,145.79,0,0,1,30.53,7.4c2.08.79,4.24,1.36,6.31,2.16,5.3,2,10.21,4.68,13.41,9.65.34.52.64,1.07,1,1.59a4.12,4.12,0,0,1-.5,5.37,29.2,29.2,0,0,1-8.59,6.67c-6.67,3.55-13.87,5.53-21.23,6.92a165.63,165.63,0,0,1-28.11,2.71c-2.49,0-5,0-7.47.06A238,238,0,0,1,198.89,359a81.34,81.34,0,0,1,18.47,8.25,27.46,27.46,0,0,1,6.38,5.23c3.46,4,3.13,8.16-.7,11.77a34,34,0,0,1-13.66,7.54,117.78,117.78,0,0,1-25.43,4.4,242.64,242.64,0,0,1-28.28.36c-22.66-.82-45-3.92-66.59-11.15a61.86,61.86,0,0,1-16.76-8.11,26.48,26.48,0,0,1-6.86-7,5.49,5.49,0,0,1-.37-5.57,15,15,0,0,1,5.18-6,31.13,31.13,0,0,1,8-4.13,82,82,0,0,1,19.52-4.18C108.37,349.3,118.93,348.78,129.91,348.7Zm17.53-1.42A170.69,170.69,0,0,0,179.17,345c7.91-1.37,15.67-3.29,22.82-7.1a27.28,27.28,0,0,0,7.13-5.11c2.19-2.28,2.31-3.19.58-5.83a23.56,23.56,0,0,0-10.26-8.25c-2.6-1.19-5.37-1.87-8-2.85-15.83-5.85-32.34-8.15-49-9.59-5.42-.47-10.84-.42-16.25-.85a64.64,64.64,0,0,0-10.13,0c-7.53.59-15,1.26-22.51,2.52-7.2,1.21-14.36,2.56-21.16,5.32a28.83,28.83,0,0,0-7.66,4.28c-3.65,3-4,6.14-1.21,10a20.46,20.46,0,0,0,5.74,5.11c6.32,4,13.33,6.32,20.52,8.09A228.26,228.26,0,0,0,147.44,347.28Zm19,47.54a164.75,164.75,0,0,0,32.33-2.27,72.21,72.21,0,0,0,15.1-4.34,26.44,26.44,0,0,0,8.32-5.69c2.64-2.59,2.81-5.36.65-8.36a17,17,0,0,0-3.4-3.38c-4-3.16-8.64-5.29-13.3-7.29-8.47-3.61-17.37-5.79-26.33-7.73a226.58,226.58,0,0,0-40.69-5.12,351.3,351.3,0,0,0-36,1A103.66,103.66,0,0,0,82.64,355a34.59,34.59,0,0,0-11.37,5.14,13.9,13.9,0,0,0-4.15,4.45,4.71,4.71,0,0,0,.2,5.28,22.44,22.44,0,0,0,5.59,5.66,56.22,56.22,0,0,0,13.21,6.91c16.85,6.4,34.46,9.3,52.27,11.21A233.6,233.6,0,0,0,166.43,394.82Z"/><path d="M889.45,349.2c-6.45-.09-12.85-.1-19.24-.69-11.28-1.05-22.45-2.62-33-7a34.18,34.18,0,0,1-11.49-7.15c-.62-.62-1.2-1.3-1.79-2a3.6,3.6,0,0,1-.47-4.42,20.06,20.06,0,0,1,5-6.49,33,33,0,0,1,9.75-5.42,171.09,171.09,0,0,1,31.59-8.69q12.91-2.08,26-3c6.3-.45,12.61-.6,18.92-.8,6.68-.22,13.31.74,19.93,1.51a142.3,142.3,0,0,1,22.52,4.22,54.34,54.34,0,0,1,11.43,4.43,18.87,18.87,0,0,1,5.25,4.06c2.55,2.93,2.85,5.67,1,9.08a20.71,20.71,0,0,1-7.53,7.4c-5.95,3.73-12.52,6-19.24,7.77a193.59,193.59,0,0,1-30.42,5.47q-5.8.6-11.6,1.25c7-.39,13.86.35,20.79.67,10.05.46,20.05,1.47,29.66,4.78a30.88,30.88,0,0,1,10.31,5.48,10.85,10.85,0,0,1,1.18,1.07c4.73,5.48,4,7.88.16,12.26a35,35,0,0,1-10.48,7.71c-8.14,4.15-16.83,6.76-25.67,8.86a261.21,261.21,0,0,1-37.63,6,295.4,295.4,0,0,1-37.86.81c-10.75-.43-21.46-1.67-31.73-5.26A33.59,33.59,0,0,1,813,384.5c-4.24-3.83-4.6-8.05-.8-12.33a33,33,0,0,1,9.21-6.76c8.35-4.56,17.36-7.31,26.53-9.6a228.7,228.7,0,0,1,35.46-6.05C885.43,349.59,887.45,349.24,889.45,349.2Zm-.32-2.11c5,0,10,.25,14.94,0q11.83-.72,23.58-2.57A155.21,155.21,0,0,0,955.13,338a47.48,47.48,0,0,0,13.94-7.15,15.63,15.63,0,0,0,4-4.59,5.91,5.91,0,0,0-.83-7.59,16.37,16.37,0,0,0-4.47-3.32,49.81,49.81,0,0,0-10.64-4.23,134.19,134.19,0,0,0-20.92-4.05c-7.76-.92-15.53-2-23.38-1.72-8.25.31-16.51.6-24.75,1.42a217.62,217.62,0,0,0-30.23,4.91,174,174,0,0,0-21.28,7,21,21,0,0,0-11,9c-1.25,2.15-1.14,2.94.53,4.76a27,27,0,0,0,7.24,5.41,69.54,69.54,0,0,0,20.17,6.71A160,160,0,0,0,889.13,347.09Zm-21,47.75a272,272,0,0,0,37.19-2.17,232.21,232.21,0,0,0,35.24-7.17,79.87,79.87,0,0,0,20.06-8.56,25.65,25.65,0,0,0,7.47-6.76,5,5,0,0,0,.09-6.19,15.81,15.81,0,0,0-5-4.72c-5.23-3.26-11.09-4.71-17-5.93-9.36-1.93-18.89-2.12-28.38-2.57A237.28,237.28,0,0,0,859.44,355c-10.21,2.06-20.33,4.48-30,8.51a58.41,58.41,0,0,0-13.3,7.31,14.28,14.28,0,0,0-3.93,4.3,5.2,5.2,0,0,0,.69,6.64,23.08,23.08,0,0,0,5.25,4.49c5.84,3.46,12.3,5.07,18.88,6.29A159.26,159.26,0,0,0,868.18,394.84Z"/><path d="M133.79,311.42A155.64,155.64,0,0,1,162.1,313c6.61,1,13.1,2.53,19.1,5.63a22.15,22.15,0,0,1,4.88,3.24c1.47,1.35,1.66,2.17.94,4a10.67,10.67,0,0,1-3.91,4.63,27,27,0,0,1-7.66,3.69,83.65,83.65,0,0,1-18,3.57,226.7,226.7,0,0,1-31.7,1c-11.37-.37-22.73-1.06-33.87-3.62a39.57,39.57,0,0,1-9.8-3.41,11.25,11.25,0,0,1-4.32-3.48c-2-2.9-1.6-5.83,1.09-8.06a19,19,0,0,1,5-3A69.94,69.94,0,0,1,101.72,313,235.89,235.89,0,0,1,133.79,311.42Zm-.22,1.86c-2.93,0-5.87,0-8.8,0a181.14,181.14,0,0,0-27.33,2.17c-5.28.86-10.51,2-15.24,4.6-5.09,2.81-5.14,6.63-.2,9.65a29.17,29.17,0,0,0,7.64,3.09c11.23,3,22.77,3.78,34.31,4.15a247.49,247.49,0,0,0,26.12-.32,139.92,139.92,0,0,0,18.48-2.32,41.63,41.63,0,0,0,11.8-4.08,11.14,11.14,0,0,0,4.54-4c1-1.71.85-2.44-.72-3.64a26.74,26.74,0,0,0-5.73-3.36,69,69,0,0,0-15.91-4.33A152.47,152.47,0,0,0,133.57,313.28Z"/><path d="M165.33,392.28c-10.13-.17-20.21-1-30.31-1.95a168.43,168.43,0,0,1-39.18-8.78,53.39,53.39,0,0,1-13.19-6.32,12.05,12.05,0,0,1-3.42-3.33,5.52,5.52,0,0,1,.43-7.13,13.66,13.66,0,0,1,3.94-3.15,41.07,41.07,0,0,1,15-5.3,178.82,178.82,0,0,1,21.79-1.48,205.49,205.49,0,0,1,47.32,5.26c8.16,1.88,16.25,3.91,23.89,7.43a42.69,42.69,0,0,1,8.86,5.4,16.79,16.79,0,0,1,3.48,3.66c1.68,2.46,1.65,3.91-.24,6.27a17.62,17.62,0,0,1-7.6,5.22,60.22,60.22,0,0,1-16.9,3.59A98.51,98.51,0,0,1,165.33,392.28Zm1.54-1.8a92.76,92.76,0,0,0,12.93-.65,58,58,0,0,0,14.84-3.06,20.16,20.16,0,0,0,6-3.33c3.27-2.73,3.33-4.34.37-7.44-3.39-3.56-7.62-5.81-12.06-7.69-7.23-3.08-14.82-4.93-22.45-6.67a210,210,0,0,0-43.33-5.05c-7.12-.11-14.2.51-21.29,1.1A39.49,39.49,0,0,0,85,362.84a15.42,15.42,0,0,0-3.39,2.56c-2.22,2.32-2.23,4.1,0,6.51a17.87,17.87,0,0,0,4.21,3.23,60,60,0,0,0,11.7,5.14,165.32,165.32,0,0,0,36.59,8.16C144.5,389.43,154.93,390.43,166.87,390.48Z"/><path d="M902,311.44c7.2-.18,14.58.05,21.94.58,7.9.58,15.77,1.41,23.41,3.67a28.93,28.93,0,0,1,8.52,3.73c4.4,3.09,4.52,7.5.26,10.77a24.7,24.7,0,0,1-7.9,3.81,89.48,89.48,0,0,1-16.46,3.26,252.51,252.51,0,0,1-38.88,1.53c-10-.34-19.9-1-29.59-3.62A34.55,34.55,0,0,1,853.23,331a11.84,11.84,0,0,1-4.24-4.34c-1.2-2.32-1-3.43,1-5.1a30.73,30.73,0,0,1,8.86-4.85,79.24,79.24,0,0,1,18.42-4.19A158.15,158.15,0,0,1,902,311.44Zm.17,1.89a188.7,188.7,0,0,0-19.46.39A108.1,108.1,0,0,0,863,317.13a34.91,34.91,0,0,0-11.09,5.13c-1.94,1.4-2.12,2.56-.74,4.49a13,13,0,0,0,5,3.92,45.36,45.36,0,0,0,11.12,3.67A135.77,135.77,0,0,0,892.73,337c8.89.18,17.78.23,26.67-.39a154.29,154.29,0,0,0,25.07-3.35,29.65,29.65,0,0,0,9.64-3.8c4.42-2.91,4.38-6.31-.08-9.08a31,31,0,0,0-8.41-3.31c-9.77-2.64-19.81-3.19-29.85-3.68C911.25,313.14,906.7,313.33,902.16,313.33Z"/><path d="M869.22,392.3c-7.46-.11-16.25-.45-24.84-2.68a28,28,0,0,1-9.07-3.76,12.53,12.53,0,0,1-4.18-4.41,3.74,3.74,0,0,1,.24-4.25,20.31,20.31,0,0,1,4.14-4.49,56.7,56.7,0,0,1,18.13-8.84,212,212,0,0,1,32.79-7.13,194.58,194.58,0,0,1,26.84-1.91,146.85,146.85,0,0,1,26.81,2,35.34,35.34,0,0,1,14.29,6.31,9.25,9.25,0,0,1,1.54,1.46c2.2,2.6,2.25,5.34.07,8a19.42,19.42,0,0,1-5.91,4.49c-6.46,3.51-13.41,5.72-20.43,7.68-5,1.41-10.16,2.62-15.29,3.72a140.82,140.82,0,0,1-15.85,2.07C889.22,391.5,879.91,392.25,869.22,392.3Zm1.17-1.84c8.62,0,17.21-.62,25.79-1.49,7.78-.79,15.56-1.49,23.19-3.34,9.16-2.23,18.27-4.62,26.89-8.56A23.68,23.68,0,0,0,954,372c2.37-2.51,2.33-4.48-.16-6.88a8.29,8.29,0,0,0-1-.86A33.64,33.64,0,0,0,940,358.65c-7.43-1.49-15-1.63-22.54-2-6.32-.35-12.61.35-18.92.55-2.21.07-4.42.39-6.63.64a239.88,239.88,0,0,0-26.49,4.67A105.17,105.17,0,0,0,845.14,369a32.21,32.21,0,0,0-10.77,7.24c-2.59,2.83-2.54,4.3.32,6.91a16.72,16.72,0,0,0,3.78,2.49,29.35,29.35,0,0,0,5.75,2.11C852.8,390,861.56,390.52,870.39,390.46Z"/></g></g></svg>