<svg xmlns="http://www.w3.org/2000/svg" viewBox="0 0 1886.57 602.3"><title>coupe_right</title><g id="Capa_2" data-name="Capa 2"><g id="Capa_1-2" data-name="Capa 1"><path d="M819.68.18c8.14,0,15.83-.12,23.5,0q14.87.3,29.73,1,15.08.72,30.15,1.88c8.91.69,17.81,1.66,26.72,2.54,7.15.71,14.32,1.34,21.45,2.23,9.51,1.19,19,2.45,28.49,4q18.46,3,36.84,6.42c18.86,3.56,37.52,8,56.09,12.84a154.5,154.5,0,0,1,16.72,6q53,20.64,105,43.57,42.42,18.57,84.29,38.35c17,8.09,34,16.33,51,24.51,4.61,2.22,9.25,4.38,13.82,6.69a16.21,16.21,0,0,0,6.9,1.69,279.57,279.57,0,0,1,33,2.75c6.8,1.07,13.57,2.34,19.72,5.69a9.21,9.21,0,0,0,4.16.94c9.26.37,18.53.68,27.79,1.17,7.82.41,15.63,1,23.44,1.57l1.43.1c8,.39,16,.7,24,1.19,7.18.44,14.34,1.1,21.52,1.6,5.1.35,10.21.44,15.31,1,6.67.69,13.4.79,20.1,1.27,6,.44,12.09,1.07,18.14,1.57,4.14.35,8.29.46,12.43,1,5.55.67,11.16.79,16.73,1.25s11.14,1.07,16.7,1.6c3.82.36,7.65.56,11.47,1,7.93.91,15.91,1.4,23.86,2.24,10,1.06,20,2.27,30,3.46,8.4,1,16.82,2,25.21,3.15,23,3.18,45.88,6.68,68.13,13.46,25.82,7.87,49.65,19.59,70.64,36.75a136.46,136.46,0,0,1,26.18,27.9,45.51,45.51,0,0,1,6.09,12.44,526.72,526.72,0,0,1,17.2,71.8c1.2,7.41,1.92,14.9,2.89,22.35a7.91,7.91,0,0,1-1.5,5.88c-1.88,2.59-3.63,5.27-5.57,7.81a11.8,11.8,0,0,0-2.52,7.55c.1,24.48.1,49,.17,73.43a40.86,40.86,0,0,1-2.24,14.14c-3.93,11-12.08,17.37-22.88,20.82a75,75,0,0,1-15.07,2.74c-5.4.57-10.84.82-16.26,1.25-6.21.49-12.42,1-18.63,1.54-.48,0-1,.1-1.43.13-7.5.41-15,.76-22.51,1.23s-15,1-22.47,1.55l-1,.08c-8.3.4-16.61.81-24.91,1.18a76.76,76.76,0,0,0-9.09.57,21.37,21.37,0,0,1-4.31.13,1.75,1.75,0,0,1-1.86-2.2,30.26,30.26,0,0,1,.85-3.24,218.92,218.92,0,0,0,7.79-64.53c-1.12-21.39-4.72-42.25-13.26-62.07a151,151,0,0,0-29.55-45.11,192.59,192.59,0,0,0-43.15-34.11,158.75,158.75,0,0,0-55.79-19.64,151.47,151.47,0,0,0-35.91-1,170.12,170.12,0,0,0-69.49,21.86,192.44,192.44,0,0,0-27.27,18.7c-10.92,8.92-19.57,19.76-26.88,31.69-9.68,15.8-16.43,32.87-21.66,50.59a351,351,0,0,0-10.29,48.29q-2.28,15.42-3.37,31c-.81,11.32-1.61,22.64-1.79,34a13.53,13.53,0,0,1-.14,1.91c-.27,1.79-1,2.48-2.84,2.65-1.11.1-2.23.08-3.35.07-11.52-.08-23,.15-34.55-.35-21.91-.94-43.84-.13-65.73-1s-43.83-.13-65.72-1-43.52-.12-65.25-1-43.51-.12-65.24-1-43.52-.12-65.25-1c-21.91-.84-43.83-.12-65.72-1-21.59-.84-43.2-.12-64.77-1-21.91-.85-43.83-.1-65.72-1-21.11-.83-42.24-.1-63.33-.94-21.75-.85-43.51-.13-65.24-1s-43.52-.12-65.25-1c-18.07-.7-36.14-.4-54.21-.75a41.16,41.16,0,0,1-4.3-.24,2.53,2.53,0,0,1-2.53-2.42c-.07-.48-.09-1-.12-1.44-.31-6.7-.48-13.42-1-20.12-.59-8.13-1.26-16.26-2.23-24.35q-2.26-19.07-6.39-37.83c-4.31-19.76-10.2-39-19.06-57.23-6.81-14-15.19-27-26.5-38a120,120,0,0,0-17.71-13.92c-20.62-13.54-43.2-22-67.48-26.27a206.26,206.26,0,0,0-45.88-2.55c-17.44.87-34.08,5.34-50,12.44a173.84,173.84,0,0,0-35.44,21A162.93,162.93,0,0,0,251,364.69c-11.4,20.14-18.37,41.8-22.18,64.55a280.41,280.41,0,0,0-3.15,29.07c-.48,7.68-.62,15.34-.54,23,0,2.72.27,5.43.45,8.14a24.17,24.17,0,0,1-.08,6.69,1.89,1.89,0,0,1-2,1.68,25.6,25.6,0,0,1-3.81-.37c-28.42-5.44-56.83-10.9-85.15-16.88C119.2,477.34,104,473.7,88.7,470.15a89,89,0,0,1-36-17.3c-4.12-3.3-8.36-6.45-12.45-9.79a8.51,8.51,0,0,0-5.67-2.15c-2.08,0-4.16-.06-6.24,0a9.13,9.13,0,0,1-9.12-5.75c-1.7-3.62-3.49-7.19-5.3-10.76-1-1.91-1.62-3.84-1-6a4.17,4.17,0,0,0-.83-3.6c-1-1.61-2.09-3.22-3.06-4.88a17,17,0,0,1-2.48-9.6c.14-3.36,0-6.72,0-10.08a10.55,10.55,0,0,0-1.69-6.38c-.26-.39-.48-.82-.72-1.24C.05,375.14-.39,373,.23,364.76c.16-2.16.84-3.64,3.2-4.07A13.75,13.75,0,0,0,7,359.36a14.18,14.18,0,0,0,8.25-12.08c.12-1.43.06-2.88.05-4.32,0-4.64,0-9.28,0-13.92,0-10.24.83-20.44,1.75-30.63s2.28-20.34,4-30.43a239.13,239.13,0,0,1,11.38-43.57c5.22-14,12.93-26.38,24.11-36.47a98.38,98.38,0,0,1,29.36-17.87,190.19,190.19,0,0,1,38.77-10.71c7.39-1.3,14.8-2.76,22.26-3.4,5.92-.51,11.09-2.53,16.37-4.93,29.69-13.55,59.84-26,90.36-37.59C281.16,103,308.88,93.11,336.86,84q50.86-16.58,102.56-30.35Q482.32,42.29,525.71,33c22.82-4.84,45.74-9.24,68.77-13,16.88-2.79,33.76-5.45,50.73-7.62C657.1,10.82,669,9.24,680.88,7.87c7.94-.91,15.91-1.5,23.87-2.21,9.7-.87,19.41-1.79,29.12-2.56,5.1-.4,10.21-.53,15.32-.94,6-.48,12.13-.8,18.19-.93C785,.84,802.54-.47,819.68.18ZM1851.22,289.31l-1-1.94a47.37,47.37,0,0,0-14.71-16,17.61,17.61,0,0,0-5.17-2.43,6.86,6.86,0,0,0-3.29-.36c-2.91.52-3.66,1.84-1.7,4.14a106,106,0,0,1,11.91,16.7c.71,1.25,1.54,2.42,2.31,3.62,1.26,2.92,2.59,5.81,3.74,8.76s2.13,5.94,3.19,9c5-2.76,5-2.76,11.39-1.76a7,7,0,0,0,0-1.38c-.12-.6-.19-1.27-.86-1.63-1.18,0-1.89,1-2.94,1.33-2.6.75-5,.64-7.11-1.33a3.39,3.39,0,0,1,.08-5.07,6.5,6.5,0,0,1,3.92-1.52c1.4-.14,2.8.56,4.48-.14A31.53,31.53,0,0,0,1851.22,289.31Zm-1317.74-137c-3.18-2.56-5.51-4.26-7.65-6.16a175.32,175.32,0,0,1-30-35.4c-.26-.4-.52-.8-.76-1.22-1-1.8-.84-2.61.86-3.53s3.14-1.58,4.75-2.29a618.7,618.7,0,0,1,93.09-32.88q35-9.35,70.7-15.53c20.17-3.49,40.4-6.43,60.77-8.42,3.82-.37,7.63-.81,11.44-1.19,5.41-.52,10.82-1.1,16.23-1.5,6.54-.48,13.12-.49,19.62-1.24,8.92-1,17.89-1,26.82-1.34,18.22-.8,36.47-.54,54.7-.17,4.79.1,9.56.77,14.37.7,15.52-.2,31,.47,46.47,1.8q14.34,1.25,28.61,2.89c11.76,1.35,23.45,3.13,35.08,5.25a630.18,630.18,0,0,1,105,28.53,603.56,603.56,0,0,1,100.85,47.87,515.08,515.08,0,0,1,55.48,37.82c5.4,4.26,10.8,8.52,15.83,13.23a9.53,9.53,0,0,0,6.84,2.9c15.36,0,30.71,0,46.06.77,8.14.39,16.31.23,24.47.31,1.28,0,2.56,0,3.84-.06s2.06-1.16,1.44-2.34c-2.53-4.78-5.41-9.16-11.64-9.36-1,0-1.91-.24-2.86-.33a100.11,100.11,0,0,1-32.32-8.5,53.94,53.94,0,0,1-13-8.14,55.65,55.65,0,0,0-7-5.08q-35.22-22-71.85-41.56c-16.66-8.89-33.5-17.41-50.61-25.39-12.32-5.75-24.7-11.36-37.25-16.61-14.91-6.24-29.91-12.22-45.33-17.09-2.44-.77-4.9-1.47-7.34-2.26a10.13,10.13,0,0,1-4.53-2.58,2.92,2.92,0,0,1,.2-4.28,11.75,11.75,0,0,1,2.92-1.58c2.52-1,5.1-1.88,7.64-2.85.65-.24,1.61-.25,1.47-1.48a13,13,0,0,0-1.73-.7c-11.37-2.65-22.72-5.39-34.12-7.9-14.67-3.23-29.45-6-44.29-8.34-9.16-1.47-18.33-2.84-27.52-4-9.51-1.23-19.05-2.23-28.59-3.23-8.9-.92-17.8-1.82-26.72-2.53-9.4-.75-18.81-1.39-28.23-1.85-9.9-.49-19.81-.92-29.72-1-24.47-.26-48.94-.39-73.4.81C763.77,5.71,755,6,746.2,6.41c-.48,0-1,.09-1.44.13-6.69.52-13.38,1.07-20.07,1.57-5.58.43-11.17.7-16.74,1.23-8,.76-15.89,1.66-23.83,2.54-12.23,1.37-24.48,2.58-36.67,4.22q-22.82,3.06-45.53,6.76c-15.93,2.63-31.79,5.64-47.68,8.53-4.49.82-9,1.83-13.81,2.84a48,48,0,0,1,5.08,2.53c2.81,1.84,3.31,4.73,1.33,7.46a14.8,14.8,0,0,1-3,3,56.39,56.39,0,0,1-5.21,3.43A119.51,119.51,0,0,1,523,58C501.6,66.7,479.55,73.35,457.5,80c-26.8,8.09-53.94,14.93-80.75,23Q342.06,113.39,307,122.54c-25.07,6.52-50.11,13.19-75.67,17.6-7.4,1.27-14.8,2.6-22.37,2.49-2.9,0-5.77-.18-8.31-1.82a3.34,3.34,0,0,0-3.21-.22c-.74.29-1.5.56-2.23.89-11.54,5.13-23.12,10.19-34.61,15.44a31.6,31.6,0,0,1-10.1,2.82c-9.23.93-18.39,2.39-27.5,4.12A181,181,0,0,0,86.64,174.3c-10.4,4.35-20,10-28.3,17.75a85.38,85.38,0,0,0-20.72,30.81,210.7,210.7,0,0,0-11.24,39.63A364.32,364.32,0,0,0,21.24,300c-.93,10.68-1.78,21.35-1.73,32.07q0,5.28.08,10.56c0,1,0,1.92,0,2.88-.12,8.09-3.62,14.09-10.94,17.75-.9.44-2.3.42-2.28,2a17.5,17.5,0,0,0,5.27,2.35,287.73,287.73,0,0,0,30.92,8.71c20.71,4.84,41.65,8.51,62.59,12.2,1.1.19,2.22.27,3.32.46s1.87.47,2.82.56,1.89.6,2.81-.24c-2.68-.65-5.32-1.27-8-1.95-12.1-3.1-24.08-6.52-35.51-11.65-10.23-4.6-18.13-11.94-24.54-20.92a29.06,29.06,0,0,1-5.18-22.32c.77-4.57,1.35-9.19,2.4-13.7,2.14-9.18,3.56-18.53,6.43-27.55.66-2.06.11-2.77-1.93-2.73a62.26,62.26,0,0,0-6.69.43,67.7,67.7,0,0,1-11,.38c-4.42-.12-5-.82-4.16-5.29,3-15.77,7.52-31.09,14.47-45.61a79.87,79.87,0,0,1,10.62-16.51,34.38,34.38,0,0,1,13.7-10.24A24.73,24.73,0,0,1,78.83,210a44.4,44.4,0,0,1,17.45,7.56,26.12,26.12,0,0,1,2.29,1.75,3.12,3.12,0,0,0,4.33.32c.52-.38,1.08-.7,1.62-1a120,120,0,0,1,23.85-11.18,136.52,136.52,0,0,1,35.69-6.82c4.62-.3,9.24-.79,13.85-1.22,5.57-.51,11.13-1.08,16.7-1.57,4.94-.43,9.88-.77,14.82-1.2,6.52-.56,13-1.19,19.57-1.77,4.61-.41,9.23-.78,13.85-1.19,6.05-.52,12.09-1.11,18.15-1.58,5.89-.45,11.8-.76,17.7-1.19,6.69-.5,13.37-1.16,20.07-1.59q15.78-1,31.59-1.81c9.26-.45,18.53-.89,27.8-1,14.4-.21,28.8-.07,43.2-.26,12.65-.16,25.25.75,37.88,1.18.8,0,1.59.11,2.39.18,5.41.51,10.81,1.08,16.23,1.51,8.93.72,17.78,2,26.61,3.49,7.08,1.22,14.14,2.59,21.22,3.85,3.62.64,7.28,1.06,10.88,1.78a229.68,229.68,0,0,1,68.8,26.06c34,19.35,61.46,45.72,83.41,78a304.16,304.16,0,0,1,29.85,56.28c3.15,7.7,6,15.5,8.58,23.43.38,1.21,1,2.39.73,3.71a1.59,1.59,0,0,1-.86,1,1.57,1.57,0,0,1-1.29-.23,5.91,5.91,0,0,1-1.5-2.94c-1.49-4.22-2.95-8.46-4.48-12.67a302.19,302.19,0,0,0-36.15-70.19,249.69,249.69,0,0,0-51.91-54.87,235.67,235.67,0,0,0-50.63-30A209.7,209.7,0,0,0,508.37,200c-3.16-.48-6.37-.71-9.48-1.42-18.91-4.31-38.13-6.49-57.43-7.82-10.36-.71-20.74-1.52-31.15-1.25-2.72.07-5.44,0-8.16-.05-24.32-.29-48.62.22-72.92,1.2-.64,0-1.27.07-1.91.12-8.13.53-16.27,1.09-24.4,1.59-7.18.43-14.37.8-21.55,1.2-.48,0-.95.11-1.43.15-6.37.53-12.74,1.08-19.11,1.57-5.58.44-11.18.6-16.73,1.27-4,.49-8,.57-11.95,1-5.25.52-10.49,1.1-15.74,1.56-8.76.78-17.54,1.32-26.27,2.28-4,.43-8,.58-11.95,1-5.08.53-10.16,1.2-15.26,1.51a130.3,130.3,0,0,0-31.51,5.86,111.51,111.51,0,0,0-26,12.13c-2.06,1.3-2.25,1.83-1.12,3.88,4,7.35,3.54,14.73.25,22.14a46.42,46.42,0,0,1-5.63,9.47,94.54,94.54,0,0,1-29.72,25.36,29.71,29.71,0,0,1-9.35,3.65c-5.85,1-5.55,1.87-7,6.42-.3.91-.57,1.84-.78,2.77q-2.78,12.17-5.51,24.33a124.8,124.8,0,0,0-2.35,14.67,26,26,0,0,0,4.54,18.21c5.32,7.51,11.69,14,20,18.28,3.12,1.61,6.37,3,9.62,4.33,11.45,4.67,23.41,7.62,35.39,10.44a583.76,583.76,0,0,0,60.44,10.5c3.31.42,5.07,2.44,7,4.47,1.1,1.14,0,3.6-1.55,3.71a21.34,21.34,0,0,1-4.3-.19c-8.23-1.14-16.46-2.27-24.68-3.51-11.7-1.77-23.39-3.54-35.06-5.46-11.36-1.87-22.69-3.9-34-5.91-19.05-3.39-38-7.22-56.68-12.38-5.7-1.57-11.3-3.49-16.93-5.31-2.16-.69-3.1.49-2.81,2.42a11.61,11.61,0,0,0,1.07,3.15c.77,1.57,1.65,3.11,2.56,4.61a14.61,14.61,0,0,1,2.09,8.24c-.1,3.36.07,6.72,0,10.08a14.74,14.74,0,0,0,2.48,8.61,90.92,90.92,0,0,0,6.9,9.21c5.13,6.18,11.06,11.55,17,16.85a241.35,241.35,0,0,0,28.55,21.86,57.24,57.24,0,0,0,15.73,6.95c12.61,3.6,25.37,6.59,38.18,9.41,29.66,6.53,59.48,12.3,89.3,18.07,3.14.61,6.29,1.13,9.45,1.61,1.65.25,2.4-.37,2.48-2.07s.05-3.52,0-5.27a293.64,293.64,0,0,1,3.65-56.89,205.46,205.46,0,0,1,18.18-57.42,167.63,167.63,0,0,1,41.81-53.82,176.89,176.89,0,0,1,41.71-26.23,148.44,148.44,0,0,1,54.62-13.51,205.47,205.47,0,0,1,45.86,2.91,180.48,180.48,0,0,1,67.09,26c12.35,7.95,23.21,17.5,31.94,29.42a173.08,173.08,0,0,1,21,38.72c8.27,20.92,13.62,42.63,17.21,64.8.67,4.1,1.31,8.21,2,12.31a2.32,2.32,0,0,0,2.23,2.13c.79.08,1.59.12,2.39.13,7.51.17,15,.41,22.53.76,12,.54,24,.36,36,1,10.37.57,20.77.35,31.17.88,12.76.64,25.57.38,38.36,1.06,10.21.54,20.45.35,30.69.85,13.41.65,26.86.36,40.28,1.08,8,.42,16,0,24,.46,6.23.36,12.46.53,18.69.61,1.12,0,2.24,0,3.36,0,.65,0,1.36-.19,1.49-.92a1.9,1.9,0,0,0-.44-1.3c-3-3.75-6.07-7.44-9-11.2a6.46,6.46,0,0,0-5.45-2.43c-6.07-.06-12.14-.42-18.21-.66-12.3-.5-24.62-.31-36.92-1-10.37-.59-20.78-.28-31.17-.88-11.49-.67-23-.35-34.52-1.08-7.81-.49-15.65-.33-23.49-.83-9.72-.61-19.49-.46-29.23-1.12-8.93-.61-17.89-.79-26.83-1.25-3.51-.18-7-.57-10.51-.88-.64-.06-1.27-.16-1.9-.26a4.12,4.12,0,0,1-3.86-3.63c-.41-2.36-1-4.7-1.54-7a259.43,259.43,0,0,0-28.67-71.95,201.33,201.33,0,0,0-26.83-36.15,161.78,161.78,0,0,0-52.69-37.78,159.84,159.84,0,0,0-41.3-12.14c-5.85-.89-11.7-1.74-17.61-2.13-7.49-.49-15-1.2-22.47-1.47a176.66,176.66,0,0,0-19.65.55c-6.7.5-13.37,1.08-20,2A186.31,186.31,0,0,0,305.41,281a160.51,160.51,0,0,0-55.35,39.7c-13.9,15.3-24.6,32.69-32.93,51.55-11.67,26.41-18.33,54.16-21.9,82.72-.67,5.4-1.24,10.8-1.89,16.2a6.82,6.82,0,0,1-.68,2.25,1.39,1.39,0,0,1-1.16.58c-.39,0-1-.46-1.05-.79a16.18,16.18,0,0,1-.26-3.8c.27-3.5.6-7,1.05-10.5a356.86,356.86,0,0,1,10.13-52.23c5.28-18.69,12.12-36.74,21.69-53.7a183,183,0,0,1,31.86-41.86c20.63-20.06,45-33.63,72.58-41.41a204.42,204.42,0,0,1,36.24-6.82c8.28-.79,16.56-1.41,24.87-1.46,9.44-.06,18.84.72,28.24,1.5a225,225,0,0,1,28,4,161,161,0,0,1,49.35,19.39c21.64,12.91,39.3,30.15,53.73,50.67,19,27,31.81,56.85,39.35,89,.44,1.87.92,3.73,1.4,5.58a2.78,2.78,0,0,0,2.67,2.33c3.82.32,7.63.73,11.46,1,2.87.19,5.78,0,8.63.35,8.91,1.11,17.88.65,26.82,1.42,7.94.69,16,.46,24,.95,9.88.59,19.81.42,29.72,1,9.57.58,19.17.41,28.77.88,12.93.64,25.89.39,38.84,1.09,7.34.39,14.72.07,22.07.41,5.43.25,10.85.69,16.29.62a19.57,19.57,0,0,0,2.87-.14,1,1,0,0,0,.73-1.44,34.22,34.22,0,0,0-2.44-3.54,734.3,734.3,0,0,1-43.45-63.28c-15.9-26.17-30-53.22-40-82.25-5.6-16.23-9.91-32.75-11.12-50a46.49,46.49,0,0,0-.79-5.21,2.24,2.24,0,0,0-2-1.85,15.22,15.22,0,0,0-1.91-.16c-8.79-.28-17.57-.58-26.36-.8-4.64-.12-9.28-.07-13.92-.11-10.72-.1-21.43-.08-32.13-.87a23.54,23.54,0,0,1-2.37-.27,1.16,1.16,0,0,1-1-.94,1.26,1.26,0,0,1,.85-1.51c2-.82,4.13-.56,6.17-.33a117.87,117.87,0,0,0,12.46.49c7,.05,14.08.05,21.12.19,10.55.22,21.1.53,31.65.8,1.27,0,2.56.05,3.84,0,2.84-.12,3.37-.62,3.63-3.33s.49-5.41.71-8.12c1.41-17.33,7.07-33.06,17.7-46.91.19-.26.39-.51.57-.77s.37-.52.54-.8c.66-1,.26-1.76-1.09-1.85-10.05-.64-20.09-1.39-30.15-1.85-11-.52-22-1.3-33-1.9-11.49-.63-23-1.33-34.47-1.92-12.45-.64-24.9-1.23-37.35-1.92-10.54-.59-21.09-.74-31.64-1.06a31.83,31.83,0,0,1-6.66-.74c-3.1-.76-6.24-1.39-9.38-2-9.5-1.68-18.57-4.78-27.55-8.19a18.7,18.7,0,0,1-7.71-5.55c-8-9.54-16.13-19-24.18-28.57-2-2.32-3.94-4.63-5.79-7-1.75-2.26-1.57-3.56.62-5.28A31.46,31.46,0,0,1,482.71,98c5.94-2.37,11.85-4.82,17.83-7.08,6.44-2.42,12.94-4.67,19.42-7a7,7,0,0,1,3.71-.73,1.49,1.49,0,0,1,.93.92,1.44,1.44,0,0,1-.34,1.26,7.9,7.9,0,0,1-2.1,1.09q-4.73,1.74-9.48,3.41c-9.36,3.29-18.64,6.78-27.79,10.62a23,23,0,0,0-6.6,3.84,1.73,1.73,0,0,0-.47,2.52,36.06,36.06,0,0,0,2.31,3.06q13.33,15.75,26.69,31.48a17.45,17.45,0,0,0,7.82,5.35c3.18,1.08,6.36,2.16,9.55,3.21A44.66,44.66,0,0,0,533.48,152.35Zm781.57,119.73h.08q.24-11.5.46-23c0-2.3-.4-2.78-2.76-2.92-4.62-.26-9.25-.58-13.88-.69-15.83-.35-31.66-.13-47.49-.87-16.13-.75-32.29-.22-48.44-1-15.81-.73-31.65-.21-47.49-1s-31.65-.21-47.48-.95-32-.23-48-1-32-.22-48-1-32-.22-48-1-32-.21-48-1c-15.64-.73-31.33-.18-47-1-12-.6-24-.31-36-.4a25.05,25.05,0,0,0-3.35.16,2.06,2.06,0,0,0-1.73,1.47c-.2.6-.25,1.25-.43,1.86-1.4,4.49-3.65,6.16-8.41,6.35a22.9,22.9,0,0,1-8.51-1.15,3.67,3.67,0,0,0-4.63,1.27c-3.11,3.91-7.42,6-12.08,7.4a34.06,34.06,0,0,1-11.41,1.07,29.57,29.57,0,0,1-14.88-4.8c-2-1.29-3.2-4-5.58-4.31s-4.72.68-7.1.82c-5.62.32-10.82-.79-14.89-5.1-1.43-1.51-3-2.93-4.28-4.54a6.94,6.94,0,0,0-4.88-2.61c-6.7-.85-13.42-.41-20.13-.52-2,0-2.49.61-2.42,2.68a128.06,128.06,0,0,0,1.73,17.16,239.69,239.69,0,0,0,12.23,43.84,416.86,416.86,0,0,0,28.87,60,705.27,705.27,0,0,0,53.88,79.92c.39.51.8,1,1.18,1.51a6.45,6.45,0,0,0,5.32,2.72c5.27.16,10.54.58,15.81.71,12.63.32,25.26.22,37.89.87,13.73.7,27.49.29,41.24,1s27.5.27,41.25.94c14.69.71,29.41.28,44.12,1,14.37.69,28.78.28,43.17.94,15.49.71,31,.27,46.52,1,15.17.7,30.38.25,45.57.94,16.13.73,32.29.26,48.44,1,16,.7,32,.25,48,.95,16.77.73,33.58.13,50.36,1,10.86.55,21.76.26,32.63.33,1.12,0,2.24,0,3.35-.13a2.4,2.4,0,0,0,2.25-2.14,10.93,10.93,0,0,0,.2-1.9c0-7.2.42-14.38.59-21.57.54-23.67.11-47.34.94-71,.74-21.41-.06-42.86,1-64.28C1315.32,284.9,1315.05,278.48,1315.05,272.08Zm403.6-49.74c-.06.25-.12.49-.19.74,1.17.46,2.34.93,3.52,1.38A360.15,360.15,0,0,1,1764.7,244a109.82,109.82,0,0,1,18.37,12.18,13.12,13.12,0,0,0,3.67,2.23,33.6,33.6,0,0,1,12.1,8.44c8.68,9,14.09,19.69,17,31.75,1.23,5.05,1.12,10.16.8,15.27a16.85,16.85,0,0,1-1.83,6.43c-3,6-8.74,8.59-15.22,7a27,27,0,0,1-12-6.75c-12.33-11.52-19.44-25.77-20.8-42.53-.62-7.78.63-15.47,8.59-19.92,1.06-.59,1.06-1.56.09-2.34s-1.78-1.34-2.71-2a176.82,176.82,0,0,0-16.62-9.59c-21.1-10.91-43.32-19-65.73-26.72a27.09,27.09,0,0,0-4.18-1c-4.57-.76-9.16-1.41-13.73-2.18-14.82-2.51-29.72-4.4-44.62-6.29-14-1.76-27.94-3.23-41.92-4.79-3.81-.43-7.63-.76-11.45-1.11-4.77-.43-9.55-.82-14.33-1.26-5.56-.52-11.12-1.12-16.7-1.59s-11.18-.6-16.72-1.29c-4.46-.57-8.94-.57-13.39-1-6.05-.55-12.1-1.12-18.15-1.52-7.5-.5-15-.83-22.51-1.24-.48,0-1-.08-1.43-.12-7.33-.51-14.66-1.12-22-1.51-9.58-.51-19.16-.84-28.75-1.24-.48,0-1,0-1.43-.08-9.54-1.25-19.17-.6-28.74-1.48-7.46-.69-15-.49-22.51-.9-11.33-.61-22.7-.44-34-1.06-7.82-.43-15.67-.23-23.51-.34a65.11,65.11,0,0,1-6.71-.25,134.14,134.14,0,0,0-16.77-.35c-.24,0-.48.35-.7.53-.13.74.38,1.17.79,1.63,2.9,3.2,5.82,6.38,8.7,9.6A140.82,140.82,0,0,1,1310.88,219c3.87,6.29,7.16,12.86,8.69,20.18a10.7,10.7,0,0,0,.55,1.83,2.57,2.57,0,0,0,2.1,1.75,23.78,23.78,0,0,0,2.39.17c11.18.36,22.38.58,33.56,1.11,9.58.45,19.16.86,28.76,1,.48,0,1,.05,1.43.08,10.54.52,21.07,1.1,31.61,1.56,10.86.47,21.73.83,32.59,1.24.48,0,1,.07,1.44.1,9.09.52,18.18,1.09,27.28,1.55s18.21.82,27.31,1.23a3.88,3.88,0,0,1,.48,0c7.61,1.13,15.31.89,23,1.44,10.36.75,20.74,1.29,31.1,2a199.24,199.24,0,0,1,20,2.36,203.78,203.78,0,0,1,50,14.79,185.19,185.19,0,0,1,84,74.67,117.34,117.34,0,0,1,8.78,17.05,18.7,18.7,0,0,1,1,3.19,1.56,1.56,0,0,1-.6,1.2,1.19,1.19,0,0,1-1.71-.25,29.93,29.93,0,0,1-2.08-3.76,182.45,182.45,0,0,0-105.5-95c-20.68-7.27-42.06-10.81-63.92-11.69-1.76-.07-3.52-.15-5.27-.26-7.82-.51-15.62-1.11-23.44-1.54-8.94-.49-17.88-.84-26.83-1.25-.32,0-.63,0-1-.07-8.3-.52-16.58-1.13-24.88-1.53-10.7-.51-21.41-.85-32.11-1.27-.48,0-1,0-1.44-.09-9.38-1.14-18.84-.61-28.25-1.46-6.83-.61-13.74-.64-20.6-.84-11.35-.34-22.68-1.08-34-1.26-5-.08-9.93-.12-14.86-.53-5.6-.46-11.19-.34-16.78-.39-2.49,0-3.21.7-3.4,3-.29,3.51-.59,7-.66,10.53-.39,18.71-.28,37.42-.91,56.13-.73,21.25-.27,42.53-.93,63.8-.73,23.34-.07,46.71-.85,70-.05,1.55.55,2.34,2.22,2.6a44.52,44.52,0,0,0,6.2.57c8.15.11,16.31.08,24.47.2,8.47.13,17-.13,25.42.71a50.74,50.74,0,0,0,7.19,0,2.47,2.47,0,0,0,2.63-2.3c.17-.78.2-1.58.32-2.37a384.33,384.33,0,0,1,7.59-39.07c5.13-20.24,12-39.79,22.31-58,9.67-17.07,22.07-31.69,37.94-43.35a191,191,0,0,1,53.86-28,160.93,160.93,0,0,1,99.54-1c32.68,10.55,59.82,29.56,82.22,55.26,18.26,20.94,29.47,45.51,34.86,72.74a202.31,202.31,0,0,1,3.15,23.27,180.41,180.41,0,0,1,0,30.66c-.48,5.45-.32,5.79,5.14,5.81q20.4.09,40.79.12a37.6,37.6,0,0,0,3.83-.13c1.4-.13,2.15-.9,1.87-2.22-.88-4.06.56-7.55,2.37-11,.52-1,1-2,1.47-3,6.61-15.77,15.75-30,26.43-43.27a54.83,54.83,0,0,1,20.41-15.56c12.14-5.51,25-7.83,38.16-8.46,1.27-.06,2.55-.06,3.83-.1a3.64,3.64,0,0,0,3-1.3c2.18-3,4.31-6,6.42-9a1,1,0,0,0-.77-1.41,13.54,13.54,0,0,0-1.91,0c-5.57.51-11.12,1.16-16.7,1.53-7.81.51-15.64.83-23.46,1.23-.64,0-1.29,0-1.92.11-8.12,1.1-16.29.66-24.44.69a9.72,9.72,0,0,1-4.23-.69c-.6-.27-1.12-.63-1.15-1.37a1.92,1.92,0,0,1,1.22-1.89,7.93,7.93,0,0,1,3.78-.3c12.81.51,25.57-.73,38.35-1.12.32,0,.64-.05,1-.07,8-.59,15.93-1.21,23.9-1.77a24.6,24.6,0,0,0,5.66-.92,2.19,2.19,0,0,0,1.68-2.09,19.69,19.69,0,0,0-.09-3.35c-.63-4.92-1.18-9.85-2-14.73-.53-3.11-.65-6.33-2.07-9.88-.43,2.06-.71,3.62-1.06,5.15a26.75,26.75,0,0,1-14.44,18.72,46.33,46.33,0,0,1-18,4.69c-7.17.51-14.36.76-21.54,1.13-1.12.06-2.23.22-3.35.29-3,.19-6.06.39-9.09.53a9.53,9.53,0,0,1-2.37-.27c-.23-.05-.46-.41-.58-.68a.81.81,0,0,1,.56-1.12,63.61,63.61,0,0,1,7.1-1c8.62-.48,17.25-.8,25.87-1.26a52.52,52.52,0,0,0,18.21-3.81c8.41-3.64,13.65-9.95,15.06-19a44.65,44.65,0,0,0-.28-14.81,93,93,0,0,0-7.92-23.08,83.57,83.57,0,0,0-6.57-11.68c-.24.3-.44.46-.41.53.63,1.46,1.28,2.92,2,4.36,4.1,8.77,7,17.86,7.48,27.6.22,4.69-.2,9.3-2.67,13.44a10.65,10.65,0,0,1-11.41,5.27,20,20,0,0,1-7.56-2.92,43.71,43.71,0,0,1-9.48-8,85,85,0,0,1-19.64-37.42,52.21,52.21,0,0,1-1.69-11.85,23.86,23.86,0,0,1,2.41-11.63c2.67-5.11,7.14-7.1,12.81-5.9a24.1,24.1,0,0,1,6.64,2.68c.55.31,1.09,1.22,2.14.25a62.86,62.86,0,0,0-12.11-9.4c-12.17-7.54-25.25-13.1-38.74-17.75a498,498,0,0,0-56.44-15.38C1727.69,224.2,1723.17,223.29,1718.65,222.34Zm-974.35-53c-4.9,0-8.25,0-11.61,0a5.43,5.43,0,0,0-4.28,1.81c-.75.82-1.55,1.62-2.23,2.5A82.58,82.58,0,0,0,714,195.34c-3.79,10.16-5.22,20.74-5.84,31.47-.16,2.77.51,3.53,3.2,3.64,6.54.29,13.11,0,19.65.76a4.47,4.47,0,0,0,3.19-.79c3.78-2.62,8-3,12.42-2.42,4.78.63,9.58.32,14.37.48a6.31,6.31,0,0,0,4.75-1.87,25.73,25.73,0,0,1,14.73-6.41c9.11-1.11,17.56.55,24.48,7.08a9.36,9.36,0,0,0,5.48,2.56c4,.51,8,.56,11.75,2.18a18,18,0,0,0,7,1.2c15.51.23,31,.14,46.53.82,16.44.71,32.93.26,49.4,1,15.33.68,30.69.25,46,.93,16.29.72,32.61.25,48.92,1,15.65.7,31.33.25,47,.94,16.29.72,32.61.24,48.92,1,15.33.71,30.69.37,46,.91,19,.67,38,.47,57.08,1.09,13.9.45,27.81.22,41.72.93,7.34.37,14.71.1,22.07.23,7.19.13,14.39-.08,21.57.67a73,73,0,0,0,8.63.1c2,0,2.49-.67,2.18-2.75a29.62,29.62,0,0,0-.85-3.73,54.19,54.19,0,0,0-5.47-12.24c-7.63-13.09-17.48-24.41-28.13-35.09a7.53,7.53,0,0,0-5.57-2.26c-7.18-.14-14.34-.1-21.54-.71-8.74-.75-17.56-.45-26.35-1-9.73-.59-19.49-.31-29.24-.94-10-.64-20.13-.32-30.2-1-9.72-.64-19.48-.32-29.24-.94-10.36-.66-20.76-.33-31.15-1-9.73-.62-19.49-.33-29.24-1-10-.63-20.13-.32-30.2-1-9.72-.63-19.49-.33-29.24-.94-10.2-.64-20.45-.35-30.68-1-9.56-.6-19.17-.32-28.76-.92-10.2-.64-20.45-.35-30.67-1-9.57-.61-19.17-.32-28.76-.92-10.37-.64-20.77-.35-31.16-1-9.41-.59-18.85-.32-28.28-.9-10.52-.65-21.09-.37-31.64-1-9.24-.57-18.53-.41-27.8-.87C768.35,170.05,755.53,170.35,744.3,169.38Zm225.12-17.76c22.38-.06,44.76.09,67.15-.56,16.3-.48,32.59-1.22,48.9-1.42,3.51,0,7-.54,10.52-.79a4.44,4.44,0,0,0,3.55-2.11c5.58-8.13,6.52-20.25,1.18-28.62a38.29,38.29,0,0,0-7.5-8.67c-6.3-5.37-13.59-9-21.14-12.11a401.3,401.3,0,0,0-43.51-15A588.81,588.81,0,0,0,917.48,61.73c-4.46-.39-8.91-.74-13.38-1-9.09-.54-18.17-1.35-27.27-1.52-19.67-.37-39.33-.26-59,.81-8,.44-16,.53-23.94,1.21-4.79.41-9.58.55-14.36.94-5.89.48-11.77,1.08-17.65,1.6-8.44.75-16.88,1.45-25.31,2.22-2.71.24-5.4.58-8.09,1a1.85,1.85,0,0,0-1.7,2.72c.32.9.74,1.77,1.13,2.64,3.39,7.6,6.76,15.2,10.18,22.78,7.11,15.74,14.27,31.45,21.31,47.22a5.82,5.82,0,0,0,5.31,3.93c9.07,1,18.2.64,27.29,1.45,7.15.64,14.36.46,21.55.92,9.25.6,18.53.47,27.8,1,10,.59,20.13.53,30.19.89,17.26.62,34.53.6,51.79,1C938.7,151.94,954.06,151.62,969.42,151.62ZM1118.51,176c-1.21-1.34-2.2-2.37-3.11-3.46a14.82,14.82,0,0,1-3.69-8.19c-.72-8,.39-15.65,4.22-22.78a22.84,22.84,0,0,1,13.12-11.32,25.74,25.74,0,0,1,11.33-1.44c4.44.53,8.9,1.09,13.26,2a41.8,41.8,0,0,1,18.08,8.5c8.44,7,13.85,16.25,18.06,26.21a13.17,13.17,0,0,1-.17,10.75c-.13.29-.3.56-.41.86-.62,1.72-.25,2.31,1.69,2.41,5.9.3,11.81.63,17.72.81,6.39.21,12.82,0,19.19.47s12.46.42,18.69.6a19,19,0,0,0,2.39-.09.87.87,0,0,0,.68-1.38,31,31,0,0,0-2.41-2.32A441.7,441.7,0,0,0,1208,148.38a586.5,586.5,0,0,0-85.57-47.31,614.41,614.41,0,0,0-111.57-37.94,590.5,590.5,0,0,0-83.66-13.82c-4-.35-8-.77-11.94-1.07-7.33-.57-14.65-1.23-22-1.56-12.46-.56-24.94-.53-37.41-.83-22.05-.54-44.12-.77-66.19.46-11.33.64-22.66,1.12-34,2-7.33.56-14.65,1.23-22,1.9-11.14,1-22.23,2.45-33.33,3.84-15.39,1.94-30.7,4.4-45.93,7.27q-28.76,5.42-57.06,12.9A629.09,629.09,0,0,0,517,101.28c-4.87,2-9.68,4.19-14.5,6.35-2.46,1.11-2.53,1.55-1,4,.26.41.53.8.8,1.2A170,170,0,0,0,528,142.43a67.09,67.09,0,0,0,14.13,9.86,25.58,25.58,0,0,0,10.45,3.28c6.07.31,12.14.81,18.21.8,11.36,0,22.68,1,34,1.4,5.74.2,11.49.57,17.24.8.8,0,1.6.08,2.39.13,8,.52,16,1.11,23.92,1.55,8.62.48,17.25.83,25.87,1.24.32,0,.64,0,1,.06l27.27,1.71c2.71.17,5.42.44,8.13.61,1.59.1,3.18.13,4.78.09a1.36,1.36,0,0,0,1.19-1.72,4.86,4.86,0,0,0-.27-.92q-2.82-6.36-5.66-12.71a3.92,3.92,0,0,0-3.35-2.36c-4.6-.55-9.2-1.16-13.8-1.67-7.14-.8-14.31-1.42-21.44-2.34-10.46-1.35-20.9-2.89-31.34-4.38A411.92,411.92,0,0,1,591.33,128a111.17,111.17,0,0,1-19-6.68,33.61,33.61,0,0,1-8.14-5c-4.94-4.4-5.06-9.55-.35-14.1a26.56,26.56,0,0,1,3-2.38,32.37,32.37,0,0,1,6.37-3.31c15.21-6.48,31-11,47.06-14.89,18.34-4.42,36.86-8,55.52-10.81q13.5-2.05,27-3.9c9.19-1.23,18.38-2.4,27.59-3.43,7.78-.86,15.59-1.49,23.39-2.19,9.7-.88,19.4-1.84,29.12-2.56q15.3-1.14,30.63-1.85c9.42-.46,18.85-.9,28.28-1,14.71-.11,29.41-.39,44.13.53,10,.63,20.11,1,30.13,2,7.47.78,15,1.31,22.42,2.24q18.56,2.32,36.94,5.76a533,533,0,0,1,84.65,22.83c8.26,3,16.53,6,24.27,10.29a57.15,57.15,0,0,1,15.85,12.29c10.13,11.57,9.47,25.41,1.5,37.64a5.57,5.57,0,0,1-4.78,2.7c-4.15.17-8.29.57-12.44.74-8.79.35-17.58.4-26.37.91-12.28.7-24.63-.05-36.92,1-36.94.07-73.89.77-110.83-.5-15.66-.54-31.34-.11-47-1-9.57-.54-19.17-.54-28.76-.84-12.63-.39-25.24-1.15-37.87-1.37-8.31-.14-16.61-.68-24.92-1l-.48,0c-10.69-.59-21.38-1.16-32.07-1.77-2.23-.12-4.46-.42-6.69-.54-2.71-.14-5.43-.23-8.14-.24a1.31,1.31,0,0,0-1.29,2c1.57,3.68,3.2,7.33,4.85,11,2.08,4.6,2.1,4.67,7.16,4.6s9.9-.45,14.85-.5c10.24-.11,20.48-.11,30.72-.12,22.07,0,44.14.11,66.21.6,23.34.52,46.69,0,70,.86,17.26.62,34.54.59,51.8,1.19,12.63.44,25.27.59,37.87,1.28,6.39.36,12.8.36,19.17.87,6.06.5,12.13.7,18.2.93.47,0,1,.09,1.43.12q10.76.8,21.51,1.57c5.74.41,11.5.62,17.22,1.23,10.32,1.11,20.69,1.79,31,3.44A4.56,4.56,0,0,0,1118.51,176Zm235.17,322.14v.16h20.63c1.28,0,2.56,0,3.84-.08a2.71,2.71,0,0,0,2.72-2.28,45.35,45.35,0,0,0,.48-11.46,2.12,2.12,0,0,0-1.81-2,9.3,9.3,0,0,0-1.9-.22c-6.23-.09-12.46-.48-18.69-.64-20-.52-40-.14-60-.94-19.17-.76-38.37-.18-57.56-1s-38.37-.18-57.56-1-38.37-.18-57.56-1c-18.52-.76-37.09-.18-55.64-.95-18.2-.76-36.45-.2-54.68-1-17.88-.75-35.81-.18-53.72-1-17.56-.76-35.17-.16-52.76-1-16.92-.76-33.88-.19-50.84-.95-16.76-.75-33.57-.21-50.35-1-15.81-.73-31.66-.2-47.49-.95-15.48-.74-31-.22-46.52-1-14.2-.7-28.45-.2-42.68-.95-13.08-.7-26.21-.55-39.32-.89-16.62-.44-33.24-1.2-49.87-1.37-2.55,0-5.1-.39-7.65-.54-1.59-.09-3.19-.17-4.78-.11a2,2,0,0,0-2.13,2.12,15.6,15.6,0,0,0,.06,3.35,111.31,111.31,0,0,1,.89,12c.2,4.32.72,4.77,5.25,4.83,24.63.3,49.26.12,73.89.86,25.25.77,50.53.19,75.8.95,25.57.78,51.17.2,76.75,1,25.26.77,50.53.19,75.8.95,25.58.77,51.17.2,76.76,1,25.09.76,50.21.34,75.32.91,30.38.68,60.78.33,91.16,1.13,3.52.1,7,0,10.56.07,17.27.22,34.54.26,51.81.76,25.09.72,50.21.2,75.32.95,25.89.77,51.81-.11,77.71,1C1341.19,498.39,1347.44,498.16,1353.68,498.16ZM1825.5,252.07l.45-.62-4.63-4.79a60.74,60.74,0,0,1-8.23-10.59c-2-3.33-3.46-6.91-3.17-10.88a3.67,3.67,0,0,0-2.2-3.83c-1-.55-1.92-1.15-2.91-1.69A230.83,230.83,0,0,0,1769.29,204c-21.44-7.36-43.67-11-66-14.36-8.69-1.3-17.41-2.43-26.13-3.55-6.34-.82-12.69-1.52-19-2.2-7.3-.79-14.62-1.52-21.94-2.24Q1622.6,180.31,1609,179c-4.93-.47-9.87-.88-14.8-1.33-5.09-.47-10.18-1-15.27-1.42-5.9-.47-11.81-.77-17.7-1.24-10.35-.81-20.7-1.75-31-2.54-9.24-.71-18.49-1.31-27.74-1.92-10.37-.67-20.73-1.43-31.11-1.91-10.86-.51-21.7-1.19-32.55-1.89-9.57-.62-19.16-.91-28.75-1.22-3.73-.12-7.31-.52-10.6-2.47a18.15,18.15,0,0,0-3.13-1.22c-5.75-2.06-11.77-2.94-17.78-3.82a20.78,20.78,0,0,0-3.35-.07.89.89,0,0,0-.65,1.41,34.43,34.43,0,0,1,2.44,4.11,3.75,3.75,0,0,1-2.39,5.4c-2.85,1-5.77,1.83-8.71,2.58a33.75,33.75,0,0,1-8.57.84q-8.16,0-16.32.07c-2.38,0-2.71.58-1.46,2.43a23.58,23.58,0,0,1,3.53,6.78c.57,2.08,1.91,2.8,3.92,2.68.64,0,1.28,0,1.92,0l41.24,1.22,1.91.09c9.74.52,19.47,1.08,29.21,1.56,9.26.45,18.52.81,27.79,1.21.48,0,1,.09,1.43.12,7.5.52,15,1.07,22.48,1.54,7.34.45,14.68.81,22,1.21.63,0,1.27.13,1.91.18,6.37.51,12.73,1,19.11,1.52,5.89.45,11.8.75,17.69,1.26,8.92.77,17.82,1.69,26.72,2.51,8.28.76,16.57,1.37,24.83,2.24,10,1.05,20,2.34,30,3.46,12.38,1.39,24.73,3,37.08,4.72,16.8,2.28,33.52,5,50.19,7.94a656.75,656.75,0,0,1,74.7,17.4c16.09,4.87,31.86,10.6,46.59,18.88A17.22,17.22,0,0,0,1825.5,252.07ZM608.29,492.13v-.36H576.14c-1.12,0-2.25,0-3.36.06-2.35.2-3,.91-3.15,3.34,0,.64,0,1.28,0,1.92.06,4.5.42,4.88,4.94,5,16.47.28,32.94.21,49.41.78,21.89.75,43.8.2,65.71,1,21.57.76,43.17.22,64.76,1,21.89.75,43.8.19,65.71,1,21.41.76,42.85.21,64.28,1,21.89.76,43.8.19,65.71,1,21.57.76,43.18.21,64.77,1,21.89.76,43.8.2,65.71,1,21.57.76,43.17.2,64.76,1,21.89.76,43.81.19,65.71,1,21.57.76,43.17.21,64.76,1,21.89.76,43.81,0,65.71,1,10.86.48,21.75.19,32.63.24,1.12,0,2.25,0,3.36-.06,2.12-.17,2.74-.78,2.88-3a55.35,55.35,0,0,0,.09-5.76c-.09-2.36-.78-3-3.27-3.15-.48,0-1,0-1.44,0-17.75-.16-35.49-.26-53.24-.78-24-.7-48-.15-72-.91-26.53-.83-53.09.07-79.63-1.05-7.35-.31-14.72-.06-22.07-.14-17.91-.18-35.81-.22-53.72-.76-24.61-.74-49.25-.14-73.87-.93-25.89-.84-51.81-.16-77.71-1-24.77-.79-49.57-.24-74.35-.92-28-.76-56-.06-84-1.11-2.56-.1-5.12,0-7.68,0-22.22-.16-44.45,0-66.67-.88-6.39-.26-12.8-.07-19.2-.12-18.86-.14-37.73-.11-56.59-.82C626.21,491.86,617.24,492.13,608.29,492.13Zm671.15-20.81v.35h26.38c1,0,1.93,0,2.88,0,2.72-.19,3.46-.83,3.6-3.44.13-2.39.1-4.8.09-7.19,0-5.16-.19-5.3-5.43-5.4-13.26-.27-26.53-.21-39.79-.77-17.25-.74-34.53-.23-51.79-1-15.64-.7-31.32-.21-47-.92-16.44-.74-32.92-.25-49.38-1-14.85-.69-29.73-.24-44.59-.91-16-.72-32-.27-48-1-13.73-.65-27.48-.25-41.23-.89-15.32-.71-30.68-.29-46-1-13.08-.64-26.2-.25-39.31-.9-14.2-.7-28.45-.18-42.66-1-7-.42-14.07-.17-21.11-.28-4.47-.06-8.94-.09-13.41-.58a79,79,0,0,0-9.11-.09c-1,0-1.54.93-1,1.63q5.13,6.33,10.34,12.6a4.57,4.57,0,0,0,3.39,1.55c3.83.25,7.66.62,11.49.72,12.14.3,24.29.23,36.43.88,12.45.67,24.93.3,37.4,1s24.92.29,37.39.95c12.92.68,25.88.28,38.83,1s25.89.28,38.83.94c13.89.7,27.81.29,41.71,1s27.81.28,41.72,1c14.84.71,29.72.27,44.59,1,15.32.72,30.68.48,46,.91,21.09.59,42.2.55,63.3,1.14C1269.2,471.45,1274.32,471.32,1279.44,471.32ZM205.52,137.78c.93.89,2.1.52,3.15.56a84.49,84.49,0,0,0,17.17-1.44c14.37-2.34,28.57-5.48,42.71-8.87,26.9-6.46,53.58-13.75,80.2-21.28,26.3-7.45,52.48-15.34,78.85-22.54,25-6.81,49.83-14.19,74.3-22.74,9.51-3.32,19-6.8,28.12-11a62.85,62.85,0,0,0,10.82-6.17c1.12-.82,2.56-1.72,2.1-3.44-.39-1.42-1.8-1.73-3.06-2-6.28-1.25-12.51-2.16-19-.67-22.44,5.14-44.88,10.27-67.18,16-37.33,9.6-74.31,20.43-111,32.25-23.59,7.61-47,15.8-70.25,24.37Q240.08,122.76,208.17,136C207.22,136.43,206,136.47,205.52,137.78Zm499.87,4.93c1.39.09,2.09-.78,1.61-2.1-.38-1.05-.86-2.07-1.32-3.09Q694.36,112.11,683,86.69c-1.5-3.35-3-6.71-4.53-10.06a3.49,3.49,0,0,0-3.8-2.29c-1.43.15-2.87.24-4.29.47-2.52.42-5,1-7.54,1.39a529.25,529.25,0,0,0-64.5,14.66,235.76,235.76,0,0,0-23.93,8.57,30.5,30.5,0,0,0-7.8,4.66c-3.56,3-3.72,6.23-.43,9.4a20.52,20.52,0,0,0,4.21,3.14,73.15,73.15,0,0,0,6.91,3.33,125.84,125.84,0,0,0,17.78,5.76,361.71,361.71,0,0,0,35.68,7.35c12,1.9,24,3.54,36.05,5.19,6.33.86,12.69,1.51,19,2.24Q695.63,141.63,705.39,142.71ZM1060.53,42.36c.56,1.09,1.63,1.12,2.49,1.36,12,3.35,23.68,7.83,35.27,12.43a1010.24,1010.24,0,0,1,99.12,46.11q38.19,20.2,74.89,43a56.7,56.7,0,0,1,9.34,6.7,37.23,37.23,0,0,0,8,5.3c12.31,6.74,25.7,9.79,39.53,10.55,10.84.6,21.74.14,32.62.15a12.11,12.11,0,0,0,4.67-.95,1,1,0,0,0,.4-1.56,15.8,15.8,0,0,0-1.84-1.52c-4.64-3.21-10-4.92-15-7.45a3.17,3.17,0,0,0-1.39-.31c-2.84,0-5.23-1.31-7.68-2.5-18.83-9.18-37.59-18.5-56.53-27.47q-45.3-21.47-91.23-41.58c-34.59-15.12-69.39-29.7-104.56-43.42-3.42-1.33-6.87-2.62-10.31-3.91-1-.39-2.16-1-3.25-.61-3.79,1.26-7.54,2.64-11.3,4C1062.57,41.06,1061.26,41.2,1060.53,42.36ZM579.85,457.42c-2.4,0-4.8,0-7.2,0a36.06,36.06,0,0,0-4.29.25,1.68,1.68,0,0,0-1.35,1.74,2,2,0,0,0,1,2,3.73,3.73,0,0,0,1.37.38c2.71.29,5.41.7,8.12.78,8.94.29,17.89.43,26.84.91,11.49.61,23,.36,34.52.95,13.25.67,26.53.33,39.8,1,14.37.69,28.77.3,43.17,1,15.32.7,30.69.28,46,1,16,.71,32,.26,48,1,16.76.73,33.57.24,50.36,1s33.57.27,50.36.95c17.89.73,35.81.25,53.72,1,17.57.72,35.17.22,52.76.94,18.53.75,37.09.22,55.64,1s37.09.22,55.64,1c19.17.76,38.37.22,57.56,1,18.85.74,37.73.28,56.6.92,20.93.71,41.9.22,62.84,1.06,8.78.35,17.59.08,26.39.22,9,.14,17.9-.06,26.85.67,4.77.39,9.59.12,14.39.14.32,0,.64,0,1,0,.81-.07,1.69-.19,1.67-1.24,0-.77-.8-1-1.43-1-1.43-.09-2.87-.09-4.31-.11-21.91-.22-43.81,0-65.72-.64-24.29-.7-48.61-.36-72.91-1.08-15.82-.47-31.66-.31-47.48-1-13.74-.56-27.49-.24-41.25-.85-16-.7-32-.3-48-1.06-12.77-.6-25.57-.25-38.36-.86-14.69-.71-29.41-.3-44.12-1.05-12.13-.62-24.29-.24-36.44-.89-13.41-.71-26.85-.27-40.28-1-12-.65-24-.27-36-.91-12.92-.7-25.89-.28-38.84-1-11.64-.65-23.33-.27-35-.91-12.6-.7-25.25-.3-37.88-1-11.32-.64-22.68-.29-34-.92-12.28-.67-24.61-.3-36.91-1-11-.63-22.05-.29-33.08-.92-12-.67-24-.3-36-1-10.69-.64-21.41-.38-32.12-.89C607.67,458,593.74,458.46,579.85,457.42ZM35.91,285.92c1.44,0,2.89.08,4.32,0,1.59-.12,3.16-.49,4.76-.59,6.47-.4,6.49.56,9.72-6.95C63.58,257.73,76.26,239.92,94,225.9a17.61,17.61,0,0,0,2.14-1.9,1.56,1.56,0,0,0,0-2.18,9.27,9.27,0,0,0-1.72-1.65,41.24,41.24,0,0,0-12.36-6.24,22.67,22.67,0,0,0-13.23-.33c-6.55,2-11.59,6-15.84,11.14a78.7,78.7,0,0,0-10.5,17.14c-6,12.84-9.86,26.34-12.78,40.15a13.46,13.46,0,0,0-.28,1.89,1.85,1.85,0,0,0,1.69,2C32.71,286,34.31,285.92,35.91,285.92Zm1742,192.39v.1q-23.27,0-46.55,0c-1.43,0-2.87.06-4.3.21a2.45,2.45,0,0,0-2.29,2.12c-1.33,7.4-2.87,14.75-4.68,22.05-.29,1.21.65,2,2.09,1.89,2.87-.18,5.74-.45,8.61-.59,3-.15,6.08-.11,9.11-.29,8.29-.51,16.58-1.17,24.87-1.61,9.42-.49,18.83-1.05,28.23-1.78a33.17,33.17,0,0,0,11.46-3.17c8.25-3.77,15.35-9.18,22-15.2a21.65,21.65,0,0,0,2-2.1.94.94,0,0,0-.64-1.45c-1.43-.09-2.87-.17-4.31-.17ZM740.39,145.06c2.39,0,4.79.05,7.19,0a1.45,1.45,0,0,0,1.43-2,13,13,0,0,0-.68-1.8c-1.65-3.64-3.32-7.27-5-10.91q-9.47-20.73-18.93-41.47c-2.59-5.67-5.16-11.36-7.84-17-1.52-3.18-2.17-3.42-5.66-3-4.6.61-9.19,1.19-13.78,1.82q-3.33.46-6.62,1.09A1.66,1.66,0,0,0,689.21,74q1,2.72,2.14,5.34Q703.71,106.7,716.1,134q1.7,3.7,3.36,7.43a3.74,3.74,0,0,0,3.69,2.53C728.92,143.89,734.61,145.21,740.39,145.06ZM1832.18,449.57h-.34c0,3.51,0,7,0,10.53a2,2,0,0,0,1.46,2.2c4.37.92,8.62,2.45,13.15,2.46q9.11,0,18.22,0a17.12,17.12,0,0,0,2.86-.2,2.62,2.62,0,0,0,2.38-2.58,23.25,23.25,0,0,0-.35-3.8q-3.15-21.33-6.34-42.64c-.31-2.06-.58-4.12-1-6.15-1.16-5.21-4.23-7.57-9.56-7.47-.64,0-1.28.05-1.91.11-2.55.24-5.09.46-7.63.76s-5.4.59-8.06,1.08c-3.54.65-4.76,2.25-4.8,6,0,1.6.07,3.2.15,4.79Q1831.27,432.11,1832.18,449.57Zm39.39-7.09.51-.18c0-.48.11-.95.11-1.42q0-23.5,0-47a25,25,0,0,0-.11-2.87c-.22-1.81-1-2.53-2.78-2.68a31.38,31.38,0,0,0-3.36,0,98.77,98.77,0,0,0-26.36,4.62c-10.57,3.32-20,8.47-27.13,17.25a202.32,202.32,0,0,0-18.68,27.27c-3.82,6.69-6.52,13.9-10.13,20.66a14,14,0,0,0-1.08,3.17,5,5,0,0,0,1.46,4.83,5.31,5.31,0,0,0,3.89,1.58q4.56.12,9.12.15c3,0,6.07,0,9.11-.07,1.23,0,1.64-.9.89-1.94a13.93,13.93,0,0,1-2.83-9.45,39.34,39.34,0,0,1,1.37-8,205.31,205.31,0,0,1,13.8-34.72,35.85,35.85,0,0,1,7.83-10.24,14.33,14.33,0,0,1,8.11-3.83c5.71-.64,11.43-1.34,17.16-1.68,5.1-.31,9.46,1.35,12.16,6.08a16.61,16.61,0,0,1,1.89,5.41c.39,2.21.72,4.42,1,6.63Q1869.59,429.24,1871.57,442.48Zm-522.29,29.76v.11h26.38c1.28,0,2.56,0,3.84-.06,2.3-.16,3.17-.84,3.51-3.14.46-3.16.74-6.35,1-9.53a1.88,1.88,0,0,0-1.56-2.1,9.32,9.32,0,0,0-1.9-.24c-5.9-.24-11.8-.54-17.71-.68-14.22-.34-28.45.24-42.66-.81-2.39-.18-3.32.57-3.44,2.89-.14,2.87-.12,5.75-.11,8.63,0,4.7.18,4.89,4.83,4.91C1330.74,472.26,1340,472.24,1349.28,472.24ZM56.35,283.23c4.27-.2,5.64-.44,9.2-2.29a89.12,89.12,0,0,0,31.29-26.22,34.91,34.91,0,0,0,6.29-12.82c1.07-4.62,1.1-9.18-1.35-13.47-1.26-2.21-2.2-2.56-4.16-1.09-2.43,1.81-4.8,3.72-7.05,5.74a127.45,127.45,0,0,0-27,34.52A103.54,103.54,0,0,0,56.35,283.23ZM1173.52,161.65a16.4,16.4,0,0,0-2-5.29,38.21,38.21,0,0,0-15.83-15.53,78.32,78.32,0,0,0-16.49-6.35c-7.21-2-12.82.34-17.38,5.9-3.24,3.94-4.67,8.65-5.57,13.57-.26,1.47.2,2,1.77,2.13,5.55.5,11.13.48,16.69,1.17,10.76,1.34,21.5,2.78,32.18,4.64,1.88.33,3.79.53,5.69.71C1173.09,162.65,1173.44,162.25,1173.52,161.65Zm696.14,142.26c.6-1,.08-1.86-.16-2.76q-3.57-13.44-7.79-26.7a27.72,27.72,0,0,0-3.41-7.36c-1.36-2-2.69-4-4.13-5.89a142.71,142.71,0,0,0-30.61-29.54c-2.58-1.88-5.24-3.66-7.89-5.44-.66-.44-1.47-.85-2.21-.27s-.58,1.46-.48,2.24a13.67,13.67,0,0,0,1.74,5c.94,1.66,2,3.28,3.09,4.84a82.89,82.89,0,0,0,11.3,12.38c15.88,15.11,29.36,32,39.1,51.79C1868.54,302.83,1868.66,303.76,1869.66,303.91Zm-23.42,23.49c-.14-1.82-.18-3.91-.49-5.95-2.64-17.18-10.25-32.07-21.16-45.4a10.08,10.08,0,0,0-2.09-1.93,1,1,0,0,0-1.56.53,20.62,20.62,0,0,0-1.15,8.94,76.22,76.22,0,0,0,2.27,12.69,91.42,91.42,0,0,0,9.49,21.36,66.93,66.93,0,0,0,11,13.83c.77.75,1.62,1.88,2.8,1.49,1.37-.44.83-1.87.91-2.92C1846.29,329.24,1846.24,328.44,1846.24,327.4ZM1811.7,499.14c.79,0,1.58.06,2.36,0,2.7-.24,5.39-.64,8.09-.79q10.75-.6,21.42-2a42,42,0,0,0,13.61-4.32,30.06,30.06,0,0,0,10.1-8.64,21.56,21.56,0,0,0,3.31-6.34,1.83,1.83,0,0,0-.11-1.34.85.85,0,0,0-1.26-.19c-4.28,2.61-9,2.9-13.86,2.84-5.11-.07-10.22.06-15.32,0a8.09,8.09,0,0,0-6.38,2.64c-2.1,2.18-4.38,4.19-6.63,6.22C1822.29,491.45,1817,495,1811.7,499.14Zm17-49.42c.27-4-.56-8.27-.72-12.57-.28-7.8-.66-15.6-1-23.4a7.23,7.23,0,0,0-.37-1.85c0-.14-.67-.27-.77-.16a10.76,10.76,0,0,0-1.51,1.8,84,84,0,0,0-5.67,11.59c-3.13,7.16-5.84,14.49-8.29,21.91a27.37,27.37,0,0,0-1.52,10.35c.16,2.61,1,3.55,3.45,3.63,4.14.13,8.29.14,12.43,0,2.72-.09,3.76-1.13,4-3.82C1828.84,454.82,1828.71,452.42,1828.71,449.72ZM1805.82,303.8c.12-5.68-1.48-10.85-3.6-15.87-3.7-8.76-9.08-16.47-15.23-23.65a8.39,8.39,0,0,0-9.56-2.29,1.31,1.31,0,0,0-.69,1.95c1.79,2.45,3.74,4.78,5.38,7.32,7.2,11.23,11.07,23.63,12.54,36.81.4,3.65.61,7.31.89,11,.09,1.15.27,2.26,1.56,2.69s2.06-.52,2.83-1.31a12.28,12.28,0,0,0,1.23-1.47A24.05,24.05,0,0,0,1805.82,303.8Zm-13.46,9.46a89.36,89.36,0,0,0-9.58-35.31,53.29,53.29,0,0,0-6.48-10c-.7-.82-1.36-2-2.66-1.63S1772.35,268,1772,269a7.86,7.86,0,0,0-.38,1.87,42.69,42.69,0,0,0,.26,12.87c2.42,12,7.61,22.61,16.3,31.36,1,1,2,2.85,3.31,2.37C1793.25,316.84,1792.05,314.71,1792.36,313.26ZM1074.29,175.53c-10.52-.76-19.9-1.54-29.29-2.1q-18.66-1.1-37.33-1.9c-8.3-.35-16.61-.41-24.91-.91-10-.61-20.12-.45-30.19-.92-14.52-.67-29.07-.54-43.61-1-20-.58-40-.37-60-.47a8,8,0,0,0-4.47.63c1.31,0,1.92,0,2.52,0,9.42.2,18.84.25,28.27.82,10.36.63,20.76.37,31.14,1,9.4.58,18.84.33,28.27.89,10.68.64,21.4.41,32.1,1,9.08.54,18.2.49,27.31.85,12.45.48,24.91.74,37.37,1.18,7.18.25,14.37.24,21.56.74C1059.74,175.9,1066.46,175.53,1074.29,175.53Zm46.24-4.15a7.53,7.53,0,0,0,.72,1.05,14.15,14.15,0,0,0,1.54,1.13,27.39,27.39,0,0,0,13.61,4c4.94.17,9.89.09,14.83.17,2.87,0,5.76,0,8.6.3,3.19.35,6.37.41,9.56.48,5.15.1,5.85,0,5.66-6.1-.07-2.17-.8-2.68-3.06-2.55-11.3.62-22.59,1.5-33.92,1.49ZM1171,166.5a2.15,2.15,0,0,0-1.87-1c-4.56-.77-9.11-1.62-13.69-2.27-10.1-1.42-20.17-3.12-30.39-3.56-1.91-.08-3.81-.41-5.71-.53a3.11,3.11,0,0,0-3,1.24c-1.47,2.17-.2,5.85,2.3,6.72a18.67,18.67,0,0,0,5.66.85c15.33.5,30.62-.31,45.92-1.12C1170.45,166.84,1170.59,166.72,1171,166.5ZM715.63,141.75a8.45,8.45,0,0,0-.33-1.29c-.8-1.91-1.6-3.83-2.46-5.72Q706,119.67,699.19,104.6q-6.54-14.41-13.06-28.83a13.79,13.79,0,0,0-1.15-2.1,1.94,1.94,0,0,0-2.58-.46,1.54,1.54,0,0,0-.79,2c.5,1.35,1,2.7,1.6,4q4.29,9.63,8.63,19.25,8.8,19.71,17.63,39.4c.59,1.3,1.24,2.59,2,3.83a2.7,2.7,0,0,0,2.88,1.31A1.39,1.39,0,0,0,715.63,141.75Zm41.08,2.87c-.66-1.6-1.34-3.38-2.12-5.11q-6.3-14-12.63-28-9.06-20.1-18.13-40.2a13.3,13.3,0,0,0-1.74-2.83A1.81,1.81,0,0,0,719.9,68c-1,.42-.8,1.25-.48,2,.5,1.18,1.05,2.33,1.58,3.49l8.16,17.88q11.36,24.85,22.73,49.69a28.91,28.91,0,0,0,1.76,3.41,4.09,4.09,0,0,0,1.46,1.14,1.13,1.13,0,0,0,.91-.08C756.26,145.45,756.37,145.12,756.71,144.62Zm28.69,97.63H772c-1.28,0-2.56,0-3.84.13a1.66,1.66,0,0,0-1.59.88A1.52,1.52,0,0,0,767,245a24.13,24.13,0,0,0,2.08,2c8.11,6.44,23.92,6.43,32-.08a17.48,17.48,0,0,0,2.32-2.39,1.25,1.25,0,0,0-.71-1.92,30.42,30.42,0,0,0-3.81-.31C794.36,242.23,789.88,242.25,785.4,242.25ZM1864.53,471.11a7.17,7.17,0,0,0-1.39,0,83.25,83.25,0,0,1-17.62,1.58q-23.73-.48-47.46-.7c-13.12-.13-26.23-.1-39.34-.13l-28.3-.05a27.44,27.44,0,0,0-2.87.13c-.23,0-.43.35-.64.53.18.21.36.58.56.59,1.59.09,3.19.15,4.79.15l122.81,0c1.44,0,2.87,0,4.31,0A6.63,6.63,0,0,0,1864.53,471.11ZM1158.58,137.39c1.24.86,2.49,1.7,3.71,2.58,11.09,8,17.27,18.51,17.08,32.42a40.9,40.9,0,0,0,.09,4.29,1.83,1.83,0,0,0,2.84,1.44,7.53,7.53,0,0,0,4.16-6.52,15.09,15.09,0,0,0-1.79-7.36,93.77,93.77,0,0,0-7.54-12.74,42.71,42.71,0,0,0-7-7.87A26,26,0,0,0,1158.58,137.39ZM1797,272.52c.83,1.35,1.7,2.67,2.5,4,4.06,6.91,7.42,14.05,8.79,22.08a28.65,28.65,0,0,1-4.51,21.41c-.44.66-.88,1.32-1.28,2a.9.9,0,0,0,.75,1.39c2.86.25,4.9-1.17,6.53-3.27a13,13,0,0,0,2.62-7.08,44,44,0,0,0-.5-12.38,65.52,65.52,0,0,0-11.15-25.17C1799.85,274.27,1799,272.91,1797,272.52ZM769.44,227.93c.7.4.83.53,1,.54,9.72.88,19.46,1.06,29.21,1.06a2.46,2.46,0,0,0,.94-.11c.26-.11.57-.36.61-.6a1,1,0,0,0-.34-.8,16.38,16.38,0,0,0-5-2.86A29.64,29.64,0,0,0,778,224,19.17,19.17,0,0,0,769.44,227.93Zm-19.8,6.87v-.07c-3,0-6.08,0-9.11,0a.92.92,0,0,0-.61,1.46c.6.74,1.26,1.44,1.89,2.16,4.68,5.32,10.54,6.12,17.05,4.47,1-.27,1.77-.82,1.66-2a2.12,2.12,0,0,0-1.69-2.06,11.92,11.92,0,0,0-2.39-.17c-2.24,0-4.48,0-6.71,0-1.12,0-2.24-.06-3.35-.16a.91.91,0,0,1-.65-.53.83.83,0,0,1,.46-.69,25.79,25.79,0,0,1,3.76-.67c2.55-.18,5.11-.2,7.67-.35.54,0,1.44.09,1.31-.88,0-.24-.74-.54-1.14-.55C755.07,234.77,752.35,234.8,749.64,234.8Zm-34.32-88.12a1.23,1.23,0,0,0-1,1.77q3,7,6.12,13.92a3.12,3.12,0,0,0,2.59,1.85c1.55.22,2.56-.81,1.93-2.23-1.9-4.36-3.89-8.67-5.89-13a5.32,5.32,0,0,0-1.15-1.49A3.15,3.15,0,0,0,715.32,146.68ZM816.41,236h0c-1.73,0-3.47,0-5.19,0a1.35,1.35,0,0,0-.92.91c-.08.36.23.85.48,1.22a1.48,1.48,0,0,0,.79.49,49.57,49.57,0,0,1,9.82,3.38,1.78,1.78,0,0,0,2.37-1c1.36-2.27.41-4.65-2.15-5A39.18,39.18,0,0,0,816.41,236ZM1863.13,321.3a24.54,24.54,0,0,1-8.17,14.83c-.59.51-1.3,1.16-.67,2a2.14,2.14,0,0,0,2.22.53,6.82,6.82,0,0,0,4.7-3,12.19,12.19,0,0,0,2.12-5.78A31.38,31.38,0,0,0,1863.13,321.3ZM764.25,234.89a4.38,4.38,0,0,0,4,1.33c4.63.05,9.25,0,13.88,0,3.82.06,7.65.18,11.47.37,3.66.18,7.31.51,11,.75.47,0,1-.06,1.08-.61s-.38-.86-.86-.9c-1.43-.1-2.87-.16-4.3-.2-8.6-.2-17.22.11-25.81-.73C771.53,234.64,768.34,234.89,764.25,234.89ZM26.76,431.53c-.68-1.74-2.22-2.68-3.35-3.92s-2.22-2.26-3.32-3.4c-2-2.11-2-2.12-4-2.9,1.35,2.69,2.58,5.26,3.91,7.77C21.7,432.25,22.25,432.43,26.76,431.53ZM1848,316.55c.24,1.64.32,2.42.48,3.18s.65,1.2,1.33,1a16.66,16.66,0,0,1,7.5,0c.83.17,1.37-.8,1.31-2.12s-.71-2-1.71-1.62C1854.1,318.1,1851.35,317.87,1848,316.55Zm5.37,6.52c-1.93,0-3.48,1.15-3.48,2.49,0,1.11,1.42,2.3,3,2.54,1.84.26,3.87-.86,4.17-2.32S1855.54,323,1853.35,323.07Zm-490.86-165.7c2,1.22,3.33,2,4.6,2.9s2.72,2.13,4.06,3.23c.68.56.81,1.79,2,1.68.65-.05.31-1.51-.7-2.9a18.51,18.51,0,0,0-4-4A6.06,6.06,0,0,0,1362.49,157.37ZM794.45,239A278.37,278.37,0,0,0,765,239Zm1058.71,75.86.47,0c1.42-.11,2.45-.87,2.41-1.78a2.58,2.58,0,0,0-2.28-2.06,4.14,4.14,0,0,0-.93-.1,3.12,3.12,0,0,0-2.9,2c-.16,1,1.12,1.89,2.75,1.95ZM29.49,437.67c.63,0,1.43,0,2.22-.13a.88.88,0,0,0,.56-.62,1,1,0,0,0-.39-.77c-2.25-1.17-4.6-.84-6.95-.36-.09,0-.21.29-.18.4a1.84,1.84,0,0,0,.42.78C26.42,438,27.92,437.53,29.49,437.67ZM816.6,167.76v.14h16.49v-.14Zm1037.32,135.8c-.09-.29-.11-.71-.31-.83a4.47,4.47,0,0,0-1.68-.69c-1.11-.13-2.25-.06-2.79,1.18a1.06,1.06,0,0,0,.19.87,2.68,2.68,0,0,0,3,.91,3.24,3.24,0,0,0,1.22-.66A2.33,2.33,0,0,0,1853.92,303.56Zm-1,28a1.36,1.36,0,0,0-.2-.4c-.69-.65-2.62-.82-3-.19a2.64,2.64,0,0,0-.11,2.66.89.89,0,0,0,.78.33,3.83,3.83,0,0,0,2.51-2A1.33,1.33,0,0,0,1853,331.57Zm-37.87,132.8a49.14,49.14,0,0,0,10.5,0ZM810,240.78c3.33,1.94,3.33,1.93,6.74,1.84C814.63,241.31,812.7,241.16,810,240.78Zm-64.38-9.55v-.15h-3.13v.15Z"/><path d="M550.61,445.31c.9,82.89-66.83,157.09-157.26,157a157.05,157.05,0,1,1,1.09-314.1C483.84,288.66,551.46,362,550.61,445.31Zm-308.56,0c-1.08,81.1,65.87,151.73,151.48,151.83,84.62.1,152-69.07,152-152,0-81.58-66.14-151.74-151.72-151.84C307.64,293.22,240.87,364.35,242.05,445.34Z"/><path d="M1557.85,280.27a156.77,156.77,0,0,1,156.9,157.41c-.13,42.89-15.57,80-46,110.43-30.66,30.71-68.14,46.16-111.31,46.17s-80.79-15.61-111.24-46.38-45.72-68.16-45.61-111.56C1400.84,349.46,1472.26,279.76,1557.85,280.27Zm0,5.18c-82-.69-151.74,66.12-152,150.9-.13,42,14.66,78.2,44.27,108,29.38,29.6,65.37,43.91,106.85,45,85.9-.53,152.41-68.49,152.53-151.66C1709.66,349.73,1637.85,284.81,1557.87,285.45Z"/><path d="M1851.22,289.31c.25,3.05-1,5.16-4,6.16a5.7,5.7,0,0,1-4.58-.36,35.61,35.61,0,0,1-3.16-2.06c0-.48,0-.95,0-1.42,0-3.68,3.88-6.16,7.46-5.23,1.07.28,2.12.64,3.18,1Zm-5.78-.26a10.18,10.18,0,0,0-1.46.56,1.59,1.59,0,0,0,.3,2.94,4.21,4.21,0,0,0,1.4.21c1,0,1.89-.36,2.11-1.52S1847,289.12,1845.44,289.05Z"/><path d="M380,155.84c20.79,0,41.59-.42,62.36.12,20.94.55,41.88.27,62.81.7a23.58,23.58,0,0,1,4.26.5,1.77,1.77,0,0,1-.06,3.44,27,27,0,0,1-3.81.26c-17.43-.09-34.87.2-52.28-.41-23.18-.82-46.35-.38-69.53-.51-22.22-.12-44.46-.36-66.67.16-17.26.41-34.53.3-51.77,1-8.94.34-17.92.23-26.82.95-8.13.66-16.29.41-24.4,1.43-5.54.7-11.15.79-16.72,1.3-3.65.34-7.28,1-10.92,1.45a21.09,21.09,0,0,1-3.8.23,1.65,1.65,0,0,1-1.48-1.62,1.49,1.49,0,0,1,.78-1.61,7.53,7.53,0,0,1,2.22-.82c5.37-.78,10.72-1.71,16.15-2.08,6.37-.44,12.74-1,19.1-1.56.48,0,1-.1,1.43-.12,8-.36,16-.76,24-1.06,20.92-.81,41.87-.69,62.8-1.29C331.71,155.55,355.84,156,380,155.84Z"/><path d="M180.72,410.73c-3.71-.47-7.68-.91-11.63-1.49-26.08-3.81-52.17-7.62-78.15-12.12-18.27-3.17-36.5-6.52-54.57-10.69a194.22,194.22,0,0,1-23.52-6.64c-1.34-.49-2.78-.81-3.8-1.93a1,1,0,0,1-.26-1.3c.24-.36.67-.83,1-.83a6.89,6.89,0,0,1,2.32.42c19.68,6.91,40.13,10.65,60.55,14.46q21.67,4,43.45,7.5c13.88,2.23,27.8,4.15,41.71,6.18,6.8,1,13.61,1.9,20.4,2.91a24.27,24.27,0,0,1,4.16,1.09,1.46,1.46,0,0,1,.7,1.12,1.22,1.22,0,0,1-1.16,1.26C181.62,410.71,181.3,410.71,180.72,410.73Z"/><path d="M247.53,444.87C246.72,368.25,308.8,297.92,394.74,298A146.41,146.41,0,0,1,541.56,445.44c-.28,84-68.86,146.64-147.15,146.63C313,592.06,246.64,525,247.53,444.87Zm147.1-136.48c-72.48-1.2-136.76,58.63-137,136.36-.22,76.17,61.84,137.14,136.85,137.16,75.5,0,136.74-62.12,136.74-136.79C531.25,369,468.42,307.46,394.63,308.39Z"/><path d="M1705.44,436.93c.57,79.5-64.14,147.17-147,147.14a147,147,0,1,1,.28-294.07C1641.13,290.14,1705.89,357.42,1705.44,436.93Zm-283.55.63c-.87,71.1,57.36,136.49,136.95,136.35,76.33-.13,136.61-62.08,136.43-137.13a136.64,136.64,0,0,0-137.44-136.62C1478.86,300.59,1420.56,365.87,1421.89,437.56Z"/><path d="M518.6,447c-.83,32.12-12.38,61.47-36.28,85.57-24.18,24.37-53.82,36.65-87.91,36.71-33.93.05-63.47-12.14-87.64-36.23s-36.62-53.87-36.61-88c0-34,12.36-63.45,36.47-87.56s54-35.8,88.07-36.54C464.65,322.17,517.94,377.19,518.6,447ZM356.36,482.17a4.13,4.13,0,0,0-1.08.83c-.34.51-1.43.78-.69,1.73a13.62,13.62,0,0,0,1.22-1.31,6,6,0,0,0,.53-1.27,12.13,12.13,0,0,0,1.44-1.23,2.51,2.51,0,0,0,.63-1.22c.09-.52-.86-.15-1.35.72A12.77,12.77,0,0,0,356.36,482.17Zm64.28,0c3.41-1.38,5.62-4.18,7.84-6.88,6.43-7.81,9.5-16.92,10-26.95a20.88,20.88,0,0,0-1.73-9.3,30.81,30.81,0,0,1-2.41,3,7.78,7.78,0,0,1-7.45,2.28,8,8,0,0,1-6.15-9.8,8.26,8.26,0,0,1,10.59-5.58c1,.3,1.72,1.55,3.1.74-.25-.63-.43-1.24-.71-1.8a43.92,43.92,0,0,0-47.67-23.42c-31,6.16-46.35,42.77-26.43,69.44,2.75,3.69,5.74,7.3,10.17,9.24l-.06-.05a15.17,15.17,0,0,0,2.14,1.89,43.32,43.32,0,0,0,45.16.22,9.89,9.89,0,0,0,3.63-3.07Zm-26.43,64.1a92.05,92.05,0,0,0,24.92-3.08,27.09,27.09,0,0,0,3.65-1.14,1.36,1.36,0,0,0,.78-1.59,7.75,7.75,0,0,0-.62-1.81c-3.37-7.06-6.74-14.12-10.17-21.15a24.28,24.28,0,0,0-6-7.41,16.8,16.8,0,0,0-10.37-4.5c-8.78-.41-16.36,2.31-21.91,9.47a94.14,94.14,0,0,0-12.23,21.62c-1.59,3.82-1.53,4.09,2.51,5.32A91.54,91.54,0,0,0,394.21,546.28Zm48.3-144.86A25.56,25.56,0,0,0,453,399.55a102.82,102.82,0,0,0,17.95-9c4.77-2.93,4.87-3.08,1.29-7.43-11.59-14.1-25.72-24.73-42.9-31.16-.45-.17-.91-.29-1.36-.46-2.84-1.1-4-.22-4.35,2.4-.88,6-1.86,12-2.88,18a40.59,40.59,0,0,0-.76,9.52c.52,7.62,4.09,13.3,10.8,17A23,23,0,0,0,442.51,401.42Zm51.8,50.5c.09-4.74-.59-5.34-5.05-4.87l-.95.14c-4.11.57-8.24,1.08-12.34,1.75s-8.23,1.1-12.17,2.55c-6.63,2.45-11.29,6.95-12.71,13.87-1.55,7.53-1.12,14.9,3.81,21.51,4.63,6.2,10.14,11.51,15.74,16.75,2.95,2.76,3.68,2.67,6-.57A96.68,96.68,0,0,0,485,488.52,101.78,101.78,0,0,0,494.31,451.92ZM367.89,376.59c-.11-7.62-1.92-19.17-3.5-23.28-.79-2.07-1.61-2.57-3.62-1.94a54.43,54.43,0,0,0-5.4,2A100.28,100.28,0,0,0,316,383c-3.24,4.05-3.2,4.6,1.49,7q9.18,4.62,18.52,9a26.56,26.56,0,0,0,5.89,1.93,18.9,18.9,0,0,0,17.69-4.88C365.51,390.38,368.78,383.76,367.89,376.59Zm-30.75,94.33c.39-4.12-1.12-7.93-3.47-11.46a24.2,24.2,0,0,0-12.87-10.2c-8-2.57-16.23-3.31-24.5-3.91a2,2,0,0,0-2.2,2,24.86,24.86,0,0,0-.11,2.86,76.69,76.69,0,0,0,1.12,12.38,98,98,0,0,0,15.37,38.87,24,24,0,0,0,1.72,2.29,1.41,1.41,0,0,0,2.11.2,12.36,12.36,0,0,0,1.43-1.27c5.06-5.32,10.15-10.61,15.12-16a32.35,32.35,0,0,0,3.59-5.06A17.24,17.24,0,0,0,337.14,470.92Zm38.41-114.65h-.15c.09-1.76,0-3.54.28-5.27.57-4.26-.69-3.51-3.66-2.94a20.79,20.79,0,0,0-2.32.6c-2.2.72-2.58,1.27-2,3.51a158.9,158.9,0,0,1,3.67,21.25,28.34,28.34,0,0,1-8.13,23.66c-6.11,6.29-13.57,8.87-22.3,6.72a36.22,36.22,0,0,1-6.38-2.05c-6.38-3-12.75-6-19-9.22-5.08-2.67-4.86-2.48-7.7,2.13-1.58,2.58-2.26,3.87,1.82,4.91,11.46,2.94,22.85,6.14,34.28,9.23,4.93,1.33,9.89,2.6,14.82,4a5.1,5.1,0,0,0,5.3-1.13,32.56,32.56,0,0,1,5.42-3.95,6,6,0,0,0,3.16-5.46c.23-6.07.66-12.13,1.06-18.2Q374.6,370.15,375.55,356.27Zm-80,77.66c-.41.36-1,.62-1.06,1a17.66,17.66,0,0,0-.36,3.32c0,2.79.8,3.69,3.56,4.11a12.28,12.28,0,0,0,1.91.14,77.06,77.06,0,0,1,15.65,2,48.83,48.83,0,0,1,8.25,2.42c9.13,3.71,14.44,10.73,16.88,20.09a18.31,18.31,0,0,1,.08,8.07,27.37,27.37,0,0,1-6.3,12.73c-4.34,5.13-9.1,9.86-13.78,14.66-1.23,1.26-2.48,2.49-3.65,3.8s-1.24,2-.24,3.37c.28.38.6.74.92,1.1,3.76,4.25,4.12,4.28,7.15-.33Q337.19,491.2,349.89,472c.35-.53.68-1.08,1-1.61a4,4,0,0,0,.36-4.07,46.56,46.56,0,0,1-3.12-10.55,5.23,5.23,0,0,0-3.93-4.32c-4.38-1.5-8.7-3.17-13.05-4.76l-32.86-12C297.44,434.4,296.5,434.2,295.56,433.93ZM437.35,535.57a20.24,20.24,0,0,0-1.28-2c-3.2-4-6.44-7.95-9.67-11.92-6.57-8-13.23-16-19.67-24.19-2.11-2.67-4.26-4-7.75-3.14a21.41,21.41,0,0,1-9.05,0c-1.1-.19-2.22-.23-3.34-.31a4,4,0,0,0-3.39,1.45c-.63.73-1.24,1.47-1.84,2.21-5,6.21-10.08,12.42-15.09,18.64q-6.93,8.6-13.78,17.24c-1.81,2.3-1.58,3,1.07,4.28,3.43,1.66,3.87,1.52,5.44-1.87.47-1,.86-2.06,1.32-3.08a106.93,106.93,0,0,1,10.4-18.33,28.78,28.78,0,0,1,18.57-11.71c9.81-1.91,17.61,1.37,23.68,9a37.17,37.17,0,0,1,3.94,6.56c3,6,5.85,12.1,8.76,18.15.42.86.81,1.74,1.31,2.55a1.7,1.7,0,0,0,2,.88,30.55,30.55,0,0,0,7.46-3.18C436.84,536.57,437,536.07,437.35,535.57ZM346,435.8c1.69.31,2.62.1,3-1q1.38-3.57,2.62-7.19a1.52,1.52,0,0,0-.87-2c-1.16-.55-2.32-1.08-3.51-1.52q-17.72-6.6-35.45-13.17c-.89-.33-1.79-.67-2.7-1-2.68-.82-3.49-.55-4.54,1.89a63.76,63.76,0,0,0-2.63,7.19c-1.42,4.81-1.29,5,3.45,6.27q19.68,5.12,39.38,10.16C345.39,435.7,346,435.81,346,435.8Zm97.73-31.06A30,30,0,0,1,429,401a22.31,22.31,0,0,1-11.77-16,32.34,32.34,0,0,1-.09-11.44c1-6.47,2.08-12.93,3.08-19.39a14.9,14.9,0,0,0,.18-3.33,2.39,2.39,0,0,0-.9-1.58,5.17,5.17,0,0,0-5-.92c-1.69.69-1.29,2.41-1.26,3.79,0,2.23.25,4.46.41,6.69.12,1.75.32,3.5.42,5.25.42,7.33.67,14.67,1.28,22,.36,4.46.7,8.91.85,13.38.05,1.27.26,2.54.42,3.81a5.63,5.63,0,0,0,2.77,4.23,59,59,0,0,1,5.8,4.24,5.57,5.57,0,0,0,5.72,1.12c15.64-4.54,31.31-9,47-13.43a19.17,19.17,0,0,0,2.68-1,1.24,1.24,0,0,0,.76-1.57c-.81-2.09-1.67-4.33-3.8-5.3-1.83-.84-3.25.86-4.74,1.68-1.82,1-3.57,2.12-5.38,3.15a86.85,86.85,0,0,1-15.74,7A21.8,21.8,0,0,1,443.73,404.74ZM494.28,439c-.15-.9-.39-2.64-.75-4.36-.24-1.14-1-1.47-2.19-1.09-.92.28-1.82.63-2.71,1L469.38,442c-8.05,3.1-16.08,6.26-24.18,9.26-2.5.93-4,2.28-4.35,5.06A34,34,0,0,1,438,465.9a5.2,5.2,0,0,0,.54,5.83c.48.63.89,1.33,1.34,2l24.9,36.43c.45.66.89,1.33,1.39,2,1.07,1.33,2,1.39,3.19.24,2.33-2.27,2.34-3.35,0-5.49-.59-.54-1.25-1-1.84-1.54a110.2,110.2,0,0,1-15.23-16.56c-5.23-7.23-6.51-15.16-4.59-23.68,1.66-7.35,6.17-12.51,12.93-15.71a35.63,35.63,0,0,1,10.58-3c5.22-.7,10.44-1.38,15.67-2.1q2.61-.36,5.2-.85c1.62-.31,2.11-.94,2.22-2.61C494.29,440.52,494.28,440.2,494.28,439ZM342.55,527.89a4.81,4.81,0,0,0,1.31-.74,25.94,25.94,0,0,0,2-2.65q10.91-16.05,21.77-32.1c.36-.53.73-1.06,1.06-1.6,1.5-2.4,1.46-2.65-.65-4.29-1.14-.87-2.34-1.67-3.44-2.59-3.06-2.57-3.49-2.53-6.09.64-.31.37-.59.76-.88,1.13Q347.13,499,336.58,512.37c-1.38,1.75-2.76,3.51-4,5.35-1,1.38-.9,2.41.3,3.39,2.6,2.11,5.29,4.11,8,6.1A6.78,6.78,0,0,0,342.55,527.89ZM480.44,410.23c-.35.1-1.13.27-1.88.54q-18.48,6.51-37,13.06c-1.2.43-2.4.87-3.55,1.41a1.52,1.52,0,0,0-.8,2c.86,2.4,1.76,4.78,2.66,7.17.72,1.93,1,2.08,3.23,1.61.78-.17,1.56-.35,2.32-.57q18.15-5.22,36.28-10.46a25.21,25.21,0,0,0,3.58-1.33,1.82,1.82,0,0,0,1.07-2,41,41,0,0,0-3.9-10.74C482.19,410.38,481.57,410.09,480.44,410.23ZM427.6,481.81a7.81,7.81,0,0,0-1.55.75c-1.78,1.35-3.53,2.75-5.26,4.17-1.49,1.22-1.6,1.95-.56,3.71.48.83,1,1.61,1.59,2.4q8.26,12.07,16.53,24.15c1.81,2.64,3.61,5.28,5.49,7.87s2.53,2.61,5.17.92a40.08,40.08,0,0,0,5-3.71c3.31-2.93,3.35-3.67.64-7.11q-12-15.27-24.06-30.51a25.92,25.92,0,0,0-1.94-2.12A4.69,4.69,0,0,0,427.6,481.81ZM401.24,358.64V355c0-.32,0-.64,0-1-.15-2.22-.73-2.9-2.85-3-1.75-.12-3.51-.1-5.27-.08-6,.08-6.15.21-5.92,6.33.27,7.19.68,14.36,1.05,21.54.31,6.06.66,12.12,1,18.18a9.79,9.79,0,0,0,.17,1.43,2.06,2.06,0,0,0,2,1.79c2.07.07,4.15.05,6.21-.08a1.85,1.85,0,0,0,1.61-1.57,17.19,17.19,0,0,0,.29-2.38C400.63,383.6,400,370.94,401.24,358.64ZM491.06,377a7,7,0,0,0-1.65-3,117.79,117.79,0,0,0-19.06-20.1,119.51,119.51,0,0,0-37.75-21.22,18,18,0,0,0-2.77-.74,2.21,2.21,0,0,0-1.37.28c-1,.6-1.88,3.69-1.34,4.81a3.41,3.41,0,0,0,2.3,1.56,110.54,110.54,0,0,1,14.18,5.77,113.2,113.2,0,0,1,39.82,32.26,33.23,33.23,0,0,0,2.11,2.6,2.12,2.12,0,0,0,2.63.48,14.58,14.58,0,0,0,2.4-1.53C490.87,377.85,490.93,377.28,491.06,377Zm-131.21-40.9c0-.31,0-.64-.1-.95-.49-2.65-1.44-3.33-3.95-2.41-3.6,1.32-7.18,2.71-10.66,4.3a117.77,117.77,0,0,0-46.74,38,17,17,0,0,0-1.51,2.43,1.61,1.61,0,0,0,0,1.34,3.56,3.56,0,0,0,5.59.64c1-1.22,2-2.5,3-3.74a112.4,112.4,0,0,1,49.95-35.94,30.94,30.94,0,0,0,3.1-1.26A2.34,2.34,0,0,0,359.85,336.07Zm35.63,219.81a93.08,93.08,0,0,0,12.74-.9,113.68,113.68,0,0,0,16.38-3.41c3.19-.88,3.53-1.9,2-4.81a2.21,2.21,0,0,0-2.68-1.42c-1.24.31-2.49.6-3.72.93a102.1,102.1,0,0,1-53-.26l-6-1.66a2.19,2.19,0,0,0-2.77,1.26,15.92,15.92,0,0,0-.82,1.72c-.54,1.39-.24,2.15,1.05,2.69a22.27,22.27,0,0,0,2.25.8A112.41,112.41,0,0,0,395.48,555.88Zm117.22-103c0-1.92.11-3.84,0-5.74-.11-1.46-1.16-2.13-2.71-2.09a2.27,2.27,0,0,0-2.56,2.26,31.19,31.19,0,0,0-.18,3.35,94,94,0,0,1-1.48,13.81,112.46,112.46,0,0,1-18.55,45.85c-.72,1.06-1.48,2.1-2.12,3.2-.86,1.48-.39,2.67,1.45,4,1,.7,1.76.53,2.83-.78s2-2.53,2.86-3.85A116.25,116.25,0,0,0,507,483.33,104.31,104.31,0,0,0,512.7,452.84ZM362.35,345.7c-.71-4.38-1.51-4.51-4.82-3.39-.76.26-1.5.57-2.24.85A111.8,111.8,0,0,0,320,364.84a103.5,103.5,0,0,0-13.78,15.28c-1.66,2.23-1.33,3.22,1.12,4.46,1.79.91,2.44.8,3.74-.67.42-.48.8-1,1.2-1.49a104.34,104.34,0,0,1,46.24-33.76,30.73,30.73,0,0,0,3.08-1.28A1.54,1.54,0,0,0,362.35,345.7ZM503.86,451.17c0-1.32.06-2.12,0-2.92a2.25,2.25,0,0,0-2.48-2.32c-2.54-.12-3.52.66-3.64,3.24-.15,3.19-.44,6.36-.82,9.54a101.39,101.39,0,0,1-16.46,44.51c-.89,1.33-1.83,2.63-2.66,4s-.69,1.9.37,3a15.85,15.85,0,0,0,1.82,1.55,1.46,1.46,0,0,0,2.13-.25,38.07,38.07,0,0,0,2.37-3,110.65,110.65,0,0,0,19.38-57.31ZM427.52,341.48a2.07,2.07,0,0,0-1.71,1.16c-1.32,3.06-.86,4.19,2.29,5.47,1.33.54,2.69,1,4,1.53a102.5,102.5,0,0,1,42.06,30.68c1,1.24,1.95,2.52,3,3.74s1.69,1.42,3.3.55c3-1.64,3.24-2.29,1.1-5a114.64,114.64,0,0,0-26.73-25.14,104.78,104.78,0,0,0-23.9-11.95C429.73,342.06,428.5,341.76,427.52,341.48ZM284.58,451.91a50.69,50.69,0,0,0,.81,9.53,108.12,108.12,0,0,0,18.21,46.92,17.52,17.52,0,0,0,1.77,2.25,1.65,1.65,0,0,0,1.26.5c2.08-.29,3.74-3.33,2.77-5.09-.62-1.11-1.39-2.14-2.08-3.22-9.72-15.23-15.61-31.74-16.6-49.89a45.59,45.59,0,0,0-.83-6.16c-.24-1.25-1.48-1.82-3.06-1.69a2.15,2.15,0,0,0-2.22,2.07C284.49,448.72,284.58,450.32,284.58,451.91Zm-7.08-7.34a1.65,1.65,0,0,0-1.62,1.48,12.53,12.53,0,0,0-.17,2.38,105.3,105.3,0,0,0,1,14.29,118.31,118.31,0,0,0,20.46,51,32.8,32.8,0,0,0,2.06,2.64,1.69,1.69,0,0,0,1.73.53,2.82,2.82,0,0,0,1.82-3.79c-.95-1.65-2.07-3.21-3.12-4.81-11.63-17.77-18.12-37.17-18.54-58.49,0-.8,0-1.6-.07-2.39C280.86,445.39,279.66,444.44,277.5,444.57ZM394.79,564.39c4.12-.29,8.43-.49,12.72-.94a120.28,120.28,0,0,0,20.65-4.14,8.1,8.1,0,0,0,1.33-.55,2,2,0,0,0,1.15-2.75c-.55-1.77-1.38-2.26-3.22-1.83-.94.22-1.85.52-2.78.77a119.38,119.38,0,0,1-26.94,4.16,112.69,112.69,0,0,1-37.8-5.32,30.22,30.22,0,0,0-3.24-.84,1.63,1.63,0,0,0-1.65.77c-1.1,1.58-1.53,3.25,1,4.11.91.31,1.81.64,2.72.94C370.38,562.61,382.44,563.78,394.79,564.39ZM406.47,374.1h.1q0,9.57,0,19.15c0,2.07.05,4.14.08,6.22a2.84,2.84,0,0,0,1.92,3c1.46.5,3,1.84,4.46.74,1.21-.93.52-2.69.42-4.09-.5-7.31-1.07-14.62-1.55-21.94-.45-7-.78-14-1.22-21-.14-2.22-.44-4.44-.72-6.66-.22-1.7-1.16-2.78-2.24-2.53-1.51.35-1.23,1.68-1.23,2.73C406.46,357.83,406.47,366,406.47,374.1Zm-24.26,0q0-9.57,0-19.14c0-2.07,0-4.14-.08-6.21a1.8,1.8,0,0,0-1.14-1.9c-.75-.25-1.92.58-2.08,1.55a27.18,27.18,0,0,0-.26,2.85c-.12,2.55-.17,5.1-.33,7.65q-.79,13.11-1.66,26.23c-.17,2.71-.44,5.4-.58,8.11-.15,2.86-.27,5.73-.28,8.6,0,1.43.84,1.93,2.25,1.52.45-.13.9-.29,1.36-.44a3.66,3.66,0,0,0,2.78-3.95c0-.95,0-1.91,0-2.87Q382.23,385.07,382.21,374.06Zm61.46,158.32a3.8,3.8,0,0,0-.39-1.13c-.7-1.07-1.45-2.09-2.23-3.11Q429,512.38,416.91,496.62c-1-1.27-2-2.47-3-3.75a2.65,2.65,0,0,0-3.37-1c-.74.27-1.51.49-2.24.8a1,1,0,0,0-.56,1.55,13.79,13.79,0,0,0,1.15,1.52q8,9.83,16,19.65,6.65,8.16,13.32,16.3a14.51,14.51,0,0,0,2.35,2.35C441.44,534.71,443.64,533.57,443.67,532.38Zm-1.76-86.05c0,2.17.88,2.82,3,2,3.6-1.29,7.16-2.7,10.73-4.07q16.5-6.35,33-12.7a16.15,16.15,0,0,0,3.42-1.66c.93-.64.63-1.71.27-2.62a1.24,1.24,0,0,0-1.59-.69,32.6,32.6,0,0,0-3.2.95q-14.48,5-28.92,10c-4.67,1.62-9.34,3.22-14,4.91C442.3,443.35,441.91,444,441.91,446.33Zm-94.55.76c.19-2.43-.55-3.67-2.35-4.24-.76-.24-1.5-.53-2.26-.77l-43-13.39A20.8,20.8,0,0,0,297,428a1.28,1.28,0,0,0-1.5.89,1.37,1.37,0,0,0,.44,1.71,17.24,17.24,0,0,0,3,1.44q22.26,8.13,44.54,16.22a12.17,12.17,0,0,0,2.29.64,1.27,1.27,0,0,0,1.43-1A2.52,2.52,0,0,0,347.36,447.09Zm-42.14-45.72c-.37.32-.84.56-1,.93a1.14,1.14,0,0,0,.52,1.62,29,29,0,0,0,3.53,1.43q21.62,7,43.23,14c.46.15.92.28,1.38.41,2.56.71,3,.57,4.53-1.34s1.37-2.78-1.25-3.61c-.46-.15-.91-.29-1.37-.41q-22.87-6.17-45.75-12.3C307.8,401.82,306.53,401.64,305.22,401.37Zm129.41,18c.64-.18,1.72-.44,2.78-.78q21.43-6.76,42.86-13.57a23.56,23.56,0,0,0,3.12-1.19,1.24,1.24,0,0,0,.6-1.62,1.35,1.35,0,0,0-1.44-1,22.44,22.44,0,0,0-3.26.67q-22.34,6.3-44.64,12.64a21.72,21.72,0,0,0-2.7,1,1.55,1.55,0,0,0-.58,2.4A3.38,3.38,0,0,0,434.63,419.41ZM325.41,518.49c.67,0,1.09-.51,1.46-1,2.06-2.83,4.1-5.69,6.15-8.54q10.46-14.58,20.9-29.16a19.74,19.74,0,0,0,1.95-3.27c.51-1.16-.29-2.92-1.47-3.76-.68-.47-1.48,0-2.59,1.54-.47.65-.89,1.33-1.33,2Q342,489,333.56,501.79q-4.1,6.19-8.1,12.43c-.59.92-1.36,1.78-1.32,3C324.15,517.75,324.89,518.59,325.41,518.49ZM435.1,473.16a3.49,3.49,0,0,0-.59.2,3.13,3.13,0,0,0-1.43,4.08,22.44,22.44,0,0,0,1.86,2.78q12.93,17.28,25.89,34.53a31,31,0,0,0,2.18,2.54.9.9,0,0,0,1.31,0c.31-.31.68-.88.58-1.2a9.49,9.49,0,0,0-1.19-2.56Q451,494.91,438.32,476.3a22.78,22.78,0,0,0-2.08-2.62C436,473.37,435.42,473.3,435.1,473.16Zm-88.08,61a1.77,1.77,0,0,0,1.61-.74c1.67-1.92,3.33-3.86,4.94-5.84q12.35-15.24,24.64-30.52a23.92,23.92,0,0,0,2.14-3.15,1.42,1.42,0,0,0-.3-1.27,3.08,3.08,0,0,0-4.61.11c-.42.48-.78,1-1.16,1.52l-26.83,36.09a20,20,0,0,0-1.46,2.45C345.71,533.37,346.38,534.27,347,534.19ZM393.63,333v0c1.9,0,3.8.06,5.69,0s2.66-.75,2.81-2.48c.21-2.43-.36-3.38-2.43-3.88a27.2,27.2,0,0,0-12.24.19c-1.64.36-2.17,1.5-1.92,3.75.17,1.54.84,2.31,2.39,2.39C389.83,333.08,391.73,333,393.63,333Zm-95.87,73.86a3.71,3.71,0,0,0-.44-1c-1.68-1.78-4.68-1.52-5.63.57a68,68,0,0,0-3.89,11.81,2.22,2.22,0,0,0,1.61,3,10.81,10.81,0,0,0,1.39.33c1.76.34,2.34,0,2.88-1.6q1.88-5.67,3.69-11.38A17.64,17.64,0,0,0,297.76,406.87Zm-9.08-2.76c0-1.4-1.17-2.38-3.06-2.76a1.86,1.86,0,0,0-2.24,1.31,90.15,90.15,0,0,0-3.84,11.79,17.17,17.17,0,0,0-.47,2.33,2,2,0,0,0,1.09,2c2,1.22,3.66.63,4.44-1.66,1.32-3.92,2.57-7.87,3.84-11.81A9.37,9.37,0,0,0,288.68,404.11Zm105-61.56v0c1.74,0,3.49.08,5.22,0s2.21-.65,2.64-2.24a7.23,7.23,0,0,0,.25-1.39c.13-1.35-.46-2.28-1.72-2.39a58.66,58.66,0,0,0-11.85,0c-1.44.17-2,1.4-1.93,3.31.11,1.64.74,2.53,2.17,2.62C390.21,342.63,392,342.55,393.7,342.55Zm112,75.41c.6-.15,1.39-.29,2.14-.54a1.91,1.91,0,0,0,1.4-2.6,66.33,66.33,0,0,0-3.26-10.46c-1-2.25-1.89-2.59-4.09-1.69-1.77.73-2.37,1.61-1.85,3.3,1.13,3.64,2.37,7.25,3.6,10.86C503.88,417.68,504.6,418,505.65,418ZM323.73,529.88a4.11,4.11,0,0,0,.74,1.07c2.91,2.22,5.8,4.47,8.81,6.55,1.9,1.31,3,1,4.43-1,1.17-1.57,1.14-2.61-.28-3.68-2.93-2.21-5.89-4.36-8.88-6.48-1.3-.93-2.23-.76-3.31.5A4.45,4.45,0,0,0,323.73,529.88Zm141.41-1.21c-.45-.66-.84-1.34-1.34-2-1.51-1.88-2.06-2-3.93-.6q-3.89,2.82-7.73,5.68c-2,1.46-2.1,2-.83,3.88a14.19,14.19,0,0,0,1.16,1.52,1.6,1.6,0,0,0,2.16.39,55.39,55.39,0,0,0,9.9-7.53A4.45,4.45,0,0,0,465.14,528.67ZM500,417.06a58.54,58.54,0,0,0-3.86-11.21,1.36,1.36,0,0,0-1.68-.53,20.2,20.2,0,0,0-2.66,1,1.55,1.55,0,0,0-.95,1.95q1.8,5.67,3.7,11.3a1.82,1.82,0,0,0,1,.95A3.62,3.62,0,0,0,500,417.06ZM470.24,535.8a3.67,3.67,0,0,0-1.87-2.9,1.58,1.58,0,0,0-1.8.18c-3.35,2.44-6.71,4.89-10,7.41-.93.7-.84,1.69.06,3s1.76,1.7,2.79,1.13a52.23,52.23,0,0,0,10-7.34A5.11,5.11,0,0,0,470.24,535.8ZM321.29,533a3.67,3.67,0,0,0-2.43,2.08,1.7,1.7,0,0,0,.32,2.18,64.25,64.25,0,0,0,10.73,7.88,1.69,1.69,0,0,0,1.36.15,3.86,3.86,0,0,0,2-2.58c.27-.89-.35-1.46-1-2-3.2-2.35-6.39-4.72-9.6-7.06A10,10,0,0,0,321.29,533ZM432.12,548.7a2.5,2.5,0,0,0,.62,0,34.47,34.47,0,0,0,9.91-4.52,1.65,1.65,0,0,0,.54-1.24c-.11-2.18-2.78-4-4.75-3.22-2.51,1-5,2.12-7.41,3.26a1.91,1.91,0,0,0-1.09,2.38A11.72,11.72,0,0,0,431.1,548C431.31,548.34,431.84,548.51,432.12,548.7Zm71.62-109.5c-.29-2.65-.53-5.17-.87-7.67a1.66,1.66,0,0,0-2.43-1.42,12.59,12.59,0,0,0-2.16,1,2.32,2.32,0,0,0-1.26,2.36c.22,2.36.45,4.72.77,7.07a2.1,2.1,0,0,0,2.27,2,9.21,9.21,0,0,0,1.89-.09,2,2,0,0,0,1.78-1.9A11.09,11.09,0,0,0,503.74,439.2ZM433,436.5a4.57,4.57,0,0,0-4.27-4.77,5,5,0,0,0-4.88,4.81,5.1,5.1,0,0,0,4.87,4.83A5,5,0,0,0,433,436.5Zm-56.68-96.28c0-1.7-.73-2.47-2.29-2.19-2.49.44-5,1-7.42,1.6a2.31,2.31,0,0,0-1.4,1.14c-.88,2,1,4.89,3.15,4.68a35,35,0,0,0,4.65-.91C375.72,343.89,376.36,343,376.33,340.22Zm-69.53,49c-.21-1.45-1.29-1.87-2.28-2.35a2.34,2.34,0,0,0-3,.4,22.49,22.49,0,0,0-4.06,6.93,1.75,1.75,0,0,0,.13,1.36c1,1.66,4.66,1.8,5.73.19s2.14-3.52,3.16-5.31A5.73,5.73,0,0,0,306.8,389.27ZM312.6,511c-1.42.43-2.15,1.52-3,2.46a1.86,1.86,0,0,0-.07,2.61c1.54,1.82,3.11,3.62,4.73,5.38,1.18,1.29,2.06,1.23,3.06-.21,1.91-2.78,2.25-3.23-.13-5.72-1.21-1.26-2.26-2.67-3.45-4A3.46,3.46,0,0,0,312.6,511Zm178.14-116.6a7.53,7.53,0,0,0-.45-1.31c-.93-1.68-1.83-3.37-2.86-5-1.61-2.53-2.44-2.62-5-.8l-.38.28a1.78,1.78,0,0,0-.59,2.52c1,1.81,2,3.62,3.14,5.37,1,1.55,4.73,1.44,5.84-.14A3.26,3.26,0,0,0,490.74,394.42Zm-200,41.91h.09c0-.48,0-.95,0-1.43-.11-2.27-.75-3.11-2.88-3.84a1.94,1.94,0,0,0-2.68,1.23,16.38,16.38,0,0,0-.57,7.55,1.83,1.83,0,0,0,1.59,1.58c3.17.57,4.39-.24,4.45-3.18C290.79,437.61,290.78,437,290.78,436.33Zm121.57-96.11c0,3,.51,3.69,3.67,4.49a25.84,25.84,0,0,0,3.23.7c1.51.17,2.53-.77,2.91-2.49s-.05-3-1.55-3.47a55.71,55.71,0,0,0-6-1.34C413,337.82,412.35,338.47,412.35,340.22Zm-56.91,203c-.18-.35-.24-.72-.47-.89a20.8,20.8,0,0,0-5.93-2.8,1.71,1.71,0,0,0-1.33.26c-1.27.94-2.66,2-2.69,3.67s1.63,1.73,2.71,2.24a47,47,0,0,0,4.39,1.72,1.67,1.67,0,0,0,1.34-.15A5.9,5.9,0,0,0,355.44,543.21Zm117.71-21.87c.16,0,.35,0,.46-.05a13.09,13.09,0,0,0,4.63-5.19,1.64,1.64,0,0,0-.17-1.32,4.56,4.56,0,0,0-2.92-2.22c-1.91-.4-2.7,1.28-3.75,2.37-.87.91-1.77,1.94-1,3.32a21.51,21.51,0,0,0,1.92,2.65C472.52,521.12,472.88,521.2,473.15,521.34ZM404,380.68c-1.57,6.17-1.36,12.34-1.3,18.49,0,.44.22,1,.86.78a1,1,0,0,0,.42-.76Q404,389.93,404,380.68Zm94.22,8.25c.56-1.17-.15-1.74-.5-2.36-.86-1.5-1.73-3-2.73-4.41s-2.1-1.44-3.63-.3a1.38,1.38,0,0,0-.14,2.37A70.64,70.64,0,0,0,498.18,388.93ZM364.38,335c1.92-1.57,4.25-2.9,6-5a.45.45,0,0,0,0-.43c-.18-.22-.44-.54-.65-.53a15,15,0,0,0-6.33,1.71,1.8,1.8,0,0,0-.78,2.08,3,3,0,0,0,1,2.06C363.77,334.94,364,334.91,364.38,335Zm29.39,12.53v-.06c1.9,0,3.79,0,5.69,0,.19,0,.51-.39.52-.61s-.29-.63-.49-.65a41.88,41.88,0,0,0-11.35,0c-.21,0-.5.41-.51.63s.29.66.46.67C390,347.53,391.88,347.51,393.77,347.51ZM449.55,540a5.82,5.82,0,0,0-2.89-3.62,2,2,0,0,0-2.18.4c-.3.28-.64.85-.55,1.17a6.1,6.1,0,0,0,2.77,3.62,1.88,1.88,0,0,0,2.16-.46A4,4,0,0,0,449.55,540ZM276.35,432.37a18.71,18.71,0,0,0-.36,6.72,2.18,2.18,0,0,0,1.33,1.83,2.82,2.82,0,0,0,1.79.21c.7-.24.64-1,.39-1.62A70.43,70.43,0,0,0,276.35,432.37ZM490.16,421.5l1-.25a54.3,54.3,0,0,0-3.52-11.15,1.83,1.83,0,0,0-.56-.75c-.22-.15-.65-.28-.83-.17a.92.92,0,0,0-.27.82C487.37,413.84,488.77,417.67,490.16,421.5Zm22.54,11.8a16,16,0,0,0-3.51,6.66,1,1,0,0,0,.42,1.24,2.43,2.43,0,0,0,1.36.17,2,2,0,0,0,1.71-2C512.74,437.36,512.7,435.33,512.7,433.3Zm-95.13-104a25.86,25.86,0,0,0,4.6,4.59,1,1,0,0,0,1.31-.08c.86-.88.95-3,0-3.46A7.66,7.66,0,0,0,417.57,329.29Zm89.59,105.08a19,19,0,0,0,2.86-5.93c.15-.46.13-1-.36-1.24a2.05,2.05,0,0,0-1.34,0,2.6,2.6,0,0,0-2,2.41A8.15,8.15,0,0,0,507.16,434.37Zm-9.35-6.54a5.73,5.73,0,0,0,3.6-1.63,1.67,1.67,0,0,0,.24-1.75,1.3,1.3,0,0,0-1.43-.94,5.61,5.61,0,0,0-3.77,1.59,1.56,1.56,0,0,0-.22,1.74A1.64,1.64,0,0,0,497.81,427.83ZM441.7,553.33c-2.06,0-4.12,0-6.18,0a1.31,1.31,0,0,0-1.29,1.62,1.88,1.88,0,0,0,1.61,1.54,1.08,1.08,0,0,0,.47,0A10.64,10.64,0,0,0,441.7,553.33Zm-.94-4.22V550c2.17,0,4.35,0,6.52,0,.25,0,.69-.27.72-.46a2,2,0,0,0-.17-1.29,2.17,2.17,0,0,0-2.82-1.07C443.57,547.73,442.18,548.44,440.76,549.11Zm69.82-126.58c-.18-1.62-.59-2.2-1.27-2.18a5.73,5.73,0,0,0-3.9,1.44,1.56,1.56,0,0,0-.17,1.79,1.28,1.28,0,0,0,1.46.92,6.23,6.23,0,0,0,3.06-1.23C510.28,422.85,510.56,422.3,510.58,422.53ZM290.38,394.3c2.36.46,3.35-.5,4-1.88.35-.69,1.05-1.49.55-2.19-.64-.88-1.45-.08-2.09.26-1.27.68-2.5,1.41-3.7,2.2a.62.62,0,0,0,.05,1.13A6,6,0,0,0,290.38,394.3ZM412.86,330c-.22.19-.58.35-.63.58-.38,1.88.21,3.26,1.69,3.92,1,.45,2.41,1,3.08.2,1-1.2-.69-1.71-1.28-2.46a15.37,15.37,0,0,0-2-1.93A2.48,2.48,0,0,0,412.86,330Zm-42.28,4.64c2.77.54,4.61.13,6-1.57a1.88,1.88,0,0,0,.18-2.21c-.64-1-1.41-.33-2,.14C373.51,332.06,372.27,333.18,370.58,334.65ZM310.29,522.81c-.2.21-.55.4-.56.61a12.92,12.92,0,0,0,1.19,5.4c.06.15.59.27.8.18a2.73,2.73,0,0,0,1.3-3.85,15.18,15.18,0,0,0-1.9-2A2.35,2.35,0,0,0,310.29,522.81Zm96.13-183.57c.05,1.54-.09,3.06,1.54,3.77a1.37,1.37,0,0,0,1.25-.21c.91-1.33.4-2.71-.11-4a3.84,3.84,0,0,0-.83-1.11,1.06,1.06,0,0,0-1.59.32C406.57,338.44,406.49,338.9,406.42,339.24ZM302.13,408.13a5.77,5.77,0,0,0-2.31,3.49c-.44,1.2-.85,2.41-1.24,3.63a34.15,34.15,0,0,0-1.13,3.65c-.22,1.06-1.13,2.14,0,3.34.74-2.33,1.45-4.6,2.18-6.87S301.5,411.06,302.13,408.13ZM291,387.69c2.12-1.19,3.64-2,5.1-2.91a1.64,1.64,0,0,0,.67-1.14c0-.73-.59-1.05-1.18-1.31a1.8,1.8,0,0,0-2.18.38A9.15,9.15,0,0,0,291,387.69Zm202.2,12.08c-.2-.3-.39-.91-.7-1a4.77,4.77,0,0,0-4.34,1.07,1.34,1.34,0,0,0-.21,1.24,1.52,1.52,0,0,0,1,.86,5.11,5.11,0,0,0,3.88-1.23C493,400.57,493,400.18,493.19,399.77ZM280.38,434.42l.83-.16c.14-.6.29-1.2.42-1.8a11.42,11.42,0,0,0,.25-1.4c.17-1.7-.5-2.53-2.31-2.93-.64-.14-1.36.48-1.15,1.06C279,431,279.72,432.68,280.38,434.42ZM453,548.35a2,2,0,0,0,1.58-1.55,2.9,2.9,0,0,0-3.11-2.79,1.48,1.48,0,0,0-1.32,1.19A3.22,3.22,0,0,0,453,548.35ZM385.76,384.62a91.79,91.79,0,0,0-.3,14.92c0,.19.39.36.83.75C386.11,394.92,385.93,389.77,385.76,384.62Zm20.67-54.4a3.8,3.8,0,0,0,.64,2.66,1,1,0,0,0,.8.34c.26,0,.7-.24.73-.43a14.25,14.25,0,0,0,.26-2.76c0-.91,0-1.94-1.12-2.34C407,327.42,406.41,328.48,406.43,330.22Zm-70.05,106-.29.89c3.18,1,6.36,2,9.54,3,.43.13,1,.12.94-.55a.93.93,0,0,0-.59-.65C342.79,437.93,339.58,437.07,336.38,436.19Zm-48.31-11c-.94,0-1.33.25-1.54.7a1.14,1.14,0,0,0,.52,1.63,16.65,16.65,0,0,0,3.13,1.11,1.49,1.49,0,0,0,1.21-.5,1.27,1.27,0,0,0-.21-1.73A5.7,5.7,0,0,0,288.07,425.19Zm210.34-25.93c.9-.29,1.79-.55,2.66-.89,1-.39,1.5-1.16,1.13-1.69a1.68,1.68,0,0,0-1.63-.64,4.48,4.48,0,0,0-3,1.11,1,1,0,0,0-.28,1.24A5.06,5.06,0,0,0,498.41,399.26ZM382.2,339.79c-.15-1.05.12-2.13-1.1-2.45-.81-.22-1.46.78-1.58,2.37a10.75,10.75,0,0,0,0,1.39c0,.81.23,1.59,1.24,1.57.7,0,1.06-.6,1.21-1.22A14,14,0,0,0,382.2,339.79ZM322.89,522.35c-.16-.33-.23-.75-.44-.84-.38-.16-1-.33-1.24-.15a5.79,5.79,0,0,0-2.48,3.78.9.9,0,0,0,.39.76c.38.17,1,.35,1.25.17A6.29,6.29,0,0,0,322.89,522.35Zm18.31,19.48a2.6,2.6,0,0,0,.88-.28,8.17,8.17,0,0,0,2.55-3.38.94.94,0,0,0-.18-.86c-.37-.24-1-.54-1.26-.39a5.64,5.64,0,0,0-3,4.06C340.14,541.45,340.68,541.76,341.2,541.83Zm3.37,11.39c1.81.8,2.91,1.35,4.05,1.75a1.51,1.51,0,0,0,2.17-1.08c.07-1.06-.73-1.31-1.54-1.34A9.35,9.35,0,0,0,344.57,553.22ZM299,402c.55-.15,1-.4,1-.95a1.16,1.16,0,0,0-.32-.83,4.41,4.41,0,0,0-3.53-1.11,1.66,1.66,0,0,0-1.1.74c-.36.73.16,1.18.82,1.41A6.32,6.32,0,0,0,299,402ZM467.33,520.38c-.49.13-.93.45-.88.93A5.2,5.2,0,0,0,469,525a.92.92,0,0,0,.82-.12,1,1,0,0,0,.41-.77,4.53,4.53,0,0,0-2.43-3.69C467.66,520.35,467.48,520.39,467.33,520.38Zm25.59-130.6a5.31,5.31,0,0,0,1.88,3.89c.74.82,1.7.56,2.57.1.46-.25.71-.73.28-1.09A14.11,14.11,0,0,0,492.92,389.78ZM451.6,437.21l-.37-.62c-2.55.73-5.12,1.42-7.65,2.22-.54.17-1.61.11-1.27,1.53ZM382.18,330.12a7.42,7.42,0,0,0-.06-.94c-.11-.61-.16-1.39-1-1.3-.33,0-.73.57-.89,1a5.7,5.7,0,0,0-.3,3.71,1,1,0,0,0,.69.51,1.19,1.19,0,0,0,.83-.29C382.22,332.06,382.1,331.05,382.18,330.12Zm-103,92.32c-.67,0-1.12.68-1,1,.57,1.48,3,2.51,4.16,1.7a1.23,1.23,0,0,0,.19-1.2C281.68,422.69,280.26,422.58,279.18,422.44Zm66.94,126.65c-3-2-3-2-3.9-2-.74,0-2,1.11-1.88,1.92.11,1.2,1.15.86,1.87.77C343.45,549.67,344.68,549.37,346.12,549.09ZM305.89,524c.44-1.71-.25-3.14-.77-4.58a.91.91,0,0,0-.75-.38,1.41,1.41,0,0,0-.76.49,1.49,1.49,0,0,0-.32,1.74C303.86,522.32,304.34,523.52,305.89,524ZM482,525.27a7.94,7.94,0,0,0,2.86-3.33,1.2,1.2,0,0,0-.51-1.64,1,1,0,0,0-1.6.48A8.34,8.34,0,0,0,482,525.27ZM289.88,399.16c.59-.15,1-.42,1-1a1,1,0,0,0-.41-.77,6.23,6.23,0,0,0-3.61-.77.93.93,0,0,0-.62.59.91.91,0,0,0,.23.8A5.15,5.15,0,0,0,289.88,399.16Zm24.91,134c.1,0,.28.06.39,0a3.49,3.49,0,0,0,2.05-3.28c0-.22-.37-.55-.61-.59-1.09-.16-2.16,1-2.53,2.79A1,1,0,0,0,314.79,533.12Zm163.85-10.88c-1.69.88-3,1.84-2.69,3.63a1.65,1.65,0,0,0,.83,1,.77.77,0,0,0,1-.63C478.11,524.91,478.36,523.57,478.64,522.24Zm-5.77,6.06c-.25.22-.67.42-.66.61a3.57,3.57,0,0,0,2.32,3.18A.49.49,0,0,0,475,532c.18-.23.43-.55.39-.78a5,5,0,0,0-1.72-2.72C473.44,528.33,473.08,528.35,472.87,528.3Zm-137.16,20c.15,0,.33.08.45,0a3.8,3.8,0,0,0,2.32-2.71,1,1,0,0,0-.35-.78.94.94,0,0,0-.83-.15,4.25,4.25,0,0,0-2.07,2.92C335.19,547.83,335.54,548.1,335.71,548.33Zm100.5-126c.14.06.3.19.41.16.86-.31,2.14.13,2.39-1.3a4.58,4.58,0,0,0-2.59.78C436.32,422,436.28,422.24,436.21,422.36Zm-63.35,68.85c-.1-.09-.19-.24-.3-.26-.38-.06-1.18.89-1.09,1.3a.47.47,0,0,0,.29.26C372.13,492.57,372.92,491.61,372.86,491.21Z"/><path d="M1682.35,437.13c.47,68.08-55.64,124.21-124.17,124.16-67,0-123.93-54.52-124-123.94-.06-67,53.49-124.25,124.25-124.14A123.54,123.54,0,0,1,1682.35,437.13ZM1534.1,475.22a7.84,7.84,0,0,0,2.91,2.45,46.37,46.37,0,0,0,10.16,4.22c5.49,1.5,11.08,1.42,16.67,1.05,6.71-.45,12.73-2.95,18.35-6.49a12.31,12.31,0,0,0,2-2l0,.05a8.38,8.38,0,0,0,3.6-2.3c11.45-10.53,15.9-23.63,14.24-38.95-.12-1-.12-2.2-1.11-3a32.32,32.32,0,0,1-2.34,3.57,8.22,8.22,0,0,1-11.26.77,8.06,8.06,0,0,1,7-13.89c1.19.19,2.24,1.27,3.55.64.26-1.17-.4-2-.84-2.78-8.12-15.17-25.25-26.11-46.55-22-18.34,3.54-29.85,15.18-34.57,33.28a41.08,41.08,0,0,0-.5,16.23c1.6,11.22,6.77,20.53,15.94,27.43Zm23.83,63.31c5,.29,9.9-.64,14.8-1.21a61.14,61.14,0,0,0,12.63-2.75c2.09-.71,2.52-1.68,1.79-3.63-.23-.59-.5-1.18-.77-1.75-2.69-5.63-5.33-11.28-8.08-16.87a43.94,43.94,0,0,0-3.41-5.77c-2.84-4-6.48-7.25-11.39-8.27-9.09-1.9-17.32.14-23.6,7.15-6.46,7.22-10.67,15.9-14.22,24.86-.7,1.76-.26,2.54,1.62,3.28.74.29,1.51.53,2.28.75A114.67,114.67,0,0,0,1557.93,538.53Zm26.31-167.32c0,.32,0,1.43,0,2.55a17.47,17.47,0,0,0,5.89,13.14,24.67,24.67,0,0,0,19.81,6.53,31.11,31.11,0,0,0,8.26-2.35,104.77,104.77,0,0,0,17.83-9.2c3.59-2.26,3.65-2.38,1-5.73a99.63,99.63,0,0,0-45.14-32.67,13.25,13.25,0,0,0-1.83-.55,1.47,1.47,0,0,0-1.87,1,19.06,19.06,0,0,0-.74,2.76c-.73,4.41-1.4,8.82-2.14,13.23A57.5,57.5,0,0,0,1584.24,371.21ZM1658,446.32c0-2.43.06-4,0-5.61a1.69,1.69,0,0,0-1.9-1.7,19.05,19.05,0,0,0-2.39.15c-6.47.89-12.93,1.81-19.41,2.7a30.61,30.61,0,0,0-7.8,2.2,18.65,18.65,0,0,0-10.88,11.43,26,26,0,0,0-.64,15.09,29.15,29.15,0,0,0,6.18,11.22,100.15,100.15,0,0,0,13.68,14c3.18,2.59,3.35,2.67,5.83-.84a94.58,94.58,0,0,0,10.63-19.76A96.42,96.42,0,0,0,1658,446.32Zm-125.93-78c.24-3.27-.53-6.57-1-9.88a82.65,82.65,0,0,0-2.69-13.13c-.74-2.47-1.29-2.74-3.81-2l-.46.14A100.63,100.63,0,0,0,1479,376.21a10.94,10.94,0,0,0-1.25,2,1.39,1.39,0,0,0,.43,1.71,5.69,5.69,0,0,0,1.21.78q10.52,5.2,21,10.37a21.54,21.54,0,0,0,3.15,1.15c7.86,2.39,15,.93,20.75-4.91C1529.48,382.19,1532.49,375.94,1532.09,368.3Zm-74.32,74.18-.14,0c.3,2.54.62,5.07.9,7.61a99.09,99.09,0,0,0,16.38,44.07c.36.54.72,1.07,1.12,1.56.75.91,1.47.92,2.46.09a8.54,8.54,0,0,0,.71-.64c5.39-5.69,10.84-11.32,16.13-17.09a26.63,26.63,0,0,0,3.76-5.54,18.57,18.57,0,0,0,.46-17.51c-3.4-7.13-8.62-12.13-16.42-14.32-6.67-1.86-13.48-2.57-20.31-3.31a13.73,13.73,0,0,0-2.4,0c-1.86.12-2.51.78-2.64,2.69C1457.72,440.88,1457.77,441.69,1457.77,442.48Zm77.76-71.81c.36,5.79-2.91,12.4-8.11,18.16-5.43,6-12.27,8.29-20.3,7.37a31.77,31.77,0,0,1-10.46-3.24c-6-3-12-6-18-8.94-3.74-1.84-4.21-1.67-6.42,2-.24.41-.49.82-.71,1.24-1.34,2.53-1,3.33,1.65,4.18.61.19,1.25.27,1.87.44q15.24,4.14,30.5,8.29c5.55,1.5,11.13,2.87,16.66,4.45a6.26,6.26,0,0,0,6.22-1.23,48.67,48.67,0,0,1,5.43-3.93,6,6,0,0,0,3-5.57c0-3.35.17-6.7.37-10.05q.81-13.62,1.7-27.24c.17-2.71.43-5.41.57-8.12q.2-3.58.17-7.17a1.44,1.44,0,0,0-1.53-1.52c-2.2.24-4.71.17-6.25,1.89-1.29,1.43,0,3.33.35,5,.15.78.34,1.56.52,2.34A105.86,105.86,0,0,1,1535.53,370.67Zm-75.22,55.54c-.92.15-1.5.45-1.66,1.14a25.24,25.24,0,0,0-.74,3.74c-.16,1.82.54,2.63,2.41,2.86,2.86.35,5.72.63,8.58.91a91.51,91.51,0,0,1,16,3c7.86,2.25,13.36,7.37,17.07,14.46a22.32,22.32,0,0,1,.33,21.2,38.62,38.62,0,0,1-7,9.66c-3.88,4-7.76,8.06-11.69,12-5,5.06-4.64,4.46,0,9.91a4.25,4.25,0,0,0,.68.66,1.34,1.34,0,0,0,2.08-.24c.69-.88,1.34-1.79,2-2.72q12.69-19.22,25.36-38.44c.35-.53.68-1.08,1-1.6a4.66,4.66,0,0,0,.49-5,38.57,38.57,0,0,1-3-10.1c-.36-2.43-1.65-3.57-3.81-4.33-6-2.11-12-4.34-18-6.52q-13.3-4.83-26.6-9.64C1462.54,426.85,1461.31,426.52,1460.31,426.21Zm97.42,60v-.09a35.31,35.31,0,0,1-5.73-.06,5.42,5.42,0,0,0-5.75,2.32c-9.63,12.13-19.39,24.16-29.11,36.23-.59.75-1.23,1.48-1.74,2.28a1.36,1.36,0,0,0,.54,2,13.72,13.72,0,0,0,1.24.71c3.49,1.69,4.25,1.43,5.89-2,.47-1,.91-2,1.38-3a116.87,116.87,0,0,1,10.42-18.29,27.94,27.94,0,0,1,18.63-11.56c9.25-1.59,17,1.12,23,8.54a41.25,41.25,0,0,1,5.06,8.11c2.67,5.63,5.32,11.26,8,16.89q.72,1.51,1.53,3a1.43,1.43,0,0,0,1.63.73,28.1,28.1,0,0,0,8-3.2,1.32,1.32,0,0,0,.34-2.06c-.55-.78-1.18-1.51-1.79-2.25q-10-12.25-20-24.51c-3-3.72-6.13-7.37-9.09-11.14a6.07,6.07,0,0,0-5.75-2.64C1562.22,486.41,1560,486.25,1557.73,486.25Zm-86.57-84.81a2.12,2.12,0,0,0-2.09,1.36c-1,2.52-2,5-2.87,7.6-1.93,6-1.78,5.79,4.12,7.3,12,3.08,24.09,6.21,36.14,9.31,1.39.36,2.78.72,4.2.94a2,2,0,0,0,2.33-1.26c1-2.37,1.88-4.74,2.77-7.13a1.55,1.55,0,0,0-.89-2,5.24,5.24,0,0,0-.87-.39q-20.62-7.68-41.27-15.36A13,13,0,0,0,1471.16,401.44Zm135.85-4.5c-6.42-.44-12.62-2.25-18-6.49a20.79,20.79,0,0,1-6.7-9.19,25.49,25.49,0,0,1-1.58-12.25c1.07-7.76,2.08-15.53,3.49-23.22.77-4.18,0-5.05-4.07-5.66a9.41,9.41,0,0,0-1.89-.24,1.25,1.25,0,0,0-1.26,1.19,13.39,13.39,0,0,0,0,1.9c.5,7.33,1,14.66,1.51,22,.43,6.85.78,13.71,1.21,20.57.2,3.19.56,6.37.76,9.56a4.86,4.86,0,0,0,2.23,4c2.36,1.64,4.67,3.36,7,5.09a4.28,4.28,0,0,0,3.61.88c1.56-.32,3.12-.7,4.65-1.13q13.85-3.9,27.67-7.85c5.69-1.62,11.39-3.19,17-4.88,2.7-.8,3-1.73,1.75-4.22-.22-.43-.46-.85-.7-1.26-1.79-3-2.37-3.17-5.28-1.54-1,.54-1.92,1.16-2.87,1.74a99,99,0,0,1-17.16,8.51A34.89,34.89,0,0,1,1607,396.94Zm51,33.53c-.06-5.67-.32-5.84-5.64-3.8q-17.91,6.87-35.83,13.74c-2.83,1.09-5.64,2.26-8.47,3.36a4,4,0,0,0-2.72,3.08,67.52,67.52,0,0,1-4,12.8,2.88,2.88,0,0,0,.33,2.74c.41.69.85,1.35,1.3,2q12.85,18.83,25.7,37.64a24.13,24.13,0,0,0,2,2.69,1.47,1.47,0,0,0,2.14.06,8.87,8.87,0,0,0,1-1c1.94-2.1,2-2.89-.2-4.69a129.07,129.07,0,0,1-11.07-10.62,60.62,60.62,0,0,1-8.15-10.65c-9-15.06-1.65-33.67,15.24-38.25a89.59,89.59,0,0,1,10.37-1.84c5-.75,10.13-1.34,15.19-2.06a2.74,2.74,0,0,0,2.71-2.83A21.16,21.16,0,0,0,1658,430.47Zm-151.81,89.37a1.85,1.85,0,0,0,1.83-.73c.8-1,1.54-2,2.26-3.09q7.15-10.49,14.28-21c2.78-4.09,5.56-8.19,8.27-12.33,1.31-2,1.17-2.63-.59-4.05s-3.26-2.57-4.94-3.79c-1.53-1.12-2.33-1-3.7.48-.44.47-.83,1-1.22,1.48Q1510,492.43,1497.73,508a22.79,22.79,0,0,0-1.4,1.94c-.77,1.23-.73,2,.32,3a56.36,56.36,0,0,0,8.35,6.4A5.84,5.84,0,0,0,1506.16,519.84Zm144.15-106.66a40.94,40.94,0,0,0-3.73-10,1.7,1.7,0,0,0-2-.91c-1.09.27-2.16.6-3.22,1l-24.44,8.57c-4.68,1.65-9.35,3.29-14,5-1.71.63-2,1.29-1.42,2.94.68,2,1.45,3.89,2.18,5.84,1,2.81,1.41,3,4.17,2.33,1.08-.27,2.15-.6,3.23-.91l35.93-10.4a20,20,0,0,0,2.26-.77C1650.05,415.52,1650.52,414.92,1650.31,413.18ZM1591.63,474a8,8,0,0,0-1.47.65c-1,.75-2,1.58-3,2.34-4.26,3.17-4.56,3.23-1.32,7.93q10.74,15.6,21.46,31.21c.45.65.9,1.32,1.41,1.93a2,2,0,0,0,3,.58,30,30,0,0,0,6.24-4.42c3.57-3.26,3.61-3.65.64-7.42q-11.13-14.1-22.31-28.2c-1-1.25-2-2.5-3.06-3.68A6.37,6.37,0,0,0,1591.63,474ZM1565,356.89c0-2.72,0-5.43,0-8.15,0-5.18-.31-5.53-5.28-5.62h-2.4c-6.56.05-6.73.31-6.34,6.79.66,11,1.2,22,1.84,33,.14,2.39.4,4.78.76,7.14.26,1.72.91,2.31,2.48,2.4a48.76,48.76,0,0,0,5.27,0,2.17,2.17,0,0,0,2.26-2.05,12.2,12.2,0,0,0,.15-1.91C1563.63,378,1564.59,367.44,1565,356.89Zm28.2-33.16a4.41,4.41,0,0,0-1.07.45c-1.67,1.42-1.16,5.2.85,6.07,1.46.65,3,1.17,4.47,1.73a111.68,111.68,0,0,1,47.26,33.3c1.54,1.83,3,3.72,4.54,5.57a2.22,2.22,0,0,0,2,1,6,6,0,0,0,3.67-2.06,1.62,1.62,0,0,0,.11-1.32,6.42,6.42,0,0,0-1-1.66,112.19,112.19,0,0,0-13.51-15.53,122.86,122.86,0,0,0-21.73-16.48,113.29,113.29,0,0,0-22.63-10.32C1595.17,324.18,1594.08,324,1593.18,323.73Zm-69.27,4.34c-.09-.35-.24-1.14-.49-1.89-.51-1.59-1.3-2.06-2.88-1.64-1.23.33-2.44.75-3.64,1.2a119,119,0,0,0-53.69,40.15,31.89,31.89,0,0,0-2.07,3.21,1.64,1.64,0,0,0,.45,2.15c2.71,2.27,3.76,1.83,5.48-.48,2.09-2.82,4.32-5.54,6.66-8.15a114.21,114.21,0,0,1,46.38-31.22c.89-.33,1.8-.64,2.67-1A1.93,1.93,0,0,0,1523.91,328.07Zm34.39,220.08c4.36-.34,9-.51,13.6-1.1a88.47,88.47,0,0,0,16.86-3.57c2.91-1,3.42-2.52,1.67-5a2.4,2.4,0,0,0-2.46-1.13c-1.25.22-2.49.57-3.73.86-11.41,2.74-22.88,4.21-34.68,3a120.32,120.32,0,0,1-20.24-3.67c-1.39-.39-2.77-.81-4.18-1.1a2.25,2.25,0,0,0-2.49,1c-1.59,2.53-1.78,4.07,1.45,5,.92.27,1.82.6,2.74.89C1537,546.58,1547.49,547.45,1558.3,548.15Zm118.78-104.83c0-1.68.07-3,0-4.23-.15-2.27-1.56-3-3.65-2a2.81,2.81,0,0,0-1.77,2.1c-.29,1.89-.56,3.79-.73,5.7s-.12,4.16-.38,6.21A113.85,113.85,0,0,1,1651,502.53c-.73,1.05-1.47,2.09-2.18,3.15a1.71,1.71,0,0,0,.08,2.21,12.77,12.77,0,0,0,1.73,1.64,1.45,1.45,0,0,0,2.13-.14c.53-.59,1-1.27,1.45-1.91a118.79,118.79,0,0,0,22.84-64.16ZM1591,333.47a2.85,2.85,0,0,0-.86.41c-1.5,1.42-1,4.88.82,5.77,1,.48,2.09.79,3.13,1.19a102.53,102.53,0,0,1,42.69,29.88c1.44,1.71,2.84,3.45,4.27,5.17a2.39,2.39,0,0,0,3,.85c3.19-1.27,3.53-2.49,1.41-5.34-.38-.52-.8-1-1.2-1.5a110.9,110.9,0,0,0-23.63-22.25,108.93,108.93,0,0,0-25.91-13.3A9.5,9.5,0,0,0,1591,333.47Zm-64.79,3.88a16.47,16.47,0,0,0-.55-2,2,2,0,0,0-2.64-1.43c-.93.22-1.84.53-2.74.84a99,99,0,0,0-14,6.35,106.91,106.91,0,0,0-35.79,30.54,12.28,12.28,0,0,0-1.31,2,1.76,1.76,0,0,0-.06,1.35c1,1.9,4.34,2.53,5.69,1,2-2.28,3.82-4.72,5.85-7a103.51,103.51,0,0,1,40.23-27.8c1.33-.52,2.66-1.08,4-1.67A2.47,2.47,0,0,0,1526.23,337.35Zm-75,99.84c-2-.05-2.91.72-3,2.81a19.73,19.73,0,0,0,.06,3.35c.53,4.76.91,9.55,1.75,14.26a108,108,0,0,0,18,43.48c2,2.83,2.78,2.83,5,.21,1.18-1.35,1.26-1.89.35-3.42-.66-1.09-1.4-2.14-2.11-3.2a101,101,0,0,1-15.26-38,114.82,114.82,0,0,1-1.78-16.66C1454.25,438,1453.32,437.24,1451.26,437.19Zm216.39,7.41c0-1.44.07-2.88,0-4.32-.15-2.44-1.73-3.23-4-2.11a3,3,0,0,0-1.69,2.7c-.34,3.34-.53,6.7-1,10a102.49,102.49,0,0,1-16.13,43.73l-2.92,4.4a2.21,2.21,0,0,0,.24,3,18,18,0,0,0,1.75,1.63,1.52,1.52,0,0,0,2.45-.41c1.58-2.21,3.15-4.44,4.61-6.73A107.68,107.68,0,0,0,1667.65,444.6Zm-228.12-2.46-.28,0c.69,5.38,1.2,10.8,2.11,16.15a115.87,115.87,0,0,0,20.32,48.17,13.74,13.74,0,0,0,1.88,2.15,1.66,1.66,0,0,0,1.31.33,2.81,2.81,0,0,0,1.82-4.09c-.91-1.51-2-2.93-2.92-4.39-11.93-17.88-18-37.64-18.89-59.05,0-.95,0-1.92-.16-2.86-.2-1.45-1.11-2.1-2.71-2.09a2.17,2.17,0,0,0-2.46,2.3C1439.46,439.9,1439.53,441,1439.53,442.14ZM1556.89,556c7.35,0,13.58-.06,19.75-1.17a121.28,121.28,0,0,0,14.49-3.23,21.29,21.29,0,0,0,3.09-1.26,1.44,1.44,0,0,0,.69-1.65c-.37-2.07-1.75-3.07-3.79-2.47a130.12,130.12,0,0,1-27.81,4.76c-6.77.49-13.4-.24-20.06-.85a100.52,100.52,0,0,1-19.64-4.34c-.76-.23-1.51-.52-2.29-.68-1.48-.3-2.57.53-3.12,2.28-.34,1.1.12,1.82,1.69,2.4,1.19.45,2.42.84,3.64,1.2C1534.77,554.37,1546.22,556.35,1556.89,556Zm-10.43-189.5c0-7.68,0-15.35,0-23a21.93,21.93,0,0,0-.38-3.79c-.06-.33-.65-.69-1.06-.81a1.42,1.42,0,0,0-1.59.79,3.35,3.35,0,0,0-.4,1.37c-.28,2.54-.62,5.08-.77,7.63-.46,8.3-.84,16.6-1.26,24.9,0,.8-.14,1.59-.2,2.39q-.63,9.09-1.26,18.17c-.08,1.21.63,1.79,1.82,1.45,5.24-1.51,5.11-1.84,5.11-6.52Zm24.23-.34h.18q0,11.26,0,22.53c0,1.12.07,2.24.16,3.35a2.6,2.6,0,0,0,1.5,2.29,24.08,24.08,0,0,0,3.14,1.14,1.24,1.24,0,0,0,1.62-1.26c0-3.35-.07-6.71-.29-10.06-.44-6.85-1.06-13.69-1.51-20.54-.46-7-.78-14-1.2-21.06a11.05,11.05,0,0,0-.55-2.78,1.3,1.3,0,0,0-1.57-.79,1.72,1.72,0,0,0-1.06.86,10.55,10.55,0,0,0-.42,4.26Q1570.68,355.11,1570.69,366.14Zm36.9,158.16a5.31,5.31,0,0,0-.44-1.19c-.6-.94-1.25-1.86-1.92-2.75q-12.51-16.35-25-32.69c-.78-1-1.62-2-2.44-2.95a2.69,2.69,0,0,0-3.43-.81c-.29.12-.6.21-.9.32-1.77.65-2.1,1.38-1,2.77,2,2.65,4.19,5.23,6.3,7.83q11.65,14.3,23.31,28.56a26.48,26.48,0,0,0,2.21,2.5,1.79,1.79,0,0,0,2.23,0A2.23,2.23,0,0,0,1607.59,524.3Zm-1.95-86c0,.34,0,.5,0,.66,0,1.81.72,2.36,2.41,1.76,2.7-1,5.38-2,8.06-3l37.1-14.29a15.84,15.84,0,0,0,2.62-1.17,1.93,1.93,0,0,0,.75-2.51,1.53,1.53,0,0,0-1.95-.95c-1.08.26-2.15.59-3.21,1q-20.16,6.92-40.32,13.87c-1,.36-2.08.8-3.13,1.19A3.13,3.13,0,0,0,1605.64,438.28Zm-83.12-29.85c-.14-.27-.22-.69-.43-.78a25.33,25.33,0,0,0-3.13-1.11q-12-3.29-24-6.51-11.55-3.09-23.1-6.13a12.64,12.64,0,0,0-2.33-.46,1.4,1.4,0,0,0-1.44,1,1.22,1.22,0,0,0,.59,1.62c1.16.52,2.37.94,3.57,1.34q16.14,5.24,32.29,10.45c4.4,1.42,8.81,2.81,13.24,4.11C1519.69,412.54,1522.3,410.48,1522.52,408.43Zm-11.33,30.11c0-2.33-.52-3.17-2.73-3.94-2.56-.89-5.19-1.59-7.78-2.41Q1482.84,426.61,1465,421a23.72,23.72,0,0,0-3.7-.89,1.52,1.52,0,0,0-1.78,1.24,1.39,1.39,0,0,0,.83,1.57c1.14.55,2.33,1,3.53,1.47q16.2,5.91,32.41,11.79c4,1.47,8.09,3,12.17,4.36C1510.35,441.2,1511.22,440.47,1511.19,438.54Zm135-45.36c-1.48.37-3.19.76-4.88,1.24q-15.45,4.4-30.88,8.84c-4.76,1.36-9.53,2.72-14.27,4.15-1.65.49-1.78,1.5-.57,2.82a3,3,0,0,0,3.4,1.12c.61-.2,1.23-.36,1.84-.55l44.8-14.14a8.73,8.73,0,0,0,2.16-1,1.48,1.48,0,0,0,.44-1.23,2.15,2.15,0,0,0-.88-1A3.56,3.56,0,0,0,1646.15,393.18Zm-126,74.81a3.75,3.75,0,0,0-1.94-3.18c-1.15-.38-1.71.54-2.26,1.32s-1.26,1.85-1.88,2.78q-11.52,17.37-23,34.76c-.71,1.06-1.43,2.12-2.08,3.22-1,1.71-1,3.05-.07,3.31,1.43.4,2-.76,2.61-1.62,3.66-5,7.27-10.12,10.91-15.18q7.95-11.1,15.92-22.2A8.41,8.41,0,0,0,1520.16,468Zm108.53,40.33a2.7,2.7,0,0,0-.63-2.21c-1.78-2.64-3.61-5.26-5.4-7.89q-10.25-15-20.48-30.08a26,26,0,0,0-2.36-3,1.34,1.34,0,0,0-1.28-.05c-1.87,1.29-2.31,3.18-1.19,4.91.6.94,1.3,1.82,2,2.71q5.16,6.9,10.34,13.79,7.32,9.76,14.65,19.53a9.58,9.58,0,0,0,2.89,3.12A1.22,1.22,0,0,0,1628.69,508.32Zm-84.42-22.9a2.18,2.18,0,0,0-.16-.45,3,3,0,0,0-4.23-.58,15,15,0,0,0-1.53,1.83q-13.45,18.09-26.88,36.18a13.21,13.21,0,0,0-1.41,2.48.9.9,0,0,0,.54,1.19c.41.16,1.05.29,1.32.09a13.18,13.18,0,0,0,2-2q14.47-17.89,28.91-35.82a16.35,16.35,0,0,0,1.35-2A2.48,2.48,0,0,0,1544.27,485.42Zm13.32-160.78c2.17.1,4.23.23,6.29.28a1.78,1.78,0,0,0,1.92-1.71,10.45,10.45,0,0,0,.06-2.37,2.28,2.28,0,0,0-2.44-2.4c-3.81-.09-7.62-.06-11.43,0a2.13,2.13,0,0,0-2.16,2.12,12.51,12.51,0,0,0,0,2.37c.13,1.41.78,2,2.16,2C1553.89,324.89,1555.79,324.75,1557.59,324.64Zm-103.35,88.85c1.89.24,2.77-.21,3.11-1.19,1.46-4.2,2.85-8.44,4.22-12.67a1.81,1.81,0,0,0-.85-2.05,6.37,6.37,0,0,0-1.27-.66c-2.12-.89-3-.66-3.74,1.39-1.28,3.43-2.39,6.92-3.52,10.4a14.89,14.89,0,0,0-.45,2.34,1.7,1.7,0,0,0,1,1.93A8.46,8.46,0,0,0,1454.24,413.49Zm-4.4-20.13a2.39,2.39,0,0,0-2.58,1.61A83.18,83.18,0,0,0,1443,408.6c-.3,1.46.07,1.92,1.59,2.4,2.4.77,3.22.44,4-1.86,1.41-4.22,2.75-8.46,4.1-12.7a1.81,1.81,0,0,0-1-2.36A18.29,18.29,0,0,0,1449.84,393.36Zm107.8-59.25v.11c1.76,0,3.52.07,5.27,0,1.91-.1,2.66-.9,2.75-2.62.11-2-.67-3.21-2.53-3.41a44.74,44.74,0,0,0-11,.08A2.51,2.51,0,0,0,1550,331c0,1.76.78,2.93,2.36,3.07C1554.13,334.23,1555.89,334.11,1557.64,334.11Zm-58.22,196.32c.74-.11,1.27-.55,2-1.49,1.69-2.26,1.6-3-.64-4.61-1.92-1.4-3.88-2.75-5.8-4.14-1-.74-2-1.58-3-2.27a1.62,1.62,0,0,0-2.15.32,10.18,10.18,0,0,0-1.18,1.49c-1.08,1.62-1.1,2.48.45,3.68,3,2.32,6.13,4.49,9.23,6.68A3.52,3.52,0,0,0,1499.42,530.43Zm173.7-123.16a5.86,5.86,0,0,0-.06-.94,66.19,66.19,0,0,0-3.59-10.81,2.15,2.15,0,0,0-2.78-1.19,7.12,7.12,0,0,0-1.33.5c-1.51.67-1.89,1.35-1.38,3q1.68,5.46,3.53,10.85c.43,1.26,1.24,1.55,2.68,1.21C1672.12,409.44,1673.06,408.59,1673.12,407.27Zm-55.07,122.45a14.36,14.36,0,0,0,2.07-1.05c2.57-1.86,5.13-3.74,7.63-5.7,1.86-1.46,1.89-2.16.41-3.87a12,12,0,0,0-1-1,2,2,0,0,0-3-.18c-3,2.14-5.87,4.33-8.78,6.53a1.79,1.79,0,0,0-.49,2.53,12.43,12.43,0,0,0,1.74,2.22C1617,529.46,1617.51,529.51,1618.05,529.72Zm46.06-120.1a59.44,59.44,0,0,0-3.71-11.23,1.87,1.87,0,0,0-2.43-.93,11.25,11.25,0,0,0-1.79.65,2,2,0,0,0-1.19,2.74c1.09,3.48,2.22,6.94,3.42,10.38a2.05,2.05,0,0,0,2.7,1.32,11.77,11.77,0,0,0,2.2-.85C1663.94,411.4,1664.18,410.82,1664.11,409.62ZM1622.5,537a7.28,7.28,0,0,0,1.62-.7c3-2.13,5.93-4.24,8.77-6.52,1.84-1.48,1.79-2.59.25-4.42-.89-1.05-1.63-1.14-2.85-.24l-9.53,7.1c-.68.51-1.19,1.14-.84,2A4.12,4.12,0,0,0,1622.5,537Zm-26.34,3.74a2.92,2.92,0,0,0,.62-.05,38.59,38.59,0,0,0,10-4.38,1.59,1.59,0,0,0,.52-1.23c-.2-2.25-2.75-4.06-4.77-3.29-2.67,1-5.27,2.19-7.88,3.33a1.46,1.46,0,0,0-.92,1.93,18.08,18.08,0,0,0,1.44,3C1595.35,540.37,1595.88,540.54,1596.16,540.73Zm-111-15.56a6.91,6.91,0,0,0-1,.43c-1.36.94-1.79,2.66-.73,3.7a43.12,43.12,0,0,0,10.79,7.83,1.54,1.54,0,0,0,1.75-.42c1.51-1.34,1.59-2.87.08-4-3-2.31-6.15-4.56-9.26-6.8A8.13,8.13,0,0,0,1485.18,525.17Zm182.38-95.48c-.14-2.55-.08-4.78-1-6.86a1.59,1.59,0,0,0-1-.84c-1.55-.22-4,1.12-4.18,2.43a19.5,19.5,0,0,0,.61,8.88,1.88,1.88,0,0,0,1.35,1.21,3.37,3.37,0,0,0,4.05-2.34A18.7,18.7,0,0,0,1667.56,429.69Zm-129.28-99.75c-2.46.56-5.49.77-8.26,2a1.69,1.69,0,0,0-1,2,12.73,12.73,0,0,0,.63,2.27c.47,1.25,1.19,1.64,2.62,1.39s3.11-.58,4.63-1c2.66-.74,3.61-2.07,3.58-4.81C1540.51,330.73,1539.77,330,1538.28,329.94ZM1592.5,433a4.43,4.43,0,0,0,4.76-4.25,4.79,4.79,0,0,0-4.73-4.9,4.58,4.58,0,0,0,0,9.15Zm-115.75,70.12c-.4.09-.78.07-1,.25a27.74,27.74,0,0,0-2.43,2.29,1.37,1.37,0,0,0-.17,1.77,36.06,36.06,0,0,0,6,6.83,1.14,1.14,0,0,0,1.68-.34c.57-.76,1.09-1.57,1.59-2.39a2.39,2.39,0,0,0-.36-3.07c-1.38-1.55-2.76-3.11-4.18-4.63A5,5,0,0,0,1476.75,503.15Zm-10.09-124.74a2.46,2.46,0,0,0-.84.42,29.44,29.44,0,0,0-4.61,7.76,1.29,1.29,0,0,0,.75,1.59,17.89,17.89,0,0,0,2.72.85,2.1,2.1,0,0,0,2.47-1c1.25-2,2.46-4.09,3.62-6.18a1.74,1.74,0,0,0,0-1.36C1470.34,379.57,1467.68,378.28,1466.66,378.41Zm188,8.19a1.45,1.45,0,0,0,0-.47,26.87,26.87,0,0,0-4.36-7.39,1.42,1.42,0,0,0-1.72-.48,17.37,17.37,0,0,0-2.86,1.67,1.38,1.38,0,0,0-.39,1.75,56.65,56.65,0,0,0,3.75,6.1c1.1,1.45,4.65.86,5.46-.73A2.38,2.38,0,0,0,1654.68,386.6ZM1448.74,429h0c-.09.94-.2,1.89-.26,2.83a1.69,1.69,0,0,0,.83,1.61,3.41,3.41,0,0,0,5.21-2.6c.2-1.25.4-2.51.53-3.77.24-2.31-.33-3.15-2.53-3.85-2-.61-3.12,0-3.41,2C1448.91,426.48,1448.85,427.75,1448.74,429Zm130-98.91c-1.27.08-1.84.61-2,1.45-.58,2.76.3,4.32,2.88,5.1.91.27,1.86.42,2.79.62,2.71.56,3.11.32,3.63-2.18.56-2.73.21-3.38-2.5-4.06C1581.87,330.61,1580.14,330.36,1578.78,330.1Zm-65.47,201.51a2.39,2.39,0,0,0-2.13.63,16.36,16.36,0,0,0-1.7,2.29,1.39,1.39,0,0,0,.57,2.05c2,1,4,2,6,2.9a1.55,1.55,0,0,0,2.07-.69,15.8,15.8,0,0,0,1.19-3.09,1.55,1.55,0,0,0-.45-1.27A17.4,17.4,0,0,0,1513.31,531.61Zm125-27.34c-1.31.42-1.92,1.6-2.67,2.6-1.64,2.19-1.54,3.38.28,5.5a1.62,1.62,0,0,0,2.5.28,41.18,41.18,0,0,0,3.26-3.48,1.91,1.91,0,0,0-.19-3,17.35,17.35,0,0,0-2.24-1.76C1639,504.28,1638.64,504.33,1638.31,504.27Zm-80.24-166.84v.23c-1.75,0-3.51,0-5.26,0a1.14,1.14,0,0,0-1.25,1.14.93.93,0,0,0,1,.87q5.73,0,11.48,0a.81.81,0,0,0,.76-1,1.44,1.44,0,0,0-1-.87C1561.89,337.6,1560,337.54,1558.07,337.43Zm9.69,27h-.4c0,.47-.13.94-.14,1.41-.24,7.48,0,15-.88,22.42a16.91,16.91,0,0,0,.1,3.33.81.81,0,0,0,.61.52.77.77,0,0,0,.58-.55c.08-2.38.12-4.77.12-7.15Q1567.77,374.42,1567.76,364.44Zm-32-43.1c-.09-.27-.17-.55-.26-.82-2.31.52-4.64,1-6.93,1.58-2,.54-2.42,1.53-1.6,3.59a1.27,1.27,0,0,0,1.91.77C1531.17,324.8,1533.44,323.05,1535.73,321.34Zm13.36,48.07q0,11,0,22c0,.22.32.44.49.67.13-.05.37-.08.38-.15C1551.17,384.44,1548.7,377.06,1549.09,369.41Zm112.92,11c-.72-2.5-2.56-6.17-3.65-7.13a1.66,1.66,0,0,0-1.28-.34,3.44,3.44,0,0,0-2.61,1.83c-.49,1.42,1,1.84,1.82,2.36C1658.11,378.19,1659.67,379.83,1662,380.37Zm-55.34,165.56-.26-.94c-2.53,0-5.06,0-7.58,0-.82,0-1.21,1-.85,1.82.54,1.34,1.33,1.9,2.54,1.49C1602.6,547.6,1604.62,546.73,1606.67,545.93Zm70.4-116.65c-.29-.9.27-2.65-.79-2.88-1.56-.33-1.47,1.62-2,2.6a12.51,12.51,0,0,0-1.16,3.11,1,1,0,0,0,1,1.26c1.59,0,2.61-.78,2.8-2C1677,430.7,1677,430.06,1677.07,429.28Zm-22.55-16c.66-.43.46-1.09.31-1.64-.64-2.3-1.24-4.63-2.08-6.86-.53-1.41-.63-3.16-2.25-4-1.32,1.83.46,3.14.86,4.65.57,2.15,1.41,4.23,2.14,6.34C1653.7,412.39,1653.75,413.07,1654.52,413.29Zm-41.23,119c.21-1.45-1.72-4-3.11-4.15a2,2,0,0,0-2,2.46,5.71,5.71,0,0,0,2.41,2.77C1611.53,533.89,1613.16,533.23,1613.29,532.29Zm46.7-114.2a1.69,1.69,0,0,0,2.15,1.81,5.05,5.05,0,0,0,2.9-1.53,1.91,1.91,0,0,0,.15-2.23,1.42,1.42,0,0,0-1.67-.6,16,16,0,0,0-2.69,1A1.58,1.58,0,0,0,1660,418.09Zm-219.44,7.63a9.12,9.12,0,0,0-.83,5.8,2,2,0,0,0,2.62,1.28c1-.28,1.11-1.06.81-1.87C1442.52,429.23,1442.12,427.39,1440.55,425.72ZM1573.45,332c-.06-.37-.12-1-.26-1.6a1.42,1.42,0,0,0-1.31-1.14,1.4,1.4,0,0,0-1.58,1.36,10,10,0,0,0,0,2.79,1.44,1.44,0,0,0,1.6,1.36c.92-.09,1.3-.76,1.43-1.59C1573.4,332.84,1573.4,332.52,1573.45,332Zm100.94,86.88a4.12,4.12,0,0,0-3.64,1.23,2.26,2.26,0,0,0-.6,1.25c-.18,1.2.31,2.93,1.38,5.23C1672.61,424,1673.88,421.62,1674.39,418.84ZM1546.48,332c-.09-.69-.11-1.17-.21-1.63a1.2,1.2,0,0,0-1.32-1.08,1.72,1.72,0,0,0-1.15.67,4.35,4.35,0,0,0-.16,4.1,1.48,1.48,0,0,0,1.15.62,1.51,1.51,0,0,0,1.16-.61A10,10,0,0,0,1546.48,332Zm-86.77,49.83c-3.16.41-4.1.94-6.67,3.63,3.46,1.67,3.6,1.65,5.27-1.05C1458.8,383.63,1459.2,382.78,1459.71,381.84ZM1588,324.59c.18-1.95-.12-2.48-1.78-3a15.28,15.28,0,0,0-2.79-.42.92.92,0,0,0-.74.43,1,1,0,0,0,.11.87c1.21,1.25,2.43,2.47,3.72,3.63a.73.73,0,0,0,1.16-.34A6.09,6.09,0,0,0,1588,324.59ZM1497.79,428a79.25,79.25,0,0,0,12.8,4.13c.16,0,.59-.34.57-.46a1,1,0,0,0-.5-.7A79.55,79.55,0,0,0,1497.79,428Zm-24.46,86c.45,2.31.78,4.18,1.21,6a1.76,1.76,0,0,0,.84,1.05c.47.22.87-.2,1.15-.6,1.41-2,1.43-2.52-.06-4.15A6.16,6.16,0,0,0,1473.33,514Zm197-97.59a6.52,6.52,0,0,0,4-1.56,1.57,1.57,0,0,0-.38-2.11,4,4,0,0,0-4.61,1.49,1.61,1.61,0,0,0,0,1.34C1669.52,416,1670,416.18,1670.31,416.43Zm-88.45-89.62a27.17,27.17,0,0,0-4.67-4.56.85.85,0,0,0-1.3.77c-.15,2.19.25,3,2.16,3.51C1579.19,326.86,1580.33,327.64,1581.86,326.81Zm-47.23-.38.37.8c1.51-.35,3-.66,4.51-1.09a1.8,1.8,0,0,0,1-.93,1.83,1.83,0,0,0-.19-2.2c-.54-.51-1.21-.22-1.71.17C1537.24,324.23,1535.94,325.34,1534.63,326.43Zm82.58,213.77a1.53,1.53,0,0,0,1.39-2,4.29,4.29,0,0,0-2.17-2.43,1.63,1.63,0,0,0-1.76.4,1.88,1.88,0,0,0-.69,1.15A3.45,3.45,0,0,0,1617.21,540.2ZM1461.33,413.39c1.59-4.1,3-8.3,4.73-12.35.17-.39.24-1-.41-1-.21,0-.56.32-.66.57A47.9,47.9,0,0,0,1461.33,413.39Zm-5.4,6.15c-.07-.3-.06-.48-.15-.6a4.71,4.71,0,0,0-4.66-1.56,1.25,1.25,0,0,0-.5,1.61,4.72,4.72,0,0,0,4.67,1.57C1455.59,420.5,1455.76,419.83,1455.93,419.54Zm4.71-44a4.65,4.65,0,0,0-.72-1,1.56,1.56,0,0,0-1.78-.2,5.1,5.1,0,0,0-2.49,3.81c0,.17.38.61.52.59a6.84,6.84,0,0,0,4.34-2.59A2.09,2.09,0,0,0,1460.64,375.51Zm145.28,165.13.07.88c1.55.21,3.09.47,4.64.63.72.07,1.75.49,2-.62.09-.46-.47-1.1-.83-1.6a2.14,2.14,0,0,0-2.91-.77C1607.86,539.63,1606.89,540.14,1605.92,540.64Zm60.69-151.74c-.16-.27-.25-.68-.48-.78a5.05,5.05,0,0,0-5,1.52c-.27.43.3,1.5.82,1.5a6.44,6.44,0,0,0,4.39-1.39C1666.5,389.58,1666.51,389.19,1666.61,388.9Zm-9.3,3c-.21-.83-.67-1.25-1.33-1.27a6.24,6.24,0,0,0-3.51,1.05,1.53,1.53,0,0,0-.54,1.17,1.15,1.15,0,0,0,1.22,1.14,5.92,5.92,0,0,0,3.5-1.08A3.44,3.44,0,0,0,1657.31,391.85Zm-87.15-69.47c0,1.92.78,3.15,1.72,2.75,1.46-.61.84-1.89.78-2.92s0-2-1.16-2.38C1570.74,319.55,1570.14,320.69,1570.16,322.38Zm-124.4,101.56c0-1.21,0-2.17-.67-2.93a1.54,1.54,0,0,0-1.66-.59,1.14,1.14,0,0,0-.76,1.48,9.92,9.92,0,0,0,1.75,3.8c.15.17.55.17.83.17.09,0,.24-.22.26-.35C1445.63,424.91,1445.71,424.29,1445.76,423.94Zm100.69-101.39a13.64,13.64,0,0,0-.1-1.5c-.1-.66-.41-1.23-1.17-1.22-.55,0-.81.47-.93.94a5.25,5.25,0,0,0,0,3.28,1.5,1.5,0,0,0,1,.75c.51.07.81-.43.93-.91A12,12,0,0,0,1546.45,322.55Zm-41.54,210.92a1.37,1.37,0,0,0,.47.08,4.55,4.55,0,0,0,3.15-3.27c.09-.31-.3-.84-.6-1.15a.92.92,0,0,0-.88-.09,5.15,5.15,0,0,0-2.65,3.73C1504.37,533,1504.73,533.24,1504.91,533.47Zm-20.81-15.56a4.84,4.84,0,0,0,2.18-2.08c.52-.81.9-1.65.13-2.52-.53-.6-1.45-.25-2.19.89-.58.89-1.41,1.7-1.27,2.89C1483,517.6,1483.39,517.87,1484.1,517.91Zm24.41,27a9.07,9.07,0,0,0,4.93,2.08c.83,0,1.9-1.16,1.67-1.85s-.92-.69-1.53-.65ZM1630.8,512a2.15,2.15,0,0,0-.45.9c-.18,1.53,1.68,3.94,3.11,4a.81.81,0,0,0,.78-1,6.28,6.28,0,0,0-2.45-3.82C1631.68,512.05,1631.49,512.08,1630.8,512ZM1464,393.44c0-.3.18-.67.06-.89a3.5,3.5,0,0,0-4.49-.93.86.86,0,0,0-.21.8c.56,1.28,3.16,2.08,4.36,1.38C1463.84,393.73,1463.91,393.56,1464,393.44Zm-21.25,21.07c-.56.2-1,.57-.83,1.05.4,1.32,2.72,2.18,4,1.49a.83.83,0,0,0,.21-1.25A3.82,3.82,0,0,0,1442.75,414.51Zm67.83,126.71a5.54,5.54,0,0,0-3.49-2,1.81,1.81,0,0,0-1.75.53,1.35,1.35,0,0,0-.45.81.91.91,0,0,0,.46.72A12.84,12.84,0,0,0,1510.58,541.22Zm146.83-159.11c.74,3.37,1.11,3.8,3.23,3.77a1.13,1.13,0,0,0,.82-.39.88.88,0,0,0,0-.85A8.82,8.82,0,0,0,1657.41,382.11Zm-202.65,8.17c0-.15,0-.35-.12-.43a4.43,4.43,0,0,0-3.79-1.27,1,1,0,0,0-.65.54.89.89,0,0,0,.17.82,4.87,4.87,0,0,0,3.88,1C1454.46,391,1454.59,390.52,1454.76,390.28Zm194,122.77a4.36,4.36,0,0,0-.91-.84.85.85,0,0,0-1.15.46,4.8,4.8,0,0,0-.7,3.13c0,.22.41.56.59.54C1647.73,516.21,1648.94,514.41,1648.78,513.05Zm-179,.62c-.09-.47-.16-1.1-.33-1.71a1,1,0,0,0-1-.84,1.34,1.34,0,0,0-1.33,1.15,3.26,3.26,0,0,0,1.89,3c.17,0,.55-.27.66-.5A3.71,3.71,0,0,0,1469.78,513.67ZM1481.4,522c-.15-.57-.51-1-1-.86a3.21,3.21,0,0,0-2.18,3.3.49.49,0,0,0,.24.38c.27.1.67.27.84.15A4.41,4.41,0,0,0,1481.4,522Zm157.93,1.46a4,4,0,0,0-2.35-3.21.87.87,0,0,0-.76.37c-.42,1.5.87,2.2,1.6,3.15a1,1,0,0,0,.82.3C1638.88,524.07,1639.07,523.75,1639.33,523.5Zm3.08-8c-.4-.22-.71-.54-.9-.48a2.5,2.5,0,0,0-1.7,2.9c.13.58.43,1.28,1.16,1.2.29,0,.63-.6.76-1C1642,517.27,1642.2,516.36,1642.41,515.51ZM1499.89,540a1.21,1.21,0,0,0,.46,0,3.36,3.36,0,0,0,2.16-2.31.94.94,0,0,0-.27-.8.93.93,0,0,0-.83-.17,3.47,3.47,0,0,0-1.93,2.5C1499.43,539.44,1499.74,539.74,1499.89,540Zm22.67-68.25c-2.86,2-2.88,2-3.48,4.69,1-1.26,1.76-2.22,2.5-3.21C1521.94,472.75,1522.24,472.24,1522.56,471.74Zm90.38-42.46c-2,.57-2.93.76-3.78,1.1s-1.88.05-2.2,1.36a4.37,4.37,0,0,0,1.35-.11C1609.57,431.06,1611.06,431.05,1612.94,429.28Zm-10.29-15.71c-.12-.07-.26-.21-.37-.19-.74.18-2-.19-1.81,1.05.06.37,1.3-.21,1.94-.54C1602.52,413.84,1602.57,413.68,1602.65,413.57Zm-66.44,70.32c.39,0,1.19-.89,1.09-1.29a.44.44,0,0,0-.3-.26c-.38-.06-1.17.88-1.08,1.28C1536,483.73,1536.11,483.8,1536.21,483.89Z"/><path d="M1531.3,473.46c-.45-1.19-.93-2.38-1.35-3.58-1.12-3.26-.15-6,2.24-8.27s5.54-2.48,8.54-1.41a7.46,7.46,0,0,1,4.92,6.56c.49,4.05-2.91,8.15-7.26,8.69a23.94,23.94,0,0,1-4.29-.23Zm6.22-10.71a4.92,4.92,0,0,0-4.7,4.51,5,5,0,0,0,4.74,5,4.85,4.85,0,0,0,4.74-4.44A5.29,5.29,0,0,0,1537.52,462.75Z"/><path d="M395.42,472.9a24.74,24.74,0,0,1-25.48-25.06c0-16.63,13.29-25.36,25.26-25.42a25.37,25.37,0,0,1,25.53,25.21C420.87,462.1,408.45,473.45,395.42,472.9Zm-.27-3.25c11.85.65,22.38-9.38,22.23-22-.16-14.45-12.15-21.9-21.88-22.07-10.76-.18-22.38,9-22.2,22.23C373.49,462.21,385.08,470.23,395.15,469.65Z"/><path d="M420.7,482.13a18.54,18.54,0,0,1-4.58,1.27,8,8,0,0,1-8.61-7.17,8.09,8.09,0,0,1,16.06-1.83,6.61,6.61,0,0,1-.62,4.18c-.67,1.25-1.53,2.4-2.31,3.6Zm-5.08-2.1a4.58,4.58,0,0,0,4.67-4.39,4.82,4.82,0,0,0-4.88-4.75,4.27,4.27,0,0,0-4.25,4.68A4.22,4.22,0,0,0,415.62,480Z"/><path d="M394.44,405.45a8.06,8.06,0,1,1-7.94,8.4A8.22,8.22,0,0,1,394.44,405.45Zm-.08,3.26a4.6,4.6,0,0,0-4.26,4.79c0,2.44,2.07,4.76,4.3,4.84a5.06,5.06,0,0,0,4.85-4.84A5,5,0,0,0,394.36,408.71Z"/><path d="M370.69,435.59a8.12,8.12,0,0,1-16.24.06,8.12,8.12,0,1,1,16.24-.06Zm-8.09-4.84a5.1,5.1,0,0,0-4.82,4.9,5.21,5.21,0,0,0,5,4.74,5.28,5.28,0,0,0,4.58-4.7A5.06,5.06,0,0,0,362.6,430.75Z"/><path d="M369.83,483.14a36.29,36.29,0,0,1-2.87-3.22,7.93,7.93,0,0,1,9.92-11.63,8.05,8.05,0,0,1,4.56,8.69,7.78,7.78,0,0,1-7.37,6.39,36.8,36.8,0,0,1-4.3-.28Zm3.63-3.09a4.37,4.37,0,0,0,4.68-4.34,4.54,4.54,0,0,0-4.74-4.81,4.58,4.58,0,0,0,.06,9.15Z"/><path d="M1559.55,414.64c11.36-.75,25.12,9.46,25.08,25.37,0,13.18-11.13,25-25.07,25.07a25.64,25.64,0,0,1-25.62-25.58C1534,425.6,1546.14,413.83,1559.55,414.64Zm-.32,3.22c-12.93-.43-22,11.1-22,21.89a22,22,0,1,0,44.06-.18C1581.34,428.38,1571.64,417.35,1559.23,417.86Z"/><path d="M1566.69,405.2a8.1,8.1,0,0,1-16.19.3,8.08,8.08,0,0,1,7.91-8A8.4,8.4,0,0,1,1566.69,405.2Zm-3.7.21a4.25,4.25,0,0,0-4.39-4.56,4.84,4.84,0,0,0-4.74,4.43,4.45,4.45,0,0,0,4.76,4.73A4.26,4.26,0,0,0,1563,405.41Z"/><path d="M1584.21,474.45a28.48,28.48,0,0,1-3.66,1,8,8,0,0,1-5.43-14.58,8.31,8.31,0,0,1,10.12.95,8.06,8.06,0,0,1,1.26,9.66,28.84,28.84,0,0,1-2.34,3Zm-.14-7c-.07-2.67-2.4-5-4.84-4.78a5,5,0,0,0-4.3,4.87,4.76,4.76,0,0,0,4.91,4.66A4.45,4.45,0,0,0,1584.07,467.45Z"/><path d="M1526.59,435.4a7.76,7.76,0,0,1-7.95-7.77,7.94,7.94,0,1,1,15.87,0A7.75,7.75,0,0,1,1526.59,435.4Zm.13-3.35a4.23,4.23,0,0,0,4.41-4.55,4.56,4.56,0,0,0-5-4.6,4.46,4.46,0,0,0-4.14,4.89A4.26,4.26,0,0,0,1526.72,432.05Z"/></g></g></svg>