<svg xmlns="http://www.w3.org/2000/svg" viewBox="0 0 1826.2 837.01"><title>coupe_cenital</title><g id="Capa_2" data-name="Capa 2"><g id="Capa_1-2" data-name="Capa 1"><path d="M1327.17,787.92c-8.86,0-17.34,0-25.82,0-23.8.06-46.7-4.63-68.86-13.13a19.91,19.91,0,0,0-7.45-1.48c-11.68.12-23.38-.2-35,.34-21.43,1-42.86.41-64.29.62q-11.73.12-23.47,0a15.64,15.64,0,0,0-7.35,1.75,85.75,85.75,0,0,1-30.28,8.7,82.12,82.12,0,0,1-38.19-5,21.65,21.65,0,0,0-8.4-1.54c-10.08.11-20.17-.21-30.23.25-22.39,1.05-44.8.2-67.17,1s-44.48.17-66.69,1-44.15.3-66.21,1c-11.35.34-22.7.51-34.05.7a7.41,7.41,0,0,0-1.88.26.82.82,0,0,0-.58,1.13,27.72,27.72,0,0,0,1.89,3.31c6.79,10.08,13.62,20.15,20.4,30.24a40.43,40.43,0,0,1,3,4.92c3.14,6.46.87,11.7-6,13.86a30.42,30.42,0,0,1-15.19.54,58.38,58.38,0,0,1-19-7.8,96.67,96.67,0,0,1-25.41-23.14,102.79,102.79,0,0,1-12.3-19.43,6.84,6.84,0,0,1-.42-.86c-1-3.09-3.09-4-6.25-3.93-5.11.18-10.22.35-15.33.59-6.71.33-13.44.23-20.16.28-8.64.07-17.29-.16-25.91.22-15.67.69-31.35.51-47,.94-9.25.24-18.52.47-27.75,1-7.67.47-15.35.37-23,.92-9.59.68-19.2.36-28.76,1-10.23.69-20.48.3-30.69.9-16.78,1-33.59.35-50.37,1-26.87,1-53.74.77-80.61.37-11.82-.18-23.68-.06-35.48-.88-8.61-.61-17.26-.33-25.86-1.38-6-.74-12.11-.8-18.17-1.24-3.35-.24-6.68-.66-10-.95-25.86-2.25-51.46-5.91-76.34-13.62-14.41-4.46-28.33-10.06-41.25-18a109.13,109.13,0,0,1-12.82-9.28,56.05,56.05,0,0,1-8.9-9.37,916.87,916.87,0,0,1-56.13-83.64c-8.88-15-17.22-30.34-24.61-46.14-6.85-14.66-12.93-29.62-17.22-45.25a273.87,273.87,0,0,1-5.74-28.19C7.75,518.36,5.8,506.2,4.19,494Q2,477.6.79,461.08C0,450,.09,439,.13,428c0-11.36-.08-22.72-.13-34.08,0-13,1.16-25.86,2.55-38.74,1.15-10.66,2.6-21.27,4.17-31.87C8.53,311.12,10.57,299,13,286.91c3.45-16.86,9.46-32.86,16.45-48.53C41,212.45,55.16,187.93,70.26,164c13.48-21.4,27.93-42.14,43.07-62.4A58.75,58.75,0,0,1,123.71,91c12-9.66,25.53-16.42,39.84-21.74A279.23,279.23,0,0,1,216,55.69c10.57-1.72,21.19-3.06,31.88-3.86,8.28-.62,16.52-1.72,24.8-2.46,5.57-.49,11.16-.88,16.75-1q23.73-.74,47.47-1.38c18.56-.52,37.11-.53,55.66-.45,22.07.1,44.15.32,66.21,1.06,10.87.36,21.76.18,32.61.85,9.74.61,19.52.33,29.24,1,8.31.57,16.65.22,24.92,1,9.25.84,18.54.45,27.79,1.38,6.18.62,12.46.24,18.7.31,6.56.08,13.14-.08,19.68.27,18.06,1,36.14.41,54.21.85,8.31.21,16.61.85,24.94.71,6.82-.11,6,.34,9.12-5.52,7.84-14.58,18.13-27.08,31.67-36.75A64.26,64.26,0,0,1,754.93.74a30.88,30.88,0,0,1,15.19.44A14.21,14.21,0,0,1,774,3a8.21,8.21,0,0,1,3.6,9.16,19.32,19.32,0,0,1-3.13,6.43q-10.5,15.51-21,31a40.5,40.5,0,0,0-2.25,3.67,1,1,0,0,0,.69,1.48,11.15,11.15,0,0,0,2.38.2c3.68,0,7.37,0,11,.1,26.23.93,52.47.42,78.69,1.21,21.91.66,43.84.08,65.73.92,22.23.85,44.48.13,66.69,1,13.6.52,27.19.35,40.78.65a25.28,25.28,0,0,0,9.83-1.66,79.79,79.79,0,0,1,35.34-5,88.8,88.8,0,0,1,31.77,8.6,19.51,19.51,0,0,0,9.23,2,83.37,83.37,0,0,1,12.93.25c2.66.34,5.42-.23,8.14-.23,18.4,0,36.81-.25,55.19.27,14.4.41,28.79.3,43.18.67a28.07,28.07,0,0,0,11.21-2,186.32,186.32,0,0,1,42.18-10.79A188.7,188.7,0,0,1,1305,49c17.44.15,34.89-.16,52.31.41,19.2.63,38.4.17,57.57,1,16.64.69,33.28.14,49.9.91s33.27.29,49.89,1c9.11.38,18.22.37,27.33.71,7.37.27,14.6,1.71,21.79,3.27A232.73,232.73,0,0,1,1607,70.61c2.2,1,4.42,1.87,6.58,2.92a29.72,29.72,0,0,0,7.28,2.33c21.79,4.41,43.43,9.46,64.84,15.48A305.58,305.58,0,0,1,1717,101.9a61.14,61.14,0,0,1,20.24,13.44c10.09,10,18.36,21.32,25.83,33.3,12.83,20.59,22.88,42.5,31.21,65.25A474.4,474.4,0,0,1,1815.54,294c2.22,12.43,3.93,24.94,5.24,37.52,1.45,14,2.55,28,2.91,42.1.14,5.42.54,10.85.58,16.29a8.8,8.8,0,0,0,1.1,5.08,7.23,7.23,0,0,1,.82,4.17c0,12.8,0,25.6,0,38.4a7.94,7.94,0,0,1-.58,3.74c-1.39,2.37-1.29,4.89-1.37,7.44-.31,9.43-.39,18.87-1,28.29a584.24,584.24,0,0,1-9,72.78,481.48,481.48,0,0,1-17.62,66.75c-8.28,23.95-18.48,47-31.66,68.74-6.9,11.37-14.44,22.29-23.55,32q-3,3.17-6.11,6.11a55.59,55.59,0,0,1-14.18,9.75c-10,4.73-20.54,8.08-31.13,11.19-22.57,6.63-45.46,11.94-68.52,16.56a40.45,40.45,0,0,0-9.08,3,241.67,241.67,0,0,1-47.5,16.52,155.92,155.92,0,0,1-30.4,3.66c-19.51.55-39,.36-58.53,1.06-16.31.59-32.64.19-48.93.9-18.87.83-37.75.24-56.6,1C1355.89,787.72,1341.34,787.48,1327.17,787.92Zm437.59-230.71c.61-1.47,1.32-2.91,1.8-4.42,1.37-4.26,2.7-8.54,3.94-12.83A396.2,396.2,0,0,0,1782,487.53c1.19-8.06,2.27-16.13,3-24.26s1.52-16.23,1.63-24.39c.22-15.66.62-31.33-.8-47-.52-5.73-.74-11.49-1.37-17.2-1.18-10.64-2.65-21.25-4.52-31.8a463.4,463.4,0,0,0-11.57-49.47c-.23-.77-.12-1.83-1.23-2.2a3.62,3.62,0,0,0-.08,1c1.74,8.14,2.72,16.39,3.72,24.64,1.08,8.88,2,17.78,3.12,26.66,1.1,9.21,2,18.43,2.62,27.68.37,5.58.56,11.18,1.18,16.74,1,8.75.76,17.55,1.37,26.33.78,11.18-.88,22.34-1,33.53,0,.32-.06.64-.08,1-.51,6.37-1,12.74-1.52,19.11-.73,8.6-1.38,17.21-2.29,25.79-1,9.37-2.22,18.72-3.4,28.07-1.38,10.94-2.5,21.92-5.66,32.56a20.48,20.48,0,0,0-.44,2.84c-1.28,1.5-1.74,3.4-2.43,5.18a78.75,78.75,0,0,1-10.11,18.44c-10.93,14.86-25.32,25.09-42.51,31.52a117.9,117.9,0,0,1-25.08,6.1c-13,1.83-25.85,4.18-38.8,6.08-14.85,2.18-29.74,4.1-44.6,6.14-3.32.46-6.64.92-10,1.44-.7.11-1.66,0-1.7,1.41a17.16,17.16,0,0,0,1.86,1.24,24.21,24.21,0,0,0,3.5,1.55,47.16,47.16,0,0,0,12.19,2.35,145.28,145.28,0,0,0,39-3.53c8.89-1.94,17.74-4.08,26.58-6.25,21.72-5.35,43.37-11,64.55-18.21,1.66-.57,3.3-1.2,5-1.76a5.73,5.73,0,0,0,3.45-3.12c.56-1.15,1.15-2.28,1.68-3.44a417.24,417.24,0,0,0,16-39.54C1763.89,560.94,1764.27,559.06,1764.76,557.21ZM96.62,593.45c-.9,1.38-.33,2.65-.18,3.88a8.08,8.08,0,0,0,5.46,7.13c6.24,2.49,12.29,5.43,18.48,8q33.38,14.1,67.53,26.21Q240.38,657.35,294,672.2c12,3.31,24.08,6.48,36.11,9.76,11.42,3.12,22.79,6.41,34.23,9.43C382,696,399.77,700,417.6,703.83q25.33,5.37,50.87,9.72c10.72,1.8,21.42,3.68,32.16,5.33,11.69,1.79,23.41,3.39,35.12,5,7.13,1,14.27,1.84,21.4,2.69,6.35.76,12.71,1.46,19.06,2.14,5.56.6,11.12,1.19,16.69,1.68,5.89.51,11.8.87,17.69,1.34a12.24,12.24,0,0,0,7.29-1.81,116.54,116.54,0,0,1,31.61-12.39c9.18-2.19,18.4-4.18,27.65-6,16-3.2,32-6.37,48-9.29,14-2.55,28-4.81,42.08-7.09q14.67-2.37,29.38-4.46c8.39-1.19,16.8-2.19,25.2-3.26,6-.76,12-1.55,18.08-2.24q11.19-1.29,22.39-2.43c4.77-.48,9.56-.79,14.33-1.21,9.56-.83,19.1-1.8,28.66-2.5,10.36-.76,20.73-1.34,31.1-1.89,9.1-.48,18.21-.82,27.31-1.22a23.86,23.86,0,0,0,2.4-.08c9.21-1.34,18.53-.62,27.78-1.48,8.26-.77,16.61-.6,24.92-.91,18.53-.7,37.09-1,55.64-1.11,13.75-.09,27.5-.33,41.26.59,8.28.55,16.63,0,24.91,1a21.39,21.39,0,0,0,3.84.06,5.8,5.8,0,0,0,2.77-.54c2.32-1.56,4.87-1.42,7.41-1.33,8.47.29,16.94.65,25.41.94,4.79.16,9.6.16,14.39.36,11.5.47,23,1.06,34.49,1.52,5.44.22,10.88.17,16.32.39,11.66.46,23.31,1.07,35,1.53,11,.43,22.06.63,33.08,1.18,4.13.2,8.23,1.08,12.34,1.68a24.34,24.34,0,0,1,6.87,2.07,16.13,16.13,0,0,1,3.65,2.26,6.27,6.27,0,0,1,1.56,8.22,14.65,14.65,0,0,1-2.21,3.11,28.9,28.9,0,0,1-5.84,5,114.22,114.22,0,0,1-13,7.23c-14.41,6.77-29.59,11.23-45,14.87a501.89,501.89,0,0,1-58.59,9.95c-12.71,1.46-25.45,2.47-38.2,3.35-9.72.67-19.49.93-29.24,1-10.39.09-20.79.55-31.16-.59a4.57,4.57,0,0,0-1.43.06,1,1,0,0,0-.78,1.42,28,28,0,0,0,1.39,2.51,54.5,54.5,0,0,1,5.53,12.73c1.24,4.68,2,9.36.57,14.19-.7,2.3-.18,2.8,2.27,2.91,1.28.06,2.56,0,3.84,0,22.07-.24,44.14.37,66.21-.56,17.9-.76,35.82-.12,53.73-1,13.09-.65,26.22-.49,39.32-1.13,12.46-.61,24.93-.82,37.4-1.21l1.44-.07c9.57-.55,19.14-1.14,28.72-1.62,8.94-.46,17.89-.8,26.83-1.2l1-.05c7.49-.55,15-1.14,22.48-1.63,7.17-.46,14.36-.8,21.54-1.2.64,0,1.28-.12,1.91-.18,6-.51,12.1-1.07,18.15-1.53,5.74-.45,11.51-.59,17.22-1.26,4.29-.51,8.61-.63,12.9-1.06,5.09-.52,10.17-1.06,15.26-1.54,8.12-.76,16.24-1.38,24.35-2.24,10-1.06,20-2.29,30-3.48,11.43-1.37,22.87-2.63,34.26-4.19,12-1.65,24-3.57,36-5.42q28.92-4.47,57.54-10.5c1.54-.32,3.1-1,4.71-.45,1.25.42,1.77-.33,2.22-1.23a69.05,69.05,0,0,1,6.86-11,86.07,86.07,0,0,0,6.48-10.09c3.67-6.56,7.28-13.15,11-19.7,7.8-13.78,15.57-27.57,23.87-41.07A99.2,99.2,0,0,1,1755,615.37a60.85,60.85,0,0,1,6.11-3.78c4.06-2.15,7.94-2.37,11.22,1.54.07.08.3,0,.46.06a70.31,70.31,0,0,0,5.4-17.13c-.15,0-.35-.11-.44,0-.66.44-1.31.9-1.94,1.38a84.36,84.36,0,0,1-25.3,13.47c-2.43.79-5,1.31-7.36,2.15-20.26,7.07-40.92,12.76-61.72,17.91-18.16,4.49-36.2,9.55-54.89,11.44-8.93.91-17.89,1.19-26.77-.53-5.37-1-10.69-2.46-14.78-6.36-2.26-2.15-4.72-2.35-7.51-2-5.88.67-11.76,1.28-17.64,1.89q-6,.61-11.93,1.14c-6.36.56-12.73,1.24-19.11,1.57-7.34.37-14.66,1.29-22,1.07a12.84,12.84,0,0,0-2.38.26c-14.5,2.49-29.07,4.33-43.73,5.63-12.12,1.08-24.23,1.85-36.39,1.84q-59.28,0-118.56,0c-6.1,0-11.62-1.87-17-4.51a8.28,8.28,0,0,1-3.27-2.74c-5.87-8.62-9.22-17.81-7.25-28.48,1.1-6,1.7-12,2.45-18.06q1.65-13.34,3.18-26.67c.85-7.47,1.74-14.93,2.44-22.41.84-9.07,1.53-18.16,2.26-27.24.86-10.84,1.83-21.67,2.51-32.51.78-12.45,1.45-24.91,1.88-37.37.5-14.54.72-29.1,1-43.65.32-17.28-.92-34.53-.92-51.81a21.14,21.14,0,0,0-.12-2.39c-1-8.27-.57-16.62-1.55-24.9-.68-5.71-.73-11.49-1.34-17.21q-1.61-15.25-3.58-30.48c-1.81-14-4.21-27.83-7.39-41.55a45.85,45.85,0,0,1-1.19-13.79,54.19,54.19,0,0,1,3.7-16.8c.6-1.48,1.13-3.09,2.55-4,7-4.34,14.06-8.25,22.64-8.24q58.56,0,117.11,0c9.94,0,19.81.94,29.72,1.22.79,0,1.59.16,2.38.24,4.77.49,9.54,1,14.31,1.47,4.44.48,8.89,1,13.34,1.49,10.15,1.08,20.12,3.39,30.42,3.78,11,.42,22,1,33,2.35,6.18.74,12.4,1.23,18.6,1.83l12.41,1.2a6,6,0,0,0,5.18-1.87c4.46-4.48,10.11-6.66,16.18-7.78a85.46,85.46,0,0,1,20-1.15,174.41,174.41,0,0,1,27,3.7c18.3,3.89,36.44,8.45,54.5,13.34,13.12,3.55,26.19,7.29,39,11.75,2,.68,4.09,1.2,5.74,2.37,3,2.15,6.47,3.46,9.77,5.06a139.8,139.8,0,0,1,17,9.79c.92.63,1.84,1.27,2.79,1.86a.9.9,0,0,0,1.26-.1,1.2,1.2,0,0,0,.22-.89,82.55,82.55,0,0,0-4.4-14.67,1.53,1.53,0,0,0-2.32-.93c-3.41,1.78-6.53.66-9.6-.89a27.36,27.36,0,0,1-3.31-1.95c-9.31-6.61-18-13.93-24.47-23.45-2.79-4.1-5.54-8.23-8.13-12.46-9.2-15-17.69-30.42-26.29-45.77-4.46-7.94-8.55-16.11-14.18-23.36a70.93,70.93,0,0,1-4.09-6.49,25.67,25.67,0,0,0-1.66-2.9c-1-1.26-2.37.26-3.61-.19a29.07,29.07,0,0,0-3.76-.74c-28.78-6.17-57.81-10.85-87-14.93-13.76-1.92-27.59-3.42-41.38-5.18q-17.37-2.22-34.79-3.78c-3.82-.34-7.64-.77-11.45-1.16-5.25-.52-10.49-1.07-15.75-1.54s-10.54-.62-15.76-1.3c-4-.52-8-.56-12-.93-5.88-.55-11.77-1.12-17.66-1.55-6.7-.48-13.43-.58-20.1-1.3-5.26-.57-10.54-.59-15.8-1-7.49-.55-15-1.15-22.47-1.56-9.26-.51-18.53-.84-27.79-1.25a7.61,7.61,0,0,1-1-.06c-9.06-1.24-18.2-.61-27.3-1.46-7.46-.7-15-.48-22.51-1-9.57-.59-19.18-.43-28.77-1-11.32-.64-22.69-.45-34-.91-18.21-.75-36.46-.41-54.69-1-18.7-.56-37.43-.17-56.15-.19-1.12,0-2.24,0-3.36.07-1.71.12-2.33.79-1.81,2.52,2.13,7.06.28,13.62-2.38,20.07-1,2.36-2.23,4.6-3.39,6.88-.43.85-1,1.64-1.44,2.49-.58,1.1-.1,1.83,1.22,1.85a23.86,23.86,0,0,0,2.39-.08,281.72,281.72,0,0,1,37.88-.28c9.1.45,18.21.5,27.31,1.24s18.48,1.48,27.7,2.38c8.74.85,17.44,2.2,26.13,3.49a382.19,382.19,0,0,1,58,12.85,167.11,167.11,0,0,1,28.88,11.65,75.17,75.17,0,0,1,9.76,6.1,20.74,20.74,0,0,1,5.67,5.8c2.23,3.76,1.54,7.08-2,9.65a19.67,19.67,0,0,1-5.62,2.64,60.38,60.38,0,0,1-15.57,2.63c-6.7.34-13.41.55-20.12.93-8,.45-16,.29-24,.86-9.24.65-18.53.4-27.8,1.05-7.64.54-15.33.41-23,.85-13.41.76-26.85.92-40.27,1.33-1.92.06-3.86-.06-5.75.19-6.86.9-13.74.56-20.61.77a7.23,7.23,0,0,1-4.61-1,6.82,6.82,0,0,0-4.61-.95c-3,.21-6,.61-9.08.7-13.91.39-27.82.92-41.73,1-15.19.07-30.38.26-45.57-.58-12.29-.68-24.61-.41-36.93-.9s-24.6-1.06-36.9-1.45c-7-.22-14.07-.48-21.08-1-5.11-.4-10.21-.6-15.32-.8-1,0-1.92-.1-2.87-.16-7.5-.52-15-1.07-22.48-1.55-6.86-.44-13.72-.81-20.59-1.22-.63,0-1.27-.13-1.91-.19l-15.26-1.49c-8-.75-15.93-1.38-23.87-2.25-9.53-1-19-2.25-28.55-3.48-12.84-1.66-25.69-3.25-38.49-5.18-14.85-2.24-29.67-4.76-44.48-7.26q-43.53-7.34-86.57-17.1a121.86,121.86,0,0,1-33.1-12.48,15.45,15.45,0,0,0-9.58-2.24c-1.43.15-2.88.12-4.31.26-8.26.82-16.53,1.68-24.8,2.52-7.31.74-14.64,1.35-21.94,2.25-11.1,1.36-22.17,3-33.26,4.4-17.28,2.27-34.49,5-51.66,7.91q-30,5.13-59.81,11.51c-21.11,4.54-42.12,9.49-62.93,15.26-10,2.77-19.95,5.87-30,8.43-30.55,7.76-60.76,16.68-90.77,26.3q-31.31,10-62.07,21.62-33.5,12.56-66.15,27.11a7.23,7.23,0,0,0-4.6,5.59c-.3,1.55-1.34,3.45-.24,4.59,1.31,1.37,2.85-.42,4.3-.83a3.52,3.52,0,0,0,.45-.18c29.56-13.09,59.71-24.67,90.25-35.25,43.69-15.15,88-28.39,132.69-40.09,22-5.74,44-11.24,66.17-16.11,13-2.84,26-5.44,38.88-8.52,21-5,42.07-9.64,63.3-13.56,11.32-2.09,22.7-3.81,34.11-5.27,6.65-.85,13.34-1.6,20-2a222.36,222.36,0,0,1,27.32-.09c6.06.42,12.15,1,17.59,4.12a9,9,0,0,0,3.7.85c5.88.62,11.81.78,17.64,1.89,24,4.59,48,9.12,72.06,13.75q23.31,4.48,46.58,9.17c11,2.21,22,4.28,32.69,7.62,10.9,3.4,21.32,7.79,30.61,14.58a41.17,41.17,0,0,1,10,10.27,28.83,28.83,0,0,1,5,20.93,38,38,0,0,1-2.47,9.24A65.54,65.54,0,0,0,803.9,226a235.84,235.84,0,0,0-3.62,27.09c-1.19,13.86-2,27.74-2.88,41.63-.46,7.82-.54,15.66-.9,23.49-.66,14.21-1,28.45-1.06,42.68q-.29,40.56-.17,81.12c.06,16.15-.17,32.3.66,48.45.64,12.61.42,25.26,1.05,37.89.61,12.29,1.09,24.59,1.93,36.88.75,11,1.64,22,3,32.94,1.14,8.91,2.6,17.71,6,26.1a30.08,30.08,0,0,1-6.1,32.55,59.67,59.67,0,0,1-16,12.14c-10.95,5.86-22.65,9.65-34.7,12.34-20.6,4.61-41.35,8.47-62.07,12.48Q659.92,699.45,630.7,705c-11.93,2.23-23.78,5.08-36,5.15a3.88,3.88,0,0,0-3,1.15,10.25,10.25,0,0,1-5.51,2.72,59.34,59.34,0,0,1-13.26,1.9c-5.74.07-11.47.56-17.23.13-5.41-.41-10.85-.44-16.27-.91-11.48-1-22.88-2.55-34.24-4.38q-25.58-4.12-50.83-10c-9.82-2.24-19.59-4.74-29.44-6.81-18.62-3.91-37.21-8-55.73-12.36q-31.26-7.44-62.29-15.88-45.85-12.42-91-27.23-23-7.59-45.78-15.89c-12.92-4.7-25.72-9.75-38.49-14.86-10.1-4-20-8.43-30.1-12.6C99.89,594.48,98.39,593.48,96.62,593.45ZM582.8,126.51c-8.1-1.5-15.29-1.5-22.44-1.7-3.51-.1-7,.37-10.54.55-2.23.11-4.49,0-6.71.27-9.68,1.12-19.38,2.08-29,3.51-17.09,2.54-34.05,5.72-50.92,9.42-12.49,2.74-24.92,5.8-37.4,8.58-11.86,2.65-23.77,5.05-35.63,7.7-21.7,4.85-43.27,10.2-64.77,15.84q-45.74,12-90.8,26.2c-22.57,7.15-45,14.71-67.2,23-21.3,7.91-42.4,16.28-63.2,25.43-2.2,1-4.37,2-6.55,3a3.49,3.49,0,0,0-2.2,2.91c-.29,2.54-.62,5.08-.86,7.63-.2,2.06-.27,4.14-.45,6.22-.47,5.57-1,11.14-1.44,16.72-.47,6.05-.65,12.14-1.31,18.18-.49,4.46-.61,8.93-1,13.39-.55,6.69-1.11,13.38-1.57,20.08-.48,7-.62,14.07-1.31,21.06-.55,5.59-.54,11.18-.95,16.76-.85,11.65-1.41,23.31-1.5,35-.13,15.83-.21,31.67.77,47.49.49,8,.59,16,1.26,23.95.43,5.1.57,10.21,1,15.32.53,7,1.11,14,1.61,21,.45,6.22.63,12.46,1.29,18.65.48,4.47.59,8.94,1,13.4.53,6.05,1.08,12.1,1.56,18.15.45,5.58.8,11.17,1.25,16.75.13,1.59.47,3.16.67,4.75A3.91,3.91,0,0,0,97.87,589c.73.33,1.44.7,2.17,1,11,4.68,22,9.52,33.15,14,31.76,12.82,64,24.23,96.63,34.65q51.89,16.56,104.64,30.07c22.77,5.85,45.6,11.4,68.57,16.4,8.75,1.91,17.56,3.53,26.26,5.62,28.3,6.79,56.72,12.94,85.52,17.27,15.68,2.36,31.44,3.46,47.24,4.35a19.23,19.23,0,0,0,2.4,0c3.83-.25,7.65-.56,11.49-.77a30.84,30.84,0,0,0,7-1.25,3.41,3.41,0,0,0-.9-.56,25,25,0,0,0-2.83-.49,77.8,77.8,0,0,1-20.91-5.08,62.33,62.33,0,0,1-20.64-12.87c-9.46-9-15.12-20.16-18-32.75q-3.87-17.07-7.17-34.28c-4.25-22.15-7.74-44.41-10.65-66.78q-3.15-24.27-5.31-48.63c-1.2-13.69-2-27.42-2.85-41.14-.5-8.62-.62-17.27-.86-25.89-.67-24.47-.07-49,.83-73.41,0-.64.08-1.27.12-1.91q.78-11.49,1.56-23c.4-5.74.69-11.49,1.27-17.22,1.39-13.51,2.89-27,4.41-40.52,1.66-14.78,3.94-29.48,6.25-44.17,2.62-16.59,5.75-33.08,9.27-49.51,1.57-7.34,2.84-14.77,5.36-21.88,4.14-11.73,10.66-21.8,20.75-29.33a69.28,69.28,0,0,1,23.22-11.15A149.59,149.59,0,0,1,582.8,126.51Zm950.56,506.7.09.43c.77,0,1.55-.06,2.32-.14,5.89-.55,11.77-1.12,17.65-1.66,4.62-.43,9.23-.82,13.85-1.26,2.7-.26,5.4-.52,8.09-.89,1.88-.26,3.77-.45,4.72-2.66a1.8,1.8,0,0,1,2.89-.47c2.1,1.78,4.46,1.48,6.84,1.36.8,0,1.6-.11,2.39-.22,10.92-1.49,21.85-3,32.76-4.49,9.81-1.37,19.62-2.75,29.41-4.25,10.74-1.65,21.43-3.66,32.19-5.13A100.53,100.53,0,0,0,1721.81,602a80.94,80.94,0,0,0,25.93-22.44,85,85,0,0,0,15.77-37.19c1.26-7.4,2.14-14.87,3.14-22.31,2-14.58,3.61-29.19,4.74-43.85.36-4.62.8-9.24,1.12-13.86.57-8.13,1.14-16.26,1.6-24.4.3-5.27.08-10.55.73-15.81a20.2,20.2,0,0,0,0-4.79c-.7-5.73-.44-11.5-.73-17.25-.36-7-.75-14-1.25-21.06-.44-6.05-1-12.1-1.58-18.15-.73-7.79-1.42-15.6-2.31-23.38-1.08-9.52-2.33-19-3.56-28.54-1.06-8.25-2.32-16.47-4.89-24.42a81.78,81.78,0,0,0-18.74-32,89.16,89.16,0,0,0-34-21.89,110.87,110.87,0,0,0-23.72-5.7c-12.19-1.7-24.33-3.72-36.47-5.71-17-2.8-34.17-4.86-51.25-7.26-3-.42-6-.64-9-1.09-2.14-.32-4.13,1.1-6.13.58s-3.74-1.66-5.87-1.87c-8-.79-15.88-1.69-23.82-2.54l-7.16-.73a79.57,79.57,0,0,0-8.22-.32,6.46,6.46,0,0,0,3.36,1.54,238.19,238.19,0,0,1,29.81,10.56,126.2,126.2,0,0,1,29.29,17.2c10.54,8.49,18.67,18.69,23.47,31.53,9.24,24.78,16.77,50,21.32,76.11a339.36,339.36,0,0,1,5.48,57.69c0,11.35,0,22.71.06,34.07a286.55,286.55,0,0,1-1.33,30.17c-1,10.66-2.42,21.27-4.31,31.83a416.25,416.25,0,0,1-22.6,78.71A63.41,63.41,0,0,1,1605,598.17a108.34,108.34,0,0,1-23.35,16.69c-13.29,7.21-27.41,12.3-41.88,16.48ZM1374,642.69h45.6c12.47,0,24.94-.38,37.37-1.44,7.8-.67,15.57-1.71,23.35-2.56,12.24-1.35,24.36-3.43,36.41-6,17.25-3.63,34.16-8.39,50.36-15.44,11.34-4.94,22.07-10.95,31.52-19,7.9-6.75,14.29-14.67,18.12-24.42A418.91,418.91,0,0,0,1637.34,505a323.58,323.58,0,0,0,7-56.1c.65-22.37,1-44.77-.53-67.15-.57-8.14-1.27-16.27-2.42-24.33a377.18,377.18,0,0,0-10.49-50.21c-4-14-8.56-27.82-13.87-41.38a55.86,55.86,0,0,0-7.46-13.37c-6.93-9.23-15.76-16.26-25.6-22.13a165.11,165.11,0,0,0-31.86-14.41c-26.17-8.88-53.17-13.82-80.61-16.62-4.29-.44-8.58-.87-12.89-1.21-7.16-.56-14.33-1.46-21.51-1.5-43.51-.2-87-.19-130.54-.29-6.53,0-12.07,2.8-17.49,5.9-2.23,1.27-2.39,2.23-1.66,4.88.16.62.38,1.22.58,1.83,2.28,7,4.16,14.11,5.79,21.29,6.36,28,9.8,56.37,12.16,84.91q1.15,13.86,1.79,27.76c.48,10.38.91,20.77,1,31.16.11,17.75.27,35.5-.44,53.25-.63,15.82-1,31.64-2,47.44q-.86,14.37-1.89,28.71c-.84,11.48-1.75,22.95-2.93,34.4-1.43,13.83-2.61,27.7-4.22,41.51-1.89,16.19-4.13,32.34-6.23,48.51-.33,2.54-.72,5.07-1.09,7.6a3.18,3.18,0,0,0,1.74,3.6,25.67,25.67,0,0,0,2.6,1.23,34.62,34.62,0,0,0,13.1,2.47C1329.53,642.64,1351.76,642.69,1374,642.69Zm-877.12-226c.06,7.94.24,14.17.46,20.4.45,13.26.33,26.54,1.3,39.79.47,6.54.69,13.1,1.23,19.63.73,8.92,1.68,17.82,2.49,26.73,1.25,13.7,2.93,27.34,4.77,41,2.94,21.87,6.49,43.64,10.79,65.29,2.05,10.36,4.06,20.72,6.73,30.94a57.88,57.88,0,0,0,11.8,23.35A59,59,0,0,0,564.71,702c15.31,4.7,30.93,5,46.53,2.39,19.06-3.24,38-7.12,57-10.78q30.6-5.91,61.17-12c10-2,20.11-3.83,30-6.7a126.56,126.56,0,0,0,24.1-9.38,54.59,54.59,0,0,0,15.84-12.27,24.67,24.67,0,0,0,6.44-16.62,31.33,31.33,0,0,0-2.23-12.18,80.72,80.72,0,0,1-4.8-18.53c-1.4-8.85-2.2-17.76-3.1-26.67-1.18-11.78-1.57-23.61-2.42-35.41-.46-6.37-.48-12.77-.82-19.16-.62-11.81-.87-23.66-1-35.48-.54-55.83-1.06-111.65.7-167.47.33-10.22.53-20.46,1.21-30.67.38-5.75.45-11.51.93-17.24.78-9.4,1.59-18.8,2.55-28.18,1.23-12.1,3.06-24,7.27-35.59,4-11,1.7-21.14-7-29.45-1.38-1.32-2.84-2.58-4.33-3.78a65.72,65.72,0,0,0-11.4-7.08,126.92,126.92,0,0,0-31.24-10.67c-18.15-3.82-36.34-7.44-54.54-11q-41.19-8-82.43-15.76a107.14,107.14,0,0,0-22.88-2c-2.87.08-5.73.53-8.6.74a73.45,73.45,0,0,0-21.88,5C548.15,140.72,538.62,148,532,158.73a65.94,65.94,0,0,0-8.2,20.39c-3,13.57-6,27.17-8.38,40.88-1.83,10.55-3.63,21.11-5.26,31.7q-2.38,15.41-4.39,30.86c-1.16,8.88-2.22,17.77-3.12,26.68-.89,8.74-1.38,17.53-2.3,26.27-1.32,12.57-1.81,25.2-2.41,37.8C497.19,388.32,497.17,403.36,496.88,416.69ZM607.16,100.25c-3-2.1-5.23-4.54-7.92-6.48A4.52,4.52,0,0,0,596,93.2c-1.75.17-3.5.29-5.26.33-13.58.38-27.17.17-40.76.91-13.08.7-26.21.23-39.31.94-13.41.72-26.85.23-40.28,1s-26.84.23-40.27,1-26.85.22-40.27,1c-13.09.72-26.21.24-39.32.94-13.56.73-27.17.26-40.75,1-13.41.71-26.86.09-40.27,1-8.29.56-16.61.37-24.92.9-12,.76-24,.93-35.94,1.26a37,37,0,0,0-8.54,1.12A58,58,0,0,0,186.88,110a112.79,112.79,0,0,0-23,17.21,190.35,190.35,0,0,0-20.28,23c-1.45,1.9-2.9,3.83-4.51,5.6A134.16,134.16,0,0,0,125,174.61c-10,15.76-17.5,32.68-23.77,50.19a11.45,11.45,0,0,0-.6,2.3.74.74,0,0,0,.89.85,30.62,30.62,0,0,0,3.58-1.3c8.23-3.52,16.42-7.16,24.69-10.57,34.91-14.39,70.44-27.07,106.43-38.45q28.36-9,57-16.94c12.18-3.36,24.39-6.55,36.58-9.87,10.48-2.86,20.92-5.91,31.43-8.68,20.56-5.42,41.3-10.06,62.12-14.39q25.81-5.39,51.83-9.66c10.56-1.74,21.13-3.44,31.72-5,12.64-1.87,25.3-3.67,38-5.31,9.5-1.23,19-2.12,28.57-3.22,9.37-1.08,18.73-2.14,28.14-2.73A9.78,9.78,0,0,0,607.16,100.25ZM607,736.47a17.12,17.12,0,0,0-6.37-1.36c-1.91-.11-3.84-.13-5.74-.34q-16-1.69-31.92-3.47c-9.21-1-18.43-2-27.61-3.24-14.4-2-28.77-4.23-43.16-6.35-14.54-2.14-29-4.69-43.46-7.48q-19.77-3.81-39.48-8c-20.5-4.29-40.83-9.33-61-14.83-9.41-2.57-18.7-5.6-28.15-8-27.46-6.9-54.64-14.78-81.62-23.3-35.54-11.23-70.69-23.56-105.18-37.73-9-3.7-17.94-7.64-26.93-11.44-1.61-.69-3.26-1.28-4.92-1.81-.5-.16-.93.31-.86.86a8,8,0,0,0,.47,1.85c6.65,18.75,14.93,36.72,25.81,53.43A105.6,105.6,0,0,0,137,678.72c2.8,3.09,5.38,6.33,7.9,9.65A165.07,165.07,0,0,0,173,717.72c7.42,5.93,15.36,11,24.44,14a28.81,28.81,0,0,0,8.41,1.81c6.87.16,13.73.38,20.6.83,8.13.53,16.29.44,24.43,1,8.93.58,17.89.56,26.84.94,13.89.59,27.81.29,41.72,1,12.92.66,25.88.28,38.83.93,13.73.69,27.49.28,41.24,1,12.92.66,25.89.28,38.83.93,13.57.7,27.17.28,40.76,1,13.24.68,26.53.61,39.79.88,19.34.41,38.68,1.17,58,1.31,6.39,0,12.8-.17,19.17.63a3.64,3.64,0,0,0,2.79-.38A87.47,87.47,0,0,0,607,736.47ZM594,88.91c-.16-.54-.16-.73-.26-.84-.6-.75-1.22-1.48-1.85-2.2a78.07,78.07,0,0,1-14.09-24.38c-1.83-5-.89-5.08-7.82-6-.31,0-.63,0-1-.05-7.36-.2-14.7-.37-22-.9-8-.56-16-.41-24-.92-9.89-.62-19.81-.45-29.72-1-10.69-.6-21.41-.45-32.12-.89-17.89-.73-35.81-.63-53.71-.93-24-.41-48-.49-72,.32-15.81.54-31.64.87-47.46,1.41-.8,0-1.6,0-2.4.1-6.68.54-13.37,1.07-20.06,1.64-8.43.72-16.88,1.33-25.3,2.24-10.49,1.13-20.93,2.62-31.29,4.6-17,3.26-33.69,7.67-49.72,14.25C148,80,137.26,85.61,127.61,93.19a59.22,59.22,0,0,0-11.11,11.2q-11.32,15.19-22.11,30.79-19.14,27.62-36,56.66c-.36.61-1.08,1.23-.56,2.12.81,0,1.12-.61,1.45-1.09a123.1,123.1,0,0,1,9.1-11.14,90.47,90.47,0,0,1,21.73-18,33.3,33.3,0,0,1,9.78-3.87c3.32-.74,6.84-1.15,9.82.74,4.77,3,8.34,7,7.88,13.26-.11,1.47-.22,3-.38,5a20.75,20.75,0,0,0,1.27-1.65,145.83,145.83,0,0,1,18.66-25.51,25.82,25.82,0,0,0,2.34-3c.65-.92,1.69-1.65,2-3.41a82.92,82.92,0,0,1-9.75,6.23A34.52,34.52,0,0,1,119,155.65c-6.93.75-11.41-3.31-11.54-10.21-.09-5.3,1.82-10,4.22-14.58a74,74,0,0,1,8.68-12.64,85.37,85.37,0,0,1,24.46-20.58c4.62-2.56,9.5-4.6,15-4.47a11.28,11.28,0,0,1,11,14,39.75,39.75,0,0,1-3.73,9.84c-.3.56-1.16,1.07-.42,2,.67-.57,1.26-1.09,1.87-1.6A104,104,0,0,1,186,105.7c6.68-3.57,13.7-6.21,21.38-6.53,7.19-.29,14.37-.3,21.56-.83,8.29-.61,16.61-.37,24.92-1,9.08-.66,18.21-.44,27.32-.9,13.73-.71,27.49-.22,41.24-1,13.09-.74,26.21-.2,39.32-.94,13.56-.75,27.17-.22,40.76-1,12.92-.72,25.89-.2,38.84-.91,14-.77,28.13-.25,42.2-1,12.77-.71,25.57-.24,38.36-.9,14.36-.73,28.77-.32,43.15-1,8-.41,16-.22,24-.34C590.61,89.32,592.22,89.58,594,88.91ZM61.82,647.77l-.55.45c.69,1.25,1.34,2.53,2.08,3.75q24.32,40.31,52.51,78a63.22,63.22,0,0,0,8,8.88,91.57,91.57,0,0,0,13.9,10.22,152.65,152.65,0,0,0,28.59,13.48,293.2,293.2,0,0,0,68.15,15.28c4.13.44,8.28.76,12.41,1.18,7.79.8,15.56,1.84,23.36,2.41,11.32.82,22.65,1.49,34,1.92q18,.69,36,.88c28,.28,56,.67,84-.35,18.21-.66,36.46-.17,54.68-1.16,8.93-.48,17.89-.25,26.84-.79,12.93-.78,25.89-.91,38.83-1.32,9.11-.3,18.2-1.17,27.32-1.06.32,0,.64,0,1,0a4.74,4.74,0,0,0,4.88-3.79,12.07,12.07,0,0,1,.46-1.36,84.14,84.14,0,0,1,13.58-23.06A14.31,14.31,0,0,0,593,749.8a2,2,0,0,0,.4-1.3c-.18-.72-.92-.78-1.56-.84-.48,0-1,0-1.44,0-12.79-.23-25.57-.2-38.36-.86-13.25-.68-26.54-.24-39.81-1s-26.85-.26-40.28-1-26.85-.25-40.28-1c-13.09-.69-26.21-.26-39.32-.94-13.57-.71-27.17-.27-40.76-1-13.25-.68-26.53-.26-39.81-1-13.56-.69-27.17-.12-40.76-1-8.44-.54-16.93-.56-25.4-.85-11.82-.4-23.63-1.29-35.47-1.27a47.25,47.25,0,0,1-20.38-4.72,99.76,99.76,0,0,1-21-13.42c-.6-.5-1.09-1.5-2.34-1.09.52,1.05,1,1.88,1.35,2.77,1.19,3,2.58,5.87,3.17,9a11.25,11.25,0,0,1-10.47,13.28,21.93,21.93,0,0,1-7.58-.92,45.36,45.36,0,0,1-10.88-5,91.64,91.64,0,0,1-28.63-28.57,44.93,44.93,0,0,1-5.27-11.79,21.06,21.06,0,0,1-.64-7.61c.4-4.65,3.2-7.58,7.88-8.27a20.29,20.29,0,0,1,3.82-.12,25.27,25.27,0,0,1,9.21,2.47,67.75,67.75,0,0,1,10.07,5.57c.56.38,1.11,1.23,2.25.36-1.62-2-3.18-4-4.81-6s-3.19-3.59-4.7-5.45-3.14-4-4.63-6.12-2.66-4-4.06-5.94-2.41-4.39-4.35-6.37c-1.06,1.65-.56,3.1-.62,4.46-.23,5.55-3.58,9-7.8,11.92a7.94,7.94,0,0,1-4.14,1.06,22.77,22.77,0,0,1-10.31-1.72A53,53,0,0,1,84.84,670a96,96,0,0,1-18.35-16.81C65,651.35,63.38,649.57,61.82,647.77ZM922.53,109.12H751.26c-1.6,0-3.2,0-4.8.1a.85.85,0,0,0-.64,1.38,17.31,17.31,0,0,0,1.26,1.44q7.81,7.78,15.64,15.57c3.06,3,6.15,6.07,9.21,9.11a8.44,8.44,0,0,0,5,2.57q14.48,1.94,28.94,4,19.7,2.85,39.47,4.86c11,1.1,21.9,2.54,32.88,3.43,10.67.85,21.32,2,32,2.26.8,0,1.6.1,2.39.15,7.65.53,15.3,1.13,23,1.55,9.1.5,18.2.84,27.3,1.25.32,0,.64,0,1,0,9.21,1.23,18.51.65,27.76,1.47,7.94.7,16,.56,23.95.92,13.57.61,27.17.76,40.75,1,22.37.36,44.76.7,67.13-.59,3.83-.22,7.68-.1,11.51-.26a58.4,58.4,0,0,0,6.18-.69c1-.15,1.34-.93.76-1.69s-1-1.22-1.56-1.83q-9-10.29-18-20.59-10.11-11.55-20.21-23.11a5.88,5.88,0,0,0-5-2.37c-1.6.08-3.2,0-4.8,0Zm220.52,569.39c-3.11-.39-5.3-.85-7.5-.93-8.79-.31-17.59-.75-26.37-.86-21-.26-41.9-.59-62.85.37-14.69.67-29.42.36-44.12,1.2-10.7.61-21.41.81-32.12,1.19a7.73,7.73,0,0,0-1,.06c-8.41,1.23-16.92.67-25.37,1.51s-16.91.9-25.38,1.3l-1.44.08-21.51,1.65c-5.57.42-11.17.69-16.73,1.23-11.29,1.1-22.58,2.31-33.85,3.54-9.22,1-18.44,2-27.63,3.2-12.83,1.71-25.62,3.74-38.45,5.41a13.47,13.47,0,0,0-8.31,4.2c-7.08,7.18-14.31,14.2-21.41,21.36-1.26,1.27-3.2,2.15-3.25,4.36,1.66.87,3.44.43,5.16.43q171.36,0,342.72,0c1.12,0,2.24-.07,3.35,0a5.79,5.79,0,0,0,5-2.23c1.33-1.6,2.68-3.19,4.05-4.75q15.19-17.31,30.4-34.62C1138.52,684,1140.43,681.62,1143.05,678.51ZM53.4,559.53a17.26,17.26,0,0,1-.24,3.82c-.87,3,.65,4.43,3.09,5.56,2,.94,3.93,2.14,5.94,3.12,6.32,3.1,12.63,6.2,19,9.19,2.87,1.34,5.52,3.21,8.74,3.75,1.23-3.24,0-6.52.16-9.78a9.91,9.91,0,0,0-.15-1.43c-.51-5.89-1.06-11.78-1.52-17.68s-.63-11.82-1.3-17.69c-.5-4.46-.58-8.93-1-13.39-.54-6.21-1.09-12.42-1.52-18.64-.48-7-.61-14.06-1.3-21.05-.54-5.43-.64-10.85-.94-16.28-.55-9.89-1.43-19.79-1.5-29.68-.11-18.23-.71-36.46.6-54.68.65-8.92.86-17.88,1.28-26.82,0-.8.12-1.6.17-2.4.51-6.85,1-13.7,1.52-20.56.45-6.53.81-13.08,1.25-19.62.32-4.62.72-9.24,1.09-13.86q.77-9.56,1.56-19.11c.52-6.37,1.09-12.74,1.57-19.11.22-2.87.36-5.75.38-8.62,0-1.67-1-2.31-2.56-1.76a38.38,38.38,0,0,0-4,1.68q-13.35,6.57-26.66,13.18a14.11,14.11,0,0,1-1.28.66c-2.21.88-3.08,2.24-2.77,4.82a48.74,48.74,0,0,1-.58,15.28c-.88,4.54-1.49,9.15-2.16,13.73-1.45,10-2.93,19.93-4.27,29.91-1.24,9.19-2.36,18.39-3.42,27.6-.85,7.46-1.64,14.93-2.27,22.42-.61,7.16-1.21,14.34-1.38,21.52-.24,9.76-.07,19.52-.05,29.27,0,1.76,0,3.53.14,5.28.5,6.69,1,13.39,1.59,20.07.7,7.64,1.42,15.28,2.35,22.9q2.08,17.13,4.5,34.22c1.53,10.93,3.14,21.84,4.9,32.73A68.79,68.79,0,0,1,53.4,559.53Zm962.18,213.7c-.52-1.06-1.12-2.14-1.59-3.28-1.14-2.74-.62-5.27.91-7.76,1.41-2.27,3.52-2.48,5.84-2.47,4.31,0,8.63,0,13,0a7.65,7.65,0,0,0,5.37-1.61c3.94-3.37,8.74-4.63,13.73-5.1,6.37-.59,12.57.36,17.79,4.26a11.64,11.64,0,0,0,8,2.47c1.59-.07,3.2,0,4.8,0,3.2,0,6.4.07,9.59,0a6.85,6.85,0,0,1,5.8,2.82,12.25,12.25,0,0,1,2.08,3.74c.41,1.16-.08,2.85,1.33,3.4a11.66,11.66,0,0,0,3.76.4c1.76.06,3.52,0,5.28,0a3.8,3.8,0,0,0,3.68-2.59,14.28,14.28,0,0,0,1.38-7c-.81-8.54-4.49-15.92-9.32-22.83a3,3,0,0,0-2.89-1.31q-10.76.92-21.51,1.77c-6.84.56-13.69,1.17-20.54,1.63s-13.76.48-20.58,1.25c-7.8.89-15.64.62-23.45,1.42-6.67.68-13.41.49-20.12.93-9.56.63-19.17.53-28.75,1-17.73.83-35.49.24-53.25.84-24.29.83-48.61.13-72.91,1-21.73.79-43.49.18-65.24.92-17.9.61-35.83.36-53.75.48a30.84,30.84,0,0,0-9.06,1c.37,2.73,1.78,4.1,4.42,4.14l4.32,0c6.48,0,6.48,0,10.12,5.38,3.79,5.55,7.63,11.06,11.34,16.66a5.69,5.69,0,0,0,5.62,2.88c.95-.08,1.92,0,2.88,0,12-.16,24-.16,36-.59,22.05-.81,44.13-.15,66.2-1,22.37-.83,44.77-.11,67.16-1,22.05-.84,44.14,0,66.2-1,7.5-.35,15-.18,22.55-.3C1012.89,773.94,1014.21,774.31,1015.58,773.23Zm-249.84-714c-5,0-9.92.12-14.87,0a5.92,5.92,0,0,0-5.93,3.19c-.47.84-1.06,1.6-1.6,2.4-3.7,5.41-7.47,10.78-11.07,16.26a6.22,6.22,0,0,1-6,3.13c-2.39-.12-4.79,0-7.19,0a3.68,3.68,0,0,0-3.45,2.17,1.49,1.49,0,0,0,.8,2.31,19.48,19.48,0,0,0,6.17.69c21.43.29,42.85.27,64.28.81,26.53.67,53.09.35,79.62,1.15,4.8.15,9.6.07,14.4.09,16.47.1,32.94.64,49.4.72,22.07.11,44.13.74,66.18,1.46,6.86.22,13.73.58,20.6.83.64,0,1.28,0,1.92.12,7.77,1.08,15.63.65,23.44,1.47,7.46.79,15,.89,22.49,1.29.48,0,1,.09,1.44.13L1084,99c6.37.55,12.74,1,19.1,1.66,1.8.18,3.15-.19,4.1-1.73,1.43-2.31,3-4.58,4.21-7a43.47,43.47,0,0,0,4.65-13.55,15.52,15.52,0,0,0-1.6-9.29,3.6,3.6,0,0,0-3.43-2.21c-2.07,0-4.15.08-6.23,0s-3.36.8-3.74,2.89a9.56,9.56,0,0,1-.39,1.39c-1.57,4.18-4.14,6-8.68,6.08-1.12,0-2.24,0-3.36,0-3.52,0-7,.08-10.55,0-2.67-.08-5,.36-7.06,2.29a10.26,10.26,0,0,1-3.26,2c-10,3.91-19.67,4-28.68-2.62a7.77,7.77,0,0,0-4.88-1.62c-1.75,0-3.51,0-5.27,0-3.2,0-6.4,0-9.6,0a4.37,4.37,0,0,1-3.5-1.26c-2.25-2.6-3.28-5.48-1.83-8.84.38-.88.92-1.69,1.32-2.56a.93.93,0,0,0-.69-1.43,10.11,10.11,0,0,0-1.91-.13c-11.35-.18-22.7-.34-34-.68-22.37-.69-44.76-.18-67.15-1-21.72-.78-43.48-.34-65.23-.91C819.47,59.71,792.59,60.22,765.74,59.19Zm986,174.91c-.52,1.74.32,2.64.75,3.61a434.63,434.63,0,0,1,27.74,85.17,441.91,441.91,0,0,1,8,48.24c1.16,11,2.23,21.95,2.58,33,.18,5.75-.15,11.52.57,17.26a18.86,18.86,0,0,1-.11,3.35c-.11,1.91-.32,3.83-.32,5.74a362.2,362.2,0,0,1-2.83,43.53,423.48,423.48,0,0,1-7.77,44.88,428.12,428.12,0,0,1-28,82.55c-.46,1-.86,2.06-1.23,3.11-.19.54.61,1.28,1.2,1.12a20.69,20.69,0,0,0,2.26-.76,78.36,78.36,0,0,0,24.78-16.15c12.93-12.39,20.35-27.73,23.49-45.21,2.18-12.12,3.34-24.39,4.68-36.63,1-9.05,1.52-18.16,2.32-27.23,1-10.83,1.71-21.68,1.87-32.56,0-1.12,0-2.24.13-3.35a207.79,207.79,0,0,0,.64-27.33c-.36-11.82-1.22-23.63-1.69-35.45-.49-12.3-1.22-24.58-1.88-36.88-.59-10.85-1.25-21.7-2.25-32.53-.52-5.57-1.07-11.14-1.94-16.67a67.72,67.72,0,0,0-13.51-31.39c-6.53-8.47-14.62-15.19-23.58-20.91A106.71,106.71,0,0,0,1751.77,234.1ZM1382.92,69.87a4.22,4.22,0,0,0,.92.25c7.82.41,15.66.62,23.46,1.25,4.79.39,9.59.49,14.35,1,4.94.51,9.89.62,14.83,1,6,.53,12.09,1.08,18.14,1.56,5.58.45,11.16.8,16.74,1.24,3.82.31,7.63.68,11.45,1.06,5.09.5,10.17,1,15.26,1.54,7.79.76,15.59,1.42,23.38,2.24,7.15.76,14.28,1.68,21.42,2.53,9,1.07,18.1,2,27.12,3.26,12.35,1.67,24.67,3.57,37,5.35,16,2.3,31.87,5.14,47.72,8.18,6.59,1.27,13.16,2.67,19.74,4,1.57.31,2.09.16,2.52-1.42.82-3.09,2.92-4,5.76-3.9,1.28,0,2.56,0,3.84,0s2.56,0,3.84,0a22.78,22.78,0,0,0,4.79-.29c-1.33-.54-1.88-.83-2.47-1-23.46-7-47.25-12.65-71.25-17.46A47.24,47.24,0,0,1,1611,77a245.53,245.53,0,0,0-42.82-15.43,128.9,128.9,0,0,0-23.58-4.16c-9.42-.56-18.86-.53-28.29-.89-15.81-.6-31.65-.35-47.48-.9-20-.69-40-.27-59.95-1.13-2.4-.1-4.8-.06-7.2-.06-16.16,0-32.3-.49-48.45-.86-13.75-.31-27.51-.28-41.27-.28-9.74,0-19.48-.17-29.22.94a210.28,210.28,0,0,0-34.74,7c-.67.2-1.6.21-1.69,1.53,3.19.22,6.36.57,9.54.62,21,.36,41.89.26,62.84.84,25.1.69,50.22.49,75.32,1.08,18.7.45,37.42.32,56.13.92,14.86.48,29.75.27,44.62.39a18.36,18.36,0,0,1,6.18.57,1.71,1.71,0,0,1,1.26,1.81,1.58,1.58,0,0,1-1.46,1.62,36.38,36.38,0,0,1-4.3.18c-19.19-.27-38.38-.08-57.57-.79-17.9-.67-35.83-.38-53.74-.49C1384.4,69.51,1383.59,69.26,1382.92,69.87Zm-.12,697.54c2,0,2.94,0,3.87,0,20.47-.42,40.94,0,61.41-.79,16.46-.59,33-.35,49.43-.47,1,0,1.92,0,2.87.11a1.82,1.82,0,0,1,1.84,1.8,1.91,1.91,0,0,1-1.8,1.91,38,38,0,0,1-4.77.39c-19.67.39-39.34,0-59,.82-21.25.83-42.53.11-63.8,1-21.09.84-42.22.17-63.33.93-17.41.63-34.87.32-52.3.51-3.91,0-7.82.45-12.7.75a28,28,0,0,0,2.6,1.15c15.37,4.68,31,7.86,47.12,8,25.59.28,51.18.31,76.77-.6,20.13-.71,40.3-.16,60.44-1.06,15.49-.69,31-.23,46.53-.84,19.81-.78,39.66-.43,59.48-1.14a139.15,139.15,0,0,0,23.76-2.83c17.46-3.7,34.1-9.78,50.28-17.22a33.81,33.81,0,0,1,7.7-2.56c7.21-1.4,14.4-3,21.57-4.6,17.32-3.9,34.55-8.13,51.54-13.31.75-.23,1.87-.07,2.12-1.41-4.12,0-8.12,0-12.11,0-2.71,0-4.68-.88-5.26-3.79-.29-1.43-1.26-1.68-2.53-1.42s-2.53.43-3.78.69c-12.82,2.74-25.7,5.15-38.62,7.37-21.9,3.76-43.87,7.06-65.93,9.75-15.07,1.83-30.13,3.75-45.21,5.42-11.12,1.23-22.27,2.12-33.41,3.17l-12.88,1.21c-5.41.5-10.82,1.06-16.24,1.48-5.89.47-11.8.77-17.69,1.22-10.84.82-21.66,1.79-32.5,2.54-7.81.53-15.64.82-23.47,1.23A14.68,14.68,0,0,0,1382.8,767.41Zm332.45-36.23a46,46,0,0,0,15.93-9.62A131.57,131.57,0,0,0,1746.4,705c12.73-16.58,23-34.62,31.7-53.58,13.36-29.06,22.83-59.39,29.58-90.59a514.44,514.44,0,0,0,9.87-66.86c.91-11.16,1.72-22.32,1.87-33.52.07-4.95-.15-9.92.53-14.86a6.62,6.62,0,0,0-.06-2.39c-.79-3.47-.56-7-.57-10.51q0-14.16,0-28.32c0-3.51-.17-7,.55-10.52a14.83,14.83,0,0,0,0-3.82c-.07-1.44-.29-2.87-.3-4.31q-.07-21.84-2-43.59c-.9-10-2-20.06-3.42-30-1.88-13-4.18-25.88-7-38.7a455.32,455.32,0,0,0-21.57-70.59c-8.58-21.45-18.89-42-32-61.08a153.33,153.33,0,0,0-20.22-24.32,50.64,50.64,0,0,0-15.36-10.51c-.56-.23-1.13-.66-1.84,0a4.24,4.24,0,0,0,.63,1.14,49,49,0,0,1,7.11,9.62c8.24,13.71,16.42,27.46,24.23,41.43,6.09,10.89,11.91,21.93,17.17,33.25,3,6.38,5.86,12.83,7.29,19.77a68,68,0,0,0,3.08,10.57c2.23,5.83,4.54,11.7,5.46,17.86.82,5.54,3.37,9.58,7.31,13.44,11.57,11.32,18.39,25.21,20.86,41.22,1,6.17,1.35,12.4,2,18.59,1.28,11.78,1.63,23.61,2.47,35.41.68,9.4.88,18.84,1.29,28.27,0,.64.06,1.28.1,1.92.53,9.57,1.14,19.15,1.56,28.73.81,18.4-.35,36.78-1,55.16,0,.48-.07.95-.1,1.43-.52,6.38-1,12.75-1.54,19.12-.73,8.44-1.38,16.9-2.29,25.32-1,9.53-2.29,19-3.49,28.56-2.26,18-8.55,34.39-20.46,48.34a17.05,17.05,0,0,0-3.9,7.57,85.81,85.81,0,0,1-2.51,8.76c-3.08,9.07-6.08,18.15-9.73,27-4.14,10.08-8.5,20-13.44,29.71-10.1,19.83-21.52,38.92-32.89,58-2.79,4.69-5.67,9.29-9.72,13C1715.33,730.29,1715.36,730.66,1715.25,731.18Zm-585.19-10.27c2.93,0,4.86.09,6.77,0,10.85-.54,21.7-1.13,32.55-1.7,7.18-.38,14.38-.53,21.53-1.22,4.62-.45,9.25-.58,13.86-1q8.84-.81,17.66-1.62c4.61-.42,9.24-.74,13.84-1.27,6.82-.78,13.63-1.68,20.44-2.57,9.82-1.29,19.62-2.76,29.27-5a111,111,0,0,0,18.8-5.68,19.67,19.67,0,0,0,6.09-3.77,4.1,4.1,0,0,0,.3-6A5.4,5.4,0,0,0,1307,689c-5.26-.3-10.52-.66-15.79-1-2.07-.12-4.15-.15-6.23-.29-7.65-.5-15.29-1.09-22.94-1.55-8-.47-16-.82-23.94-1.23-.32,0-.64,0-1-.07-8.61-.55-17.21-1.13-25.82-1.65-7.18-.43-14.36-.79-21.54-1.18-.48,0-1-.11-1.43-.14-7.81-.51-15.63-1-23.43-1.55a7.8,7.8,0,0,0-6.75,2.72c-10,10.61-20.07,21.07-30.09,31.63-1.62,1.71-3.54,3.24-4.36,5.59C1126,722,1128.66,720.59,1130.06,720.91Zm.2-605c-1.92,0-3.84,0-5.76,0a1,1,0,0,0-.73,1.44,10.11,10.11,0,0,0,1.12,1.54c3.31,3.47,6.66,6.91,10,10.39,7.82,8.24,15.65,16.46,23.37,24.79a6.74,6.74,0,0,0,5.87,2.51c2.07-.16,4.16-.08,6.23-.22,7.66-.52,15.3-1.15,23-1.61,8-.47,16-.8,23.94-1.19.48,0,1-.07,1.44-.1,7.49-.54,15-1.14,22.47-1.58,8-.48,16-.8,23.94-1.19l1.44-.1,26.31-1.72q7.17-.47,14.35-1a6.67,6.67,0,0,0,1.41-.21c3.76-1.11,4.82-5.22,2-7.9a18.44,18.44,0,0,0-4.83-3.1,72.48,72.48,0,0,0-13.1-4.6,269.81,269.81,0,0,0-34.38-6.51c-13-1.75-26-3.34-39.07-4.22-4.31-.28-8.6-.71-12.9-1.08-5.89-.51-11.77-1.14-17.67-1.5-8.45-.52-16.92-.85-25.38-1.26-.48,0-1,0-1.44-.08C1151.36,116.21,1140.75,117.25,1130.26,116ZM638.88,88.68h34c5.23,0,5.31-.09,7.14-4.54,2-5,4.86-9.34,9.29-12.55a5.25,5.25,0,0,0,1.87-2.11c1.18-3.13,2.22-6.31,3.2-9.52.26-.86-.36-1.5-1.28-1.66a12,12,0,0,0-1.9-.17c-6.55-.1-13.09-.47-19.62-.65-19.48-.54-39,0-58.45-1-8.76-.46-17.57-.18-26.35-.23-1,0-1.92,0-2.88.06-2.16.16-2.85,1.12-2.27,3.16.26.92.63,1.81,1,2.71,3.23,8.45,8.19,15.83,14,22.77a9.63,9.63,0,0,0,8.27,3.76C616.19,88.58,627.53,88.68,638.88,88.68Zm.29,659.61H606.59c-1.28,0-2.55,0-3.83,0a5.77,5.77,0,0,0-4.63,2.08,78.69,78.69,0,0,0-14.66,22.32c-2.47,5.91-2.16,6.18,4,6.09,15-.22,30-.21,45-.78,18.34-.7,36.72,0,55.07-.93,7.19-.38,6.72-.38,4.78-6.71a9,9,0,0,0-3.2-5.15A25.32,25.32,0,0,1,680,752.65c-1.11-3.24-2.84-4.81-6.28-4.37a22.9,22.9,0,0,1-2.87,0Zm646.66-116.68c.4-1.66.56-2.12.62-2.58q2.49-19.26,5-38.53,3.43-26.88,5.75-53.89c.37-4.3.83-8.59,1.21-12.89.52-5.89,1.06-11.78,1.49-17.68.47-6.38.81-12.77,1.23-19.15.5-7.49,1.14-15,1.53-22.48.35-6.71.55-13.42.85-20.13.63-13.58.47-27.18,1-40.77.57-14.07-.46-28.14-.67-42.21-.11-6.55-.36-13.1-.71-19.65-.6-11-1.15-22-2.2-33-.74-7.8-1.35-15.61-2.28-23.39q-2.2-18.57-5.53-37a336.55,336.55,0,0,0-7.89-33.61c-.24-.8-.15-1.94-1.33-2.22-.2.26-.5.48-.55.75-1.29,7-1.76,13.86-.1,20.92,5.57,23.7,8.73,47.81,11,72,1.28,13.37,2.06,26.78,2.86,40.19.52,8.93.69,17.9.85,26.85.33,18.7.6,37.41-.36,56.13-.58,11.17-.34,22.38-1.13,33.56-.59,8.29-.64,16.63-1.33,24.91-.41,4.94-.55,9.9-1,14.83-.56,6.53-1.07,13.07-1.61,19.6-.41,4.94-.77,9.88-1.26,14.81-.79,8-1.66,15.9-2.5,23.85-.76,7.16-1.43,14.32-2.34,21.46-1.32,10.3-2.87,20.58-4.22,30.89a33.33,33.33,0,0,0-.18,6.7A27,27,0,0,0,1285.83,631.61ZM761.58,832.67c.56,0,2.16-.14,3.74-.33a1.18,1.18,0,0,0,.8-1.84c-.62-1.11-1.29-2.2-2-3.27-2.8-4.28-5.62-8.54-8.41-12.82Q738.31,787.73,720.91,761c-.26-.4-.55-.79-.8-1.19-1-1.58-2.2-2.72-4.2-2.73a3.63,3.63,0,0,1-2.95-1.34,2.43,2.43,0,0,0-3.07-.5c-2.81,1.13-5.65,2.22-8.38,3.53-2.41,1.16-5.23,1.53-7.16,3.63.74,2.43,1.46,4.86,2.23,7.28a102.81,102.81,0,0,0,37.65,52.42A60.13,60.13,0,0,0,753,831.5,29.86,29.86,0,0,0,761.58,832.67ZM693.23,74.76c5.59,2.35,10.58,4.45,15.56,6.57,1.73.73,3.31,1.1,4.74-.64.77-.93,2.05-.79,3.14-.93a3.88,3.88,0,0,0,2.77-1.71c.74-1,1.47-2.1,2.17-3.16L736.55,52q14-21.48,28-43a20.35,20.35,0,0,0,1.65-2.91,1.07,1.07,0,0,0-.77-1.48,10,10,0,0,0-1.89-.27c-5.74-.51-11.09,1-16.29,3.21a75.87,75.87,0,0,0-23.64,16.11C711,36.29,701.48,50.91,696.31,68.15,695.67,70.28,695.3,72.52,693.23,74.76Zm343.19,662.3h-3.83c-16.31.07-32.61.32-48.92.46q-36.92.33-73.86-.3c-36.3-.58-72.61-.17-108.92-.23q-45.58-.06-91.16-.24c-14.87-.07-29.74.27-44.6-.55-7.66-.43-15.35-.11-23-.12q-11.28,0-22.55,0c-1.59,0-3.22-.11-4.69.72a47.59,47.59,0,0,0-8.13,5.89.91.91,0,0,0-.16.84,1,1,0,0,0,.72.48c1.27.07,2.55.09,3.83.09h60.94c1,0,1.92,0,2.88,0a4.38,4.38,0,0,0,4.1-1.94c2.92-4.23,7.21-5,11.9-4.4a45.32,45.32,0,0,1,15,4.83,12.15,12.15,0,0,0,6.42,1.51c4.3-.23,8.61-.46,12.93-.57,21.41-.56,42.84-.07,64.26-.89,22.05-.86,44.13-.15,66.19-1,23.65-.89,47.33-.07,71-.94,18.21-.68,36.45.07,54.66-1.09,8.29-.53,16.61-.52,24.92-.87C1016.37,738.31,1026.4,737.34,1036.42,737.06Zm.16-637.17c-5.91-.42-11.81-.69-17.71-1.15-6.53-.52-13.09-.5-19.64-.91-9.56-.6-19.16-.62-28.75-1-17.73-.7-35.49-.56-53.23-.9-28-.53-56-.27-83.94-1.13-3.2-.1-6.4-.07-9.6-.06-18.39.08-36.76-.53-55.15-.88-11.83-.22-23.67-.14-35.5-.3-6.55-.09-13.1-.39-19.65-.66a14.76,14.76,0,0,0-7.82,1.73A44,44,0,0,1,692,99.14c-5.18.85-9.94.21-13.19-4.59a3.68,3.68,0,0,0-3.28-1.63c-.8,0-1.6,0-2.4,0q-31.43,0-62.86,0c-1.22,0-3.11-.63-3.54.53-.59,1.58,1.42,2.19,2.47,3,7.34,5.51,5.79,4.5,13.09,4.48,18.38-.07,36.77,0,55.16-.51,19.18-.47,38.38-.13,57.57-.28,63.17-.51,126.35.28,189.52-.68,30.53-.47,61.08-.23,91.62.44C1023,100,1029.76,99.89,1036.58,99.89Zm654.78,3.41h-2.82c-1.75,0-3.51,0-5.26.16a1.53,1.53,0,0,0-1.39,2.05,13.66,13.66,0,0,0,.85,2.23,75.75,75.75,0,0,0,6.6,10.55c1.83,2.62,3.75,5.19,5.33,8,6.54,11.54,12.92,23.17,19.45,34.7,6.07,10.71,12.23,21.35,18.85,31.74,6.73,10.55,15.46,19.06,25.53,26.33a25.39,25.39,0,0,0,5.85,3.25c2.41.91,4.12-.06,4.54-2.58a8.63,8.63,0,0,0,0-2.38,47.56,47.56,0,0,0-2.72-11.62,262.27,262.27,0,0,0-14.36-30.83c-10-18.77-20.78-37.07-31.75-55.27a53,53,0,0,0-3.15-4.81c-4.2-5.52-9.45-9.41-16.42-10.82A53.73,53.73,0,0,0,1691.36,103.3Zm-.72,630.23h0c2.07,0,4.17.15,6.23,0,6.41-.56,12.09-2.76,16.69-7.48a48.06,48.06,0,0,0,6.6-8.8c10.56-17.54,21-35.16,30.65-53.21a289.56,289.56,0,0,0,14.82-31.18,58.37,58.37,0,0,0,3.24-12,8,8,0,0,0-.65-5.13,2.45,2.45,0,0,0-2.82-1.32,18.34,18.34,0,0,0-6,3A125.23,125.23,0,0,0,1745,629.26c-6,5.88-10.67,12.74-15,19.83-9,14.58-17.28,29.55-25.69,44.45-5.42,9.59-10.23,19.56-17.08,28.3a45.57,45.57,0,0,0-3.75,6.14,19.46,19.46,0,0,0-1.44,3.54,1.47,1.47,0,0,0,1.44,2C1685.84,733.59,1688.24,733.53,1690.64,733.53Zm-485.32-54.95v.11c3.5.13,7,.19,10.51.42,7.49.48,15,1.13,22.47,1.58,8.13.49,16.28.82,24.42,1.23.48,0,1,.08,1.43.11,8.13.54,16.26,1.1,24.39,1.6,6.38.4,12.77.67,19.15,1.1a9.84,9.84,0,0,1,8.71,7.1c1,3.91-.6,6.82-3.66,9.17a33.36,33.36,0,0,1-8.87,4.68c-9.33,3.49-19,5.51-28.8,7.24-9.44,1.68-18.93,3-28.47,4.08-9,1-18.1,1.91-27.16,2.84-4.62.47-9.24.71-13.86,1.06-7.33.55-14.66,1.11-22,1.64-1.75.13-3.52.1-5.27.21-8.45.52-16.9,1.19-25.35,1.58-10.54.49-21.09.76-31.63,1.13a13.53,13.53,0,0,0-2.39.2c-1.79.38-6.15,4.54-5.56,5.39,1.34,1.93,3.69,1.25,5.67,1.47.32,0,.64,0,1,0,14.23-.12,28.45.31,42.68-.54,11.17-.67,22.35-1,33.49-2.12,7.62-.79,15.29-1.28,22.89-2.28,11.72-1.53,23.41-3.3,35-5.59a330.14,330.14,0,0,0,46.77-12.41,140.68,140.68,0,0,0,23.5-10.8,32.6,32.6,0,0,0,8.26-6.51c2.45-2.77,2-4.68-1.31-6.41a13,13,0,0,0-2.67-1.06c-2.32-.59-4.65-1.17-7-1.6-8.85-1.62-17.86-1-26.78-1.76-7.63-.62-15.33-.57-23-.86-11-.41-22-.89-33.07-1.21-5.91-.18-11.81-.22-17.72-.71C1215.86,678.24,1210.57,678.58,1205.32,678.58Zm556.77-403.32c.53-.63.14-1.22-.06-1.79-1.67-4.67-3.3-9.35-5-14-3.34-8.82-7.14-17.46-11.1-26a9.88,9.88,0,0,0-6.56-5.75c-5.67-1.67-11.24-3.67-16.9-5.4-19.74-6-39.71-11.11-59.77-15.91-10.72-2.56-21.45-5.11-32.43-6.46-3.82-.48-7.65-.52-11.46-.95a60.9,60.9,0,0,0-23.21,2.24,21.83,21.83,0,0,0-6.86,3.37c-.5.35-1.1.68-1,1.69a11.23,11.23,0,0,0,4.86,1.17c3.82.41,7.63.83,11.42,1.34q12.36,1.68,24.68,3.44c10,1.44,19.92,2.89,29.87,4.42,8.68,1.33,17.33,3,26,4.12a112.52,112.52,0,0,1,23.29,5.46c23.76,8.56,42,23.42,52.73,46.69C1760.94,273.75,1761.05,274.83,1762.09,275.26ZM1205.41,158.58c1.08,0,2.17,0,3.25,0,7.36.13,14.7-.51,22-.85,7.51-.35,15-.27,22.53-.8,10-.71,20.13-.81,30.2-1.17,10.55-.37,21.1-.65,31.64-1.16a47.88,47.88,0,0,0,15-3c4.84-1.87,5.33-4.1,1.77-7.68a25.59,25.59,0,0,0-4-3.38c-2.8-1.84-5.65-3.64-8.6-5.23a147.67,147.67,0,0,0-23.93-9.87,342.42,342.42,0,0,0-47-11.54c-9.91-1.75-19.87-3.24-29.85-4.63-6.48-.9-13-1.5-19.54-2.08-5.89-.52-11.82-.6-17.69-1.29-9.24-1.09-18.52-.9-27.78-1.39-11-.59-22.07-.18-33.11-.11a49.67,49.67,0,0,0-6.18.67.9.9,0,0,0-.71,1.42c2.32,3,4.78,5.38,9.14,5a103.94,103.94,0,0,1,12.47.24c9.58.46,19.15,1,28.73,1.52,8.14.43,16.28.82,24.43,1.22.48,0,.95.1,1.43.14q8.84.75,17.67,1.5c8.76.74,17.54,1.32,26.27,2.24q14.78,1.58,29.49,3.67a253,253,0,0,1,33.82,6.85,60.89,60.89,0,0,1,12.49,4.89,18.73,18.73,0,0,1,5.62,4.42,7.29,7.29,0,0,1,1.58,6.3,9.93,9.93,0,0,1-8.71,7.65c-2.56.16-5.12.12-7.68.29-7.49.51-15,1.14-22.47,1.58-8.14.49-16.29.82-24.43,1.22-.48,0-1,.08-1.44.11-8,.55-15.93,1.29-23.92,1.57C1220.38,157.28,1212.93,158.43,1205.41,158.58ZM4.26,417.31c-.21,18.71-.26,37.41,1.91,56,1.11,9.52,2.12,19.06,3.42,28.56,2,14.57,4.43,29.06,7.24,43.5.82,4.23,1.93,8.41,2.94,12.6a6,6,0,0,0,2.43,4c4.75,3,9.39,6.13,14.35,8.69,4.72,2.44,9.86,0,11.66-5A13.7,13.7,0,0,0,49,562a49.45,49.45,0,0,0-.51-11.46c-1.22-7.25-2.33-14.52-3.38-21.79q-2.28-15.66-4.39-31.34c-.85-6.33-1.6-12.68-2.3-19-.79-7.15-1.5-14.3-2.19-21.46-.79-8.11-1.56-16.22-1.55-24.38,0-9.76,0-19.51,0-29.27,0-2.39,0-4.8.18-7.19.77-9.23,1.51-18.47,2.5-27.68,1.28-11.91,2.6-23.83,4.25-35.7,2.2-15.82,4.22-31.68,7.06-47.41A44.16,44.16,0,0,0,49,274.74a11.68,11.68,0,0,0-1.77-5.41,7.52,7.52,0,0,0-6.3-3.79A9.73,9.73,0,0,0,35,267c-3.65,2.29-7.29,4.62-11,6.74a9.81,9.81,0,0,0-5.17,7.06c-1.19,6.12-2.67,12.18-3.72,18.32-3.74,21.74-7.2,43.51-9.11,65.51-.91,10.51-1.78,21-1.69,31.57C4.31,403.24,4.26,410.28,4.26,417.31ZM633.81,109.57c.18.79.87.83,1.43,1.06a87.76,87.76,0,0,0,15.06,4.75c14.19,3.1,28.4,6.19,42.63,9.1q25.58,5.22,51.34,9.43c.55.1,1.25.53,1.69-.91-.91-.77-2-1.68-3.07-2.62q-9.17-8.09-18.33-16.17c-1.3-1.15-2.92-2-2.76-4.18,0-.49-.47-.8-1-.83-.8-.06-1.6-.08-2.4-.08H636C635.24,109.13,634.4,108.84,633.81,109.57Zm-.52,617.54a4.69,4.69,0,0,0,3.31.71q40.78,0,81.58,0c1.83,0,4,.57,4-2.57,0-.56,1-1.17,1.59-1.7,2.63-2.34,5.28-4.65,7.91-7q6.09-5.42,12.16-10.87c.56-.5,1.44-1.1.85-2-.25-.36-1.16-.39-1.76-.37a21.19,21.19,0,0,0-2.85.38c-11.63,2.12-23.27,4.22-34.9,6.4q-27.57,5.16-54.91,11.5A121,121,0,0,0,633.29,727.11ZM59.77,227.23c0,1,0,1.69,0,2.32.31,4,2.28,5.29,6.18,4.19a26.68,26.68,0,0,0,6.93-3.23,86.58,86.58,0,0,0,15.39-12.93A17,17,0,0,0,90,215.3a.9.9,0,0,0-.69-1.39c-1-.07-1.92,0-2.87-.13A4.94,4.94,0,0,1,82,210a9.52,9.52,0,0,1-.15-5.21,32.27,32.27,0,0,1,1.75-5.47,55.94,55.94,0,0,1,14-19.24c3.45-3.12,7.17-5.91,12.06-6.49,1.38-.16,1.8-1,1.76-2.42-.09-2.71-1.42-3.87-4-3.23a21.07,21.07,0,0,0-4.92,1.87,45.85,45.85,0,0,0-6.45,4.13,112.87,112.87,0,0,0-29.59,34.88,68.29,68.29,0,0,0-5.65,12.69A23.36,23.36,0,0,0,59.77,227.23Zm0,381.42a22.87,22.87,0,0,0,1,6.61,64.68,64.68,0,0,0,4.56,11.06,119.88,119.88,0,0,0,28.16,34.85,50,50,0,0,0,8.31,5.67,17.36,17.36,0,0,0,6.27,2.29c2.5.31,4-1.54,3.12-3.89a3.15,3.15,0,0,0-2.57-1.91,21.43,21.43,0,0,1-8.1-4,54.77,54.77,0,0,1-17.67-23.46,15.4,15.4,0,0,1-1.22-6.55c.19-4,1.87-5.79,5.81-6.17.48,0,1,0,1.44,0s1.06-.07,1.15-.59a1.73,1.73,0,0,0-.39-1.27c-5-5.38-10.16-10.64-16.5-14.54a33.75,33.75,0,0,0-6.45-3.14C61.49,601.69,59.54,604.35,59.73,608.65Zm-14.34-393c-.56,1-1.06,1.8-1.47,2.63-2.77,5.59-5.62,11.14-8.27,16.79a299.37,299.37,0,0,0-12.42,30.67,14.33,14.33,0,0,0-.52,1.84,1.31,1.31,0,0,0,.17.89.9.9,0,0,0,1.27.13c3.44-2,6.85-4.13,10.3-6.15a637.49,637.49,0,0,1,56.61-29.4,8.11,8.11,0,0,0,4.6-5.13c1.92-5.6,4.07-11.11,6.08-16.68.23-.64,1-1.32.06-2.35-.87,1.24-1.67,2.4-2.5,3.54-7.3,10-15.66,19-25.83,26.19a45.47,45.47,0,0,1-14.59,7.1,18.67,18.67,0,0,1-6.17.59,10.27,10.27,0,0,1-9-6.19,15.61,15.61,0,0,1-1.44-6.5c-.14-5,1.21-9.81,2.66-14.56C45.21,218.12,46.21,217.23,45.39,215.69Zm57,412.13c-2.49-6.9-4.92-13.61-7.33-20.32A4.46,4.46,0,0,0,92.89,605c-1-.54-2-1-3-1.51C68,593,46.33,582.07,25.68,569.23c-.62-.38-1.28-1-2.4-.29,1.22,5.37,3.57,10.43,5.64,15.57,6.2,15.45,11.82,27.2,15.18,31.8l-1.38-6.94a24.44,24.44,0,0,1-.17-9.06c1.12-6.16,5.56-9.81,11.78-9.73a19.26,19.26,0,0,1,3.78.47,33.72,33.72,0,0,1,9.37,3.59,84.76,84.76,0,0,1,11.07,7.55c8.29,6.67,15.09,14.68,21.38,23.18C100.56,626.22,100.83,627.42,102.37,627.82ZM1055.3,780.77c12.71.36,24.42-2.53,35.68-7.49a28.78,28.78,0,0,0,3.82-2,3.1,3.1,0,0,0,1.45-3.71c-.47-1.55-1.78-1.68-3.09-1.69-5,0-9.92,0-14.87,0a4.69,4.69,0,0,0-4.33,2.44,15.63,15.63,0,0,1-9.24,6.43,30.79,30.79,0,0,1-18.87-.19c-3.73-1.25-7.09-3-9.11-6.57a4,4,0,0,0-4-2.1c-3.84,0-7.68,0-11.52,0a8.64,8.64,0,0,0-1.43.13,1.89,1.89,0,0,0-1.34,2.92,14.7,14.7,0,0,0,1.74,2.27,17.86,17.86,0,0,0,6.85,4.3C1036.25,779.08,1045.72,781.13,1055.3,780.77Zm30.21-709.72v0c2.87,0,5.75.08,8.62,0a2.33,2.33,0,0,0,2-3.46,4.89,4.89,0,0,0-1.47-1.81,17.33,17.33,0,0,0-2.93-1.61,84.06,84.06,0,0,0-43.86-7.67,71.86,71.86,0,0,0-23.08,6.07,13.76,13.76,0,0,0-6.14,5.18c-1.08,1.7-.32,3.28,1.7,3.33,4.32.1,8.63,0,12.95.06a3.7,3.7,0,0,0,3.46-2.13c1.94-3.41,5.11-5.23,8.69-6.36a29.74,29.74,0,0,1,15.1-1.18c5.66,1.14,10.84,2.86,14,8.17a3,3,0,0,0,2.82,1.49ZM104.05,673.1c-.24-.39-.29-.59-.4-.64-8.45-3.81-15.3-9.73-21.66-16.33a119.13,119.13,0,0,1-22.65-32.44,47.9,47.9,0,0,1-4.05-13.24,13,13,0,0,1,1.3-7.89c1.18-2.36,3.34-3.29,5.72-3.92a.83.83,0,0,0,.68-1c-3.4-2-5.2-2.63-8-2.74-5-.2-7.79,2.13-8.37,7.15a22.47,22.47,0,0,0,.4,7.62,64.66,64.66,0,0,0,4.59,13.58,114.74,114.74,0,0,0,32.77,41.27,49,49,0,0,0,13.18,7.71A12.4,12.4,0,0,0,104.05,673.1Zm-39.67-434c-1-.43-1.27-.57-1.56-.67a8,8,0,0,0-.93-.25c-4.47-.9-6.3-4-6.74-8.2a16.26,16.26,0,0,1,.24-3.8c1-7.1,4-13.46,7.4-19.61a124.33,124.33,0,0,1,25.73-32,55.22,55.22,0,0,1,13.84-9.36c.58-.27,1.56-.27,1.45-1.38a11.65,11.65,0,0,0-5.65.84,44.92,44.92,0,0,0-11.72,6.44c-15.48,11.47-27,26.19-35.16,43.53A57,57,0,0,0,47,227.81a18.22,18.22,0,0,0,.2,9.47c1.09,3.26,3,4.67,6.35,4.83A18.16,18.16,0,0,0,64.38,239.05Zm81.12,463c-5.37-4.64-10.52-8.32-16.63-10.49a9.25,9.25,0,0,0-3.75-.62,2.83,2.83,0,0,0-2.85,2.68,9.59,9.59,0,0,0,.52,4.72,42.08,42.08,0,0,0,2.15,4.8,63.45,63.45,0,0,0,7.93,11.37,78.35,78.35,0,0,0,21.86,18.42,18.91,18.91,0,0,0,7.14,2.63,4.07,4.07,0,0,0,2.79-.38,2,2,0,0,0,.76-1.13,1.3,1.3,0,0,0-.88-1.51,4.69,4.69,0,0,0-1.39-.32,16.9,16.9,0,0,1-7.92-3.19,44,44,0,0,1-12.66-12.9,19,19,0,0,1-2.77-6.58c-.66-3.42.38-5.27,3.75-6.7Zm.05-567c-1.13-.52-1.52-.73-1.94-.9-3.58-1.5-4.56-3.37-3.72-7.1a19.58,19.58,0,0,1,2.93-6.52,42.76,42.76,0,0,1,9-9.93c3.52-2.8,7.19-5.35,11.85-5.89a2.92,2.92,0,0,0,.92-.25,1.4,1.4,0,0,0,.91-1.51,1.59,1.59,0,0,0-1.17-1.36,7.85,7.85,0,0,0-5.14.52,44.36,44.36,0,0,0-7.65,4,83.65,83.65,0,0,0-23.82,23.3,35.53,35.53,0,0,0-5.11,10.25c-.52,1.82-1,4,.4,5.5,1.66,1.76,3.87,1,5.84.33C134.92,143.28,140.1,139.63,145.55,135ZM670.79,732.17l.09.35h5.27c38.08.06,76.16,0,114.23.21,43.67.28,87.34-.07,131,.62q41,.64,82.05-.31c29.43-.66,58.88-.37,88.31-.49H1097l0-.38Zm.12-627.81v.32h426c-36.29-.84-72.58-.46-108.87-1.07-25.73-.42-51.48-.48-77.22.32-18.54.58-37.1.17-55.65.2L716,104.36Q693.46,104.39,670.91,104.36Zm54.34-24.65a3.46,3.46,0,0,0,3.42-1.23c.69-.88,1.34-1.79,2-2.71q19.74-29.14,39.47-58.3c1-1.45,1.87-3,2.72-4.51a6,6,0,0,0,.8-3.21c0-1.24-.9-2.54-1.75-2.58s-1.38.66-1.82,1.31q-.94,1.39-1.86,2.79-4.31,6.63-8.61,13.26Q742.83,50.2,726.05,75.84c-.52.8-1,1.62-1.5,2.45A.9.9,0,0,0,725.25,79.71Zm48.37,746.68a16.39,16.39,0,0,0-1-2.68,49,49,0,0,0-2.75-4.49q-19.59-29-39.21-57.9c-.71-1.05-1.47-2.09-2.27-3.08a3.42,3.42,0,0,0-3-1c-.74,0-1.27.7-.9,1.3,1.58,2.58,3.17,5.16,4.83,7.7q19.89,30.48,39.82,60.94a22.72,22.72,0,0,0,1.71,2.29,1.38,1.38,0,0,0,2.07-.3A4.07,4.07,0,0,0,773.62,826.39ZM45.28,261.78a44.86,44.86,0,0,1,3.65,2.76,3.35,3.35,0,0,0,4.35.43c3-1.59,5.89-3.22,8.91-4.69,8.47-4.11,17-8.21,25.51-12.17,2.25-1,3.81-2.25,3.72-4.91,0-1.55,1.3-3.46,0-4.56-1.58-1.34-3.28.35-4.77,1.06-12.55,6-24.94,12.26-37.11,19A12.71,12.71,0,0,0,45.28,261.78Zm.34,313.71c.72,1.55,2.37,2,3.72,2.7C61.33,584.93,73.65,591,86,597c1.76.85,3.35,2.56,5.66,1.89.72-2.09-.4-4-.41-6.1a3.46,3.46,0,0,0-2.41-3.25c-.87-.39-1.74-.81-2.6-1.23q-14.88-7.23-29.75-14.46c-7.28-3.56-4.82-3.11-10.75,1.15C45.68,575.05,45.69,575.26,45.62,575.49ZM86,630.13a10,10,0,0,0,.86,4.18,50,50,0,0,0,17.7,22.62,12.39,12.39,0,0,0,4.29,2c1.43.35,2.2-.28,1.93-1.75a52.31,52.31,0,0,0-4.84-13.44c-3-6-7.55-10.59-13-14.4a10,10,0,0,0-3.87-1.8A2.36,2.36,0,0,0,86,630.13ZM86,205.9c-.12,2.94,1.19,4,3.37,3.41,2.53-.67,4.53-2.29,6.51-3.89a39.33,39.33,0,0,0,12.48-17.72,41.08,41.08,0,0,0,2.39-8.23c.16-1.13-.6-1.74-1.77-1.5a10.66,10.66,0,0,0-3.91,1.72A49.56,49.56,0,0,0,87,202.54,25.28,25.28,0,0,0,86,205.9Zm1064.71-47.48a7.22,7.22,0,0,0,3.46-.68.82.82,0,0,0,.42-1.17,16.6,16.6,0,0,0-1.83-2.19q-12-12.67-24.08-25.33c-2.53-2.67-5-5.4-7.52-8.05-4.29-4.51-8.62-9-13-13.46a15.79,15.79,0,0,0-1.78-1.59,3,3,0,0,0-1.29-.57,2,2,0,0,0-1.33.2c-.45.3-.31.88,0,1.24,3.51,4.14,7,8.29,10.58,12.37q15.74,18,31.53,36c.53.6,1,1.2,1.59,1.79A3.85,3.85,0,0,0,1150.72,158.42Zm4,521.4c-.75-1-2-.92-3-1.15a4,4,0,0,0-4.27,1.47c-.4.49-.82,1-1.24,1.46q-12.17,13.85-24.31,27.7-8.67,9.91-17.26,19.88c-.51.58-1.2,1.13-.95,2.06.18.69,2.07.61,3-.18a18,18,0,0,0,1.7-1.68q14-14.75,28-29.49,8.4-8.85,16.77-17.74C1153.83,681.49,1154.75,681,1154.68,679.82ZM731.51,109.12c-1.36.21-3.14-.4-4.81.39.18,2.25,2.46,2.65,3.59,4.06a16.3,16.3,0,0,0,2.1,2c6.44,5.73,13,11.31,19.3,17.22,3.7,3.5,8.19,3.93,12.78,4.44a.49.49,0,0,0,.4-.23c.08-.28.19-.68.06-.86a13.37,13.37,0,0,0-1.53-1.83c-7.46-7.44-15-14.83-22.39-22.33-1.92-2-4-3.1-6.75-2.83C733.46,109.19,732.66,109.12,731.51,109.12Zm-5,618.71c2.81,0,5.35-.1,7.89,0a7.89,7.89,0,0,0,6.36-2.64c7.63-7.7,15.36-15.31,23-23a13,13,0,0,0,1.16-1.5.49.49,0,0,0,0-.44c-.19-.21-.47-.54-.67-.51-2.51.39-5,.72-7.52,1.29s-4.35,2.61-6.25,4.28c-7.67,6.73-15.27,13.54-22.89,20.33A2.58,2.58,0,0,0,726.56,727.83ZM156.79,739.11c-.19-.24-.31-.58-.54-.68A70,70,0,0,1,137.06,725c-6.54-6.16-12.35-13-16.51-21a28.41,28.41,0,0,1-2.76-7.64c-.7-3.64,0-6.67,3.23-8.83.4-.26.76-.57.57-1.16a5.76,5.76,0,0,0-3.14-1c-4.16-.32-6.61,2-6.76,6.18a18.72,18.72,0,0,0,1.79,8.37A64.37,64.37,0,0,0,120.34,712a91.06,91.06,0,0,0,14.79,15.66,58.1,58.1,0,0,0,18,10.86C154.29,739,155.44,739.59,156.79,739.11Zm.12-641.21a2.63,2.63,0,0,0-2.29.09,48.84,48.84,0,0,0-12.45,6.11,87.07,87.07,0,0,0-23.9,24,51,51,0,0,0-5.6,11.11,17.52,17.52,0,0,0-.9,7.56,5,5,0,0,0,3.69,4.55c2.13.77,3.45.52,6.19-1.2-4.64-3-4.77-7.21-3.23-11.85a39.85,39.85,0,0,1,3.34-7.42,74.23,74.23,0,0,1,10-13.4c7.1-7.7,14.94-14.42,24.58-18.8C156.62,98.51,156.73,98.15,156.91,97.9ZM145.44,707.21a1.42,1.42,0,0,0-1.34,1.63,10.57,10.57,0,0,0,.81,2.74A37.13,37.13,0,0,0,160.14,727a7,7,0,0,0,1.79.62,1.51,1.51,0,0,0,1.87-2c-2.81-8-7.8-14.18-15.58-17.9A5.25,5.25,0,0,0,145.44,707.21Zm.09-577.47a6.23,6.23,0,0,0,3.22-.74c7.65-3.68,12.23-10,15.09-17.73a1.89,1.89,0,0,0,.06-.47,1.34,1.34,0,0,0-1.47-1.45,10.06,10.06,0,0,0-2.25.74,36,36,0,0,0-14.85,14.5,15,15,0,0,0-1.22,3.58C143.91,128.93,144.71,129.72,145.53,129.74Zm910.25,636.2v-.06c-3.83,0-7.67,0-11.5,0-.91,0-2.15-.22-2.37,1s.89,1.62,1.69,2.11a14.27,14.27,0,0,0,2.57,1.27,26.19,26.19,0,0,0,17.85.25,10.92,10.92,0,0,0,4.87-2.93,1.31,1.31,0,0,0,.35-.85.9.9,0,0,0-1-.8C1064.09,765.93,1059.94,765.94,1055.78,765.94Zm0-694.85h0c3.83,0,7.67,0,11.5,0,.74,0,1.79.2,1.91-.85,0-.46-.55-1.14-1-1.49a12.64,12.64,0,0,0-2.86-1.72,25.53,25.53,0,0,0-20.92.51,9.77,9.77,0,0,0-1.61,1c-.52.38-1,.87-.93,1.56s.81.91,1.47.93c1.12,0,2.24,0,3.35,0ZM688.63,95.29A23.79,23.79,0,0,0,695.69,94c1.44-.4,1.69-1.47.61-2.45-2-1.83-4.13-3.53-6-5.43-4.28-4.24-4.65-5-7.19,2-.17.45-.26.93-.44,1.37-1,2.33.54,4.49,2.73,5.32A17.57,17.57,0,0,0,688.63,95.29Zm.81,646.5a8.51,8.51,0,0,0-5.06,1,3.67,3.67,0,0,0-1.83,4.46,20.72,20.72,0,0,0,2.32,5.74c.72,1.17,1.67,1.32,2.76.34,3-2.66,5.88-5.36,8.82-8a1.8,1.8,0,0,0,.3-.37,1,1,0,0,0-.38-1.59A18.78,18.78,0,0,0,689.44,741.79Zm-.38,16.68a5.24,5.24,0,0,0,3.8-.63L707,752a13.43,13.43,0,0,0,1.72-.8c.64-.4.83-1,.22-1.56-.84-.73-1.77-1.34-2.68-2-2-1.38-3.84-1.17-5.74.17A57.79,57.79,0,0,0,689.06,758.47Zm.82-680.42-.56.78a54.29,54.29,0,0,0,10.63,10,15,15,0,0,0,1.63,1,4,4,0,0,0,4.09,0A20.77,20.77,0,0,0,708,88.19c1.11-.86,1-2-.23-2.63-2.44-1.15-4.93-2.2-7.41-3.23C696.9,80.87,693.39,79.47,689.88,78.05Zm375.93-.33c-6.54-.76-16.08-.62-19.24.16C1051.31,80.53,1058.1,80.6,1065.81,77.72Zm-19.22,681.35c.2.18.41.52.61.52,5.7,0,11.41,0,17.11,0a.56.56,0,0,0,.41-.22c.07-.1,0-.28,0-.42C1058,756.36,1051.71,756.4,1046.59,759.07ZM1366.75,69v.11h9.7V69Zm.08,698.72v.2h9.68v-.2Zm-171.93-90c-.19.07-.09,0,0,0a3.91,3.91,0,0,0-.87-.2c-1.66,0-3.32,0-5,0v.21Zm-4.43-518.63-.27.11a4.65,4.65,0,0,0,.89.17c1.35,0,2.7,0,4.05,0v-.29Z"/><path d="M1591.24,419c0,10.56,0,21.12,0,31.68a321.26,321.26,0,0,1-2.72,40.17c-3.41,28.85-10.17,57-18.55,84.72a57.74,57.74,0,0,1-6.21,14.5,49.36,49.36,0,0,1-22.7,19.25,66.39,66.39,0,0,1-15.15,4.46c-7.1,1.2-14.16,2.55-21.28,3.58-7,1-14,1.69-21,2.47-5.08.56-10.17,1-15.26,1.57-4.13.45-8.28.48-12.42,1-5.71.68-11.48.86-17.22,1.25l-23.91,1.64c-.32,0-.64.07-1,.08-8.3.41-16.61.77-24.91,1.23s-16.58,1-24.88,1.56c-2.07.13-4.15.16-6.23.29-2.55.17-5.1.31-7.64.62a19.63,19.63,0,0,1-8.07-.61,15.06,15.06,0,0,1-8.7-6.38,31,31,0,0,1-4.7-15,57.57,57.57,0,0,1,.43-14.36,18.84,18.84,0,0,0,.27-2.38c.41-8,.79-16,1.21-23.95q.78-14.85,1.59-29.7c0-.48.07-1,.08-1.43l1.2-33.57c.36-10.06.5-20.15,1.19-30.19.51-7.52.52-15,.82-22.54.21-5.11.56-10.21.74-15.33.35-10.23.37-20.47,0-30.71-.45-12.3-1-24.6-1.59-36.89,0-.32,0-.64,0-1-.42-12.47-.77-24.94-1.27-37.4-.43-10.55-1-21.08-1.57-31.62,0-.48,0-1-.07-1.44-.41-10.38-.73-20.77-1.28-31.15-.37-7-1.09-14-1.59-21-.42-5.91-.57-11.82.69-17.68a28,28,0,0,1,2.88-8.11c3.61-6.32,9.12-9.16,16.35-8.72q12.45.75,24.89,1.51c8.61.53,17.22,1.09,25.84,1.63.64,0,1.27.1,1.91.13,8.15.4,16.29.72,24.43,1.22,6.38.4,12.74,1.06,19.11,1.54,5.58.43,11.17.74,16.74,1.19s11.14,1,16.71,1.52c4,.39,7.94.9,11.92,1.25,13.24,1.14,26.29,3.55,39.3,6.11a54.11,54.11,0,0,1,22.94,10.5,48,48,0,0,1,16.52,24.18,521.41,521.41,0,0,1,16.93,69.9c2,12,3.39,24,4.37,36.17.87,10.72.7,21.42.84,32.13.1,7.36,0,14.72,0,22.08ZM1587,390.29c0-8.64-.23-16.29-.81-24-.62-8.14-1.37-16.26-2.45-24.34a451.39,451.39,0,0,0-9.36-48.49c-2.84-11.5-6-22.91-9.64-34.17a43.46,43.46,0,0,0-10.42-17.58,50.23,50.23,0,0,0-25.49-13.55c-5.46-1.2-11-2.12-16.5-3q-6.37-1.08-12.8-1.87c-6.34-.78-12.7-1.47-19.06-2.15-5.08-.55-10.16-1.12-15.26-1.54-5.89-.48-11.82-.59-17.69-1.28-4.94-.59-9.89-.61-14.83-1-7-.55-14-1.13-21-1.53-8.62-.5-17.24-.83-25.87-1.23l-1.43-.09c-9.26-.57-18.51-1.12-27.76-1.7-2.39-.15-4.78-.31-7.16-.58-6.54-.74-11.11,1.83-13.85,7.88a30.9,30.9,0,0,0-2.62,11.63,112.91,112.91,0,0,0,.67,13.87c.88,10.83,1.45,21.7,2,32.55.53,11.19.85,22.38,1.26,33.56,0,.48,0,1,.07,1.44,1.2,9.86.58,19.81,1.45,29.7.68,7.8.46,15.66.93,23.49.72,12,.89,24,1.27,36,.14,4.47.07,8.95.61,13.41a23.54,23.54,0,0,1,0,5.75c-.5,4.14-.49,8.3-.58,12.45-.1,4.32-.13,8.64-.31,13-.49,11.66-1.1,23.31-1.56,35-.48,12-.83,24-1.25,36,0,.47,0,1-.08,1.43-.52,10.38-1.07,20.76-1.56,31.14-.44,9.42-.73,18.85-1.26,28.27-.33,5.9-1.06,11.78-1.5,17.68s-.48,11.54,1.15,17.15c2.7,9.29,7.68,12.33,16.63,11.48,7.32-.68,14.65-1.2,22-1.62,8.62-.49,17.25-.81,25.87-1.2.48,0,1-.07,1.44-.1,8.13-.55,16.26-1.13,24.39-1.65,6.7-.43,13.43-.56,20.1-1.25,4.46-.47,8.93-.56,13.39-1q13.61-1.27,27.2-2.6c8.91-.85,17.79-2,26.62-3.43,4.09-.68,8.14-1.71,12.25-2.27a54.67,54.67,0,0,0,12.06-3c14.67-5.57,24.66-15.52,29.21-30.8,3.92-13.19,7.7-26.41,10.78-39.82a442.76,442.76,0,0,0,8.08-45.32c1.33-11,2.35-21.94,2.64-33,.19-7.52,0-15,0-22.56a44,44,0,0,0-.33-5.74,79.45,79.45,0,0,1-.32-18.68C1587,403.71,1586.87,396.52,1587,390.29Z"/><path d="M540.67,418c.33-13.07.56-27.15,1.08-41.21.43-12,1.07-24,1.82-35.92.69-10.85,1.62-21.68,2.51-32.51.69-8.45,1.3-16.91,2.27-25.32q2.21-19.05,4.87-38,2.81-20,7.52-39.58c3.64-15.28,8.19-30.25,15.62-44.22a39.23,39.23,0,0,1,7.75-10.28,28.28,28.28,0,0,1,17.21-7.68,41.4,41.4,0,0,1,15.22,1.19c17.87,5.06,36.07,8.63,54.26,12.24,15.67,3.1,31.35,6.21,47.06,9.19,14,2.65,28,5.14,42,7.66a30.3,30.3,0,0,0,3.81.34,20.59,20.59,0,0,1,16.52,9.3c4.06,5.79,5.63,12.44,6.54,19.34,1.16,8.81.32,17.54-.74,26.28-1.47,12.06-2.84,24.13-4.24,36.2-1.16,10-2.4,20-3.43,30-.89,8.58-1.53,17.19-2.27,25.79L774.47,339c0,.48-.1.95-.12,1.43-.4,9-1,17.89-1.17,26.84-.28,10.87-1.22,21.72-.77,32.61.21,4.95.54,9.9.65,14.85.14,6.23-.14,12.46-.46,18.69a207.34,207.34,0,0,0,.17,25.42c.36,5.26.2,10.55.47,15.82.47,9.1,1.06,18.2,1.64,27.29.3,4.62.74,9.24,1.06,13.86.93,13.4,2.3,26.76,3.83,40.1,1.72,14.93,3.32,29.87,5.18,44.78.89,7.14,1.82,14.28,2.24,21.46a65,65,0,0,1-3.1,25.07,27,27,0,0,1-7,11.31,18.53,18.53,0,0,1-11.52,5.39,134.78,134.78,0,0,0-15.15,2.34q-27.61,5-55.16,10.29c-22.91,4.44-45.84,8.83-68.53,14.36-2.33.57-4.66,1.16-7,1.86a50.21,50.21,0,0,1-15.61,2.11c-12-.2-20.81-5.69-26.62-15.94a142.94,142.94,0,0,1-12-28.7,350.93,350.93,0,0,1-9.62-41.09c-2.43-13.53-4.31-27.15-6-40.8-1.53-12.71-2.76-25.43-3.82-38.18-.71-8.44-1.32-16.89-1.9-25.34-.83-12.12-1.35-24.26-2-36.39-.51-9.92-.46-19.83-1-29.73C540.94,432.13,540.72,425.58,540.67,418ZM782.5,213.49c0-3,.08-6.08,0-9.11a41.82,41.82,0,0,0-2.75-13.09,23.05,23.05,0,0,0-3.46-6.28c-3.2-4.1-7.24-6.7-12.61-6.87a23.35,23.35,0,0,1-3.33-.34c-8.81-1.56-17.63-3.08-26.43-4.74-19.47-3.67-38.95-7.32-58.4-11.14-19.76-3.88-39.52-7.82-59-13.16a43.58,43.58,0,0,0-12.34-1.41c-10.18.16-17.74,4.84-22.72,13.58a126.41,126.41,0,0,0-9.81,21.85c-7,20.68-11,42-14.32,63.55-2.15,14.06-3.73,28.2-5.21,42.35-1.37,13.2-2.32,26.43-3.39,39.65-.85,10.51-1.44,21.05-1.91,31.59-.53,12-1,24-1.14,35.95-.09,9.74-.61,19.46-.35,29.22.42,16,.46,32,1.32,48,.41,7.66.64,15.33,1.16,23,.75,11.16,1.66,22.31,2.56,33.46.69,8.44,1.29,16.9,2.25,25.31,1.33,11.59,2.88,23.16,4.46,34.72A412,412,0,0,0,567,639.84c3.17,11.92,7,23.61,12.92,34.51a44.8,44.8,0,0,0,4.06,6.5c4.56,5.81,10.48,9.25,18,9.7A45,45,0,0,0,617.62,689c2.61-.78,5.22-1.52,7.87-2.15,18.5-4.4,37.12-8.28,55.79-11.88q29.65-5.73,59.36-11.19c8.33-1.52,16.6-3.42,25.06-4.13a13,13,0,0,0,6.95-3,20.5,20.5,0,0,0,6.19-7.83,45.44,45.44,0,0,0,2.58-7.72c1.3-5.35,1.21-10.79,1.27-16.22.14-12.21-2.25-24.18-3.53-36.25-1-9.53-2.33-19-3.35-28.57-1.15-10.81-2.16-21.63-3.17-32.45-.88-9.39-1.84-18.77-2.45-28.18-.8-12.28-1.56-24.57-1.84-36.87-.31-13.58-.71-27.18.43-40.76a61.28,61.28,0,0,0-.14-7.66c-.06-1.6-.32-3.19-.37-4.78-.56-18.72.25-37.41,1-56.11.2-5.27.6-10.53,1-15.79q1.2-14.81,2.54-29.61c.71-7.8,1.44-15.6,2.26-23.39.8-7.63,1.7-15.25,2.61-22.86,1.13-9.36,2.33-18.72,3.46-28.08C782,226.9,782.9,220.24,782.5,213.49Z"/><path d="M1701.1,114.54a5.52,5.52,0,0,1,.05-.92c.33-2.51,2.37-3.53,4.52-2.27a9.77,9.77,0,0,1,3.09,3c2.1,3,4.32,6,6.2,9.11a410.87,410.87,0,0,1,30.88,63.8,56.66,56.66,0,0,1,3,10.6c.31,1.8.39,3.57-1.34,4.75-1.32.91-3.28.37-5-1.63a65.64,65.64,0,0,1-4.63-6.1,182.12,182.12,0,0,1-10.69-18.18A434.05,434.05,0,0,1,1706,131.54c-1.46-3.71-2.66-7.53-3.93-11.32A16.18,16.18,0,0,1,1701.1,114.54Zm41.69,79.29c.65-.52.35-1.15.15-1.71-1-2.86-1.93-5.75-3-8.56a423.48,423.48,0,0,0-20.25-43.34,195.93,195.93,0,0,0-11.13-19c-.4-.58-.63-1.5-1.68-1.31.89,5.8,6.72,20.11,15.63,38.37S1738.92,189.72,1742.79,193.83Z"/><path d="M1701.11,721.81a22.25,22.25,0,0,1,1.37-6.55,219.81,219.81,0,0,1,8.38-21.44,391.68,391.68,0,0,1,25.28-49c1.68-2.71,3.65-5.25,5.57-7.81a8.42,8.42,0,0,1,3.27-2.75,2.68,2.68,0,0,1,3.78,1.79,9.31,9.31,0,0,1,.1,2.84,33.17,33.17,0,0,1-1.83,7.44,269.5,269.5,0,0,1-10.25,25.34,420.32,420.32,0,0,1-19.2,37.58,126.4,126.4,0,0,1-8.32,12.89,13,13,0,0,1-3.34,3.41c-2.36,1.48-4.53.44-4.8-2.31A13.83,13.83,0,0,1,1701.11,721.81Zm5.6-4.44c.71-.46,1-.57,1.2-.8,1.42-2.13,2.86-4.24,4.18-6.43a388.54,388.54,0,0,0,20.11-38.69,225.93,225.93,0,0,0,10.61-26.19c.2-.66.82-1.4-.07-2.06C1734.59,651.84,1708.76,705.26,1706.71,717.37Z"/><path d="M5.1,419.16c0-6.56-.11-13.12,0-19.68.11-4.63.36-9.28.91-13.87,1.68-14,3.7-27.9,5.27-41.88,2.17-19.44,6.26-38.5,10.72-57.49.29-1.25.65-2.48,1-3.72a6.37,6.37,0,0,1,1.92-3.26,33.22,33.22,0,0,1,10.42-6.72c6.84-2.54,11.37.32,12.06,7.55.44,4.51-.39,8.93-1.12,13.35Q42.54,316.15,39.66,339c-1.41,11.1-3,22.18-4.32,33.29-1.39,11.59-2.89,23.15-2.54,34.89.31,10.39.17,20.8,0,31.2-.09,6.59.82,13.08,1.57,19.59Q36.5,476.31,39,494.61c2.23,16.48,4.32,33,7.18,49.36.72,4.09,1.52,8.18,1.35,12.38a17.46,17.46,0,0,1-1,5.65,6.81,6.81,0,0,1-8.41,4.52c-5.3-1.22-9.62-4.23-13.58-7.79-1.14-1-1.42-2.46-1.75-3.88C21,546.91,19.07,539,17.3,531c-3.17-14.22-5.09-28.64-6.85-43.09-1.1-9-2.38-18.07-3.54-27.1A244.77,244.77,0,0,1,5,424.92c0-1.92,0-3.84,0-5.76Z"/></g></g></svg>