<svg xmlns="http://www.w3.org/2000/svg" xmlns:xlink="http://www.w3.org/1999/xlink" width="1479" height="1108" viewBox="0 0 1479 1108">
  <defs>
    <polygon id="esqueleto-m" points="0 .564 1129.089 .564 1129.089 1005 0 1005"/>
  </defs>
  <g fill="none" fill-rule="evenodd">
    <g transform="translate(175 52)">
      <mask id="esqueleto-mask" fill="#fff">
        <use xlink:href="#esqueleto-m"/>
      </mask>
      <path id="esqueleto" fill="#000" d="M119.744512,979.651706 C132.90411,979.752089 144.827477,974.630207 157.401062,975.454284 C144.840318,973.110451 131.931702,964.756462 119.744512,979.651706 L119.744512,979.651706 Z M722.213118,596.74904 C731.368686,605.869911 739.433944,606.545747 747.86225,606.005312 C750.820329,605.815051 752.876041,604.414354 753.04881,601.414528 C753.232085,598.202263 750.973252,596.828413 748.106227,596.787559 C740.368996,596.675503 732.62943,596.74904 722.213118,596.74904 L722.213118,596.74904 Z M407.177756,598.12289 C398.442436,595.193099 390.707539,596.936967 383.096382,596.788726 C380.425473,596.737368 377.851455,597.856758 377.907488,601.164737 C377.961186,604.224092 380.068262,605.681984 382.943459,605.911932 C391.318066,606.57843 399.535081,606.574929 407.177756,598.12289 L407.177756,598.12289 Z M22.7617955,655.760399 L20.9862479,655.948326 C20.9862479,664.302315 21.0527872,672.657472 20.9640682,681.011462 C20.901031,686.914232 25.0684897,685.934911 28.5612169,685.707298 C34.3477975,685.32911 31.4854421,682.019963 30.5819091,679.335294 C27.9413512,671.48789 25.3638306,663.619476 22.7617955,655.760399 L22.7617955,655.760399 Z M1098.33619,684.741984 C1103.48189,686.984267 1112.02226,683.361131 1112.06195,693.06796 C1111.13974,680.047315 1110.21753,667.029005 1109.29532,654.010695 C1106.80301,664.861427 1103.21456,674.86357 1098.33619,684.741984 L1098.33619,684.741984 Z M1006.6089,581.991531 C998.976733,580.070242 997.439326,565.080451 987.012508,571.502646 C980.447302,575.545991 970.977715,573.691235 964.700845,581.991531 L1006.6089,581.991531 Z M799.947312,569.230016 C795.914099,565.867176 806.084099,553.604075 794.186413,553.905225 C786.0838,554.11066 791.076579,565.029092 789.99444,571.077768 C789.453955,574.090434 789.883541,577.289859 789.993273,580.400573 C790.125184,584.142768 790.27694,587.977176 795.712147,587.447246 C800.121248,587.016531 799.803727,583.59066 799.92163,580.573326 C800.043035,577.462611 799.947312,574.347228 799.947312,569.230016 L799.947312,569.230016 Z M332.415649,568.874005 C332.010576,571.896009 331.712901,573.441444 331.612508,575.000887 C331.304326,579.801775 327.845452,586.637176 336.032116,587.343361 C345.17601,588.131253 340.428376,580.059737 341.703128,575.884493 C342.140886,574.453448 342.014812,572.704911 341.675112,571.2085 C340.287126,565.107298 345.572911,554.073308 337.153944,553.83519 C327.252436,553.555051 334.703665,564.806148 332.415649,568.874005 L332.415649,568.874005 Z M160.690669,365.168326 C163.200483,373.629702 149.58445,384.831775 164.678355,390.363361 C175.869791,394.461566 175.193893,382.066566 176.236341,378.657037 C179.79911,366.995068 166.083851,370.469963 160.690669,365.168326 L160.690669,365.168326 Z M428.11661,799.057524 C460.455855,803.982141 493.342591,802.234772 526.235163,799.057524 L428.11661,799.057524 Z M972.983231,377.932176 C970.859812,375.201984 977.017612,366.005242 967.971775,366.334406 C962.60661,366.530503 956.548035,370.507315 952.845184,375.859145 C958.853562,379.271009 955.489244,390.59681 964.812911,390.755556 C971.915101,390.876949 975.182529,386.686531 972.983231,377.932176 L972.983231,377.932176 Z M282.117808,773.087437 C281.047343,757.767315 280.04225,743.521061 279.062839,729.273639 C278.866723,726.426723 277.870969,724.357193 274.675917,723.9685 C272.41475,723.694197 270.704574,724.267315 269.594419,726.399876 C265.53786,734.185416 273.266919,765.352089 282.117808,773.087437 L282.117808,773.087437 Z M851.769719,773.65472 C863.793479,758.111653 860.224874,742.274441 862.593438,727.836758 C863.156103,724.398047 860.310091,723.800416 857.423221,723.943988 C853.402849,724.143587 851.885287,726.870277 851.842095,730.187594 C851.668159,743.545573 851.769719,756.907054 851.769719,773.65472 L851.769719,773.65472 Z M1031.76658,561.874023 C1022.94487,558.132995 1016.78707,553.899389 1009.26113,553.776828 C1006.82953,553.738308 1002.8185,554.194702 1002.27451,555.535869 C1001.24024,558.089807 1000.98809,563.114807 1002.49864,564.193343 C1012.44335,571.300713 1020.47242,582.623012 1037.35004,580.963186 C1029.95134,576.768099 1024.43559,573.639876 1017.72329,569.833483 C1022.48961,567.132472 1025.9765,565.156322 1031.76658,561.874023 L1031.76658,561.874023 Z M213.685101,334.51174 C196.007839,347.816026 197.400494,373.437106 179.652023,386.848779 C186.058469,393.638657 191.476165,399.504075 195.525721,384.60066 C198.27601,374.472455 203.845463,365.226688 211.05038,357.693274 C217.885246,350.545051 219.832395,343.846218 213.685101,334.51174 L213.685101,334.51174 Z M916.939667,333.256949 C916.617477,341.880573 910.596258,347.470521 917.18131,353.973256 C926.838841,363.507333 933.258128,375.660713 937.788634,388.675521 C938.540411,390.839598 938.395659,396.049023 943.292715,393.907124 C946.054678,392.697855 949.038438,390.645834 950.510473,388.142089 C953.126517,383.693709 948.422074,383.59566 945.963624,382.266166 C941.360742,379.778761 941.187973,375.318709 939.605039,370.839981 C934.906434,357.536862 927.808913,345.239911 916.939667,333.256949 L916.939667,333.256949 Z M42.6757107,437.862159 C29.872157,463.462228 31.1212273,489.940068 32.5594091,516.428413 C32.7742025,520.384214 35.3575599,521.787246 38.9366715,521.64134 C43.8757521,521.440573 42.6243471,517.568814 42.6313512,514.781427 C42.7083967,489.141671 42.6757107,463.501915 42.6757107,437.862159 L42.6757107,437.862159 Z M51.6806901,557.897211 C57.2443058,563.882855 67.2917335,559.743796 70.2042851,566.737943 C60.0704731,579.427089 43.7963719,570.956375 29.4892645,580.030556 C42.3453492,582.228483 51.7028698,581.921497 61.4654628,580.26634 C73.4717128,578.231828 82.062281,563.644737 97.4632004,571.920521 C91.3719401,566.128639 81.0361756,562.5662 94.9533864,553.619249 C78.8508864,552.845364 65.6924566,554.652263 51.6806901,557.897211 L51.6806901,557.897211 Z M194.500783,518.144267 C199.26943,491.120155 183.712085,418.655103 172.659564,410.84972 C178.652767,443.902664 184.568924,476.671967 190.592477,509.422594 C190.932178,511.273848 192.142725,512.967524 194.500783,518.144267 L194.500783,518.144267 Z M1092.47489,440.051915 C1090.86278,440.187315 1089.25066,440.321549 1087.63854,440.456949 C1087.63854,464.50458 1087.55099,488.552211 1087.73193,512.59634 C1087.75878,516.20897 1085.69489,521.663517 1092.68035,521.803587 C1098.06769,521.912141 1099.91212,518.960172 1099.92729,513.887315 C1100.00083,488.988761 1101.46353,463.952472 1092.47489,440.051915 L1092.47489,440.051915 Z M1033.31916,554.103657 C1053.46421,563.197681 1035.43207,566.079615 1033.57248,571.122124 C1040.7879,575.701235 1046.73791,564.981235 1051.93381,570.713587 C1065.45879,585.633343 1082.201,580.813779 1102.02503,581.540974 C1090.31412,571.110451 1079.45305,576.536984 1070.04299,575.014894 C1069.75115,567.587699 1075.84242,569.286044 1078.44679,567.823483 C1072.52246,562.988744 1066.45805,572.40843 1059.77377,568.198169 C1063.28167,559.346932 1074.26298,565.254371 1078.42694,557.662594 C1064.92531,554.729301 1051.66882,552.409981 1033.31916,554.103657 L1033.31916,554.103657 Z M959.797952,409.449023 C949.955979,413.427002 947.715824,421.644423 946.401382,429.889859 C942.377508,455.102402 938.782054,480.386148 935.096713,505.651218 C934.630938,508.849476 931.613324,513.744911 937.565669,514.214145 C942.754564,514.623848 941.651413,509.382908 942.265442,506.001392 C948.008831,474.276775 953.781403,442.557995 959.797952,409.449023 L959.797952,409.449023 Z M577.796083,765.108134 C574.02786,758.655591 584.103304,745.778517 566.323314,745.519389 C548.267829,745.254423 555.255618,757.490678 554.268035,765.866845 C553.783583,769.970887 554.359089,774.189319 554.235349,778.349389 C554.04507,784.801932 556.929605,787.379214 563.488975,787.910312 C583.506785,789.53512 574.139926,773.830974 577.796083,765.108134 L577.796083,765.108134 Z M401.122684,783.768918 C404.400618,780.795939 413.671754,789.620329 413.670587,776.923012 C413.670587,750.312106 411.396579,745.084005 397.412829,744.88674 C389.509833,744.775852 382.08195,747.374145 385.005008,756.071305 C388.306289,765.89019 376.282529,785.391392 401.122684,783.768918 L401.122684,783.768918 Z M718.467074,768.020416 C720.244957,773.487803 712.478541,784.002368 728.394264,784.23465 C742.30914,784.437751 748.012839,780.14228 746.2513,766.701427 C745.128304,758.120991 751.824254,745.524057 734.524048,744.812037 C717.035897,744.091845 718.910669,756.10749 718.467074,768.020416 L718.467074,768.020416 Z M525.609461,770.15181 C525.609461,767.031758 525.4507,763.9012 525.63631,760.792821 C526.344895,748.954598 520.091372,745.584754 509.21162,745.708483 C497.097973,745.846218 497.717839,753.699458 498.051702,761.733622 C498.288676,767.435625 498.803479,773.136462 499.408169,778.813953 C499.786393,782.354214 500.000019,785.525625 504.874895,786.892472 C521.498035,791.55796 527.267105,787.23681 525.609461,770.15181 L525.609461,770.15181 Z M633.107715,766.646566 C630.734481,758.891375 639.140607,746.274598 622.225628,745.820538 C607.411888,745.422507 605.84413,749.388814 604.318397,774.684232 C603.423035,789.524615 611.19412,786.74073 620.398717,787.166775 C638.69818,788.011862 630.425132,774.411096 633.107715,766.646566 L633.107715,766.646566 Z M690.727209,766.725939 C690.653665,759.256723 695.028913,751.722141 687.654729,747.046148 C682.152983,743.554911 674.588521,743.00397 669.713645,746.565242 C657.80662,755.26357 661.287674,769.250695 661.934388,780.975695 C662.500556,791.264981 672.2363,785.390225 678.054399,785.983186 C695.920773,787.80526 687.668738,773.164476 690.727209,766.725939 L690.727209,766.725939 Z M457.675215,786.471096 C461.804151,784.927995 470.218448,790.915974 470.920029,779.811949 C472.443428,755.716462 467.919926,745.800695 454.843211,744.96728 C445.539388,744.376653 440.352829,746.970277 440.17539,757.973918 C439.750473,784.534632 439.964099,785.734563 457.675215,786.471096 L457.675215,786.471096 Z M811.141083,817.623761 C819.365101,815.43634 835.277322,824.622577 833.757426,803.445207 C833.305659,797.143239 833.717736,790.843605 825.04662,793.366026 C812.707674,796.952977 795.140143,784.430747 788.186207,801.624301 C782.704306,815.180713 786.947643,817.455678 811.141083,817.623761 L811.141083,817.623761 Z M746.782446,583.940834 C746.933035,583.399232 747.084791,582.857629 747.236548,582.314859 L383.361372,582.314859 C383.361372,582.857629 383.361372,583.399232 383.361372,583.940834 L746.782446,583.940834 Z M269.666795,705.190991 C269.666795,668.945625 269.768355,633.816148 269.51037,598.686671 C269.484688,595.175591 271.238056,588.72188 264.974027,589.027699 C259.095225,589.314841 256.940287,593.913796 257.226289,600.352333 C258.600267,631.252873 259.551661,662.176758 260.389822,693.098308 C260.546248,698.854005 261.349388,703.455294 269.666795,705.190991 L269.666795,705.190991 Z M807.174409,603.808552 L807.174409,603.519075 C820.823128,603.519075 834.475349,603.366166 848.119399,603.579772 C855.325483,603.694162 856.948107,599.580782 856.956279,593.577629 C856.96445,589.312507 857.535287,584.15911 851.1732,585.078901 C839.35256,586.787751 827.778231,582.421078 815.279357,589.986009 C803.350153,597.207768 786.90445,597.094545 773.503211,589.303169 C770.33851,587.463587 769.1338,585.866793 766.681186,588.599319 C763.574853,592.062542 759.409729,595.480242 760.061114,600.584615 C760.587591,604.715503 764.861279,603.73735 767.798345,603.761862 C780.924089,603.869249 794.048665,603.808552 807.174409,603.808552 L807.174409,603.808552 Z M862.877105,587.625834 C859.497612,627.567873 861.714419,666.055521 861.18444,705.412768 C868.969533,703.540503 870.222105,699.348918 870.838469,693.546531 C874.222632,661.702855 870.183583,629.588378 874.626537,597.782054 C875.436682,591.970329 870.282808,590.233465 862.877105,587.625834 L862.877105,587.625834 Z M323.372147,603.564598 L323.372147,603.801549 C337.031372,603.801549 350.690597,603.845904 364.349822,603.761862 C366.807105,603.745521 370.016165,604.412019 370.929037,601.098204 C372.424419,595.674005 368.531289,592.29249 365.368924,588.913308 C363.866537,587.307176 361.123252,583.888308 359.303345,587.14026 C353.257612,597.9408 343.430814,592.088221 335.311857,593.244963 C317.708138,595.752211 303.179233,579.02789 284.9288,584.890974 C280.847725,586.20296 273.047457,581.38573 274.088738,591.163761 C274.808996,597.943134 275.19539,604.563761 285.56851,603.786375 C298.10474,602.849075 310.764709,603.564598 323.372147,603.564598 L323.372147,603.564598 Z M331.851816,824.750974 C336.55976,824.750974 341.285215,824.495347 345.973314,824.812838 C352.284037,825.238883 356.841393,823.33627 355.341341,816.308274 C353.781754,808.99897 361.343882,797.555277 349.399502,795.027019 C337.833345,792.579301 325.465215,793.919301 313.448459,793.607646 C310.136671,793.522437 310.073634,795.231287 309.634709,798.2708 C306.35911,820.966758 309.220298,824.577054 331.851816,824.750974 L331.851816,824.750974 Z M450.064058,597.437716 C457.441744,604.660643 463.962591,606.251601 471.509543,606.23526 C534.51755,606.098692 597.524388,606.091688 660.532395,606.143047 C668.048996,606.148883 674.790473,604.880085 680.683283,597.437716 L450.064058,597.437716 Z M40.4577355,595.239789 C46.1637686,602.258448 51.2464339,603.633465 57.2081178,603.865747 C118.502446,606.242263 179.821289,606.503726 241.145969,606.046166 C244.683056,606.019319 250.54318,608.0585 250.51063,601.226601 C250.48131,595.322664 245.552736,595.275974 241.340917,595.272472 C175.290783,595.224615 109.241816,595.239789 40.4577355,595.239789 L40.4577355,595.239789 Z M1089.20863,595.312159 C1022.04835,595.312159 956.012219,595.353012 889.97726,595.230393 C885.161919,595.221113 880.739977,596.324162 880.94193,601.330486 C881.237271,608.686479 887.957736,605.88742 891.834523,605.931775 C952.107415,606.61228 1012.37214,606.250434 1072.61234,603.848239 C1078.82151,603.600782 1085.29332,604.080521 1089.20863,595.312159 L1089.20863,595.312159 Z M752.134771,799.05519 L600.971589,799.05519 C661.720762,850.075573 692.28913,849.459267 752.134771,799.05519 L752.134771,799.05519 Z M57.5478182,251.320852 C57.5478182,259.185765 57.964564,267.076357 57.4509277,274.90742 C56.6454525,287.193866 62.1215165,291.778814 74.1756281,291.557037 C84.6129525,291.365608 95.0724566,293.105974 105.5413,293.611392 C111.658242,293.907873 115.975122,295.669249 115.140463,302.704249 C114.061826,311.787768 120.115731,310.778099 126.03539,311.509963 C134.61195,312.570991 133.954729,307.2285 134.02944,301.839319 C134.080804,298.198674 133.615029,293.946392 137.722952,292.216531 C147.81474,287.965416 146.86101,279.313779 146.796806,270.910765 C146.731434,262.510085 146.678903,254.110573 146.587849,245.711061 C146.11974,202.599946 146.11507,202.599946 103.933851,202.976967 C103.408541,202.981636 102.883231,202.976967 102.357921,202.980469 C54.8045331,203.337646 54.8045331,203.337646 57.5478182,251.320852 L57.5478182,251.320852 Z M986.408986,246.00404 C986.050607,246.00404 985.694564,246.002873 985.337353,246.001706 C984.889089,254.924145 984.265721,263.843082 984.052095,272.77019 C983.901506,279.123517 983.959874,286.291584 989.732446,289.964911 C995.398789,293.570538 997.491857,298.126305 997.952963,304.128291 C998.302002,308.688726 998.970897,312.599005 1005.1894,311.429423 C1009.50745,310.617019 1015.48898,312.558152 1015.53217,305.142629 C1015.58937,295.20235 1021.33042,293.377943 1029.9315,293.415294 C1039.34972,293.457315 1048.77495,291.4835 1058.1955,291.501009 C1069.6064,291.522019 1074.54782,286.180695 1074.5735,275.240085 C1074.61669,257.364859 1074.75327,239.4908 1074.79187,221.615573 C1074.81748,209.890573 1068.23359,204.286618 1057.16706,203.92127 C1038.26174,203.295625 1019.34008,203.128709 1000.42425,202.819389 C990.40601,202.654807 986.280576,208.083674 986.385638,217.641096 C986.489533,227.093465 986.408986,236.549336 986.408986,246.00404 L986.408986,246.00404 Z M845.679626,794.221618 C872.963056,794.221618 900.247653,794.059371 927.528748,794.320834 C935.631362,794.397873 938.887116,791.364197 938.419006,783.179458 C937.606527,769.037089 937.070711,754.863204 936.95631,740.69749 C936.722839,711.777768 936.868758,711.776601 907.889161,713.324371 C875.79039,715.039057 874.777126,715.002873 873.599264,748.039476 C872.839316,769.344075 865.072901,784.035051 845.679626,794.221618 L845.679626,794.221618 Z M286.368149,793.825046 C265.129285,785.3412 258.55007,768.852664 257.591671,748.616096 C257.220452,740.751183 256.660122,732.896775 256.224698,725.034197 C255.816124,717.679371 253.012136,713.989702 244.602508,714.069075 C231.526961,714.190469 218.41756,713.003378 205.357188,711.947019 C196.970907,711.270016 192.985556,713.521636 193.130308,723.01019 C193.450163,743.98796 192.920184,764.98674 192.255959,785.962176 C192.08319,791.415556 193.703479,793.82242 199.010277,793.823587 C228.129957,793.825922 257.249636,793.825046 286.368149,793.825046 L286.368149,793.825046 Z M214.115855,389.827594 C205.186754,397.901444 204.831878,408.195399 203.853634,418.358622 C200.652746,451.598326 205.545132,484.302263 211.017694,516.855625 C212.594791,526.233291 210.778386,528.493082 201.536434,528.226949 C155.313831,526.891618 109.304853,531.142733 63.276031,534.505573 C59.2089649,534.803221 51.9538512,532.074197 52.274874,539.301793 C52.6029008,546.716148 59.4576116,543.383657 63.4803182,542.808204 C90.2174256,538.981967 116.809781,540.03249 143.47101,543.75134 C155.785442,545.467193 167.530205,550.294929 171.168851,561.584545 C178.181155,583.344371 193.607756,584.178953 211.697095,582.868134 C221.62195,582.14911 231.642529,582.830782 241.614079,582.61134 C246.12007,582.512124 251.247095,583.401566 254.504017,576.806618 C232.696651,567.996235 224.619719,548.896566 219.984151,528.021514 C216.701548,513.241828 214.713541,498.135312 212.832932,483.089493 C208.951475,452.036044 207.115225,420.95458 214.115855,389.827594 L214.115855,389.827594 Z M877.49006,577.085591 C877.656992,578.957855 877.821589,580.83012 877.988521,582.703552 C896.542467,582.703552 915.111589,582.268169 933.644523,582.877472 C943.585721,583.205469 950.065711,581.106758 954.059233,570.745103 C960.616269,553.731305 973.353283,545.087838 992.322808,543.05566 C1018.10385,540.291618 1043.59072,539.391671 1069.26787,543.123361 C1073.31392,543.711653 1080.15579,546.186218 1079.96668,538.489389 C1079.81726,532.360172 1073.54273,534.743692 1069.90758,534.500904 C1025.35079,531.526758 980.824357,526.443395 936.128655,528.444057 C919.454151,529.191096 918.421041,522.817925 921.108293,509.402751 C925.748531,486.23289 929.235421,462.766549 928.740463,439.045747 C928.422942,423.879702 927.708521,408.615608 923.155835,393.897786 C922.280318,391.066044 920.720731,389.016357 917.599223,389.824092 C913.594027,390.859441 915.653242,393.425051 916.28945,395.896113 C925.685494,432.413448 921.26005,469.122211 915.868035,505.420103 C911.739099,533.208761 907.753748,562.381775 877.49006,577.085591 L877.49006,577.085591 Z M917.470814,381.510956 C904.437291,355.179023 882.370773,343.211235 855.003293,338.815382 C824.787467,333.9608 794.207426,334.039005 763.812994,333.513744 C655.011971,331.634476 546.193438,330.428709 437.366733,332.333657 C383.786289,333.269789 330.122963,332.522751 276.812178,338.975294 C248.948572,342.348639 226.963769,355.343605 214.023634,381.527298 C219.342105,384.866793 221.917291,382.294179 224.325545,379.260503 C241.159977,358.044615 264.173221,349.990608 290.180731,347.0258 C324.751961,343.087507 359.491289,344.001462 394.106878,343.110852 C536.033944,339.460869 677.977353,342.119859 819.888076,345.250416 C853.413355,345.990451 886.226548,351.098326 908.511362,381.067402 C909.979895,383.042385 912.731351,384.166444 917.470814,381.510956 L917.470814,381.510956 Z M275.233913,659.50026 C275.578283,659.501427 275.92382,659.502594 276.26819,659.503761 C276.26819,673.168726 276.719957,686.854702 276.103593,700.492821 C275.718366,709.040573 279.037157,711.201148 287.052219,711.04357 C307.017498,710.650207 326.996785,711.147455 346.969068,711.105434 C366.375184,711.063413 372.990587,705.103448 373.169192,685.482019 C373.369977,663.450225 372.208459,641.409092 371.991331,619.36796 C371.927126,612.885068 370.0185,610.027646 363.009698,610.031148 C337.276517,610.04749 311.533996,609.821044 285.812488,609.100852 C277.287291,608.862733 274.862694,612.21857 275.119512,620.146514 C275.543262,633.2512 275.233913,646.380399 275.233913,659.50026 L275.233913,659.50026 Z M856.157808,658.578134 C856.157808,645.983535 855.69787,633.365591 856.313066,620.800172 C856.758996,611.678134 853.113345,608.925765 844.417715,609.148709 C819.248366,609.796531 794.062674,609.991462 768.883986,610.056828 C762.600112,610.074336 759.275483,611.447019 759.352529,618.713134 C759.604678,642.325382 758.603087,665.969145 759.520628,689.54404 C760.037767,702.819145 764.825091,712.983535 782.36694,711.487124 C801.650483,709.841305 821.206021,710.266183 840.57945,711.174301 C852.235494,711.72174 856.81036,707.952699 856.314233,696.357263 C855.776083,683.784841 856.192829,671.172733 856.157808,658.578134 L856.157808,658.578134 Z M569.56506,16.1601899 C520.686723,16.1601899 471.801382,15.5905732 422.933552,16.2990923 C356.784192,17.2562352 290.637167,18.4258171 224.743459,25.8285 C207.224957,27.7964791 200.038717,36.9862178 197.430845,52.6635174 C192.44507,82.6232561 186.977178,112.505956 182.315928,142.515887 C179.341506,161.670416 177.349998,180.982524 175.185721,200.252611 C174.83318,203.392507 173.282932,208.527228 179.752415,207.65296 C183.150587,207.194232 187.378748,207.44519 187.888882,202.176235 C188.293955,197.999824 189.285039,193.877106 189.672601,189.699528 C193.262219,151.020451 196.102395,112.230486 203.562963,74.0404861 C209.31569,44.5908345 216.815948,38.2410087 246.311517,35.6602247 C336.422012,27.7743014 426.844192,28.5563571 517.146134,26.4494756 C607.01849,24.3530993 696.909523,26.9700679 786.741021,29.7282735 C823.405318,30.8535 860.205029,31.537507 896.710566,37.0877683 C913.449275,39.6335348 921.584574,48.957507 925.504554,63.8725941 C927.238076,70.4628728 928.917901,77.1465314 929.711702,83.8943885 C934.118469,121.407385 938.489048,158.928552 942.252601,196.509249 C942.953014,203.516235 944.88849,208.041653 952.029202,207.483709 C961.795298,206.719162 955.932839,199.616462 955.523097,195.653657 C950.464946,146.610591 941.283696,98.1955035 932.869399,49.6636916 C930.424957,35.5645105 923.229378,27.2128554 908.054926,26.0957997 C887.667064,24.5947195 867.387767,21.1408345 846.989399,20.3202596 C754.555866,16.6037439 662.102488,13.2607474 569.56506,16.1601899 L569.56506,16.1601899 Z M48.5603492,470.545085 C48.7051012,470.553256 48.8498533,470.561427 48.993438,470.56843 C48.993438,483.694127 49.591124,496.857176 48.8031591,509.935016 C48.182126,520.216131 52.5305248,522.35803 61.7292851,521.772071 C99.9905248,519.333692 138.273944,517.155608 176.573707,515.405904 C184.352963,515.051061 185.279843,511.566828 184.085638,505.485469 C178.025897,474.612943 171.642798,443.799946 166.080349,412.837542 C164.486909,403.96296 159.963407,402.026497 152.04757,401.958796 C119.248386,401.679824 88.0846674,410.940765 56.4831901,417.7108 C49.0144504,419.311096 46.1567645,423.594894 46.7042541,431.222855 C47.6404731,444.307699 47.9731694,457.434563 48.5603492,470.545085 L48.5603492,470.545085 Z M1084.12363,472.169894 C1084.12363,455.086061 1083.96137,442.480956 1084.19601,429.884023 C1084.30457,423.929894 1082.63059,419.236392 1076.47279,417.995608 C1043.83587,411.422838 1011.81414,401.111375 977.933986,401.9658 C971.838056,402.118709 968.146878,403.797211 966.59663,410.117855 C958.853562,441.680225 953.510576,473.683814 948.591341,505.771444 C947.806878,510.893326 947.89443,514.906322 955.022302,515.267002 C994.287467,517.261828 1033.54096,519.505277 1072.79095,521.800085 C1079.16471,522.172437 1082.24186,520.407559 1082.34575,513.264005 C1082.56755,498.068779 1083.6205,482.885225 1084.12363,472.169894 L1084.12363,472.169894 Z M611.937725,267.903936 C658.707818,267.873587 702.226826,268.997646 745.770349,271.416183 C801.348138,274.50472 857.096362,274.815207 912.417333,281.683291 C919.909419,282.614754 920.656527,278.479197 923.152333,274.075172 C925.411165,270.089023 929.383676,268.372002 933.959709,270.421688 C938.355969,272.390834 941.567364,277.080834 938.583603,280.455347 C930.88256,289.168848 938.987508,290.776148 943.600897,293.872855 C957.59632,303.269197 969.826702,315.465765 972.806961,331.650817 C975.903955,348.470852 984.08945,347.008291 995.523696,343.527559 C997.525711,342.918256 999.546403,342.1362 1001.60212,341.970451 C1012.17252,341.112524 1020.55997,337.984301 1018.99221,324.976497 C1017.22483,310.30303 1006.33107,317.615834 999.478696,317.904145 C975.859595,318.902141 969.774171,314.340538 966.100504,290.102646 C965.235494,284.399476 965.014864,278.601758 964.355308,272.864737 C962.50038,256.714702 960.367622,240.595016 958.771847,224.419301 C958.137973,217.994772 956.733645,212.200556 949.082798,213.235904 C941.59538,214.252577 945.562054,220.778657 945.601744,224.755469 C945.685793,233.131636 946.400215,241.545155 947.499864,249.858291 C948.401062,256.671514 947.967973,260.942472 939.173118,260.186096 C930.259192,259.422716 923.147663,259.749545 915.342725,268.674319 C904.803841,280.726148 903.586289,255.759894 892.848955,258.879946 C891.877715,259.161253 890.755886,258.932472 889.702932,258.910294 C806.166981,257.166427 722.636868,254.936984 639.092746,253.794249 C528.680773,252.282664 418.292147,255.201949 307.902353,256.94465 C285.316362,257.30066 262.676671,259.402873 240.184068,258.276479 C228.938934,257.713866 230.310576,268.786375 223.030948,271.085852 C211.938738,274.587594 214.225587,259.283814 203.928345,259.27681 C183.177436,259.261636 183.137746,258.003343 184.898118,236.688239 C185.24132,232.515329 186.464709,228.383274 186.49506,224.225538 C186.524244,220.207873 190.192074,213.804354 182.390638,213.3608 C176.97411,213.052646 172.587188,215.272751 171.994171,222.385956 C170.252477,243.296026 167.608417,264.131392 165.825866,285.039127 C163.835525,308.39458 158.142333,322.643169 129.112539,317.298343 C126.048231,316.733395 122.828665,316.983186 119.677973,316.915486 C114.396857,316.798761 112.287446,319.575643 112.048138,324.688186 C111.731785,331.447716 112.25476,338.036828 120.149585,339.616113 C131.611847,341.908587 142.600163,347.953761 154.809533,344.720486 C155.593996,344.512716 155.90568,341.957611 156.174171,340.448361 C160.027612,318.811096 172.700421,303.466462 190.783924,292.041444 C194.804295,289.501514 199.213397,288.159179 193.742002,282.114005 C189.603727,277.543064 193.454833,273.054998 197.646806,270.432193 C202.23101,267.565434 207.296165,270.610782 208.074791,274.184894 C210.424678,284.962089 217.558386,281.232733 223.829419,280.651444 C231.142901,279.972106 238.426031,278.842211 245.751186,278.45235 C313.882715,274.821044 382.017746,271.306462 450.15161,267.759197 C450.155112,267.55026 450.157446,267.340155 450.159781,267.130051 L245.291248,267.130051 C458.620773,260.873605 671.890762,260.282977 885.144409,266.332821 C795.137808,268.950956 705.128872,265.355834 611.937725,267.903936 L611.937725,267.903936 Z M32.8570847,601.062019 C32.6819814,622.25573 34.4890475,642.586845 38.7440579,662.573622 C42.8262996,681.74566 52.6554318,691.447821 71.8887789,692.636078 C129.020318,696.171671 186.23007,698.453639 243.381455,701.704423 C253.215256,702.263535 254.569388,698.09296 254.296227,689.872037 C253.629667,669.913274 252.279037,649.824946 253.802436,629.988744 C255.127384,612.719319 247.931806,610.265765 233.065535,610.671967 C197.860432,611.630277 162.516413,612.551235 127.409368,610.456026 C96.065876,608.586096 63.4382934,618.294092 32.8570847,601.062019 L32.8570847,601.062019 Z M1100.31369,601.03634 L1097.39646,598.399528 C1087.57901,610.836549 1074.32602,610.324127 1061.11623,610.357977 C1004.85787,610.499214 948.598345,610.997629 892.342322,610.749005 C882.172322,610.70465 878.443789,613.823535 878.344564,623.933064 C878.122767,646.514632 877.26943,669.095033 876.233986,691.656758 C875.889616,699.170329 878.331723,702.012577 886.005917,701.635556 C944.728562,698.759458 1003.56444,697.905033 1062.1365,692.417803 C1078.53434,690.880538 1090.42852,679.72749 1093.03989,663.359179 C1096.33067,642.723413 1097.96497,621.821514 1100.31369,601.03634 L1100.31369,601.03634 Z M388.704357,612.441514 C380.218851,609.072838 377.275948,612.56174 377.434709,620.920399 C377.793087,639.830974 378.832033,658.799911 377.790752,677.64512 C377.038975,691.224876 380.559719,695.478326 394.921692,695.513343 C503.162384,695.785312 611.399574,696.837002 719.642601,695.177176 C753.164378,694.663587 753.418862,695.000922 752.775649,661.428552 C752.504822,647.239493 752.295866,633.107629 753.678014,618.966427 C753.981527,615.862716 753.633655,612.292106 749.712508,611.416671 C747.812054,610.994127 744.744244,610.995294 743.776506,612.13803 C741.24101,615.12735 744.129048,617.738483 745.573066,620.37296 C746.323676,621.743308 746.79412,623.270068 747.356785,624.737298 C754.534853,643.5008 750.335876,663.186427 735.797632,676.711322 C720.344182,691.084807 702.229161,693.223204 683.118386,686.024789 C664.318128,678.941932 654.696785,662.444057 654.029058,641.704406 C653.680019,630.843169 659.165421,621.89972 661.698583,612.213901 L469.27289,612.213901 C482.534048,643.743587 479.281795,664.381688 459.381888,679.8162 C442.436558,692.958239 416.967198,693.076131 399.323789,680.094005 C379.307147,665.365678 376.072405,644.949354 388.704357,612.441514 L388.704357,612.441514 Z M335.514977,781.699389 C335.527818,781.552315 335.540659,781.406409 335.5535,781.259336 C341.301558,781.763587 347.042612,782.356549 352.796506,782.755747 C380.337921,784.675869 380.560886,784.649023 379.639843,756.756479 C379.302477,746.503378 380.655442,739.09019 393.466,739.231427 C405.567973,739.366828 417.555545,738.724841 418.253624,755.612577 C418.534957,762.437472 418.641186,769.270538 418.780101,776.10127 C418.920184,782.946009 422.775959,784.839284 429.076176,784.771584 C436.581103,784.692211 435.684574,780.153953 435.197787,775.211828 C434.630452,769.465469 434.553407,763.673587 434.06662,757.916723 C433.097715,746.462524 437.464791,739.650469 449.715019,739.419354 C461.106072,739.205747 472.762116,738.611618 474.08006,754.532873 C474.730277,762.376775 475.246248,770.235852 475.659492,778.097263 C476.077405,786.029876 481.167074,786.865625 487.623717,786.92749 C495.650452,787.004528 493.695132,781.383064 493.733655,777.087594 C493.806031,769.209841 493.860897,761.300573 493.22819,753.459005 C492.514936,744.627611 497.26257,741.24026 504.904079,739.841897 C521.736176,736.760364 531.139223,743.999632 531.896837,760.895538 C532.180504,767.194005 532.148986,773.507646 532.223696,779.814284 C532.294905,785.916653 535.679068,787.760904 541.367591,787.857786 C547.897777,787.968674 549.212219,784.978186 548.695081,779.110434 C547.958479,770.764615 548.182612,762.339423 547.691155,753.965591 C546.856496,739.757855 556.390287,739.646967 566.47974,739.463709 C576.894884,739.273448 584.077622,741.514563 582.861238,754.340277 C582.070938,762.681427 582.63944,771.148639 582.479512,779.556322 C582.389626,784.225312 583.019998,787.718883 589.072736,787.837943 C594.498603,787.944162 598.180442,787.248483 598.465277,780.623186 C598.80381,772.773448 599.843924,764.95289 600.579357,757.12066 C601.873955,743.320294 608.597921,738.493726 624.203128,739.561758 C636.43818,740.39634 640.511083,747.14303 639.276021,758.568047 C638.600122,764.82566 638.784564,771.185991 637.923056,777.409754 C637.203965,782.605172 636.423004,786.893639 643.869564,786.898308 C650.142932,786.90181 655.297973,786.720887 655.218593,778.063413 C655.155556,771.294545 656.605411,764.514005 657.350184,757.736967 C659.048686,742.275608 664.54226,738.476218 681.486424,739.241932 C696.638696,739.928274 697.801382,749.307106 696.664378,760.983082 C696.156579,766.201845 696.174089,771.481305 696.149574,776.733918 C696.128562,780.787768 695.15849,785.478936 702.155618,784.738901 C706.988469,784.226479 711.682405,784.775085 711.925215,777.723744 C712.142343,771.441618 713.162612,765.188674 713.837343,758.921723 C715.73663,741.291618 719.507188,738.845068 738.153355,739.086688 C755.223593,739.308465 752.222322,750.773169 751.902467,761.075294 C751.774058,765.258709 751.356145,769.443291 750.867023,773.604528 C749.966992,781.244162 753.230917,783.859963 760.825731,783.412908 C784.410982,782.022716 808.01724,780.891653 831.629337,780.109598 C839.403924,779.851636 843.193159,776.61019 843.787343,769.010242 C844.687374,757.507019 845.546548,745.992124 846.788614,734.522751 C847.661795,726.467577 844.961702,723.347524 836.434171,723.596148 C817.524182,724.147089 798.586176,723.62066 779.66101,723.815591 C768.489419,723.931148 757.231444,725.224458 752.292364,711.351723 C750.440938,706.152803 745.080442,708.064754 741.191981,708.061253 C624.494967,707.965538 507.797952,707.971375 391.099771,708.023901 C386.58911,708.026235 380.992808,706.428274 378.792343,712.301862 C374.584027,723.542455 365.677105,724.187943 355.661196,723.859946 C343.056093,723.450242 330.427643,723.76073 317.810866,723.76073 C282.553231,723.76073 283.13224,723.710538 286.265421,759.344267 C287.588035,774.372577 292.081186,782.523465 308.791878,780.727071 C317.563386,779.785103 326.598717,781.295521 335.514977,781.699389 L335.514977,781.699389 Z M908.490349,357.630242 C906.762663,351.979598 906.090267,350.680451 906.001548,349.342786 C905.421372,340.626949 906.156806,329.73303 914.512736,327.685678 C921.895091,325.877611 930.539357,333.881427 932.567054,341.903918 C934.633273,350.078152 940.419853,355.365782 943.663934,362.41012 C945.00756,365.329406 946.664037,368.749441 951.919471,367.680242 C965.982601,364.816984 973.061444,354.421479 969.792849,340.179894 C963.279006,311.81228 935.233293,287.723796 903.651661,285.523535 C858.079275,282.346287 812.417002,280.433169 766.792085,278.005294 C761.464275,277.721653 756.402622,276.79019 756.695628,285.480347 C757.0435,295.759127 747.95914,291.694772 744.074182,290.717786 C739.327715,289.524859 729.127364,295.321409 730.146465,284.328274 C731.078014,274.267768 725.092983,275.900747 719.527033,275.777019 C695.885752,275.247089 672.20945,275.431514 648.604357,274.218744 C569.747167,270.166061 490.97286,274.718326 412.164698,275.816706 C407.741589,275.877402 403.253107,275.64512 404.971455,282.419824 C406.863738,289.879702 401.17288,290.688605 396.67506,290.142333 C390.113355,289.345103 380.012229,295.383274 377.744058,285.327437 C375.719864,276.359476 370.630194,277.729824 365.223004,278.011131 C320.108221,280.349127 274.971258,282.419824 229.900835,285.455834 C195.352952,287.78566 169.798376,310.935678 161.521826,341.121862 C156.92945,357.874197 167.243035,361.68526 177.262446,366.454632 C189.364419,372.217333 187.68693,358.113483 192.93536,353.843692 C196.014843,351.341113 196.814481,346.807524 198.01569,342.675469 C200.523169,334.053012 208.554574,328.19343 215.933428,326.995834 C225.518583,325.442228 221.493541,336.988639 224.918562,341.942437 C231.890008,352.027455 214.963355,353.623082 218.008986,363.038099 C237.14661,341.300451 261.961083,334.217594 289.38226,331.413866 C324.520824,327.819911 359.766785,328.072037 394.912353,327.323831 C535.272829,324.332176 675.66132,325.057037 815.98911,329.519423 C847.304585,330.516253 879.429037,331.708012 908.490349,357.630242 L908.490349,357.630242 Z M552.136444,346.973274 C473.733355,347.917577 387.045545,347.665451 300.428944,351.600242 C254.833211,353.673274 225.659833,373.36357 217.964626,408.524563 C214.007291,426.605225 215.750153,445.23566 216.765752,463.521758 C218.307829,491.253221 220.998583,519.00803 231.738252,545.09951 C240.045153,565.28472 251.153707,572.236845 272.968076,572.051253 C286.631971,571.934528 300.316878,571.627542 313.95976,572.198326 C323.112994,572.580016 327.809264,570.352908 326.65475,560.015765 C325.943831,553.646096 324.639895,546.686967 335.985421,546.453517 C348.135256,546.203726 346.237136,553.421984 346.532477,560.665922 C346.727426,565.448134 344.586496,571.708082 353.104688,572.257855 C364.529595,572.994389 375.918314,575.10127 387.328045,575.130451 C491.361589,575.411758 595.397467,575.658047 699.429843,575.193483 C722.404564,575.090765 745.38162,576.289528 768.515101,573.064423 C781.185576,571.297211 786.504048,568.820312 784.28257,555.917559 C783.165411,549.432333 785.784957,546.00296 792.911661,546.723152 C798.369048,547.272925 806.465824,545.190556 805.185236,554.172524 C802.510824,572.936026 813.727942,572.861322 826.747457,572.079267 C835.126733,571.576183 843.562043,571.97188 851.971671,571.989389 C883.984058,572.057089 896.146733,563.071618 904.380091,532.070695 C913.46445,497.868012 916.706196,462.824911 915.886713,427.609057 C914.985514,388.911305 896.017157,365.585033 859.288655,356.168848 C849.210876,353.584563 838.653314,352.179197 828.245174,351.67728 C739.016031,347.374807 649.680659,348.940085 552.136444,346.973274 L552.136444,346.973274 Z M578.027219,41.1077683 C523.903955,41.1077683 469.771351,40.4867927 415.65976,41.2781864 C359.490122,42.0975941 303.267952,42.4524373 247.280421,48.1906254 C224.14694,50.5613049 220.713748,52.9098066 216.255618,75.7668449 C205.884833,128.934963 203.64351,183.082402 197.484543,236.761775 C196.477116,245.531305 200.076072,247.433918 208.040938,247.111758 C233.225463,246.090416 258.431,245.460103 283.634202,245.004876 C329.870814,244.171462 376.13661,244.259005 422.348707,242.718239 C497.48787,240.216828 572.637539,240.261183 647.770866,241.242838 C739.154946,242.436932 830.522684,244.886984 921.889254,247.132768 C931.742901,247.375556 934.112632,244.644197 933.272136,234.677071 C928.955256,183.412733 924.533314,132.164737 916.644326,81.306601 C912.468696,54.3875418 908.894254,51.4332387 881.919006,48.1112526 C874.628872,47.2124721 867.357415,45.8561307 860.039264,45.5374721 C766.081165,41.450939 672.10789,37.893169 578.027219,41.1077683 L578.027219,41.1077683 Z M1002.20564,949.47019 C1004.4061,947.536061 1008.61675,945.877402 1006.43263,942.434023 C1003.23058,937.385678 996.664202,936.178744 992.572622,939.112037 C985.742426,944.008639 977.789233,944.535068 970.263293,947.131026 C979.522756,952.104667 987.538986,948.508378 994.93068,943.97012 C1003.11734,938.941618 1002.0819,944.737002 1002.36557,949.492368 C1007.21826,958.412472 1019.60507,957.099319 1025.88778,965.808152 C1021.25454,966.600713 1017.89256,967.177333 1011.60869,968.253535 C1022.69273,971.621044 1030.21283,972.564179 1036.42433,963.484162 C1032.06776,960.653587 1028.38008,958.256061 1024.07604,955.458169 C1029.36183,950.774005 1033.82696,946.815869 1039.18629,942.067507 C1026.37573,935.634807 1023.45151,928.896287 1036.23288,920.830608 C1041.23733,917.673204 1039.84351,913.297193 1035.80096,910.719911 C1024.84416,903.73627 1025.77805,896.674423 1034.65345,888.860869 C1039.34972,884.727646 1041.12877,880.711148 1033.89,877.179057 C1022.9367,871.835399 1025.9835,865.878936 1033.42189,860.052037 C1041.29453,853.885469 1041.4638,848.596671 1032.12729,843.80512 C1021.8569,838.536166 1025.8189,833.662908 1031.83195,827.399458 C1036.05778,822.998936 1046.49744,816.583744 1035.02934,810.382159 C1020.33934,802.440207 1027.13218,795.684179 1034.09779,788.160103 C1040.42485,781.327037 1045.26588,773.288204 1035.62352,766.979232 C1020.83313,757.302751 1027.80107,748.990782 1034.81221,739.466044 C1038.29093,734.741026 1044.05533,730.565782 1039.79682,722.996183 C1032.67478,710.333883 1020.11987,705.977716 1002.96208,711.623692 C1010.01875,716.680207 1020.07435,718.705382 1020.94636,727.660503 C1021.16582,729.928465 1011.83282,733.125556 1003.32863,737.89026 C1012.45502,721.774075 1006.0404,717.787925 994.30381,717.284841 C992.307632,717.198465 990.352312,716.117594 988.378314,715.496618 L988.443686,715.670538 C989.594698,714.407577 993.201826,712.235329 990.251919,711.52681 C977.966671,708.573674 965.467798,711.164963 953.096165,712.118605 C949.354205,712.406915 949.587095,716.794598 949.568417,719.838779 C949.456351,738.135382 949.559079,756.434319 949.355959,774.72742 C949.287085,780.923169 951.233066,781.819615 957.66286,781.636357 C971.475008,781.245329 979.046475,770.412106 989.795483,765.09296 L989.470959,764.767298 C988.217219,778.343552 977.754213,781.952681 967.127777,785.250155 C961.610855,786.963674 954.452632,787.976845 957.82162,796.048361 C960.728335,803.013326 966.650329,798.282472 971.427147,797.482908 C983.480091,795.462402 991.000194,786.445416 999.601269,779.053239 C993.469151,798.667664 977.439027,804.065016 959.929864,805.381671 C950.094895,806.120538 950.18945,811.571584 950.913211,817.88289 C952.258004,829.605556 946.43757,842.84681 957.263624,852.511618 C958.893252,853.967176 963.329202,852.128761 966.47289,852.069232 C975.15568,851.90465 981.60882,845.393744 989.837508,843.990713 L989.480298,843.593848 C986.91445,856.891131 975.833913,855.583814 966.346816,857.305503 C963.138924,857.886793 957.950029,857.473587 958.773014,862.924632 C959.424399,867.230608 963.73661,865.389859 966.524254,865.736531 C973.612436,866.61897 979.800587,863.89228 985.977064,860.808413 C990.477219,858.560294 993.177312,852.393726 1001.37915,853.41857 C990.942994,868.003326 977.907136,872.444702 962.459523,872.169232 C958.435649,872.096862 953.458045,869.049179 951.862271,877.021479 C945.692798,907.846148 955.723882,917.816775 985.866165,910.025399 C986.67631,909.815294 987.735101,910.572838 989.350721,911.099267 C983.397209,923.004023 969.672612,916.423082 959.461754,923.07289 C976.577519,932.017507 988.219554,920.49911 1003.41969,914.994371 C993.979285,929.563953 982.264874,933.325991 969.457818,932.021009 C954.965101,930.544441 955.342157,936.82073 960.050101,948.082333 C962.612446,944.516392 959.855153,937.769702 967.525845,938.971967 C979.481899,940.848901 990.118841,936.865085 998.72225,927.9835 C1000.41958,926.231462 1004.41077,924.028866 1004.50416,927.639162 C1004.80534,939.205416 1018.8638,935.075695 1021.69697,944.602768 C1014.53758,944.435852 1009.56698,951.063483 1002.20564,949.47019 L1002.20564,949.47019 Z M141.110618,906.141967 C150.532343,915.252333 162.753386,916.263169 173.147519,911.699232 C181.477767,908.041078 176.753479,896.652246 178.186992,888.769824 C178.464822,887.247733 178.118118,885.617089 178.334079,884.076322 C179.687043,874.49789 177.474905,870.559598 166.057002,871.65681 C151.402023,873.066845 138.817932,867.179249 131.549977,853.462925 C142.549967,858.777402 151.80943,867.909946 165.501341,865.755207 C167.862901,865.382855 171.251733,866.595625 171.940473,863.134737 C172.797312,858.827594 169.071114,857.927646 166.124709,857.523779 C155.760928,856.104406 145.08663,855.588483 139.412116,844.58134 L138.991868,844.972368 C144.500618,840.995556 147.499554,846.487455 151.405525,848.335207 C172.883696,858.49843 178.220845,854.506444 179.755917,831.42296 C180.934946,813.708814 177.98037,803.616793 157.327519,802.376009 C144.608014,801.610294 133.631372,793.640329 131.776444,778.6412 C140.112529,788.512611 149.913645,796.00634 162.706692,798.59296 C166.745742,799.408866 172.558004,802.393517 174.125762,794.990834 C175.463552,788.669023 171.185194,787.103744 166.027818,786.042716 C154.155814,783.599667 144.731754,777.550991 139.116775,766.410782 L139.03039,766.42012 C144.361702,762.507507 146.187446,767.313064 148.817498,770.298883 C155.065184,777.387577 163.405938,779.487455 172.354884,781.213814 C179.195587,782.53397 180.754006,780.21465 180.724087,774.304876 C180.631434,756.024615 180.61976,737.742019 180.661785,719.460591 C180.671124,714.600172 179.158231,711.398413 173.656486,711.254841 C163.224998,710.981706 152.790008,710.185643 142.370194,710.379406 C136.1085,710.496131 140.04132,714.063239 141.156145,716.42458 L141.461992,715.98803 C131.395886,718.720556 115.599233,716.172455 125.643159,736.81289 C107.81414,725.595643 107.81414,725.595643 126.950597,710.25451 C112.188221,704.124127 101.682023,710.387577 92.8836653,720.917315 C83.652219,731.964145 96.7114236,737.318308 99.7628905,745.205399 C101.714709,750.247908 110.669492,754.511862 101.433376,760.553535 C84.9223017,771.356409 89.7539855,782.442925 100.828686,793.593639 C105.711733,798.510085 107.782622,803.314476 100.143448,807.118535 C88.2901219,813.023639 89.798345,819.513535 98.5663512,826.890538 C105.89851,833.055939 108.176021,839.035747 97.7316921,844.477455 C89.0664132,848.992368 90.2139236,854.040713 96.663562,859.939981 C99.9835207,862.979493 104.112457,865.698012 105.332343,871.369667 C90.4275496,877.193064 89.6068988,885.422159 101.703035,895.620399 C108.90912,901.694754 101.614316,904.110956 98.3795744,907.459789 C94.6965682,911.273186 86.6896777,915.330538 94.7876219,920.635678 C109.219636,930.091549 101.973862,936.323483 92.0513409,942.75735 C97.1456798,947.195225 101.434543,950.935085 106.375959,955.241061 C102.105773,958.32026 98.4787996,960.936061 94.6650496,963.686096 C103.815948,970.959214 103.815948,970.959214 115.187157,968.258204 C111.33255,967.218186 108.512219,966.454807 105.701227,965.694929 C109.43443,956.256566 124.161785,960.542699 125.745886,948.852716 C128.915256,943.095852 132.228211,941.011148 138.953345,945.301949 C145.447343,949.445678 153.224264,952.697629 164.909492,945.596096 C153.008304,944.989127 145.644626,943.03749 138.254099,939.353657 C133.299843,936.883761 120.851165,934.549267 126.121775,949.219232 C120.362043,947.543064 114.602312,945.868064 106.492694,943.509057 C120.167095,936.391183 129.263128,920.245817 145.177684,936.293134 C149.054471,940.202246 155.204099,940.49289 160.128004,939.103866 C169.463345,936.467054 168.27381,944.510556 170.317849,949.740991 C177.293965,935.104876 173.298107,930.505922 158.450514,931.953308 C146.72443,933.096044 136.484388,928.642995 131.011826,916.880643 C143.194347,923.780242 154.85506,930.323831 170.781289,923.654179 C164.176393,917.395399 157.933376,920.723221 152.732808,918.877803 C146.439595,916.644859 138.580959,915.757751 141.518025,905.685573 L141.110618,906.141967 Z M90.7637479,839.061427 C92.2778079,837.776287 93.9517955,836.565852 93.0295847,834.155486 C85.2351529,822.446828 79.9808864,811.17472 95.8744298,801.193587 C97.8869504,799.929458 93.5957521,797.457228 92.3852045,795.447228 L92.8101219,795.9258 C83.6113616,782.341375 78.3851116,769.13397 95.6853182,757.412472 C97.9359793,755.88688 98.4752975,752.913901 95.9526426,750.729981 C94.9277045,749.842873 92.3606901,748.89857 92.1027045,749.230068 C85.9379008,757.16735 78.1901632,763.074789 70.0887169,768.977559 C64.320814,773.178483 76.6235723,777.817124 71.7358554,784.48911 C64.8449566,780.018552 61.4140992,773.497141 58.2377252,765.593709 C73.0573017,763.447141 80.5038616,756.594232 74.0390475,739.725172 C79.7941095,745.594092 84.6444711,750.809354 92.2999876,743.533901 C76.1181074,730.865765 83.7000806,719.628674 96.9892541,708.053082 C79.6190062,712.65904 70.1330764,722.007524 69.0322603,733.89127 C45.5707521,718.299179 74.8118368,717.08174 77.8142748,706.276531 C57.8221467,712.496793 46.2268058,689.647925 27.7744194,694.731287 C35.7030971,701.717263 48.2720124,699.456305 54.8243781,710.170469 C48.9759277,712.708064 46.3470434,709.118779 43.1146364,707.868657 C24.9260723,700.825486 21.2804215,702.904354 20.3663822,721.655016 C19.9076116,731.100382 20.5730041,740.641462 19.5282211,750.007455 C18.1577459,762.312577 21.3831488,769.021915 35.0026839,771.21634 C48.747126,773.430608 60.096155,780.980364 65.1239545,795.085382 C56.7400083,788.933988 49.23975,781.289685 39.1199463,778.588674 C34.9968471,777.489127 28.1222913,769.709423 25.1315269,779.788605 C22.9544091,787.129423 28.1339649,789.142925 34.6839959,790.80742 C42.5332934,792.802246 51.624657,794.414214 55.3041612,803.730016 C51.9842025,806.135713 50.3300599,804.579772 48.6934277,803.459214 C40.2429421,797.675503 28.9627872,791.653674 21.255907,796.3285 C13.733469,800.892437 19.3928079,813.729824 18.5628182,822.878709 C18.516124,823.386462 18.818469,823.924563 18.7811136,824.433483 C17.7701839,837.758779 22.6730764,844.926845 37.0770744,847.285852 C48.7856488,849.202472 60.6903388,853.923988 69.458345,868.898605 C55.7454215,863.330834 47.1338409,855.196287 35.9914339,852.897977 C33.2574876,852.334197 29.444905,848.747246 27.8934897,852.879301 C26.1739752,857.460747 30.5153698,858.373535 34.2929318,859.613152 C41.6507727,862.028186 50.4514649,862.400538 56.3524463,873.266444 C43.0469298,869.351497 32.9387996,863.473239 21.1391715,863.334336 L21.1391715,910.265852 C34.4621983,902.535172 61.5331694,914.069911 68.8139649,930.573622 C55.8469814,924.533117 46.1614339,912.878152 28.7631694,914.634859 C38.6063099,923.397385 53.8508037,920.546967 59.8871983,936.538256 C46.5163099,929.214946 35.8770331,924.555294 24.0622293,922.827768 C24.1065888,952.521375 25.1607107,953.624423 56.4061446,958.476671 C50.9942851,948.035643 28.584564,953.849702 31.3967231,930.593465 C52.2165062,946.825207 70.2568161,936.182246 88.1045124,924.694197 C81.7914545,917.728064 84.3211136,910.653378 92.7482521,904.54634 C95.3117645,902.688082 97.9056281,900.232193 93.1112996,897.702768 C90.0901839,890.60357 83.0206798,885.077821 86.0756488,876.09235 C75.2717748,876.475207 72.0872293,881.66012 73.643314,890.504354 C67.0909483,887.854702 63.3308967,882.881061 60.8841198,876.523064 C65.6702769,875.198239 72.9043781,874.401009 73.0304525,872.971131 C74.2538409,859.205782 85.2281488,867.401026 92.974719,863.584127 C78.5812273,856.036706 85.0857314,847.544981 90.7637479,839.061427 L90.7637479,839.061427 Z M409.248645,616.338953 C392.955866,625.831009 388.187219,644.195312 397.939306,659.899458 C409.145917,677.948605 434.276744,682.617594 451.349316,669.823395 C468.133552,657.245138 469.981475,638.035747 456.051424,620.974092 C441.51318,608.696984 426.029378,605.977298 409.248645,616.338953 L409.248645,616.338953 Z M725.123335,667.684998 C745.085112,649.570486 741.949595,624.667263 718.260452,613.192054 C702.03538,603.989476 683.96005,607.544911 673.024264,622.088814 C662.384988,636.239354 664.164037,655.40789 677.23725,667.474894 C691.086754,680.256253 709.82631,680.33796 725.123335,667.684998 L725.123335,667.684998 Z M129.112539,558.380451 C139.05257,559.498674 145.986661,570.273535 159.212798,567.468639 C150.316382,555.694615 140.581806,553.740643 128.793851,558.73296 C118.158076,545.594423 110.479213,560.189685 101.296795,560.622733 C102.071919,567.498988 111.500649,564.445469 111.40726,571.283204 C106.275566,574.543326 99.7418781,575.260016 94.9743988,581.789598 C106.607095,580.512629 116.459574,577.203483 121.972994,568.80397 C125.144698,563.973901 126.606227,564.93688 130.042921,566.485817 C142.659698,578.061409 122.075721,574.007559 123.829089,581.619179 C137.43695,583.290678 151.343655,583.384057 170.155587,580.963186 C155.682715,575.381409 145.706496,571.458291 135.659068,567.73127 C133.766785,567.028587 131.584998,567.104458 129.536289,566.823152 C129.343676,564.054441 129.149895,561.286897 129.112539,558.380451 L129.112539,558.380451 Z M1043.08876,873.569929 C1048.69673,883.272089 1041.87821,889.82735 1037.1761,896.918378 C1037.63954,898.941218 1038.10182,900.96289 1038.56642,902.983395 C1044.36818,910.2962 1050.33337,917.583326 1038.37264,928.44573 C1053.73621,923.677524 1058.78502,935.100207 1067.29854,938.730347 C1080.23751,944.249092 1087.7366,929.841758 1099.25956,933.531427 C1103.45737,950.644441 1085.5373,948.319284 1078.54017,956.128169 C1104.32472,954.846531 1108.78518,949.229737 1105.00762,923.650678 C1093.30488,923.787246 1083.62401,931.186427 1070.18424,935.054685 C1077.76038,921.341862 1091.84102,923.348361 1101.98651,914.185469 C1087.29534,913.596009 1078.31487,920.377716 1069.07876,926.455573 C1066.87362,927.906462 1064.7362,932.221775 1062.30343,927.146584 C1061.78395,926.063378 1063.96924,923.684528 1064.90896,921.902141 L1064.36614,922.433239 C1092.17255,904.687577 1102.7733,902.423117 1109.63852,915.016549 C1109.63852,898.889859 1109.36419,884.773169 1109.76343,870.676322 C1109.9432,864.279807 1108.44198,861.968657 1101.8546,864.201601 C1093.3796,867.074197 1084.7365,869.453047 1073.58125,872.826392 C1081.40019,862.546444 1090.37832,861.276479 1098.90352,859.197611 C1102.0402,858.431897 1103.45504,856.654179 1102.8165,853.643848 C1101.87561,849.208308 1099.12182,851.82411 1096.82446,852.255991 C1085.20927,854.438744 1075.72101,861.727037 1064.65098,865.507751 C1072.91819,852.812768 1086.38714,849.290016 1099.56074,845.233831 C1104.82085,843.613692 1110.97981,843.660382 1110.75568,835.088117 C1110.48018,824.624911 1111.33002,814.115016 1112.0351,803.648308 C1112.58259,795.509092 1109.36419,794.397873 1101.74136,795.502089 C1092.41769,796.853761 1084.94312,802.477559 1073.6653,806.899092 C1080.29588,793.734876 1090.37716,792.253639 1099.5981,790.125747 C1106.42246,788.549963 1106.0991,783.821444 1105.51309,779.308866 C1104.51967,771.663395 1099.7697,776.187646 1096.14739,776.942855 C1083.98589,779.475782 1075.47353,787.948831 1063.69725,798.748204 C1069.05191,780.209981 1081.57063,774.002559 1093.37843,771.997228 C1110.65295,769.060434 1114.35347,760.268726 1111.99191,745.386322 C1111.74676,743.844389 1111.89735,742.238256 1111.88685,740.662472 C1111.65104,703.75411 1111.65221,703.75411 1076.93273,710.031566 C1082.04574,698.263378 1096.7194,703.330399 1105.86446,692.852019 C1083.91234,691.28674 1072.72441,712.063744 1053.65916,708.612193 C1074.42758,723.696531 1074.42758,723.696531 1060.11814,733.635643 C1061.85283,721.965503 1052.80466,712.610016 1036.07062,708.770939 C1046.64686,722.452246 1046.95737,722.552629 1040.98635,741.068674 C1038.79523,747.860887 1043.62341,746.592089 1046.61534,747.256253 C1051.58711,748.361636 1051.18904,740.61228 1057.53128,741.000974 C1048.0185,757.708953 1059.34068,762.689598 1073.13532,766.449301 C1067.92541,773.104946 1066.77557,781.451932 1054.66309,784.712054 C1063.32837,773.878831 1063.65873,767.135643 1052.0272,762.689598 C1048.04418,761.16634 1045.28455,756.331601 1042.09067,752.891723 C1040.0548,750.699632 1038.43918,746.97728 1034.88458,750.518709 C1032.09577,753.299092 1032.98296,756.568552 1035.89902,758.589057 C1053.08482,770.498483 1046.62585,783.072071 1037.18077,795.810242 C1038.62129,798.919789 1040.05947,802.030503 1041.49765,805.141218 C1052.25016,817.135852 1039.90538,825.458326 1036.715,835.236357 L1036.69749,835.989232 C1043.68411,845.363395 1052.95174,854.682699 1037.4049,864.612472 C1037.72826,868.59512 1039.79448,871.472385 1043.08876,873.569929 L1043.08876,873.569929 Z M158.97349,212.222733 C163.805174,180.640521 167.834884,153.799667 172.036196,126.987995 C176.258521,100.035085 180.295236,73.044824 185.076723,46.1887962 C189.444967,21.6579251 202.260194,12.6852944 232.92195,10.3893188 C329.403872,3.16755923 426.042219,1.04433624 522.756444,0.67665331 C636.307436,0.244771777 749.830411,0.767698606 863.229647,7.40116551 C878.937581,8.3197892 894.6782,9.85705401 910.205194,12.3467927 C933.886165,16.1438484 941.71445,23.931723 945.655442,47.6606951 C953.730039,96.2893885 963.301186,144.690469 968.451558,193.780225 C968.931341,198.3535 970.137219,202.853239 971.637271,210.677298 C978.859698,190.408047 992.336816,187.754894 1009.04868,189.264145 C1025.75703,190.774563 1042.67902,189.764894 1059.4901,190.363692 C1076.95374,190.985834 1086.76769,200.430033 1087.32452,217.967925 C1087.94322,237.406096 1087.89302,256.892124 1087.3502,276.334963 C1086.80738,295.783639 1078.53784,303.412768 1058.83521,304.191322 C1055.68336,304.316218 1052.4883,304.69674 1049.3808,304.351235 C1035.24413,302.777786 1028.94975,306.5585 1031.10469,322.972333 C1033.76392,343.242751 1027.1135,350.066479 1007.00697,354.399301 C1002.46479,355.378622 992.987033,355.059963 995.388283,359.863186 C1000.14993,369.384423 991.171795,385.220469 1007.59765,388.925312 C1029.06298,393.765887 1050.63688,398.172246 1072.26914,402.209754 C1090.43786,405.600608 1100.5705,416.757159 1105.46056,433.832821 C1113.98108,463.581287 1112.86743,494.079127 1112.86276,524.525608 C1112.86159,534.430869 1104.85703,532.710347 1099.53506,534.052681 C1093.79517,535.502402 1091.39276,537.792542 1096.18825,542.078674 C1127.15702,569.756444 1127.32279,607.764354 1128.0232,644.055242 C1129.60497,726.053204 1129.24309,808.11303 1128.1271,890.127333 C1127.73136,919.23965 1126.76246,948.91458 1112.33978,975.952699 C1102.51532,994.370695 1090.78223,1006.50306 1067.0674,1004.85024 C1038.27925,1002.84258 1009.24246,1004.14756 980.318893,1004.50007 C970.934523,1004.61446 966.269771,1000.79522 960.555566,992.975834 C934.542219,957.379458 935.374543,916.034389 932.963955,875.34181 C931.844461,856.463918 931.984543,837.492646 932.144471,818.568064 C932.218014,809.88958 929.258769,806.29796 920.259626,806.504563 C899.758531,806.973796 879.231754,807.080016 858.735329,806.583936 C850.145928,806.377333 845.536041,808.532071 846.655535,817.846706 C847.62444,825.898378 844.263624,829.012594 835.970731,828.951897 C820.220773,828.83634 804.439295,829.275225 788.717353,830.237037 C778.446961,830.866183 772.946382,828.484998 773.873262,816.667786 C774.969409,802.684162 768.061,804.554092 759.765773,810.599267 C744.881992,821.445329 729.312973,831.208186 712.672322,839.136131 C671.68881,858.663012 642.120866,854.452751 608.965638,823.573221 C602.367746,817.427664 596.248469,814.851549 587.019357,814.989284 C539.168293,815.700138 491.302054,815.625434 443.441651,815.449179 C423.554585,815.37681 405.002973,806.670312 384.610442,806.87458 C371.697157,807.002977 366.586475,809.781026 368.214936,821.90289 C370.061692,835.648395 364.181723,838.879336 351.512415,837.839319 C337.401424,836.680242 323.107157,836.911357 308.942467,837.579023 C300.019202,838.000399 296.557994,835.096287 297.428841,826.227542 C299.064306,809.589598 290.840287,805.392176 275.153366,806.330643 C253.681031,807.613448 232.031258,806.964458 210.513397,805.959458 C200.343397,805.485556 197.79039,809.443692 197.73319,818.487524 C197.523066,850.53897 196.137415,882.564737 195.090298,914.591671 C194.049017,946.428343 180.786692,973.042751 167.10412,1000.10888 C164.632829,1005.00053 160.298438,1004.32965 156.20569,1004.33432 C119.919616,1004.38218 83.632374,1004.23977 47.3474669,1004.45688 C40.817281,1004.4954 36.9043058,1001.46639 32.7391818,996.960817 C7.73793182,969.922699 2.95644421,936.095869 1.87547314,901.741444 C-1.19817355,804.037002 -0.697378099,706.31972 4.90242562,608.693483 C6.31842769,584.01904 13.2174979,561.069789 32.2932521,543.655625 C38.0739959,538.377333 38.5596157,534.902437 29.872157,534.144894 C19.1721777,533.212263 18.1168884,526.738709 18.2091095,517.813936 C18.463593,492.600225 17.9266095,467.505573 23.3116198,442.50897 C28.2530351,419.569057 38.9296674,404.65397 63.821186,401.235103 C82.965814,398.605294 101.649337,392.732873 120.757777,389.668848 C140.043655,386.575643 130.697808,370.667228 134.731021,360.877524 C136.169202,357.383953 134.88161,356.852855 122.676909,353.788831 C102.558707,348.739319 97.0814752,342.22958 99.4103492,321.742054 C100.829853,309.260678 98.430938,302.85249 84.6129525,304.555503 C81.0081591,305.000225 77.2714545,304.32789 73.5942851,304.214667 C51.5978079,303.537664 44.2247913,296.646235 43.678469,274.803535 C43.2173636,256.408883 43.2290372,237.981549 43.7683554,219.590399 C44.348531,199.809057 53.4200496,190.963657 72.9907624,190.260974 C92.4178905,189.561793 111.855525,189.122908 131.290824,188.707368 C144.807632,188.41789 153.959698,194.828413 158.97349,212.222733 L158.97349,212.222733 Z" mask="url(#campero-front-b)"/>
      <path id="esqueleto" fill="#000" d="M455.817349 642.957415C456.412245 630.700241 444.496863 618.02599 431.381211 616.962327 418.042037 615.880023 404.42928 627.856428 403.799459 641.230856 403.196414 654.04258 414.671736 666.176262 428.048164 666.868284 442.198772 667.602246 455.16308 656.439026 455.817349 642.957415M409.565642 616.380982C426.30073 606.040265 441.741249 608.754762 456.239946 621.008441 457.366873 624.955528 458.56947 628.881645 459.607919 632.852033 462.921175 645.518129 460.525293 656.920179 450.203673 665.261721 440.240621 673.312009 428.94109 675.44749 416.598454 669.928791 396.075125 660.755424 393.200764 639.668564 409.565642 616.380982M1037 795.318656C1043.83591 796.14329 1050.5459 796.527883 1056.0191 789 1055.07767 798.321079 1052.74647 806.857635 1065.46863 809.146319 1071.09951 810.158531 1070.64645 812.515639 1059.33761 826 1061.20987 810.697669 1051.56146 807.435704 1041.35173 804.74945 1039.90194 801.605459 1038.45097 798.461467 1037 795.318656M1065.213 921.47851C1062.52458 920.947818 1057.18782 923.07519 1057.50855 919.907156 1058.97018 905.493294 1046.51316 907.218905 1039.36426 902.820265 1038.90836 900.827581 1038.45475 898.832595 1038 896.83876 1045.49941 899.378252 1050.12827 892.246723 1056.58301 891.269375L1056.03089 891C1055.02058 898.003749 1051.14201 905.015556 1063.48792 907.413454 1074.37679 909.528162 1061.75368 917.176569 1064.67921 922 1064.68036 922.002295 1065.213 921.47851 1065.213 921.47851M1038 864.344521C1052.17262 858.105185 1057.68614 875.549883 1070 876.55009 1067.68323 883.325127 1063.24615 888.271312 1056.07265 890.725731 1056.07149 890.726898 1056.63063 891 1056.63063 891 1062.65214 877.458097 1050.69863 877.195499 1043.65998 873.300874 1040.3807 871.203589 1038.322 868.326678 1038 864.344521"/>
      <path id="esqueleto" fill="#000" d="M1037.01728 834.147747C1042.96645 831.772975 1049.99948 832.663953 1057.27786 823 1055.01222 834.565173 1054.14605 841.504745 1063.5553 842.676346 1066.41527 843.032971 1070.601 843.518215 1068.36877 848.155509 1067.09715 850.798042 1064.65644 853.887233 1062.11321 854.6683 1056.18247 856.490011 1060.07909 850.264858 1058.57366 849.164582 1051.61664 844.08063 1044.2323 839.598847 1037 834.901921L1037.01728 834.147747zM90.510063 839.270579C84.5018656 844.163382 73.2645027 842.754723 73.0209116 854.687304 72.9577158 857.80815 69.9289133 857.211639 68.570778 856.124089 66.2072549 854.232595 63.8632651 851.901629 62.4970867 849.230803 60.8068862 845.925963 63.7690459 844.598168 66.2578116 844.155178 74.9466601 842.608232 78.2811005 838.076383 71.404248 825 80.5756827 831.749139 86.3816535 834.078933 92.7403004 834.344961 93.648022 836.764995 92.000335 837.980285 90.510063 839.270579M787.596071 425.16688C787.444499 454.589436 812.133514 479.508969 841.245395 479.315215 869.608702 479.124963 893.635159 454.853221 894.132659 425.884703 894.637133 396.653566 870.052733 371.016211 841.263993 370.751259 812.54151 370.486306 787.750206 395.624103 787.596071 425.16688M775.000013 425.065335C774.976779 387.961493 804.961611 357.798938 841.670828 358.001009 876.837562 358.194616 906.861915 389.069158 906.999539 425.180886 907.137399 461.800344 876.30984 492.523151 839.960962 491.993246 803.70275 491.465675 775.024437 461.915896 775.000013 425.065335M343.493999 425.121109C343.577709 395.223763 319.234631 370.379211 290.092643 370.621044 261.359792 370.859372 236.530645 396.617516 236.95377 425.747305 237.371066 454.468197 261.497336 478.801045 290.030864 479.275365 319.079602 479.7602 343.408692 455.115422 343.493999 425.121109M225.00137 425.018301C224.769409 388.162705 254.022132 358.055069 290.117121 358.00008 326.740141 357.944083 355.948571 387.284161 355.999929 424.181815 356.051146 461.898431 328.257795 491.1836 291.648763 491.983869 254.776297 492.792316 225.240325 463.114606 225.00137 425.018301M461.842735 464.301829L462.025448 464.301829C462.025448 444.920006 462.13154 425.539349 461.975939 406.159855 461.909926 397.922901 460.55667 389.257387 450.037101 389.044272 439.426765 388.829993 437.64207 397.752875 437.540693 405.746435 437.056208 443.977875 436.873495 482.215138 436.954832 520.448906 436.973693 529.431181 439.806338 537.742667 451.281909 537.142917 461.637625 536.600231 461.665916 528.182769 461.761398 520.873972 462.005409 502.019696 461.842735 483.159598 461.842735 464.301829M474.834237 464.152765C474.842489 482.986078 475.077069 501.82405 474.778834 520.652705 474.475883 539.728247 466.336303 549.581615 451.306664 549.985718 435.07819 550.423594 424.408915 540.785671 424.18848 522.001269 423.716962 481.750477 424.153116 441.471735 425.239965 401.23026 425.674941 385.108049 435.923386 376.003495 449.906255 376.000001 464.118989 375.996508 474.151715 386.194587 474.672742 402.950319 475.305755 423.333666 474.823628 443.750785 474.834237 464.152765M555.465746 462.748743L554.938819 462.748743C554.938819 481.661916 554.742099 500.578595 555.027811 519.488263 555.157786 528.079106 555.934125 537.034472 567.964455 537.041486 579.661064 537.048492 579.580269 527.749632 579.65521 520.233667 580.042794 481.88507 579.973708 443.530632 579.787527 405.179699 579.747715 396.969736 578.257096 388.901144 567.154158 388.997251 556.709294 389.090416 555.750286 397.078392 555.600405 404.451819 555.203453 423.876728 555.465746 443.314488 555.465746 462.748743M543.134482 462.301267C543.134482 442.842477 542.77383 423.375508 543.239868 403.928401 543.675461 385.692868 551.773744 376.472287 566.462128 376.016632 581.713738 375.542284 592.102397 385.227866 592.430263 403.312683 593.145713 442.786396 593.238218 482.293991 592.41504 521.764199 591.987644 542.203231 583.02403 550.566247 566.304049 549.970391 551.036046 549.42711 542.401468 538.704037 542.13215 519.161126 541.872199 500.210566 542.075944 481.254164 542.075944 462.300099 542.4284 462.300099 542.782027 462.300099 543.134482 462.301267M610.926705 462.645449L611.155353 462.645449C611.155353 480.92697 611.02335 499.210819 611.215461 517.490012 611.301499 525.676827 609.920184 535.741267 622.234156 536.317475 635.012494 536.915801 636.055552 526.885119 636.070873 517.840393 636.134517 480.76051 635.91412 443.678298 635.432074 406.601907 635.323643 398.266092 634.934707 388.350651 622.644307 389.085172 610.977385 389.781278 611.025707 399.316072 610.965599 407.804378 610.837132 426.083571 610.926705 444.365092 610.926705 462.645449M598.189618 462.448723C598.181368 443.565384 597.92797 424.679718 598.252083 405.802199 598.57384 387.093469 607.109233 376.592508 621.649572 376.031432 638.175846 375.393529 647.393645 384.452223 647.879227 404.384378 648.810318 442.638795 649.187469 480.915329 648.911677 519.176731 648.817389 532.024432 645.386496 544.809274 630.283967 548.826436 611.970941 553.698016 599.059422 543.127211 598.346371 522.238202 597.666321 502.329328 598.199047 482.380877 598.189618 462.448723M497.155725 460.261797C496.846153 460.260628 496.537729 460.25946 496.229304 460.25946 496.229304 480.694182 496.016044 501.132409 496.34052 521.563626 496.460909 529.084398 497.81041 536.510532 507.757966 537.093547 518.324664 537.711613 519.491862 529.930295 519.542311 522.513507 519.808312 482.696761 519.786528 442.87651 519.518233 403.059764 519.471224 396.138364 517.953178 388.982122 508.648843 388.950446 498.788426 388.916693 497.070879 395.508614 497.120181 403.747932 497.232544 422.584329 497.155725 441.423063 497.155725 460.261797M484.569934 461.800535C484.569934 441.815634 484.329157 421.827228 484.645607 401.847 484.902437 385.512075 493.429404 376.250437 507.528654 376.00508 521.697844 375.757387 531.412647 384.575045 531.621321 400.71018 532.161351 442.780704 532.144153 484.87109 531.437872 526.938109 531.174163 542.751944 522.372021 550.202614 508.030847 549.995813 494.23085 549.796022 484.996455 541.573062 484.424321 526.491794 483.610264 504.957639 484.21794 483.367403 484.21794 461.802871 484.33489 461.801703 484.452985 461.800535 484.569934 461.800535M693.130753 461.485432C692.795575 461.485432 692.460397 461.484267 692.12522 461.483103 692.12522 441.586371 692.237711 421.68731 692.063235 401.792905 692.002398 394.716364 688.722938 389.638576 681.21588 388.987847 675.121847 388.459347 670.763391 391.935338 670.30654 397.76746 666.883597 441.54912 666.802098 485.363373 670.42477 529.143868 670.87703 534.620941 674.71665 537.176132 680.099004 537.284393 686.035779 537.405459 690.179583 534.645387 691.519145 528.842368 692.568297 524.301228 693.017114 519.528434 693.06188 514.851095 693.232913 497.063705 693.130753 479.273986 693.130753 461.485432M704.891811 463.62504C704.914768 483.031689 705.148933 502.440665 704.847044 521.842657 704.562373 540.151562 695.859235 549.96955 680.674086 549.999908 664.553424 550.031247 657.70065 542.01528 657.358586 521.881072 656.743328 485.726571 656.126923 449.569743 656.000657 413.41175 655.912272 387.865658 664.738231 375.468033 681.452341 376.017487 697.727965 376.552971 704.816052 387.802797 704.864262 413.273222 704.895255 430.057162 704.870001 446.841101 704.891811 463.62504M380.679064 461.81186L380.416313 461.81186C380.416313 481.721805 380.322227 501.634086 380.464503 521.541695 380.517283 529.176371 383.912399 535.125999 391.784618 535.949255 400.760623 536.890453 403.14145 529.696014 403.731207 522.69075 404.606663 512.271017 404.642232 501.761369 404.667474 491.287921 404.737465 462.95858 404.970384 434.621065 404.327848 406.305737 404.156887 398.722442 402.612505 389.632764 391.381886 390.648696 381.707122 391.525668 380.669885 398.876583 380.675622 406.723787 380.687096 425.086478 380.679064 443.449169 380.679064 461.81186M415.534372 451.585973C415.534372 475.735977 415.802861 499.889484 415.436844 524.033649 415.203925 539.377736 406.510177 548.620388 393.221146 548.990561 380.537936 549.344386 368.680843 539.71638 368.463987 525.903199 367.805387 483.863438 367.809977 441.792148 368.723296 399.759394 368.975721 388.160245 375.38158 379.079909 388.98729 378.115357 403.748418 377.069063 412.740486 383.093427 415.471266 398.102372 418.701159 415.853168 415.86023 433.777957 415.534372 451.585973M727.69503 461.969957C727.69503 480.371214 727.697323 498.77013 727.693884 517.171387 727.691591 525.774556 727.38208 535.681485 738.843174 535.813764 749.725368 535.936619 751.482705 526.431117 751.434559 517.650056 751.223633 479.831687 750.733 442.014489 750.216001 404.198462 750.117416 396.911924 748.614566 390.102886 739.371636 390.232794 729.773342 390.367383 727.643445 396.882666 727.680128 405.19208 727.76381 424.117649 727.706494 443.044389 727.69503 461.969957L727.69503 461.969957zM715.06467 462.680354C715.06467 443.712653 714.890426 424.74144 715.113963 405.77608 715.337499 386.966375 723.213992 378.046043 739.035759 378.000199 755.165892 377.953586 762.179192 386.096812 762.509338 405.723415 763.096263 440.470811 763.575433 475.219377 763.982383 509.970284 764.044285 515.215748 763.984675 520.560691 763.107726 525.703166 760.456245 541.233578 750.099074 550.11997 736.732765 548.886432 723.611772 547.672789 715.658473 538.582758 715.289352 522.742205 714.822792 502.731731 715.175865 482.702531 715.175865 462.680354L715.06467 462.680354zM885.170531 527.636981C884.704525 516.326005 874.761883 507.60227 862.746926 507.963171 851.047346 508.314699 841.252979 518.258234 841.763703 529.265724 842.275604 540.2697 852.776041 549.479715 864.375594 549.09655 875.922191 548.715729 885.625946 538.701888 885.170531 527.636981M863.63069 495.000009C883.022902 494.987128 897.956282 509.520437 897.999912 528.450181 898.042187 547.239314 882.919345 561.977681 863.573028 561.999972 844.327914 562.02338 829.05562 547.193616 829.000155 528.430261 828.943826 509.771193 844.230241 495.01525 863.63069 495.000009M289.106396 528.032819C288.855148 516.442657 279.413405 507.773183 267.206763 507.924375 255.650548 508.067362 245.588903 517.885421 245.750923 528.857925 245.912942 539.789408 256.261056 549.187881 268.018035 549.080055 279.629431 548.973401 289.348251 539.273716 289.106396 528.032819M268.299808 561.998121C249.370532 562.192678 233.32943 547.249351 233.005391 529.12163 232.671959 510.543852 247.847784 495.319239 267.014218 495.005136 286.346195 494.688689 301.640598 509.031939 301.993989 527.812478 302.345031 546.516835 287.27722 561.804737 268.299808 561.998121M540.713103 287.939862C538.632395 281.608006 541.364709 278.018017 545.550604 277.217531 559.976846 274.464045 574.577938 273.916833 588.963382 277.641591 592.6189 278.588465 596.537859 282.044846 594.387211 285.615083 590.569665 291.952749 589.578852 283.674863 587.550599 283.487812 572.061272 282.064596 556.126662 277.476614 540.713103 287.939862M1006.27145 828.77563C1003.68102 825.435473 1004.31498 821.830076 1005.56434 818.264581 1007.76928 811.968045 1002.50597 811.177017 999.016841 809.738144 995.434819 808.261715 991.373259 805.960223 988.538991 811.833078 984.794414 819.589612 977.696553 822.9462 969.610588 824.056456 965.622178 824.604542 961.589646 825.660811 962.344367 830.225066 963.407943 836.655396 968.893023 833.841026 972.530778 833.361011 982.731123 832.014855 989.315774 823.984864 997.793032 817.522846 994.114638 831.73553 973.886954 843.672542 961.529268 840.477916 957.326053 839.392306 956.854642 836.792711 957.140275 833.600432 957.579174 828.673524 955.148973 820.094274 960.985869 819.898277 981.228648 819.215223 988.718963 801.679986 1002.68479 790 992.507663 811.390618 1021.23467 806.689048 1019.95861 822.509609 1014.80909 821.580092 1009.11501 822.386377 1006.06129 828.537383 1006.02646 828.508042 1006.27145 828.77563 1006.27145 828.77563M988.369148 715C990.789616 727.65461 981.075709 731.814275 972.344227 734.927293 964.832471 737.607134 960.399693 741.629822 963.733768 748.436548 967.780933 756.699684 973.864138 749.806323 978.389464 747.653318 987.240783 743.438627 991.880013 734.752852 998 725.719364 997.921691 743.248966 975.863397 761.83107 961.741629 758.639613 956.098616 757.364669 956.803399 753.488324 957.467842 750.232475 958.755198 743.917463 952.699283 735.10993 964.203624 731.985205 974.093134 729.29951 982.205261 723.400113 988.461695 715.217759 988.436779 715.173271 988.369148 715 988.369148 715M989.958595 874.891728C988.305102 886.205823 978.549611 885.028787 970.885747 886.887325 967.856091 887.621961 964.239149 887.251178 965.002389 891.952389 965.689888 896.180014 969.199627 896.476872 972.176846 895.73415 977.154804 894.493584 982.024393 892.673164 986.757647 890.671396 990.790585 888.96533 992.383484 883.224539 998 883.595322 993.259754 896.055264 976.533724 904.65952 964.888194 901.248543 957.626342 899.12318 959.378882 893.53255 959.044454 888.636129 958.718184 883.871388 960.109495 880.000686 965.835544 880.857762 974.820804 882.20344 981.827465 877.742487 989.159232 874L989.958595 874.891728zM990.318265 764.755517C991.283363 755.504094 996.914817 749.081955 1003.81475 742 996.740802 755.888792 1006.13877 760.739495 1014.12058 767.440248 1023.18883 775.053787 1022.58665 775.79987 1006.51886 785 1009.21724 765.606517 1008.38609 764.572494 990 764.429106 990 764.431437 990.318265 764.755517 990.318265 764.755517"/>
      <path id="esqueleto" fill="#000" d="M989.369065 843.672673C993.108848 836.512644 996.15843 828.578838 1006.87091 829.221154 1006.88769 829.236145 1006.63485 828.974375 1006.6708 829.002051 1001.53983 835.232626 1000.06237 840.221237 1010.09784 843.596563 1016.76618 845.839478 1021.82645 850.711619 1026 856.628531 1021.30041 860.706138 1015.80757 853.267042 1011.37878 858.011181 1009.85219 859.647528 1005.80326 859.097467 1006.24662 857.495714 1010.90067 840.720559 995.737839 846.793149 989 843.278289 989.001198 843.280595 989.369065 843.672673 989.369065 843.672673M1004.97056 890C997.674419 907.972835 1019.04143 905.716749 1024 916.652387 1019.30621 920.334761 1012.01124 916.919026 1007.08299 923 1013.25701 905.196113 997.022375 909.75081 991 904.534113 994.593828 898.333612 999.07999 893.455961 1005.53628 890.542472L1004.97056 890z"/>
      <path id="esqueleto" fill="#000" d="M1005.27872 891C1011.22274 874.469551 997.0793 878.271566 989.8 875.126587L989 874.208163C992.08105 870.673477 995.12828 867.109088 998.257143 863.618362 999.741691 861.964486 1003.5656 861.733989 1003.43732 862.234191 998.820408 880.119108 1022.26997 873.225579 1023 886.644316 1017.25889 887.838387 1010.99184 889.142953 1004.72012 890.441579 1004.71312 890.439203 1005.27872 891 1005.27872 891M122.877863 827.768156C120.481264 820.803598 115.038938 820.909751 109.261464 822.633583 105.852367 806.734869 137.104583 811.270601 126.110567 791 134.65389 791.850378 136.21556 798.941857 140.323176 802.825671 147.050822 809.187926 152.216799 817.532472 163.216694 817.509395 175.721814 817.484011 174.189543 827.612388 173.628612 834.266563 172.888936 843.049567 164.289167 839.319214 159.579461 838.598066 147.071989 836.681543 136.229672 831.422356 131.2542 818.567463 140.751224 823.190886 148.056265 831.762738 159.280768 832.695038 162.538168 832.966189 167.174964 834.996942 167.733543 829.256605 168.094561 825.53779 165.463947 823.735497 161.836122 823.465499 154.081865 822.890889 146.966153 820.238218 143.045515 813.644042 139.71991 808.051397 136.49779 806.594101 130.465133 809.018312 124.494803 811.418292 122.355738 814.62365 124.708827 820.93052 125.401465 822.789351 123.48936 825.582789 122.773203 827.943539 122.776731 827.93777 122.877863 827.768156 122.877863 827.768156M140.854184 716.398415C148.502248 722.640904 155.730841 729.683831 165.66333 732.166231 170.544751 733.386001 172.894248 735.768781 172.443405 740.738215 171.935625 746.335488 175.035752 753.53943 170.442498 757.157038 165.170657 761.309817 158.331322 757.513818 152.809657 754.868087 141.4189 749.407502 132.550772 741.688083 132 727.875606 139.359896 734.346295 142.973611 744.406792 152.570292 748.348746 157.258827 750.273967 163.294081 756.529198 167.049556 748.42404 169.818522 742.446819 165.994491 738.475906 159.29343 735.845234 150.49502 732.392114 139.801443 729.288825 141.134218 716.00225 141.159782 715.965182 140.854184 716.398415 140.854184 716.398415M140.769033 874C147.365972 876.748058 152.918883 882.39555 161.016831 880.956313 170.51033 879.266723 172.027743 884.178294 172 892.466717 171.969156 902.125675 165.992071 902.459867 159.588471 901.778674 147.522986 900.495471 136.401929 897.082523 129 881.065769 140.511248 887.059098 146.973436 895.401084 156.978989 896.106729 160.447362 896.35126 164.787515 897.633299 165.189424 891.91827 165.512826 887.29897 161.929622 887.810156 158.894796 887.12547 151.110877 885.368343 141.658389 885.876035 139.919516 874.823253L140.769033 874zM139.612081 766.507727C124.021305 764.673064 122.111146 767.153453 125.180796 785.452951 120.992075 787.643471 120.62367 782.626133 118.255027 781.45487 115.618454 780.149278 111.807375 782.554254 110 778.378245 111.36044 772.583207 115.210784 767.614181 120.028911 765.263408 130.015092 760.391004 133.379235 754.33202 127.877423 743 134.116043 750.105343 142.01768 755.341851 139.530085 766.515975 139.527775 766.517153 139.612081 766.507727 139.612081 766.507727"/>
      <path id="esqueleto" fill="#000" d="M140 844.22365C133.786842 846.443549 122.432275 841.494325 124.834512 855.704922 125.560128 860.003146 122.014845 859.405525 120.092135 857.783248 115.767188 854.133703 111.375544 859.66082 107 857.303991 109.568979 849.599912 115.839635 845.783265 122.286232 843.142132 132.018225 839.154902 129.445796 834.501588 124.199742 829 124.169844 829.022048 124.070948 829.193791 124.068648 829.199594 135.11043 828.281695 139.14444 834.599063 139.613618 844.589185 139.587169 844.612394 140 844.22365 140 844.22365M141 904.683334C135.01652 909.81872 119.357918 903.898728 123.703718 920.841012 117.697366 921.976563 113.141138 916.589489 108.061127 918.547458 106.477197 904.175231 136.314542 911.768418 123.453263 891L123.169642 891.265868C132.519973 891.183153 135.678683 899.334072 140.572282 905.180802 140.599729 905.146535 141 904.683334 141 904.683334"/>
      <path id="esqueleto" fill="#000" d="M124.414838 891.760294C120.304717 885.622385 112.931912 889.08711 108 886.659257 109.091059 874.091819 131.810956 879.572425 128.021393 862 134.864988 863.289146 138.456389 868.792897 142 874.356823 142.001164 874.356823 141.15606 875.17498 141.15606 875.17498 131.870405 877.16656 122.040386 878.615402 124.147901 891.998682 124.125754 892.020669 124.414838 891.760294 124.414838 891.760294M54.0295274 759C46.8497634 753.291602 39.9789694 748.276836 31.1774042 745.546834 21.0268641 742.397373 26.3936153 733.279403 26.6058136 727.054297 26.8634829 719.425524 33.8532012 722.432041 37.5818283 723.409218 50.7824273 726.870344 62.3553954 732.910325 69 750.070669 57.4550141 743.595996 52.3552596 733.404772 42.2501906 730.743899 38.4516081 729.743289 33.6946355 726.693421 31.5388408 732.373699 29.7678013 737.04165 32.6977699 740.034106 37.4384196 741.645158 45.7654535 744.475924 53.4220807 748.289724 54.0295274 759M57.3630985 842C45.8959508 837.794765 38.3953025 834.8504 30.763674 832.294803 21.0688167 829.048062 24.2830491 821.010015 25.487372 815.218185 26.9084498 808.377965 33.2082525 811.568666 37.1005685 813.030342 49.2052308 817.576479 61.6773332 821.998864 67 835.620931 57.1787989 831.140172 49.6943783 822.946852 39.1753885 819.921931 36.2300714 819.075514 32.6182618 816.878331 31.0233163 820.656271 29.1501827 825.092666 32.5463965 826.871894 36.5696928 827.973988 43.4629635 829.86179 50.5486477 831.694722 57.3630985 842M57.8236604 905C48.1585307 901.140376 41.9177781 895.478886 33.8052657 893.390468 26.7387024 891.572093 27.6367278 883.777374 28.7781869 878.447249 30.3308041 871.193797 36.5296256 874.67135 40.2242256 876.056947 51.1566078 880.158313 62.3044695 884.447177 70 900.007135 56.015962 893.000142 48.1818258 881.60523 33.2834558 882.397673 39.2644682 893.123961 54.0184087 890.498993 57.8236604 905M91.5545241 795.158461C91.1406174 802.850879 84.4888788 805.201837 79.5629208 808.085154 72.6925366 812.10703 67.758394 815.945498 74.442871 827 58.5483844 815.408374 58.5191537 814.59733 70.7294026 806.413044 75.4180073 803.271288 75.4180073 803.271288 73.3870581 789 79.271783 794.31526 84.9986622 797.508227 92 795.66581 91.9801231 795.645564 91.5545241 795.158461 91.5545241 795.158461"/>
      <path id="esqueleto" fill="#000" d="M74.4056278 891C81.0520168 891.251225 85.7411652 898.210743 93 896.361025 91.3213577 902.0317 86.3336272 904.720392 81.6644626 906.468451 74.3785908 909.196871 72.1803688 914.291481 73.3558886 922 66.7071486 918.992311 64.1762545 914.533358 61 909.200377 68.9982367 905.675047 80.9438689 904.430607 74.4056278 891M1076.35128 760C1076.87931 748.936795 1084.16181 744.904856 1091.91159 742.056267 1096.80981 740.255722 1101.73257 738.478915 1099.46978 732.571655 1096.50375 724.824682 1091.07516 729.85244 1086.54492 731.521238 1077.5919 734.816106 1071.73459 742.325696 1064 751.26789 1067.32117 734.342528 1086.50053 720.401062 1099.41254 722.148196 1104.56777 722.847287 1105.48246 725.87866 1105.18808 729.680338 1104.77454 734.989395 1108.98704 742.935769 1101.49893 744.873996 1091.35202 747.500632 1083.61159 752.92838 1076.35128 760M1073.61557 842C1078.52774 832.728892 1085.02705 831.479339 1090.66033 829.063922 1094.26819 827.517963 1100.83879 827.729515 1098.62171 822.068746 1095.90675 815.134013 1090.75733 821.077239 1087.06765 822.293084 1078.09531 825.249005 1071.03969 831.573491 1063 838.669794 1066.14038 825.939457 1088.98671 810.550766 1099.75772 812.109512 1103.96748 812.719759 1104.78793 815.272336 1104.69093 818.55256 1104.54484 823.474058 1106.94891 829.504462 1100.33507 832.167465 1092.35148 835.384921 1084.17972 838.140913 1073.61557 842M1072.06939 906C1076.37693 890.149401 1090.97286 892.200545 1097.79691 882.342459 1082.13538 880.543189 1074.4741 892.205209 1063 898.081114 1068.72159 885.565519 1086.47266 873.933817 1097.47224 874 1100.58932 874.018941 1102.70503 874.264985 1102.74903 877.700273 1102.82277 883.318472 1104.57576 890.84672 1097.65895 892.629664 1089.2401 894.800915 1082.40059 899.381299 1072.06939 906M1052.18806 246.850498C1052.20078 221.34109 1052.20078 221.34109 1032.32855 221.325884 1003.85678 221.302489 1004.6415 221.335242 1003.50198 250.660299 1002.90564 265.993081 1006.43283 272.267497 1022.98127 271.405408 1054.31455 269.773639 1051.99391 275.115782 1052.18806 246.850498M1056.89175 246.828273C1056.94723 277.778081 1060.0653 275.925234 1028.47314 275.968513 995.562337 276.011793 999.166958 277.819022 999.076814 246.20013 998.986669 215 999.03752 215 1029.1342 215 1056.87095 215.00117 1056.87095 215.00117 1056.89175 246.828273M104.281675 221.326193C77.9706366 221.773124 79.7699901 216.848698 79.5827271 245.456935 79.414074 271.079395 79.5280602 271.140233 101.735595 271.080565 130.826501 271.002176 127.779115 273.089412 127.646519 249.817433 127.463908 218.019843 131.79422 221.668996 104.281675 221.326193M103.403516 275.999141C74.0101978 276.016691 74.0101978 276.016691 74.0004331 248.844013 73.9892616 215.002477 73.9892616 215.002477 102.017071 215.000067 134.007646 214.996627 134.007646 214.996627 133.999758 249.92507 133.993689 275.981591 133.993689 275.981591 103.403516 275.999141M677.295789 640.178753C676.29312 654.387721 686.021224 665.567283 700.178271 666.471426 714.890678 667.411829 726.355737 658.25577 727.500151 644.649175 728.724733 630.115043 718.431973 618.064088 703.869443 616.97397 690.59772 615.982102 678.240367 626.772169 677.295789 640.178753M717.782503 613.135162C737.566352 632.910518 738.692177 642.233837 724.19471 666.271415 716.410368 668.854013 709.436991 673.68001 700.498939 672.919734 684.212236 671.534862 671.125246 658.198457 671.000929 641.963647 670.874288 625.630586 683.716129 612.461441 700.652302 612.016972 706.347653 611.868426 712.070887 612.732801 717.782503 613.135162"/>
    </g>
    <g transform="translate(197.963 52.419)">
      <path id="frente" d="M4.03663833,588.381556 L229.547268,584.97826 C238.52775,578.335694 246.791393,574.35434 254.3382,573.034199 C261.885006,571.714058 279.334616,571.714058 306.687029,573.034199 C308.350567,556.634789 309.342502,548.150445 309.662835,547.581168 C309.983168,547.011891 313.793961,547.011891 321.095212,547.581168 C323.751475,555.581168 325.079607,564.996132 325.079607,575.826061 C325.079607,576.215744 344.383614,575.485602 363.391493,575.826061 C377.89559,576.08585 408.835934,576.08585 456.212525,575.826061 L743.036638,573.533641 C750.243298,573.243947 755.090954,573.077467 757.579607,573.034199 C761.056519,572.97375 763.487517,575.235671 765.094641,573.533641 C767.247203,571.253962 766.632709,565.587027 766.632709,559.58114 C766.632709,557.61858 767.250547,553.285256 768.486223,546.581168 C773.398054,543.054255 776.979094,543.387588 779.229342,547.581168 C781.47959,551.774748 782.719392,560.425572 782.948748,573.533641 L795.536638,573.533641 L808.036638,573.533641 L846.8687,575.826061 C855.604172,584.196391 863.6839,588.381556 871.107883,588.381556 C878.531867,588.381556 949.841452,587.419765 1085.03664,585.496183 C1085.03664,633.809454 1080.95757,663.543826 1072.79945,674.699298 C1067.98417,681.283735 1064.16917,694.406497 1031.22532,699.915159 C1007.39856,703.899318 950.314088,705.694881 859.971908,705.301848 C857.400538,712.061907 853.032802,715.812566 846.8687,716.553824 C805.025256,721.585672 762.704516,716.553824 754.036652,716.553824 C743.453448,716.553824 736.139852,710.785734 732.095863,699.249554 C646.633565,699.823235 580.571423,699.823235 533.909438,699.249554 C487.247453,698.675873 429.085121,697.148608 359.422442,694.667759 C357.451009,707.276698 353.322408,714.572053 347.036638,716.553824 C337.607984,719.526481 295.263698,721.808289 265.404787,719.581168 C253.587666,718.699751 247.135309,716.770941 242.49602,713.581168 C240.378958,712.125568 238.292967,709.365795 236.238047,705.301848 L46.0366383,693.876638 C27.574898,686.908581 16.1900724,676.989325 11.8821615,664.118869 C7.57425061,651.248414 4.95907622,626.002643 4.03663833,588.381556 Z"/>
      <path id="frente" d="M2.27373675e-13,519.441823 C12.7150162,518.009235 19.98321,520.222347 21.8045813,526.081158 C23.6259527,531.93997 24.5366383,540.406564 24.5366383,551.480942 C57.5121041,546.603244 79.6726372,544.164396 91.0182377,544.164396 C102.363838,544.164396 118.502406,546.603244 139.433941,551.480942 C149.027973,569.497868 155.446213,579.855004 158.688661,582.552352 C161.931109,585.2497 186.822891,586.598374 233.364007,586.598374 L254.3382,578.708322 L301.663116,573.533641 L853.746914,573.533641 L864.222576,586.598374 L927.299085,586.598374 C938.55339,561.531418 950.823225,548.19235 964.10859,546.581168 C977.393956,544.969987 1010.03664,545.30332 1062.03664,547.581168 L1068.24527,533.394932 L1091.09859,526.081158 C1091.73631,499.947603 1091.73631,481.231461 1091.09859,469.932731 C1090.03117,451.020813 1083.82997,427.600513 1077.37282,422.613928 C1071.77971,418.294602 1069.4202,412.572451 1053.82851,407.030191 C1046.51254,404.429639 1029.83222,401.787703 1020.34039,399.497063 C1010.63244,397.154264 993.531183,394.487263 969.036638,391.496059 L963.052684,354.816124 C944.312879,308.659487 925.291906,285.581168 905.989763,285.581168 C892.685972,285.581168 832.089681,275.502542 701.249756,270.150151 C669.590898,268.855053 621.166001,263.402568 543.581311,263.557731 C531.051206,263.58279 508.842803,265.290439 476.956104,268.68068 C438.763357,269.05641 400.577326,270.356572 362.39801,272.581168 C324.218695,274.805764 265.720633,279.139097 186.903826,285.581168 C156.584653,302.211687 139.776995,321.459643 136.480853,343.325035 C135.198234,351.833452 134.46628,361.953752 132.42093,368.200461 C130.28033,374.738076 125.818899,380.843329 119.036638,386.516219 L31.3012056,407.030191 C17.7914941,417.887419 9.703305,432.515089 7.03663833,450.913199 C4.36997167,469.31131 2.02442555,492.154185 2.27373675e-13,519.441823 Z"/>
      <path id="frente_d" d="M132.42093,368.200461 C123.327566,360.444961 116.199469,355.983515 111.036638,354.816124 C98.3175574,351.940154 80.7548748,344.336254 80.7548748,332.092908 C80.7548748,312.394977 78.5069289,301.724397 74.0110371,300.081168 C49.549731,303.682731 35.3131205,303.682731 31.3012056,300.081168 C28.2463692,297.338791 23.5490974,283.43668 21.8045813,273.581168 C20.1124894,264.021823 21.8045813,243.646077 21.8045813,235.163199 C21.8045813,205.332858 31.3012056,196.210587 35.6247754,191.374137 C39.9483453,186.537686 41.1835216,185.975699 58.5953845,185.975699 C76.0072474,185.975699 106.834108,185.975699 119.036638,185.975699 C131.239169,185.975699 136.357428,210.696505 131.536638,210.696505 C128.322779,210.696505 133.200015,208.908623 146.168346,205.332858 C157.75767,205.332858 166.128327,207.12074 171.280316,210.696505 C176.432305,214.27227 176.432305,225.368454 171.280316,243.985059 L177.55541,285.581168 C167.048747,293.174448 159.132227,301.056341 153.80585,309.226844 C148.479474,317.397348 141.351167,337.05522 132.42093,368.200461 Z"/>
      <path id="frente_i" d="M1024.40503,367.80593 C1015.31166,360.05043 1008.18357,355.588984 1003.02074,354.421593 C990.301655,351.545623 972.738973,343.941723 972.738973,331.698377 C972.738973,312.000446 970.491027,301.329866 965.995135,299.686637 C941.533829,303.288199 927.297218,303.288199 923.285303,299.686637 C920.230467,296.94426 915.533195,283.042148 913.788679,273.186637 C912.096587,263.627292 913.788679,243.251546 913.788679,234.768668 C913.788679,204.938327 923.285303,195.816056 927.608873,190.979606 C931.932443,186.143155 933.167619,185.581168 950.579482,185.581168 C967.991345,185.581168 998.818206,185.581168 1011.02074,185.581168 C1023.22327,185.581168 1028.34153,210.301974 1023.52074,210.301974 C1020.30688,210.301974 1025.18411,208.514091 1038.15244,204.938327 C1049.74177,204.938327 1058.11242,206.726209 1063.26441,210.301974 C1068.4164,213.877739 1068.4164,224.973923 1063.26441,243.590527 L1069.53951,285.186637 C1059.03284,292.779917 1051.11632,300.661809 1045.78995,308.832313 C1040.46357,317.002817 1033.33527,336.660689 1024.40503,367.80593 Z" transform="matrix(-1 0 0 1 1982.576 0)"/>
      <path id="frente" d="M163.552333,244.728523 L182.903826,108.987533 C185.982931,82.1058748 189.368414,64.7243262 193.060273,56.8428868 C197.660932,47.0213258 205.531194,37.4433115 212.036638,37.4433115 C220.409937,37.4433115 269.829196,31.0282275 350.295571,29.1397618 C388.49619,28.2432313 462.409879,28.2432313 572.036638,29.1397618 C644.231013,27.2945684 699.606083,27.2945684 738.161847,29.1397618 C795.995492,31.9075519 860.921669,30.7560104 877.036638,37.4433115 C893.151608,44.1306125 896.089727,44.1306125 902.513201,77.0342931 C906.795517,98.9700801 911.790951,141.736268 917.499502,205.332858 L925.895667,254.808399 L911.733555,285.581168 C833.141534,277.749498 772.721063,272.605826 730.472144,270.150151 C688.223224,267.694476 622.323542,265.495921 532.773098,263.554484 C451.315849,265.421078 390.490006,267.619634 350.295571,270.150151 C310.101136,272.680668 254.303888,277.82434 182.903826,285.581168 L163.552333,244.728523 Z"/>
      <path id="arriba" d="M137.433941,212.696505 L169.280316,212.696505 L191.060273,68.1124181 C198.37785,48.9996803 214.856432,39.4433115 240.49602,39.4433115 C266.135607,39.4433115 458.605207,39.4433115 817.904818,39.4433115 C857.847936,36.6445909 883.382147,42.7582514 894.507452,57.7842931 C905.632758,72.8103347 911.809153,122.659856 913.036638,207.332858 C932.170535,207.399183 943.697539,205.787033 947.61765,202.496407 C951.008662,199.64992 941.955315,162.780474 926.390843,75.2764806 C924.771827,66.1743153 921.14138,50.3341107 915.499502,27.7558668 C916.174339,21.6955412 906.755116,16.4195725 887.241833,11.9279607 C873.104423,8.67377982 749.666865,-1.31618714 519.036638,0.144951945 C460.570526,0.515359256 357.570526,4.44302885 210.036638,11.9279607 C186.726828,8.41920684 171.23206,17.5909904 163.552333,39.4433115 C155.872606,61.2956325 147.166475,119.046697 137.433941,212.696505 Z"/>
    </g>
  </g>
</svg>
