<svg xmlns="http://www.w3.org/2000/svg" xmlns:xlink="http://www.w3.org/1999/xlink" width="1479" height="1108" viewBox="0 0 1479 1108">
  <defs>
    <polygon id="esqueleto-m" points="0 0 1050 0 1050 1006 0 1006"/>
  </defs>
  <g fill="none" fill-rule="evenodd">
    <g transform="translate(215 51)">
      <mask id="esqueleto-mask" fill="#fff">
        <use xlink:href="#esqueleto-m"/>
      </mask>
      <path id="esqueleto" fill="#000" d="M143.134309,739.358414 C142.626183,740.398229 142.119239,741.436863 141.611113,742.475497 C143.277294,743.410268 145.000195,744.257699 146.59902,745.296333 C151.486484,748.472429 156.576016,751.231892 162.604991,750.242829 C163.438082,750.105918 164.572503,746.926281 164.24872,745.441506 C162.439555,737.151316 154.193732,743.403186 150.010555,739.540175 C148.744966,738.370531 145.482324,739.358414 143.134309,739.358414 L143.134309,739.358414 Z M158.918123,938.202575 C144.956473,942.741879 135.31035,924.60709 124.529805,937.509759 C135.144913,929.146393 144.7095,949.514246 158.918123,938.202575 L158.918123,938.202575 Z M918.937643,738.865063 C908.811754,739.91904 900.490303,738.00937 894.874919,745.355346 C894.239171,746.186254 895.659561,750.146047 896.396934,750.227485 C904.794013,751.159895 911.162132,747.207184 918.937643,738.865063 L918.937643,738.865063 Z M903.416164,940.387248 C915.067613,947.412192 923.799109,930.966364 935.565182,936.971558 C923.762477,925.569006 914.46377,942.057325 903.416164,940.387248 L903.416164,940.387248 Z M903.867569,967.724573 C916.417101,965.786576 928.384061,971.063546 941.818678,970.985648 C929.309323,959.592539 916.407648,965.889259 903.867569,967.724573 L903.867569,967.724573 Z M170.11344,938.601505 C169.047557,933.481511 174.372245,926.278346 166.167782,926.654851 C154.550602,927.188332 143.811417,924.284877 131.922449,920.536352 C140.302984,937.278427 158.807044,927.209576 170.11344,938.601505 L170.11344,938.601505 Z M889.848016,939.214064 C897.804325,925.146471 919.164527,938.403221 926.494541,920.338067 C917.048123,923.271028 908.753851,927.976749 899.57095,926.449485 C887.686708,924.473719 886.378579,929.865175 889.848016,939.214064 L889.848016,939.214064 Z M488.806564,226.148 C484.923536,221.837668 489.318235,212.670541 481.237849,210.891879 C478.105193,210.201424 471.21713,211.119671 472.808865,217.788175 C474.151263,223.408602 473.196459,231.447395 482.031944,232.13313 C485.158692,232.375084 489.087806,231.517031 488.806564,226.148 L488.806564,226.148 Z M578.138672,223.296477 C577.558463,229.692339 579.624054,233.172944 584.420528,232.316071 C593.143753,230.7593 591.362948,222.181125 592.951137,216.522929 C594.662222,210.428035 587.852151,210.836407 585.104725,211.3392 C577.793619,212.677622 579.451528,219.892589 578.138672,223.296477 L578.138672,223.296477 Z M911.477643,606.022565 L911.201128,608.226122 L955.92213,608.226122 C955.952854,607.490817 955.981215,606.756691 956.011939,606.022565 L911.477643,606.022565 Z M147.287944,608.21668 C147.13787,607.829553 146.987796,607.442426 146.837721,607.055298 L102.875363,607.055298 C102.976988,607.442426 103.078613,607.829553 103.179057,608.21668 L147.287944,608.21668 Z M402.455857,277.198052 C395.00531,275.474864 393.914612,265.010624 385.380457,264.559762 C383.015899,264.434654 378.163886,268.743806 379.648086,271.585887 C382.915455,277.843658 387.898636,283.606897 395.487439,284.761198 C398.901337,285.279335 401.291893,282.077272 402.455857,277.198052 L402.455857,277.198052 Z M442.547003,246.408449 C436.870172,242.603271 438.428819,232.412853 429.95493,231.240848 C427.31622,230.876146 421.423139,233.797305 423.010147,238.585645 C425.019017,244.646311 427.05034,252.04422 435.135453,252.758281 C437.865153,252.999055 441.509481,251.036272 442.547003,246.408449 L442.547003,246.408449 Z M671.310085,288.278391 C676.500061,282.763007 682.540853,277.840117 686.407338,271.576444 C688.227138,268.6305 682.726378,263.268551 679.874964,263.813834 C671.873751,265.344639 667.411695,272.065075 664.89588,279.355579 C663.378592,283.754431 668.106528,285.419786 671.310085,288.278391 L671.310085,288.278391 Z M643.956359,238.128882 C643.62076,232.861354 638.612764,231.002435 635.997687,231.446215 C628.2529,232.759851 627.074757,240.436302 625.085975,246.488707 C623.418613,251.561491 629.779642,254.774175 631.58408,254.163978 C638.803016,251.729089 639.462398,243.306709 643.956359,238.128882 L643.956359,238.128882 Z M122.405129,952.171025 C120.508519,961.830324 132.107974,969.79594 117.491668,973.25412 C130.577687,967.71277 144.161197,973.715604 155.95563,967.474357 C144.390444,964.378518 131.501767,966.803965 122.405129,952.171025 L122.405129,952.171025 Z M354.044441,306.076805 C349.31296,307.592266 346.258295,312.292086 347.298181,314.778907 C350.546643,322.534436 358.645936,324.507841 366.128388,325.65624 C370.969766,326.399808 373.642745,320.500837 372.279077,318.016377 C368.489402,311.11182 359.255687,311.280598 354.044441,306.076805 L354.044441,306.076805 Z M539.643986,213.882674 C538.647823,209.833181 542.415046,203.593113 533.668187,203.837429 C525.742602,204.058138 525.78278,209.010535 525.976577,214.547164 C526.163283,219.871344 525.772145,225.677074 533.677641,225.466986 C542.843999,225.222671 538.30986,218.015966 539.643986,213.882674 L539.643986,213.882674 Z M539.846055,618.253664 C538.619462,613.133669 541.670582,604.776204 531.535239,603.633707 C527.610852,603.191107 523.678192,605.373419 526.137286,609.154992 C530.338189,615.615769 520.13549,626.727975 532.530221,629.50278 C541.114007,631.423074 539.539998,624.18096 539.846055,618.253664 L539.846055,618.253664 Z M830.572156,376.832581 C855.282445,380.20106 855.282445,380.20106 855.46088,390.847061 C856.003275,423.342149 856.003275,423.342149 830.46935,427.801195 C839.96658,427.163851 855.587321,433.038036 857.702543,425.526822 C861.863269,410.758151 861.420135,393.209954 857.358672,378.312635 C855.601501,371.86366 839.862592,376.8314 830.572156,376.832581 L830.572156,376.832581 Z M430.721846,602.839388 C438.68879,599.545265 439.608144,591.371922 442.170045,584.524017 C444.071381,579.43825 439.225277,575.915156 436.317141,576.489946 C426.967622,578.341783 427.878704,588.79186 423.526545,595.007141 C420.47188,599.369405 426.953441,600.552032 430.721846,602.839388 L430.721846,602.839388 Z M584.297632,622.647795 C590.579488,621.615062 595.485859,621.344781 593.272557,614.553529 C590.995443,607.565173 591.072253,598.754486 581.432038,597.315742 C579.079296,596.965203 573.024324,598.143109 575.8072,603.040033 C579.458618,609.460681 577.970872,618.68092 584.297632,622.647795 L584.297632,622.647795 Z M739.265447,364.208454 C738.863673,361.367553 738.67224,358.313024 735.923632,356.635866 C730.941633,353.59432 712.796806,362.55136 712.312314,368.437348 C712.129152,370.662149 713.332111,373.001437 713.90523,375.287612 C721.107621,373.32483 728.308831,371.356146 735.51595,369.405166 C738.186566,368.681663 739.47697,366.998603 739.265447,364.208454 L739.265447,364.208454 Z M330.90698,423.515648 C336.433737,421.326255 346.579715,426.056761 348.150179,414.43114 C348.687847,410.451282 345.376756,406.799539 342.049121,409.483464 C335.410395,414.835971 323.332356,403.595116 320.373408,416.659482 C318.669413,424.18722 325.155702,423.289037 330.90698,423.515648 L330.90698,423.515648 Z M745.440952,417.034807 C745.678471,413.187139 744.691761,410.408793 740.116263,410.227032 C733.80132,409.976815 727.580911,410.400531 721.583842,412.503765 C717.124149,414.068798 715.846744,417.484488 717.06861,421.733446 C718.50318,426.722431 722.089605,424.464582 725.316796,424.021982 C730.06482,423.371656 734.889655,422.81457 739.661313,422.944399 C744.204905,423.069508 745.736374,421.153936 745.440952,417.034807 L745.440952,417.034807 Z M711.99444,305.931632 C704.988208,309.965782 696.604128,312.771274 694.245478,321.603206 C693.501014,324.389814 696.904277,330.272261 699.443726,328.577399 C706.215983,324.05934 715.413064,321.925419 718.865958,313.798106 C719.790039,311.621695 717.048521,306.423803 711.99444,305.931632 L711.99444,305.931632 Z M367.409338,503.65454 C360.666623,508.628182 353.47723,513.36459 347.250914,519.139632 C346.333923,519.991785 349.341321,526.526918 353.650939,527.55257 C358.059819,528.601826 373.188977,516.131134 373.02354,511.617796 C372.899463,508.261119 371.515706,505.149938 367.409338,503.65454 L367.409338,503.65454 Z M667.350247,546.057852 C663.795728,546.969128 659.515652,551.345555 660.367649,552.260261 C666.371809,558.708056 673.11216,564.550373 680.192838,569.81318 C680.991659,570.405673 685.885032,566.448241 686.389613,562.728042 C686.904829,558.922864 671.924563,546.014293 667.350247,546.057852 L667.350247,546.057852 Z M644.014262,595.461544 C640.339211,587.939708 637.134471,579.949306 628.6724,577.375145 C625.81035,576.505289 619.044002,580.161754 621.518457,583.301262 C626.534725,589.668798 628.290714,599.050733 636.501086,602.243353 C638.348065,602.963316 643.717658,600.173166 644.014262,595.461544 L644.014262,595.461544 Z M341.526814,372.069027 C350.921238,373.662386 355.841789,369.543257 354.088163,364.939039 C350.645905,355.901741 340.039069,359.741146 332.876854,356.908508 C327.469448,354.768685 326.34448,361.901034 327.014498,364.36779 C329.442868,373.309486 338.215723,371.035113 341.526814,372.069027 L341.526814,372.069027 Z M488.675397,609.006278 C490.314399,601.360514 487.315273,595.691696 481.345383,596.582797 C470.466758,598.209203 477.840494,609.45596 473.620685,615.497742 C470.152429,620.461942 475.25496,621.954978 479.301061,622.27365 C490.943057,623.189537 484.856179,612.020678 488.675397,609.006278 L488.675397,609.006278 Z M388.532021,570.589795 C394.137951,565.338791 401.00947,560.531567 402.471219,551.969916 C403.130601,548.110446 398.744173,542.615126 396.43279,544.430376 C389.960682,549.511422 384.489464,556.238939 379.994321,563.198968 C378.88117,564.922157 383.65401,569.245472 388.532021,570.589795 L388.532021,570.589795 Z M290.776837,412.015135 C289.426167,406.669709 286.637382,401.923859 279.576793,401.79521 C272.777358,401.672462 268.172317,405.533113 267.814266,412.019856 C267.447942,418.641149 271.835552,422.755557 278.625534,423.044722 C285.447422,423.333887 289.252459,419.485039 290.776837,412.015135 L290.776837,412.015135 Z M348.876917,458.90947 C343.398609,460.590169 337.998292,462.630849 332.417178,463.839442 C327.784959,464.841488 325.208878,466.235382 327.423362,471.473403 C328.958375,475.102722 329.993534,479.30919 335.353674,477.129239 C341.108497,474.788771 346.805417,472.265362 352.366443,469.495277 C355.671626,467.848806 355.033514,464.768311 353.965268,461.958097 C353.073093,459.610548 351.735422,457.680813 348.876917,458.90947 L348.876917,458.90947 Z M712.145696,528.034118 C716.475402,525.861248 720.025195,521.974632 718.791512,519.031048 C715.271262,510.627553 706.545674,509.350505 698.641359,507.42195 C693.528193,506.175589 689.542357,510.465856 690.513705,513.161584 C693.998505,522.832685 706.520858,520.01539 712.145696,528.034118 L712.145696,528.034118 Z M723.720335,460.9053 C717.23641,461.343179 708.187039,459.675463 710.407432,468.112005 C713.014237,478.008537 725.106455,472.749271 732.288758,476.572153 C737.670168,479.435479 739.173276,474.571602 739.007839,470.592925 C738.543436,459.382757 728.462451,463.720235 723.720335,460.9053 L723.720335,460.9053 Z M784.491031,397.190992 C777.736499,397.190992 772.388177,397.118996 767.042218,397.216958 C763.895381,397.275971 760.984882,398.354734 761.140865,402.039525 C761.314574,406.0961 764.88091,405.83054 767.68742,405.904897 C773.032197,406.042988 778.469146,406.544601 783.708753,405.789231 C790.846152,404.761219 804.241773,409.529494 803.850634,402.14811 C803.285787,391.497388 790.120595,400.01891 784.491031,397.190992 L784.491031,397.190992 Z M829.105681,570.796342 C863.854414,571.754718 863.854414,571.754718 862.285131,532.418807 C861.820728,520.749516 861.820728,520.749516 832.77246,524.066063 C857.158967,524.796648 855.685401,524.89461 857.6021,553.791067 C859.152475,577.142633 843.066149,568.013274 829.105681,570.796342 L829.105681,570.796342 Z M294.265182,448.495982 C294.700043,462.083206 293.096492,475.101541 295.786015,488.786728 C312.421826,474.372137 311.82271,459.210438 294.265182,448.495982 L294.265182,448.495982 Z M867.203319,765.169655 C865.240534,758.436236 860.974639,753.848542 853.878599,754.090496 C846.543859,754.339532 839.932311,758.191921 840.497158,766.161078 C840.982832,773.024326 847.236328,776.903861 854.163386,776.512013 C860.843471,776.134327 865.950729,772.551039 867.203319,765.169655 L867.203319,765.169655 Z M510.192763,206.822322 C506.214018,211.366346 493.441146,202.595789 493.022829,215.931616 C492.860937,221.082297 493.222534,229.759614 501.604251,227.363674 C507.945191,225.551965 521.474343,232.627661 519.485562,216.177111 C518.826179,210.721921 520.318652,204.846556 510.192763,206.822322 L510.192763,206.822322 Z M266.892549,445.773108 C248.973424,458.125773 246.399706,476.605201 259.23048,487.030492 C260.661505,488.191873 262.593566,489.732121 264.128579,489.566883 C267.281324,489.229327 266.857098,486.172438 266.867733,483.872099 C266.922091,471.869973 266.892549,459.867846 266.892549,445.773108 L266.892549,445.773108 Z M556.108452,206.841206 C547.062627,205.025957 545.969565,209.325666 545.563064,215.656614 C544.595261,230.71445 557.045531,226.14682 564.026947,227.862927 C576.063627,230.821854 573.423734,217.962854 573.078681,214.386648 C572.017525,203.387747 560.45943,210.559044 556.108452,206.841206 L556.108452,206.841206 Z M460.86672,217.613495 C455.049268,223.453452 442.172408,220.080252 441.283778,231.049645 C440.918636,235.555901 444.981282,245.177431 452.835965,242.810998 C459.003198,240.954439 470.167791,241.962386 469.353607,230.904472 C469.021553,226.407658 469.51668,218.818547 460.86672,217.613495 L460.86672,217.613495 Z M626.799423,228.953493 C618.984917,223.423946 611.080603,218.827989 602.993126,218.662752 C596.363854,218.527021 595.288517,227.802733 596.188964,232.454162 C598.056032,242.075692 608.628599,243.081278 615.650192,243.867336 C622.043127,244.581397 621.375473,234.346129 626.799423,228.953493 L626.799423,228.953493 Z M469.983447,600.829394 C471.031605,587.789814 458.863758,586.877468 452.288843,585.73497 C444.432978,584.371763 443.20284,596.668956 443.361187,600.907292 C443.72042,610.51938 454.776298,610.893524 461.938512,612.558879 C471.711076,614.830892 467.973395,605.349814 469.983447,600.829394 L469.983447,600.829394 Z M508.463953,624.317871 C515.017597,624.789978 521.228552,625.99739 520.883499,617.590354 C520.495905,608.122259 517.830016,602.158374 505.783883,600.976928 C491.92504,599.617261 494.615745,609.221087 493.979996,615.380896 C492.665959,628.12659 504.768813,620.618917 508.463953,624.317871 L508.463953,624.317871 Z M625.448753,601.198818 C620.864984,594.774629 618.395255,585.802246 610.095074,587.028542 C604.25517,587.890136 593.635335,589.337143 594.427066,596.844816 C594.883198,601.16459 594.477879,613.589252 604.743207,612.263813 C612.098036,611.313699 620.276503,608.472798 625.448753,601.198818 L625.448753,601.198818 Z M657.679308,275.258875 C666.453345,265.822647 677.718382,257.296404 659.291131,247.912108 C654.6081,245.52797 651.395088,239.167516 645.492554,247.261781 C633.289257,263.994415 650.855057,266.497759 657.679308,275.258875 L657.679308,275.258875 Z M425.765844,573.763531 C425.668946,569.408349 413.247036,556.292051 410.348354,557.615129 C403.625728,560.68028 401.183178,568.124219 396.71994,573.525117 C395.349182,575.182211 413.054421,590.315583 415.980282,589.343044 C423.652985,586.79839 423.527726,579.118398 425.765844,573.763531 L425.765844,573.763531 Z M556.719385,624.059393 C561.006551,621.067418 572.65091,627.15169 573.244118,616.427792 C573.570264,610.52056 571.508217,599.629064 560.203003,601.692169 C554.514355,602.729623 543.414754,598.161993 545.836034,611.259406 C546.828652,616.630798 542.678562,626.608768 556.719385,624.059393 L556.719385,624.059393 Z M669.691172,572.632836 C666.408441,566.081178 660.612259,560.120834 653.637933,560.143196 C646.929488,560.165684 638.096366,566.097702 638.048904,572.266953 C638.005376,577.874398 645.366114,583.773368 650.047964,589.023192 C651.268648,590.392301 669.557641,575.413543 669.691172,572.632836 L669.691172,572.632836 Z M409.187936,273.093086 C414.399183,267.325126 425.023744,265.378867 424.87367,256.620112 C424.79686,252.262569 420.861837,244.897708 414.601251,242.430952 C412.040532,241.421824 393.387579,257.447478 394.36129,259.576678 C397.226885,265.855694 402.280967,270.144782 409.187936,273.093086 L409.187936,273.093086 Z M690.66378,278.69463 C683.960061,283.171379 676.770668,288.467233 678.043346,295.518144 C679.20731,301.969478 683.0218,312.326314 691.182541,311.491866 C696.539135,310.945403 706.744197,304.747825 706.005642,298.421598 C705.093379,290.610597 697.495121,284.10733 690.66378,278.69463 L690.66378,278.69463 Z M375.886772,309.720286 C382.760654,307.07413 388.303955,299.801329 389.170132,293.555361 C390.093031,286.89984 380.054587,279.838308 375.299473,280.253761 C366.622334,281.010312 360.572088,290.860813 359.357313,298.505397 C358.310337,305.087742 368.170346,306.983249 375.886772,309.720286 L375.886772,309.720286 Z M390.66615,536.065829 C386.42507,530.766434 383.325501,520.567755 377.278801,520.999732 C371.326636,521.425808 363.737832,527.6883 360.490552,534.899727 C359.213147,537.733546 374.844522,554.835602 377.025919,553.611666 C383.593744,549.920974 387.697749,543.986596 390.66615,536.065829 L390.66615,536.065829 Z M705.924106,532.667843 C701.408874,526.067795 693.332033,523.095885 686.370705,523.337839 C678.918978,523.595137 673.034169,533.777293 673.214967,538.490096 C673.48321,545.494976 684.028599,547.912161 689.937041,552.595457 C691.472055,553.811131 706.17226,536.032782 705.924106,532.667843 L705.924106,532.667843 Z M349.471306,354.263531 C362.185093,355.155812 362.34344,343.769785 363.104447,337.49549 C364.459844,326.349056 350.129507,325.395401 345.836432,325.732957 C337.434627,326.393906 336.202126,337.892059 335.097247,345.148336 C333.43343,356.089403 344.828452,350.804171 349.471306,354.263531 L349.471306,354.263531 Z M712.49193,358.597469 C716.360779,350.369833 731.076346,356.306572 729.86157,344.607774 C729.120651,337.482507 727.849154,325.749481 718.641437,325.625553 C712.376125,325.541754 701.807103,330.742007 703.29603,341.182641 C704.116122,346.94234 704.920852,354.386279 712.49193,358.597469 L712.49193,358.597469 Z M742.097955,393.291392 C738.88967,388.80048 745.208159,376.5623 733.891128,376.755863 C726.685191,376.880972 713.924137,378.050615 715.881013,391.923464 C716.605388,397.062343 712.529744,407.366066 723.279565,404.771841 C729.568511,403.254019 742.559995,410.393449 742.097955,393.291392 L742.097955,393.291392 Z M713.609808,478.986978 C701.020098,479.101463 699.730876,490.518178 699.617434,496.535175 C699.442544,505.731809 712.382033,506.575699 717.51647,506.406921 C727.526554,506.078807 729.352262,493.686012 729.466886,486.381345 C729.606325,477.379455 718.535086,482.060391 713.609808,478.986978 L713.609808,478.986978 Z M348.177357,509.865101 C353.853007,503.674605 365.050688,502.597022 363.584212,492.371196 C362.788936,486.832207 362.118919,475.737705 354.825537,477.078487 C348.465689,478.248131 335.914976,478.394484 335.912611,488.028997 C335.910249,495.179049 339.431681,504.433516 348.177357,509.865101 L348.177357,509.865101 Z M351.112672,443.596697 C345.0577,440.123173 355.663354,425.851395 341.728883,429.272987 C335.809805,430.727075 322.739149,422.603303 323.535607,437.140641 C323.913747,444.033395 320.805906,455.950543 331.555727,456.95967 C338.467423,457.608817 348.940728,455.40762 351.112672,443.596697 L351.112672,443.596697 Z M323.504883,392.518318 C322.104582,400.313976 323.172828,404.469693 330.864439,404.798987 C343.969365,405.359614 349.381498,400.692841 349.849447,386.398638 C350.370571,370.481569 335.923247,378.273686 330.608012,377.521856 C320.964252,376.156288 326.14123,388.436958 323.504883,392.518318 L323.504883,392.518318 Z M741.946699,438.765867 C741.728086,429.631788 740.685837,428.652167 732.624358,429.056998 C719.441441,429.719127 711.525309,437.206736 713.815422,449.739982 C715.957823,461.463566 728.255655,455.463093 734.192458,455.799469 C743.519526,456.325867 739.871654,444.380393 741.946699,438.765867 L741.946699,438.765867 Z M761.810883,551.523775 L761.810883,551.474204 C774.457313,551.474204 787.103744,551.515514 799.748993,551.444698 C802.824928,551.426994 805.710612,550.766045 805.236754,546.62213 C804.884611,543.541635 802.542505,542.846459 800.007783,542.842918 C776.174307,542.815772 752.340831,542.842918 728.507355,542.859442 C725.10291,542.861802 722.418114,544.89304 722.257404,547.814199 C721.93953,553.609306 726.994794,551.314868 729.711496,551.395126 C740.403413,551.710257 751.109511,551.523775 761.810883,551.523775 L761.810883,551.523775 Z M929.25851,740.170437 C919.721102,747.535298 911.345294,756.782683 898.124563,757.014016 C894.635037,757.075389 890.302966,758.898901 888.165292,753.656158 C886.606645,749.835637 891.380666,741.580855 884.271628,742.71037 C878.78623,743.581406 882.799244,751.944772 882.054781,756.895989 C881.409579,761.180355 882.149316,765.652384 881.889344,770.019368 C881.440302,777.56599 883.37,779.732959 891.888792,778.223398 C913.537326,774.387533 920.0697,756.32592 929.25851,740.170437 L929.25851,740.170437 Z M273.023149,473.414941 C273.023149,485.068889 272.985335,496.722837 273.042056,508.375605 C273.06569,513.300856 272.896708,518.717097 279.790679,519.106585 C287.357031,519.535022 288.424095,513.862662 288.401643,508.324854 C288.304745,484.549572 287.858067,460.776651 287.711537,437.000189 C287.67845,431.847147 286.499125,428.861074 280.420519,429.019229 C274.69642,429.167943 272.870711,431.608733 272.962883,436.997829 C273.17086,449.134506 273.029057,461.275904 273.023149,473.414941 L273.023149,473.414941 Z M788.511135,354.911497 C788.504045,354.779308 788.494591,354.648298 788.485138,354.517288 C781.654978,354.517288 774.733828,353.844537 768.025383,354.74508 C763.282085,355.381243 753.325177,350.523268 754.974815,359.789537 C756.25931,367.008045 752.718971,381.196025 769.165712,379.882389 C780.804162,378.953519 792.812481,378.139135 804.221684,379.972089 C819.31421,382.397536 819.425289,370.66333 822.297973,362.644601 C824.051599,357.752398 821.138737,352.268881 813.258056,353.260305 C805.070136,354.291858 796.766411,354.400442 788.511135,354.911497 L788.511135,354.911497 Z M68.2648876,348.755229 C68.9479035,358.451116 69.9027079,370.029527 70.5337295,381.625642 C70.9709543,389.665615 76.901849,391.0182 82.7133932,391.05857 C89.2658561,391.103179 88.3346855,384.880816 87.9789973,381.149994 C86.2490053,363.044711 91.371625,345.507137 91.7438569,327.624924 C91.8360286,323.165878 97.4998617,316.385249 88.8711721,314.689207 C81.154746,313.173745 73.2941539,313.569134 70.2489426,323.746569 C67.9493767,331.433643 69.1783328,339.154944 68.2648876,348.755229 L68.2648876,348.755229 Z M990.750036,346.339224 C990.636594,338.063198 990.913109,329.811957 988.010882,321.84398 C984.586349,312.44198 976.549685,313.571495 969.615537,314.762383 C961.754945,316.111428 966.484062,322.451817 966.728672,326.574487 C967.788647,344.451979 972.336966,362.032043 971.007566,380.15503 C970.690874,384.472444 969.365019,391.130325 976.851016,390.991054 C982.628291,390.882469 988.305123,389.473231 988.489466,381.170059 C988.747074,369.549158 989.950033,357.948322 990.750036,346.339224 L990.750036,346.339224 Z M529.730801,171.114549 L529.730801,171.728288 C521.469617,171.728288 513.148166,171.107468 504.964973,171.906508 C496.959033,172.686664 483.54096,166.955291 484.767553,182.566672 C485.911427,197.109911 499.213695,191.225104 506.328641,190.45203 C524.253675,188.49987 541.870287,187.284196 559.813046,189.990546 C564.349548,190.67392 572.543376,194.350449 572.93806,184.281599 C573.264206,175.977246 570.513236,170.349737 560.364894,170.976458 C550.190556,171.60436 539.945317,171.114549 529.730801,171.114549 L529.730801,171.114549 Z M762.523441,60.7407788 C761.091234,55.6620935 765.851076,47.6386442 758.758581,43.101701 C747.396646,35.8371628 732.8217,43.5856102 731.00899,56.7998701 C729.185644,70.097929 732.864241,82.8211982 733.984481,95.8076668 C734.571781,102.624884 737.533092,105.88714 745.09708,106.025231 C752.661068,106.164502 756.639814,104.597109 757.820321,96.3140009 C759.451051,84.8595178 763.251361,73.7154447 762.523441,60.7407788 L762.523441,60.7407788 Z M296.465486,63.0930493 C295.478776,74.1462419 298.714239,85.9347403 300.967719,97.8495272 C302.161225,104.149788 305.53849,106.739292 312.209122,106.006347 C318.200283,105.346578 323.697498,105.684134 324.562494,97.3372917 C326.110506,82.4151866 329.830461,67.7857875 327.356006,52.4564906 C326.135321,44.8850832 324.10518,41.784524 315.800273,41.7974663 C296.472576,41.8293741 296.472576,41.3360229 296.465486,63.0930493 L296.465486,63.0930493 Z M868.949855,727.206394 C868.949855,727.553392 868.949855,727.90157 868.948673,728.249749 C876.247963,728.249749 883.629971,727.551031 890.821728,728.424428 C899.952635,729.535059 903.228276,726.335357 902.702424,717.293338 C902.220295,708.974822 904.059003,700.507593 890.616114,701.398694 C876.054166,702.364151 861.337417,702.337005 846.770743,701.418758 C836.160362,700.750728 831.91101,703.943348 831.850303,714.854908 C831.788114,726.283425 838.406751,727.385794 847.022442,727.23354 C854.330004,727.10253 861.63993,727.206394 868.949855,727.206394 L868.949855,727.206394 Z M189.919721,728.067988 C189.91854,727.690303 189.91854,727.312618 189.91854,726.936113 C199.161707,726.936113 208.411965,727.14502 217.649224,726.875919 C226.59697,726.6139 226.998744,720.832956 226.359451,713.609727 C225.779241,707.052169 226.71632,701.199229 216.762958,701.592257 C199.745462,702.265009 182.674789,702.037218 165.640749,701.634747 C157.841605,701.450625 156.194331,704.692817 155.663753,711.953814 C154.71722,724.921398 158.0484,731.284213 172.441366,728.259191 C178.031935,727.084826 184.078635,728.067988 189.919721,728.067988 L189.919721,728.067988 Z M762.693604,412.92512 C762.703058,415.072024 762.712511,417.218928 762.721965,419.365832 C785.670356,419.365832 808.67665,418.38031 831.549413,419.698667 C847.818901,420.635799 852.128519,413.777272 849.793502,399.542082 C848.954503,394.426808 852.922613,386.09885 843.713715,385.763655 C814.516554,384.702596 785.312304,385.072019 756.240403,389.104988 C771.712251,390.48708 787.192371,391.008758 802.615769,390.289976 C811.805761,389.861539 812.707389,394.114038 812.642396,401.556796 C812.579767,408.916936 811.751403,413.528236 802.563775,413.087997 C789.301685,412.453014 775.986418,412.92512 762.693604,412.92512 L762.693604,412.92512 Z M862.318219,747.298065 C858.521454,742.306719 855.690128,740.021724 851.550673,739.318285 C820.313918,734.014169 788.799467,735.089391 757.324011,734.987888 C750.477308,734.965463 748.000489,737.47707 747.951266,744.415855 C747.90359,751.338116 750.12162,753.725794 757.137305,753.703369 C779.063535,753.638454 800.818421,756.068622 822.541401,758.996863 C826.867563,759.579914 832.360051,762.180041 836.015014,756.930217 C842.071168,748.230475 851.288338,747.505791 862.318219,747.298065 L862.318219,747.298065 Z M101.209182,702.984971 C86.6035118,702.984971 71.9919332,702.743017 57.3957165,703.119522 C52.4775289,703.24581 44.3841441,704.407192 46.6340791,710.577624 C49.510309,718.471244 53.4394233,727.549851 65.8057937,727.181608 C90.127307,726.455744 114.509086,726.351881 138.818783,727.27839 C150.03537,727.704466 149.836847,722.124168 150.085001,714.101898 C150.342609,705.803447 149.04157,701.82359 139.161472,702.708789 C126.603668,703.832403 113.86743,702.981431 101.209182,702.984971 L101.209182,702.984971 Z M958.183882,702.905894 C944.544833,702.905894 930.88215,703.387442 917.276189,702.704068 C910.462573,702.361791 907.985754,704.852153 909.355331,710.777089 C910.648098,716.365649 904.131086,726.428598 915.367762,726.754352 C942.625771,727.54395 969.93932,727.463692 997.196147,726.641046 C1006.62839,726.355422 1011.96844,716.683141 1012.59355,709.570857 C1013.25648,702.036037 1003.54772,703.118342 997.638099,702.969628 C984.494177,702.641514 971.336076,702.866945 958.183882,702.905894 L958.183882,702.905894 Z M708.669168,557.615129 C709.939483,567.627327 715.973185,565.205421 720.300528,565.148768 C760.272324,564.630631 800.240575,563.51882 840.21119,563.422039 C857.758083,563.378369 848.759525,550.92302 850.350077,543.772968 C852.140335,535.730634 850.428069,530.477269 839.411187,530.759353 C805.761424,531.613866 772.078574,531.164184 738.411087,531.419122 C736.25096,531.436826 732.369113,529.4587 731.753453,536.071731 C748.40699,536.071731 765.039256,534.400474 781.112583,536.678388 C791.260924,538.117132 810.193938,525.218003 810.784782,546.615048 C811.416985,569.500409 791.647336,555.999345 782.095748,556.877463 C757.936126,559.098724 733.433814,557.615129 708.669168,557.615129 L708.669168,557.615129 Z M678.824443,598.156091 C727.814886,598.156091 773.399702,598.110061 818.9857,598.213975 C824.917777,598.228088 826.322805,595.243195 826.414976,590.028779 C826.565051,581.480111 815.867224,569.781313 807.068372,569.883996 C779.797364,570.206208 752.444819,572.264593 725.290799,570.713723 C705.243453,569.568865 691.841923,576.658724 678.824443,598.156091 L678.824443,598.156091 Z M156.008806,657.582493 C156.008806,666.853483 156.345587,676.139818 155.901272,685.389564 C155.551492,692.655282 157.622992,696.125265 165.626569,695.92816 C182.714966,695.507985 199.824635,695.598866 216.917759,695.880949 C223.698288,695.991894 226.410263,693.80132 226.22592,686.668972 C225.748518,668.138793 226.093571,649.58973 225.779241,631.05365 C225.614987,621.350682 221.222651,615.743238 210.439743,616.083154 C196.285478,616.529295 182.099307,616.537557 167.94386,616.131545 C159.000841,615.875427 155.595215,619.631034 155.921361,628.309531 C156.286503,638.054989 156.005261,647.824052 156.008806,657.582493 L156.008806,657.582493 Z M903.13374,656.587528 C903.13374,647.317718 902.737875,638.025482 903.243638,628.781638 C903.775397,619.060966 899.34761,615.789268 890.143438,616.037124 C876.477211,616.404187 862.779077,616.441955 849.116395,615.986372 C837.736734,615.603966 833.077336,621.289308 833.015888,631.80548 C832.909536,649.858831 833.292403,667.919264 832.832727,685.960812 C832.637748,693.599495 835.17247,696.226767 842.822721,696.01786 C858.930318,695.578801 875.073365,695.456054 891.170326,696.063891 C901.240675,696.446297 903.853389,691.994333 903.277906,682.926348 C902.722513,674.179396 903.157374,665.369889 903.13374,656.587528 L903.13374,656.587528 Z M975.807585,532.444773 C976.139639,532.444773 976.470512,532.444773 976.800203,532.443593 C976.800203,546.539511 976.799022,560.63307 976.801385,574.728988 C976.80493,606.067416 976.813202,605.801856 1008.486,606.604437 C1017.82843,606.84285 1021.28841,604.376094 1020.60776,594.440614 C1018.22075,559.581452 1016.13861,524.680982 1015.0231,489.762808 C1014.69105,479.389448 1011.12471,473.475135 1001.80473,470.045281 C996.355967,468.040009 990.946197,465.785701 985.829485,463.061646 C977.828272,458.804426 975.63624,461.724405 975.728412,469.796245 C975.967113,490.677514 975.807585,511.561143 975.807585,532.444773 L975.807585,532.444773 Z M38.9661022,572.511268 C38.0136613,606.072137 38.0136613,606.070956 64.8864401,605.092516 C65.8601514,605.057108 66.8598599,604.97803 67.8123009,605.133825 C79.8879759,607.130835 82.4297879,601.230685 82.4392415,590.195196 C82.4687837,554.645579 82.8540141,519.066456 84.4185697,483.558148 C85.551809,457.823625 85.9358578,457.753989 61.8057781,467.705994 C49.7962776,472.65839 43.6574057,479.037729 43.5073312,493.393306 C43.2071824,522.071414 40.340406,550.724735 38.9661022,572.511268 L38.9661022,572.511268 Z M227.15,601.588305 C230.039229,611.994712 234.220043,613.159635 239.614451,613.069935 C280.105008,612.390101 320.597929,611.565095 361.092031,611.417562 C374.774803,611.366811 388.549746,607.645431 401.784657,617.274043 C479.254976,673.629391 579.1242,673.459433 656.954933,617.422756 C663.171796,612.947187 669.263401,610.644488 677.109813,610.814446 C723.452091,611.815312 769.803824,612.349972 816.153193,613.013282 C822.409052,613.101802 829.253392,614.11329 831.276443,602.137129 C793.632573,602.137129 756.604363,602.852371 719.619876,601.915239 C689.275296,601.144525 659.292313,599.57005 634.669469,622.119035 C631.894864,624.660148 628.612134,626.834199 624.687746,622.370432 C620.121702,617.176081 615.472939,621.157118 612.72315,624.612938 C602.145856,637.907456 583.104127,642.929488 565.889288,636.696503 C562.320589,635.404111 558.495463,635.984802 555.150103,638.996841 C544.620077,648.48028 520.708609,647.81343 508.792462,638.276879 C505.157588,635.369884 500.972047,635.483189 496.670701,637.848443 C485.867705,643.786362 458.604969,635.706259 451.949699,624.985902 C449.514239,621.061517 444.385711,617.724904 441.29914,620.788875 C435.114182,626.930981 431.748733,620.956473 427.411937,619.292298 C414.400364,614.303313 404.313471,601.936484 389.630991,601.794852 C336.008329,601.274355 282.377395,601.588305 227.15,601.588305 L227.15,601.588305 Z M735.505314,523.983445 C737.724526,524.596003 738.629699,525.064569 739.533691,525.064569 C758.523425,525.061028 777.51316,524.951263 796.501713,524.968967 C821.702402,524.996113 827.249248,519.457124 826.905377,494.42722 C826.70449,479.842671 826.514238,465.259302 826.360619,450.673573 C826.177457,433.271728 818.2436,425.507938 800.68489,425.623604 C791.921488,425.681437 783.156904,425.715664 774.393502,425.820708 C762.831862,425.958799 751.148507,441.014274 754.041281,451.99429 C758.419437,468.618339 752.639798,487.28779 740.235614,498.378751 C737.899415,500.467822 734.797483,504.879657 736.945793,507.328709 C742.249211,513.378753 737.17504,517.905074 735.505314,523.983445 L735.505314,523.983445 Z M150.396967,659.127461 C150.136995,659.12038 149.874661,659.113298 149.612326,659.105036 C149.612326,649.862372 149.190463,640.592561 149.736403,631.382944 C150.249256,622.755199 146.825904,620.903361 138.57181,621.249179 C107.460314,622.549833 76.3169132,623.20488 45.1782388,623.679347 C38.7344913,623.777309 34.3445184,625.149959 34.9306359,632.240998 C36.6086336,652.571083 38.538331,672.883463 40.7043661,693.165157 C40.9726094,695.668502 39.7661054,700.547722 46.0385081,699.155008 C69.0802527,694.040914 92.6443036,699.389881 115.826669,696.010779 C126.720656,694.423321 142.029431,700.927768 147.627089,693.071916 C153.288559,685.125184 149.849845,670.709413 150.396967,659.127461 L150.396967,659.127461 Z M954.055062,623.78085 C954.056244,623.047905 954.057426,622.31496 954.058608,621.580834 C942.84202,621.580834 931.524989,622.504982 920.438387,621.305832 C910.526384,620.23297 908.847205,624.229351 909.070544,632.678877 C909.50895,649.239191 909.901271,665.858519 908.950011,682.375164 C908.320171,693.319772 911.660805,696.32709 922.648145,696.250373 C951.383265,696.048547 980.179832,696.564324 1008.83578,698.510582 C1016.00627,698.998032 1018.07658,698.949641 1018.65088,692.006136 C1020.2568,672.616723 1022.12269,653.247375 1024.00039,633.881568 C1024.73422,626.314882 1021.66892,623.504668 1013.96667,623.653381 C994.003225,624.035788 974.02678,623.78085 954.055062,623.78085 L954.055062,623.78085 Z M529.141139,723.436624 C542.818002,723.436624 556.496046,723.433083 570.174091,723.436624 C650.78061,723.462589 731.388312,723.346923 811.994831,723.701003 C822.163261,723.745853 827.458407,722.076957 826.611137,710.222364 C825.782773,698.669918 817.916272,701.717366 811.812851,701.700842 C679.438921,701.329058 547.06499,701.004485 414.69106,700.924227 C358.027913,700.888819 301.362403,701.746872 244.702802,701.431741 C233.373954,701.369187 232.067006,705.99583 232.651942,715.244396 C233.385771,726.855855 241.793484,723.335121 247.762193,723.345743 C341.555175,723.522783 435.348157,723.469671 529.141139,723.436624 L529.141139,723.436624 Z M311.012072,450.61692 C311.631276,445.645639 309.872924,441.978552 307.9385,437.389677 C302.259305,423.918119 299.929015,406.975398 306.752084,395.440657 C314.665853,382.06352 304.274084,369.662464 310.617388,357.565916 C312.077955,354.780488 305.604665,354.650659 302.519276,354.615251 C287.374756,354.440571 272.015168,356.048094 257.140073,354.028658 C240.637793,351.789693 237.792287,360.357245 237.896276,372.915277 C238.496573,444.622348 239.323755,516.328238 239.84488,588.036489 C239.898056,595.35532 241.754489,598.289462 249.81715,598.077014 C285.929551,597.12926 322.057314,596.784622 358.180351,596.326679 C371.027669,596.164982 383.879713,596.300713 397.516399,596.300713 C394.085957,584.931209 386.150918,596.031612 382.434508,589.319439 C375.512176,576.816879 354.680189,574.085743 357.67577,554.236027 C357.914471,552.65447 355.189497,549.997691 353.247983,548.815065 C335.36549,537.928289 328.356896,525.619294 328.24818,505.347042 C328.234,502.700885 326.342117,497.969198 324.842554,497.768553 C315.428042,496.508029 317.063499,486.999805 311.793168,481.228303 C308.14884,493.192661 291.014357,495.372613 293.941399,511.473804 C295.463414,519.83953 289.974471,525.553199 281.072811,525.642899 C271.788284,525.73614 266.203624,521.03514 267.024898,511.156312 C267.647648,503.65454 265.011301,499.199036 258.548646,494.577113 C239.862605,481.211779 239.777524,455.486698 258.646726,442.677269 C268.4122,436.046534 268.843516,429.870201 263.615726,420.936767 C259.021321,413.086816 260.58824,405.752643 267.055622,399.835968 C273.103504,394.304061 280.574138,394.212 287.626456,397.428225 C295.995174,401.244026 299.264906,409.371339 296.058985,416.991137 C288.819961,434.198237 297.658991,442.954632 311.012072,450.61692 L311.012072,450.61692 Z M964.076963,600.336043 C964.076963,565.627956 964.08169,530.596476 964.069873,495.566176 C964.068691,492.159928 964.190405,488.731255 963.881984,485.346252 C960.999846,453.869733 963.313592,422.177226 959.291124,390.698348 C956.959653,372.454974 955.941037,370.554745 937.285721,369.971694 C924.145344,369.562141 911.019148,368.641534 897.894134,367.837772 C868.151033,366.014261 868.153397,365.984754 868.153397,395.120805 L868.153397,411.201931 C868.153397,436.322716 868.159305,436.720466 842.552115,437.113495 C834.085316,437.243324 831.679399,439.983902 831.984274,448.058103 C832.699196,467.030881 832.894174,486.028446 832.870541,505.016568 C832.862269,511.161033 834.664344,513.348066 841.132907,513.679721 C850.984644,514.186055 864.447621,508.44406 869.745131,516.86762 C874.393894,524.260807 870.953999,536.727959 871.082803,546.953785 C871.095801,547.929865 871.112345,548.904765 871.080439,549.878484 C870.775564,559.549585 873.937762,571.755898 869.218098,578.215495 C863.974946,585.392693 851.007096,580.761329 841.520501,580.558323 C830.220013,580.315188 831.144094,587.154831 832.560938,593.874086 C834.030959,600.851819 840.475888,598.026262 844.799686,598.092357 C884.562324,598.690752 924.353321,597.70523 964.076963,600.336043 L964.076963,600.336043 Z M232.780746,358.210341 C223.719558,366.917165 215.705347,366.619738 208.024371,366.93959 C178.787034,368.155264 149.528426,370.005921 120.295815,369.738001 C105.223378,369.59991 101.479789,376.105537 99.7072559,389.320977 C96.0582017,416.51667 97.2363452,443.783179 96.7825768,470.997756 C96.0593834,514.297 96.5887799,557.616309 96.5887799,600.385614 C99.3622029,600.092908 103.595011,599.312752 107.838455,599.251378 C138.58599,598.805238 169.337071,598.449978 200.08697,598.171435 C233.065533,597.871647 232.88119,597.921219 232.819742,565.146407 C232.692119,497.415653 232.780746,429.68608 232.780746,358.210341 L232.780746,358.210341 Z M529.636266,796.641452 L529.636266,796.731152 C595.523673,796.731152 661.412262,796.496279 727.296124,796.968386 C738.102666,797.045103 742.285843,793.994115 741.703271,783.080194 C741.106518,771.908975 740.985986,760.58196 742.165311,749.483917 C743.404902,737.827609 739.369436,734.698723 727.879878,734.797866 C663.456583,735.35023 599.02738,735.166109 534.599358,735.193255 C466.755074,735.219221 398.907246,735.496583 331.067689,734.918253 C319.24135,734.81793 315.771913,738.416562 316.799982,749.684563 C317.770148,760.329383 317.733516,771.148883 317.107221,781.829112 C316.451384,793.010953 320.033082,797.021498 331.985861,796.917634 C397.864997,796.340484 463.751222,796.641452 529.636266,796.641452 L529.636266,796.641452 Z M528.635376,695.014634 C623.372527,695.014634 718.112041,694.856478 812.84801,695.236524 C823.398125,695.279014 827.889724,693.09198 827.125171,681.632776 C826.156186,667.062391 826.309806,652.349193 827.08263,637.756382 C827.601392,627.963713 824.114229,625.384832 814.633542,625.361227 C769.230705,625.252642 723.825505,624.636543 678.432122,623.687609 C671.945834,623.553059 667.341975,625.809728 662.441513,629.166405 C578.603075,686.582813 478.915831,686.003302 394.15095,627.64032 C390.92494,625.42024 388.060527,623.394903 383.650465,623.475161 C336.304933,624.345017 288.954674,625.105109 241.603233,625.494597 C233.369227,625.563052 232.002013,629.321019 232.162723,636.291671 C232.498322,650.916349 233.085622,665.622466 231.955927,680.170427 C230.989306,692.610432 235.373371,695.359272 247.348602,695.294357 C341.108497,694.789203 434.873118,695.014634 528.635376,695.014634 L528.635376,695.014634 Z M867.753986,779.245509 C853.85142,784.955637 842.182246,784.720764 834.625348,770.431281 C832.539668,766.489192 828.709815,765.825883 824.686166,765.409249 C808.220518,763.709665 791.803319,761.371558 775.301039,760.246765 C748.787493,758.439777 748.441259,758.76317 748.096206,785.538688 C747.946131,797.170211 745.091172,802.849652 731.550203,802.822506 C629.526761,802.623041 527.503318,803.272187 425.479876,803.450407 C392.293335,803.50824 359.104431,802.61714 325.921436,802.852012 C314.88801,802.92991 309.862289,800.13386 310.871451,787.993642 C311.918427,775.410824 310.033633,762.582511 311.114878,750.005595 C312.211485,737.25636 307.158585,734.469752 295.394876,734.960742 C268.758435,736.072553 242.18226,735.244006 215.472554,738.598323 C190.749267,741.704783 190.517656,739.609811 190.063887,763.717927 C189.990623,767.603364 188.64468,771.630432 189.308788,775.337648 C193.273353,797.428689 178.664138,821.779941 197.38563,842.04157 C194.96435,860.474967 209.707096,858.71283 220.606991,862.770585 C231.724316,866.908598 236.430982,863.274558 240.168663,853.226953 C242.789648,846.179583 243.537657,834.184538 250.602972,833.762003 C262.89726,833.026697 273.707346,824.714083 285.2359,826.594247 C302.565362,829.422164 321.496012,815.401783 337.562249,831.747289 C339.226067,833.43979 344.283694,832.510921 347.547517,831.79686 C357.96292,829.526028 367.678763,832.135596 377.724297,834.433574 C389.970136,837.234346 402.142709,840.182651 414.747781,841.95305 C450.427684,846.96092 486.907591,838.896161 522.234169,849.681433 C530.185751,852.10806 539.640441,851.319642 548.159234,847.830776 C553.957779,845.45726 559.693695,843.0625 566.462407,843.911112 C618.886837,850.481653 669.620271,834.392265 721.322689,830.780651 C733.17148,829.952104 745.133713,823.59519 758.812939,826.375897 C769.295698,828.506278 780.644634,829.708969 790.787067,830.386442 C809.66336,831.648146 815.484357,841.321608 820.220565,855.775147 C821.645681,860.123248 822.75056,864.991846 829.697707,864.836051 C848.257307,864.415876 869.532427,846.585595 870.105546,829.142441 C870.631398,813.161637 871.468033,797.052185 867.753986,779.245509 L867.753986,779.245509 Z M710.750121,415.047239 C711.437864,315.05627 631.450549,232.397509 533.119884,231.483983 C435.771201,230.579899 355.089054,312.858614 354.298504,413.843367 C353.522135,513.048279 433.407824,596.403396 530.386638,597.578941 C628.631041,598.76983 710.051744,516.368368 710.750121,415.047239 L710.750121,415.047239 Z M522.371245,18.4801686 C454.978367,18.1874626 387.669388,20.9835132 320.362773,23.6733397 C269.663608,25.6998567 218.995168,28.1902183 168.364541,31.7664248 C153.868768,32.7908958 149.680864,38.9719497 146.972434,51.4143156 C133.821422,111.849844 123.163773,172.71263 115.402443,234.04162 C110.455895,273.140297 107.143622,312.445521 102.913177,351.637439 C101.970189,360.374949 103.527655,364.916614 114.148671,364.327661 C147.280854,362.493527 180.46385,361.548134 213.631483,360.366688 C224.696815,359.972479 228.679105,354.107736 229.040702,343.479439 C230.752969,293.309866 232.299799,243.122588 235.074403,193.006126 C237.010009,158.0372 237.873824,122.802714 246.093649,88.5218837 C251.20327,67.2121782 258.868884,60.9449649 279.964387,58.8511727 C287.000161,58.1524551 291.03799,56.2132778 290.545226,48.4837147 C289.933112,38.8810692 295.163265,35.5255725 304.132281,35.9103393 C310.957714,36.2042256 317.809144,36.0708555 324.646394,35.9256828 C329.22071,35.8277207 332.4609,37.2735467 332.183203,42.3427899 C331.341841,57.7027737 341.148674,55.7093042 351.532171,55.4343022 C409.592074,53.9011364 467.669701,51.9241906 525.735512,52.0552001 C588.20784,52.1956518 650.676622,54.3874061 713.139496,55.9831259 C721.334506,56.192033 726.739549,54.311869 726.426401,45.274571 C726.149886,37.2428598 730.178263,35.2942404 737.245942,35.8654892 C742.099136,36.2585178 747.026778,36.1947834 751.891789,35.8831932 C762.18666,35.2222441 769.454044,37.8058468 768.538236,50.0935978 C767.969843,57.7299198 772.890394,58.3094305 778.814199,58.8936623 C799.805714,60.9650294 807.435877,67.6630399 812.844465,88.4144795 C818.400765,109.730086 819.491463,131.679496 821.170643,153.481373 C826.07465,217.154372 828.202871,280.967822 829.934045,344.789535 C830.195198,354.400442 834.589897,359.876877 843.64045,360.286429 C878.255652,361.859724 912.900396,362.761448 947.522688,364.216716 C954.777074,364.522405 957.036463,361.858544 956.164377,354.918579 C954.044427,338.033691 951.678687,321.149984 950.427279,304.190739 C944.36049,221.98048 930.607999,140.931603 913.804388,60.3501107 C908.023568,32.6327402 907.609977,32.459241 879.40189,30.8340145 C760.487392,23.98493 641.490175,19.3960552 522.371245,18.4801686 L522.371245,18.4801686 Z M241.418889,257.45338 C241.418889,281.325443 241.945922,305.21521 241.158918,329.061308 C240.84577,338.525862 242.854641,341.989943 252.897812,341.746809 C270.928015,341.30893 288.991306,342.351105 307.041598,342.659154 C318.567788,342.856259 327.228383,334.024327 326.161319,322.435294 C325.845808,319.024324 326.833699,316.639006 328.503425,314.492102 C336.909957,303.683225 337.07303,286.492648 353.91091,281.995834 C355.835881,281.482418 358.226437,277.095369 357.907381,274.859945 C356.943123,268.108822 361.922758,265.380047 365.396923,261.593753 C374.914242,251.216853 387.155354,244.413799 398.146239,236.21449 C413.02606,225.111726 424.028762,209.761184 445.289702,210.914304 C447.663715,211.042954 451.375398,208.768581 452.431828,206.614595 C455.317511,200.732148 460.737916,199.808 465.816814,199.027844 C476.007696,197.461631 479.407413,192.171678 478.385253,182.11463 C477.119664,169.645118 483.341255,165.156566 495.997139,165.543693 C517.941095,166.215264 539.946498,165.645196 561.899908,164.855598 C572.789168,164.463749 579.162014,168.10369 578.608984,179.438966 C577.999232,191.901397 584.805758,195.659364 595.757648,197.50176 C603.151473,198.74576 612.574257,198.294899 615.587563,208.696584 C616.016516,210.175458 619.989352,211.800684 622.004131,211.463128 C638.886915,208.635211 649.045892,222.251941 662.424969,227.819257 C668.287326,230.258867 665.333105,242.763787 673.778633,242.161851 C681.953554,241.57998 684.859326,246.939569 689.282386,250.886379 C699.238112,259.764341 705.251725,272.197264 713.12886,281.685424 C721.713828,292.021015 729.378259,303.265411 737.648897,313.920854 C739.554961,316.374627 741.732813,318.957049 741.048615,322.980577 C738.744323,336.553637 743.755864,341.966338 757.703333,341.823526 C772.356271,341.673632 787.067112,340.786072 801.64324,341.79756 C814.169138,342.667416 818.609923,339.407521 817.890275,325.977272 C814.210497,257.371941 812.961452,188.619077 805.948131,120.226193 C804.532468,106.411178 803.569392,92.0898284 795.812788,79.463341 C790.456194,70.741174 782.165468,70.6904226 774.00709,70.9182139 C764.671751,71.180233 769.368963,79.9921002 767.120209,84.6069409 C765.28032,88.3802518 765.33586,93.1379047 764.847822,97.4942671 C763.585779,108.762268 757.726967,112.771632 746.16769,112.619378 C733.364095,112.45296 727.632905,107.532431 727.322121,94.9543343 C727.192136,89.6608406 724.79449,84.3638061 725.015465,79.135227 C725.418421,69.6600502 720.660943,68.1445885 712.551015,68.0265618 C675.955303,67.5001631 639.370226,66.2939311 602.776877,65.6436045 C522.21408,64.2107613 441.654828,63.9924121 361.131027,67.5414724 C335.146878,68.6875109 335.230778,68.7618677 331.429286,94.948433 C330.208602,103.363731 330.391763,111.948987 317.206483,112.235791 C298.880857,112.633541 296.688825,111.894695 293.469905,93.2571116 C292.64036,88.4546086 291.088803,83.7004965 290.886734,78.88265 C290.624399,72.5941919 288.264567,70.8308742 281.879904,70.9548022 C266.627851,71.2498687 258.667997,80.1738612 255.594425,101.550842 C248.163967,153.259483 247.172531,205.444951 241.418889,257.45338 L241.418889,257.45338 Z M123.785341,917.890195 C117.191519,916.338145 110.597697,914.788455 103.754539,913.177392 C106.66622,907.735185 110.565792,904.297069 115.108202,902.999957 C125.557874,900.016244 126.544584,893.619201 123.208677,884.900575 C131.001913,887.756819 134.713597,895.175972 140.383338,900.390388 C148.333739,907.706858 157.540274,909.385197 167.520815,906.972733 C178.092201,904.418637 172.515813,894.827794 174.72557,888.611332 C175.514938,886.391251 175.249058,883.804108 175.504303,881.388103 C176.521737,871.75123 176.690718,865.240882 162.437191,867.222549 C146.310688,869.463874 133.476369,860.033548 130.120374,848.004275 C132.964698,847.045899 134.675783,848.921342 136.299423,850.591418 C142.74317,857.220973 150.693571,860.601256 159.780756,860.927009 C163.243103,861.050937 168.895119,862.922839 169.266169,857.368507 C169.552138,853.098304 164.563049,853.576311 161.228324,853.369765 C153.756507,852.902379 146.090894,851.454193 141.159708,845.869173 C135.570321,839.540586 130.473698,841.030082 124.443542,843.914653 C116.467144,847.728093 126.431142,852.326409 123.800703,856.329872 C117.534209,853.48307 110.73241,853.354421 102.902542,853.778137 C106.584683,846.884202 110.982928,842.781597 116.40806,840.895532 C125.966738,837.573082 126.477228,831.608017 123.110597,823.706135 C127.025531,822.177691 128.879601,826.91882 132.35022,826.739419 C139.512434,841.610773 151.972158,847.395257 167.811511,847.22766 C170.562482,847.198153 175.206518,848.191937 175.40386,844.939124 C176.168412,832.343323 177.476541,819.434752 175.492486,807.1411 C174.223353,799.271085 163.962751,802.784737 157.862875,801.249211 C140.089098,796.773642 131.144897,789.179809 128.948139,770.596519 C138.146402,785.401777 147.831521,793.457094 161.541471,795.223952 C165.298059,795.707861 169.36425,798.384705 170.296602,791.927469 C170.965437,787.296104 169.153909,784.382027 164.414156,783.603052 C152.769798,781.692201 143.228844,776.783474 138.050685,765.476524 C135.17091,759.190426 130.550508,762.573069 127.183878,764.302159 C124.033496,765.919124 117.575568,766.635545 121.641758,773.311131 C123.590363,776.509652 125.754034,779.970192 121.46805,784.387929 C116.675121,778.265888 98.3684028,776.975857 115.338632,764.61611 C123.863333,758.40673 132.025255,753.565278 122.648557,738.748216 C132.057161,743.423251 133.538998,749.40484 136.475494,754.110561 C144.189557,766.475029 153.383094,776.774032 169.048739,778.530268 C172.258205,778.891429 176.645814,780.75861 176.652904,775.282175 C176.667085,764.251408 179.415692,752.874822 174.177267,740.500912 C167.642529,758.32175 161.039254,760.836898 146.31896,752.696602 C144.614965,751.75475 142.555282,750.963971 141.453948,749.505162 C129.94312,734.260844 114.411006,739.927302 99.8088811,739.865928 C99.1589524,747.148171 110.392084,752.343702 100.660879,758.7195 C85.2457517,768.822579 88.1751576,779.146367 99.8466952,790.188937 C104.239031,794.344654 107.830183,799.720766 99.369293,804.014575 C87.4956867,810.041014 89.9335101,816.354257 98.3270437,823.831244 C102.919085,827.922046 110.327091,833.135282 99.1814045,838.866654 C88.8688087,844.16841 88.8747172,850.185407 98.0328033,857.035671 C104.762519,862.070687 106.990002,867.001839 97.1252665,871.62022 C87.1541787,876.289353 92.9290905,881.777591 97.5459476,885.962815 C104.400923,892.175736 105.601518,897.373628 96.9066541,902.7462 C89.0543338,907.598274 91.3066322,912.318158 96.8440246,917.638798 C99.3858366,920.078408 103.610373,921.376701 104.215398,925.887678 C100.041674,929.356481 95.984937,932.728501 91.5677853,936.397948 C96.5686912,940.469867 101.052017,944.118069 106.133278,948.253722 C103.767538,949.92852 101.735033,951.099344 100.036947,952.639591 C98.2242368,954.284882 93.3533167,954.58703 95.6942417,958.337916 C98.2549607,962.444062 100.741233,959.652733 103.81835,957.429111 C109.84378,953.072749 116.671576,949.823476 122.912074,946.263793 C118.830521,938.446891 110.264461,941.939298 104.927956,938.295816 C109.879231,929.31163 126.840006,932.485366 123.257127,917.364976 C132.554652,921.266936 124.08549,906.458137 131.17444,909.557516 C136.338419,911.815365 140.18836,916.686323 146.088531,918.280863 C153.230656,920.209418 160.204982,922.794201 167.85287,914.992641 C157.211765,913.313123 145.923094,915.646509 140.183633,908.243879 C134.554069,900.982882 130.178276,902.760363 124.415181,905.516284 C116.816924,909.149144 125.478701,913.827719 123.785341,917.890195 L123.785341,917.890195 Z M935.44465,917.9138 C939.157515,907.591192 931.828683,898.931579 925.24786,903.802538 C914.955352,911.423516 903.640685,912.832754 890.306512,916.152843 C905.11425,921.942049 910.2156,921.37316 922.977836,912.738333 C928.189082,909.215238 933.435779,903.624318 930.509919,916.321621 C932.334446,916.678061 934.157791,917.034502 935.981136,917.392122 C931.068857,933.232475 951.087843,928.786412 953.778547,939.118462 C947.9091,941.464831 939.782628,938.386697 936.319099,946.440833 C942.297262,949.79515 948.192706,952.822532 953.777366,956.345627 C956.840302,958.276542 960.061585,963.58774 963.016988,958.433518 C965.855404,953.484662 958.917711,953.640457 956.451527,951.399131 C955.397461,950.443116 954.160233,949.687745 952.616948,948.55469 C957.7762,944.231375 962.194533,940.52652 967.422323,936.144191 C956.101747,929.7082 950.738063,922.939373 965.09676,914.194781 C970.767683,910.740142 967.208437,906.092254 963.241509,903.948891 C954.300854,899.119242 953.817543,893.322955 959.788615,885.965175 C964.670171,882.288646 972.705653,878.365442 962.686115,872.583318 C951.851213,866.331448 955.710608,861.540747 962.168536,855.39038 C966.189822,851.560417 972.508311,846.348361 963.538113,841.974295 C948.67129,834.7251 955.255658,828.38235 963.078436,821.085944 C967.661024,816.812201 971.587775,811.035978 963.591289,807.044318 C950.408372,800.461974 954.968508,794.079094 961.959377,786.140624 C966.740489,780.710219 974.943771,774.458349 965.952303,766.630824 C957.126271,758.948472 950.639983,751.567087 960.504718,739.040922 C955.428185,739.040922 952.449148,739.456376 949.626094,738.965385 C940.030783,737.297669 935.002698,741.039113 931.675063,750.356134 C928.056733,760.482818 938.203893,757.796532 940.821333,761.95579 C943.109082,765.59337 947.013381,768.189956 949.506743,771.735475 C950.765242,773.525939 952.923005,779.113319 948.515307,777.799683 C941.999476,775.860506 940.855602,785.476134 934.57729,782.583302 C935.02515,780.232212 934.844352,777.999148 935.82988,776.563944 C939.637281,771.014333 938.871547,767.458191 932.514062,764.420186 C926.222753,761.414048 922.56779,761.504928 919.007362,768.683307 C914.944717,776.876715 906.944686,781.440804 897.897679,782.832338 C891.893519,783.755306 886.990694,784.826988 888.935753,792.37597 C890.87254,799.895446 896.075515,794.810859 899.633579,794.45796 C912.667604,793.160847 920.746808,784.027947 928.384061,774.057059 C932.703132,781.403036 927.618327,785.120874 924.291874,788.806845 C918.247537,795.502495 910.392853,800.343947 901.417929,800.513905 C884.060106,800.84556 879.039111,809.303347 882.781519,825.044557 C883.000131,825.967525 882.807516,826.987275 882.812243,827.962175 C882.905596,848.33829 889.556139,852.45978 908.78812,844.104675 C920.008253,839.230176 926.559534,829.285253 933.852915,820.371883 C936.182024,817.522721 938.585578,812.089956 932.809484,809.059032 C928.699572,806.902686 923.762477,803.111671 920.0697,809.011822 C915.233049,816.741385 908.597868,820.538301 899.742294,821.274787 C895.401952,821.637129 893.725136,824.610219 894.71421,828.467329 C895.936076,833.21436 899.411422,829.864764 901.875242,829.823455 C913.115463,829.640514 919.259062,819.265974 932.268271,813.346939 C924.053172,830.846746 911.75534,835.069738 898.235642,837.228445 C893.466347,837.989716 887.58981,838.831246 888.04476,831.094601 C888.379178,825.395096 884.784481,816.491168 894.332524,815.888052 C908.450157,814.996951 915.487112,805.335293 923.610039,796.314518 C926.490996,793.113636 928.193809,787.148571 935.841697,789.906853 C929.070622,797.173752 930.708442,801.619815 939.435212,805.386044 C945.283389,807.911814 950.595078,812.5538 952.169088,821.425861 C941.563433,817.195787 936.905217,823.108921 933.766652,830.637838 C929.687463,840.425786 940.544818,837.286278 943.664475,841.046606 C947.192997,845.299105 953.407497,847.270149 955.20839,855.294779 C947.735392,851.279513 941.685147,854.867523 935.343025,856.346396 C932.518789,852.393685 942.313805,847.431846 934.389402,843.932357 C928.544771,841.351114 923.308709,838.834787 917.759499,845.85383 C913.512511,851.229942 906.144683,852.536497 899.234168,853.370945 C895.690284,853.798201 889.52187,852.057309 890.019361,857.377949 C890.572391,863.308786 897.033864,860.867996 900.97125,860.901043 C912.158296,860.990743 919.550939,852.246151 929.453489,846.760274 C925.202955,860.569388 913.534963,868.984686 896.562371,867.289824 C883.093485,865.94432 881.883436,871.277943 883.540163,881.619435 C884.153459,885.442317 884.667494,889.411553 884.325986,893.234435 C883.133662,906.611571 891.242409,908.618024 901.694444,907.826065 C909.269067,907.251276 915.523745,904.21209 920.716084,898.347348 C925.162778,893.327676 928.928819,887.295335 935.857059,884.989095 C932.873296,893.564909 933.63903,899.921823 943.988258,903.10264 C948.697287,904.549646 953.681649,907.690335 955.198937,914.457981 C947.987092,913.418166 941.894306,916.484498 935.44465,917.9138 L935.44465,917.9138 Z M73.4832241,824.040151 L73.8909067,823.686071 C65.3910211,821.7764 63.9292724,813.824947 59.9540722,807.911814 C74.7405407,801.717777 74.7405407,801.717777 74.0421628,786.783869 C79.4507512,788.996868 83.7910931,795.981683 91.0844747,790.093335 C79.515744,778.573938 79.7225395,767.376752 92.775471,756.958543 C94.2242211,755.801882 95.8774034,754.020861 96.0428398,752.387372 C96.2000044,750.847125 94.7985218,748.864278 93.5766558,747.541199 C92.0723663,745.913612 90.559805,747.831545 90.2667463,748.761595 C86.3683558,761.139046 60.3475744,761.550959 73.1358077,783.251332 C65.1322313,777.724146 60.846247,771.279893 57.7324977,763.714387 C78.8280013,756.402638 79.4223906,755.076019 68.8155544,739.96271 C67.4802464,744.922189 67.7248559,752.50894 60.019065,743.800936 C55.9410579,739.191997 50.3776683,735.657099 44.9572631,732.558901 C41.512641,730.589036 36.8508798,724.222681 33.16992,731.326703 C29.9297301,737.585654 35.9977007,739.02912 40.503479,741.046195 C48.0781025,744.43828 55.1930491,748.529082 55.0512465,758.339454 C47.7744085,753.912276 42.1791133,747.831545 33.9368359,745.364789 C25.494853,742.840199 21.8410721,724.92848 29.4854152,722.283503 C38.2334553,719.256121 34.2594368,715.933672 32.2718367,712.229996 C29.8671006,707.749706 29.9663624,702.849241 28.7161359,698.220237 C25.7382809,687.208354 28.3722646,675.141312 22.2038505,664.648746 C20.8827227,688.628214 20.8106397,712.480213 20.9181734,736.331031 C20.9595325,745.543009 18.8301297,756.055639 22.5949894,763.501939 C25.0316311,768.317425 36.6015435,768.099075 43.6325902,771.158325 C49.3425092,773.642786 54.7983651,777.154077 59.5912938,781.141016 C63.0772749,784.043291 68.2341637,787.252435 65.1038708,795.155497 C56.6028035,788.026689 50.4544781,779.344651 40.2505977,776.702035 C35.8157206,775.553636 30.1353439,769.798659 27.1846676,777.326396 C24.0992789,785.202312 30.9034414,786.674104 36.7752517,788.307593 C44.6322987,790.492265 52.7304102,792.704084 56.7268808,801.253932 C52.5153429,803.695903 51.0583209,802.549864 49.4713132,801.309405 C41.4913706,795.077599 30.8868978,789.640113 22.7273385,793.533811 C16.302498,796.601323 21.4073924,808.773408 19.959824,816.689453 C17.0835941,832.398796 22.5985344,840.251106 38.9731924,843.272588 C49.9924379,845.305006 62.162648,849.175099 69.170061,865.954943 C54.1413463,857.220973 43.4127962,847.556954 26.9991425,848.182495 C31.1019651,855.595747 37.6934237,854.59134 42.5206213,856.908203 C47.3206401,859.210902 54.2807855,859.271096 55.7330807,867.973198 C43.7082183,865.756658 33.458252,858.463794 21.2100504,859.121202 C21.0753379,861.880664 20.8508171,863.81158 20.9087198,865.734233 C21.223049,875.961239 18.8029509,887.589222 22.9707663,895.912459 C25.6803781,901.322799 38.181461,901.544689 46.016056,904.765635 C55.261587,908.562551 64.5992898,912.615585 69.1192484,922.553426 C56.7280625,918.664449 46.9554984,909.050001 33.314086,909.591743 C40.7150013,916.598984 53.8057468,915.212171 57.6923203,926.859037 C51.6976144,925.842828 46.6707114,923.138838 41.3566581,921.231528 C35.7105503,919.203831 29.3755181,919.005546 24.6133134,914.337594 C25.6531993,948.696322 25.5196685,945.303057 55.8075271,951.003742 C50.6754538,946.192977 44.1123558,943.938669 37.6816068,942.006573 C30.2204254,939.766428 30.700191,932.734402 31.6691756,929.033088 C33.1793735,923.266307 39.0062796,926.797664 42.2901921,928.623535 C53.4157895,934.812851 66.7428728,934.697185 73.2362512,926.319656 C78.2560641,919.844716 82.3884289,920.477338 93.0484411,920.602446 C79.4921103,913.988235 85.4478204,906.918441 87.1269998,899.888775 C78.5443961,903.303285 71.1682963,905.866823 72.9065601,919.206192 C67.1824609,912.262686 62.5880559,909.507945 61.5800756,904.497715 C65.478466,898.524388 80.1349488,903.885157 74.8232589,889.730224 C73.7550125,886.879882 77.4584243,884.961949 80.4776385,888.227746 C83.1222574,891.088711 86.1001125,891.703629 90.4109123,889.225071 C86.1804673,883.772241 83.336143,877.821339 85.168942,870.797575 C88.5710232,868.51494 90.5042657,865.329402 91.0183002,861.277548 C87.190811,854.140479 79.4472061,847.931098 85.5884414,838.429956 C90.6271613,837.175333 93.2635084,833.918978 93.6416487,828.78246 C86.5798781,822.105694 81.0531208,814.848238 85.8070538,803.996871 C72.5615071,806.381008 69.9145248,813.508636 73.4832241,824.040151 L73.4832241,824.040151 Z M985.692409,885.516674 L985.173648,885.05519 C984.471725,890.932916 978.291494,897.851636 989.846045,900.794039 C1003.50518,904.274644 994.959211,909.026396 989.883859,913.218701 C989.290651,913.919779 988.755346,914.689313 988.073512,915.291249 C987.825357,915.509598 986.845737,915.380949 986.838647,915.326657 C985.71368,906.60567 980.995198,901.757137 970.882307,900.685455 C976.884103,907.639583 974.653075,914.174717 971.878471,919.412738 C976.484692,923.047958 980.2271,915.83063 981.801109,919.238059 C989.820047,936.605675 1002.56456,933.672714 1016.37613,928.675467 C1019.98974,927.367732 1025.45859,923.154182 1027.21104,928.920962 C1028.39272,932.806399 1028.29819,939.451297 1021.21869,941.966444 C1015.22517,944.096825 1008.44464,945.423444 1004.0783,951.336577 C1034.70767,943.530297 1036.11151,941.682 1034.32598,913.269453 C1025.50704,922.121449 1011.84318,921.203202 1001.25879,927.442089 C1004.41154,914.072034 1019.4757,917.86777 1028.48017,907.287864 C1015.69666,909.307299 1007.40239,913.814736 999.428357,919.120032 C996.704565,920.931741 994.487717,925.111063 990.849298,923.331222 C986.096547,921.006097 993.309574,916.372373 989.833046,913.230504 C999.317278,916.216577 1003.92823,905.690964 1012.04288,905.164565 C1038.04239,903.481505 1040.58657,886.374728 1038.14047,865.925436 C1037.82614,863.295803 1039.39543,860.212948 1037.90532,859.122382 C1024.85239,858.431926 1015.2748,866.543896 1002.58465,867.737145 C1008.09013,854.272668 1024.6775,859.769168 1031.26068,848.165971 C1022.71353,846.667033 1016.85235,850.754295 1010.87419,853.328455 C1004.58997,856.035986 998.829241,859.959191 989.575438,865.198392 C996.392599,850.720067 1006.69929,847.617147 1016.42458,844.08225 C1038.94402,835.898285 1038.99365,836.036376 1039.00783,811.300358 C1039.0102,807.398398 1038.92984,803.496438 1039.05274,799.598019 C1039.26071,792.973185 1036.55228,791.596994 1030.01518,792.699363 C1020.60067,794.288001 1012.64791,799.482353 1000.8842,804.39108 C1005.81893,793.082949 1013.18557,790.6457 1020.40333,788.724227 C1027.20395,786.913698 1036.02525,785.583538 1031.64119,776.547421 C1027.96259,768.96421 1020.95872,776.401068 1015.65412,777.778438 C1006.55394,780.141331 1002.34831,790.715336 990.223003,794.220726 C998.910777,776.836586 1012.16223,770.589437 1027.05151,767.452289 C1035.59039,765.651203 1038.73014,762.226071 1038.42526,753.127399 C1037.52954,726.336537 1037.76351,699.507907 1037.34283,672.698161 C1037.30856,670.548897 1039.50296,666.585563 1033.87221,666.268071 C1030.70529,683.322917 1033.15611,701.442364 1024.13628,717.354712 C1022.25385,720.675981 1026.12034,720.310098 1027.95314,721.495086 C1033.93603,725.359277 1035.21934,743.405547 1029.64768,744.286025 C1019.08456,745.958462 1012.20005,753.180511 1002.40385,760.369512 C1004.16456,746.841302 1012.84761,743.294602 1021.20451,740.114965 C1025.97026,738.300896 1027.52418,735.501304 1026.09552,731.35975 C1023.9354,725.094897 1019.30554,729.358019 1016.89608,730.661033 C1010.94864,733.876078 1004.47062,737.320094 1000.33944,742.40232 C993.868512,750.364396 990.966285,747.386584 988.942053,739.25101 C976.412609,756.45693 989.186662,759.773478 1001.03663,763.677798 C997.478571,771.31176 994.530258,778.529087 982.383682,785.005208 C992.737636,770.549308 987.900985,764.073187 977.827091,758.89418 C974.606989,757.238266 972.664293,753.191133 969.965317,750.402165 C968.58865,748.978764 967.649207,745.445047 964.653627,748.375648 C962.29734,750.680707 961.355534,753.434268 964.484645,755.781818 C978.1556,766.03479 981.0531,777.61084 967.86782,790.096876 C975.739047,796.54349 979.741426,787.683232 987.288871,786.783869 C979.271114,802.001041 989.111034,804.718013 999.805316,807.339384 C994.815045,813.365823 993.562455,821.50966 985.207917,823.687251 L985.603783,824.051953 C988.361844,813.92881 986.929637,806.128431 972.449226,804.029918 C979.007597,815.385259 971.544053,821.939277 965.297647,828.954779 C966.961465,833.140003 969.909777,836.196892 973.710088,838.504312 C978.976874,847.726912 972.795461,854.142839 968.191602,860.944713 C968.53311,865.044958 970.329277,868.327278 973.711269,870.712596 C976.554412,878.034967 971.344347,883.825353 968.742269,889.612198 C976.690306,893.543664 979.652799,884.537053 985.692409,885.516674 L985.692409,885.516674 Z M567.385306,0.586153339 C672.312157,3.03284509 777.244917,5.42642487 881.974426,12.9081321 C921.214757,15.7112642 921.376648,16.6082665 930.114053,54.8842981 C946.833764,128.129256 956.134834,202.504908 964.939596,276.964359 C966.268995,288.199313 967.584214,296.926201 982.84454,296.855385 C995.672951,296.796372 1005.62395,309.217493 1006.17225,324.333162 C1006.91317,344.782453 1006.49722,365.307282 1005.66531,385.762475 C1005.22572,396.586696 997.925249,403.636425 988.008519,406.827865 C981.516322,408.915756 976.952641,411.496998 979.176579,418.799305 C981.840105,427.547437 973.593101,440.074783 988.651357,444.730933 C996.500133,447.15874 1003.63635,451.810169 1011.40595,454.594417 C1025.14899,459.522028 1031.05625,469.340662 1031.72036,483.394091 C1032.34075,496.533995 1033.8793,509.634949 1034.32244,522.777213 C1035.09172,545.64487 1035.00664,568.525509 1047.24066,589.227378 C1050.52221,594.78053 1049.94909,601.47736 1049.94672,607.853158 C1049.90891,715.21843 1050.20669,822.583702 1049.70211,929.946614 C1049.58749,954.271899 1037.70088,973.767536 1021.56611,992.130117 C1010.63549,1004.56894 999.12939,1005.87314 984.851047,1005.29481 C967.780375,1004.60553 950.430824,1003.36507 933.615396,1005.54502 C908.033021,1008.86275 895.223517,993.546436 883.735142,975.540295 C868.465362,951.604498 865.947184,924.361594 865.024285,896.890899 C864.283367,874.763269 864.351905,874.760909 843.830702,879.662554 C813.404586,886.930633 813.47076,886.901126 800.22994,859.176674 C798.687837,855.945106 798.557851,850.718887 793.638482,850.55365 C775.033977,849.930469 757.299196,842.140713 738.118028,845.32389 C704.907853,850.838094 671.47434,854.99027 638.223988,860.271961 C627.97284,861.899548 617.792594,861.564353 607.563898,861.955021 C586.282869,862.769404 564.842312,859.82228 543.88743,867.365361 C534.332296,870.805837 522.891188,870.435233 513.435316,867.196583 C490.951329,859.495346 468.045478,862.736357 445.303883,862.012854 C421.869817,861.265745 398.527924,860.367563 375.934039,853.196266 C365.59072,849.913945 355.05833,848.177774 344.195067,850.126393 C334.331513,851.895612 325.230148,848.418548 316.067335,845.85383 C297.856333,840.757441 281.049177,850.216094 263.332121,850.721248 C255.594425,850.943138 255.924116,860.13151 253.564284,865.474575 C241.411799,892.988939 247.670021,887.471195 221.555887,882.08564 C191.818695,875.951797 192.311459,875.323896 190.82135,904.83291 C189.865364,923.776182 187.2172,942.360653 180.446125,960.542653 C174.013012,977.82057 160.204982,988.812388 149.713951,1002.6215 C147.24304,1005.8755 143.558535,1005.0859 140.246263,1005.0918 C110.929752,1005.14727 81.5943342,1005.74567 52.3050023,1004.86873 C36.379386,1004.3919 31.1740481,988.941037 23.5616106,978.658559 C9.27854136,959.362387 4.56833089,936.223269 3.31219599,912.508181 C-2.0857572,810.609902 -0.674821102,708.767095 6.0099909,606.976221 C6.3597707,601.663843 6.08443727,595.57957 8.55889305,591.258616 C25.2207013,562.161514 21.7938046,529.763208 22.9624945,498.639589 C23.9267523,472.931032 31.7885261,455.088948 57.6710499,448.926779 C74.3281314,444.958724 78.3990484,434.429569 77.5163271,419.194694 C77.1393684,412.684346 76.4256285,409.103418 68.8557318,406.931728 C56.4716361,403.377947 50.0633392,394.001913 50.1259687,380.506749 C50.2027784,363.920469 49.5812103,347.334189 49.5563948,330.746728 C49.5233075,309.02865 58.5159572,298.11827 80.1585826,296.259351 C91.0183002,295.32694 89.6179993,287.43332 90.4227291,281.794009 C95.0301327,249.488943 98.6401912,217.043427 102.972261,184.697052 C109.693706,134.506234 119.056224,84.8111269 130.728943,35.5125896 C133.964406,21.847468 141.568572,16.7192115 154.864931,15.1707023 C216.998114,7.93212993 279.46217,6.40250499 341.85296,4.15055715 C416.988262,1.43712524 492.156651,-1.20667096 567.385306,0.586153339 L567.385306,0.586153339 Z" mask="url(#campero-back-b)"/>
    </g>
    <g transform="translate(222 51)">
      <path id="atraz_2" d="M20.137476,622.326868 L136.74139,612.362236 L224.826542,607.635989 L387.324471,621.21036 C442.983049,660.201408 490.145693,678.503998 528.812405,676.11813 C567.479116,673.732262 611.888449,652.676984 662.040405,612.952297 L804.275974,618 L871.397405,606.022565 L1025.44482,618 L1005.62578,722.904655 C889.639863,728.544292 827.538692,730.909407 819.322271,730 C811.105849,729.090593 616.46532,725.423926 235.400684,719 C173.372483,728 136.546396,733.666667 124.922424,736 C113.298453,738.333333 85.3782094,736.333333 41.1616938,730 L20.137476,622.326868 Z"/>
      <path id="atraz_1" d="M91.1805955,615.894197 C52.5480573,623.361137 28.8670174,626.283725 20.137476,624.661962 C8.74711056,622.545874 -2.27373675e-13,605.257158 -2.27373675e-13,600.385614 C-2.27373675e-13,596.490522 11.0057499,571.772006 12.232368,553.674245 C15.9624705,498.639589 12.7327218,465.583933 31.6881864,457.039957 C41.1977513,452.753621 53.2183361,445.568631 61.2648635,445.773108 C69.2575208,445.976215 73.3058855,453.591563 73.9591568,442.681151 C77.3527555,386.003994 84.6581495,302.776944 95.8753388,193 C104.297576,138.722545 111.699673,99.043306 118.08163,73.9622824 C127.654564,36.340747 123.79665,18.4590119 133.867163,18.4590119 C140.580839,18.4590119 223.368337,12.3060079 382.229659,-5.68434189e-14 L697.703296,-5.68434189e-14 C830.084455,7.23177083 900.704182,13.3847748 909.562476,18.4590119 C914.938952,21.5387827 928.904836,87.8133066 942.824195,191.418778 C948.833666,236.148863 958.199945,320.013022 970.923031,443.011255 C996.98812,450.118488 1012.38242,458.340111 1017.10593,467.676123 C1024.19119,481.680141 1032.0638,569.87244 1037.51951,586.915015 C1041.15665,598.276732 1042.98347,610.794643 1042.99998,624.468749 L668.686139,616.697512 C603.063971,656.311257 554.110639,676.11813 521.826145,676.11813 C473.399403,676.11813 448.328452,660.305381 387.324471,623.472853 C369.230392,612.548146 334.243416,617.733131 300.860397,621.134798 C285.856828,622.663634 260.845276,622.663634 225.825741,621.134798 L206.734351,605.235384 L91.1805955,615.894197 Z"/>
      <path id="atraz_1" d="M953.627994 294.978281C978.681443 293.246673 992.064633 298.160675 993.777564 309.720286 994.613508 315.361606 999.220427 325.298185 999.648413 338.059065 999.861677 344.417746 1001.72574 361.032641 999.648413 376.265813 999.089498 380.364375 997.132548 387.146533 993.777564 396.612289 988.12496 402.397083 983.16148 406.380578 978.887123 408.562774 974.612767 410.74497 971.225601 412.735427 968.725627 414.534146L953.627994 294.978281zM86.6534501 294.639885C76.0290111 293.542996 68.9844015 293.70203 65.5196213 295.116986 62.6534652 296.287475 53.1605654 305.033832 50.6436511 305.931632 45.8259841 307.650124 46.8405618 311.313321 45.3007572 325.624556 44.8185327 330.106442 44.8185327 340.96837 45.3007572 358.210341 44.0808044 375.320563 44.0808044 386.101989 45.3007572 390.554619 48.1224205 400.853234 49.6206896 399.99684 54.754275 401.490446 58.334578 402.532128 65.3136967 407.367702 68.4677164 408.562774 71.3351995 409.649275 74.4527486 411.639733 77.8203636 414.534146L86.6534501 294.639885zM313.096483 353.143064L225.537069 352.486451C225.537069 313.04015 225.537069 279.803979 225.537069 252.777937 225.537069 225.751896 228.400974 176.868283 234.128784 106.127098 241.44642 73.5475745 254.630413 57.2578125 273.680762 57.2578125 292.731111 57.2578125 381.002776 54.9492187 538.495757 50.3320312L762.390601 57.2578125C787.946417 58.6515977 802.431031 69.0371534 805.844441 88.4144795 809.257852 107.791806 813.8761 192.541109 819.699186 342.66239 767.200557 350.372642 740.126212 350.372642 738.476154 342.66239 736.001065 331.097011 696.778823 280.083351 671.824419 252.777937 646.870014 225.472524 585.176302 190.559119 558.910132 191.418778 532.643962 192.278437 478.005877 187.3089 434.261126 214.651495 390.516374 241.99409 338.323831 280.223376 327.152175 317.405196 319.704405 342.193076 315.019174 354.105698 313.096483 353.143064z"/>
    </g>
  </g>
</svg>
