<svg xmlns="http://www.w3.org/2000/svg" width="2425" height="1108" viewBox="0 0 2425 1108">
  <g fill="none" fill-rule="evenodd">
    <path id="esqueleto" stroke="#000" stroke-width="6" d="M456.463084,655.269076 C443.602084,656.494076 430.310084,656.046076 417.952084,659.225076 C354.648084,675.506076 318.476084,729.802076 330.763084,792.859076 C344.558084,863.660076 408.988084,901.147076 476.609084,882.860076 C529.348084,868.598076 557.826084,824.569076 560.763084,780.179076 C564.659084,721.275076 528.740084,679.744076 485.802084,662.767076 C477.019084,659.294076 467.487084,657.719076 458.300084,655.269076 M1790.36308,655.269076 L1773.82708,655.269076 C1700.46308,655.269076 1649.90308,717.123076 1659.20708,789.485076 C1666.54508,846.560076 1732.12708,900.199076 1799.68908,883.668076 C1884.24908,862.979076 1914.41508,762.529076 1864.09108,699.178076 C1845.11808,675.294076 1820.15208,663.359076 1792.20008,655.269076 M1799.55008,611.173076 C1786.07608,611.173076 1772.41708,609.774076 1759.17508,611.526076 C1742.44608,613.740076 1724.94608,615.980076 1709.71208,622.635076 C1642.29208,652.090076 1596.72608,724.729076 1616.25308,805.825076 C1638.33108,897.521076 1715.56708,941.243076 1799.43808,930.033076 C1841.27908,924.441076 1877.23008,902.268076 1902.35508,866.501076 C1926.73408,831.797076 1937.91708,794.187076 1932.45908,750.732076 C1927.93208,714.697076 1912.95108,685.158076 1889.49108,659.022076 C1865.90508,632.748076 1834.64008,619.979076 1801.38708,611.173076 M1770.15208,756.322076 C1761.85008,759.669076 1756.75308,766.020076 1759.63008,774.526076 C1760.99908,778.575076 1768.46708,784.014076 1771.82908,783.209076 C1778.57908,781.593076 1784.40708,776.123076 1793.94408,770.163076 C1783.92508,763.008076 1777.95708,758.747076 1771.99008,754.485076 M1617.65408,467.862076 C1604.48708,469.640076 1589.25308,462.737076 1578.15108,476.470076 L1578.15108,544.742076 C1598.10908,549.181076 1615.39208,554.066076 1630.51508,540.229076 C1630.51508,522.982076 1630.10108,506.431076 1630.67108,489.915076 C1631.01008,480.103076 1629.95908,471.815076 1619.49208,467.862076 M151.466084,534.005076 C144.730084,538.292076 136.542084,541.352076 131.617084,547.172076 C125.216084,554.736076 132.092084,577.571076 140.442084,581.776076 C148.739084,585.955076 157.891084,578.318076 164.604084,565.383076 C172.690084,549.803076 164.650084,541.709076 153.304084,534.005076 M188.213084,537.680076 C179.702084,536.427076 174.847084,540.784076 175.673084,548.670076 C176.386084,555.479076 179.869084,561.998076 182.765084,570.518076 C200.685084,553.443076 201.011084,550.836076 190.050084,537.680076 M460.138084,741.624076 C458.300084,742.848076 455.807084,743.706076 454.845084,745.421076 C454.143084,746.671076 455.461084,749.054076 456.856084,755.326076 C459.624084,748.910076 460.799084,746.185076 461.975084,743.460076 M2304.81508,556.053076 C2302.97708,558.503076 2299.63708,560.902076 2299.55008,563.412076 C2299.04608,578.119076 2299.30308,592.851076 2299.30308,606.580076 L2314.00108,606.580076 C2314.00108,594.025076 2314.72708,582.322076 2313.66708,570.783076 C2313.20108,565.701076 2309.10208,560.953076 2306.65208,556.053076 M403.180084,798.581076 C405.018084,800.418076 406.855084,802.255076 408.692084,804.093076 M461.975084,692.015076 C463.812084,692.628076 465.650084,693.241076 467.487084,693.853076 M485.860084,798.581076 C484.635084,800.418076 483.410084,802.255076 482.185084,804.092076 M417.879084,732.437076 L417.879084,747.135076 M471.161084,723.250076 C468.099084,720.800076 465.037084,718.351076 461.975084,715.901076 M1702.17108,774.696076 C1691.76008,776.533076 1681.34808,778.371076 1670.93708,780.207076 M537.305084,778.371076 C529.956084,777.145076 522.607084,775.920076 515.257084,774.696076 M790.857084,335.574076 L818.417084,335.574076 M1975.93308,443.976076 C1976.54608,448.263076 1977.15808,452.550076 1977.77008,456.837076 M1757.29108,692.016076 L1731.22808,692.016076 C1729.61108,693.710076 1726.91508,696.538076 1724.21908,699.365076 M1797.71208,745.298076 C1798.32508,741.011076 1798.93708,736.724076 1799.55008,732.437076 M1779.33908,442.139076 C1780.56408,447.039076 1781.78908,451.938076 1783.01408,456.837076 M1786.68808,456.837076 L1790.36308,442.139076 M1797.71208,780.207076 C1797.03608,782.459076 1796.35908,784.712076 1794.47008,790.998076 C1800.82508,786.693076 1803.36008,784.976076 1805.63308,783.437076 C1802.92508,781.181076 1801.23708,779.776076 1799.55008,778.371076 M1748.10408,695.690076 C1751.16708,699.978076 1754.22908,704.264076 1757.29108,708.551076 M1753.61608,715.901076 C1751.77908,717.738076 1749.94208,719.576076 1747.21508,722.302076 C1750.85908,723.548076 1753.97708,724.613076 1759.12808,726.374076 L1759.12808,669.968076 M1702.17108,695.690076 L1718.70708,706.714076 M515.257084,695.690076 C510.358084,699.977076 505.458084,704.264076 500.559084,708.551076 M845.976084,379.670076 C840.464084,382.120076 834.953084,384.570076 829.441084,387.019076 M616.310084,739.787076 L634.684084,739.787076 M504.234084,767.346076 C501.305084,761.462076 498.377084,755.580076 495.449084,749.696076 C494.134084,750.175076 492.820084,750.656076 491.505084,751.135076 C492.536084,756.526076 493.567084,761.916076 494.651084,767.588076 C508.728084,772.056076 521.307084,771.256076 531.793084,759.997076 M1731.56808,796.744076 C1734.50608,789.593076 1737.44308,782.444076 1740.31008,775.465076 C1734.00008,772.282076 1729.11008,769.814076 1724.21908,767.346076 M1740.75508,778.371076 L1748.10408,778.371076 C1747.49208,775.920076 1746.97708,773.439076 1746.20908,771.040076 C1745.97408,770.306076 1745.04208,769.318076 1744.43008,769.318076 C1743.81708,769.318076 1743.20508,770.409076 1742.59208,771.021076 M1735.24308,688.341076 C1741.98008,685.891076 1748.71708,683.442076 1755.45408,680.992076 M1821.59808,767.346076 L1821.59808,756.266076 C1810.31108,752.051076 1801.25608,748.670076 1791.59108,745.061076 C1790.34108,747.409076 1789.05508,749.825076 1785.99108,755.582076 C1791.91808,754.098076 1794.81508,753.373076 1797.71208,752.648076 M460.138084,669.968076 L460.138084,724.476076 C461.974084,725.701076 465.649084,728.150076 469.324084,730.599076 M1738.91808,719.576076 C1739.19808,708.160076 1729.70008,707.745076 1722.38208,704.877076 M270.893084,765.508076 C263.544084,762.447076 256.194084,759.384076 248.845084,756.322076 M502.396084,699.365076 C494.160084,696.070076 485.924084,692.775076 476.160084,688.868076 C471.212084,696.755076 467.512084,702.654076 463.812084,708.551076 M461.975084,680.992076 C468.712084,684.054076 475.449084,687.117076 482.185084,690.178076 M449.114084,804.092076 C451.217084,802.619076 453.320084,801.144076 455.423084,799.669076 C455.156084,798.694076 454.890084,797.719076 454.623084,796.744076 L445.439084,796.744076 C446.051084,799.193076 446.664084,801.643076 447.276084,804.092076 M1764.64008,745.298076 C1763.16608,743.195076 1761.69208,741.092076 1760.21708,738.989076 L1757.29108,739.789076 L1757.29108,748.973076 C1759.74108,748.361076 1762.19108,747.749076 1764.64008,747.135076 M1770.15208,804.092076 C1771.65708,801.835076 1773.16108,799.579076 1777.22508,793.478076 C1769.75908,795.415076 1766.11508,796.359076 1760.65808,797.774076 C1764.50808,800.028076 1766.41208,801.141076 1768.31508,802.255076 M1639.70208,563.403076 C1641.53908,571.365076 1643.37708,579.327076 1645.21408,587.288076 M1692.98408,774.696076 L1692.98408,764.620076 C1713.76008,774.673076 1721.18308,772.491076 1726.05708,756.322076 M419.716084,748.973076 C422.055084,750.646076 424.394084,752.319076 426.734084,753.992076 C411.293084,747.834076 400.012084,753.475076 395.831084,767.346076 M1648.88908,589.125076 C1648.27608,579.327076 1647.66408,569.527076 1647.05108,559.728076 M546.492084,780.207076 C529.120084,780.491076 535.399084,765.379076 534.417084,758.054076 C532.705084,745.271076 528.070084,736.508076 512.757084,726.283076 C507.466084,733.846076 502.175084,741.410076 496.884084,748.973076 M1823.43508,748.973076 C1835.68408,739.173076 1847.93208,729.374076 1860.18108,719.576076 M1759.12808,726.925076 C1768.31508,735.206076 1777.50208,735.206076 1786.68808,726.925076 M498.722084,750.810076 C510.694084,755.826076 519.433084,753.835076 522.607084,739.787076 M1876.71708,778.371076 C1855.97408,775.254076 1835.23108,772.139076 1809.90108,768.335076 C1810.94708,778.643076 1811.67908,785.856076 1812.41108,793.069076 M430.740084,725.087076 C434.847084,728.953076 438.953084,732.818076 442.452084,736.112076 L446.818084,736.112076 C450.085084,733.499076 454.192084,730.211076 458.300084,726.925076 M478.511084,725.087076 C474.881084,728.824076 471.252084,732.559076 467.651084,736.266076 C472.976084,747.232076 476.692084,756.435076 489.535084,754.485076 M360.922084,804.092076 C382.563084,798.083076 404.203084,792.075076 425.844084,786.066076 C425.572084,784.726076 425.300084,783.385076 425.028084,782.044076 L410.160084,782.044076 C404.570084,771.663076 399.436084,764.915076 384.438084,772.085076 C371.520084,778.260076 355.410084,777.757076 340.711084,780.207076 M1823.43508,835.328076 C1831.39708,824.915076 1839.35908,814.504076 1847.32008,804.092076 M491.372084,767.346076 C485.090084,772.220076 478.808084,777.093076 470.243084,783.740076 L470.243084,772.421076 C472.408084,772.627076 474.612084,772.522076 474.695084,772.890076 C479.392084,793.913076 492.425084,800.578076 513.463084,799.286076 C522.391084,798.737076 531.793084,805.930076 540.980084,809.605076 M1700.33408,804.092076 C1708.29608,814.504076 1716.25708,824.915076 1724.21908,835.328076 M493.210084,835.328076 C501.171084,824.915076 509.133084,814.504076 517.095084,804.092076 M1942.86108,732.437076 L1982.67908,732.437076 C1974.38908,702.341076 1968.00008,674.764076 1959.14408,648.003076 C1944.98108,605.203076 1913.88208,584.461076 1869.46408,577.493076 C1821.66708,569.994076 1773.99608,566.308076 1726.11008,571.265076 C1702.93808,573.664076 1678.60908,574.942076 1657.94608,588.935076 C1655.84708,590.356076 1651.95108,589.125076 1648.88908,589.125076 M766.971084,403.555076 C773.708084,406.618076 780.326084,409.992076 787.223084,412.633076 C791.905084,414.426076 796.981084,415.192076 801.880084,416.416076 M428.903084,692.016076 C417.266084,697.528076 405.630084,703.040076 393.994084,708.551076 M375.620084,697.528076 C389.162084,709.181076 402.703084,720.835076 415.708084,732.028076 C422.259084,727.678076 426.646084,724.765076 433.756084,720.044076 C432.214084,704.134076 430.559084,687.051076 428.903084,669.968076 M1689.31008,807.767076 C1698.49608,820.016076 1707.68308,832.265076 1716.87008,844.514076 M1716.87008,855.538076 C1725.11708,839.767076 1733.36408,823.997076 1741.65808,808.137076 C1735.73208,802.870076 1730.52908,798.245076 1725.68508,793.938076 C1708.81108,798.861076 1693.54908,803.314076 1678.28608,807.767076 M1788.52608,669.968076 C1787.30108,675.480076 1786.07608,680.992076 1784.90208,686.272076 C1799.01608,694.336076 1813.06308,702.363076 1827.10908,710.389076 M425.228084,850.026076 L463.812084,850.026076 M498.722084,848.189076 C509.877084,835.702076 525.546084,826.497076 528.119084,807.767076 M362.759084,774.696076 C366.434084,761.222076 370.109084,747.748076 373.783084,734.274076 M1845.48308,734.274076 C1848.54508,747.748076 1851.60708,761.221076 1854.67008,774.696076 M1794.03808,850.026076 L1753.61608,850.026076 M1867.53108,807.767076 C1860.79408,805.318076 1854.08808,800.943076 1847.31308,800.832076 C1834.47508,800.621076 1819.89708,785.007076 1808.73608,804.092076 M1786.68808,692.016076 C1782.41008,707.732076 1783.58008,721.632076 1801.66408,731.650076 C1814.57308,720.677076 1828.19108,709.102076 1841.80808,697.528076 M1858.34408,807.767076 C1848.79608,821.241076 1839.24708,834.713076 1828.18008,850.329076 C1827.84408,849.658076 1829.31408,852.598076 1830.78408,855.538076 M1694.82208,739.787076 C1699.18208,754.649076 1709.86208,751.813076 1725.86708,748.748076 C1714.34808,740.430076 1706.21108,734.556076 1697.82508,728.500076 C1684.88808,743.007076 1681.29808,758.143076 1681.96108,774.696076 M1834.45908,703.040076 C1822.31808,688.981076 1805.60808,683.710076 1788.52608,679.155076 M428.903084,679.155076 C413.592084,687.116076 398.281084,695.078076 382.970084,703.040076 M1865.69308,774.696076 C1867.79608,757.439076 1861.90308,742.027076 1854.67008,726.925076 M1748.10408,859.212076 C1764.31308,868.665076 1781.13508,861.555076 1797.71208,861.050076 M397.668084,752.648076 C387.771084,743.523076 377.873084,734.399076 366.223084,723.659076 C357.060084,742.142076 347.662084,757.353076 353.573084,776.533076 M392.156084,848.189076 C381.745084,835.940076 370.992084,823.958076 361.093084,811.308076 C357.230084,806.371076 354.782084,802.958076 349.898084,809.605076 M761.459084,409.067076 C762.307084,413.309076 763.156084,417.551076 764.885084,426.199076 C781.612084,423.034076 799.358084,420.642076 816.396084,415.775076 C820.683084,414.550076 825.010084,405.528076 825.344084,399.856076 C826.457084,380.936076 825.766084,361.909076 825.766084,342.923076 M1746.26708,873.912076 L1801.38708,873.912076 M349.898084,723.250076 C326.072084,776.166076 339.293084,827.657076 385.580084,859.749076 C389.720084,852.854076 393.831084,846.008076 397.385084,840.088076 C388.007084,828.345076 379.058084,817.137076 370.108084,805.930076 M476.673084,870.237076 C468.430084,852.330076 460.186084,834.422076 450.967084,814.396076 C455.827084,810.498076 461.945084,805.590076 470.695084,798.572076 C482.640084,820.555076 493.419084,840.392076 504.297084,860.414076 C546.433084,831.879076 563.528084,779.956076 540.980084,723.250076 M1711.35808,769.183076 C1714.92608,762.390076 1718.49408,755.597076 1722.06408,748.799076 C1738.28208,757.674076 1739.83708,756.897076 1749.09208,733.629076 C1739.96408,726.786076 1730.25508,719.506076 1720.54508,712.226076 M449.114084,820.628076 C444.827084,818.791076 439.945084,817.715076 436.390084,814.940076 C430.933084,810.680076 426.388084,805.252076 418.302084,797.166076 C411.546084,811.635076 406.445084,822.562076 401.343084,833.490076 M438.090084,820.628076 C430.820084,833.185076 423.550084,845.741076 416.126084,858.563076 C435.027084,865.565076 452.176084,867.790076 469.324084,859.212076 M390.319084,862.887076 C427.066084,885.101076 463.812084,883.061076 500.559084,862.887076 M1823.43508,844.514076 C1816.21108,830.032076 1808.98708,815.550076 1800.14408,797.823076 C1792.13608,804.348076 1785.10908,807.850076 1781.57308,813.527076 C1777.28508,820.413076 1773.72308,823.208076 1766.47808,818.791076 M443.602084,785.719076 C449.480084,782.551076 460.561084,784.345076 457.982084,772.930076 C456.780084,767.610076 451.718084,758.711076 449.200084,758.977076 C441.707084,759.766076 434.608084,764.294076 423.281084,769.085076 C432.324084,776.325076 437.044084,780.103076 441.764084,783.882076 M2088.01008,668.130076 C2062.28708,668.743076 2036.56508,669.355076 2010.84208,669.968076 M1070.13008,489.910076 L1149.13608,489.910076 M524.444084,732.437076 C527.881084,727.552076 531.318084,722.666076 535.918084,716.130076 C516.878084,682.831076 484.460084,664.708076 443.605084,664.953076 C403.879084,665.190076 372.739084,683.492076 352.756084,718.794076 C356.112084,720.625076 358.517084,721.938076 360.922084,723.250076 M1523.95008,489.910076 L1443.10808,489.910076 M129.419084,524.819076 C110.697084,551.577076 114.940084,580.331076 122.855084,613.010076 L193.725084,613.010076 M1647.05108,392.532076 C1635.15908,429.790076 1637.47608,468.252076 1638.12608,506.441076 C1638.41908,523.616076 1641.53908,540.743076 1643.37708,557.891076 M395.831084,519.307076 C383.582084,521.756076 370.541084,522.311076 359.242084,527.032076 C331.619084,538.573076 303.491084,550.322076 289.266084,579.939076 M234.146084,521.144076 C224.347084,518.082076 214.700084,513.144076 204.718084,512.338076 C182.156084,510.515076 159.428084,510.733076 136.768084,510.121076 M766.971084,355.785076 C765.134084,361.296076 764.850084,368.347076 761.184084,372.047076 C747.167084,386.197076 732.801084,400.208076 717.165084,412.490076 C699.924084,426.032076 695.337084,444.206076 693.478084,464.187076 M1439.43308,491.747076 C1440.95208,505.034076 1449.38608,508.665076 1461.48408,508.384076 C1478.62308,507.986076 1495.77808,508.283076 1512.92608,508.283076 C1511.94108,507.258076 1510.95508,506.233076 1509.97008,505.208076 C1516.69208,501.543076 1523.41508,497.877076 1528.37508,495.173076 C1524.45708,477.277076 1520.44408,472.102076 1509.24608,471.705076 C1491.50708,471.075076 1473.67908,470.729076 1455.99008,471.858076 C1446.34308,472.474076 1435.19708,475.006076 1441.27108,489.910076 M1066.45608,491.747076 C1068.81008,501.448076 1074.13708,508.093076 1084.83008,508.226076 C1101.97508,508.439076 1119.13208,508.561076 1136.27208,508.192076 C1149.12508,507.915076 1152.73408,499.344076 1152.84108,488.073076 C1152.94808,476.801076 1147.54508,471.426076 1136.27408,471.505076 C1119.12708,471.625076 1101.97708,471.464076 1084.82908,471.561076 C1072.72908,471.629076 1065.94108,476.707076 1068.29308,489.910076 M2314.00108,440.302076 L2176.82008,440.302076 C2179.22008,447.267076 2181.29608,453.291076 2183.37108,459.315076 C2184.48908,459.211076 2185.60608,459.109076 2186.72308,459.005076 C2188.11608,453.383076 2189.50808,447.761076 2190.90008,442.139076 M2314.00108,458.675076 L2187.22608,458.675076 M888.235084,423.766076 C877.211084,399.268076 865.345084,375.099076 855.585084,350.108076 C851.774084,340.350076 847.960084,337.270076 835.287084,341.361076 C843.582084,371.275076 858.181084,397.900076 869.862084,425.603076 M1783.01408,822.466076 C1791.01008,838.984076 1799.00708,855.501076 1807.01308,872.039076 C1858.35608,856.225076 1890.56708,800.380076 1876.78408,743.445076 C1865.87808,698.390076 1814.41008,658.413076 1770.17008,662.794076 C1710.07408,668.747076 1673.98008,707.457076 1667.78508,754.553076 C1660.09108,813.035076 1693.92208,858.896076 1741.26708,871.715076 C1749.72708,852.097076 1758.10108,832.679076 1768.22008,809.214076 C1759.08508,807.388076 1750.83908,805.741076 1742.59208,804.092076 M2325.02508,482.560076 C2316.25708,485.741076 2307.48908,488.921076 2298.72108,492.101076 C2298.75108,493.166076 2298.78208,494.231076 2298.81208,495.296076 C2303.29808,496.420076 2307.78308,497.544076 2313.08308,498.873076 L2313.08308,547.786076 L2299.30308,547.786076 L2299.30308,493.892076 C2285.96208,506.057076 2281.92708,518.441076 2280.95808,532.170076 C2279.61908,551.148076 2278.57008,570.146076 2277.22408,589.123076 C2276.26908,602.602076 2285.36908,613.419076 2299.30508,614.826076 C2306.64108,615.566076 2314.00108,616.073076 2321.35108,616.685076 M1647.05108,594.637076 C1645.21408,595.862076 1643.18608,596.876076 1641.56708,598.342076 C1595.88108,639.700076 1582.82308,694.292076 1579.07008,752.648076 M269.056084,677.317076 L166.165084,677.317076 L94.5090839,677.317076 M1652.56308,460.512076 L1983.15108,460.512076 C1984.65008,454.003076 1985.80308,448.990076 1986.95708,443.976076 M2178.03908,440.302076 C2171.91508,439.689076 2165.79108,438.555076 2159.66608,438.544076 C2091.07208,438.417076 2022.47808,438.230076 1953.88608,438.538076 C1897.53908,438.790076 1841.19608,440.104076 1784.85108,440.168076 C1740.75608,440.219076 1696.65908,439.077076 1652.56308,438.464076 M1986.95708,458.675076 C1991.24408,459.288076 1995.53008,460.423076 1999.81808,460.433076 C2054.32608,460.553076 2108.83308,460.565076 2163.34008,460.432076 C2168.85408,460.418076 2174.36508,459.288076 2179.87608,458.675076 M1114.22608,199.612076 C1109.93908,198.387076 1105.61108,195.985076 1101.37208,196.133076 C1078.08508,196.948076 1054.73508,197.536076 1031.56808,199.832076 C1003.91608,202.573076 975.697084,204.243076 949.068084,211.385076 C921.330084,218.826076 895.430084,229.038076 874.296084,253.812076 C845.549084,287.511076 809.230084,314.751076 776.158084,344.761076 M2315.83908,662.619076 C2250.30708,663.843076 2184.77408,664.965076 2119.24808,666.436076 C2111.87508,666.602076 2104.54608,668.743076 2097.19708,669.968076 M1211.60508,203.287076 C1207.93008,242.483076 1204.10408,281.665076 1200.64808,320.881076 C1199.03108,339.220076 1197.51108,357.605076 1197.01008,375.998076 C1194.34008,473.983076 1191.86508,571.974076 1189.75508,669.972076 C1189.51808,680.964076 1193.39008,692.087076 1192.82208,703.018076 C1192.30908,712.918076 1188.33208,722.638076 1185.88208,732.437076 M893.747084,230.846076 C892.241084,227.040076 890.735084,223.235076 888.732084,218.172076 C838.220084,254.158076 790.027084,291.242076 739.040084,323.971076 C695.885084,351.672076 659.827084,391.623076 607.152084,403.679076 C606.263084,403.883076 605.801084,405.951076 604.786084,407.788076 C607.859084,411.884076 611.019084,416.098076 614.014084,420.091076 C618.148084,420.091076 622.069084,419.242076 625.458084,420.225076 C653.210084,428.272076 678.256084,423.427076 700.836084,405.404076 C724.682084,386.369076 748.598084,367.421076 772.483084,348.435076 M794.531084,469.699076 C755.947084,472.761076 717.362084,475.808076 678.780084,478.893076 C664.078084,480.070076 649.331084,480.908076 634.694084,482.652076 C606.485084,486.013076 578.322084,489.783076 550.172084,493.626076 C529.320084,496.474076 508.513084,499.656076 487.700084,502.784076 C459.519084,507.019076 431.353084,511.345076 403.180084,515.632076 M1259.37508,658.944076 L1547.83608,658.944076 M667.756084,763.671076 C666.531084,758.160076 664.770084,752.706076 664.165084,747.126076 C659.221084,701.490076 649.039084,657.061076 630.810084,614.934076 C612.049084,571.576076 584.651084,537.370076 531.795084,537.844076 C478.506084,538.323076 425.187084,539.221076 371.958084,541.624076 C324.146084,543.784076 291.996084,571.165076 269.056084,611.173076 M2021.86608,736.112076 C2013.66708,697.534076 2006.36608,658.644076 1990.50408,622.252076 C1977.79808,593.102076 1963.11108,562.760076 1933.22608,549.734076 C1905.31508,537.568076 1874.00408,531.305076 1843.55208,527.377076 C1809.66208,523.005076 1775.04408,523.082076 1740.75708,523.318076 C1710.45208,523.526076 1680.77508,529.537076 1652.56308,541.355076 M687.966084,467.862076 C670.818084,467.862076 653.644084,467.257076 636.526084,467.975076 C585.680084,470.108076 534.808084,472.053076 484.039084,475.448076 C447.211084,477.910076 410.396084,481.570076 373.821084,486.517076 C338.124084,491.345076 302.758084,498.590076 267.211084,504.564076 C249.360084,507.563076 237.948084,517.810076 230.344084,533.945076 C218.549084,558.972076 205.914084,583.603076 191.572084,612.570076 C230.960084,613.381076 266.544084,614.115076 302.127084,614.848076 M2009.00508,737.949076 C2007.78008,732.437076 2006.20008,726.977076 2005.38708,721.405076 C1998.92708,677.160076 1986.57508,634.866076 1962.97308,596.536076 C1949.98908,575.452076 1932.06108,558.258076 1907.83508,552.910076 C1870.92308,544.759076 1833.43308,537.540076 1795.82608,534.647076 C1746.54308,530.856076 1697.84808,538.425076 1650.72608,554.216076 M607.124084,416.416076 C601.612084,415.192076 595.960084,412.498076 590.613084,413.008076 C572.174084,414.766076 553.852084,417.727076 535.465084,420.072076 C506.078084,423.820076 476.717084,427.847076 447.261084,430.969076 C428.358084,432.973076 409.223084,432.830076 390.336084,434.943076 C351.083084,439.335076 311.785084,443.682076 272.776084,449.784076 C243.146084,454.418076 213.060084,459.136076 184.802084,468.646076 C160.089084,476.961076 132.690084,487.056076 131.053084,523.290076 C161.211084,524.910076 191.282084,526.524076 220.779084,528.108076 C208.658084,555.891076 196.598084,583.533076 184.539084,611.173076 M1977.77008,732.437076 C1979.60808,742.848076 1982.09608,753.196076 1983.13708,763.686076 C1984.89308,781.394076 1985.41608,799.226076 1987.24508,816.924076 C1987.57908,820.155076 1991.66708,822.997076 1994.02308,826.018076 C1995.60508,825.395076 1997.18608,824.773076 1998.76808,824.150076 C1996.56108,797.257076 1994.35308,770.365076 1991.99908,741.692076 C1996.56808,741.039076 2000.94108,740.348076 2005.33208,739.796076 C2034.72608,736.102076 2064.29008,733.399076 2093.45708,728.385076 C2109.74208,725.585076 2125.09408,716.248076 2141.34708,714.600076 C2181.60308,710.518076 2222.11308,708.657076 2262.56308,706.862076 C2300.17108,705.194076 2318.22308,689.627076 2321.14608,651.579076 C2324.48108,608.164076 2326.48408,564.639076 2328.57708,521.138076 C2329.34108,505.251076 2334.29108,486.023076 2327.34708,474.165076 C2317.71208,457.713076 2311.51008,444.742076 2321.22508,427.370076 C2321.60108,426.698076 2320.12708,424.990076 2319.51408,423.765076 C2097.80908,423.765076 1876.10508,423.765076 1654.40108,423.765076 M1634.19008,442.139076 C1609.08008,443.364076 1583.98108,444.943076 1558.85708,445.737076 C1511.70708,447.227076 1464.54908,448.582076 1417.38408,449.418076 C1334.09708,450.894076 1250.79908,451.808076 1167.51008,453.207076 C1108.09908,454.206076 1048.68308,455.224076 989.293084,457.010076 C961.703084,457.839076 934.193084,461.239076 906.602084,462.174076 C868.042084,463.482076 829.442084,463.778076 790.856084,464.125076 C757.776084,464.423076 724.690084,464.187076 691.720084,464.187076 C690.135084,469.617076 689.051084,473.332076 687.966084,477.048076 M1252.02608,658.944076 C1070.74308,658.944076 889.460084,658.888076 708.177084,659.024076 C688.578084,659.040076 668.980084,660.168076 649.382084,660.782076 M1647.05108,333.737076 C1643.98908,307.402076 1641.75308,280.934076 1637.56108,254.781076 C1634.96508,238.580076 1629.39808,222.854076 1623.91008,202.188076 C1590.49608,197.803076 1555.40908,189.499076 1520.27108,189.278076 C1413.10608,188.601076 1305.92008,190.979076 1198.74408,192.302076 C1170.56808,192.651076 1142.39908,193.488076 1114.22608,194.100076 M614.473084,739.787076 C612.636084,736.112076 609.808084,732.616076 609.108084,728.736076 C595.360084,652.545076 499.455084,579.490076 401.153084,606.815076 C334.029084,625.474076 275.061084,689.927076 274.544084,769.183076 C274.261084,812.537076 288.700084,850.082076 316.717084,883.190076 C377.745084,955.309076 489.408084,962.634076 559.152084,897.581076 C604.160084,855.601076 623.390084,803.410076 612.636084,741.624076 M1941.02408,732.437076 C1930.61208,711.614076 1922.47008,689.225076 1909.37908,670.251076 C1863.76708,604.141076 1773.81308,580.083076 1696.53808,618.278076 C1635.90308,648.248076 1587.04808,724.951076 1608.16808,811.515076 C1626.36208,886.086076 1690.39108,936.687076 1764.67608,941.327076 C1810.17208,944.169076 1851.50908,929.671076 1885.99108,897.891076 C1934.53508,853.152076 1951.69108,798.643076 1939.18708,734.274076 M686.129084,480.723076 C678.582084,518.366076 676.786084,556.507076 679.042084,594.622076 C681.874084,642.469076 690.923084,689.298076 706.907084,735.193076 L1514.27908,735.193076 C1537.84708,720.300076 1542.38908,692.836076 1549.11008,667.978076 C1558.79208,632.171076 1565.80408,595.625076 1564.62108,557.883076 C1563.47108,521.172076 1564.37208,484.398076 1564.37208,447.651076 M1566.20908,443.976076 C1565.59708,441.527076 1564.56008,439.098076 1564.43408,436.623076 C1561.90108,387.020076 1559.87808,337.386076 1556.80708,287.817076 C1555.70108,269.973076 1553.80208,251.838076 1549.25708,234.631076 C1543.28308,212.007076 1519.69808,200.066076 1490.87708,199.902076 C1370.23008,199.214076 1249.57608,199.612076 1128.92508,199.612076 C1125.25008,199.612076 1121.54908,199.322076 1117.90508,199.657076 C1078.70208,203.259076 1039.51308,207.009076 1000.31108,210.622076 C965.733084,213.807076 932.063084,219.994076 904.839084,243.786076 C870.871084,273.471076 837.402084,303.727076 803.718084,333.737076 M2323.18808,471.537076 C2112.50808,472.761076 1901.82708,473.957076 1691.14808,475.280076 C1678.28308,475.361076 1665.42508,476.436076 1652.56308,477.048076 M285.591084,771.021076 C286.816084,785.107076 285.612084,799.936076 289.657084,813.160076 C317.736084,904.963076 392.539084,944.498076 474.606084,929.598076 C571.650084,911.980076 621.118084,822.311076 601.512084,736.134076 C585.772084,666.956076 539.490084,624.881076 472.750084,612.516076 C413.811084,601.595076 360.223084,620.691076 320.319084,669.820076 C296.562084,699.069076 285.581084,732.251076 283.754084,769.183076 M1619.49208,203.287076 C1615.81708,198.387076 1613.07908,192.143076 1608.30808,188.816076 C1585.19708,172.699076 1557.29408,173.374076 1531.23408,170.912076 C1490.44908,167.057076 1449.23308,166.816076 1408.19908,166.809053 C1367.77808,166.801076 1327.35208,168.872076 1286.93608,170.253076 C1256.92008,171.281076 1226.90808,173.840076 1196.90808,173.652076 C1127.87508,173.217076 1059.32608,178.415076 991.138084,188.674076 C957.574084,193.724076 923.942084,198.958076 893.747084,216.148076 M120.232084,609.336076 C107.151084,614.316076 94.7230839,620.159076 94.5720839,636.896076 C94.3360839,663.229076 93.2780839,689.638076 94.8270839,715.882076 C96.6790839,747.247076 105.706084,754.270076 136.767084,754.565076 C155.757084,754.745076 174.735084,755.933076 193.726084,756.257076 C211.482084,756.561076 229.247084,756.322076 244.333084,756.322076 C258.317084,720.203076 271.037084,684.588076 285.868084,649.875076 C298.841084,619.511076 318.679084,594.009076 351.839084,583.956076 C372.100084,577.814076 393.289084,572.059076 414.225084,571.411076 C450.898084,570.275076 487.797084,571.933076 524.414084,574.811076 C556.107084,577.302076 586.280084,585.234076 603.498084,616.659076 C620.206084,647.150076 629.412084,679.949076 634.699084,714.061076 C637.583084,732.666076 640.628084,751.247076 642.976084,765.937076 C695.201084,763.191076 743.023084,758.640076 790.858084,758.500076 C1040.73208,757.770076 1290.61008,758.287076 1540.48608,757.921076 C1560.69908,757.891076 1580.90808,754.485076 1601.11808,752.648076 M1485.36708,217.985076 C1483.52908,216.760076 1481.69408,214.468076 1479.85408,214.464076 C1405.13708,214.285076 1330.41508,213.911076 1255.70308,214.580076 C1235.96008,214.755076 1227.11908,225.191076 1226.39508,245.548076 C1224.86908,288.409076 1223.84008,331.287076 1222.64708,374.159076 C1222.51108,379.054076 1223.57308,384.181076 1222.47308,388.820076 C1216.08308,415.769076 1224.82108,427.804076 1252.02508,427.358076 C1310.21108,426.403076 1368.38808,424.848076 1426.57308,423.834076 C1450.45108,423.418076 1474.34308,423.766076 1498.22808,423.766076 C1526.68508,423.766076 1539.18708,409.175076 1535.07308,381.493076 C1533.26508,369.331076 1531.97608,357.035076 1531.40608,344.755076 C1529.87108,311.699076 1529.36608,278.586076 1527.42208,245.557076 C1526.34208,227.204076 1507.03108,214.120076 1489.04208,217.991076 C1483.52308,219.178076 1478.02108,221.478076 1472.50508,221.500076 C1409.42408,221.751076 1346.34108,221.476076 1283.26108,221.826076 C1271.61908,221.890076 1259.63708,222.847076 1248.51708,225.934076 C1243.84308,227.232076 1238.15008,234.936076 1237.79408,240.066076 C1235.63308,271.235076 1235.07008,302.512076 1233.53408,333.731076 C1233.08008,342.956076 1229.75508,352.194076 1230.28208,361.279076 C1231.35108,379.760076 1224.58908,399.415076 1237.60908,417.673076 C1247.12708,418.463076 1256.93908,420.111076 1266.72208,419.955076 C1326.74608,419.002076 1386.76208,417.570076 1446.78408,416.463076 C1463.31408,416.158076 1479.85508,416.428076 1496.39008,416.414076 C1518.95908,416.394076 1524.29608,411.522076 1523.84808,388.859076 C1522.97408,344.755076 1521.70208,300.658076 1520.18408,256.572076 C1519.50308,236.774076 1510.07008,227.277076 1489.04108,223.498076 M765.134084,390.694076 C768.682084,398.001076 766.865084,402.462076 759.983084,407.704076 C754.987084,411.509076 753.328084,419.694076 750.180084,425.926076 C751.406084,427.656076 752.632084,429.385076 753.858084,431.115076 C771.703084,431.115076 789.559084,431.518076 807.390084,431.029076 C841.083084,430.103076 874.754084,428.353076 908.447084,427.509076 C967.235084,426.037076 1026.03908,425.180076 1084.82608,423.645076 C1101.38208,423.212076 1117.88408,420.929076 1134.44208,420.203076 C1150.20508,419.511076 1153.80608,406.484076 1155.93808,396.093076 C1161.27108,370.099076 1163.90708,343.545076 1167.48408,317.198076 C1170.06008,298.229076 1171.37608,279.023076 1175.12108,260.296076 C1179.75908,237.104076 1172.06208,225.071076 1149.13908,225.504076 C1123.40208,225.991076 1097.70008,228.496076 1071.96508,228.847076 C1030.35108,229.415076 988.776084,227.212076 948.717084,243.335076 C927.413084,251.911076 908.262084,262.584076 891.869084,278.575076 C870.158084,299.752076 848.157084,320.632076 823.005084,344.785076 C823.474084,337.305076 822.237084,332.239076 824.160084,330.290076 C839.671084,314.572076 856.173084,299.830076 871.622084,284.054076 C913.572084,241.220076 964.134084,220.901076 1024.20008,221.352076 C1068.89608,221.688076 1113.60908,218.980076 1158.32408,218.078076 C1182.42608,217.591076 1189.23408,226.824076 1186.03108,251.077076 C1181.75408,283.457076 1178.65708,315.991076 1174.81008,348.429076 C1172.62708,366.834076 1170.46408,385.268076 1167.35508,403.529076 C1164.67008,419.308076 1153.06208,428.418076 1134.43208,431.081076 C1132.63108,431.338076 1130.76208,431.087076 1128.92508,431.120076 C1059.10708,432.339076 989.286084,433.448076 919.470084,434.829076 C867.409084,435.858076 815.341084,436.868076 763.306084,438.731076 C750.585084,439.186076 742.023084,435.885076 736.435084,421.019076 C743.572084,412.250076 750.987084,401.795076 759.831084,392.735076 C765.997084,386.416076 769.863084,380.848076 765.134084,372.321076" transform="matrix(-1 0 0 1 2425 0)"/>
    <g transform="matrix(-1 0 0 1 2332 165)">
      <path id="frente" d="M24.1290447,446.173076 L210.127084,449.848076 L156.845084,593.971246 L24.1290447,589.485076 C8.04301489,580.581377 1.42108547e-14,563.433044 1.42108547e-14,538.040076 C1.42108547e-14,512.647108 0.83636129,486.597608 2.50908387,459.891576 L24.1290447,446.173076 Z"/>
      <path id="frente" d="M30.8550839,448.010076 C25.7929918,421.025522 23.5509787,402.843601 24.1290447,393.464312 C25.1290644,377.238699 34.3660882,363.299339 37.103007,354.307076 C44.7680839,329.123139 49.0296131,313.853218 75.8851327,306.504218 C102.740652,299.155218 238.207084,267.811955 341.756084,262.370015 C410.788751,258.742056 465.821917,252.947409 506.855584,244.986076 L524.310084,256.928076 L586.133817,256.928076 L608.043068,238.555076 C591.366717,344.055701 584.063634,412.716061 586.133817,444.536155 C588.529149,481.354004 601.478084,527.016076 608.043068,554.575576 C610.753801,565.955107 620.244905,563.971099 620.244905,572.949076 C620.244905,578.981076 621.877867,590.833139 620.244905,593.971246 C619.322534,595.74379 619.322534,597.3104 620.244905,598.671076 L550.976084,600.937076 C539.323417,514.189762 521.440151,459.198445 497.326287,435.963124 C473.212422,412.727803 452.810021,405.719787 436.119084,414.939076 C411.157875,408.206646 391.865875,404.561135 378.243084,404.002542 C340.570455,402.457803 301.495489,409.426576 298.319084,409.426576 C290.970084,409.426576 221.919351,423.367046 221.919351,446.173076 C221.919351,456.016477 192.241124,450.912324 142.146084,448.010076 C123.958576,446.956386 86.8615763,446.956386 30.8550839,448.010076 Z"/>
      <path id="derecha_1" d="M620.970666,594.909602 C597.7461,509.265933 586.133817,449.275758 586.133817,414.939076 C586.133817,380.602394 591.939959,336.506394 603.552241,282.651076 L603.552241,244.985576 C643.017711,213.05795 672.642158,188.254117 692.425584,170.574076 C712.209009,152.894036 737.987509,128.185394 769.761084,96.4481517 L820.257912,58.449678 C853.390724,44.7262703 890.000099,36.741562 930.086037,34.4955531 C970.171974,32.2495441 1033.34499,29.5772146 1119.60508,26.4785645 L1100.95322,426.422076 L1100.95322,495.782076 L1100.95322,538.040076 L1084.91026,593.971246 L620.970666,594.909602 Z"/>
      <path id="derecha_2" d="M1079.30283 594.909602C1087.97174 572.946283 1093.16141 555.214441 1094.87184 541.714076 1096.58228 528.213711 1096.58228 513.515378 1094.87184 497.619076L1106.74358 291.837076 1106.74358 123.777803 1119.60508 24.1592274C1292.56598 21.3464295 1396.68098 20.4972828 1431.95008 21.6117874 1484.85374 23.2835442 1524.23838 31.1265396 1531.91008 37.1880761 1537.02455 41.2291004 1545.04455 85.0787671 1555.97008 168.737076L1555.97008 227.532076C1550.7093 266.969773 1547.9533 294.690442 1547.70208 310.694083 1546.93959 359.267915 1552.42199 389.566441 1558.72608 417.867647 1564.39834 443.33231 1566.10452 459.891576 1566.10452 480.293428 1566.10452 497.199162 1539.17389 513.081064 1527.15049 534.365076 1519.13489 548.554418 1514.23044 566.315418 1512.43713 587.648076L1462.0001 594.909602 1079.30283 594.909602z"/>
      <path id="frente" d="M506.855584 244.985576L547.000099 227.532076 796.235084 51.1480761 801.747084 65.8460761 782.296084 88.8120761 698.857084 163.415342 627.867287 227.532076C605.375818 248.500718 588.005417 258.985039 575.756084 258.985039 563.506751 258.985039 545.592751 257.687052 522.014084 255.091076L506.855584 244.985576z"/>
      <path id="derecha_3" d="M1548.0001 258.809053L2227.8121 265.058045C2224.1381 269.957378 2224.1381 280.981378 2227.8121 298.130045 2229.46681 305.853518 2239.1337 302.349715 2239.30128 331.259354 2239.43261 354.778905 2235.60289 413.106985 2227.8121 506.243593 2224.43488 528.573561 2210.31535 542.494712 2185.4535 548.007045 2160.59166 553.519378 2115.32219 556.148045 2049.6451 555.893045L2005.4951 572.943045 1900.9985 580.282045 1909.25124 662.461545 1900.9985 666.031045 1889.28385 573.730045 1867.25124 492.048111C1863.29829 472.387575 1858.02208 459.017205 1851.42262 451.937003 1841.98307 441.80983 1825.46164 430.524234 1810.11843 428.581045 1791.93868 426.278614 1752.74753 413.266512 1709.6851 412.343123 1641.06242 410.871645 1564.21378 423.401515 1559.0241 432.715045 1553.39321 442.820378 1549.71854 384.851714 1548.0001 258.809053z"/>
      <path id="arriba" d="M801.747084 65.8460761L796.235084 49.1971873C819.57037 37.6335251 838.556037 30.0606509 853.192084 26.4785645 907.255089 13.2469627 968.884707 9.95749048 1017.64936 9.95749048 1047.75743 9.95749048 1083.87525 7.08497804 1119.60508 6.03756861 1150.03186 5.14561676 1199.19218 3.73611156 1267.08604 1.80905298 1396.90778-2.22647997 1473.00219.489665867 1495.36924 9.95749048 1517.73629 19.4253151 1528.44391 27.6046693 1527.49208 34.4955531L1443.83829 24.1592274 1022.22608 31.1265396C969.434982 33.9003873 933.975539 36.2872328 915.847756 38.2870761 872.150952 43.1076743 849.447946 50.2411817 852.86945 49.1971873 858.420091 47.5035352 841.379303 53.0531649 801.747084 65.8460761z"/>
    </g>
  </g>
</svg>
