<svg xmlns="http://www.w3.org/2000/svg" width="2425" height="1108" viewBox="0 0 2425 1108">
  <g fill="none" fill-rule="evenodd">
    <path id="esqueleto" stroke="#000" stroke-width="6" d="M1862.59218,688.116 C1858.70218,694.208 1858.70218,694.208 1867.47418,699.484 C1866.45318,695.694 1865.43118,691.905 1864.41018,688.116 M1669.93318,134.354 C1655.39218,109.467 1641.68918,83.853 1625.86918,60.074 C1620.14218,51.466 1609.69918,46.436 1600.71818,41.365 C1596.22018,38.825 1590.17218,39.858 1582.29718,39 C1596.26618,66.445 1608.11818,89.732 1621.32818,115.688 L1599.04918,115.688 C1479.09118,115.688 1359.13218,115.301 1239.17618,115.878 C1190.70418,116.111 1142.23918,118.397 1093.77218,119.849 C1018.97718,122.091 944.58818,115.979 870.17618,107.849 C833.44018,103.836 796.30618,103.648 759.34418,103.434 C662.41118,102.871 565.46018,102.204 468.54518,103.815 C435.17818,104.37 401.97418,113.301 368.55418,115.248 C325.62018,117.75 282.54418,117.524 239.52818,117.613 C207.41918,117.679 175.30218,115.643 143.20118,115.999 C127.09718,116.177 114.68618,134.479 114.11818,155.095 M1862.59218,406.05 C1860.51918,409.529 1858.44618,413.009 1855.14618,418.547 C1868.12118,418.538 1871.61918,415.348 1864.41018,406.05 M2262.45118,159.243 C2258.21018,153.02 2253.96918,146.799 2249.72818,140.577 M2269.72118,893.442 C2267.90418,892.751 2266.08618,892.06 2264.26918,891.369 M2275.17418,874.776 C2273.35618,874.085 2271.53918,873.394 2269.72118,872.703 M2269.72118,213.167 C2267.90418,214.55 2266.08618,215.932 2264.26918,217.315 M2246.09318,963.959 C2244.27618,963.959 2242.44418,963.845 2240.66318,964.14 C2240.49118,964.168 2240.64018,966.724 2240.64018,968.107 M2284.26118,379.088 C2285.47318,376.322 2286.68518,373.557 2287.89718,370.792 M1728.09418,926.627 C1725.67118,929.392 1723.24718,932.157 1720.82418,934.923 M1619.04118,186.205 C1628.12918,182.748 1637.21718,179.291 1646.30518,175.835 M866.58018,111.54 L866.58018,126.058 M1644.48718,150.946 C1637.21718,139.886 1629.94718,128.824 1622.67618,117.762 M722.99418,802.186 L722.99418,816.704 L733.89918,816.704 L733.89918,802.186 M166.82618,804.261 L166.82618,818.778 M168.64418,289.905 C169.25018,294.745 169.85518,299.584 170.46118,304.424 M1553.61018,903.812 C1557.24518,905.887 1560.88018,907.961 1564.51518,910.035 M1619.04218,926.627 C1619.64718,925.935 1620.25318,925.244 1620.85918,924.553 C1620.25318,923.861 1619.74318,922.758 1619.02718,922.543 C1611.78118,920.364 1604.50118,918.331 1597.23118,916.257 M166.82618,617.599 L166.82618,632.117 M168.64418,538.787 C169.25018,533.947 169.85518,529.108 170.46118,524.268 M170.46118,476.566 L170.46118,491.085 M1604.50118,190.352 C1617.19918,194.113 1615.68018,173.538 1626.31218,173.761 M1597.23118,186.205 C1579.05618,191.044 1560.87718,195.867 1542.71818,200.787 C1542.00818,200.979 1541.02018,202.105 1541.02018,202.797 C1541.02018,203.488 1542.09918,204.18 1542.70518,204.871 M170.46118,430.938 L170.46118,445.456 M906.56518,934.923 C907.61418,940.495 908.66318,946.066 909.78018,951.995 C914.97618,953.269 919.85818,954.466 924.74118,955.663 M168.64418,708.855 L168.64418,725.448 M1537.25218,899.665 C1541.49318,901.739 1545.73418,903.812 1549.97518,905.887 M722.99418,428.864 L722.99418,447.53 L733.89918,447.53 L733.89918,428.864 M732.08218,493.158 C732.68718,486.936 733.29318,480.715 733.89918,474.492 M722.99418,756.558 L722.99418,775.224 L733.89918,775.224 L733.89918,756.558 M1513.62418,897.591 C1514.23018,896.899 1514.83618,896.208 1515.44218,895.516 C1514.83618,894.826 1514.29618,893.64 1513.61318,893.521 C1508.78718,892.681 1503.93118,892.06 1499.08418,891.369 M722.99418,383.236 L722.99418,401.902 L733.89918,401.902 L733.89918,383.236 M733.89918,661.153 C733.29318,667.376 732.68718,673.597 732.08218,679.819 M1509.98918,215.241 L1528.02418,215.241 C1524.97318,210.295 1523.91818,208.586 1521.24318,204.251 C1528.04818,203.696 1533.55918,203.247 1539.07018,202.797 M724.81118,679.819 C724.20618,673.597 723.60018,667.376 722.99418,661.153 M1246.44618,943.219 C1246.19218,953.35 1250.21718,957.787 1259.16818,955.663 M2264.26918,945.293 C2256.99818,953.589 2249.72818,961.885 2242.45818,970.181 M722.99418,615.525 L722.99418,634.191 L733.89918,634.191 L733.89918,615.525 M722.99418,569.897 L722.99418,588.563 L733.89918,588.563 L733.89918,569.897 M724.81118,708.855 C724.09018,715.718 723.36918,722.579 722.63218,729.595 L734.26118,729.595 C733.52418,722.579 732.80318,715.718 732.08218,708.855 M1488.17918,219.388 L1509.84918,219.388 C1506.79718,214.443 1505.74318,212.733 1503.06818,208.398 C1509.87218,207.844 1515.38318,207.394 1520.89418,206.945 M1533.61718,901.739 C1534.22318,901.048 1535.30218,900.356 1535.30218,899.665 C1535.30118,898.973 1534.28318,897.774 1533.60818,897.671 C1528.17218,896.837 1522.71218,896.208 1517.25918,895.516 M1370.03818,225.611 L1351.86318,225.611 M1370.03818,229.759 L1351.86318,229.759 M722.99418,403.976 L722.99418,425.753 L733.89918,425.753 L733.89918,403.976 M722.99418,731.67 L722.99418,753.447 L733.89918,753.447 L733.89918,731.67 M722.99418,333.46 L722.99418,357.426 C736.06418,353.39 737.88018,341.509 731.56018,336.37 C721.50418,328.193 723.22818,318.786 722.99418,308.571 M722.99418,590.637 L722.99418,613.451 L733.89918,613.451 L733.89918,590.637 M722.99418,777.298 L722.99418,800.112 L733.89918,800.112 L733.89918,777.298 M722.99418,636.265 L722.99418,659.079 L733.89918,659.079 L733.89918,636.265 M722.99418,449.604 L722.99418,471.382 L733.89918,471.382 L733.89918,449.604 M1471.82118,893.442 L1495.44918,893.442 M112.30018,194.501 C119.57018,195.192 126.84018,195.884 134.11118,196.575 M722.99418,358.347 L722.99418,380.125 L734.75518,380.125 C733.77918,371.418 732.93018,363.846 732.08218,356.273 M108.66518,912.109 L130.47618,912.109 M722.99418,681.893 L722.99418,706.787 C724.18318,707.461 725.37318,708.136 726.56218,708.809 C729.00818,706.059 733.91518,702.511 733.46418,700.701 C731.70118,693.627 740.54718,681.486 726.62918,679.819 M732.08218,520.121 C732.94018,511.857 733.79918,503.595 734.65218,495.388 C730.25018,493.902 726.57718,492.663 722.99418,491.454 L722.99418,474.492 M732.08218,333.46 C732.94018,325.196 733.80018,316.933 734.65818,308.671 C733.32118,309.374 731.98518,310.078 730.64718,310.782 C728.09618,305.897 725.54518,301.013 722.99418,296.128 M2260.63418,163.39 C2261.73618,165.539 2262.83818,167.687 2264.69618,171.312 C2251.70818,182.144 2253.92318,196.039 2260.37118,211.238 C2262.62418,216.55 2261.84518,223.537 2262.45118,229.759 M946.55118,215.241 L921.10618,217.315 M1593.59618,918.331 C1594.20218,917.639 1595.28018,916.948 1595.28018,916.257 C1595.28018,915.565 1594.28918,914.432 1593.58318,914.25 C1585.12118,912.072 1576.63218,910.035 1568.15018,907.961 M2217.01218,138.503 C2226.10018,140.577 2235.18818,142.65 2244.27618,144.724 M1266.43918,155.095 C1255.48118,159.791 1246.51418,165.885 1251.89818,182.056 M2280.62618,385.309 C2279.41518,360.422 2278.20318,335.534 2276.99118,310.645 M2273.35618,211.093 C2270.93318,199.341 2268.50918,187.588 2266.08618,175.835 M1291.88418,217.315 C1280.97918,218.006 1270.07418,218.697 1259.16818,219.388 M170.46118,165.465 L170.46118,204.871 M2237.00618,966.033 C2227.45918,967.696 2217.91318,969.359 2208.36618,971.021 C2207.76718,969.743 2207.16818,968.465 2206.56818,967.186 C2203.99118,972.333 2201.41418,977.479 2198.83718,982.625 M170.46118,943.219 C169.85518,930.084 169.25018,916.948 168.64418,903.812 M2278.80918,798.038 C2280.99518,803.688 2283.18118,809.339 2285.36818,814.989 L2289.71418,814.784 C2289.71418,800.906 2290.12418,787 2289.38418,773.173 C2289.22818,770.25 2284.86718,767.619 2282.44418,764.854 M1171.92618,150.946 C1193.72618,151.916 1191.28718,172.861 1195.06118,189.095 C1200.33618,176.164 1202.32818,163.913 1193.62918,153.135 C1187.12418,145.075 1179.36518,140.016 1170.10918,148.873 M775.70318,924.553 L775.70318,999.218 M1310.06018,217.315 C1304.60718,217.315 1297.43718,219.87 1294.00418,216.866 C1280.24618,204.828 1265.57818,205.235 1250.08118,209.019 M722.99418,520.121 L722.99418,566.786 L734.27518,566.786 C727.98018,550.784 744.14718,529.615 723.36118,515.279 C720.67918,513.429 722.99418,502.146 722.99418,495.232 M1259.16818,959.81 C1281.58518,959.12 1304.00118,958.428 1326.41718,957.737 M961.09218,211.093 C947.84318,196.811 932.25018,195.9 915.65318,200.722 M2215.19518,963.959 C2233.58018,954.917 2243.85118,937.037 2253.36318,918.331 M792.06118,1001.291 C787.82018,975.712 783.57918,950.133 779.33818,924.553 M2276.99118,893.442 C2280.02118,867.863 2283.05018,842.284 2286.07918,816.704 M2275.17418,231.833 C2262.83618,237.34 2267.51018,249.813 2268.35518,258.739 C2269.94218,275.494 2274.21418,291.918 2277.38618,308.571 C2277.59718,308.571 2278.41618,308.86 2278.77118,308.52 C2280.07918,307.267 2281.23218,305.806 2282.44418,304.424 M1262.80418,148.873 C1257.35118,154.403 1250.02418,158.814 1246.86018,165.712 C1241.31618,177.798 1238.32818,191.408 1233.31318,207.432 C1240.34218,212.981 1247.02918,218.259 1253.71618,223.537 M1544.52218,206.945 C1559.06318,203.488 1573.85418,201.001 1588.04818,196.208 C1596.44418,193.374 1603.89518,186.896 1611.77118,182.056 M2278.80918,298.201 C2280.62318,298.903 2282.43818,299.605 2288.08618,301.79 C2284.21918,270.898 2280.60518,242.033 2276.99118,213.167 M2282.44418,727.521 C2280.62618,745.497 2278.23218,763.425 2277.10718,781.456 C2274.46418,823.823 2268.28818,865.36 2257.06518,905.911 C2254.32218,915.82 2252.92518,925.891 2262.45118,932.848 M661.19718,930.775 C684.22018,931.467 707.24018,932.437 730.26518,932.603 C734.67218,932.636 740.90718,930.733 735.71718,922.479 M1744.45218,119.837 C1742.14618,124.725 1739.84018,129.614 1738.58318,132.28 C1717.80118,132.28 1698.28118,130.822 1679.08818,133.041 C1672.00518,133.86 1665.69218,143.342 1659.02718,148.873 M761.16218,171.686 C761.90718,168.975 762.65318,166.263 764.64418,159.02 C756.28018,162.611 747.78818,163.208 745.34318,167.904 C739.09918,179.902 730.12518,177.6 721.17618,177.917 C702.39418,178.582 683.61418,179.291 664.83218,179.982 M1664.48018,992.995 C1695.98418,993.686 1727.48618,994.815 1758.99318,994.976 C1820.78818,995.292 1882.58918,995.603 1944.38018,994.931 C2017.08718,994.14 2089.81018,993.18 2162.47118,990.41 C2185.58918,989.529 2208.58918,982.98 2231.49118,978.098 C2234.96518,977.358 2237.61218,971.564 2240.64118,968.107 M1480.90818,215.241 C1452.43418,216.624 1423.93018,217.521 1395.50418,219.719 C1388.10318,220.291 1380.94418,224.92 1373.67418,227.685 M1791.70818,692.263 C1792.92018,677.746 1795.28018,663.208 1795.09418,648.714 C1794.74818,621.737 1792.43618,594.799 1791.84218,567.819 C1791.23518,540.182 1792.06018,512.508 1791.54218,484.866 C1791.32218,473.09 1789.28418,461.357 1788.07318,449.604 M1737.18218,196.575 C1712.34218,204.18 1687.56618,212.07 1662.64618,219.315 C1633.03018,227.926 1602.60818,233.763 1573.89918,245.242 C1560.17418,250.729 1549.59518,266.464 1539.24418,276.029 C1546.79418,326.464 1553.83718,373.515 1560.88018,420.568 M719.35918,918.331 C720.57018,907.269 722.55418,896.233 722.83118,885.141 C723.38118,863.037 722.99418,840.901 722.99418,818.778 M784.79018,250.499 C786.00218,246.351 788.03418,242.27 788.29818,238.045 C790.93118,195.89 793.27218,153.712 795.69518,111.54 M1388.21418,225.611 L1484.56718,225.611 C1485.04218,223.839 1485.51718,222.065 1485.99218,220.293 C1484.90418,218.609 1483.74018,216.974 1482.82318,215.176 C1482.71318,214.96 1483.93718,213.858 1486.36018,211.093 L1502.71918,211.093 M1224.63518,972.255 C1224.63518,958.428 1225.34518,944.545 1224.49218,930.787 C1222.51918,898.948 1219.78918,867.172 1217.36518,835.37 M1037.42818,889.295 C1045.30418,889.986 1053.17118,891.028 1061.05818,891.304 C1085.89318,892.172 1110.73618,892.752 1135.57618,893.442 M604.85418,941.145 C610.30618,939.762 615.71718,938.088 621.22018,937.056 C633.30918,934.79 648.32318,937.168 656.87718,929.746 C669.20718,919.05 681.20918,920.885 693.91518,920.496 C707.26218,920.088 720.62518,920.405 733.89918,920.405 L733.89918,818.778 M1028.34118,889.295 L930.19418,889.295 L930.19418,899.643 C924.93418,898.797 918.39318,897.744 910.93518,896.544 C901.01918,905.811 893.56818,917.608 899.33718,934.905 C899.61518,935.738 900.50718,936.305 901.11318,936.997 C901.71918,936.305 902.32518,935.614 902.93018,934.923 M1211.91218,273.313 C1212.51818,265.709 1212.64418,258.007 1213.80918,250.515 C1220.54618,207.204 1223.59818,163.729 1219.18318,119.837 M597.58318,167.539 C612.73018,169.613 627.87318,171.711 643.02518,173.728 C644.81918,173.967 647.22618,172.894 648.39018,173.889 C668.80418,191.337 693.04718,185.012 717.00218,186.471 C729.22318,221.835 719.45318,257.514 723.91218,293.016 L732.99018,293.016 L732.99018,186.044 C728.87518,186.719 724.11718,187.499 719.35918,188.279 M1735.36418,918.331 C1753.45043,881.191062 1764.67018,841.317533 1772.94161,800.260651 C1773.78436,796.077505 1774.5965,791.882075 1775.38218,787.676 C1776.30118,782.758 1776.50918,782.807 1771.71518,775.224 M1453.64518,215.241 C1443.34618,212.475 1433.16518,208.635 1422.72618,207.139 C1386.13118,201.898 1349.49518,198.52 1313.69518,213.167 M1637.21718,961.885 C1619.37018,996.268 1601.52318,1030.652 1583.58018,1065.221 C1599.19518,1071.353 1602.29318,1071.48 1613.51618,1061.333 C1639.42618,1037.91 1655.02118,1006.028 1671.79418,968.524 C1668.57118,966.913 1665.61718,965.435 1662.66318,963.959 M1637.21718,148.873 C1589.96118,148.873 1542.70518,148.805 1495.44918,148.964 C1489.99518,148.982 1484.54318,150.255 1479.09118,150.946 M1131.94118,209.019 C1092.06018,194.692 1051.70718,190.393 1010.09318,198.14 C996.61218,200.65 982.79318,199.248 971.99718,211.093 M997.44318,148.873 L1168.29118,148.873 M1437.28718,880.999 C1399.11918,880.307 1360.95218,879.503 1322.78218,878.971 C1303.37918,878.702 1283.97018,878.925 1264.56418,878.925 L1266.36318,884.679 C1262.75318,886.909 1259.14318,889.138 1255.53318,891.369 M1173.74418,144.724 C1170.10918,143.342 1166.47818,140.773 1162.83818,140.755 C1110.73618,140.494 1058.63318,140.468 1006.53118,140.757 C1001.67818,140.784 996.83718,143.342 991.99018,144.724 M1586.32618,555.379 C1582.08518,570.589 1577.71118,585.752 1573.66818,601.029 C1572.05818,607.114 1570.96918,613.409 1570.00018,619.679 C1559.72818,686.184 1554.68918,753.764 1537.74518,818.945 C1535.90918,826.005 1540.88718,835.37 1542.70518,843.667 M586.67818,939.071 C577.97718,921.121 582.24318,906.57 597.59918,903.93 C624.20018,899.357 650.82118,894.518 677.59118,891.822 C689.58118,890.615 694.21418,885.454 693.90618,872.703 C693.32318,848.506 692.70118,824.308 692.09518,800.112 M692.09618,308.571 C692.70218,283.683 693.71418,258.796 693.744208,233.907 C693.76018,221.209 686.86918,216.32 675.76618,214.947 C649.62718,211.716 623.52118,207.656 597.66818,202.267 C591.64218,201.011 584.42918,194.329 581.79918,187.97 C578.56418,180.146 581.55618,171.183 590.31318,167.539 M1662.66318,163.39 C1608.46518,150.048 1553.57118,160.532 1499.08718,157.102 C1489.28318,156.486 1477.82618,161.526 1471.51918,146.969 C1470.68418,145.04 1465.76318,144.818 1462.73318,144.812 C1399.11918,144.696 1335.50518,144.69 1271.89118,144.851 C1269.35318,144.858 1266.81918,146.728 1259.86918,149.472 C1268.07718,151.333 1271.80018,152.903 1275.52718,152.912 C1339.14018,153.063 1402.75418,153.038 1466.36818,152.933 C1468.18618,152.93 1470.00318,151.637 1471.82118,150.947 M168.64418,868.554 C158.55618,871.914 153.71918,880.499 156.52918,891.16 C157.76718,895.855 165.61618,901.289 170.46118,901.287001 C240.74018,901.255 311.02218,900.619 381.29018,899.242 C388.02118,899.11 394.66518,893.07 400.85118,890.018 C395.99818,872.88 388.43918,870.235 377.65918,870.357 C324.95518,870.956 272.24318,870.789 219.53518,870.533 C203.17518,870.454 186.81918,869.246 170.46118,868.554 M1330.05218,959.811 C1332.47618,960.502 1334.89918,961.795 1337.32318,961.798 C1416.08318,961.903 1494.84418,962.184 1573.60218,961.695 C1596.02418,961.555 1618.42718,958.889 1640.85618,957.832 C1652.37618,957.289 1663.93218,957.737 1675.47218,957.737 L1675.98818,952.165 C1661.19818,935.916 1641.69218,930.815 1622.67618,924.553 M924.74118,211.093 C1011.96918,213.077 1099.19718,215.06 1188.28418,217.086 L1188.28418,182.056 L1170.10918,182.056 C1106.49518,182.056 1042.88018,181.874 979.26818,182.152 C955.63718,182.256 932.01118,183.439 908.38318,184.131 M946.55118,221.463 C947.76318,222.154 948.97418,223.449 950.18618,223.451 C1025.91718,223.547 1101.64918,223.676 1177.37818,223.282 C1183.63818,223.25 1189.88418,219.617 1195.55418,217.839 L1195.55418,190.352 M2280.62618,715.078 C2282.44418,685.35 2286.03718,655.599 2285.73418,625.9 C2284.94318,548.456 2282.44418,471.036 2280.62618,393.606 M924.74118,961.885 C930.80018,963.267 936.85418,965.831 942.91718,965.853 C1016.82918,966.13 1090.76018,964.994 1164.64618,966.632 C1188.48218,967.161 1206.89118,950.78 1197.37218,920.405 M690.27818,814.631 C675.73818,815.322 661.19918,816.538 646.65718,816.609 C596.37218,816.856 546.08118,817.219 495.80318,816.508 C466.52618,816.095 443.24818,830.775 425.38518,854.495 C410.20218,874.655 414.23018,901.763 414.01918,926.627 C413.97218,932.157 414.01218,937.688 414.01218,943.219 M415.82918,165.465 C415.82918,180.675 416.11618,195.892 415.75518,211.091 C415.32418,229.221 418.12418,245.549 430.27718,258.905 C444.79418,274.858 461.07218,288.421 481.27818,289.473 C532.72318,292.153 584.25118,292.971 635.75418,293.891 C653.91518,294.215 672.10318,292.671 690.27818,291.979 M2291.53118,764.854 C2292.13718,755.176 2292.84818,745.504 2293.32918,735.816 C2294.60018,710.241 2296.95718,684.648 2296.77218,659.082 C2296.09918,566.437 2294.87018,473.794 2293.14418,381.167 C2292.68018,356.246 2289.71518,331.386 2287.89718,306.498 M1648.12218,155.095 C1657.17618,154.028 1666.23118,152.961 1675.28518,151.894 C1675.69318,153.633 1676.10018,155.37 1676.50818,157.107 C1668.86518,162.664 1661.22318,168.22 1656.45718,171.686 C1626.91718,171.686 1600.26018,171.62 1573.60318,171.778 C1570.57118,171.796 1567.55418,173.611 1564.51418,173.68 C1499.69018,175.169 1434.85418,176.098 1370.04218,178.067 C1330.03618,179.282 1290.06618,182.046 1249.17218,184.161 C1246.99518,190.022 1244.67118,196.281 1241.82718,203.938 C1246.43118,208.43 1250.98718,212.866 1255.52818,217.323 C1256.17518,217.959 1257.21818,218.697 1257.21818,219.388 C1257.21818,220.08 1256.13918,220.771 1255.53318,221.464 M1522.71218,279.535 C1516.65418,278.845 1510.59518,277.559 1504.53618,277.551 C1413.65918,277.422 1322.78218,277.462 1231.90518,277.462 L810.23618,277.462 M1628.12918,972.255 C1597.83718,971.563 1567.54018,970.152 1537.25418,970.416 C1514.22418,970.616 1491.20918,974.115 1468.18618,974.147 C1248.86918,974.452 1029.55218,974.312 810.23618,974.416 C804.17718,974.419 798.11918,975.712 792.06118,976.403 M1626.31218,132.28 C1350.65118,130.898 1074.99118,129.515 799.33118,128.133 M810.23618,831.222 C816.29418,831.914 822.35718,833.246 828.41118,833.198 C897.47818,832.661 966.54418,831.823 1035.61118,831.245 C1128.91118,830.464 1222.21118,829.65 1315.51218,829.212 C1383.97218,828.889 1452.43418,829.148 1520.89418,829.148 M1217.36518,856.111 C1211.30718,856.803 1205.24918,858.085 1199.18918,858.096 C1122.24718,858.231 1045.30318,857.873 968.36318,858.37 C944.72718,858.523 921.10318,860.886 898.72618,862.165 C876.13418,875.982 872.01318,900.783 868.83018,924.628 C865.64618,948.482 865.97418,972.946 864.76218,997.143 M2289.71418,739.966 C2286.62718,732.393 2283.53918,724.821 2278.91418,713.478 C2264.49418,716.612 2248.88918,719.754 2233.37818,723.417 C2178.22618,736.442 2122.87318,748.503 2068.03218,763.063 C1996.47318,782.064 1922.83018,791.132 1853.52818,820.925 C1841.84818,825.945 1830.48218,831.914 1818.97118,837.444 M2246.09318,142.65 C2246.69918,141.959 2247.77818,141.268 2247.77818,140.577 C2247.77818,139.886 2246.80718,138.916 2246.07718,138.545 C2236.40818,133.642 2227.02618,126.01 2216.95218,124.517 C2188.04418,120.238 2158.86318,116.28 2129.76818,116.067 C2007.39218,115.172 1885.00818,115.546 1762.62718,115.784 C1729.91118,115.847 1697.19618,117.071 1664.48018,117.762 M2269.72118,383.236 C2220.61118,355.996 2168.05118,341.171 2115.23518,327.215 C2060.68818,312.8 2006.19118,298.135 1951.64718,283.704 C1906.83618,271.849 1861.99018,260.159 1817.13018,248.546 C1816.10818,248.281 1814.73018,249.807 1813.51918,250.499 M777.52018,920.405 L777.52018,880.084 C798.90518,866.504 808.37018,845.166 808.61318,816.707 C809.24518,742.727 811.31218,668.762 811.87818,594.783 C812.22218,549.856 811.09518,504.904 810.16218,459.976 C809.29918,418.487 807.56618,377.02 806.74018,335.53 C806.46518,321.726 807.81218,307.88 808.41818,294.054 M2253.36318,188.279 C2250.94018,184.131 2248.58018,179.932 2246.08318,175.843 C2232.34118,153.349 2216.34418,136.366 2189.75118,136.203 C2040.71018,135.289 1891.67318,133.663 1742.63418,132.28 M1733.54718,184.131 C1745.97518,176.371 1759.12318,181.008 1771.68118,182.443 C1788.37518,184.351 1797.98818,197.301 1802.61318,215.241 C1806.72418,231.185 1810.83418,247.13 1814.92918,263.016 C1859.09918,292.662 1908.15118,303.463 1957.09218,314.861 C2006.22118,326.305 2055.27718,338.162 2104.31818,350.089 C2157.66318,363.061 2210.93818,376.407 2264.29618,389.309 C2268.93518,390.431 2273.96218,389.458 2278.80918,389.458 M1813.51918,854.037 C1814.73018,854.728 1816.11818,856.263 1817.12818,855.988 C1854.72118,845.763 1892.23618,835.165 1929.85018,825.042 C2017.67118,801.407 2105.80018,779.169 2193.23118,753.794 C2220.87318,745.77 2246.69918,729.595 2273.35618,717.152 M1797.16118,912.109 C1815.94218,916.257 1834.74018,923.925 1853.50118,923.806 C1890.47018,923.574 1927.42418,919.13 1964.37118,916.198 C1977.11618,915.186 1989.84018,913.692 2002.53918,912.069 C2034.05518,908.042 2065.53318,903.623 2097.06118,899.725 C2121.87218,896.658 2146.76618,894.455 2171.56618,891.286 C2201.28718,887.488 2230.94718,883.073 2260.63418,878.925 M2267.90418,238.055 C2255.65218,218.383 2236.13918,229.397 2220.39218,224.638 C2193.44918,216.498 2164.94618,214.885 2137.03018,211.199 C2112.24118,207.927 2087.32318,205.936 2062.53118,202.699 C2034.01418,198.974 2005.58618,194.362 1977.09118,190.416 C1964.40718,188.659 1951.67518,186.937 1938.92418,186.329 C1902.58618,184.594 1866.22718,182.564 1829.87618,182.589753 C1818.96918,182.597 1808.06618,188.971 1797.16118,192.427 M2200.65418,970.181 C2150.97518,970.181 2101.29218,969.745 2051.61718,970.272 C1949.83218,971.351 1848.05218,972.949 1746.26918,974.322 C1742.02918,974.38 1737.78818,974.329 1733.54718,974.329 M168.64418,206.945 C157.81218,207.317 154.12718,216.004 156.54918,225.4 C157.91818,230.716 165.61118,237.507 170.46218,237.513 C240.13418,237.614 309.80618,236.501 379.47918,236.172 C389.57718,236.124 397.91418,235.46 399.64718,221.515 C397.30618,216.401 395.05918,211.491 392.97718,206.945 L172.27918,206.945 M168.64418,254.647 C150.76118,266.263 150.57718,269.63 164.04918,284.721 L408.55918,284.721 L408.55918,256.721 L388.56618,256.721 C324.95218,256.721 261.33818,256.803 197.72518,256.629 C188.63518,256.603 179.54918,255.339 170.46118,254.647 M1782.62018,437.16 C1780.19718,414.346 1774.79018,391.303 1776.11818,368.777 C1777.71718,341.657 1775.28418,315.811 1769.84218,289.921 C1761.56218,250.526 1751.49918,211.933 1729.09318,179.413 C1724.45918,182.057 1721.00918,184.965 1717.16118,186.078 C1668.73618,200.098 1620.31918,214.171 1571.76318,227.577 C1538.28118,236.822 1519.57118,262.305 1524.57718,294.044 C1529.81718,327.271 1536.68918,360.231 1540.59518,393.65 C1546.55618,444.639 1553.63018,495.856 1554.50918,547.103 C1555.27818,591.942 1549.23818,637.115 1544.20218,681.846 C1539.66218,722.167 1532.87218,762.19 1526.21718,802.158 C1519.46818,842.683 1532.29618,865.007 1568.12218,874.912 C1603.39218,884.663 1638.27518,896.268 1673.61518,905.654 C1702.99818,913.458 1731.43418,926.983 1762.63818,924.746 C1782.17218,923.345 1791.81118,916.805 1798.90318,895.484 C1804.13518,879.75 1810.26318,864.088 1813.20118,847.74 C1820.24118,808.563 1826.47618,769.139 1831.45218,729.556 C1836.20918,691.717 1841.42318,653.603 1842.06718,615.513 C1843.25918,544.96 1845.62218,474.159 1835.39218,403.964 C1831.37218,376.384 1828.08018,348.666 1824.41618,321.016 C1822.03318,303.035 1819.57718,285.066 1817.15418,267.092 M864.76218,130.207 C865.97418,144.033 866.72018,157.94 868.52718,171.665 C870.36218,185.592 872.81918,199.459 875.76318,213.14 C880.60418,235.635 895.49418,243.757 913.83818,244.125 C999.86318,245.85 1085.89618,247.081 1171.92718,248.391 C1187.67618,248.631 1203.43318,248.643 1219.18218,248.388 C1299.76118,247.086 1380.34218,245.892 1460.91118,244.027 C1473.06018,243.746 1485.32618,241.006 1497.23018,237.877 C1524.00218,230.84 1550.67218,223.237 1577.21818,215.155 C1625.22218,200.54 1673.10418,185.406 1719.62318,170.929 C1725.35718,158.36 1730.36118,147.394 1735.36418,136.429 M168.64418,866.48 C167.91818,862.501 167.19218,858.521 166.37518,854.037 C243.16318,854.037 317.68218,854.02 392.20118,854.055 C402.23818,854.06 410.40418,852.497 410.544069,837.446 C410.68418,821.999 402.80318,820.689 392.20118,820.725 C320.71218,820.969 249.21918,820.553 177.73518,821.279 C169.89518,821.359 162.10118,827.336 150.50218,832.147 C157.77318,842.079 161.39118,847.02 165.00918,851.963 M690.27818,540.861 L163.75418,540.861 C157.74118,551.168 155.80218,559.036 165.00918,565.749 M690.27818,333.46 L204.99518,333.46 L170.46118,333.46 M690.27818,495.232 C687.85518,494.541 685.43218,493.246 683.00818,493.245 C515.18818,493.15 347.36918,493.158 179.54918,493.158 C177.73218,493.158 175.88918,493.383 174.10118,493.122 C164.31218,491.691 157.65318,497.999 158.60618,507.564 C159.08318,512.357 168.24318,518.198 174.19118,519.594 C182.91118,521.639 192.27218,520.121 201.36018,520.121 L683.00818,520.121 M688.46118,447.53 L160.32718,447.53 C159.96418,456.337 159.68018,463.227 159.30118,472.419 L181.36718,472.419 C347.97518,472.419 514.58218,472.407 681.19018,472.505 C684.22018,472.507 687.24918,473.801 690.27818,474.492 M690.27818,379.088 C686.64318,379.779 683.00818,381.073 679.37318,381.075 C511.55318,381.175 343.73418,381.177 175.91418,381.139 C158.02218,381.136 156.58318,378.181 163.50418,355.237 L692.09618,355.237 L692.09618,308.571 L156.48518,308.571 C160.15218,318.386 163.05318,324.719 164.87618,331.432 C166.69418,338.132 167.43218,345.213 168.64418,352.126 M690.27818,399.828 C684.22018,400.519 678.16218,401.809 672.10318,401.814 C518.21718,401.926 364.33218,401.902 210.44718,401.902 C198.93618,401.902 187.37818,402.628 175.93018,401.657 C167.76018,400.964 159.91818,397.464 159.42918,412.266 C158.95418,426.684 166.19418,426.986 175.91418,426.971 C347.36918,426.721 518.82318,426.79 690.27818,426.79 M690.27818,727.521 C684.22018,728.213 678.16218,729.502 672.10318,729.508 C547.29818,729.625 422.49418,729.595 297.68918,729.595 C255.88618,729.595 214.08218,729.476 172.28018,729.777 C168.03118,729.807 163.79718,732.361 159.55618,733.744 C161.37418,739.966 163.19118,746.188 165.00918,752.41 M165.00918,681.893 C155.80218,688.606 157.74118,696.474 163.75418,706.782 L690.27818,706.782 M690.27818,773.15 C684.82518,773.842 679.37318,775.133 673.92018,775.137 C511.55318,775.244 349.18618,775.224 186.81918,775.224 C183.18418,775.224 179.48418,774.727 175.92918,775.339 C170.41918,776.286 161.53018,776.373 160.33118,779.732 C158.27818,785.484 161.06218,793.485 161.76918,800.112 L693.91318,800.112 L693.91318,710.929 C693.91318,660.462 694.13918,609.993 693.83818,559.527 C693.61918,522.884 692.32218,486.246 692.22618,449.603 C692.15818,424.026 693.43418,398.448 693.81318,372.864 C693.89418,367.346 692.70118,361.805 692.09518,356.273 M690.27818,586.489 C684.82518,587.18 679.37318,588.472 673.92018,588.475 C511.55318,588.583 349.18618,588.563 186.81918,588.563 C183.18418,588.563 179.48418,588.066 175.92918,588.678 C170.41918,589.626 161.53018,589.712 160.33118,593.071 C158.27818,598.823 161.06218,606.824 161.76918,613.451 L690.27818,613.451 M690.27818,634.191 L162.01418,634.191 C157.98818,660.262 157.98618,660.223 175.91518,659.112 C179.54018,658.887 183.18418,659.079 186.81918,659.079 C349.18618,659.079 511.55318,659.059 673.92018,659.167 C679.37318,659.17 684.82518,660.462 690.27818,661.153 M1731.72918,972.255 C1726.18418,944.694 1711.88618,933.689 1686.53518,927.416 C1630.61718,913.577 1576.27218,891.665 1520.76918,875.333 C1499.73218,869.143 1477.20918,869.781 1455.47418,866.385 C1377.55318,854.207 1299.20118,859.244 1221.00018,858.184 M168.64418,663.227 C167.80518,668.016 166.96618,672.804 165.73718,679.819 L186.81918,679.819 C348.58018,679.819 510.34218,679.797 672.10318,679.907 C678.16218,679.911 684.22018,681.202 690.27818,681.893 M690.27818,752.41 C684.22018,753.101 678.16118,754.392 672.10318,754.396 C504.28318,754.506 336.46418,754.484 166.55518,754.484 C167.27718,760.217 167.96018,765.646 168.64418,771.076 M690.27818,565.749 C684.22018,566.44 678.16118,567.731 672.10318,567.735 C504.28318,567.845 336.46418,567.823 166.55518,567.823 C167.27718,573.556 167.96018,578.985 168.64418,584.415 M781.15518,109.467 C781.76118,162.008 783.35118,214.564 782.75318,267.088 C781.73018,356.973 778.87618,446.831 777.65118,536.715 C776.44518,625.195 776.01218,713.694 775.89318,802.186 C775.85918,827.072 778.12618,851.963 779.33818,876.85 M777.52018,138.503 C771.46218,139.193 765.40318,140.485 759.34518,140.489 C578.80218,140.596 398.26018,140.679 217.71818,140.396 C201.96418,140.372 186.23218,137.356 170.45718,136.537 C148.04518,135.373 127.53918,141.585 110.03218,159.709 C108.38718,184.787 105.29318,210.381 105.25118,235.981 C104.87218,465.505 105.04318,695.029 105.01318,924.553 C105.00918,951.54 121.42518,968.153 150.47018,970.153 C153.48818,970.361 156.52718,970.181 159.55618,970.181 L772.06718,970.181 M114.11818,957.737 C121.74618,982.203 138.84918,990.607 159.55718,990.762 C219.53318,991.212 279.54918,989.521 339.47918,991.471 C372.87718,992.557 406.13518,999.227 439.46018,1003.337 C441.25718,1003.558 443.09318,1003.336 444.91018,1003.37 C519.42918,1004.748 593.94618,1006.928 668.46818,1007.221 C715.11418,1007.405 761.78818,1005.327 808.41218,1003.196 C851.45618,1001.227 894.88818,1001.256 937.34718,994.158 C984.87518,986.215 1031.81918,989.633 1079.23818,990.358 C1193.11718,992.098 1307.03218,990.45 1420.92918,991.103 C1485.75918,991.476 1550.58118,993.686 1615.40618,995.069 M746.62218,163.39 C740.56318,162.699 734.50618,161.428 728.44618,161.408 C677.55518,161.248 626.66418,161.316 575.77318,161.316 L186.81918,161.316 L145.86118,161.316 C142.26618,174.077 136.49418,185.279 136.33718,196.582 C135.01418,291.973 134.39318,387.383 134.18718,482.789 C133.88818,621.747 134.44718,760.708 133.784804,899.663 C133.67418,923.512 137.56718,941.84 150.56918,946.33 L760.71018,946.33 C761.76918,943.911 762.90418,942.528 762.90418,941.145 C762.98618,827.074 762.98018,713.004 762.98018,598.933 C762.98018,463.43 762.95918,327.929 763.02318,192.427 C763.02818,182.531 764.73618,172.119 753.89218,167.539 M2273.35718,895.516 C2270.68918,911.279 2268.02218,927.041 2265.35618,942.803 C2267.31918,943.474 2269.28318,944.147 2271.24718,944.819 C2279.82618,921.471 2289.45318,898.543 2296.77718,874.693 C2314.68518,816.376 2317.46218,754.657 2317.77218,694.331 C2318.48118,556.738 2326.25518,418.664 2307.82718,281.62 C2301.87918,237.387 2290.84218,195.218 2266.08618,159.243 M1520.89418,816.704 C1494.84318,816.012 1468.79318,815.165 1442.73818,814.747 C1436.69018,814.649 1430.62318,816.614 1424.56518,816.617 C1219.78818,816.721 1015.01218,816.704 810.23618,816.704 M1522.71218,291.979 C1517.25918,292.671 1511.80718,293.964 1506.35418,293.967 C1279.76718,294.068 1053.18018,294.054 826.59418,294.054 L806.90418,294.054 C807.06318,271.755 807.83518,250.721 792.06118,235.981"/>
    <g transform="translate(105 39)">
      <path id="arriba" d="M706 788.051 706 236.461 1425.24 233 1458.864 519.214 1418.476 790.125z"/>
      <path id="atraz_1" d="M0 126.465L9.11818028 112.894C5.58290621 90.1393333 12.2472395 78.762 29.1111803 78.762 45.975121 78.762 134.487121 78.0079836 294.64718 76.4999508L363.54518 64.815 687.06118 64.815 687.06118 199.055C699.177847 225.326333 705.23618 244.684 705.23618 257.128 705.23618 269.572 705.804614 448.595754 706.941482 794.199263 687.697155 820.393536 676.846356 836.982561 674.389086 843.966337 671.931815 850.950112 671.308847 890.391667 672.52018 962.291L336.26009 968.232379C282.753363 960.297754 244.666667 956.330442 222 956.330442 199.333333 956.330442 135.03706 956.330442 29.1111803 956.330442L3.66518028 917.182441 0 874.146 0 126.465z"/>
      <path id="frente" d="M1615.82418 134.7592L1632.18218 147.679C1650.19843 135.610333 1668.334 137.872 1686.58887 154.464 1713.97118 179.352 1762.38823 503.934 1738.17971 633.56 1722.04069 719.977333 1702.76301 802.592333 1680.34668 881.405L1620.36768 885.992407 1615.82418 910.441 1632.18218 937.403 1637.63418 956.330442 2085 956.330442C2129.53945 949.934147 2157.02201 933.255 2167.44768 906.293 2183.08618 865.85 2214.99997 738.297 2214.99997 620.079 2214.99997 541.267 2214.99997 427.887667 2214.99997 279.941 2195.19223 158.391033 2165.40697 94.0966995 2125.64418 87.058 2085.88139 80.0193005 1921.39406 76.4999508 1632.18218 76.4999508L1615.82418 134.7592z"/>
      <path id="derecha_2" d="M671,968.058134 L671,837.800258 C679.268113,838.500294 685.610663,835.693626 690.027651,829.380255 C694.444639,823.066885 698.514149,809.940133 702.23618,790 L1112.662,791.950258 C1117.08263,825.489205 1119.59833,848.903099 1120.2091,862.19194 C1123.11983,925.522013 1120.2091,956.156197 1120.2091,956.156197 C1120.2091,956.156197 1045.55653,954.457508 896.251378,951.06013 L772.902288,962.116755 L671,968.058134 Z"/>
      <path id="derecha_1" d="M1119.91228 951.234375C1119.91228 951.234375 1117.39658 898.889338 1112.36518 794.199263L1421.28068 790.049742C1414.67368 805.353504 1422.57185 818.521756 1444.97518 829.5545 1467.37851 840.587244 1526.75151 858.21641 1623.09418 882.442L1615.82418 902.145 1643.25781 956.330442 1559.48018 953.995C1534.03485 1004.97429 1511.61851 1030.46393 1492.23118 1030.46393 1472.84385 1030.46393 1467.67185 1027.96163 1476.71518 1022.95703L1515.85918 958.143C1251.89458 953.53725 1119.91228 951.234375 1119.91228 951.234375z"/>
      <path id="izquierda_1" d="M1418.77383 240.535C1426.28817 214.571372 1439.13318 198.152205 1457.30884 191.2775 1475.48451 184.402795 1530.67063 167.983628 1622.86719 142.02L1643.25781 76.4999508 1559.48018 79.799 1514.04118 8.45703125C1500.61797 2.81901042 1489.71297 1.56319402e-13 1481.32618 1.56319402e-13 1472.93939 1.56319402e-13 1485.05606 25.4999836 1517.67618 76.4999508L1112.36518 76.4999508C1116.94628 170.647317 1115.12862 223.251667 1106.91218 234.313 1098.69574 245.374333 1202.64963 247.448333 1418.77383 240.535zz"/>
      <path id="izquierda_2" d="M680.69968 209.515432L680.69968 64.815 761.58018 64.815 899.251378 80.837 1112.36518 78.762C1112.36518 176.932553 1110.39705 229.70322 1106.46079 237.074 1102.52453 244.44478 968.782996 245.25197 705.23618 239.49557 701.458109 216.801833 697.823109 203.321643 694.33118 199.055 690.839252 194.788357 686.295418 198.275167 680.69968 209.515432z"/>
      <path id="frente" d="M1418.2138 793.764941L1441.9083 642.459438C1450.99597 552.473371 1452.20764 489.562037 1445.5433 453.725438 1438.87897 417.888839 1429.76914 350.828839 1418.2138 252.545438 1416.45347 222.126771 1425.5633 204.152105 1445.5433 198.621438 1465.5233 193.090771 1524.70693 173.877625 1623.09418 140.982 1665.36349 137.526 1688.38582 142.711333 1692.16118 156.538 1697.82422 177.278 1767.42337 385.236906 1743.21484 585.378906 1719.00632 785.520906 1686.58887 876.472191 1683.07318 881.405 1679.55749 886.337809 1640.91008 887.627 1615.82418 882.442 1590.73828 877.257 1437.62323 827.640406 1432.34523 825.566406 1428.82656 824.18374 1424.11609 813.583251 1418.2138 793.764941z"/>
    </g>
  </g>
</svg>
