<svg xmlns="http://www.w3.org/2000/svg" viewBox="0 0 1022.56 940.17">
	<defs>
		<style>.cls-1{fill:none;stroke:#000;stroke-linecap:round;stroke-linejoin:round;stroke-width:2px;}</style>
	</defs>
	<title>pickup_front</title>
	<g id="Capa_2" data-name="Capa 2">
		<g id="Capa_1-2" data-name="Capa 1">
			<path class="cls-1" d="M682.31,443.09c-3-2.22-5.92-6.38-8.9-6.39q-161.25-.49-322.52,0c-5.65,0-11.28,3.61-16.92,5.54l.78,5.22c3.16.78,6.31,2.24,9.47,2.25q162.38.16,324.75-.09c5.19,0,10.38-2.78,15.57-4.26"/>
			<path class="cls-1" d="M824.67,56.06C810.26,36.12,786.55,42.74,769,41.83,660.88,36.2,552.57,33.77,444.3,32c-45.93-.76-92,1.87-137.88,4.33-30.47,1.62-60.85,5.34-91.18,8.91-6.31.74-12.21,4.94-18.6,7.67,6.83,15.55,19.69,9.38,29.69,9.49,11.11.11,22.21-3.57,33.37-3.92,58.56-1.83,117.14-3.79,175.72-4.16,14.81-.09,31,2.69,44.17,9.07,21.89,10.61,41,10.61,62.9,0,13.17-6.38,29.28-8.6,44.19-9.12,36.29-1.24,72.7-1.56,109-.08,37.13,1.51,74.5,3.53,111,9.71,12.6,2.14,23,17.47,37.65,25.65L826.89,58.29"/>
			<path class="cls-1" d="M824.67,282.94c-24.47-2.22-48.91-6-73.41-6.41-125.29-2-250.61-4.59-375.9-4.11-59.33.22-118.63,6.81-178,10.52"/>
			<path class="cls-1" d="M913.64,267.37c3.52-39.37-18.78-72.4-27.38-108.83-7-29.71-20.26-57.93-30.39-86.93-9.41-26.92-9.2-27-34.41-44.47-25.76,0-54.66.41-83.54-.2-11.14-.23-22.24-4-33.36-4.05-122.34-.31-244.69-.95-367,.21-43,.41-86,5.58-129,8.37-2.91.19-5.93-1.36-8.89-2.1"/>
			<path class="cls-1" d="M818,16c-30.4-3.7-60.75-10-91.21-10.66C606.7,2.76,486.56.17,366.47,1.25,312.3,1.74,258.21,10.83,204.08,16"/>
			<path class="cls-1" d="M964.8,632.16H800.92c-25.22-23.9-60-17.38-94.15-15.72-43,2.09-86,3.88-129,4.41-59.31.74-118.64,1-177.94-.1-37.84-.69-75.61-4.61-113.45-6.23-24.27-1-48.14,1-64.71,17.64H57.28"/>
			<path class="cls-1" d="M306.4,507.6c5.93,3,11.86,8.49,17.8,8.52q186.84.75,373.68,0c5.94,0,11.87-5.56,17.8-8.52"/>
			<path class="cls-1" d="M711.23,505.37c-8.16-1.48-16.32-4.28-24.47-4.25q-169.05.67-338.09,2.12c-12.61.09-25.21,1.39-37.82,2.13"/>
			<path class="cls-1" d="M682.31,541c-5.93-2.22-11.87-6.4-17.79-6.38-121.6.35-243.19,1.21-364.79,1.75-1.48,0-3-2.78-4.45-4.27"/>
			<path class="cls-1" d="M820.22,291.84c-52.52,18.28-93.89,51.59-126.51,95.84-9.16,12.43-9.87,27.09-2.78,42.2,5.63,12,8.73,25.22,13.63,39.93-4.49,12.05-14.28,15.9-28.92,15.83-109.73-.53-219.47-.29-329.2-.29H324.2l-1.67-8.2c5.74-2.45,11.48-7,17.24-7q172.38-.63,344.77,0c4.45,0,8.89,4.16,13.34,6.39"/><path class="cls-1" d="M279.71,543.19H702.33"/>
			<path class="cls-1" d="M686.76,414.18q-281.37,0-562.75.38c-10.39,0-20.76,5.55-31.14,8.51"/>
			<path class="cls-1" d="M889.17,714.46c-19.27-.74-38.55-2.11-57.83-2.13q-229.1-.26-458.21,0c-8.23,0-16.45,1.63-22.06,2.22,3.13,37.52,5.92,71,8.72,104.43"/>
			<path class="cls-1" d="M70.63,294.06c-6.71,19.47-11.49,38.33-10.13,60.14,1.28,20.4-8,41.37-11.91,62.24-1.32,7.17-3.36,18.37.32,21.61,20.54,18.09,15,43,19.23,65.15C70.36,514.83,69.87,527,70.73,541c17.62,0,33.23-.18,48.83,0,47.45.64,94.9,1.59,142.36,2,5.18,0,10.38-2.76,15.57-4.24"/>
			<path class="cls-1" d="M152.93,936.89c27,2.84,38.21-6.12,40.12-31.13,1.48-19.36,3.75-38.65,5.56-56.9,37.36-10.57,71.16-21.61,105.71-29.24,16.25-3.6,34-1.18,51-.44,13.39.59,26.69,4,40.05,4.07,56.34.48,112.7.73,169,0,36.34-.47,72.74-1.79,109-4.52,40.52-3,77.55,11.19,115.68,20.3,9.62,2.29,19.19,4.8,34.15,6.25,2,20.89,3.22,41.89,6.07,62.66,3.19,23.18,16.85,36.78,42.08,28.94"/><path class="cls-1" d="M664.52,245.13c-40,.74-80.12.65-120.1,2.57-20.11,1-40,6.11-60.09,8.4-19.2,2.18-38.51,3.81-57.82,4.42-23.7.75-47.45,0-71.17.21-69,.65-137.91,1.75-206.86,1.79-8,0-15.95-5.58-27.12-9.77,20.49-55.86,39.37-107.37,58.26-158.88"/>
			<path class="cls-1" d="M364.24,632.16c-31.14,3-62.59,4.16-93.32,9.51-20.78,3.63-36.78,17.76-48.32,39.42H364.24"/>
			<path class="cls-1" d="M657.85,632.16c31.14,3,62.59,4.16,93.31,9.51,20.78,3.63,36.78,17.76,48.32,39.42H657.85"/>
			<path class="cls-1" d="M764.61,189.52c25.8-13.1,2.07-32.8,5.94-49.11,1.51-6.35-4-15.48-8.49-21.83s-11.23-14.62-17.52-15.1a497.71,497.71,0,0,0-71.1-.38c-29.09,2-34.34,9.78-35.68,44.16-.34,8.9-1.46,17.77-2.66,31.7,5.81,16.87,24.2,10.58,38.21,7.81,39.82-7.87,77.32-7.17,111.38,18.25,8.47,6.32,18.63,11.1,15.51,24.54"/>
			<path class="cls-1" d="M68.4,541l-31.14,2.92c0,8.94-1.49,18.87.28,28.17,5.14,26.84,12.48,53.28,17.13,80.19,2.24,13,.39,26.63.39,40q0,104.55,0,209.09c0,29.92,8.9,38.82,37.81,37.79,7.39-.26,14.76-.84,23.35-1.34V712.22l-16.68,2.24"/>
			<path class="cls-1" d="M960.35,356.34c5,23.77,10,47.53,15.37,73-30.65,30.28-16.65,72.23-27.55,111,9.8,1.23,16.86,1.12,23.22,3.17,6.86,2.22,13.07,6.46,17.94,9-8,35.87-16,67.67-21.91,99.83-2.39,12.9-.4,26.62-.4,40q0,104.55,0,209.09c0,31.05-7.24,37.45-42.26,35.46V710.66l17.8-5.28V934.67"/>
			<path class="cls-1" d="M711.23,436.42c9.65,25.94,19.3,51.89,29.72,79.88,44.67,1.22,89.57-1.58,132.58-17.79,28.52-10.75,42.86-35.18,40.11-64.32H711.23"/>
			<path class="cls-1" d="M310.85,436.42l-30,79.89c-44.41,1.21-89.32-1.6-132.33-17.8-28.12-10.59-42.82-35.6-40.11-64.32H310.85"/>
			<path class="cls-1" d="M362,189.52l23.84-4.68c-2-22.2-2.82-44.58-6.89-66.34-1-5.5-12.18-12.21-19.23-12.92-22.83-2.3-45.91-2.41-68.9-2.72-27.44-.37-27.85-.19-35.43,28.87-4.53,17.32-7.54,35-11.32,53l24.51,4.81"/>
			<path class="cls-1" d="M644.5,625.49c13.26,12.82,16.64,55.29,4.15,66.39-4.84,4.29-13,6.68-19.72,6.72q-115.66.67-231.33.16c-24.51-.11-31.86-7.1-30.73-31,.69-14.4-8.65-32.32,10.71-42.28"/>
			<path class="cls-1" d="M951.45,291.84l63.72-3.47c8-30.93,10.09-62.87-3.32-94.67L933,186.84c-11.25,32.88-3.34,66.92-6.69,100.07l22.94,4.93"/>
			<path class="cls-1" d="M97.32,202.87c-4.73-10.58-11.25-17.55-24.49-15.73-19.95,2.76-40,4.49-62.09,6.88-16.14,26.22-7,56.13-8.34,84.51-.16,3.46,9.51,10.33,14.87,10.58,24.43,1.15,49,.5,77.82.5,0-18.53-1.15-35,.34-51.12,1.38-15,3.59-30.46,8.92-44.38,18.33-47.82,38.26-95,57.44-142.51,7-17.35,16.86-30.93,37.85-33.27,0,3.62.59,6-.09,6.46-39.08,26-39.67,71.57-55,109.32-11.36,27.91-18.83,57.48-26.95,86.61-4.24,15.22-6.15,31.08-9.12,46.65"/>
			<path class="cls-1" d="M951.45,358.57c-13.9,28-20.87,57.41-20.26,89s-29.07,64.25-68.82,72.85c-32.8,7.1-66.61,9.53-100,13.83-8.85,1.14-17.79,1.54-26.68,2.28"/><path class="cls-1" d="M64,354.12c21.77,23.26,23.5,53.67,26.05,82.36,4,44.53,27.24,75.93,71.89,84.09,38.23,7,77,10.75,115.6,15.94"/>
			<path class="cls-1" d="M170.72,716.68q0,99,.1,198c0,6.67,1.38,13.34,2.12,20"/>
			<path class="cls-1" d="M117.34,936.89,132.91,939V715.31l18.9-4.25V939.13l-16.68-2.24"/>
			<path class="cls-1" d="M907,714.46c-12.91-4.91-20.21-2.46-20.14,13.34q.43,97.88,0,195.74c-.07,15.81,7.23,18.26,20.14,13.35"/>
			<path class="cls-1" d="M922.54,714.46c-14.1-6.44-17.86.54-17.84,13.34.1,65.25.21,130.5-.08,195.74-.07,15.81,7.23,18.26,20.14,13.35"/>
			<path class="cls-1" d="M79.52,934.67c-.74-48.94-1.62-97.87-2.17-146.81-.3-27.45,0-54.91,0-82.85l20,5V934.67"/>
			<path class="cls-1" d="M869.15,716.68c0,67.47.19,135-.14,202.41-.07,14.63,2,24.82,20.16,17.8"/><path class="cls-1" d="M851.36,716.68q0,99-.1,198c0,6.67-1.38,13.34-2.12,20"/>
			<path class="cls-1" d="M951.45,541c-32.62.74-65.24,1.87-97.87,2.13-46,.37-91.93.1-137.9.1"/>
			<path class="cls-1" d="M922.54,202.87c-19.28-47.46-38.81-94.81-57.69-142.42-6.6-16.62-14.78-31.24-31.22-40.09-8.51-4.57-11.51-2.15-11.19,6.78"/>
			<path class="cls-1" d="M691.21,412c40.78.74,81.56,1.69,122.34,2.16,29.65.34,59.33-.57,89,.47,8.25.29,16.32,5.53,24.48,8.49"/>
			<path class="cls-1" d="M261.92,743.37H203v31.8l50.51-6c3-6.71,6.85-15.16,10.66-23.61"/>
			<path class="cls-1" d="M451,58.29c-.9,4.55-1.81,9.11-3.6,18.15,38.5,17.82,79.86,12.89,123.72,3.62V58.29"/>
			<path class="cls-1" d="M390.93,211.76l26,20.18q-.72,3.23-1.43,6.43L620,231.78"/>
			<path class="cls-1" d="M842.46,93.87c18.65,50.85,37.29,101.7,57.67,157.28-10.19,4.52-18.24,11-26.55,11.29-39.08,1.63-78.05.94-115.77-12.51-8.78-3.13-19.15-1.84-28.79-2.58"/>
			<path class="cls-1" d="M181.84,472c8.38,24.87,24.12,32.15,42.49,22.67,14.76-7.62,15.81-20.19,12.18-31.26C234,455.87,223.44,448.37,215,446c-12.77-3.61-25.72-.53-30.92,14.91-1,2.89-1.52,5.92-2.26,8.88"/>
			<path class="cls-1" d="M152.93,714.46h198"/>
			<path class="cls-1" d="M840.24,467.56c-5.42-21.69-21.08-24.94-40.9-21.46-15.29,13.92-20.69,31.72-9.89,41,6.93,6,17.62,11.29,26.28,10.79,15.47-.89,22.32-13.47,24.51-28.16"/>
			<path class="cls-1" d="M535.51,256.25c5.93,1.48,11.85,4.21,17.79,4.25,50.42.34,100.84.2,151.26.2"/>
			<path class="cls-1" d="M804.65,636.61c.74,3.7.69,7.82,2.34,11.06,25.62,50.14,23.38,104.14,22.08,158-.45,18.55-1.44,37.08-2.18,55.61"/>
			<path class="cls-1" d="M217.43,636.61c-.74,3.7-.66,7.85-2.35,11-27.17,51.49-22.88,107.22-22,162.44.26,17.06,1.41,34.11,2.15,51.16"/>
			<path class="cls-1" d="M201.86,291.84c52.3,18.58,93.53,52,126.38,96,4.44,5.94,3.37,16,4.86,24.16"/>
			<path class="cls-1" d="M195.19,240.68c5.2-21,22.2-28.78,34.21-33.37H405.16c4.91,5.57,14.25,16.13,23.58,26.7"/>
			<path class="cls-1" d="M891.4,245.13q-69-2.24-137.91-4.46c-20.76-.68-41.52-1.92-62.28-2-7.41,0-14.83,2.72-22.24,4.2"/>
			<path class="cls-1" d="M106.22,271.82c13,23.5,35.19,11.28,53.42,12.86,9.94.86,20.32-3.22,30.5-5.07q-.52,2.59-1,5.17L328.65,407.5"/>
			<path class="cls-1" d="M915.87,271.82c-12.54,21.76-33.49,12.23-51.18,12.92-10.84.43-21.85-3.29-32.78-5.15l1.12,5.26L693.43,407.5"/>
			<path class="cls-1" d="M148.48,289.61q7.78,51.17,15.53,102.33c1,6.63,1.52,13.34,2.26,20"/>
			<path class="cls-1" d="M873.6,289.61q-7.79,51.17-15.53,102.33c-1,6.63-1.52,13.34-2.26,20"/>
			<path class="cls-1" d="M146.25,667.75c-6.79-14.38-22.6-24.17-30.73-17.31-5.82,4.91-11.63,15-10.48,21.57,1.19,6.77,9.86,14.87,17,17.28,9.28,3.14,19.39-.14,22-12.64a62.7,62.7,0,0,1,2.18-6.68"/>
			<path class="cls-1" d="M215.21,238.45c29.65.75,59.31,1.38,89,2.31,7.43.23,14.83,1.4,22.24,2.14"/>
			<path class="cls-1" d="M973.7,436.42,975.92,541"/>
			<path class="cls-1" d="M673.42,716.68c-4.45,31.14-9,62.27-13.2,93.44-.38,2.82,1.33,5.92,2.07,8.88"/>
			<path class="cls-1" d="M330.87,245.13l144.58,6.67"/>
			<path class="cls-1" d="M48.38,440.87,46.16,541"/>
			<path class="cls-1" d="M713.45,787.86c14.62,1.92,30.47.67,44,18.53L709,799.8v-9.72"/>
			<path class="cls-1" d="M760.16,743.37h59v31.8l-49.34-5.82-11.83-21.53"/>
			<path class="cls-1" d="M784.63,260.7,709,258.47"/>
			<path class="cls-1" d="M362,198.42c-.4-3.74-.8-7.48-.95-8.9H277.49"/>
			<path class="cls-1" d="M350.89,200.64l-73.4-2.22"/><path class="cls-1" d="M326.42,247.35l-68.95,4.45"/>
			<path class="cls-1" d="M244.12,211.76c-8.15,5.19-19.59,8.52-23.81,16-9.83,17.3-24.69,17.44-40.69,17.42q-24.47,0-48.94,0"/>
			<path class="cls-1" d="M951.45,294.06c3.71,11.12,9.08,22,10.6,33.44,1.21,9.07,5.07,21.21-8.37,26.62"/>
			<path class="cls-1" d="M241.9,801.21c-27.8,1-38.05,7.07-37.79,24.13,11.45-10.69,31.63-3.05,37.79-21.91"/>
			<path class="cls-1" d="M818,823.45c0-4.45,1.24-12.28-.2-12.81-11.93-4.4-24.35-7.44-36.63-10.89l-2.84,7.61,37.44,16.09"/>
			<path class="cls-1" d="M313.08,790.08v9.61l-46,6.31c12.71-16.51,26.68-18.38,41.52-18.14"/>
			<path class="cls-1" d="M628.93,207.31c-19.68-1.52-29.46,10.16-35.59,26.7"/><path class="cls-1" d="M195.19,58.29,177.42,89.2,183.66,93q9.1-14,18.2-28"/>
			<path class="cls-1" d="M704.56,256.25,669,247.35"/>
			<path class="cls-1" d="M800.2,214c14.85,1.46,21.44,11.18,24.47,24.46"/>
			<path class="cls-1" d="M413.17,234l-33.36,4.44"/>
			<path class="cls-1" d="M335.32,416.4q-17.79,50-35.6,100.09c-2.91,8.18-5.92,16.32-8.89,24.47"/><path class="cls-1" d="M962.58,670,947,701.11"/>
			<path class="cls-1" d="M706.78,474.23,735.7,541"/>
			<path class="cls-1" d="M59.5,670l15.57,31.14"/>
			<path class="cls-1" d="M353.11,191.74c2.23,3,4,7.9,6.76,8.55,10.17,2.37,20.68,3.32,31.06,4.8"/>
			<path class="cls-1" d="M268.59,198.42l-24.47,6.67"/>
			<path class="cls-1" d="M653.4,191.74l-35.59,28.92"/>
			<path class="cls-1" d="M889.17,262.92l33.37,8.9"/>
			<path class="cls-1" d="M130.68,260.7,99.54,271.82"/>
			<path class="cls-1" d="M141.8,220.66l13.35,17.79"/>
			<path class="cls-1" d="M684.54,534.29l20,2.22"/>
			<path class="cls-1" d="M880.28,220.66l-13.35,17.79"/>
			<path class="cls-1" d="M729,532.06l-15.57,4.45"/>
			<path class="cls-1" d="M132.91,714.46H117.34"/>
			<path class="cls-1" d="M804.65,229.56a20.88,20.88,0,0,1,2.09,4.48c.12.55-1.35,1.45-2.09,2.19"/>
			<path class="cls-1" d="M706.78,543.19l5.42-6.84-4.28-2.6L704.56,541"/>
			<path class="cls-1" d="M889.17,650l-16.91,14.41c13,32.62,23.82,34.24,45.89,10,.52-18.42-8.14-26.84-26.75-24.4"/>
			<path class="cls-1" d="M144,445.32c-19.15,14.66-18.81,20.14,3.44,36.48l23.15-20-24.37-16.46"/>
			<path class="cls-1" d="M270.81,445.32l-16.95,13.89-5.27,8.33,27.58,19.59,22.28-22.82-25.41-19"/>
			<path class="cls-1" d="M746.82,445.32,724,464.77l24.12,17,22.56-19L749,445.32"/>
			<path class="cls-1" d="M871.38,445.32,848,464l25.53,25.54c8.52-13.64,16.4-21,16.77-28.73.23-4.9-10.71-10.32-16.65-15.51"/>
		</g>
	</g>
</svg>