<svg xmlns="http://www.w3.org/2000/svg" viewBox="0 0 2217 1032.46"><defs><style>.cls-1{fill:none;stroke:#000;stroke-linecap:round;stroke-linejoin:round;stroke-width:2px;}</style></defs><title>pickup_cenital</title><g id="Capa_2" data-name="Capa 2"><g id="Capa_1-2" data-name="Capa 1"><path class="cls-1" d="M1418.71,254c-5.45.69-10.9,2-16.36,2q-339.87.15-679.76.08H702.9c.16-22.3.94-43.33-14.84-58.07"/><path class="cls-1" d="M1416.89,778.7c-26.05-.69-52.1-1.53-78.15-2-6-.1-12.12,1.86-18.18,1.87q-307.15.15-614.32.08"/><path class="cls-1" d="M2162.09,121.24c24.75,36,35.79,78.15,41.74,122.38,18.43,137,10.65,275.12,9.94,412.71-.31,60.33-3.08,122-21,180.36-7.33,23.85-17,46.78-25.53,70.13l-5.89-2q4-23.64,8-47.28"/><path class="cls-1" d="M649.89,129.54c10.85,4.58,9.14,15,9.13,24.89q-.09,203.25,0,406.5,0,171.11-.08,342.22c0,1.38-1.13,2.76-2.19,5.18H46.57c-13-4.49-16.9-22.82-16.78-46.67.66-138.95.1-277.91.4-416.87q.3-143.12,2.15-286.21c.15-11.3,5.93-22.5,9.52-35.26H471.77c50.89,0,101.79-.07,152.68.09,6.06,0,12.11,1.29,18.17,2"/><path class="cls-1" d="M10.12,919.74c7.63,24.46,24.73,32.87,45.44,33,60,.45,120-1.24,179.92.71,33.4,1.09,66.66,7.76,100,11.87a52.12,52.12,0,0,0,5.45,0c74.52,1.38,149,3.56,223.56,3.85,46.64.19,93.32-1.89,139.94-4,43.05-2,86.48-1.94,128.94-9,47.53-7.95,94.47-4.53,141.89-3.8,113.88,1.74,227.79.09,341.69.74,64.83.38,129.65,2.59,194.48,4"/><path class="cls-1" d="M673.52,100.5c-6.06.69-12.12,2-18.18,2q-270.81.17-541.62-.09c-15.76,0-31.49-3-47.26-3.86-22.41-1.17-42.92,5-60.43,23.17C4.39,146.79,1.29,172.38,1.25,198Q.68,542.26,1,886.55c0,27,16.42,43.6,45.46,45.6,3,.21,6.06,0,9.09,0H668.07"/><path class="cls-1" d="M677.16,71.47c.6,52.54,2.19,105.09,1.59,157.62-1,89.88-3.87,179.74-5.1,269.63q-1.8,132.72-1.76,265.47c0,24.88,2.24,49.77,3.45,74.66"/><path class="cls-1" d="M586.28,527.75c-6.06.69-12.12,2-18.18,2-167.82.1-335.64.08-505.55.08.73,5.74,1.41,11.17,2.09,16.6"/><path class="cls-1" d="M586.28,714.41c-6.06.69-12.12,2-18.18,2-167.82.11-335.64.08-505.55.08.73,5.74,1.41,11.17,2.09,16.6"/><path class="cls-1" d="M64.64,625.23c-.83,4.79-1.67,9.57-2.9,16.59H82.82q242.64,0,485.28.09c6.06,0,12.12,1.29,18.18,2"/><path class="cls-1" d="M1627.73,934.26c-5.55-27.57-19.84-38.57-45.19-44.84-55.92-13.84-110.27-35.76-165.77-52.09-21-6.19-43.56-5.55-65.3-9-77.92-12.17-156.27-7.14-234.47-8.2"/><path class="cls-1" d="M586.28,623.15c-5.45-.69-10.91-2-16.36-2q-243.55-.17-487.1-.09c-3.64,0-7.28-.19-10.9,0C54,622.22,54,622.26,58,596.19H586.28"/><path class="cls-1" d="M586.28,548.49c-5.45.69-10.91,2-16.36,2q-243.55.15-487.1.08c-3.64,0-7.34-.49-10.89.12-5.51,1-14.4,1-15.6,4.39-2,5.75.73,13.75,1.44,20.38H586.28"/><path class="cls-1" d="M586.28,735.15c-5.45.69-10.91,2-16.36,2q-243.55.15-487.1.08c-3.64,0-7.34-.49-10.89.12-5.51.95-14.4,1-15.6,4.39-2,5.75.73,13.76,1.44,20.38H589.91V672.93c0-50.47.23-100.94-.07-151.4-.22-36.65-1.52-73.28-1.61-109.93-.07-25.57,1.2-51.15,1.58-76.74.08-5.51-1.11-11.06-1.71-16.59"/><path class="cls-1" d="M586.28,668.78H59.75c-6-10.31-8-18.17,1.26-24.89"/><path class="cls-1" d="M61,714.41q-2.73-9.33-5.45-18.67c4.24-1.38,8.47-3.93,12.72-4,41.8-.3,83.61-.18,125.41-.18q187.2,0,374.41-.09c6.06,0,12.12-1.3,18.18-2"/><path class="cls-1" d="M586.28,388.79q-257.19,0-514.37.18c-9.72,0-17-.29-16.48-14.7.49-14.81,8.33-11.31,16.5-10.61,11.45,1,23,.24,34.52.24q230.82,0,461.65-.09c6.06,0,12.12-1.29,18.18-2"/><path class="cls-1" d="M64.64,314.13c-1.21-6.92-2-14-3.76-20.7s-4.73-13-8.39-22.86H588.1v46.67H59.5c-6.92,22.94-5.48,25.9,12.41,25.9q251.73.06,503.46-.06c3.64,0,7.27-1.3,10.91-2"/><path class="cls-1" d="M584.46,409.53H56.33c-.37,8.81-.65,15.7-1,24.89H77.37q249.9,0,499.82.09c3,0,6.06,1.29,9.09,2"/><path class="cls-1" d="M579,482.12H97.36c-9.09,0-18.45,1.52-27.17-.53-6-1.39-15.11-7.23-15.58-12-1-9.56,5.7-15.87,15.49-14.44a38.1,38.1,0,0,0,5.45,0q251.73,0,503.46.08c2.42,0,4.85,1.3,7.27,2"/><path class="cls-1" d="M66.46,295.46H586.28"/><path class="cls-1" d="M61,527.75c-9.21-6.71-7.27-14.58-1.26-24.89H586.28"/><path class="cls-1" d="M61,814,46.5,794.15c11.6-4.81,19.4-10.79,27.24-10.87,71.48-.73,143-.31,214.46-.55,10.6,0,18.48,1.27,18.34,16.72-.14,15-8.3,16.61-18.34,16.61-74.52,0-149,0-225.83,0,.82,4.48,1.55,8.46,2.27,12.44"/><path class="cls-1" d="M1631.36,98.43c-5,11-10,21.93-15.74,34.5-46.52,14.48-94.4,29.61-142.4,44.23q-39.83,12.12-80,22.72c-11.9,3.13-24.17,5.87-36.32,6.15-80.57,1.86-161.15,3.06-241.73,4.36q-23.62.38-47.25,0c-86-1.31-172.07-2.54-258.09-4.27-18.35-.36-33.24-8.49-38.08-31-2.94-13.68-5.4-27.55-7.23-41.48-1.81-13.72-2.56-27.63-3.77-41.45"/><path class="cls-1" d="M1713.15,229.09q3.64,27,7.27,53.93c3.66,27.65,6.95,55.36,11,82.94,10.23,70.2,7.87,141,6.68,211.55-.65,38.09-5.86,76.21-10.62,114-5,39.58-11.21,79-18.25,118.18-2.94,16.35-9.06,32-14.3,47.74-7.09,21.33-16.73,27.87-36.26,29.27-31.21,2.23-59.64-11.29-89-19.1-35.34-9.38-70.23-21-105.5-30.74-35.82-9.9-48.65-32.23-41.9-72.75,6.65-40,13.44-80,18-120.31,5-44.73,11.08-89.91,10.31-134.75-.88-51.24-8-102.46-13.91-153.45-3.91-33.42-10.78-66.38-16-99.61-5-31.73,13.7-57.22,47.18-66.46,48.56-13.41,97-27.48,145.4-41.5,3.85-1.12,7.3-4,11.93-6.67,22.41,32.52,32.47,71.12,40.75,110.51a294.5,294.5,0,0,1,6.28,78.86c-1.33,22.52,4.08,45.57,6.5,68.38"/><path class="cls-1" d="M66.46,216.65c9.09.69,18.18,1.95,27.26,2,63.62.17,127.23.09,190.85.09h20v28H60.05c-13.47-15.09-13.29-18.46,4.59-30.07"/><path class="cls-1" d="M68.28,169H289l6.67,14.57c-1.74,13.94-10.07,14.6-20.17,14.65-69.67.33-139.35,1.44-209,1.34-4.85,0-12.54-6.79-13.91-12.11C50.13,178,53.81,169.32,64.64,169"/><path class="cls-1" d="M2096.65,932.18c-49.67,0-99.36-.43-149,.09-101.79,1.08-203.57,2.68-305.35,4.05-4.24.06-8.48,0-12.72,0"/><path class="cls-1" d="M2163.9,200.06c-12.25-19.68-31.76-8.66-47.51-13.42-26.94-8.14-55.44-9.75-83.36-13.44-24.79-3.27-49.71-5.26-74.5-8.5-28.52-3.73-56.94-8.34-85.44-12.28-12.68-1.76-25.41-3.48-38.17-4.09-36.33-1.74-72.69-3.77-109-3.74-10.91,0-21.81,6.38-32.72,9.84"/><path class="cls-1" d="M2156.63,840.93c-29.68,4.14-59.34,8.56-89.06,12.36-24.8,3.17-49.7,5.37-74.51,8.44-31.53,3.89-63,8.31-94.52,12.34-12.7,1.62-25.42,3.12-38.17,4.13-36.95,2.93-73.9,7.37-110.87,7.61-18.76.12-37.56-7.55-56.34-11.7"/><path class="cls-1" d="M2169.36,679.15c-26.66,12.45-52.49,28.62-80.13,36.64-87.43,25.38-175.56,47.62-263.38,71.25-37.61,10.12-75.13,20.72-112.72,31-1,.27-2.4-1.26-3.61-2"/><path class="cls-1" d="M1629.55,146.13c12.42-7.76,25.57-3.12,38.13-1.69,16.7,1.91,26.31,14.86,30.93,32.8q6.17,23.92,12.32,47.78c44.17,29.64,93.22,40.44,142.16,51.84,49.13,11.44,98.19,23.3,147.23,35.23,53.34,13,106.62,26.32,160,39.22,4.63,1.12,9.66.15,14.51.15"/><path class="cls-1" d="M1638.63,94.28c149,1.38,298.08,3,447.12,3.92,26.59.17,42.59,17.15,56.33,39.64,2.5,4.09,4.86,8.29,7.28,12.44"/><path class="cls-1" d="M704.42,256.05c-.61,13.83-2,27.68-1.68,41.48.83,41.49,2.56,83,3.42,124.45.94,44.92,2.06,89.88,1.72,134.8-.57,74-2.63,148-3.27,221.93-.24,28.46-9.7,49.79-31.09,63.37v40.33"/><path class="cls-1" d="M2165.72,345.24c-49.11-27.24-101.67-42.07-154.48-56-54.55-14.41-109-29.08-163.59-43.51q-67.22-17.77-134.52-35.15c-1-.27-2.4,1.26-3.61,1.95"/><path class="cls-1" d="M1560.48,79.76c32.72-.69,65.43-1.91,98.15-2,122.38-.23,244.76-.61,367.14.29,29.09.21,58.27,4.17,87.18,8.45,10.08,1.49,19.46,9.12,29.13,14,.73.38,1.7,1.35,1.7,2s-1.08,1.38-1.69,2.07"/><path class="cls-1" d="M2185.71,702c-3.08-7.58-6.17-15.15-10.8-26.49-14.42,3.13-30,6.27-45.53,9.94-55.15,13-110.51,25.08-165.35,39.64-71.56,19-145.2,28.07-214.5,57.86-11.68,5-23,11-34.56,16.52"/><path class="cls-1" d="M1113.37,818.11c-6.06.69-12.12,2-18.18,2-76.94.13-153.89-.23-230.83.27-23.63.15-47.26,2.52-69.63,3.8-22.6,13.81-26.72,38.61-29.9,62.46S762,935,760.76,959.14"/><path class="cls-1" d="M1416.89,791.15c-68.46,0-136.92-.26-205.38.06q-140,.66-279.9,2c-69.07.58-138.13,1.42-207.2,2-6,0-12.12-1.29-18.17-2"/><path class="cls-1" d="M1522.31,94.28l-827-4.15"/><path class="cls-1" d="M1524.13,934.26c-30.29-.7-60.59-2.11-90.88-1.84-23,.2-46,3.7-69.06,3.73q-329,.45-657.95.27c-6.06,0-12.12,1.29-18.18,2"/><path class="cls-1" d="M1418.71,241.54c-6.06-.7-12.11-2-18.17-2q-136.32-.2-272.63-.09H706.24"/><path class="cls-1" d="M1544.12,117.09l27.17-3.2q.6,2.61,1.22,5.22l-20,14.58c-29.54,0-56.2-.07-82.86.09-3,0-6,1.83-9.09,1.9-64.82,1.49-129.66,2.42-194.47,4.39-40,1.21-80,4-120.87,6.09-2.17,5.86-4.5,12.12-7.34,19.78,4.6,4.49,9.16,8.93,13.7,13.38.65.64,1.69,1.38,1.69,2.07s-1.08,1.38-1.69,2.07"/><path class="cls-1" d="M1147.9,886.55c48.47,1.39,96.94,2.67,145.4,4.18q59.07,1.85,118.14,4.14c33.33,1.26,66.64,2.77,100,4a4.71,4.71,0,0,0,3.51-2.08c.58-.89.12-2.66.12-4"/><path class="cls-1" d="M2183.9,268.5c1.81,24.89,4.78,49.75,5.24,74.67q2.59,138.93,3.63,277.91c.19,25.57-2.17,51.16-3.44,76.74-.48,9.68-1.19,19.36-1.8,29"/><path class="cls-1" d="M311.83,127.46c0,15.21.29,30.43-.07,45.63-.44,18.13,2.36,34.46,14.52,47.81,14.51,16,30.79,29.52,51,30.57,51.44,2.68,103,3.5,154.47,4.42,18.17.33,36.35-1.22,54.53-1.91"/><path class="cls-1" d="M1564.12,465.53c0,78.81,1.62,157.68-.61,236.41-1.35,47.67-8,95.25-21.21,141.06"/><path class="cls-1" d="M586.28,776.63c-14.54.69-29.08,1.91-43.62,2-50.29.25-100.58.61-150.86-.1-29.27-.42-52.55,14.27-70.41,38-15.19,20.15-11.16,47.26-11.37,72.13,0,5.53,0,11.06,0,16.59"/><path class="cls-1" d="M1093.37,882.41c9.52,30.37-8.89,46.75-32.72,46.22-73.89-1.64-147.82-.5-221.73-.78-6.07,0-12.12-2.58-18.18-4"/><path class="cls-1" d="M2176.63,355.61c1.81,77.43,4.31,154.85,5.1,232.29.31,29.7-3.29,59.45-5.1,89.18"/><path class="cls-1" d="M804.38,886.55h281.74c.65,7.4,1.32,15,2.32,26.43-11,2.5-20.27,6.38-29.6,6.47-59.37.56-118.75.29-178.12.29H800.34c-.56-3.24-1.89-11-3.23-18.67"/><path class="cls-1" d="M1091.55,152.35v27.49c-5.67,1.78-11.91,5.41-18.17,5.44-75.73.4-151.46.27-227.19.17-1.22,0-2.43-1.3-3.64-2"/><path class="cls-1" d="M804.38,146.13c23.63-.69,47.26-1.87,70.89-2,63.61-.28,127.23-.09,190.84-.09h18.17v35l-263.54-6"/><path class="cls-1" d="M1562.3,376.35c-9.09,16.59-18.14,33.21-27.28,49.76-4.19,7.58-8.14,16-21.26,9.62,13.81-22.27,26.92-43.39,40.69-65.58l18,10-4.67,2.5c0,13.11,0,26.22,0,39.33.08,19.1-2.75,36.17-14.2,52.18-23.48,32.82-18.42,73.09-18.51,111.67-.07,31.8,1.4,63.71-.43,95.37-1.65,28.5-6.62,56.77-10.56,85.06-3.29,23.57-7.2,47-10.84,70.53"/><path class="cls-1" d="M1484.14,919.74c-3.63-1.39-7.26-4-10.9-4q-120.87-.33-241.73-.08c-1.82,0-3.64,1.29-5.46,2"/><path class="cls-1" d="M1518.68,886.55c19,6.27,38.52,11.37,53.31,27.61-.17,1.86-.35,3.72-.52,5.58-11.54,0-23.09-.45-34.61.09-22.43,1.06-44.84,3.73-67.26,3.87-78.76.49-157.52.2-236.28.1-2.42,0-4.84-1.3-7.27-2"/><path class="cls-1" d="M66.46,830.55c16.36.7,32.72,1.9,49.08,2,52.7.26,105.42.43,158.12-.17,10.78-.12,18.34,2.52,23.19,19.66-6.19,3.05-12.83,9.09-19.56,9.22q-105.41,2.07-210.83,2c-4.84,0-12.69-5.43-13.93-10.13-2.81-10.66,2-19.25,12.11-22.61"/><path class="cls-1" d="M1558.66,125.39c-54.19-13.34-109.09-2.86-163.57-6.29-9.81-.61-21.26,4.43-27.57-10.13-.84-1.93-5.76-2.15-8.79-2.16q-95.42-.16-190.84,0c-2.54,0-5.07,1.88-12,4.62,8.21,1.86,11.93,3.43,15.66,3.44q95.42.23,190.84,0c1.82,0,3.63-1.29,5.45-2"/><path class="cls-1" d="M1656.81,301.68c5.45,42.17,11.64,84.24,16.13,126.55,3.57,33.72,5,67.72,7.63,101.58.17,2.18,2.29,4.16,3.5,6.24"/><path class="cls-1" d="M486.31,129.54A15.25,15.25,0,0,0,477.8,150c2.63,6.36,9.84,13,15.87,14.3,25.85,5.39,52,9.45,78.1,12.68,11.1,1.37,18,6.26,18,19,0,24.89-1,49.77-1.64,74.66"/><path class="cls-1" d="M588.1,762.11q.9,36.3,1.81,72.59c.3,12.75-4.33,17.92-16.32,19.12-26.77,2.7-53.39,7.54-80,12.11-15.36,2.64-19.62,17.19-10.92,35.14"/><path class="cls-1" d="M1466,594.12c1.21,3.45,3.45,6.9,3.48,10.37.25,38.71.67,77.44,0,116.14-.76,44.69-8.48,68.45-27.9,90,10.7,14.85,26.3,14.12,40.7,18.09,41.27,11.36,82.27,24,126.08,37l12.11-39.32"/><path class="cls-1" d="M1482.33,517.38c-4.24,15.21-8.62,30.37-12.66,45.65a181.32,181.32,0,0,0-3.67,18.65c-10.27,66.5-15.31,134.08-32.26,199.27-1.83,7,3.15,16.42,5,24.72"/><path class="cls-1" d="M1069.74,106.72c-3.63-1.38-7.26-4-10.9-4q-78.15-.41-156.31,0c-4.85,0-9.69,2.58-14.54,4"/><path class="cls-1" d="M1333.29,843c-38.17-.69-76.34-1.5-114.51-2-19.4-.27-38.81-.05-58.22-.05l1.8,5.76-10.83,6.69"/><path class="cls-1" d="M893.44,110.87h170.85"/><path class="cls-1" d="M1027.94,171c-39.88-14.33-80.23-18.63-121.85-10.88-13.48,2.51-27.3,1.11-38.09,13"/><path class="cls-1" d="M1366,847.15c-15.14.69-30.29,1.83-45.44,2-32.1.3-64.22,0-96.32.18-6.07,0-12.12,1.29-18.18,2"/><path class="cls-1" d="M829.83,857.52c24.23,0,48.47.11,72.7-.06,10.54-.07,21.73,3,29.46-10,1.61-2.72,8.1-2.26,12.34-2.28,40.6-.15,81.19-.44,121.78.21,8,.13,16,4.1,23.63,6.2v33l-4,.28c-.71-8.37-1.41-16.73-2.27-26.93-18.85-5.93-37.5-8-57.69,3.08-14.23,7.79-31,10.92-47,12.65a294.5,294.5,0,0,1-58.1.09c-16.49-1.49-32.74-6.5-49.1-10"/><path class="cls-1" d="M1533.22,110.87c-47.26,0-94.52-.06-141.77.09-5.46,0-10.91,1.3-16.36,2"/><path class="cls-1" d="M1558.66,926l9.13,4.56c-16.77,37.51-32.36,69.39-58.27,92.81-11.23,10.15-14.32,10-29.94,3.89q26.91-51.86,53.64-103.33"/><path class="cls-1" d="M1349.65,177.24c-10.3-2.76-20.48-6.61-30.92-8.1-36.6-5.24-73.24-8.62-109,6"/><path class="cls-1" d="M1667.72,737.22c4.79,7.59,4.58,7.54,3.66,12.46-8.49,45.48-20.09,89.73-40,130.65"/><path class="cls-1" d="M493.58,129.54c15.15,2.07,30.29,4.17,45.45,6.19,1.79.24,4.2-.84,5.36.16C564.8,153.34,589.05,147,613,148.47c12.22,35.36,2.45,71,6.91,106.55H629V148l-13.63,2.24"/><path class="cls-1" d="M1115.18,81.84c4.42,43.89,1.37,87.36-5.37,130.68-1.17,7.49-1.29,15.19-1.9,22.79"/><path class="cls-1" d="M924.34,851.29H826.19v10.35l-19.26-3.1c-9.91,9.27-17.36,21.07-11.59,38.36.28.84,1.17,1.41,1.77,2.1l1.82-2.08"/><path class="cls-1" d="M1689.53,376.35c.6-29.73,5.75-60.58.38-88.83-4.32-22.77-13.24-45.48-18.55-68.8-1.88-8.28-3.31-16.71-5.57-24.85-1.73-6.19-4.45-12-6.72-18l-5.81-2.69-3.72,10.28"/><path class="cls-1" d="M1558.66,266.42c-9.08-16.59-17.76-33.51-27.55-49.54-2.45-4-8.45-5.21-12.82-7.7l-2.45,4q12.32,24.56,24.65,49.11"/><path class="cls-1" d="M629.9,780.78V882.41c-13.27,0-26.64-.32-40,.09-12.71.38-24.71-1.45-37,9.25-8.56,7.42-23.57,5-35.66,7.31-5.5,1-10.91,2.7-16.37,4.09"/><path class="cls-1" d="M1031.58,855.44c-24.84-.69-49.69-1.27-74.52-2.14-7.89-.27-15.76-1.31-23.63-2"/><path class="cls-1" d="M1467.79,233.24c19.66,10.21,30.32,28.53,34.42,51.87,6.77,38.52,5.68,76.31-10.91,111.9-1.54,3.31-4.73,5.61-7.16,8.37"/><path class="cls-1" d="M1113.37,797.37c2.42,31.8,5.15,63.58,7.12,95.42.86,13.75.15,27.64.15,41.47"/><path class="cls-1" d="M1398.72,173.09h-16.36c-2.42,2.77-3.65,3.87-3.54,4.09a59.58,59.58,0,0,0,3.17,5.11l-1.42,5.32h-96.36"/><path class="cls-1" d="M691.7,73.54c-2.43,42.17-4.77,84.35-7.4,126.5-.27,4.23-2.3,8.31-3.51,12.46"/><path class="cls-1" d="M1560.48,451l-98.15,6V409.38l-3.79,0,20.71-29,15.8,2.16"/><path class="cls-1" d="M619,780.78c0,22.12.39,44.26-.16,66.36-.28,11.09-2.26,22.13-3.47,33.19"/><path class="cls-1" d="M1685.89,280.94c-1.82,4.15-5.36,8.4-5.17,12.43,1.28,27.68,3.35,55.32,5.17,83"/><path class="cls-1" d="M1633.18,158.58c-24.84,7.6-49.61,15.49-74.53,22.73-29.62,8.62-60,14.45-88.75,25.93-13.73,5.49-24.3,21.22-34.66,30.79,7.55,50.43,14.6,97.49,21.64,144.54"/><path class="cls-1" d="M1684.07,411.6c1.21,11.76,3.25,23.49,3.47,35.27.52,27.64-.3,55.31.3,83,.6,27,2.91,53.92,3.25,80.89.19,14.5-2.17,29-3.38,43.55"/><path class="cls-1" d="M1458.7,351.46l10,5.89V289l-19.08,23.08"/><path class="cls-1" d="M1565.93,276.79q1.82,47.71,3.64,95.41"/><path class="cls-1" d="M1376.91,177.24c-28.48,1.38-57,2.28-85.41,4.48-7.4.57-14.56,5.2-21.83,8"/><path class="cls-1" d="M1524.13,278.87c1.21,10.37,3.56,20.76,3.43,31.1-.48,37.93-4,74.54-22.81,108.3-10.3,18.43-22.38,22.2-38.78,20.3"/><path class="cls-1" d="M1511.41,241.54c6.21,13.89,8.51,29.31,21.09,40.46,6.5,5.76,8.57,22.88,7.33,34.11-2.28,20.69,7.08,46.32-15.7,60.24"/><path class="cls-1" d="M1545.94,189.69c9.62,26.63,18.62,53.45,18.18,83"/><path class="cls-1" d="M1560.48,955c31.5.69,63,1.82,94.51,2,61.8.31,123.6.62,185.39-.05,72.71-.79,145.43-1.75,218.09-4.52,23.12-.88,46.12-7.43,69-12.31,3.48-.74,6.12-6.54,9.15-10"/><path class="cls-1" d="M657.16,133.69c.75-2.71,1.49-5.43,3.48-12.67-8.36,3.59-16.85,4.19-19.3,8.88-6.24,12-15.21,9.7-24.16,10q-28.18,1-56.35,2.06"/><path class="cls-1" d="M1640.45,81.84c-2.3,4.89-4.61,9.77-5.87,12.44-20.78,0-40.3-1.46-59.49.76-7.08.82-13.4,10.3-20.06,15.83"/><path class="cls-1" d="M1556.85,911.44h-69.07"/><path class="cls-1" d="M557.2,892.78c23,.69,46,1.66,69.07,1.82,4.4,0,10.64-1.87,5.45-10.12"/><path class="cls-1" d="M2178.44,689.52c-1.81,18-4.21,35.9-5.33,53.94-2.65,42.36-8.82,83.9-20,124.45-2.75,9.91-4.15,20,5.38,26.94"/><path class="cls-1" d="M2173,175.17c3.62,28.86,7.23,57.73,11.1,88.62l-9.28-3.59"/><path class="cls-1" d="M1507.77,144.06c-7.87,4.84-15.33,11.31-23.72,14.15-14.2,4.79-29,7.28-43.53,10.74"/><path class="cls-1" d="M1158.8,110.87c-5.45,5.53-12.78,9.94-15.94,16.84-5.54,12.09-8.53,25.7-13.55,41.72l20.41,16.11"/><path class="cls-1" d="M2171.17,193.83c-12.33,5.51-7.66,18-6.81,26.91,1.58,16.75,5.85,33.18,9,49.83.21,0,1,.29,1.38-.05,1.31-1.25,2.46-2.71,3.67-4.1"/><path class="cls-1" d="M2182.08,778.7,2173,855.44"/><path class="cls-1" d="M1466,457.23c1.82,4.15,4.1,8.12,5.37,12.48,4.32,14.91,8.29,30,13.32,48.32,3.94-1.93,12.7-3.5,13.36-7,2.49-13.33,2.34-27.3,3.38-44.43l-28.16,3.11"/><path class="cls-1" d="M1484.14,529.82h47.26"/><path class="cls-1" d="M675.34,886.55l12.72,76.74"/><path class="cls-1" d="M2149.36,880.33c-9.51,18.71-19.78,36.59-38.16,45.63"/><path class="cls-1" d="M857.09,173.09c-13.25-14.28-28.84-15.19-45.44-10.37"/><path class="cls-1" d="M1155.17,921.81l67.25-2.07"/><path class="cls-1" d="M619,482.12v46.67h11.29c-6.3-16,9.87-37.17-10.92-51.51-2.68-1.85-.37-13.13-.37-20"/><path class="cls-1" d="M1206.06,179.32c-5.45,0-12.62,2.55-16.06-.45-13.75-12-28.42-11.63-43.92-7.85"/><path class="cls-1" d="M853.46,863.74c-12.51,7.94-25.25,14.39-40,8.29"/><path class="cls-1" d="M671.7,886.55v74.67"/><path class="cls-1" d="M1067.93,113c21.8,1,19.36,21.91,23.13,38.14,5.28-12.93,7.27-25.18-1.43-36-6.51-8-14.26-13.11-23.52-4.26"/><path class="cls-1" d="M2174.81,760l6.56,17,4.34-.21c0-13.87.41-27.78-.33-41.61-.15-2.92-4.51-5.55-6.94-8.32"/><path class="cls-1" d="M1689.53,621.08q-8.19,29-16.36,58.07"/><path class="cls-1" d="M64.64,865.81q.92,19.71,1.82,39.41"/><path class="cls-1" d="M2133,928l-28.64,5-1.8-3.83q-3.87,7.71-7.73,15.44"/><path class="cls-1" d="M66.46,127.46v39.41"/><path class="cls-1" d="M1187.88,179.32l-32.71,2.07"/><path class="cls-1" d="M2162.09,137.83q3.63,17.64,7.27,35.26"/><path class="cls-1" d="M1715,585.82q-10,34.23-20,68.44"/><path class="cls-1" d="M2173,272.65q1.82,37.32,3.64,74.66"/><path class="cls-1" d="M1447.79,299.61l19.42-27.7c-12.16-15.59-14.68-15.83-21.23-1.34"/><path class="cls-1" d="M1518.68,894.85l29.08,12.44"/><path class="cls-1" d="M1162.44,117.09c-11,4.7-19.93,10.79-14.54,27"/><path class="cls-1" d="M2140.28,106.72,2113,100.5"/><path class="cls-1" d="M1687.71,380.49c-2.43,11.76-5.72,23.39-6.93,35.31-.68,6.66,2.08,13.78,3.29,20.69"/><path class="cls-1" d="M1475.06,243.61c-.76,8.89-1.51,17.78-2.44,28.76l20.61-3.87"/><path class="cls-1" d="M1464.15,870c8.48,2.07,17,4.11,25.43,6.29a2.81,2.81,0,0,1,1.7,2c0,.69-1.08,1.38-1.68,2.07"/><path class="cls-1" d="M817.11,179.32l25.44-2.08"/><path class="cls-1" d="M1164.26,849.22l23.62,2.07"/><path class="cls-1" d="M2156.63,125.39l4.07,7.92c-13,10.83-10.78,24.73-4.33,39.93,2.25,5.31,1.48,12.3,2.08,18.52"/><path class="cls-1" d="M1709.52,577.53q-3.63,13.47-7.27,27"/><path class="cls-1" d="M619,258.13q3.84,7.32,7.66,14.65l4-2.11-2.58,24.79"/><path class="cls-1" d="M619,436.49v17l11.66,3.94c-.85,8.2-1.71,16.47-2.57,24.73"/><path class="cls-1" d="M619,643.89v24.9l3.57,2c2.45-2.75,7.36-6.3,6.9-8.11-1.76-7.07,7.09-19.21-6.83-20.88"/><path class="cls-1" d="M4.67,874.11H26.48"/><path class="cls-1" d="M628.08,318.27c.85,7.58,1.7,15.15,2.68,23.86H619V320.35"/><path class="cls-1" d="M8.3,156.5l21.81,2.07"/><path class="cls-1" d="M1367.82,855.44h23.63"/><path class="cls-1" d="M629.9,411.6v21.78H619V411.6"/><path class="cls-1" d="M619,598.27v22.81H629.9V598.27"/><path class="cls-1" d="M619,739.3v22.81H629.9V739.3"/><path class="cls-1" d="M629.9,552.64v22.81H619V552.64"/><path class="cls-1" d="M1631.36,870l-20-6.22"/><path class="cls-1" d="M1464.15,237.39c-3.62,9.29-3.22,16.53,7.27,18.66"/><path class="cls-1" d="M619,295.46v24c13.07-4,14.89-15.92,8.57-21.06-10.06-8.18-8.33-17.58-8.57-27.8"/><path class="cls-1" d="M619,693.67v21.78H629.9V693.67"/><path class="cls-1" d="M1464.15,382.57c-9.21,5.09-5.15,13.2-3.63,20.74"/><path class="cls-1" d="M619,366v21.77H629.9V366"/><path class="cls-1" d="M1266,191.76h-18.18"/><path class="cls-1" d="M1266,187.61h-18.18"/><path class="cls-1" d="M1413.26,857.52c5.45.69,10.91,1.32,16.35,2.15a2.71,2.71,0,0,1,1.69,2c0,.7-1.08,1.39-1.68,2.08"/><path class="cls-1" d="M1416.89,169l-17.82,1.45,6.78,11h-21.67"/><path class="cls-1" d="M628.08,670.86c.72,6.86,1.44,13.72,2.18,20.74H618.63c.74-7,1.46-13.88,2.18-20.74"/><path class="cls-1" d="M809.84,867.89l-10.91,29"/><path class="cls-1" d="M619,531.9v18.66H629.9V531.9"/><path class="cls-1" d="M619,577.53v18.66H629.9V577.53"/><path class="cls-1" d="M1158.8,915.59l16.36,4.15"/><path class="cls-1" d="M2160.27,907.29l-21.81,24.89"/><path class="cls-1" d="M1142.45,905.22c-.26,10.13,3.77,14.57,12.72,12.44"/><path class="cls-1" d="M619,623.15q.91,9.35,1.82,18.67"/><path class="cls-1" d="M1435.07,164.8l-17.83,1.45,6.78,11h-18"/><path class="cls-1" d="M629.9,623.15q-.92,9.35-1.82,18.67"/><path class="cls-1" d="M619,345.24V363.9H629.9V345.24"/><path class="cls-1" d="M1395.08,853.37c4.85.69,9.71,1.31,14.53,2.15.69.12,1.23,1.31,1.83,2l-1.82,2.07"/><path class="cls-1" d="M629.9,718.56v18.66H619V718.56"/><path class="cls-1" d="M629.9,436.49q-.92,9.33-1.82,18.67"/><path class="cls-1" d="M619,390.86v18.67H629.9V390.86"/><path class="cls-1" d="M1391.45,859.59l16.36,2.07"/><path class="cls-1" d="M1649.54,747.59l-5.45,18.67"/><path class="cls-1" d="M1535,370.12l14.55,6.23"/><path class="cls-1" d="M1433.25,861.66l12.73,6.23"/><path class="cls-1" d="M64.64,670.86v16.59"/><path class="cls-1" d="M802.57,896.92c1,5.57,2.09,11.15,3.21,17.08l15,3.66"/><path class="cls-1" d="M1533.22,278.87l27.26-4.15"/><path class="cls-1" d="M66.46,392.94v14.52"/><path class="cls-1" d="M1493.23,148.2q-27.26,7.26-54.51,14.59a2.83,2.83,0,0,0-1.7,2c0,.69,1.08,1.38,1.69,2.07"/><path class="cls-1" d="M1522.31,135.76c-10.63-.22-9.11,20.35-21.81,16.59"/><path class="cls-1" d="M66.46,438.57v14.51"/><path class="cls-1" d="M66.46,486.27q-.9,7.26-1.82,14.52"/><path class="cls-1" d="M62.83,579.6v14.52"/><path class="cls-1" d="M1493.23,878.26c7.27,2.07,14.55,4.1,21.8,6.28.71.22,1.22,1.32,1.83,2l-1.82,2.08"/><path class="cls-1" d="M1446,872l12.72,2.08"/><path class="cls-1" d="M1449.61,865.81l10.91,6.22"/><path class="cls-1" d="M64.64,251.91q.92,7.25,1.82,14.51"/><path class="cls-1" d="M62.83,766.26v14.52"/><path class="cls-1" d="M629.9,764.19V778.7H619V764.19"/><path class="cls-1" d="M1518.68,79.76,1540.49,113"/><path class="cls-1" d="M762.58,73.54V88.06"/><path class="cls-1" d="M1471.42,397.09q1.82,6.21,3.64,12.44"/><path class="cls-1" d="M1542.3,137.83,1515,148.2"/><path class="cls-1" d="M1698.61,660.49q-2.71,8.29-5.45,16.59"/><path class="cls-1" d="M1662.26,751.74l-3.63,10.37"/><path class="cls-1" d="M1655,772.48l-3.63,10.37"/><path class="cls-1" d="M1638.63,801.52c-2.42,5.53-4.81,11.08-7.3,16.57-.37.83-1.18,1.94-1.78,1.94s-1.21-1.23-1.82-1.92"/><path class="cls-1" d="M1544.12,262.28c.61,2.76,1.21,5.53,1.82,8.29"/><path class="cls-1" d="M1653.17,737.22q1.83,5.19,3.64,10.37"/><path class="cls-1" d="M1624.09,888.63q-3.63,4.14-7.27,8.29"/><path class="cls-1" d="M2183.9,332.79c-1.21,2.77-2.43,5.53-3.64,8.3"/><path class="cls-1" d="M1664.08,316.2c1.21,2.77,2.42,5.53,3.64,8.3"/><path class="cls-1" d="M2142.09,926a33.88,33.88,0,0,0-5.43.18,27.79,27.79,0,0,0,0,4"/><path class="cls-1" d="M1480.51,235.31c-.61-1.38-1.21-2.76-1.89-4.32l-3.56,2.25"/><path class="cls-1" d="M2165.72,175.17l-5.45,4.15"/><path class="cls-1" d="M1691.34,660.49l-5.45,18.66"/><path class="cls-1" d="M2171.17,836.78l-5.45-2.08"/><path class="cls-1" d="M2160.27,853.37l5.45,2.07"/><path class="cls-1" d="M1629.55,822.26l-3.64,6.22"/><path class="cls-1" d="M1464.15,374.27l-5.45-4.15"/><path class="cls-1" d="M1673.17,272.65l5.45,6.22"/><path class="cls-1" d="M2145.73,102.58l12.72,18.66"/><path class="cls-1" d="M1669.53,708.19l-1.81,6.22"/><path class="cls-1" d="M1758.59,368.05l-7.44,12.5c13,0,16.47-3.2,9.26-12.5"/><path class="cls-1" d="M1565.93,96.35c-14.54-24.88-28.24-50.5-44.06-74.28-5.73-8.6-16.17-13.63-25.15-18.7-4.5-2.54-10.55-1.51-18.42-2.37l39,76.69h-22.28c-120,0-239.92-.39-359.87.19-48.48.23-96.94,2.52-145.41,4C915,84.09,840.59,78,766.18,69.85c-36.74-4-73.87-4.2-110.84-4.42-96.93-.56-193.88-1.23-290.79.39-33.37.55-66.58,9.48-100,11.43-42.93,2.5-86,2.27-129,2.36-32.11.07-64.23-2-96.33-1.61-16.1.18-28.51,18.48-29.08,39.09"/><path class="cls-1" d="M1758.59,650.12c-3.89,6.09-3.89,6.09,4.88,11.36l-3.06-11.36"/></g></g></svg>