<svg xmlns="http://www.w3.org/2000/svg" viewBox="0 0 1026.4 870.32"><title>camioneta_front</title><g id="Capa_2" data-name="Capa 2"><g id="Capa_1-2" data-name="Capa 1"><path d="M108,264.52a35.53,35.53,0,0,0-7.85,0,239,239,0,0,1-26.09,0c-6.44-.31-12.88-.65-19.28-1.43-11.43-1.37-22.67-3.52-33.34-8a42.12,42.12,0,0,1-14.53-9.55A23.74,23.74,0,0,1,0,228.38a112.06,112.06,0,0,1,3.14-25.86A35.69,35.69,0,0,1,8.76,190a12.74,12.74,0,0,1,11-5.6q31.35.06,62.68,0a12.87,12.87,0,0,1,9.38,3.91,32.3,32.3,0,0,1,6.76,10.53c3.09,7.2,4.82,14.78,6.21,22.45.77,4.22.77,4.22,5.06,4.23,2.77,0,5.53,0,8.3,0,3.28,0,3.3,0,4.33-3.1,4-11.94,8.08-23.86,12-35.82q13.92-42.3,27.71-84.65c5.88-18.15,12.5-36,21.45-52.87C189.52,38,196.2,27.49,205.25,18.62c5-4.88,10.76-7.55,17.61-7.37,4.54.12,9.24,0,13.41,2.46a1.31,1.31,0,0,0,1.42-.13,6.3,6.3,0,0,1,3.27-.69c10.68.13,21.22-1.54,31.82-2.39C283.9,9.61,295,8.69,306.14,7.81c12-1,24.07-1.94,36.12-2.81,8.06-.58,16.14-1,24.21-1.45q15.16-.84,30.35-1.61c1.94-.1,3.89-.1,5.83-.15,14.33-.39,28.67-.46,43-.84,17-.44,34-.13,51-.61,9-.26,18-.48,27-.24,17.82.48,35.64.09,53.44.64,11.16.34,22.33.1,33.47.57,12.58.52,25.17.56,37.74,1.49,4.38.33,8.78.44,13.18.69,11.95.68,23.9,1.45,35.84,2.39,9.18.73,18.38,1.29,27.56,2,10.91.89,21.81,2,32.72,2.81,9.29.68,18.52,1.91,27.85,2.3a32.17,32.17,0,0,0,8.55-.76,39.1,39.1,0,0,1,12.5-.79,21.23,21.23,0,0,1,11,4.18c6.32,4.77,11.09,10.9,15.5,17.33,8.68,12.65,15.16,26.44,20.94,40.6,6.45,15.76,11.32,32.05,16.58,48.21q15,46,30.31,91.89,1.56,4.65,3.23,9.28c.83,2.31,1.06,2.49,3.57,2.53,3.48,0,7,.06,10.44,0,2.45,0,2.75-.34,3.18-2.79A125.65,125.65,0,0,1,926.1,203a44.48,44.48,0,0,1,6.41-12.53,14.57,14.57,0,0,1,12.38-6.14c20.18.11,40.35.17,60.53,0,6.44-.07,10.68,2.76,13.74,8s4.41,11.21,5.54,17.16a121,121,0,0,1,1.67,17.71c.33,8.18-2.81,15-9,20.31-6.6,5.68-14.47,8.85-22.7,11.16a161.08,161.08,0,0,1-30.23,5.12,298.91,298.91,0,0,1-30.37,1c-4.09-.07-8.18-.33-12.27-.5a19.31,19.31,0,0,0-2.15,0c-1.38.1-1.64.54-.94,1.77,1.48,2.57,3.08,5.07,4.54,7.66a163.62,163.62,0,0,1,12.42,27c.26.78.58,1.53.86,2.3a1.88,1.88,0,0,0,2.39,1.32c4.44-.66,7.71,1.35,10.3,4.75,3.3,4.34,4.85,9.43,6.13,14.62a25,25,0,0,1,.63,7.32c-.29,5.54-3,8.9-8.35,10.39-3,.83-3,.84-2.27,4A286.2,286.2,0,0,0,959.56,389a23,23,0,0,1,1.75,8.65c.14,15.57.37,31.14-.06,46.7-.48,17.8-1.12,35.6-3.54,53.28a91.06,91.06,0,0,1-2,11.18c-1.43,5.33-.94,10.56-.09,15.84a160.66,160.66,0,0,0,6.33,25,22.7,22.7,0,0,1,1.17,7.22q.08,79,.24,157.93c0,6.55.51,13.09.35,19.65-.73,28.87-.13,57.75-.63,86.62-.16,9.58-1.37,19-5.37,27.84-5,11.13-13.25,18.53-25.45,21.08a23.6,23.6,0,0,1-4.89.37q-34.73,0-69.44,0c-12.33,0-22.42-5-30.58-14a50.5,50.5,0,0,1-9-13.82,11.21,11.21,0,0,1-.93-4.46c-.26-16-.43-31.94-.77-47.91-.25-11.67-.33-23.33-.51-35,0-3.2-.11-3.29-3.27-3.31q-17.21-.1-34.41-.16c-12,0-24,0-36-.09-2.55,0-5.1-.28-7.66-.41a5.36,5.36,0,0,1-3.3-1.49c-4.11-3.62-8.86-4.25-14.21-4.25q-205.24.18-410.5.08c-2.59,0-5.17-.11-7.22,1.84-3.95,3.76-8.89,4.23-14,4.25l-20.9.07-50.08.15c-.61,0-1.23,0-1.84,0-2,.12-2.44.39-2.4,2.34.16,7.48-.43,14.94-.5,22.41-.09,9.3,0,18.62-.5,27.92-.36,6.75-.21,13.52-.27,20.28,0,3.48-.19,7,0,10.44a18,18,0,0,1-2.3,9.72c-5.06,9.16-11.59,16.85-21.22,21.49a38.38,38.38,0,0,1-16.9,3.93q-34.26,0-68.52,0c-12.72,0-22.1-5.81-28.84-16.26-4.31-6.68-6.19-14.2-7.36-22a88.45,88.45,0,0,1-.66-11c-1-43.11-.48-86.22-.56-129.33-.05-29.5-.14-59,.23-88.49.21-16.18.17-32.35.36-48.53a22.52,22.52,0,0,1,1.44-6.56,154.51,154.51,0,0,0,6.22-26,36.31,36.31,0,0,0-.33-12.81A200.53,200.53,0,0,1,67,482.65c-1.25-15.1-1.68-30.24-2-45.39-.15-7.88-.35-15.77-.22-23.64.1-6.44.37-12.89.4-19.34a12.23,12.23,0,0,1,1.31-4.7,294.18,294.18,0,0,0,14.24-43.12c.1-.4.21-.79.29-1.19.64-3,.63-3-2.42-3.75-4.7-1.22-8-4.52-8.22-9.55A33.76,33.76,0,0,1,78.22,308c2.35-2.84,5.43-4.36,9.25-3.58,1.87.39,2.28-.91,2.71-2.2a153,153,0,0,1,7.22-17.6q4.35-9,9.56-17.53C107.41,266.37,108.23,265.75,108,264.52ZM122.47,861a2.1,2.1,0,0,1-3.16.58,6.09,6.09,0,0,0-3.11-1.16c-.84,0-1.61.1-2,1.05-1,2.45.11,4.24,2.69,4.26,4,0,7.94,0,11.91,0a12.89,12.89,0,0,0,1.52-.07.73.73,0,0,0,.73-.8c-.06-.7-.57-.8-1.11-.59a8.39,8.39,0,0,1-3.16,1c-3.26,0-5.1.47-4.29-4.28a7.17,7.17,0,0,1,3.26-.6,6.62,6.62,0,0,0,4.76-2.26c-1.69.2-3.29.78-5,.57A2.57,2.57,0,0,0,122.47,861ZM513.79,687.65H927.37c1.13,0,2.26,0,3.38,0,2.41-.09,2.61-.26,3.08-2.52.12-.6.2-1.21.26-1.82,1.11-10.28,2.17-20.56,3.3-30.83q2.94-26.55,5.93-53.1,3-27.32,6-54.63c.32-2.88-.07-3.28-2.91-3.07-7.45.54-14.9,1.12-22.35,1.57q-16.4,1-32.8,1.82-20.25,1-40.49,1.84-16.11.68-32.22,1.21-20.4.67-40.82,1.24c-8.59.25-17.19.14-25.79.56-10.22.49-20.47.23-30.7.6-14.32.5-28.67.43-43,.59-32,.38-64.11.33-96.17.3-39.32,0-78.65.21-118-.53-19-.37-38.09-.18-57.13-.68-10.54-.28-21.08-.12-31.63-.53-11.76-.46-23.54-.16-35.31-.66-9.2-.38-18.42-.15-27.63-.57-9.61-.44-19.24-.17-28.86-.66-7.77-.39-15.56-.33-23.33-.55-15.86-.43-31.73-.72-47.58-1.32-6.45-.24-12.9-.32-19.34-.52q-20.27-.63-40.52-1.29-17.49-.57-35-1.2-17-.6-34.06-1.25c-6.36-.24-5.93-1.31-5.18,5.89,1.27,12.22,2.7,24.41,4,36.62q1.66,15.11,3.29,30.22,2.06,18.76,4.14,37.54c1.12,10.07,2.2,20.14,3.39,30.2.66,5.55.76,5.54,6.45,5.54ZM880.4,253.27l-.14-.71c-5.39-.41-10.83-1.93-16,1.44a14,14,0,0,1-3.76,1.28c-4.45,1.28-9.06,1.63-13.63,2.2a6.59,6.59,0,0,0-3.15,1.07,34.58,34.58,0,0,1-13.05,5.16,83.88,83.88,0,0,1-18.29,1.94c-7.67-.08-15.36.31-23-.62a8.49,8.49,0,0,0-5.55,1.26,120.3,120.3,0,0,1-14.48,7.4c-22.43,9.5-45.43,15.88-70.17,15.44-29.08-.52-58.17-.12-87.26-.13-1.84,0-3.69,0-5.52-.13q-15-1.41-30-2.6-16.83-1.33-33.68-2.38c-4.91-.29-9.83-.32-14.73-.7-12.49-1-25-.19-37.43.41-11.24.54-22.47,1.47-33.69,2.29-6.23.46-12.44,1.09-18.67,1.55-8.26.61-16.48,1.65-24.8,1.61q-44.86-.17-89.72,0a102.92,102.92,0,0,1-14.68-.56c-23.26-3.29-45.3-10.2-65.78-21.82a12.59,12.59,0,0,0-7.62-1.57,172.77,172.77,0,0,1-33.11-.21c-6.13-.69-12.27-1.79-17.6-5a22.82,22.82,0,0,0-9.84-2.9c-4.78-.53-9.63-1.1-13.92-3.47a11.67,11.67,0,0,0-6.44-1.5c-1.53.07-3.07,0-4.6.07a14.17,14.17,0,0,0-5.07,1.14c1.79.8,3.08,1.41,4.39,2a179.62,179.62,0,0,1,18.78,9.12c19.43,10.95,36.31,24.83,49.39,43.05,6.48,9,12,18.54,15.27,29.28,1.67,5.51.17,4.91,6.49,4.91H786.26c.82,0,1.64,0,2.46,0,2.69-.06,2.75-.09,3.57-2.79.77-2.55,1.44-5.13,2.46-7.6,6.63-16.19,16.75-30,29.21-42.11a161.78,161.78,0,0,1,44.47-30.32C872.4,256.82,876.41,255.07,880.4,253.27ZM698.38,10.8c-.85-.13-1.34-.25-1.84-.28-11.23-.79-22.45-1.67-33.69-2.31Q643.4,7.1,623.91,6.36c-9.51-.38-19-.24-28.55-.59-13-.47-26-.44-39-.58-29.79-.3-59.59-.62-89.38.25-13.5.39-27,0-40.53.62-5.93.27-11.88,0-17.81.26-11.76.46-23.52.79-35.27,1.6-9.08.62-18.19.91-27.28,1.54-12.35.85-24.69,1.86-37,2.84Q289,13.9,269,15.59c-3,.24-5.9.63-8.85.9a2.64,2.64,0,0,0-2.3,1.63c-1.55,2.76-3.35,5.38-5,8.07C246.16,36.77,239.46,47.31,234,58.57c-1.6,3.28-1.52,3.5,2,3.35,6.95-.29,13.9-.72,20.85-1.06q13.33-.64,26.68-1.22c14.11-.63,28.21-1.31,42.33-1.83q14.56-.54,29.13-1.22c10.53-.5,21.07-.85,31.6-1.24,11.56-.43,23.11-.86,34.67-1.22,14.53-.45,29.05-.89,43.58-1.21q13.67-.31,27.34-.23c24.06.14,48.12-.45,72.17.56,7.47.32,14.94.32,22.41.54,14.42.41,28.84,1,43.27,1.4,8,.25,16,.49,23.93.81,13,.51,26,1.11,38.95,1.65,7,.29,13.92.5,20.87.81,11.55.52,23.1,1.11,34.65,1.64,6.44.29,12.88.51,19.32.81,7.46.34,14.92.77,22.38,1.1,3.85.16,3.92,0,2.29-3.34-3-6.28-6.48-12.33-10.11-18.27-4.7-7.69-9.47-15.32-14.15-23a2.53,2.53,0,0,0-2.25-1.25l-15-1.28q-12.84-1.12-25.69-2.22c-3.21-.27-6.42-.43-9.5-.64a1.44,1.44,0,0,0,.07,1.49,33.65,33.65,0,0,1,2.88,20.05c-.72,4.72-2.09,9.22-5.45,12.8-4.37,4.66-9.92,4.4-14-.55a20.45,20.45,0,0,1-4-8.21c-2.19-8.75-1.82-17.24,2.7-25.29A10.42,10.42,0,0,0,698.38,10.8ZM73.18,536.36c2.56.2,4.79.49,7,.54,10.85.24,21.68.83,32.53,1.21,11.66.4,23.32.85,35,1.21,13,.4,26,.88,39,1.24,13.91.39,27.82.88,41.74,1.22,16,.4,31.93.74,47.89,1.27,8.59.29,17.19.16,25.79.57,9.61.46,19.24.2,28.86.62,10.32.45,20.67.22,31,.61,12.27.46,24.56.21,36.85.62,14.42.47,28.87.24,43.3.6,21.29.52,42.59.21,63.89.61,20.78.4,41.58.21,62.37.12,28.88-.11,57.76.33,86.63-.38,18-.44,36,0,54.06-.62,11.46-.41,22.93-.08,34.39-.6,9.41-.43,18.83-.3,28.25-.6,14.22-.45,28.45-.68,42.66-1.27,9.21-.38,18.42-.49,27.63-.85,13.19-.52,26.38-1.17,39.57-1.76,5.83-.27,11.66-.46,17.48-.79,13.08-.74,26.16-1.55,39.23-2.34,3.88-.24,7.77-.43,11.64-.78,3.15-.29,3.27-.59,2.65-3.61-.52-2.5-1.06-5-1.5-7.53-1.06-6.09-1.43-12.15.16-18.27a97.58,97.58,0,0,0,1.92-11.19c1.78-13.1,2.38-26.29,3-39.48.47-9.81.4-19.65.6-29.47.21-10.54-.24-21.09-.38-31.63a12.49,12.49,0,0,0-1-4.46c-2.15-5.53-4.4-11-6.35-16.64-5.51-15.89-10-32-12-48.82a78.5,78.5,0,0,0-2.23-11.45c-.46-1.72-.92-1.84-2.21-.56a22.84,22.84,0,0,0-6,9.87,28.76,28.76,0,0,0-.3,14.59q2.46,10.62,5.42,21.12c3,10.85,6.26,21.64,9.39,32.46.34,1.16.9,2.32.39,3.58-1.24,3-2.16,6.16-4.27,8.8-4.73,5.92-9.31,12-14,17.92a7.66,7.66,0,0,0-1.88,5c.08,7.27,0,14.54,0,21.82,0,3.09.13,3.22,3.3,3.44,5.52.39,11,.71,16.55,1.07,2.53.17,2.66.32,3.14,2.82a29.88,29.88,0,0,1,.41,5.51c0,13.09-4.92,23.67-15.82,31.21a54.19,54.19,0,0,1-16.81,7.36c-11.6,3.15-23.44,3.55-35.36,2.91a27.62,27.62,0,0,0-4.89-.28c-6.42.76-12.88.56-19.32.9-9.6.51-19.22.82-28.83,1.25-13.09.58-26.19,1-39.28,1.43a9.1,9.1,0,0,0-5.14,1.61c-8,5.5-16.12,10.91-24.13,16.42a34.31,34.31,0,0,0-5.44,4,12.09,12.09,0,0,1-4.11,2.61,67.68,67.68,0,0,1-13,3.64c-17.61,3.51-35.48,4.85-53.35,6-12.46.79-24.94,1.25-37.42,1.77-8.69.37-17.4.42-26.09.56q-42.24.69-84.48.72c-20.88,0-41.77.24-62.66-.33-21.29-.57-42.59,0-63.89-.62-13.4-.4-26.81-.64-40.21-1.24-10.33-.46-20.64-1.1-31-1.86a356.2,356.2,0,0,1-36.87-4.4c-8.38-1.52-16.39-3.59-23.45-9.09-8.38-6.54-17.51-12.11-26.3-18.12a8,8,0,0,0-4.52-1.65c-4.81,0-9.61-.32-14.42-.51q-15-.61-30.06-1.27c-13.29-.59-26.6-1-39.9-1.46-2.24-.08-4.46-.58-6.73-.35a111.16,111.16,0,0,1-28.17-.75c-8.16-1.25-16-3.45-23.23-7.58-7.85-4.49-13.57-10.83-16.47-19.49A43.4,43.4,0,0,1,81.89,456c.24-2.11.69-2.44,3-2.6,5.62-.37,11.24-.69,16.85-1.08,3.29-.24,3.3-.29,3.31-3.69,0-7-.06-13.93,0-20.89a8.3,8.3,0,0,0-2-5.61c-4.35-5.44-8.49-11.05-12.89-16.44a32.94,32.94,0,0,1-5-9.06,6.84,6.84,0,0,1-.14-4.76c3.48-11.25,6.8-22.55,9.86-33.92,2-7.51,4.33-15,5.57-22.65a24.28,24.28,0,0,0-4.31-18.65,12.94,12.94,0,0,0-4.11-4,34.36,34.36,0,0,0-2,8.16c-1.28,7.88-2.25,15.81-4,23.6a297.93,297.93,0,0,1-15.22,47,12.76,12.76,0,0,0-1,5.06c0,5.12-.11,10.24-.13,15.36-.09,22.52,0,45,1.82,67.52.74,9.4,1.53,18.79,3.57,28a41.25,41.25,0,0,1,.39,16.74C74.69,528.1,74,532.12,73.18,536.36Zm438.55-291.6c-19.75.06-39.51-.34-59.26.34-12.89.45-25.79.05-38.69.62-9.71.43-19.43.28-29.16.57-14.83.45-29.66.81-44.49,1.29-11.36.38-22.7,1-34,1.53-5.42.25-10.82.81-16.21,1.34-1.05.11-2.61-.2-3.06.9s1,1.88,1.68,2.68c8.12,9.08,16.33,18.07,24.36,27.24a8.13,8.13,0,0,0,6.77,3.21c32.56-.11,65.12-.07,97.69-.08,1.73,0,3.47-.11,5.2-.26,5.81-.51,11.62-1.09,17.43-1.57,8.56-.71,17.14-1.29,25.7-2,11.63-1,23.27-1.6,34.92-2.14a206.61,206.61,0,0,1,23.61-.16c6.13.42,12.28.47,18.4.86,10.72.68,21.44,1.47,32.15,2.28,6.22.47,12.43,1.12,18.65,1.58,7.85.59,15.67,1.53,23.58,1.5,29.28-.12,58.57,0,87.85,0,.92,0,1.85-.07,2.77,0a5.29,5.29,0,0,0,4.84-2c1.84-2.2,3.82-4.28,5.73-6.42q10.13-11.32,20.26-22.66c.44-.5,1.24-1,.79-1.79-.32-.61-1.05-.54-1.65-.62-.2,0-.41,0-.61-.06-10.05-1.33-20.18-1.73-30.29-2.34q-14.25-.87-28.52-1.22-21.95-.54-43.88-1.25c-9.92-.33-19.85-.21-29.78-.57-13.19-.48-26.4-.33-39.6-.6C547.16,244.49,529.45,244.76,511.73,244.76Zm338.06,7.65c4-.55,8-.87,11.71-2.36,1.94-.77,2.22-1.27,1.85-3.27-.21-1.1-.54-2.18-.83-3.27-5.82-22-12-43.83-18.54-65.62-7.91-26.59-15.8-53.19-24.73-79.47q-4.79-14.1-10.52-27.86c-.65-1.56-1.25-3.06-3.39-2.94-6.06.34-12-.73-18.06-1.05-13-.68-26-1.32-38.95-1.83-13.9-.56-27.81-1.21-41.71-1.83q-14.57-.66-29.14-1.22c-10.33-.4-20.66-.88-31-1.23-11.45-.4-22.91-.87-34.36-1.24-13.3-.44-26.6-.75-39.9-1.24-9.31-.35-18.63-.48-27.94-.55-23.34-.18-46.69-.59-70,.25-9.31.34-18.62.25-27.94.58-13.09.46-26.19.77-39.28,1.25-11.66.42-23.32.82-35,1.27-10,.38-20,.81-30.06,1.2q-21.94.84-43.87,1.89c-12.06.57-24.14.82-36.2,1.53-5.21.31-10.43.62-15.63.72-8.09.16-16.08,1.64-24.18,1.51-3.34,0-3.35,0-4.67,3.25-4.53,11.1-8.74,22.31-12.5,33.69-6.12,18.47-11.72,37.1-17.36,55.72-8.07,26.65-15.82,53.39-23,80.29-.59,2.18-1.14,4.36-1.73,6.53-.31,1.12-.18,2.1,1,2.57a33,33,0,0,0,14.08,2.53c2.13-.11,4.15-1,6.07.65.32.28,1,.2,1.49.23,3.68.18,7.36.52,11,.5,7.47,0,14.94,0,22.41-.25,12-.35,23.94-.86,35.89-1.61,4.26-.26,8.6-.08,12.77-1.42A121.81,121.81,0,0,1,295,245.2c14.79-1.22,29.62-1.77,44.45-2.41,12.67-.55,25.36-.85,38.05-1.22,9.11-.26,18.22-.17,27.32-.57,11.05-.49,22.11-.25,33.17-.59,16.37-.5,32.75-.34,49.13-.62,19.45-.33,38.9-.38,58.35.25,15.25.49,30.51,0,45.76.62,11,.44,22.11.09,33.16.61,9,.43,18,.29,27,.59,12.78.43,25.57.79,38.36,1.25,14.83.54,29.66,1.13,44.42,2.68,8.33.88,16.71,1.77,24.73,4.52a14.92,14.92,0,0,0,3.87.89c12.26.76,24.52,1.59,36.8,1.93,2.76.08,5.53,0,8.29.16a287.65,287.65,0,0,0,32.83-.19c.82,0,1.73.07,2.35-.55,1.22-1.22,2.62-.89,4-.64A10.8,10.8,0,0,0,849.79,252.41ZM313.23,732.65l-.29-.61h-3.67c-43.22,0-86.44-.09-129.65.05a194.63,194.63,0,0,1-33.33-2.47c-9.08-1.54-18.16-3.09-27.2-4.91-2-.4-2.35-1-2.2-2.65s.69-2.24,2.55-2.41c.92-.08,1.84,0,2.76,0H912.43c.82,0,1.64,0,2.46,0s1.57-.08,1.75.83c.14.68-.56,1-1,1.4a31.32,31.32,0,0,1-12.37,5.92,152.9,152.9,0,0,1-35,4.2c-37,.13-73.94,0-110.91,0q-19.82,0-39.64,0c-1,0-2.14-.28-3.28.48.5.41.79.69,1.12.91,5.19,3.47,10.5,6.79,15.55,10.46a14.73,14.73,0,0,0,9.13,2.78c15,.07,30.1.08,45.15.33,29.79.5,59.59,0,89.38.66,13.52.31,27,0,40.56.22a12,12,0,0,0,10.48-5.21,18.25,18.25,0,0,0,3.51-9.38c1-10.49,2-21,2.93-31.48.13-1.55.5-3.17-.16-4.9a13.56,13.56,0,0,0-3.4,2.42,133.34,133.34,0,0,1-10.94,8.45c-3.88,2.65-8,4.62-12.89,3.89a19.68,19.68,0,0,0-2.77,0H125.36a37.91,37.91,0,0,0-4,0,14.23,14.23,0,0,1-9-2.38,116.87,116.87,0,0,1-14.49-10.85c-.75-.62-1.33-1.55-2.64-1.62-.48,2,.17,3.76.31,5.55q1.23,15.15,2.62,30.28a18.37,18.37,0,0,0,2.77,8.7c2.48,3.7,5.44,6.62,10.41,6.5,16.27-.4,32.55-.16,48.83-.45,30-.55,60,0,90-.68,13-.29,26-.14,39-.13a10.08,10.08,0,0,0,6-1.88c4.46-3.1,9-6,13.53-9.06ZM513.36,433.89h-247c-4.33,0-4.36,0-3.54,4.23,5.4,27.83,10.87,55.65,16.17,83.5.6,3.14,2,4.86,5,5.82a116.15,116.15,0,0,0,17.34,4c16.08,2.63,32.31,3.88,48.55,4.82q22.83,1.32,45.7,1.85c18.11.43,36.24.48,54.35.67q12,.13,24,.14c41,0,81.91.31,122.86-.48,15-.29,30.1-.11,45.14-.72,8.07-.33,16.17-.4,24.23-.87,10.83-.64,21.66-1.24,32.46-2.23a328.14,328.14,0,0,0,34.07-4.52,66,66,0,0,0,11.2-3.22c1.75-.69,3-1.72,3.11-3.75a12.57,12.57,0,0,1,.35-1.81q7.26-37.21,14.51-74.44c.66-3.42,1.36-6.83,2-10.26.36-2.09-.06-2.56-2.18-2.69-1.12-.07-2.25,0-3.37,0ZM96.49,692.56l-.21.75c4.07,3.26,8.41,6.14,12.64,9.18s8.66,5.51,14.2,4.29a5.61,5.61,0,0,1,1.23,0H902.88a33.12,33.12,0,0,1,4,.1,11.47,11.47,0,0,0,7.61-1.75c5.44-3.3,10.54-7.07,15.63-10.87.4-.29.87-.55.84-1.17-.28-.58-.85-.51-1.33-.51ZM923,347.55H103a11.93,11.93,0,0,0,5.12.71l29.5.07c1.33,0,2.66.07,4,.16.72.05,1.57.22,1.73,1,.38,2,1.84,1.88,3.29,1.89,6.86,0,13.72,0,20.58.1,3.89.05,7.82-.55,11.62-.3,6.33.41,12.65.74,19,.76,13.32,0,26.63.05,39.94.17,6.27.06,5.62-.28,7.2,5.53,4.56,16.8,9.05,33.61,13.66,50.39,1.61,5.84.25,5.58,7.33,5.58H760.63c.82,0,1.64,0,2.46,0,3-.06,3.14-.14,3.95-3.14q5.51-20.31,11-40.62c1.37-5,2.79-10.06,4.09-15.12a3,3,0,0,1,3.25-2.56c1.54,0,3.08-.06,4.61-.07,11.16-.06,22.33-.34,33.49-.09,10.73.24,21.4-1,32.14-.56,7.87.34,15.77,0,23.65-.06,1.57,0,3.1.11,3.7-1.88.27-.89,1.23-1,2.06-1.06,1.33-.07,2.66-.13,4-.13l29.49-.07A9.34,9.34,0,0,0,923,347.55ZM224.41,16c-7.63-.11-11,1.21-16,6.08-6.51,6.21-11.57,13.52-16.15,21.19-8.86,14.85-15.57,30.68-21.12,47-6.92,20.36-13.4,40.86-20.12,61.28Q142,178.7,133,205.78q-2.82,8.46-5.67,16.89c-.43,1.29-1,2.5.91,3.19.95.33.63,1.41.57,2.2a97.24,97.24,0,0,1-1.59,10.31c-.32,1.71-.63,3.42-.86,5.14a2.37,2.37,0,0,0,1.57,2.67c5.18,2.41,10.3,4.17,16.23,2.29,2.63-.83,4-1.91,4.57-4.52.91-4.09,2.07-8.14,3.15-12.19,11.83-44,24.68-87.71,40-130.66,6.4-17.94,13.24-35.71,21.6-52.86C218,39,222.63,29.93,229,21.84c1-1.2,2-2.32,3-3.51.66-.79.35-1.34-.58-1.52A34.19,34.19,0,0,0,224.41,16Zm579,0a35.48,35.48,0,0,0-7.47.65c-2.11.45-2.27.76-.84,2.49a96.42,96.42,0,0,1,8.74,12.23c7.39,12.34,13.31,25.39,18.74,38.66,9.28,22.66,17.28,45.77,24.76,69.08,8.91,27.78,17.08,55.79,24.79,83.93,2,7.2,3.86,14.44,5.75,21.67.4,1.55.86,2.86,2.7,3.31,5.15,1.26,10.24,2.22,15.14-.83a1.18,1.18,0,0,1,.28-.12c4.13-1.67,4.36-2.07,3.6-6.36-.07-.4-.19-.8-.26-1.2-.62-3.63-1.25-7.26-1.82-10.9-.18-1.09-.47-2.35.88-3s1.07-1.54.73-2.56-.64-1.94-1-2.91q-19.67-58.35-38.55-117c-6-18.43-12.67-36.56-22-53.64C832.21,39.56,826.1,30,817.84,22,813.54,17.82,808.67,15.61,803.41,16Zm-290,402.51H255c-6.42,0-5.8-.47-5.82,5.76,0,4.69,0,4.7,4.76,4.7H772.19c.61,0,1.23,0,1.84,0,2.49-.12,2.86-.45,3-2.87.07-1.53.06-3.07,0-4.6-.09-2.59-.42-2.89-3.14-3-1,0-2.05,0-3.07,0Zm280.47-77.23a10.54,10.54,0,0,0,3.31.21H918.8c3.38,0,3.38,0,2.71-3.43l-.06-.3c-2-11.23.79-20.93,9.37-28.64,1.68-1.52,1.83-2.84,1.15-4.81a166,166,0,0,0-12.15-27.16c-1.31-2.32-1.5-2.36-3.58-.53-15.91,14-25.55,31.48-28.59,52.53-.4,2.74-.51,5.5-.75,8.25-.18,2-1.55,2.86-3.41,2.22-1.56-.53-1.44-1.83-1.35-3.05A92.6,92.6,0,0,1,891,302a97.8,97.8,0,0,1,9.45-15.43c1.07-1.44.8-2-1-2a46.52,46.52,0,0,0-11.28,1.08c-14.61,3-28,9.06-40.94,16.27-18.68,10.43-35.59,23.35-51.82,37.21C794.82,339.64,793.9,340.07,793.83,341.29ZM125.09,284.72a5.66,5.66,0,0,0,1.6,3A88.66,88.66,0,0,1,141.93,321a78,78,0,0,1,2.15,16.1c0,2-1,2.89-2.78,2.66s-1.72-1.46-1.81-2.73a89.85,89.85,0,0,0-6.07-27.78,83.38,83.38,0,0,0-23.65-32.81c-1.86-1.58-2-1.55-3.13.51a164.2,164.2,0,0,0-12.41,27.71,3.43,3.43,0,0,0,1.15,4.27c8.29,7.43,11.27,16.8,9.65,27.72-.16,1.11-.41,2.21-.59,3.33a1.13,1.13,0,0,0,1.14,1.46c.82.07,1.64.06,2.46.06h19q50.85,0,101.7,0c1.13,0,2.35.33,3.62-.48-4.61-4.12-9.19-7.88-13.81-11.58-15.8-12.64-32.36-24.11-50.58-33a125,125,0,0,0-30.61-10.84A37.44,37.44,0,0,0,125.09,284.72ZM311,740.16c.17.12.32.32.48.32q201.22.06,402.47.08c.71,0,1.42-.09,2.13-.16a.45.45,0,0,0,.25-.16,3.42,3.42,0,0,0,.2-.54c-2.73-1.83-5.66-3.53-8.25-5.63a9.93,9.93,0,0,0-6.8-2.07q-187.86.06-375.74,0a9.29,9.29,0,0,0-6.45,2.07c-2.11,1.76-4.57,3.11-6.85,4.67C311.9,739.12,311.11,739.31,311,740.16ZM848,464v-.13c5.84,0,11.67,0,17.5,0,3,0,3-.06,3.87-2.84,1.72-5.78,3.39-11.58,5.09-17.38,1.5-5.1,3-10.2,4.49-15.32.72-2.49.43-2.88-2.21-2.85-2,0-4.08.3-6.12.36-9.1.27-18.2.14-27.31.55-10.32.46-20.66.16-31,.66-5.11.25-10.23.12-15.35.22-2.32,0-2.6.32-3.11,2.53-.11.5-.15,1-.23,1.52q-2.35,14.07-4.7,28.15c-.87,5.21-.87,5.17,4.44,5.11Zm-631.28.45v.12c6.14,0,12.28,0,18.42,0,2.52,0,2.92-.51,2.53-2.94q-2.52-15.45-5.12-30.87c-.59-3.44-.72-3.43-4.15-3.51-7-.17-14.1-.2-21.16-.46-10.63-.38-21.27-.26-31.9-.69-8.27-.33-16.57.1-24.84-.6a18.21,18.21,0,0,0-2.45,0c-.91,0-1.27.55-1.06,1.44.12.5.24,1,.39,1.48q4.72,16.2,9.47,32.4c.88,3,.93,3,4,3Q188.82,464.17,216.74,464.44ZM65.36,230.4H7.27c-2.67,0-2.67,0-2.12,2.49a20.14,20.14,0,0,0,6.55,10.86,44.42,44.42,0,0,0,14.89,8.41c14.51,5.24,29.68,7,45,7.59a362.73,362.73,0,0,0,39.29-.43c3.73-.26,5.81-1.71,7.15-5,2.79-6.89,4.24-14.1,5.44-21.38.31-1.86-.19-2.31-2.17-2.46-.82-.07-1.64,0-2.46,0-7.06.07-14.14.35-21.19.16C86.33,230.28,75.07,230.56,65.36,230.4Zm896.73,0h-16l-22.72,0c-6,0-12.08-.06-18.12,0-2.49,0-2.63.22-2.29,2.7a108.29,108.29,0,0,0,3.09,14.71,52.93,52.93,0,0,0,2.88,7.77,5.67,5.67,0,0,0,5.27,3.56c3,.15,5.91.54,8.87.6,13.1.24,26.2.59,39.28-.47a166.75,166.75,0,0,0,29.07-4.56c7-1.87,13.93-4.2,20-8.43a23.58,23.58,0,0,0,9.06-11c1.64-4.34,1.2-4.94-3.44-4.94Zm16.41-4.9q19.79,0,39.58,0c3.15,0,3.51-.29,3.31-3.28-.48-7.15-1.29-14.27-3.5-21.13a26.09,26.09,0,0,0-4.38-8.73,7.7,7.7,0,0,0-6.34-3.09c-20,0-40.09,0-60.14,0-3.06,0-3.2.13-3.82,3.15-2.09,10.22-4.17,20.44-6.89,30.52-.58,2.17-.36,2.41,2,2.52.71,0,1.43,0,2.15,0Zm-931,0h3.07q18.42,0,36.83,0c2.9,0,3.14-.3,2.44-3-2.61-9.89-4.68-19.9-6.72-29.92-.64-3.17-.77-3.28-4-3.28-19.84,0-39.69,0-59.53-.06a8.29,8.29,0,0,0-7.06,3.54,25.47,25.47,0,0,0-3.93,7.93A81.77,81.77,0,0,0,5,221.83c-.17,3.66-.26,3.66,3.51,3.68h39ZM894.19,724.63h-747c7.84,1.52,15.7,2.81,23.7,2.81H864.39a210,210,0,0,0,21.43-1.39A32.14,32.14,0,0,0,894.19,724.63ZM223.71,327.47a56.82,56.82,0,0,0-6.58-12.65,135,135,0,0,0-27.74-30.58c-14.46-11.88-30.69-20.65-48.09-27.39a3.15,3.15,0,0,0-3.82.92,48.68,48.68,0,0,0-8.88,11.69A28.28,28.28,0,0,0,126,277c-.39,2-.12,2.35,1.87,2.61,2.44.32,4.89.49,7.31.88,11.11,1.78,21.59,5.53,31.75,10.26,17,7.91,32.51,18.14,47.39,29.42C217.47,322.54,220.58,325,223.71,327.47ZM801.66,327c.77-.11,1-.08,1.15-.18.5-.35,1-.74,1.46-1.12,14.52-11.56,29.66-22.21,46.14-30.83,14.6-7.64,29.74-13.71,46.37-15.24,3.06-.29,3.43-.87,2.69-4a26,26,0,0,0-1-3.21c-2.06-5.36-5.52-9.75-9.4-13.9-1.79-1.92-3.42-2.32-5.9-1.29a219.18,219.18,0,0,0-23.85,11.3c-19.27,10.85-35.71,24.9-48.56,43A106.94,106.94,0,0,0,801.66,327ZM753,520c1.47-.18,2.36-1.1,3.36-1.77,5.69-3.83,11.27-7.82,17.05-11.5a8.5,8.5,0,0,0,4.37-6.84c2-14.18,4.52-28.28,6.85-42.42,1.12-6.86,2.27-13.73,3.34-20.6.45-2.85.36-2.92-2.6-2.94-4.3,0-8.6,0-12.9,0-3.17,0-3.36.17-4,3.37q-7.83,40.08-15.64,80.15A3,3,0,0,0,753,520ZM274,520.32c-.1-.67-.15-1.07-.22-1.46q-4.71-24.11-9.4-48.2c-2.18-11.14-4.32-22.29-6.51-33.44-.63-3.18-.8-3.3-4-3.32-4.3,0-8.59,0-12.89,0-2.69,0-3,.48-2.58,3.16q2.81,17.12,5.62,34.22c1.62,9.89,3.36,19.76,4.73,29.69a6.42,6.42,0,0,0,3.22,5c6.41,4.22,12.71,8.6,19.08,12.88A5.24,5.24,0,0,0,274,520.32Zm613.6-21.49a122.47,122.47,0,0,0,15.17-1.3,60.89,60.89,0,0,0,20.63-6.66c6-3.32,10.75-7.77,13.68-14.06A35.14,35.14,0,0,0,940,461c0-2.68-.74-3.11-3.45-3.1-2.33,0-2.49.16-2.85,2.91a26,26,0,0,1-4.49,11.94,33.2,33.2,0,0,1-12.69,10.4c-8.79,4.33-18.24,6.08-27.88,6.71-11.74.76-23.49,1.23-35.24,1.75q-15.63.71-31.28,1.22c-9.91.34-19.84.57-29.76.84a54,54,0,0,0-5.82.28c-3.32.46-3.36.45-3.9,3.9-.66,4.2-.66,4.25,3.67,4.07,8-.33,15.93-.75,23.9-1.07,7.36-.3,14.73-.49,22.09-.8,12.36-.53,24.72-1,37.08-1.69C874.86,498.05,880.25,498.91,887.62,498.83Zm-733.12-.5c7.16.25,14.32.46,21.48.76,12.16.52,24.32,1.09,36.48,1.63q13,.58,26.06,1.14c1.32.05,2.66.05,4,0a1.33,1.33,0,0,0,1.42-1.6,46.38,46.38,0,0,0-.82-4.83,1.89,1.89,0,0,0-1.87-1.34c-1.63-.16-3.26-.41-4.89-.43-12.18-.15-24.34-.75-36.51-1.19q-15.94-.58-31.89-1.24c-10-.39-20-.75-30-1.39-8.83-.57-17.49-2.1-25.68-5.59-6.72-2.86-12.53-6.91-16.36-13.37a28.78,28.78,0,0,1-3.4-10.75c-.3-2.1-1-2.43-3.52-2.26-2.18.15-2.54.41-2.64,2.52A33.06,33.06,0,0,0,90.38,479c4.26,7.38,11,11.72,18.67,14.71,9.39,3.64,19.25,4.61,29.2,5.09C143.69,499.11,149.08,498.1,154.5,498.33Zm39.57-97.61c5.42,0,10.85-.06,16.27,0a3.72,3.72,0,0,0,4-2.57c.24-.67.57-1.31.8-2A21.94,21.94,0,1,0,174,397.43c1.19,3,1.49,3.27,4.72,3.28C183.84,400.74,189,400.72,194.07,400.72Zm637.63,0c5.33,0,10.65-.08,16,0a4.22,4.22,0,0,0,4.47-2.91,22,22,0,1,0-40.45-.15,4.3,4.3,0,0,0,4.65,3.07C821.46,400.64,826.58,400.72,831.7,400.72ZM240.43,18c-1.85.13-2.79,1.28-3.77,2.24a62.86,62.86,0,0,0-8.86,11.36c-8.26,13.15-14.49,27.31-20.33,41.63-9.56,23.44-17.7,47.38-25.37,71.49C171.75,177.22,162.38,210,153.69,243q-.36,1.34-.6,2.7a1.07,1.07,0,0,0,.69,1.22,3.52,3.52,0,0,0,4.85-2.19c.18-.58.33-1.18.49-1.77,3.14-11.46,6.19-22.93,9.43-34.36q9.88-34.87,20.61-69.5c7.1-23.09,14.19-46.2,23.4-68.58a7.06,7.06,0,0,0,.73-2.63,12.3,12.3,0,0,1,1.28-5c2.47-5.85,5.05-11.66,8-17.29C227.11,36.83,232,28.3,238.68,21A5.89,5.89,0,0,0,240.43,18Zm545,.07c1.12,1.45,1.91,2.64,2.87,3.68A71.82,71.82,0,0,1,796,32.06a199.38,199.38,0,0,1,16.43,32.59A4.33,4.33,0,0,1,813,67.3a4.81,4.81,0,0,0,.63,3c7.37,18,13.52,36.47,19.27,55.06,11.09,35.9,21.92,71.88,31.72,108.15,1.07,4,2.1,7.92,3.27,11.84.48,1.63,2.06,2.19,4,1.67s1.25-1.78,1-3c-.16-.7-.35-1.39-.53-2.08-7.48-28.2-15.4-56.28-24-84.15-8.59-27.68-17.64-55.2-28.49-82.1-6.05-15-12.46-29.86-21.06-43.65a57.41,57.41,0,0,0-9.7-12.24C788.2,19,787.47,17.88,785.41,18.08ZM781.3,413.62c2.66,0,5.32,0,8,0s3-.37,3.46-2.89c.77-4,1.49-8,2.25-12.06q3.6-19.14,7.2-38.27c.58-3.07.37-3.34-2.8-3.38-3,0-5.93,0-8.9,0-4.17,0-4.16,0-5.22,3.95q-4.57,16.88-9.16,33.74c-1.44,5.33-2.91,10.65-4.31,16-.69,2.62-.47,2.89,2.14,2.94C776.39,413.66,778.85,413.62,781.3,413.62Zm-536.94,0v0c2.87,0,5.73.07,8.59,0,1.85-.06,2.14-.51,1.68-2.33-.81-3.17-1.71-6.31-2.57-9.47Q246.47,381,240.88,360.3c-.83-3.07-1.06-3.25-4.21-3.29s-6.14,0-9.2,0c-3.92,0-4,.11-3.27,4q2.43,13,4.89,25.92c1.53,8,3,16.07,4.6,24.1.47,2.37.66,2.52,3,2.58C239.25,413.67,241.81,413.62,244.36,413.62ZM859,792.45a71.55,71.55,0,0,0,.17-10.14c0-6.85.28-13.71-.37-20.55-.22-2.27-.24-2.38-2.49-2.63a26.67,26.67,0,0,1-5.09-1.09,122.83,122.83,0,0,1-13.24-4.88,9.1,9.1,0,0,0-3.83-1c-3.07,0-6.13-.17-9.19-.37-4.08-.26-4.18-.08-4.19,3.89,0,.62,0,1.23,0,1.85a2.71,2.71,0,0,0,1.87,2.84c10.91,4.66,21.62,9.8,33.12,13,.4.11.81.16,1.19.3a3.05,3.05,0,0,1,1.8,3.2c-.33,1.61-1.65,1.39-2.7,1.21a41.36,41.36,0,0,1-5.35-1.32c-6.64-2.09-13.06-4.79-19.46-7.51-2.83-1.2-5.61-2.49-8.45-3.65-1.67-.68-2-.47-1.94,1.38s.39,3.68.33,5.5a4.07,4.07,0,0,0,2.7,4.29c6.12,2.85,12.14,5.92,18.27,8.74a75.69,75.69,0,0,0,12,4.62A8.71,8.71,0,0,1,859,792.45ZM178.7,476.39c-3.27,0-6.55,0-9.82,0-2.46,0-4.91-.08-7.36-.07-3,0-3.2.24-3.27,3.07,0,1.23,0,2.46,0,3.68.07,2.73.13,2.79,3,3.15,5.9.74,11.85.54,17.76.85,13.68.71,27.38,1,41.07,1.45,3.07.1,6.13.15,9.19.39,3.46.27,6.95.21,10.43.21,2.19,0,2.4-.32,2.07-2.6-.3-2.13-.62-4.25-1-6.36-.54-3-.66-3.14-3.77-3.14C217.55,477,198.13,476.68,178.7,476.39ZM792,489.1c2.66-.06,5.32-.37,8-.43,13-.31,26-.82,39-1.35,7.87-.33,15.75-.48,23.62-.85,5.41-.25,5.41-.35,5.39-5.64,0-.61,0-1.23,0-1.84-.14-2.27-.46-2.58-2.78-2.68-.51,0-1,0-1.54,0-13,.3-26-.07-39,.46-8.79.36-17.61.11-26.41.14-3.28,0-6.55.08-9.83.11-1.25,0-2.26.38-2.5,1.74-.47,2.72-.92,5.45-1.32,8.18a1.7,1.7,0,0,0,1.9,2.16ZM308.09,283.54a6,6,0,0,0-1.59-2.5c-7.52-8.38-15-16.77-22.56-25.12-3.8-4.19-3.84-4.1-9.41-2.74-8.38,2-16.3,5.42-24.41,8.25-1,.36-2.68.35-2.77,1.53-.1,1.35,1.59,1.64,2.63,2.18a181.11,181.11,0,0,0,42.55,15.57A135.19,135.19,0,0,0,308.09,283.54Zm410-.43a169.86,169.86,0,0,0,61.49-19.76,3.32,3.32,0,0,0-2.3-1.52c-5.76-2.1-11.5-4.25-17.3-6.25-3.38-1.17-6.86-2-10.3-3-2.83-.81-4.56.1-6.35,2.18-4.8,5.57-9.79,11-14.69,16.47Q723.33,277.16,718.07,283.11ZM226.24,399.05a61.77,61.77,0,0,1-3.59,6.85,4.3,4.3,0,0,1-4,2.29c-10.85-.17-21.68.67-32.53.62-21.91-.09-43.82-.13-65.73.06-4.56,0-8.26-.67-11.43-4.3s-7-6.88-10.53-10.3c-.58-.56-1.4-1.19-.81-2.08,1.46-2.17,1.15-4.71,1.6-7.07,1.7-8.95,3.22-17.93,4.8-26.9.15-.87.57-2-.77-2.24s-2.51-.32-3.18,1.11a7.26,7.26,0,0,0-.37,1.17c-2.65,9.24-5.27,18.5-8,27.73a2.73,2.73,0,0,0,1,3.21A21,21,0,0,1,96.3,393c3.55,5.21,8.21,9.39,12.55,13.86a10.29,10.29,0,0,0,4.67,2.79c3.34,1,6.66,2,10,3.09a21.36,21.36,0,0,0,6.65.95q47.46,0,94.91,0c.61,0,1.23,0,1.84,0,2.06-.16,2.32-.45,2-2.45-.36-2.22-.78-4.44-1.22-6.64A19.31,19.31,0,0,0,226.24,399.05Zm573.4.28q-1,5.1-1.94,10.2c-.79,4.09-.8,4.1,3.39,4.1h86.34c12.79,0,12.78,0,24.93-3.91a14.44,14.44,0,0,0,5.44-3.27c5.85-5.33,10.49-11.75,16-17.38,1.11-1.14,1-2.32.57-3.68-2.56-8.85-5.08-17.71-7.62-26.57a10.78,10.78,0,0,0-.72-2c-.6-1.14-1.69-1-2.7-.81s-1.18,1-1.1,1.9c0,.5.16,1,.24,1.51q1.77,10,3.52,20c.65,3.73.76,7.66,2.09,11.13,1,2.63.06,3.75-1.47,5.2-3.5,3.3-7.09,6.51-10.41,10a9.49,9.49,0,0,1-7.54,3.17c-23.66-.12-47.32,0-71-.09-10,0-20-.42-30.08-.57a4.26,4.26,0,0,1-3.81-2.09C802.37,404,801.39,401.6,799.64,399.33ZM154.31,809.15h0V757.23c0-.92,0-1.84,0-2.76,0-1.37-.59-2.13-2-2.12h-5.53c-1.22,0-1.94.55-1.95,1.83,0,3,0,5.94,0,8.91,0,1.07.55,1.39,1.55,1.41a6.71,6.71,0,0,0,4-1.31c1.26-.87,2.06-.25,2.77.82s1,2-.21,2.93c-1.73,1.3-3.46,2.47-5.81,2.44s-2.3.1-2.32,2.47q0,4.46,0,8.91c0,2.88.74,3.43,3.48,2.61a14.81,14.81,0,0,0,1.92-.94c1.54-.72,2.05-.53,3,.92.74,1.12.74,2-.44,2.88-1.76,1.28-3.54,2.52-5.87,2.22-1.67-.21-2.15.57-2.11,2.12.08,2.56,0,5.12,0,7.68,0,1.87.29,2,2.24,1.94a5.75,5.75,0,0,0,3.16-1.06c1.38-1,2.26-.33,3,.89.87,1.44.77,1.92-.66,3.07a7.73,7.73,0,0,1-5.95,2c-1.32-.17-1.84.46-1.82,1.77.06,2.35,0,4.71,0,7.06,0,1.4.69,1.72,1.93,1.69a7,7,0,0,0,3.74-1.22,1.62,1.62,0,0,1,2.39.5c1.31,1.64,1.24,2.45-.54,3.75a7.78,7.78,0,0,1-4.45,1.84c-3.07.08-3.06.15-3.07,3.25,0,.51,0,1,0,1.53.1,1.87.31,2,2.24,1.92a6.86,6.86,0,0,0,2.88-.95c1.8-1,2.3-.8,3.25.71s.78,1.94-.91,3.25a8.6,8.6,0,0,1-5.68,1.9c-1.82,0-1.85.18-1.79,3.63.05,2.59.28,2.92,2,3a5.88,5.88,0,0,0,3.16-1c1.76-1,2.3-.79,3.26.73s.78,1.93-.94,3.22a8.06,8.06,0,0,1-5.12,1.72c-2.07,0-2.24.28-2.34,2.31,0,.51,0,1,0,1.54,0,1.51.81,1.91,2.16,1.87a6.76,6.76,0,0,0,3.09-1.24c1.65-.93,2.09-.82,3,.59s1,2.09-.63,3.29-3.2,2.19-5.32,2c-.91-.08-2-.06-2.22,1.12s-.64,2.89.23,3.86,2.48.43,3.73,0a14.79,14.79,0,0,0,1.35-.74c1.51-.72,2-.51,3,.95a1.85,1.85,0,0,1-.49,2.88c-1.93,1.46-3.94,2.56-6.48,2.25-.47-.06-1.15-.11-1.23.58s.56,1,1.2,1c1.64,0,3.27.06,4.91,0,3,0,3.13-.17,3.19-3.1,0-.41,0-.82,0-1.23Zm-30.4-1.52c4.88.91,7.2-.93,7.22-5.74,0-1.12,0-2.25,0-3.37-.09-2.06-.23-2.21-2.12-1.65a15.27,15.27,0,0,1-4.56.33,1.83,1.83,0,0,1-2.09-2.05c0-1.66.37-2.23,2-2.45a12.07,12.07,0,0,0,2.43-.23c1.76-.66,4.05-1,4.24-3.39.21-2.64.08-5.31,0-8,0-1-.58-1.57-1.61-1.07a9.16,9.16,0,0,1-4.51.58c-2.1-.08-2.55-.49-2.59-2.17s.42-2.28,2.41-2.35a9.8,9.8,0,0,0,4.64-1.35,2.92,2.92,0,0,0,1.7-2.69c0-3.27,0-6.54,0-9.81,0-1.35-.68-1.89-2-1.28a10.06,10.06,0,0,1-4.83.51,1.8,1.8,0,0,1-1.91-1.93c-.11-1.77.35-2.54,2.16-2.54a9.26,9.26,0,0,0,5.63-2.07c1-.72,1-1.8.16-2.29-1.15-.7-5.84-.38-6.65.72-1.11,1.48-2.18,1.18-3.43.43a6.56,6.56,0,0,0-3.48-1c-2.1,0-2.61.39-2.66,2.43q-.1,4.59,0,9.2c0,2.16.26,2.45,2.53,2.54a12.56,12.56,0,0,1,6.27,2.23c1.53.95,1.63,1.44.81,3s-1.31,1.75-2.93,1a9.86,9.86,0,0,0-4.34-1.32c-1.45,0-2.37.48-2.35,2.11q0,4.29,0,8.59a1.93,1.93,0,0,0,2.28,2.19c2.5-.08,4.54,1.13,6.56,2.32,1.58.93,1.69,1.63.75,3.27-.81,1.41-1.28,1.56-3,.7a8.62,8.62,0,0,0-4.64-1.34c-1.21.1-1.92.59-1.94,1.87,0,1.74-.09,3.48,0,5.21.07,1.5-.58,3.22.52,4.45,1,1.07,2.53.36,3.82.57a11.3,11.3,0,0,1,5.45,2.63C125,805.39,123.42,806.57,123.91,807.63ZM895.14,760.2c0,4.27,0,8.23,0,12.18a2.68,2.68,0,0,0,1.48,2.18,8.85,8.85,0,0,0,5.51,1.54c1.41,0,2,.83,2,2.16,0,1.57-.5,2.25-2.12,2.34a9.88,9.88,0,0,1-5.12-.59c-1.15-.55-1.77-.09-1.78,1.15,0,2.56,0,5.11,0,7.67a2.81,2.81,0,0,0,1.58,2.45,9.63,9.63,0,0,0,5.24,1.42c1.69,0,2.22.72,2.21,2.26s-.53,2.14-2.24,2.24c-1.12.07-2.25-.06-3.37,0s-2.1-1.47-3.09-.41c-.78.84-.3,2.16-.36,3.27,0,.82,0,1.64,0,2.46a5.34,5.34,0,0,0,6.06,5.49c1-.09,1.64-.43,1.17-1.54-.65-1.53.2-2.2,1.39-2.88a10.88,10.88,0,0,1,5.75-1.8c2.38,0,2.61-.29,2.67-2.68s.07-4.71,0-7.06c-.07-1.85-.67-2.28-2.5-2.27-1.62,0-2.92.88-4.27,1.58s-2.07.19-2.69-1c-.86-1.64-.85-2.23.54-3.09,1.91-1.17,3.82-2.31,6.2-2.45s2.68-.42,2.74-2.71c.07-2.56.08-5.12,0-7.67-.07-2.12-.73-2.57-2.92-2.49-1.51.06-2.7.89-4,1.49-1.43.67-2.07-.25-2.68-1.26s-.74-2.14.59-2.84c2-1,3.88-2.22,6.25-2.35,2.53-.13,2.71-.41,2.76-3s0-4.92,0-7.37c0-3.73-1.45-4.67-5-3.31-.67.26-1.28.63-1.94.91s-1.31.54-1.71-.05c-1.65-2.5-4.17-1.62-6.42-1.73-.72,0-1.52,0-1.77.87s.36,1.52,1.1,2a10.3,10.3,0,0,0,5.16,1.74c2,0,2.54.58,2.57,2.18s-.61,2.16-2.76,2.4S897.42,761,895.14,760.2Zm-774-399.88c0-.39,0-1.22,0-2a1.54,1.54,0,0,0-1.5-1.63c-2.86-.24-5.71-.46-8.57-.67a1.82,1.82,0,0,0-2.12,1.72c-.1.6-.29,1.19-.39,1.8-1.56,8.76-3.06,17.54-4.69,26.29a4.32,4.32,0,0,0,1.26,4.41c2.82,2.69,5.52,5.49,8.29,8.23a6.63,6.63,0,0,0,1.68,1.31c2,1,2.81.49,3-1.68.29-3.36.55-6.73.82-10.09C119.66,378.9,120.39,369.82,121.16,360.32Zm794-4.34c-3,.23-5.22.41-7.47.57-2.65.2-2.87.49-2.64,3.23.59,7.23,1.15,14.47,1.73,21.7.42,5.41.81,10.81,1.28,16.21.22,2.57,1.52,3.14,3.7,1.68a10.58,10.58,0,0,0,1.36-1.24c2.53-2.53,5-5.14,7.62-7.57a5.22,5.22,0,0,0,1.62-5.25c-1.64-8.95-3.22-17.92-4.85-26.87C917.13,356.2,916.75,356,915.19,356ZM73,539.36l-.64,0c-1.07,3.61-2,7.26-3.25,10.83a22,22,0,0,0-1.12,7.21c0,14-.08,28-.13,42,0,2.05,0,4.09,0,6.13.08,1.76.44,2,2.09,1.38,2.68-1,5.32-2.12,8-3.13a2.55,2.55,0,0,0,1.87-3c-.9-7.61-1.74-15.22-2.58-22.83-1-8.63-1.88-17.26-2.83-25.89C73.92,547.8,73.43,543.58,73,539.36Zm36.51,270v-51.9c0-.92,0-1.85,0-2.76a3.4,3.4,0,0,0-3.69-2.87c-1.69.2-.85,1.74-1,2.71a9.4,9.4,0,0,0,0,1.84c.34,16.88,0,33.76.46,50.65.44,18.21.2,36.44.25,54.66,0,.82,0,1.64.07,2.46.07,1.16.82,1.53,1.88,1.55s2-.33,2.07-1.67c0-.92,0-1.84,0-2.76Zm57.93-34.5a4.92,4.92,0,0,1,3-1.51c1.69-.39,3.37-.89,5-1.44,9.43-3.15,18.47-7.24,27.58-11.18a3.58,3.58,0,0,0,2.48-3.76c0-.82,0-1.64,0-2.46-.11-2.45-.44-2.81-3-2.7a72.59,72.59,0,0,1-7.66.35,18,18,0,0,0-8,1.59c-5.76,2.33-11.44,5-17.81,5.45-1.36.09-1.6,1.09-1.61,2.18C167.38,765.86,167.39,770.36,167.39,774.85ZM124.18,474.51h0c0-1.74-.07-3.48,0-5.21a5,5,0,0,0-1.87-4.29q-3.57-3.15-7-6.48a6,6,0,0,0-4.36-1.79c-3.7-.09-7.35.39-11,.56-2.42.11-2.78.56-2.66,3.05A18.11,18.11,0,0,0,101.61,471c5.3,6.49,12.58,9.59,20.42,11.64,1.56.4,2,0,2.13-1.69C124.25,478.81,124.18,476.66,124.18,474.51Zm762.14,334.8v53.4c0,.61,0,1.22,0,1.84a1.1,1.1,0,0,0,.87,1.09c1.92.61,3.16-.23,3.27-2.26,0-.71,0-1.43,0-2.15V756.9c0-.82,0-1.64,0-2.46,0-1.37-.55-2.1-2-2.09a1.86,1.86,0,0,0-2.12,2c0,.92,0,1.84,0,2.76ZM136,809.05v51.62c0,.92,0,1.84,0,2.76.13,1.84.59,2.25,2.17,2.26s2-.81,1.95-2.13c0-.72,0-1.44,0-2.15V756.63c0-.72,0-1.44,0-2.15,0-1.35-.52-2.12-2-2.13s-2.11.61-2.13,2c0,.93,0,1.85,0,2.77Zm766.3-335.59c0,3-.08,5.08,0,7.13s.5,2.39,2.47,1.89a40.9,40.9,0,0,0,16-7.49A21.28,21.28,0,0,0,929,460.4c.29-2.54,0-2.91-2.42-3.11-2.14-.17-4.29-.45-6.43-.45-8.64,0-6.15-1.15-12.18,4.51C901,467.94,902.47,465.09,902.32,473.46Zm14.73,335.88v21.81q0,16.13,0,32.25c0,.77-.34,1.75.68,2.15a2.43,2.43,0,0,0,2.36-.21c.84-.64.64-1.66.66-2.57.24-9.2.11-18.41.39-27.62.36-11.46.11-22.93.15-34.4q.06-20.58.17-41.15c0-1.94.26-3.88.35-5.82,0-.59.08-1.27-.7-1.51a3.35,3.35,0,0,0-4,2.71c-.09.91-.05,1.84-.05,2.76ZM955,542.68c-1.05.62-.81,1.31-.87,1.87q-1.38,12.19-2.71,24.41-1.7,15.25-3.39,30.51c-.08.81-.09,1.64-.09,2.46a2,2,0,0,0,1.17,2c3,1.24,6,2.43,9.25,3.74V602c0-15.15-.08-30.31,0-45.46C958.27,551.66,956.12,547.38,955,542.68ZM87.22,759.45c3.37,0,6.75.06,10.13,0,2-.06,2.33-.43,2.39-2.39.09-2.66.1-5.32,0-8-.11-2.2-.83-2.78-3.1-2.95-1.53-.12-3.06-.21-4.59-.28-7.56-.38-15.12-.75-22.65-1.57-1.48-.16-2.07.35-2,1.84,0,2.45,0,4.91,0,7.37,0,4.19.19,4.43,4.25,5.19.6.11,1.22.12,1.83.22A87,87,0,0,0,87.22,759.45Zm851.6,0v0c2.76,0,5.53.11,8.28,0a45.74,45.74,0,0,0,9.11-1.1c2.25-.57,2.48-.88,2.53-3.14.06-2.76.06-5.52,0-8.28,0-2.31-.38-2.63-2.77-2.5-2.55.13-5.09.42-7.63.59-5.81.39-11.62.71-17.43,1.13-2.83.21-4.39,1.92-4.49,4.78-.07,2-.11,4.09-.07,6.13s.37,2.36,2.34,2.42C932.08,759.51,935.45,759.44,938.82,759.44ZM167.38,791.61c1.39-.47,2.32-.83,3.28-1.1,11.6-3.3,22.12-9.07,32.84-14.39a2.88,2.88,0,0,0,1.83-2.89c-.05-2.14,0-4.3,0-6.44,0-1.62-.35-1.83-1.85-1.21-3.3,1.39-6.54,2.93-9.87,4.25C185.56,773,177.73,777,169,778.22a1.59,1.59,0,0,0-1.56,1.58C167.21,783.65,167.26,787.49,167.38,791.61Zm654.37-10.72c-1.28,5.88-.83,7.26,3.22,10.57.63.52,1.25,1.06,1.9,1.56,7.24,5.64,14.91,10.46,23.93,12.74a24.81,24.81,0,0,0,6.35,1c1.2,0,2-.48,2-1.78,0-2.76,0-5.52,0-8.28,0-1-.41-1.51-1.49-1.45-3.26.18-6.24-1-9.21-2.09-5.56-2.08-11-4.53-16.3-7.14Zm-616.52,3.53c.11-3.69-.17-3.83-2.75-2.55-4.95,2.46-9.86,5-14.94,7.2-6.17,2.65-12.14,6-19.13,6.22-.76,0-1,.61-1.06,1.27-.15,2.65-.35,5.31-.4,8,0,1.91.38,2.26,2.44,2.22a28.62,28.62,0,0,0,7.82-1.43c9.27-2.86,17.15-8.09,24.58-14.17C204.23,789.14,205.37,786.77,205.23,784.42ZM714.14,28.23a37.72,37.72,0,0,0,0-4c-.42-3.79-1.34-7.46-3.76-10.53s-5.31-3.16-7.82.06a16.1,16.1,0,0,0-2.77,5.76A30.84,30.84,0,0,0,699.31,35c.72,3.1,1.67,6.14,4.08,8.43a4.13,4.13,0,0,0,6.24,0A12.14,12.14,0,0,0,712.38,39,24,24,0,0,0,714.14,28.23ZM158.91,809q0,26.09,0,52.18c0,.82,0,1.64,0,2.45,0,1.16.29,2.05,1.69,2s1.27-1.06,1.25-2c-.12-8.08.25-16.16.33-24.23.2-18.83.07-37.66.24-56.48.08-8.49-.36-17,.4-25.46.1-1.12,0-2.25,0-3.38a1.68,1.68,0,0,0-1.92-1.86c-1.22,0-1.95.51-2,1.8q0,1.38,0,2.76Q158.91,782.94,158.91,809ZM85.5,776.64a92,92,0,0,0,12.32-.51c2-.21,2.27-.44,2.33-2.43.07-2.45,0-4.9,0-7.35,0-1.48-.48-2.38-2.11-2.28-1.93.13-3.87.37-5.8.36-7.55,0-15.1-.11-22.58-1.4-1.92-.33-2.33,0-2.31,2.1,0,2.55.28,5.1.43,7.64a2.6,2.6,0,0,0,1.71,2.33,15.76,15.76,0,0,0,3.85,1A71.25,71.25,0,0,0,85.5,776.64Zm855.43,0c2.15,0,4.3.11,6.44,0a42.29,42.29,0,0,0,9.08-1.28,2.77,2.77,0,0,0,2.33-3.08c-.1-2.45,0-4.91-.06-7.36-.07-1.82-.47-2.13-2.31-1.81-7.08,1.22-14.24,1.28-21.39,1.37-1.83,0-3.66-.23-5.5-.33-2.67-.15-3.1.2-3.17,2.77q-.09,3.23,0,6.45c.07,2.36.32,2.54,2.64,2.84A83.54,83.54,0,0,0,940.93,776.61ZM67.37,733c0,1.43,0,2.87,0,4.3a2,2,0,0,0,1.75,2.15,19.06,19.06,0,0,0,2.12.33c5.3.41,10.6.83,15.91,1.18,2,.14,4.09.13,6.14.16,1.31,0,2-.54,1.48-1.91-1.2-3.43-1.25-7-1.72-10.58s-.43-3.51-3.7-3.31c-6.33.39-12.66.89-19,1.36a12.23,12.23,0,0,0-1.21.21A2,2,0,0,0,67.37,729C67.38,730.3,67.37,731.63,67.37,733Zm799.92,76.4q0-26.26,0-52.51c0-1,0-2.05-.11-3.07a1.73,1.73,0,0,0-3.39-.08,28.36,28.36,0,0,0-.13,3.06c.17,20.77.09,41.54.5,62.32.28,14.32.15,28.65.21,43a20,20,0,0,0,.12,2.45,1.35,1.35,0,0,0,2.62.1,22.1,22.1,0,0,0,.18-3.05Q867.3,835.46,867.29,809.36ZM67.35,714.52c0,1.64,0,3.27,0,4.9.08,2.33.34,2.64,2.76,2.53,3.87-.18,7.73-.51,11.6-.8,2.64-.19,5.29-.32,7.92-.63,2.25-.27,2.69-.79,2.52-3-.28-3.45-.73-6.89-1-10.35-.15-1.66-.94-2.37-2.59-2.22-2.43.23-4.87.4-7.31.66-3.75.41-7.5.82-11.24,1.33-2.21.3-2.56.75-2.63,3C67.31,711.46,67.35,713,67.35,714.52Zm32.89,73.33h0c0-1.63.06-3.27,0-4.9-.09-1.92-.24-2-2.22-2-9.38.17-18.78,1-28.1-.82a1.54,1.54,0,0,0-2.08,1.56c-.07,1-.07,2-.06,3.07,0,3.53.22,3.92,3.65,5a74.3,74.3,0,0,0,8.31,2.1c5.82,1.08,11.66,2,17.51,3,2.62.42,3,.09,3-2.7C100.26,790.71,100.24,789.28,100.24,787.85Zm826-.07v2.15c0,5.19,0,5.25,5.18,4.53A153.28,153.28,0,0,0,954.32,790c4.4-1.32,4.44-1.48,4.44-6,0-.72,0-1.44,0-2.15-.1-2-.25-2.25-2.16-1.78-4.84,1.19-9.74,1.2-14.66,1.16-4.3,0-8.6-.13-12.9-.2-2.65,0-2.7,0-2.76,2.73C926.24,785.12,926.27,786.45,926.27,787.78ZM217.48,403.44c1.64.1,2-1.25,2.55-2.25A29.94,29.94,0,0,0,223.31,387c0-15.58-14.38-31.89-35.28-27.59-14.38,2.95-24.87,16.52-22.19,33.59a23.1,23.1,0,0,0,2.14,6.7c.31.62.65,1.53,1.51,1.21,1-.39.33-1.24.1-1.82A28,28,0,0,1,167.78,388c.4-15,14.65-27.23,29.56-25.32a26.75,26.75,0,0,1,21,38.23C218,401.65,217.16,402.32,217.48,403.44Zm696.36,10.78c-2.64.79-4.78,1.32-6.85,2.07a41,41,0,0,1-14.43,2.29c-30.52-.11-61-.06-91.55-.05-1,0-2,0-3.07.05a2.27,2.27,0,0,0-2.32,2.62c.13,1.48,1.25,1.37,2.28,1.42,2.66.14,5.31-.29,8-.35,9.83-.25,19.65-.15,29.47-.61,9.2-.43,18.42-.17,27.63-.58,10.22-.45,20.46-.16,30.69-.66,4.6-.23,9.22-.13,13.82-.2,1,0,2.15.2,2.91-.66A15.72,15.72,0,0,0,913.84,414.22Zm-801.32,0c.46,2.08,1.7,3,2.39,4.19a3.69,3.69,0,0,0,3.58,1.86c7.46.05,14.93.18,22.39.5,9,.37,18,.21,27,.57,10.52.41,21.06.24,31.6.68,8.48.34,17-.09,25.46.6,1.52.12,3.07,0,4.6,0,.87,0,1.25-.48,1.21-1.38-.08-1.83-.71-2.53-2.61-2.65-1-.06-2,0-3.07,0q-47.43,0-94.87,0a22.17,22.17,0,0,1-7.23-1.12C119.69,416.33,116.37,415.37,112.52,414.19ZM958.85,733.26c0-1.13,0-2.25,0-3.37-.09-2.53-.52-3.07-3-3.27-6-.48-12-.94-18-1.3-2.75-.17-3.22.3-3.35,3.08A46.8,46.8,0,0,1,933,738.67c-.64,2.32-.57,2.49,1.86,2.35q10.53-.57,21.06-1.35c2.46-.19,2.85-.77,2.94-3.35C958.88,735.3,958.85,734.28,958.85,733.26ZM808.72,403.44c.36-1.28-.5-2-.89-2.91a26.65,26.65,0,0,1,29.69-37.4c15.79,3.38,23.89,19.2,20.26,32.36-.41,1.47-.91,2.92-1.35,4.39-.12.39-.24.86.18,1.1s1-.05,1.29-.49a11.35,11.35,0,0,0,.81-1.64,27.67,27.67,0,0,0,1.34-18.33c-3.26-11.59-10.81-19.08-22.62-21.24s-22,1.62-29.08,11.59c-6.65,9.37-7.19,19.54-2.26,29.94C806.61,401.91,807,403.34,808.72,403.44ZM958.78,714.81h0c0-1.74,0-3.47,0-5.21a2.19,2.19,0,0,0-2.06-2.54c-5.88-.7-11.76-1.41-17.65-2-2-.19-2.5.4-2.69,2.45-.34,3.55-.63,7.12-.84,10.68-.12,2,.16,2.29,2.19,2.44,2.44.18,4.89.23,7.33.51,3.45.38,6.92.6,10.38.77,3.14.17,3.37-.1,3.37-3.14ZM925.88,805c0,.92,0,1.84,0,2.76.08,2.54.42,2.83,2.94,2.48,5.78-.8,11.55-1.7,17.24-3a49.22,49.22,0,0,0,10.25-3.16c1.65-.77,2.61-1.81,2.42-3.78-.15-1.52,0-3.07-.05-4.6-.07-1.85-.31-2.09-2-1.57-8.45,2.62-17.17,3.84-25.87,5.19C925.87,800.1,925.87,800.11,925.88,805Zm-825.55.25h0v-1.84c0-.31,0-.61,0-.92-.17-2.49-.18-2.5-2.61-2.87-3.23-.48-6.48-.92-9.71-1.47a142.48,142.48,0,0,1-17.69-3.81c-2.18-.66-2.42-.41-2.5,2,0,.92,0,1.84,0,2.76.08,4,.34,4.4,4.07,5.78a71.09,71.09,0,0,0,12.77,3.3c4.24.72,8.47,1.44,12.72,2.1,2.47.38,2.85,0,3-2.53C100.35,806.89,100.33,806.07,100.33,805.25ZM67.75,676.17c0,2-.06,3.89,0,5.84s.33,2.15,2.26,1.82c5.45-.94,11-1.33,16.46-1.78,1.61-.14,2.14-.93,2-2.41-.43-3.87-.81-7.73-1.3-11.59-.24-1.89-.59-2.07-2.69-2-1.33.05-2.65.14-4,.2a55.37,55.37,0,0,0-10,1.34c-2.34.53-2.65,1-2.72,3.36C67.71,672.69,67.75,674.43,67.75,676.17ZM204.42,795.1c-1.58,1.21-2.85,2.22-4.15,3.16-9.46,6.84-19.38,12.6-31.47,13.13-1.25.06-1.87.64-1.87,1.89,0,1.64-.05,3.27,0,4.9.06,2.5.43,2.88,2.91,2.64a36.07,36.07,0,0,0,8.92-2.09c8.77-3.24,16.17-8.59,23.14-14.69C204.63,801.63,205.34,799,204.42,795.1Zm617.19.29c-.57,5.55-.48,5.79,3.42,9.16l2.57,2.18a69.39,69.39,0,0,0,19.85,12,39.07,39.07,0,0,0,8.3,2.06c3,.42,3.47,0,3.54-2.94,0-1.22,0-2.45,0-3.67-.09-2.43-.26-2.56-2.62-2.78-1.42-.13-2.85-.24-4.25-.51-10.51-2-19.42-7.25-27.77-13.65C823.77,796.54,823.07,795.58,821.61,795.39ZM69.42,702.25c4.47-.49,8.94-1,13.41-1.46,1.72-.18,3.46-.27,5.19-.48,1.16-.14,2.41-.51,2.27-2C90,694.89,90,691.4,89.22,688c-.3-1.35-1.32-1.37-2.4-1.29-2.14.18-4.28.3-6.41.54-3.35.39-6.71.77-10,1.31-2.43.4-2.94,1.06-3,3.47-.07,2.76-.05,5.52,0,8.28C67.4,702.38,67.49,702.43,69.42,702.25Zm889.34-25.67c0-1.94-.09-3.88,0-5.82a2.61,2.61,0,0,0-2.32-3,61.55,61.55,0,0,0-13.66-1.57,2,2,0,0,0-2.28,1.91q-.64,6.09-1.33,12.17c-.16,1.37.58,1.74,1.79,1.86,5.28.49,10.58.84,15.8,1.8,1.56.29,2-.4,2-1.81C958.72,680.26,958.76,678.42,958.76,676.58Zm0,19.36h0c0-1.33,0-2.66,0-4-.06-2.61-.31-2.93-2.9-3.42-5.13-1-10.34-1.25-15.53-1.74-1.24-.12-2,.29-2.13,1.58-.31,3.35-.59,6.72-.9,10.08-.12,1.29.46,1.87,1.74,1.95,1.63.1,3.26.25,4.88.43,4.07.44,8.12,1,12.19,1.38,2.15.22,2.53-.14,2.64-2.28C958.8,698.6,958.75,697.27,958.75,695.94ZM905.49,280.41c3.09-3.13,6.1-6,9.3-8.72.48-.4,1-1,.67-1.59-1.31-2.39-2.16-5.43-4.73-6.58-3.3-1.49-5.1-4-6.48-7-.71-1.58-1.3-3.23-1.92-4.85-.32-.85-.81-1.6-1.78-1.24-2.69,1-5.35,2-8,3.16-.94.4-.66,1.11-.1,1.74,1,1.15,2,2.3,3,3.47,4.7,5.59,8.14,11.78,9.1,19.14A4.21,4.21,0,0,0,905.49,280.41ZM895.7,391.33c0,1.74,0,3.48,0,5.22,0,4.44-.83,4.94,5.29,4.77l.31,0a1.93,1.93,0,0,0,2.16-2.32c-.15-2.14-.35-4.28-.52-6.42q-1.29-17-2.59-33.95c-.17-2.18-.66-2.67-2.5-2.64s-2.16.44-2.12,2.58c.09,5.41-.39,10.84.42,16.25a21.56,21.56,0,0,1,0,6.11A77.24,77.24,0,0,0,895.7,391.33ZM204.5,808.5c-1-.1-1.39.61-1.9,1a85.1,85.1,0,0,1-13.25,9.38c-5.74,3.27-11.78,5.84-18.41,6.39-4.26.36-4.09.34-4.1,4.52,0,.41,0,.82,0,1.22.1,2.54.45,2.85,3,2.52a39.39,39.39,0,0,0,11.1-3.38c7.61-3.47,14.25-8.36,20.83-13.44C204.75,814.42,205.08,811.76,204.5,808.5ZM130.41,366.24c0-2.76.07-5.53,0-8.28-.06-1.62-.83-2.09-2.42-2-1.33.09-1.72.93-1.82,2-.36,3.87-.74,7.73-1,11.6-.7,9-1.14,18-2.13,26.91-.57,5.22.14,4.86,4.57,4.79,2.48,0,2.89-.41,2.87-2.89,0-6.34.4-12.69-.41-19a10.55,10.55,0,0,1,0-2.75A63.67,63.67,0,0,0,130.41,366.24ZM801.65,62.59c3.29.09,3.54-.23,2.38-2.85a208.72,208.72,0,0,0-18-33.1,24.43,24.43,0,0,0-3.37-4c-1.45-1.37-3.17-1.24-4.91-1-.8.09-1,.7-.62,1.35.64,1.16,1.34,2.3,2,3.43,6.88,11.13,14,22.13,19.2,34.2A3,3,0,0,0,801.65,62.59ZM249.89,22c-3.15-.95-5.48-.38-7.33,1.76a43.93,43.93,0,0,0-3.12,4.17,218.36,218.36,0,0,0-16.67,30.7c-.38.84-.76,1.68-1.1,2.53-.19.5-.22,1,.37,1.3,2,1,5.19-.28,6.1-2.33.71-1.58,1.39-3.19,2.16-4.74,3.47-7,7.48-13.63,11.49-20.29C244.36,30.8,247,26.58,249.89,22ZM822.12,808.75c-.78,3.39-.24,5.79,2.41,7.9,6.34,5.05,12.85,9.8,20.21,13.27a38.83,38.83,0,0,0,11.68,3.6c2.45.31,2.87,0,2.92-2.53,0-1.12-.05-2.25-.07-3.38a1.85,1.85,0,0,0-2-2.1,29.63,29.63,0,0,1-6.36-1c-9.48-2.26-17.49-7.29-25-13.23A13.76,13.76,0,0,0,822.12,808.75ZM120.66,279.93c.13-.17.34-.31.35-.47.66-9,5.14-16.2,11-22.7.55-.61,1.15-1.17,1.7-1.77s.45-1.3-.41-1.65c-2.27-.93-4.57-1.77-6.8-2.77-1.57-.7-2.18-.1-2.66,1.35a31.41,31.41,0,0,1-3.2,7.27c-.83,1.3-1.67,2.77-3.13,3.26-3,1-4.34,3.57-5.85,6-1.4,2.24-1.38,2.4.64,4,2.31,1.87,4.39,4,6.52,6C119.38,279,119.74,279.84,120.66,279.93Zm10.46,548.64c0-.61,0-1.23,0-1.84-.13-2.15-.28-2.31-2.36-1.63a13.53,13.53,0,0,1-4.24.38c-1.32,0-2.13-.52-2.19-2,0-.79.09-1.7-.67-2.26a8.36,8.36,0,0,0-5.63-2c-1.21.08-1.92.59-1.94,1.87,0,1.53,0,3.06,0,4.59.06,2.3.1,2.42,2.33,2.78a17,17,0,0,1,5.59,2.39,1.6,1.6,0,0,1,.66,2.34c-.83,1.93-1.5,2.22-3.54,1.29-1.38-.64-2.88-1.79-4.28-.74s-.65,3-.71,4.59A1.49,1.49,0,0,0,115.6,840c.4,0,.82,0,1.22.08,3.13.44,6.3.83,7.69,4.37a1.13,1.13,0,0,0,.7.5c2.53.83,6.07-1.91,5.89-4.53-.11-1.52-.48-1.89-1.89-1.37a12.1,12.1,0,0,1-5.13.47,1.69,1.69,0,0,1-1.72-1.78c-.09-1.82.27-2.64,2.63-2.77C129.85,834.67,131.12,833.22,131.12,828.57Zm827.18-20c-2.57.79-4.88,1.57-7.24,2.21a177.46,177.46,0,0,1-20.18,3.91c-5.52.84-5.52.89-5,6.47.15,1.88.41,2.17,2.26,1.85q6.81-1.17,13.58-2.5a119.74,119.74,0,0,0,14-3.51c2.34-.76,2.54-1.1,2.63-3.51C958.34,812,958.3,810.45,958.3,808.57Zm-858,10.78h0c0-.51,0-1,0-1.54-.11-2.34-.22-2.46-2.66-2.82-1.41-.21-2.83-.38-4.24-.61-7.47-1.21-15-2.37-22.16-4.76-3.5-1.17-3.52-1.16-3.42,2.53,0,.2,0,.41,0,.61.13,3.3.24,3.48,3.45,4.46A210.44,210.44,0,0,0,98,823c1.89.31,2.16,0,2.32-1.8C100.36,820.58,100.31,820,100.31,819.35Zm811.84,4.47h-.06c0-.91,0-1.84,0-2.75a1.71,1.71,0,0,0-1.1-1.68c-2.2-.88-6.16,1.08-6.73,3.34-.69,2.74-.69,2.75-3.34,2.77a10.42,10.42,0,0,1-3-.27c-2.73-.79-2.74-.76-2.78,2.2,0,.51,0,1,0,1.53,0,3.81,1.54,5.53,5.33,6,.5.06,1,0,1.53.07,1.7.18,2.21.71,2.21,2.26s-.54,2.17-2.22,2.27a11.57,11.57,0,0,1-4.84-.49c-1.64-.6-1.93-.3-2,1.46-.09,2.51,3.72,5.27,6,4.36a1.26,1.26,0,0,0,.69-.54c1.48-3.21,4.4-3.92,7.49-4.26,2.55-.28,2.75-.43,2.83-3a11.16,11.16,0,0,0,0-1.83c-.2-1.58-1-2.17-2.52-1.76a21.42,21.42,0,0,0-3.08,1.34c-1.42.64-2-.24-2.63-1.3s-.77-2.14.58-2.84a19.13,19.13,0,0,1,5-2.21c2.57-.5,2.59-.59,2.68-3.16C912.16,824.85,912.15,824.34,912.15,823.82ZM67.76,657h0c0,1.43,0,2.87,0,4.3s.67,2,2.11,1.67c4.51-1,9.12-1.21,13.7-1.69,2.36-.25,2.69-.51,2.5-2.85-.29-3.46-.8-6.91-1.15-10.37-.12-1.16-.61-1.66-1.79-1.44a111.92,111.92,0,0,0-13.39,3.33,2.58,2.58,0,0,0-2,2.75C67.78,654.09,67.76,655.52,67.76,657Zm891,.55v-4c-.08-2.71-.17-2.89-2.67-3.76A75.26,75.26,0,0,0,945.42,647c-2.24-.43-2.67-.1-2.94,2.2-.37,3.14-.7,6.29-1,9.43-.22,2.06-.07,2.31,2,2.58,3.24.41,6.48.83,9.74,1,1.77.11,3.87,1.72,5.19.3C959.52,661.32,958.6,659.05,958.76,657.5ZM67.82,638.44h-.06v5.2c0,1.14.49,1.79,1.7,1.42,4.3-1.3,8.68-2.24,13.06-3.16A1.66,1.66,0,0,0,84.06,640q-.63-5.76-1.31-11.53c-.14-1.21-.74-1.83-2.08-1.44a96.56,96.56,0,0,0-11,3.71,2.74,2.74,0,0,0-1.86,2.84C67.84,635.18,67.82,636.81,67.82,638.44Zm81.72-174.58c3.34,0,3.33,0,2.39-3.24-1.34-4.62-2.67-9.23-4-13.84-1.89-6.48-3.84-12.94-5.68-19.43-.57-2-2.08-2.28-4.21-1.83-1.94.4-.63,2-.62,3a1.07,1.07,0,0,0,.06.3q4,15.92,7.94,31.83C146.2,463.86,146.23,463.85,149.54,463.86Zm727.29,0c3.17,0,3.31,0,4.11-3.21q4-16,7.94-32.11a11.46,11.46,0,0,0,.28-1.19c.17-1.08-.19-1.83-1.4-1.88-2-.07-3.07-.3-3.92,2.72-3.06,10.8-6.28,21.56-9.44,32.34-.15.49-.23,1-.37,1.48-.31,1.13,0,1.81,1.26,1.85C875.8,463.84,876.31,463.82,876.83,463.82Zm-746.11-5.1c-.75-3.15-1.48-6.31-2.24-9.47-1.78-7.43-3.56-14.88-5.4-22.3-.47-1.92-1.21-2.27-3.07-2.1s-1.7,1.45-1.7,2.68c0,6.12,0,12.24,0,18.36a4.21,4.21,0,0,0,1.29,3.3C123.11,452.48,126.48,455.89,130.72,458.72Zm-41-65.12a16.27,16.27,0,0,0,3.14,7.82c5,6.35,9.88,12.78,14.91,19.09a8.34,8.34,0,0,1,2,5.61c-.08,7.36,0,14.72,0,22.08,0,.81,0,1.63.08,2.45.07,1,.68,1.39,1.62,1.48,1.85.18,2.45-.47,2.44-2.9,0-7.06-.14-14.11-.1-21.16a10,10,0,0,0-2-6.25c-5.93-8.07-11.79-16.19-17.68-24.3A12,12,0,0,0,89.72,393.6Zm790-23.66h0c-2.66,0-5.32,0-8,0-1.13,0-1.77.58-1.31,1.78a62.12,62.12,0,0,1,2.43,8.23,2,2,0,0,0,2.29,1.6h13.81c1.55,0,2.2-.79,2.17-2.3s0-3.27,0-4.9c-.1-3-1.31-4.26-4.34-4.41C884.4,369.85,882,369.94,879.69,369.94ZM925.81,832v.92c0,3.22.12,3.3,3.37,2.48,3.57-.91,7.13-1.84,10.67-2.83a152.3,152.3,0,0,0,15.77-5.06c2.38-1,2.62-1.41,2.59-3.89,0-2.08-.34-2.39-2.36-1.79a232.51,232.51,0,0,1-26.36,5.69C925.81,828.17,925.82,828.2,925.81,832ZM896.27,459q5.33-5,10.67-9.95a2.61,2.61,0,0,0,.78-1.94l.15-20.24c0-.1,0-.2,0-.31a1.72,1.72,0,0,0-1.82-1.67c-1.74-.12-2.36.27-2.88,2.4q-3.67,15-7.26,30.1A1.37,1.37,0,0,0,896.27,459ZM84.92,309.14c-1.45,0-3,1.23-4.07,2.86-4,6-6.28,12.58-5.61,19.92a5.62,5.62,0,0,0,5.14,5.22c1.79.24,2.36-.08,2.7-2,.54-3,1-6,1.39-9.07a146.78,146.78,0,0,1,2.88-14.7C87.81,309.59,87.36,309.12,84.92,309.14ZM147,369.92v0c-2.55,0-5.11-.1-7.65,0-2.71.14-3.85,1.34-4,4a45.1,45.1,0,0,0,0,5.2c.11,1.88.51,2.31,2.46,2.34,4.39.07,8.78,0,13.17,0a2.31,2.31,0,0,0,2.6-2,49.25,49.25,0,0,1,2.26-7.61c.58-1.63.35-1.94-1.5-2C151.94,369.86,149.49,369.92,147,369.92Zm804.34-41a39.06,39.06,0,0,0-4-13.88,14.36,14.36,0,0,0-3.23-4.42,5.2,5.2,0,0,0-2.33-1.39c-2.36-.54-3.25.32-2.74,2.7s1.17,4.76,1.58,7.17c.86,5.13,1.58,10.28,2.42,15.41.43,2.6,1.33,3.1,3.8,2.36C949.92,336,951.37,333.67,951.38,329Zm-851,503.24c0-4,0-4-3.88-4.7-.3,0-.61-.08-.91-.14-7.76-1.36-15.5-2.85-23.11-4.91-1-.27-2-.57-3-.83-.64-.18-1.2-.16-1.47.61a4.23,4.23,0,0,0,1.93,5,17.25,17.25,0,0,0,2.28.92,247.06,247.06,0,0,0,24.14,7.08C100.39,836.19,100.4,836.2,100.4,832.19ZM958.69,638.51c0-1.53,0-3.06,0-4.59a2.92,2.92,0,0,0-1.9-3.14,103.06,103.06,0,0,0-10.11-3.48c-1-.29-1.66,0-1.79,1q-.67,5.76-1.3,11.54c-.14,1.35.55,2,1.85,2.33,3.87.92,7.72,1.91,11.57,2.9,1.26.32,1.68-.23,1.67-1.4C958.68,642,958.69,640.24,958.69,638.51ZM936.44,393.25a20.13,20.13,0,0,0-4.9,5.36c-5.6,7.69-11.13,15.42-16.79,23.07a9.48,9.48,0,0,0-2,5.93c0,6.33.25,12.68-.38,19a29.52,29.52,0,0,0,0,4c0,1.17.82,1.54,1.87,1.54s1.9-.18,2.08-1.34a18,18,0,0,0,.15-2.75c0-6.95.09-13.91,0-20.86a10.7,10.7,0,0,1,2.52-7.3c4.82-6,9.47-12.07,14.18-18.12a13,13,0,0,0,2.15-3.34C935.88,396.87,937,395.41,936.44,393.25ZM68,618.94h-.14c0,1.63-.06,3.27,0,4.9.09,1.93.45,2.19,2.24,1.64,3.31-1,6.6-2.13,9.9-3.17a2.16,2.16,0,0,0,1.8-2.46c-.36-3.44-.77-6.89-1.17-10.33-.15-1.33-1-1.38-2-1-1.81.71-3.68,1.28-5.41,2.14s-4.35.71-5.09,2.24S68,616.9,68,618.94ZM203.8,831.22c-1.87,1.37-3.39,2.53-5,3.63C190,841.1,180.6,846.26,169.76,848c-3,.49-3.07,1.66-3,4.23,0,1.14.6,1.69,1.79,1.45s2.62-.44,3.89-.81c11.39-3.36,21.16-9.64,30.35-16.94C204.22,834.85,204.39,833.46,203.8,831.22Zm618.69,0c-1,2.38-.29,3.75,1.23,5,7.58,6,15.57,11.27,24.58,14.87a44.06,44.06,0,0,0,9.4,2.75c.7.12,1.45.34,1.87-.52.84-1.69-.59-4.69-2.48-5-11.37-2-21.19-7.28-30.41-13.91C825.37,833.35,824.08,832.36,822.49,831.18ZM139,463.79c1.92,0,2.19-.26,1.89-2.07-.09-.5-.21-1-.34-1.49q-3.88-15.64-7.8-31.28a16.75,16.75,0,0,0-.58-2.07,2.58,2.58,0,0,0-3.23-1.55c-1.59.41-1,1.57-.75,2.49,1,4.29,2,8.56,3,12.84,1.65,6.86,3.29,13.73,5,20.59C136.74,463.53,137.05,463.75,139,463.79Zm65.57,357.36c-1.32,0-1.8.72-2.43,1.2-10.12,7.62-20.44,14.79-33.59,16-.52.05-1.11.16-1.31.65a4.59,4.59,0,0,0,0,3.87c.5,1,1.61.62,2.51.49.2,0,.4-.1.6-.14,12.52-2.8,23-9.41,32.66-17.52C204.39,824.55,204.41,823,204.53,821.15ZM958.69,618.88c0-1.73,0-3.46,0-5.19,0-.6,0-1.38-.74-1.47-3.11-.34-5.69-2.13-8.59-3-2-.62-2.36-.45-2.61,1.55-.36,3-.61,6.08-1,9.1-.2,1.47.2,2.32,1.63,2.78,3.11,1,6.18,2.07,9.29,3,1.57.49,2,.18,2-1.58S958.69,620.62,958.69,618.88ZM887.53,463.79c1.43.19,2.21-.63,2.56-2.17.8-3.6,1.7-7.17,2.56-10.75q2.76-11.47,5.53-23c.25-1,.55-2.07-.84-2.53a2.43,2.43,0,0,0-3.06,1.3,10.46,10.46,0,0,0-.51,1.76q-1.37,5.35-2.7,10.71c-1.83,7.34-3.67,14.68-5.46,22C885.1,463.26,885.49,463.74,887.53,463.79ZM822.36,820.86c-1,2.66,0,4.15,1.6,5.47a98.83,98.83,0,0,0,14.62,10.07c5.67,3.1,11.5,5.79,17.93,6.94,2.26.41,2.82-.07,2.84-2.26,0-2-.35-2.42-2.39-2.75-1.61-.26-3.23-.51-4.82-.87-6.36-1.46-12.06-4.44-17.56-7.83A110,110,0,0,1,822.36,820.86ZM88.19,191.25c-.65.63-.34,1.12-.25,1.58.74,3.6,1.45,7.21,2.24,10.8,1.44,6.47,2.7,13,4.76,19.31.76,2.35,1.22,2.63,3.49,2.56,1.89-.07,2.16-.33,1.92-2.17-.19-1.52-.47-3-.78-4.53C98,211.29,96.18,203.86,92.51,197A21.85,21.85,0,0,0,88.19,191.25Zm850.25.08a15.65,15.65,0,0,0-4.62,5.76c-4.36,8.12-6.21,17-7.86,26a4.07,4.07,0,0,0-.05.61c-.06,1.13.51,1.64,1.61,1.79,2.3.33,3.24-.24,4-2.71,2.09-7.05,3.6-14.25,5.12-21.44A79.5,79.5,0,0,0,938.44,191.33Zm-9.21,652.3c1.55-.17,3.58-.37,5.6-.62a126.22,126.22,0,0,0,17.5-2.89c3.75-1,5.08-2.78,5-6.54,0-.94-.48-1.31-1.37-1.11a16.09,16.09,0,0,0-1.75.55c-4.72,1.64-9.5,3.11-14.34,4.37-4.25,1.1-8.5,2.2-12.76,3.25-.77.19-1.37.39-1.33,1.32a1.5,1.5,0,0,0,1.43,1.66C927.72,843.66,928.24,843.63,929.23,843.63ZM166.7,357.13a1.94,1.94,0,0,0-1.72-.73c-4.89,0-9.78.08-14.66-.39-1-.1-2,0-3,0a1.66,1.66,0,0,0-1.85,1.91c0,1.42,0,2.85,0,4.28.07,2.49.3,2.69,2.89,2.8,3.35.13,6.72-.3,10.06.29a1.37,1.37,0,0,0,1.54-.66C161.77,361.83,164.31,359.61,166.7,357.13ZM97.13,843.65h.81c.92,0,2,.09,2.21-1.12.3-1.38-.76-1.72-1.76-2-.29-.09-.59-.13-.89-.21-8.43-2.11-16.85-4.29-25.08-7.1-.58-.2-1.17-.38-1.76-.55-.85-.23-1.37,0-1.51,1a5.44,5.44,0,0,0,3.66,6.19,18,18,0,0,0,1.77.53A199.81,199.81,0,0,0,97.13,843.65Zm83.12-486.87c-3.43-.42-3.66-.43-5.75.74A33.37,33.37,0,0,0,160.09,399a8.36,8.36,0,0,0,.84,1.63,1.24,1.24,0,0,0,1.62.47c.58-.28.49-.83.34-1.33-.23-.79-.48-1.56-.73-2.34a33.38,33.38,0,0,1,12.27-36.84C176.17,359.31,178,358.21,180.25,356.78Zm679.59-.39-.29.63a49.11,49.11,0,0,1,6.71,7.41,1.63,1.63,0,0,0,1.55.8c3.56-.44,7.14-.11,10.71-.24,1.51-.05,2.26-.74,2.26-2.25,0-1,0-2,0-3.07,0-3.56-.13-3.71-3.57-3.66-4.28.06-8.55.55-12.85.39C862.88,356.34,861.36,356.39,859.84,356.39Zm-13.92.41c.71.45,1.09.74,1.52,1A33.69,33.69,0,0,1,864,398c-.18.59-.38,1.17-.52,1.77s-.14,1,.49,1.27a1.17,1.17,0,0,0,1.35-.46,8.65,8.65,0,0,0,1.33-2.75,33.5,33.5,0,0,0-14.88-40.36A7.21,7.21,0,0,0,845.92,356.8ZM194.18,258.17a4.58,4.58,0,0,0,2.37,1,93.14,93.14,0,0,0,17.93,1.9c7.15.08,14.29-.07,21.43-.54a27.65,27.65,0,0,0,10.67-3.32C229.28,258,212,258.45,194.18,258.17Zm585.8-.89c2.82,1.39,5.54,2.86,8.66,3.07,11.11.75,22.23,1.27,33.34,0a33.7,33.7,0,0,0,9.45-2Q805.68,258.47,780,257.28Zm92.23,525.78.51.48c1.25-1.84,2.62-1.93,4.16-.7a4.61,4.61,0,0,0,2.91.76c1,0,1.58-.39,1.59-1.4q0-5.66,0-11.32c0-1-.44-1.6-1.47-1.53a9.45,9.45,0,0,1-6-1.92c-1.14-.75-1.69-.43-1.71,1C872.17,773.3,872.21,778.18,872.21,783.06ZM123.83,820.52c4.84.94,7.34-1,7.3-5.68,0-.51,0-1,0-1.53,0-1.22-.63-1.71-1.79-1.21-1.68.71-3.42.49-5.15.45a1.78,1.78,0,0,1-1.83-1.66,5.51,5.51,0,0,0-5.91-4.47c-1.94,0-2.24.32-2.35,2.35,0,.92,0,1.84,0,2.76.09,2.41.19,2.64,2.64,2.75s4.29,1.24,6.27,2.31c1,.55,1.61,1.25,1,2.48A1.5,1.5,0,0,0,123.83,820.52Zm778.94.11c-1-3.26-1-3.24,1.67-4.7a11,11,0,0,1,5.51-1.66c.83,0,1.75-.17,2-1.13a13.9,13.9,0,0,0,0-5.78c-.09-.43-.48-.64-.86-.8-2.16-.87-6.22,1.11-6.78,3.3-.7,2.71-.7,2.73-3.39,2.73a13.48,13.48,0,0,1-3-.26c-2.68-.62-2.68-.67-2.73,2,0,.92,0,1.84,0,2.76a2.28,2.28,0,0,0,1.13,2.05C898.2,820.25,900.14,821.41,902.77,820.63ZM145.42,393.78h0c0,1.73,0,3.47,0,5.2,0,1.49.62,2.32,2.16,2.32,1.93,0,3.87.09,5.81,0s2.23-.55,1.7-2.27a40.63,40.63,0,0,1-2-10.47c0-.86-.27-1.69-1.24-1.86a14.26,14.26,0,0,0-5.17,0c-1,.19-1.19,1-1.19,1.89C145.41,390.31,145.42,392.05,145.42,393.78Zm735.37.44h0c0-1.22,0-2.44,0-3.67,0-3.85-.34-4.15-4.19-4H876a2.26,2.26,0,0,0-2.67,2.24,46.4,46.4,0,0,1-2.26,10.73c-.42,1.19.11,1.77,1.27,1.8,2,0,4.08.1,6.11,0,1.86-.1,2.21-.52,2.31-2.49C880.85,397.28,880.79,395.75,880.79,394.22Zm-8.57,405.54.66.34c1-1.56,2.18-2,3.64-.79a4.91,4.91,0,0,0,2.89.88c1.22.09,2-.26,2-1.64,0-2.66,0-5.32,0-8,0-1-.36-2-1.5-2a10.47,10.47,0,0,1-6.26-2.16c-.82-.58-1.38-.11-1.39.83C872.21,791.44,872.22,795.6,872.22,799.76Zm.38-35.48c1.38-1.88,2.76-1.74,4.32-.56a3.94,3.94,0,0,0,1.69.64c1.88.31,2.64-.3,2.78-2.23.08-1.22.05-2.45,0-3.67-.09-6.74,1-6.14-6.65-6.13l-.61,0a1.76,1.76,0,0,0-1.91,1.92A54.67,54.67,0,0,0,872.6,764.28Zm.09,38.27c-.73,3.2-.66,10.38.18,13.15,1.12-2.69,2.58-1.7,4.06-.77a5.4,5.4,0,0,0,2.65.63c1.1.07,1.81-.32,1.81-1.51,0-2.36,0-4.71,0-7.06,0-1.06-.56-1.88-1.65-1.82C877.08,805.34,875,804,872.69,802.55ZM100.77,848.43c-8.78-.24-17.2-1.67-25.65-2.89,7.4,4.21,15.43,6.51,23.63,8.32,1.26.27,2-.19,2-1.54S100.77,849.67,100.77,848.43Zm850.13-3c-3.93.6-7.85,1.25-11.79,1.77s-7.72.84-11.56,1.33c-1.75.23-2.25,1.59-1.77,4,.33,1.73,1.47,1.33,2.59,1.1a93.74,93.74,0,0,0,16.14-4.78A23.65,23.65,0,0,0,950.9,845.41ZM824,842.49a33.5,33.5,0,0,0,7.59,6.76c7.09,5.11,14.5,9.62,23.11,11.75a32,32,0,0,0,3.63.61c.66.08,1.25-.1,1.34-.9s.07-1.49-.72-1.85a6.76,6.76,0,0,0-1.49-.36c-8.28-1.49-15.82-4.88-23-9.2C831,847.14,827.52,844.76,824,842.49ZM244.6,423.63h0c0-.82,0-1.64,0-2.45-.11-2.25-.32-2.53-2.44-2.62-1.74-.08-3.48,0-5.21,0-1.12,0-1.74.54-1.49,1.75.5,2.4,1,4.8,1.48,7.2a1.56,1.56,0,0,0,1.47,1.35c1.82.11,3.82.66,5.4-.34s.6-2.83.79-4.29A4.14,4.14,0,0,0,244.6,423.63ZM202.07,842.52c-.51.34-1,.66-1.51,1a104.81,104.81,0,0,1-15.93,9.69A60.59,60.59,0,0,1,169,858.46c-1,.18-2.22.29-2.05,1.73.2,1.64,1.57,1.41,2.63,1.22a33.38,33.38,0,0,0,5-1.23,76.13,76.13,0,0,0,18.86-10C196.63,847.92,199.74,845.64,202.07,842.52ZM781.92,423.57c0,.61,0,1.22,0,1.83.05,3.34.32,3.59,3.73,3.59h.91c2.21-.13,2.65-.48,3.1-2.58.25-1.19.42-2.4.71-3.58,1-4.07.86-4.28-3.46-4.3C781.92,418.51,781.92,418.51,781.92,423.57Zm-628.27,57.7h0c0-1,0-2,0-3.07,0-.63-.13-1.37-.77-1.55a13.73,13.73,0,0,0-6.65,0c-.17,0-.33.24-.45.4-.55.75-.48,7.16.08,7.83.06.08.12.19.21.22a10.47,10.47,0,0,0,6.6.61c1.77-.55.77-2.49,1-3.81A3.1,3.1,0,0,0,153.65,481.27Zm-12.89-87.09h0c0-1.83,0-3.67,0-5.5,0-1.57-.87-2.12-2.32-2.16-1.94-.06-2.93.35-3,1.79-.12,3.76-.11,7.54,0,11.3.05,1.65,1.48,1.69,2.75,1.7s2.49-.27,2.52-1.93S140.76,395.91,140.76,394.18ZM891.07,394c0-1.83,0-3.66,0-5.49,0-1.66-1.06-2-2.44-2-1.93,0-2.77.4-2.82,2q-.18,5.49,0,11c0,1.49,1,1.91,2.91,1.86,1.42,0,2.37-.51,2.35-2.12S891.08,395.75,891.07,394Zm-10.3,87.09a25,25,0,0,0,0-2.74c-.2-1.86-.59-2.05-3.62-2.08-3.56,0-4,.18-4.27,2.08a8.24,8.24,0,0,0-.05,1.22c0,1,0,2,0,3.05.06,3.11.48,3.48,3.63,3.22C880.66,485.52,880.8,485.37,880.77,481.11ZM117.21,845c-2.51,0-3.12.48-3.13,2.11s.39,1.9,2.34,2a7.37,7.37,0,0,1,1.83.07c2.41.83,5.34.92,6.13,4.17a1.1,1.1,0,0,0,.59.61c1.61.72,5.72-1.37,6.06-3.08a1.89,1.89,0,0,0-.24-1.76c-.55-.58-1.14-.12-1.66.15a8.68,8.68,0,0,1-4.8.6c-.83,0-1.67-.22-1.92-1.2C121.65,845.67,119.09,845.48,117.21,845Zm778.34,3.74c-.61,3,1.23,5.11,4.49,5.32.93.06,1.91.11,2-1.27,0-1,.85-1.3,1.54-1.72a11.5,11.5,0,0,1,6.91-2c1.11.07,1.62-.67,1.65-1.76s-.24-2-1.53-2.26c-2.19-.47-5.47.78-6.21,2.81-.62,1.72-1.69,2-3.23,2.11C899.13,850.1,897.38,849.26,895.55,848.72Zm-23.12-21.13c1.4-1.86,2.43-2.68,4-1.44,1.27,1,2.87,1.53,4.27.52,1.2-.88.71-2.47.67-3.76-.06-2-.34-2.33-2.34-2.42a8.54,8.54,0,0,1-4.82-1.71,1.56,1.56,0,0,0-1.83-.39A41.63,41.63,0,0,0,872.43,827.59Zm-.22,11.59c1.78-2.52,3.36-2.4,5-1a1.76,1.76,0,0,0,.83.38c1.09.19,2.26.56,3.06-.61.59-.88.37-5.21-.25-5.62A1.46,1.46,0,0,0,880,832a8.6,8.6,0,0,1-6-1.86c-1.16-.81-1.71-.51-1.76.86C872.15,833.47,872.21,835.91,872.21,839.18ZM140.8,480.76h0c0-.61,0-1.22,0-1.83,0-1.13,0-2.41-1.51-2.56s-3.29-.64-4.65.61c-.76.7-.74,6.24-.09,7.12a1.11,1.11,0,0,0,.44.4c1.63.62,3.37,1.24,5,.49,1.34-.61.66-2.17.81-3.32A6.91,6.91,0,0,0,140.8,480.76Zm751.59-.26h0c0-.81,0-1.62,0-2.43,0-.62-.19-1.28-.84-1.5a6.7,6.7,0,0,0-4.75,0c-1.27.53-1,1.87-1,3,0,1.31,0,2.63,0,3.95s.75,1.74,2,1.77c3.84.08,4.63-.66,4.64-4.47ZM872.23,849.19c2.38-2.18,2.38-2.17,4.94-.81a5.88,5.88,0,0,0,1.68.66c1.73.3,2.4-.28,2.55-2.07,0-.51,0-1,0-1.52,0-1.33-.58-2.18-2-2.08a8.06,8.06,0,0,1-5.39-1.69c-1.06-.76-1.74-.33-1.77.94C872.19,844.64,872.23,846.66,872.23,849.19Zm.29,1.85a22.27,22.27,0,0,0,.17,8.73c1.27-3.18,2.75-2.3,4.23-1.32l.27.15c1.13.58,2.44,1,3.52.36,1.26-.73.62-2.22.65-3.39s-.55-1.87-1.65-1.77C877,854,875.05,852.54,872.52,851ZM891.1,361.15h0c0-1.12,0-2.25,0-3.37a1.6,1.6,0,0,0-1.06-1.67c-2.48-.92-4.21.2-4.29,2.83,0,1.32,0,2.65,0,4,0,.73.13,1.52.9,1.8,1.23.45,2.61,1.19,3.81.7s.44-2,.62-3A7.1,7.1,0,0,0,891.1,361.15Zm-755.75-.36h0c0,1.12,0,2.25,0,3.37s.45,1.43,1.55,1.34c3.31-.27,3.84-.78,3.88-4.07,0-.92,0-1.84,0-2.76-.1-2.38-.4-2.67-2.67-2.67s-2.63.34-2.76,2.64C135.32,359.36,135.35,360.07,135.35,360.79Zm768,504.89h0c2.25,0,4.5.08,6.75,0,1.76-.08,2.28-1.07,2-3.33-.2-1.57-.94-2.24-2.5-1.83a41.25,41.25,0,0,0-4.85,1.84c-.41.17-.51.62-.57,1-.21,1.59-1.34,1.87-2.67,1.91a9,9,0,0,1-4.78-.85c-.41-.23-.94-.55-1.37,0a.67.67,0,0,0,0,.57,1.17,1.17,0,0,0,1.26.67C898.86,865.69,901.11,865.68,903.37,865.68ZM806.09,365.12a72.11,72.11,0,0,1,11.52-8.3c-2.64-.2-5.18-.16-7.71-.21a2.34,2.34,0,0,0-2.67,2.26C806.9,361,806.48,363,806.09,365.12Zm-596.94-8.5-.26.57a38.28,38.28,0,0,1,10.92,8.29c.33-2.85-.53-4.84-.81-6.9-.21-1.51-1.11-2-2.55-2C214,356.66,211.58,356.62,209.15,356.62ZM926.58,865.33c5.73.78,14.26-2.26,16.62-5.92A60.81,60.81,0,0,1,926.58,865.33Zm-53.91-3.54c-.55.45-.47,1.09-.49,1.68,0,2.06.05,2.18,2.21,2.23,1.72,0,3.44,0,5.16,0,.58,0,1.35,0,1.3-.84,0-.64-.69-.73-1.17-.7a8.9,8.9,0,0,1-5.86-2.13A1.21,1.21,0,0,0,872.67,861.79Zm-772,3.11c-6.71-.11-12.56-3-18.79-6C87.18,864,97,867,100.67,864.9Zm840.64-10.1a37.63,37.63,0,0,1-7.21,2.31c-2.18.51-4.38,1-6.57,1.49-.57.13-1.4.1-1.31.93s.9.63,1.49.63a2.48,2.48,0,0,0,.61-.07A41.18,41.18,0,0,0,941.31,854.8ZM88.54,856.51a32.85,32.85,0,0,0,10,3.67c2.09.43,2.11.33,2.07-1.71C96.43,858.68,92.57,857,88.54,856.51Zm79.22-100.86c2.45-1.82,5.73-1.35,8.76-3.42-2.59,0-4.51-.05-6.43,0C167.59,752.33,167.45,752.57,167.76,755.65Zm682.39-3.41c2.6,1.85,5.68,1.85,8.39,3.18,0-2.9-.11-3.08-2.47-3.17C854.1,752.18,852.12,752.24,850.15,752.24ZM122.34,857.45c-.42-2-1.75-2.2-2.72-2.8a6.37,6.37,0,0,0-4.39-.84c-.43.06-.8.29-.8.75a.77.77,0,0,0,.82.74C117.68,855.14,119.64,856.63,122.34,857.45Zm787.74-3.72a8.27,8.27,0,0,0-5.39,2.17.69.69,0,0,0-.08,1.06.88.88,0,0,0,.82.08,12.93,12.93,0,0,1,5.72-1.86c.2,0,.49-.43.49-.65a1,1,0,0,0-.53-.63A4.13,4.13,0,0,0,910.08,853.73Zm-14.46,4.2a6.94,6.94,0,0,0,6.45,2.37c.4-.06.83-.24.81-.73a.78.78,0,0,0-.79-.76A21.32,21.32,0,0,1,895.62,857.93Z"/><path d="M514.06,669.35H254.12c-7.58,0-15.17.13-22.74-.22-11.15-.51-22.32-.13-33.46-.62-9.42-.41-18.84-.28-28.25-.56-12-.35-23.94-.69-35.91-1.14-11.71-.45-19.85-6.49-23.86-17.51-3.17-8.67-3.34-17.64-2.59-26.68.26-3.16.49-6.15-.55-9.33-1.36-4.14-.16-8.09,2.77-11.41a22.24,22.24,0,0,1,9.19-5.94,64.32,64.32,0,0,1,16.78-3.56c13.11-1.27,26.18-.4,39.23.94,33.78,3.48,66.92,10.49,99.91,18.28.3.07.6.14.9.23,8.21,2.55,16.64,3,25.19,2.81,10.95-.22,21.92,0,32.87,0,1.23,0,2.48.23,3-1.41.28-.91,1.2-1,2-1.07,1.12,0,2.25-.06,3.37-.06q52.25,0,104.47,0c3.24,0,6.53.59,9.71-.52,1.33-3.15.38-6.45.64-9.67.09-1.12,0-2.25,0-3.38.14-2.47.5-2.83,2.91-3,.82,0,1.64,0,2.46,0h101.7c5.34,0,5.34,0,5.35,5.49,0,2.76,0,5.53,0,8.29.06,2.36.4,2.67,2.67,2.79,1,.05,2,0,3.07,0H686.57c1.13,0,2.26,0,3.38.06.73,0,1.61.12,1.85.86.54,1.7,1.77,1.63,3.17,1.63q21.51,0,43,0a29.32,29.32,0,0,0,7-.86c22.08-5.42,44.27-10.35,66.65-14.35,15.92-2.86,31.9-5.3,48-6.6a207.86,207.86,0,0,1,23-1c9,.28,18,.82,26.61,4a23.18,23.18,0,0,1,9.12,5.51c3.77,3.93,4.81,8.47,2.92,13.57a8.72,8.72,0,0,0-.48,4.19,80.61,80.61,0,0,1,.11,20.82,44.73,44.73,0,0,1-2.68,10.39c-4.14,10.39-11.89,16-23,16.51-9.61.46-19.24.63-28.86.88-10.33.28-20.68.22-31,.64-10.74.43-21.49.23-32.24.56-35.12,1.07-70.24.42-105.37.49Q605.93,669.5,514.06,669.35Zm-1-15h46.36c.82,0,1.64,0,2.45,0,2.1-.13,2.38-.43,2.52-2.61,0-.61,0-1.23,0-1.84q0-22.41,0-44.82c0-4.71,0-4.71-4.82-4.72H487.11c-7.37,0-14.73,0-22.1,0-2.89,0-3.25.35-3.26,3.15q0,23.94,0,47.89c0,2.66.32,2.87,3.09,2.94.61,0,1.23,0,1.84,0Zm1.55,10.39H612c3.86,0,3.88,0,3.88-3.94q0-10.29,0-20.59c0-6.45,0-12.9,0-19.35,0-3.75-.13-3.86-3.71-3.91H573.42c-.71,0-1.43,0-2.14.06a1.83,1.83,0,0,0-1.94,1.93c0,.92-.06,1.84-.06,2.77v32.56c0,4.68,0,4.68-4.82,4.68H461.86c-5,0-5,0-5-5.16,0-11.06,0-22.12,0-33.18,0-3.37-.29-3.64-3.72-3.65-5.94,0-11.88,0-17.82,0-6.35,0-12.7,0-19.05,0-2.64,0-2.94.4-3.05,3.06,0,.51,0,1,0,1.53q0,19.35,0,38.71c0,4.47,0,4.48,4.62,4.48Zm-253.21,0h71.2c.51,0,1,0,1.53,0,1.58.06,2.21-.78,2.2-2.26,0-.82,0-1.64,0-2.46V624.4c0-4.91,0-4.92-4.87-4.92H225.52c-.92,0-1.84,0-2.76,0-2.85.08-3.2.36-3.21,3.21q0,15.19,0,30.4c0,2.74.3,3,3,3.08,8.69.11,17.39.16,26.08.56,4.9.22,9.82.1,14.73.2,3,.06,3.37.79,1.79,3.48C264.18,662.06,262.65,663.09,261.37,664.76Zm505.73,0,.21-.51c-.47-.37-.93-.76-1.42-1.1a9.3,9.3,0,0,1-3.19-4c-.59-1.37-.29-1.85,1.18-2.1a8.32,8.32,0,0,1,1.22-.07l30.38-.62c3.68-.07,7.37,0,11-.16,2-.07,2.26-.42,2.41-2.39.07-.81,0-1.63,0-2.45q0-13.37,0-26.71c0-5.11,0-5.12-5-5.12H697.11c-.82,0-1.64,0-2.45,0-2,.14-2.28.46-2.44,2.38-.05.61,0,1.23,0,1.84q0,18.42,0,36.85c0,4.17,0,4.18,4.31,4.18h70.6Zm-113.36,0h23c2.56,0,5.12,0,7.68,0s2.73-.32,2.84-2.88c0-.51,0-1,0-1.54q0-19.34,0-38.67c0-4.68,0-4.69-4.85-4.69H625c-.72,0-1.44,0-2.15,0-2,.15-2.29.42-2.43,2.36,0,.61,0,1.23,0,1.84v39.6c0,.51,0,1,0,1.54.12,2.09.31,2.29,2.29,2.42.71,0,1.43,0,2.15,0Zm-279.12,0h28.54c.72,0,1.44,0,2.15,0,2.47-.08,2.64-.25,2.75-2.59,0-.51,0-1,0-1.54V621.33c0-4.36,0-4.37-4.45-4.37H345.91c-.51,0-1,0-1.53,0-2.76.1-3.07.42-3.16,3.3,0,.41,0,.82,0,1.23v39c0,.72,0,1.43,0,2.15,0,1.34.64,2.11,2.06,2.1.82,0,1.63,0,2.45,0ZM849.8,654.37q16.14,0,32.26,0c3.53,0,3.71-.17,3.72-3.58q0-13.81,0-27.64c0-3.42-.24-3.65-3.7-3.65H817.57c-3.49,0-3.68.19-3.69,3.62q0,13.83,0,27.65c0,.61,0,1.23.07,1.84a1.67,1.67,0,0,0,1.77,1.72c.92,0,1.84,0,2.76,0Zm-671.4,0H210c.92,0,1.84,0,2.76,0a1.67,1.67,0,0,0,1.77-1.72c.05-.72.07-1.44.07-2.15v-27c0-.72,0-1.44-.08-2.15a1.71,1.71,0,0,0-1.79-1.72c-.61,0-1.23-.07-1.84-.07H146.42c-3.46,0-3.68.23-3.69,3.65,0,9.22,0,18.43,0,27.65,0,.51,0,1,0,1.53a1.88,1.88,0,0,0,2.16,2l2.46,0ZM764.17,614l.05.42h2.93c5.22,0,10.43-.24,15.65-.38,13.71-.37,27.43-.17,41.15-.58,15.76-.47,31.53-.38,47.3-.61,14.43-.22,28.85-.86,43.28-.78.41,0,.82,0,1.23,0a1.71,1.71,0,0,0,1.77-2,7.71,7.71,0,0,0-2-5A15.43,15.43,0,0,0,910,601.1c-6.47-2.92-13.38-3.87-20.34-4.2a224.44,224.44,0,0,0-27.32.39c-13.18,1-26.26,2.76-39.29,4.86-18.3,3-36.44,6.74-54.53,10.78C767.09,613.25,765.63,613.63,764.17,614Zm-499.88.36.06-.3c-1.25-.33-2.5-.7-3.77-1-20-4.47-40-8.65-60.28-11.74-15.69-2.4-31.42-4.45-47.33-4.63-9.12-.11-18.23-.12-27.19,2a30.7,30.7,0,0,0-10.49,4.22,9.4,9.4,0,0,0-4.13,5.53c-.67,2.71,0,3.59,2.77,3.62,6.65.09,13.29.15,19.95.45,11,.5,22.11.4,33.16.54,20,.25,39.93.59,59.89.82,8.29.09,16.58-.14,24.87.45C256,614.6,260.13,614.35,264.29,614.35Zm-8,47.16c-10.23-.35-19.95-.19-29.66-.63s-19.64-.28-29.47-.6c-16.26-.53-32.54-.58-48.81-.87a94.76,94.76,0,0,1-9.82-.32,6.11,6.11,0,0,1-4.17-2.28,29.41,29.41,0,0,1-4.59-7.59,73.3,73.3,0,0,1-4.94-19.59c-.41-3.35-.61-6.73-1-10.07-.28-2.19-.55-2.39-2.73-2.49-1.94-.09-3.89-.09-5.84,0-2.15.08-2.65.53-2.93,2.72-.26,1.93-.4,3.87-.53,5.81-.52,7.94,0,15.8,2.95,23.26,3.07,7.65,8.63,12.17,17.07,13,8.26.86,16.56.42,24.84,1,8.57.55,17.18.25,25.78.62,10.42.45,20.87.15,31.31.64,7,.33,14.12.14,21.19.21a90.2,90.2,0,0,1,11,.29A12.54,12.54,0,0,0,256.27,661.51Zm516,0c3.15,2.63,6.22,3.88,9.93,3.09a15.7,15.7,0,0,1,2.75-.2c11.87-.2,23.74,0,35.61-.57,10.22-.45,20.46-.25,30.7-.58,11.45-.36,22.91-.53,34.37-.84,3.48-.1,7-.15,10.43-.42,9.56-.76,15.28-6.09,18.39-14.78a52.39,52.39,0,0,0,2.35-12.65c.49-5-.14-10-.61-15-.19-2-.8-2.37-2.84-2.47-1.43-.07-2.86,0-4.3,0-4.09,0-4.29.11-4.57,4.28a113.52,113.52,0,0,1-1.4,12.5c-1.28,7.08-3.09,14-6.82,20.26-2.23,3.75-5.23,5.31-9.55,5.34-10.13.05-20.26,0-30.39.51-9.92.46-19.85.22-29.78.59-13.39.51-26.8.54-40.21.76C781.77,661.35,777.21,661.41,772.26,661.48Zm-635-8.74a6.23,6.23,0,0,0,.57-3.71q0-12.87,0-25.75c0-7,.66-6-6.36-6.13-2.45,0-2.86.37-2.75,2.91.36,8.71,1.55,17.3,4.6,25.53A21,21,0,0,0,137.24,652.74Zm753.91-.37c1.05,0,1.23-1,1.61-1.63a38.06,38.06,0,0,0,3.68-8.73,91.27,91.27,0,0,0,3.34-21.14c.16-3.6,0-3.76-3.76-3.72l-1.84,0c-3.36.06-3.47.13-3.48,3.45q0,14.72,0,29.44C890.71,650.83,890.43,651.7,891.15,652.37Z"/><path d="M764.5,239c-14.13,0-28.26.29-42.39-.08-14.53-.39-29.07-.1-43.6-.61-13-.45-26-.1-39-.6-12-.46-24-.14-35.92-.62-11.46-.46-22.94-.14-34.39-.61-11.05-.45-22.11-.14-33.15-.62-12.19-.52-24.36-.58-36.54-.28s-24.36.23-36.53.66c-11,.38-21.91.15-32.85.57-12.49.49-25,.18-37.46.64s-25.19.15-37.76.6c-14.85.53-29.69.21-44.53.6-30.1.78-60.2.55-90.3.49-11.58,0-19.86-6-23.73-17a60.43,60.43,0,0,1-2.92-24.83c.25-3.57.57-7.14,1-10.69a96.74,96.74,0,0,1,4.64-19.37c8.78-26.1,17.46-52.23,25.79-78.48a31.35,31.35,0,0,1,6.7-12.3c4-4.27,8.82-6.48,14.79-6.06,7.07.5,14.11-.41,21.18-.49q14.88-.15,29.77-.72c14.52-.52,29.05-.85,43.58-1.3,6.85-.21,13.71-.26,20.56-.53,14.42-.57,28.84-.87,43.27-1.31,6.85-.21,13.71-.27,20.56-.54,14.42-.56,28.85-.85,43.27-1.28,14.83-.44,29.66-1.06,44.5-1.19,9.31-.08,18.62.31,27.93.65,11.36.41,22.72.46,34.08.87,14.11.51,28.23.81,42.35,1.24,14.42.43,28.85.8,43.27,1.24,14,.42,28,.8,42,1.22,14.32.43,28.65.72,43,1.27,9.82.38,19.65.23,29.46.92a40.53,40.53,0,0,0,5.83,0c6.25-.44,11.13,2.13,15.1,6.73a31.46,31.46,0,0,1,6,11.33c8.09,25.58,16.65,51,25.11,76.45,2.43,7.29,4.65,14.63,5.54,22.31,1.21,10.42,1.78,20.81-.85,31.12A34.81,34.81,0,0,1,829.5,225c-4.44,9.2-11.87,14-22,14.09-14.33.19-28.67,0-43,0ZM513.24,110H478.82c-1,0-2.05,0-3.06-.13a1.85,1.85,0,0,1-1.89-2c0-.92,0-1.84,0-2.76q0-16,0-32c0-.82,0-1.64,0-2.46a1.64,1.64,0,0,0-1.73-1.74c-.61,0-1.23,0-1.84,0L436.14,70c-7.26.23-14.53.3-21.79.55-14.32.49-28.65.71-43,1.3-6.95.28-13.91.3-20.87.54-14.43.49-28.86.76-43.28,1.29-9.51.36-19,.57-28.55.74-10.85.2-21.69,1.06-32.54.65-6.14-.23-10.36,2.58-13.4,7.57a38.13,38.13,0,0,0-3.67,8.44c-1.76,5.56-3.52,11.12-5.35,16.67q-11,33.4-22,66.8a31.36,31.36,0,0,0-.93,3.24,109.11,109.11,0,0,0-2.51,30.52,37.68,37.68,0,0,0,4.28,16.2,18.09,18.09,0,0,0,13.81,9.63,55,55,0,0,0,8.88.49c20.07-.16,40.13.22,60.2-.38,16.48-.48,33-.07,49.45-.62,13.4-.45,26.82-.11,40.23-.61,12.27-.46,24.57-.13,36.85-.61,11.76-.46,23.54-.13,35.31-.62,11-.47,22.11-.3,33.16-.57,13.09-.31,26.19-.68,39.29-.35,10.54.27,21.08.14,31.62.57,11.46.46,22.93.18,34.39.62s22.93.2,34.4.61c12.78.45,25.58.18,38.38.62,13.2.47,26.41.21,39.61.59,17,.5,34,.24,51,.63,16.27.37,32.56.12,48.85.13,3.07,0,6.15,0,9.22-.09,8.66-.34,15-4.2,18.49-12.36a43.37,43.37,0,0,0,2.84-11,81.58,81.58,0,0,0-.14-20.83,77.2,77.2,0,0,0-2.93-15.67c-9.39-28.28-18.81-56.55-27.88-84.93a27.89,27.89,0,0,0-4.71-9.26c-2.71-3.35-6.13-5.43-10.54-5.43-8.5,0-17-.23-25.49-.49-14-.42-28-.86-42-1.24-14.43-.39-28.86-.71-43.28-1.27-6.85-.27-13.71-.35-20.57-.55-14.42-.42-28.85-.76-43.27-1.29-10.13-.37-20.27-.51-30.4-.78-7.06-.18-14.12-.42-21.18-.59-3-.07-3.3.24-3.37,3.3,0,1.23,0,2.46,0,3.69q0,15.21,0,30.42c0,3.22-.37,3.54-3.48,3.64-.82,0-1.64,0-2.46,0Zm-.35-4.89q15.66,0,31.31,0c3.28,0,3.57-.28,3.58-3.46q0-14.58,0-29.17c0-3.26-.23-3.47-3.52-3.47q-31.15,0-62.32,0c-3.43,0-3.51.1-3.52,3.72q0,14.28,0,28.56c0,.61,0,1.22,0,1.84a1.74,1.74,0,0,0,1.88,1.93c.92,0,1.85.06,2.77.06Z"/><path d="M518.82,528.53c-42.05,0-76.46,0-110.87,0-10.33,0-20.65-.73-30.95-1.58-8.47-.69-16.94-1.27-25.4-2-9.48-.84-18.94-1.87-28.42-2.73-9-.83-17.87-2.2-26.87-2.69a4.06,4.06,0,0,1-3.18-1.52c-1.74-2.14-3.54-4.24-5.32-6.36a8.31,8.31,0,0,1-1.46-3A220.83,220.83,0,0,1,278,471.79a73.33,73.33,0,0,1-.07-18.37,14.89,14.89,0,0,1,1.71-5.55c1.5-2.64,3.94-3.75,6.75-2.68a18.88,18.88,0,0,0,6.93.95H732.94a18.69,18.69,0,0,0,6.93-1c2.72-1,5,0,6.62,2.4a12.28,12.28,0,0,1,1.76,5.19c1.18,8.3.56,16.55-.77,24.76a248.77,248.77,0,0,1-6.64,28.39,22.29,22.29,0,0,1-4.84,8.76c-4.87,5.56-2.9,4.67-10.27,4.8-4.92.09-9.77.95-14.66,1.43-9.06.87-18.11,1.91-27.18,2.77-10.79,1-21.6,2-32.41,2.87-7.75.62-15.51,1.18-23.28,1.44C589.2,529.27,550.18,528.08,518.82,528.53Zm-5.73-57.77H300.77c-.92,0-1.85,0-2.77,0-2.26.1-2.39.25-2.06,2.6.18,1.22.4,2.43.65,3.63,1,5,.55,4.58,5.34,4.62h1.85q209.55,0,419.11,0c6.82,0,5.67.92,7.08-5.87,1-5,.93-5-4.25-5Zm.56-18.5H296.72c-4.64,0-4.64,0-3.88,4.61.66,4,.66,4,5,4H728.27c.71,0,1.43,0,2.15,0a2.36,2.36,0,0,0,2.73-2.26c.06-.51.14-1,.25-1.52,1.18-5.63.6-4.81-4-4.81Q621.5,452.24,513.65,452.26Zm-198.46,64-.11.35c8.23.84,16.46,1.76,24.7,2.51,10.6,1,21.21,1.79,31.81,2.69,12.65,1.07,25.3,1.86,38,1.86q102.28,0,204.57,0,4.61,0,9.21-.12c10.75-.3,21.45-1.31,32.17-2,5.2-.34,10.4-.85,15.59-1.34q14.52-1.39,29-2.86c5.7-.57,11.39-1.21,17.09-1.83.78-.09,1.64-.07,1.75-1.2-1.13-.69-2.28-.4-3.37-.39-16.88.15-33.77.09-50.66.34-34.18.51-68.38.13-102.57.65-33.06.5-66.12.11-99.19.6-34.29.52-68.58,0-102.88.65-14,.28-28.05.08-42.08.11Zm198-21.58H304.29c-4.06,0-4.18,0-3.23,4.18a2.19,2.19,0,0,0,2.42,1.88c.82,0,1.64,0,2.45,0H720.41c.93,0,1.85,0,2.77-.05a2,2,0,0,0,1.78-1c1.84-3.16.82-5-2.82-5-.92,0-1.84,0-2.76,0Zm-.09,10.67H305.77c-3,.05-3.39.79-2.17,3.49a2.88,2.88,0,0,0,3,1.69c4.1.08,8.19-.33,12.27-.36,37-.22,73.92-.11,110.88-.61,30.19-.42,60.39-.12,90.59-.58,34.81-.52,69.62-.06,104.43-.63,22.21-.37,44.43-.17,66.65-.22,8.2,0,16.39-.06,24.58-.05a44.61,44.61,0,0,0,6.11-.55,1.08,1.08,0,0,0,1-1.26,1,1,0,0,0-1.11-.85c-1.12,0-2.25-.07-3.38-.07ZM513,486.22H303.47c-1,0-2.05,0-3.07,0-.68,0-1.6-.09-1.54,1,0,.88.78,1.17,1.53,1.21,1.33.07,2.66.08,4,.08H722.16c.93,0,1.85,0,2.77,0a8.6,8.6,0,0,0,1.52-.14,1.07,1.07,0,0,0,1-1,.94.94,0,0,0-.94-1c-1.23-.09-2.46-.13-3.68-.13Zm212.28,28.2c2.92.62,4,.71,4.86-.23,2.41-2.62,5-5.11,6-8.75a237,237,0,0,0,6.61-28.05c1.22-7.7,2.11-15.41,1-23.21a7.94,7.94,0,0,0-1.23-4c-.52.62-.42,1.49-1.12,1.63-2.48.5-2.64,2.48-3,4.42-2,10.76-3.89,21.54-6.16,32.25C730.33,497.16,729.32,506.07,725.25,514.42Zm-423.81.07c-2.63-3.85-3.51-8.06-4.4-12.24q-2.66-12.47-5.11-25c-1.48-7.53-2.82-15.09-4.26-22.62-.39-2-1.11-2.47-3.18-2.46-1.8,0-1.92,1.26-2,2.49a88.91,88.91,0,0,0,.1,15.65,200.11,200.11,0,0,0,7,33,23.8,23.8,0,0,0,4.63,8.85C296.13,514.46,298.07,515.38,301.44,514.49Z"/><path d="M516.09,409.31q-85.43,0-170.84-.05c-10,0-20-.69-30-1.54-10.42-.87-20.77-2.15-31.09-3.78-3-.47-5.92-1.73-9.05-.94a33.66,33.66,0,0,1-11.18-7.3,3.51,3.51,0,0,1-.56-1.41,70,70,0,0,1-3.95-25.66,16.88,16.88,0,0,1,.21-2.13c1-6.15,3.53-8.46,9.76-9,1-.08,2,0,3.07,0H462.93c1,0,2.05,0,3.07,0,.62,0,1.42,0,1.63.64.81,2.27,2.68,1.83,4.37,1.83h81.73c1.33,0,2.7.13,3.33-1.52.28-.76,1-.93,1.78-1,1,0,2,0,3.07,0q94.65,0,189.28,0c3.17,0,6.23.71,9.37.87,2.92.14,4.54,2.57,5.44,5.23a24.93,24.93,0,0,1,1.11,9.71,92.74,92.74,0,0,1-3.55,19.6,8.24,8.24,0,0,1-4.07,5.47,38.1,38.1,0,0,0-4.15,2.62c-2,1.38-3.94,2.59-6.53,1.82a4,4,0,0,0-1.8.24,320.06,320.06,0,0,1-31.89,4.6c-17.55,1.87-35.16,1.82-52.77,1.8q-73.12-.06-146.26,0Zm-2.76-46H276.44c-1.23,0-2.46,0-3.68.09a1.36,1.36,0,0,0-1.36,1.37c-.43,3.54,1.37,5.65,4.83,5.68H749.39q1.38,0,2.76-.06a1.62,1.62,0,0,0,1.58-.77c.78-1.78,1.68-3.8,1-5.58-.55-1.48-2.57-.52-3.93-.72a14.11,14.11,0,0,0-1.84,0Zm0,26.94H283.82c-1.23,0-2.47,0-3.69.09-1,.1-1.36.7-1,1.73,1.36,3.73,3,4.88,7,4.89h453.5c1,0,2,0,3.07,0a2.25,2.25,0,0,0,2.11-1c.77-1.33,1.59-2.63,2.3-4,.49-.94.2-1.61-.95-1.65s-2.25,0-3.38,0ZM738.2,401.17l-.05-.41H288.53a8.63,8.63,0,0,0,2.91.87,400.33,400.33,0,0,0,53.24,4c62.78.05,125.56,0,188.34.35,46.5.25,93,.06,139.5,0,5.93,0,11.87-.08,17.81-.3q17.8-.64,35.49-2.77C730,402.45,734.07,401.77,738.2,401.17ZM513.34,373.82h-235c-.92,0-1.85,0-2.77,0-1.82.09-2.14.59-1.61,2.28a2.15,2.15,0,0,0,2.25,1.69l3.69,0H746.25c1,0,2,0,3.07,0a6.42,6.42,0,0,0,1.52-.13,2.81,2.81,0,0,0,1.68-2.93c-.25-1.14-1.23-.88-2-.92-1-.05-2,0-3.07,0Zm-.06,7.37H279.81q-1.38,0-2.76.06a1.09,1.09,0,0,0-1.15.82,1.47,1.47,0,0,0,.48,1.38,2.35,2.35,0,0,0,1.68.63c1.13,0,2.26.05,3.38.05H745.3c1,0,2.05,0,3.07-.05a3.66,3.66,0,0,0,1.45-.41,1.59,1.59,0,0,0,.75-1.58c-.07-.82-.75-.85-1.37-.87-1,0-2.05,0-3.07,0ZM266,363.08a9.09,9.09,0,0,0-2,5.91,66.81,66.81,0,0,0,3.33,22.59c.8,2.55,6.3,6.28,9.05,6.3.07,0,.14-.13.35-.33C270.9,387,269.13,375.15,266,363.08Zm494.48.59a7.44,7.44,0,0,0-1.09,3.22c-2.53,10.07-4.18,20.42-9.37,29.65a1,1,0,0,0-.06,1.14,1,1,0,0,0,1.4.19c2.17-1.33,4.32-2.71,6.44-4.11a3.19,3.19,0,0,0,1.08-1.82,62.1,62.1,0,0,0,3.22-24.71C762,366,761.84,364.62,760.46,363.67Z"/></g></g></svg>