<?xml version="1.0" encoding="UTF-8"?>
<svg width="317px" height="103px" viewBox="0 0 317 103" version="1.1" xmlns="http://www.w3.org/2000/svg" xmlns:xlink="http://www.w3.org/1999/xlink">
    <!-- Generator: Sketch 57.1 (83088) - https://sketch.com -->
    <title>Group 83</title>
    <desc>Created with Sketch.</desc>
    <g id="Loyout" stroke="none" stroke-width="1" fill="none" fill-rule="evenodd" stroke-linecap="round" stroke-linejoin="round">
        <g id="360-3" transform="translate(-22.000000, -382.000000)" stroke="#000000">
            <g id="Group-83" transform="translate(23.000000, 383.000000)">
                <path d="M314.218192,57.9289748 C314.218192,82.2636843 283.615177,82.1151547 283.615177,82.1151547 L283.615177,72.8002268 C283.615177,68.294585 278.216321,50.8690628 257.814066,50.8690628 C235.461677,50.8690628 229.911574,70.6227682 229.911574,77.3080637 L229.911574,86.7715212 L91.9546924,87.7102575 L91.9546924,81.6146905 C91.9546924,76.9429589 89.1489531,51.0483227 64.1764128,51.0483227 C37.8411892,51.0483227 37.3180358,74.303083 37.3180358,80.9883784 L37.3180358,88 L11.4906218,86.5710428 C11.4906218,86.5710428 1.74360067,85.9198539 1.74360067,78.5102023 L1.74360067,73.1009444 C1.74360067,73.1009444 0.0433519276,71.1993265 0.0433519276,70.1976663 C0.0433519276,69.1945427 -0.457151031,63.6872406 1.94307119,61.2836951 C4.34256274,58.8801496 8.94353666,48.4655173 16.4452358,45.2607899 C23.9462042,42.0560625 57.946795,31.9406845 74.2478475,31.3392493 C74.2478475,31.3392493 127.751979,0.0946207601 173.505987,0.0946207601 C173.505987,0.0946207601 230.761333,-1.90796801 251.962931,12.5125735 C251.962931,12.5125735 273.868155,24.1966583 298.467328,24.5310328 C300.979341,24.5639581 305.868196,24.7300479 305.868196,31.3392493 C305.868196,31.3392493 309.468164,35.4497878 309.468164,45.2637166 C309.468164,45.2637166 315,47.7367711 315,52.4853283 C315,57.9662901 314.218192,56.5541614 314.218192,57.9289748 Z" id="Stroke-1"></path>
                <path d="M74,31.1400995 C74,31.1400995 79.6461942,32.5783005 81.2489895,31.7347681 C100.076502,21.833029 139.441715,8.56367116 139.441715,8.56367116 C139.441715,8.56367116 140.550211,7.47416877 139.64326,5" id="Stroke-3"></path>
                <path d="M305.335361,32 C305.335361,32 294.952091,36.9311984 292,37.0347761 C292,37.0347761 294.74755,47 302.790121,47 L309,46.283963" id="Stroke-5"></path>
                <path d="M292,37 C292,37 297.094802,40.4365059 308,38.3002262" id="Stroke-7"></path>
                <path d="M283,70.8839216 C283,70.8839216 303.601737,71.88628 312,68" id="Stroke-9"></path>
                <path d="M313.888822,59.6619749 C313.888822,59.6619749 298.415816,61 293.763497,61 C289.111178,61 288,55.6463952 288,55.6463952 L315,54" id="Stroke-11"></path>
                <path d="M304,27 C304,27 284.132673,35 243,35" id="Stroke-13"></path>
                <path d="M1,73 C5.08536836,77.4030334 27.2254053,78.3194167 37,77.913007" id="Stroke-15"></path>
                <path d="M20.8284636,66.5672739 C21.9099564,63.8347997 17.8554471,66.7858128 9.29133058,65.1748269 C6.1818573,64.5908261 4.73962495,65.340946 4,69.405326 C4,69.405326 18.704673,71.9325508 20.8284636,66.5672739 Z" id="Stroke-17"></path>
                <path d="M9,59 C9,59 12.5404022,48 36,48 C36,48 34.5844302,59 9,59 Z" id="Stroke-19"></path>
                <path d="M9,59 C9,59 21.9433028,56.9732761 36,48" id="Stroke-21"></path>
                <path d="M41,47 C41,47 66.1723355,40.5831558 85,40" id="Stroke-23"></path>
                <path d="M243.96176,23.0710085 C242.414285,48.5502094 232.543021,55.6177913 227.144753,67.6535646 C221.745755,79.6886052 216.907616,80.9203942 211.817529,81.1175098 C184.59615,82.175632 129.487373,83 102.199538,83 C96.3032162,83 89.2041144,56.6202228 89.0047465,45.5876138 C88.8053787,34.5557376 94.9288196,30.8398529 99.3996252,28.7375312 C119.139963,19.4599101 147.028822,6.07070765 180.015072,6.22092582 C180.015072,6.22092582 218.563903,4.66085511 233.842198,9.83202421 C237.424977,11.0440284 244.585423,12.7902231 243.96176,23.0710085 Z" id="Stroke-25"></path>
                <path d="M184,6 C184,6 172,38.205974 172,45.8805204 C172,53.5557999 172.608138,68.4548287 172.608138,68.9063588 C172.608138,69.3578889 174.127004,80.945941 175.190136,82" id="Stroke-27"></path>
                <path d="M186.194656,10.0070321 L180,32.9959397 C180,32.9959397 200.9608,33.1234828 218.196486,31.9488996 C236.351952,30.7120278 237.729435,27.7807604 238.749224,22.4906867 C240.249344,14.7261279 234.703645,12.9509055 230.506229,12.1381888 C218.242475,9.76381033 186.194656,10.0070321 186.194656,10.0070321 Z" id="Stroke-29"></path>
                <path d="M110.295589,36.1574061 L96,37 C96,37 141.40002,8.66234988 178,10.0493 L169.999234,32.6393592 L124.199578,35.3647597" id="Stroke-31"></path>
                <path d="M96,61.3223602 C96,61.3223602 96.5997216,65 101.611315,65 C106.62364,65 222.285705,60.9355751 222.285705,60.9355751 C222.285705,60.9355751 227,60.6392992 227,56 L96,61.3223602 Z" id="Stroke-33"></path>
                <path d="M115.790943,40.4199991 C115.790943,40.4199991 111.861117,42.2755261 114.733762,47 C114.733762,47 108.838287,46.6038844 107,39.0104636 C107,39.0104636 110.778169,38.7133769 113.952656,33.4453283 C117.12567,28.1772797 122.957096,28.0290977 124.154891,30.7245633 C125.111948,32.8764542 127.054039,40.5623983 117.705794,40.6187798 C115.609102,40.6317909 111.760994,40.4199991 113.952656,33.4453283" id="Stroke-35"></path>
                <path d="M114,39 C114,39 116.390788,29.9945681 123,29" id="Stroke-37"></path>
                <path d="M165.994762,43.5747053 C166.070367,44.5133593 165.318642,45.3315695 164.314183,45.4028938 L155.96097,45.9950196 C154.95723,46.0663439 154.080939,45.3631944 154.005334,44.4252133 C153.92901,43.4865593 154.680734,42.6683491 155.684473,42.5976977 L164.037687,42.004899 C165.043586,41.9342476 165.918438,42.6360513 165.994762,43.5747053 Z" id="Stroke-39"></path>
                <path d="M234.994762,40.5745075 C235.070365,41.5130437 234.318653,42.3304784 233.31421,42.4024664 L224.959688,42.9951907 C223.956685,43.0651604 223.080407,42.3634449 223.005524,41.4255815 C222.927761,40.4863726 223.680193,39.6682651 224.684636,39.5976226 L233.036998,39.0048984 C234.043601,38.9342559 234.917719,39.6359714 234.994762,40.5745075 Z" id="Stroke-41"></path>
                <path d="M40,77.5003634 C40,90.4805406 50.5230172,101 63.5018169,101 C76.4798899,101 87,90.4805406 87,77.5003634 C87,64.5209129 76.4798899,54 63.5018169,54 C50.5230172,54 40,64.5209129 40,77.5003634 Z" id="Stroke-43"></path>
                <path d="M48,77.4996388 C48,86.0607798 54.9388212,93 63.5010837,93 C72.0597338,93 79,86.0607798 79,77.4996388 C79,68.9399427 72.0597338,62 63.5010837,62 C54.9388212,62 48,68.9399427 48,77.4996388 Z" id="Stroke-45"></path>
                <path d="M50,77.4996384 C50,84.954123 56.0441933,91 63.5014463,91 C70.9565299,91 77,84.954123 77,77.4996384 C77,70.0444308 70.9565299,64 63.5014463,64 C56.0441933,64 50,70.0444308 50,77.4996384 Z" id="Stroke-47"></path>
                <path d="M56,76.9996424 C56,80.8671129 59.1351075,84 63.0017878,84 C66.8663227,84 70,80.8671129 70,76.9996424 C70,73.1321719 66.8663227,70 63.0017878,70 C59.1351075,70 56,73.1321719 56,76.9996424 Z" id="Stroke-49"></path>
                <path d="M62,73 C62,73.5518227 62.4467477,74 63,74 C63.5518227,74 64,73.5518227 64,73 C64,72.4481773 63.5518227,72 63,72 C62.4467477,72 62,72.4481773 62,73 Z" id="Stroke-51"></path>
                <path d="M62,81.0007143 C62,81.5514286 62.4467477,82 63,82 C63.5518227,82 64,81.5514286 64,81.0007143 C64,80.4492857 63.5518227,80 63,80 C62.4467477,80 62,80.4492857 62,81.0007143 Z" id="Stroke-53"></path>
                <path d="M58,77.0010726 C58,77.5538077 58.4454773,78 58.9989274,78 C59.5516625,78 60,77.5538077 60,77.0010726 C60,76.4497676 59.5516625,76 58.9989274,76 C58.4454773,76 58,76.4497676 58,77.0010726 Z" id="Stroke-55"></path>
                <path d="M66,77.0010726 C66,77.5538077 66.4469074,78 67.0010726,78 C67.5516625,78 68,77.5538077 68,77.0010726 C68,76.4497676 67.5516625,76 67.0010726,76 C66.4469074,76 66,76.4497676 66,77.0010726 Z" id="Stroke-57"></path>
                <path d="M234,77.5003634 C234,90.4805406 244.522616,101 257.501817,101 C270.479565,101 281,90.4805406 281,77.5003634 C281,64.5209129 270.479565,54 257.501817,54 C244.522616,54 234,64.5209129 234,77.5003634 Z" id="Stroke-59"></path>
                <path d="M242,77.4996388 C242,86.0607798 248.938821,93 257.501084,93 C266.060456,93 273,86.0607798 273,77.4996388 C273,68.9399427 266.060456,62 257.501084,62 C248.938821,62 242,68.9399427 242,77.4996388 Z" id="Stroke-61"></path>
                <path d="M244,77.4996384 C244,84.954123 250.04347,91 257.501446,91 C264.95653,91 271,84.954123 271,77.4996384 C271,70.0444308 264.95653,64 257.501446,64 C250.04347,64 244,70.0444308 244,77.4996384 Z" id="Stroke-63"></path>
                <path d="M250,76.9996424 C250,80.8671129 253.135108,84 257.001073,84 C260.865608,84 264,80.8671129 264,76.9996424 C264,73.1321719 260.865608,70 257.001073,70 C253.135108,70 250,73.1321719 250,76.9996424 Z" id="Stroke-65"></path>
                <path d="M256,73 C256,73.5518227 256.446033,74 256.999285,74 C257.551823,74 258,73.5518227 258,73 C258,72.4481773 257.551823,72 256.999285,72 C256.446033,72 256,72.4481773 256,73 Z" id="Stroke-67"></path>
                <path d="M256,81.0007143 C256,81.5514286 256.446033,82 256.999285,82 C257.551823,82 258,81.5514286 258,81.0007143 C258,80.4492857 257.551823,80 256.999285,80 C256.446033,80 256,80.4492857 256,81.0007143 Z" id="Stroke-69"></path>
                <path d="M252,77.0010726 C252,77.5538077 252.445477,78 252.998212,78 C253.551662,78 254,77.5538077 254,77.0010726 C254,76.4497676 253.551662,76 252.998212,76 C252.445477,76 252,76.4497676 252,77.0010726 Z" id="Stroke-71"></path>
                <path d="M260,77.0010726 C260,77.5538077 260.447067,78 261.002146,78 C261.552933,78 262,77.5538077 262,77.0010726 C262,76.4497676 261.552933,76 261.002146,76 C260.447067,76 260,76.4497676 260,77.0010726 Z" id="Stroke-73"></path>
                <path d="M87,77.5 L91,77.5" id="Stroke-75"></path>
                <path d="M279,68.5 L282,68.5" id="Stroke-77"></path>
                <path d="M229,76.5 L233,76.5" id="Stroke-79"></path>
                <path d="M37,75.5 L39,75.5" id="Stroke-81"></path>
            </g>
        </g>
    </g>
</svg>